<svg xmlns="http://www.w3.org/2000/svg" viewBox="0 0 632 221.92"><defs><style>.cls-1{font-size:83.48px;font-family:bankgothic, bankgothic;}.cls-1,.cls-3{fill:#2a3132;}.cls-2{fill:#7691c1;}</style></defs><title>Recurso 3</title><g id="Capa_2" data-name="Capa 2"><g id="Main"><text class="cls-1" transform="translate(215.29 67.64) scale(0.97 1)">OMA<tspan x="-220.52" y="100.18">ARQUITECTOS</tspan></text><polygon class="cls-2" points="70.2 24.17 68.87 24.69 68.87 22.75 70.2 22.2 70.2 24.17"/><polygon class="cls-2" points="66.13 28.68 64.95 29.08 64.95 27.26 66.13 26.83 66.13 28.68"/><polygon class="cls-2" points="72.45 39.53 71.02 39.74 71.02 37.75 72.45 37.49 72.45 39.53"/><polygon class="cls-2" points="68.11 43.22 66.85 43.34 66.85 41.47 68.11 41.3 68.11 43.22"/><polygon class="cls-2" points="68.11 49.3 66.85 49.31 66.85 47.43 68.11 47.38 68.11 49.3"/><polygon class="cls-2" points="70.2 49.28 68.87 49.29 68.87 47.36 70.2 47.31 70.2 49.28"/><polygon class="cls-2" points="64.28 57.9 63.17 57.76 63.17 55.99 64.28 56.1 64.28 57.9"/><polygon class="cls-2" points="72.45 59 71.02 58.81 71.02 56.81 72.45 56.96 72.45 59"/><polygon class="cls-2" points="70.2 71.25 68.87 70.82 68.87 68.89 70.2 69.28 70.2 71.25"/><polygon class="cls-2" points="66.13 72.89 64.95 72.45 64.95 70.63 66.13 71.03 66.13 72.89"/><polygon class="cls-2" points="62.53 77.11 61.48 76.62 61.48 74.91 62.53 75.36 62.53 77.11"/><polygon class="cls-3" points="57.85 23.81 56.96 24.24 56.96 22.66 57.85 22.2 57.85 23.81"/><polygon class="cls-3" points="59.32 23.1 58.38 23.55 58.38 21.93 59.32 21.45 59.32 23.1"/><polygon class="cls-3" points="60.88 22.36 59.89 22.83 59.89 21.16 60.88 20.66 60.88 22.36"/><polygon class="cls-3" points="68.11 18.9 66.85 19.5 66.85 17.63 68.11 16.99 68.11 18.9"/><polygon class="cls-3" points="70.2 17.89 68.87 18.54 68.87 16.6 70.2 15.92 70.2 17.89"/><polygon class="cls-3" points="57.85 26.37 56.96 26.75 56.96 25.17 57.85 24.76 57.85 26.37"/><polygon class="cls-3" points="59.32 25.73 58.38 26.14 58.38 24.51 59.32 24.08 59.32 25.73"/><polygon class="cls-3" points="60.88 25.06 59.89 25.48 59.89 23.82 60.88 23.36 60.88 25.06"/><polygon class="cls-3" points="62.53 24.34 61.48 24.8 61.48 23.08 62.53 22.6 62.53 24.34"/><polygon class="cls-3" points="64.28 23.59 63.17 24.07 63.17 22.3 64.28 21.79 64.28 23.59"/><polygon class="cls-3" points="66.13 22.79 64.95 23.3 64.95 21.48 66.13 20.94 66.13 22.79"/><polygon class="cls-3" points="57.85 28.92 56.96 29.27 56.96 27.68 57.85 27.32 57.85 28.92"/><polygon class="cls-3" points="59.32 28.36 58.38 28.72 58.38 27.09 59.32 26.7 59.32 28.36"/><polygon class="cls-3" points="62.53 27.12 61.48 27.52 61.48 25.81 62.53 25.38 62.53 27.12"/><polygon class="cls-3" points="64.28 26.45 63.17 26.88 63.17 25.11 64.28 24.65 64.28 26.45"/><polygon class="cls-3" points="68.11 24.98 66.85 25.46 66.85 23.59 68.11 23.07 68.11 24.98"/><polygon class="cls-3" points="57.85 31.48 56.96 31.78 56.96 30.2 57.85 29.87 57.85 31.48"/><polygon class="cls-3" points="59.32 30.98 58.38 31.3 58.38 29.67 59.32 29.33 59.32 30.98"/><polygon class="cls-3" points="60.88 30.46 59.89 30.79 59.89 29.12 60.88 28.76 60.88 30.46"/><polygon class="cls-3" points="62.53 29.9 61.48 30.25 61.48 28.54 62.53 28.15 62.53 29.9"/><polygon class="cls-3" points="64.28 29.31 63.17 29.68 63.17 27.92 64.28 27.51 64.28 29.31"/><polygon class="cls-3" points="68.11 28.02 66.85 28.44 66.85 26.57 68.11 26.11 68.11 28.02"/><polygon class="cls-3" points="72.45 26.55 71.02 27.04 71.02 25.04 72.45 24.51 72.45 26.55"/><polygon class="cls-3" points="57.85 34.04 56.96 34.29 56.96 32.71 57.85 32.43 57.85 34.04"/><polygon class="cls-3" points="59.32 33.61 58.38 33.88 58.38 32.26 59.32 31.95 59.32 33.61"/><polygon class="cls-3" points="60.88 33.16 59.89 33.44 59.89 31.77 60.88 31.46 60.88 33.16"/><polygon class="cls-3" points="62.53 32.68 61.48 32.98 61.48 31.26 62.53 30.93 62.53 32.68"/><polygon class="cls-3" points="64.28 32.17 63.17 32.49 63.17 30.73 64.28 30.37 64.28 32.17"/><polygon class="cls-3" points="68.11 31.06 66.85 31.42 66.85 29.55 68.11 29.15 68.11 31.06"/><polygon class="cls-3" points="70.2 30.45 68.87 30.84 68.87 28.9 70.2 28.48 70.2 30.45"/><polygon class="cls-3" points="57.85 36.59 56.96 36.81 56.96 35.23 57.85 34.98 57.85 36.59"/><polygon class="cls-3" points="59.32 36.23 58.38 36.46 58.38 34.84 59.32 34.58 59.32 36.23"/><polygon class="cls-3" points="60.88 35.85 59.89 36.09 59.89 34.43 60.88 34.16 60.88 35.85"/><polygon class="cls-3" points="62.53 35.45 61.48 35.71 61.48 33.99 62.53 33.71 62.53 35.45"/><polygon class="cls-3" points="66.13 34.58 64.95 34.87 64.95 33.05 66.13 32.72 66.13 34.58"/><polygon class="cls-3" points="68.11 34.1 66.85 34.4 66.85 32.53 68.11 32.19 68.11 34.1"/><polygon class="cls-3" points="57.85 39.15 56.96 39.32 56.96 37.74 57.85 37.54 57.85 39.15"/><polygon class="cls-3" points="59.32 38.86 58.38 39.04 58.38 37.42 59.32 37.21 59.32 38.86"/><polygon class="cls-3" points="62.53 38.23 61.48 38.44 61.48 36.72 62.53 36.48 62.53 38.23"/><polygon class="cls-3" points="66.13 37.52 64.95 37.76 64.95 35.94 66.13 35.67 66.13 37.52"/><polygon class="cls-3" points="70.2 36.73 68.87 36.99 68.87 35.05 70.2 34.75 70.2 36.73"/><polygon class="cls-3" points="72.45 36.29 71.02 36.57 71.02 34.57 72.45 34.25 72.45 36.29"/><polygon class="cls-3" points="57.85 41.7 56.96 41.84 56.96 40.26 57.85 40.1 57.85 41.7"/><polygon class="cls-3" points="59.32 41.48 58.38 41.63 58.38 40 59.32 39.83 59.32 41.48"/><polygon class="cls-3" points="60.88 41.25 59.89 41.4 59.89 39.73 60.88 39.55 60.88 41.25"/><polygon class="cls-3" points="62.53 41.01 61.48 41.16 61.48 39.45 62.53 39.26 62.53 41.01"/><polygon class="cls-3" points="64.28 40.75 63.17 40.91 63.17 39.15 64.28 38.95 64.28 40.75"/><polygon class="cls-3" points="66.13 40.47 64.95 40.65 64.95 38.83 66.13 38.62 66.13 40.47"/><polygon class="cls-3" points="57.85 44.26 56.96 44.35 56.96 42.77 57.85 42.65 57.85 44.26"/><polygon class="cls-3" points="59.32 44.11 58.38 44.21 58.38 42.58 59.32 42.46 59.32 44.11"/><polygon class="cls-3" points="60.88 43.95 59.89 44.05 59.89 42.38 60.88 42.25 60.88 43.95"/><polygon class="cls-3" points="62.53 43.78 61.48 43.89 61.48 42.17 62.53 42.04 62.53 43.78"/><polygon class="cls-3" points="64.28 43.61 63.17 43.72 63.17 41.95 64.28 41.81 64.28 43.61"/><polygon class="cls-3" points="72.45 42.78 71.02 42.92 71.02 40.92 72.45 40.73 72.45 42.78"/><polygon class="cls-3" points="57.85 46.82 56.96 46.87 56.96 45.28 57.85 45.21 57.85 46.82"/><polygon class="cls-3" points="59.32 46.74 58.38 46.79 58.38 45.16 59.32 45.08 59.32 46.74"/><polygon class="cls-3" points="60.88 46.65 59.89 46.71 59.89 45.04 60.88 44.95 60.88 46.65"/><polygon class="cls-3" points="64.28 46.47 63.17 46.53 63.17 44.76 64.28 44.67 64.28 46.47"/><polygon class="cls-3" points="66.13 46.37 64.95 46.43 64.95 44.61 66.13 44.51 66.13 46.37"/><polygon class="cls-3" points="72.45 46.02 71.02 46.1 71.02 44.1 72.45 43.98 72.45 46.02"/><polygon class="cls-3" points="57.85 49.37 56.96 49.38 56.96 47.8 57.85 47.77 57.85 49.37"/><polygon class="cls-3" points="59.32 49.36 58.38 49.37 58.38 47.74 59.32 47.71 59.32 49.36"/><polygon class="cls-3" points="60.88 49.35 59.89 49.36 59.89 47.69 60.88 47.65 60.88 49.35"/><polygon class="cls-3" points="64.28 49.33 63.17 49.33 63.17 47.57 64.28 47.53 64.28 49.33"/><polygon class="cls-3" points="72.45 49.27 71.02 49.28 71.02 47.28 72.45 47.22 72.45 49.27"/><polygon class="cls-3" points="57.85 51.93 56.96 51.89 56.96 50.31 57.85 50.32 57.85 51.93"/><polygon class="cls-3" points="59.32 51.99 58.38 51.95 58.38 50.33 59.32 50.34 59.32 51.99"/><polygon class="cls-3" points="60.88 52.05 59.89 52.01 59.89 50.34 60.88 50.35 60.88 52.05"/><polygon class="cls-3" points="62.53 52.12 61.48 52.07 61.48 50.36 62.53 50.37 62.53 52.12"/><polygon class="cls-3" points="66.13 52.26 64.95 52.21 64.95 50.39 66.13 50.4 66.13 52.26"/><polygon class="cls-3" points="72.45 52.51 71.02 52.45 71.02 50.45 72.45 50.47 72.45 52.51"/><polygon class="cls-3" points="57.85 54.49 56.96 54.41 56.96 52.83 57.85 52.88 57.85 54.49"/><polygon class="cls-3" points="59.32 54.61 58.38 54.53 58.38 52.91 59.32 52.96 59.32 54.61"/><polygon class="cls-3" points="60.88 54.75 59.89 54.66 59.89 52.99 60.88 53.05 60.88 54.75"/><polygon class="cls-3" points="62.53 54.89 61.48 54.8 61.48 53.09 62.53 53.15 62.53 54.89"/><polygon class="cls-3" points="64.28 55.04 63.17 54.95 63.17 53.18 64.28 53.24 64.28 55.04"/><polygon class="cls-3" points="68.11 55.38 66.85 55.27 66.85 53.39 68.11 53.46 68.11 55.38"/><polygon class="cls-3" points="72.45 55.75 71.02 55.63 71.02 53.63 72.45 53.71 72.45 55.75"/><polygon class="cls-3" points="57.85 57.04 56.96 56.92 56.96 55.34 57.85 55.43 57.85 57.04"/><polygon class="cls-3" points="59.32 57.24 58.38 57.11 58.38 55.49 59.32 55.59 59.32 57.24"/><polygon class="cls-3" points="60.88 57.45 59.89 57.32 59.89 55.65 60.88 55.75 60.88 57.45"/><polygon class="cls-3" points="66.13 58.15 64.95 57.99 64.95 56.17 66.13 56.3 66.13 58.15"/><polygon class="cls-3" points="68.11 58.42 66.85 58.25 66.85 56.37 68.11 56.5 68.11 58.42"/><polygon class="cls-3" points="57.85 59.6 56.96 59.44 56.96 57.85 57.85 57.99 57.85 59.6"/><polygon class="cls-3" points="59.32 59.87 58.38 59.7 58.38 58.07 59.32 58.21 59.32 59.87"/><polygon class="cls-3" points="60.88 60.15 59.89 59.97 59.89 58.3 60.88 58.45 60.88 60.15"/><polygon class="cls-3" points="62.53 60.45 61.48 60.26 61.48 58.54 62.53 58.7 62.53 60.45"/><polygon class="cls-3" points="64.28 60.76 63.17 60.56 63.17 58.8 64.28 58.96 64.28 60.76"/><polygon class="cls-3" points="70.2 61.84 68.87 61.59 68.87 59.66 70.2 59.86 70.2 61.84"/><polygon class="cls-3" points="72.45 62.24 71.02 61.98 71.02 59.98 72.45 60.2 72.45 62.24"/><polygon class="cls-3" points="57.85 62.15 56.96 61.95 56.96 60.37 57.85 60.55 57.85 62.15"/><polygon class="cls-3" points="59.32 62.49 58.38 62.28 58.38 60.65 59.32 60.84 59.32 62.49"/><polygon class="cls-3" points="64.28 63.62 63.17 63.37 63.17 61.6 64.28 61.82 64.28 63.62"/><polygon class="cls-3" points="66.13 64.05 64.95 63.78 64.95 61.96 66.13 62.19 66.13 64.05"/><polygon class="cls-3" points="68.11 64.5 66.85 64.21 66.85 62.33 68.11 62.58 68.11 64.5"/><polygon class="cls-3" points="72.45 65.49 71.02 65.16 71.02 63.16 72.45 63.45 72.45 65.49"/><polygon class="cls-3" points="57.85 64.71 56.96 64.47 56.96 62.88 57.85 63.1 57.85 64.71"/><polygon class="cls-3" points="59.32 65.12 58.38 64.86 58.38 63.23 59.32 63.47 59.32 65.12"/><polygon class="cls-3" points="60.88 65.55 59.89 65.27 59.89 63.6 60.88 63.85 60.88 65.55"/><polygon class="cls-3" points="64.28 66.48 63.17 66.18 63.17 64.41 64.28 64.68 64.28 66.48"/><polygon class="cls-3" points="72.45 68.73 71.02 68.34 71.02 66.34 72.45 66.69 72.45 68.73"/><polygon class="cls-3" points="57.85 67.27 56.96 66.98 56.96 65.4 57.85 65.66 57.85 67.27"/><polygon class="cls-3" points="59.32 67.74 58.38 67.44 58.38 65.82 59.32 66.09 59.32 67.74"/><polygon class="cls-3" points="60.88 68.25 59.89 67.93 59.89 66.26 60.88 66.55 60.88 68.25"/><polygon class="cls-3" points="62.53 68.78 61.48 68.44 61.48 66.72 62.53 67.03 62.53 68.78"/><polygon class="cls-3" points="64.28 69.34 63.17 68.98 63.17 67.22 64.28 67.54 64.28 69.34"/><polygon class="cls-3" points="57.85 69.82 56.96 69.49 56.96 67.91 57.85 68.21 57.85 69.82"/><polygon class="cls-3" points="59.32 70.37 58.38 70.02 58.38 68.4 59.32 68.72 59.32 70.37"/><polygon class="cls-3" points="60.88 70.94 59.89 70.58 59.89 68.91 60.88 69.25 60.88 70.94"/><polygon class="cls-3" points="62.53 71.56 61.48 71.17 61.48 69.45 62.53 69.81 62.53 71.56"/><polygon class="cls-3" points="72.45 75.22 71.02 74.69 71.02 72.69 72.45 73.18 72.45 75.22"/><polygon class="cls-3" points="57.85 72.38 56.96 72.01 56.96 70.43 57.85 70.77 57.85 72.38"/><polygon class="cls-3" points="59.32 73 58.38 72.6 58.38 70.98 59.32 71.34 59.32 73"/><polygon class="cls-3" points="60.88 73.64 59.89 73.23 59.89 71.56 60.88 71.95 60.88 73.64"/><polygon class="cls-3" points="59.32 75.62 58.38 75.19 58.38 73.56 59.32 73.97 59.32 75.62"/><polygon class="cls-3" points="72.45 81.71 71.02 81.05 71.02 79.05 72.45 79.67 72.45 81.71"/><polygon class="cls-3" points="57.85 77.49 56.96 77.04 56.96 75.45 57.85 75.88 57.85 77.49"/><polygon class="cls-3" points="60.88 79.04 59.89 78.54 59.89 76.87 60.88 77.34 60.88 79.04"/><polygon class="cls-3" points="66.13 81.73 64.95 81.12 64.95 79.31 66.13 79.87 66.13 81.73"/><polygon class="cls-3" points="68.11 82.73 66.85 82.09 66.85 80.22 68.11 80.82 68.11 82.73"/><polygon class="cls-3" points="72.45 84.95 71.02 84.22 71.02 82.22 72.45 82.91 72.45 84.95"/><polygon class="cls-2" points="89.36 23.95 88.45 23.51 88.45 21.88 89.36 22.35 89.36 23.95"/><polygon class="cls-2" points="81.16 28.81 79.95 28.4 79.95 26.52 81.16 26.97 81.16 28.81"/><polygon class="cls-2" points="74.93 42.82 73.46 42.67 73.46 40.6 74.93 40.8 74.93 42.82"/><polygon class="cls-2" points="81.16 46.38 79.95 46.32 79.95 44.44 81.16 44.54 81.16 46.38"/><polygon class="cls-2" points="89.36 51.92 88.45 51.95 88.45 50.33 89.36 50.32 89.36 51.92"/><polygon class="cls-2" points="82.99 60.7 81.85 60.91 81.85 59.08 82.99 58.91 82.99 60.7"/><polygon class="cls-3" points="74.93 17.04 73.46 16.34 73.46 14.27 74.93 15.01 74.93 17.04"/><polygon class="cls-3" points="77.14 18.1 75.77 17.44 75.77 15.44 77.14 16.14 77.14 18.1"/><polygon class="cls-3" points="79.21 19.09 77.92 18.47 77.92 16.54 79.21 17.19 79.21 19.09"/><polygon class="cls-3" points="82.99 20.9 81.85 20.36 81.85 18.53 82.99 19.11 82.99 20.9"/><polygon class="cls-3" points="84.72 21.73 83.65 21.21 83.65 19.44 84.72 19.99 84.72 21.73"/><polygon class="cls-3" points="87.89 23.25 86.93 22.79 86.93 21.11 87.89 21.6 87.89 23.25"/><polygon class="cls-3" points="74.93 20.26 73.46 19.63 73.46 17.56 74.93 18.23 74.93 20.26"/><polygon class="cls-3" points="81.16 22.95 79.95 22.43 79.95 20.55 81.16 21.11 81.16 22.95"/><polygon class="cls-3" points="84.72 24.49 83.65 24.02 83.65 22.26 84.72 22.75 84.72 24.49"/><polygon class="cls-3" points="86.35 25.19 85.34 24.75 85.34 23.04 86.35 23.5 86.35 25.19"/><polygon class="cls-3" points="89.36 26.49 88.45 26.1 88.45 24.47 89.36 24.89 89.36 26.49"/><polygon class="cls-3" points="74.93 23.49 73.46 22.92 73.46 20.85 74.93 21.46 74.93 23.49"/><polygon class="cls-3" points="81.16 25.88 79.95 25.42 79.95 23.54 81.16 24.04 81.16 25.88"/><polygon class="cls-3" points="82.99 26.59 81.85 26.15 81.85 24.32 82.99 24.8 82.99 26.59"/><polygon class="cls-3" points="86.35 27.88 85.34 27.49 85.34 25.77 86.35 26.19 86.35 27.88"/><polygon class="cls-3" points="89.36 29.03 88.45 28.68 88.45 27.05 89.36 27.43 89.36 29.03"/><polygon class="cls-3" points="74.93 26.71 73.46 26.21 73.46 24.14 74.93 24.68 74.93 26.71"/><polygon class="cls-3" points="77.14 27.45 75.77 26.99 75.77 24.99 77.14 25.49 77.14 27.45"/><polygon class="cls-3" points="82.99 29.43 81.85 29.04 81.85 27.22 82.99 27.64 82.99 29.43"/><polygon class="cls-3" points="84.72 30.01 83.65 29.65 83.65 27.88 84.72 28.27 84.72 30.01"/><polygon class="cls-3" points="86.35 30.56 85.34 30.22 85.34 28.5 86.35 28.87 86.35 30.56"/><polygon class="cls-3" points="89.36 31.57 88.45 31.27 88.45 29.64 89.36 29.98 89.36 31.57"/><polygon class="cls-3" points="74.93 29.93 73.46 29.5 73.46 27.43 74.93 27.9 74.93 29.93"/><polygon class="cls-3" points="77.14 30.57 75.77 30.17 75.77 28.17 77.14 28.61 77.14 30.57"/><polygon class="cls-3" points="79.21 31.18 77.92 30.8 77.92 28.86 79.21 29.27 79.21 31.18"/><polygon class="cls-3" points="82.99 32.27 81.85 31.94 81.85 30.12 82.99 30.48 82.99 32.27"/><polygon class="cls-3" points="86.35 33.25 85.34 32.95 85.34 31.23 86.35 31.56 86.35 33.25"/><polygon class="cls-3" points="87.89 33.69 86.93 33.41 86.93 31.74 87.89 32.05 87.89 33.69"/><polygon class="cls-3" points="89.36 34.12 88.45 33.85 88.45 32.23 89.36 32.52 89.36 34.12"/><polygon class="cls-3" points="74.93 33.15 73.46 32.8 73.46 30.73 74.93 31.13 74.93 33.15"/><polygon class="cls-3" points="81.16 34.67 79.95 34.38 79.95 32.5 81.16 32.83 81.16 34.67"/><polygon class="cls-3" points="82.99 35.11 81.85 34.84 81.85 33.02 82.99 33.33 82.99 35.11"/><polygon class="cls-3" points="84.72 35.53 83.65 35.27 83.65 33.5 84.72 33.8 84.72 35.53"/><polygon class="cls-3" points="89.36 36.66 88.45 36.44 88.45 34.81 89.36 35.06 89.36 36.66"/><polygon class="cls-3" points="74.93 36.38 73.46 36.09 73.46 34.02 74.93 34.35 74.93 36.38"/><polygon class="cls-3" points="77.14 36.81 75.77 36.54 75.77 34.54 77.14 34.85 77.14 36.81"/><polygon class="cls-3" points="79.21 37.22 77.92 36.96 77.92 35.02 79.21 35.32 79.21 37.22"/><polygon class="cls-3" points="81.16 37.6 79.95 37.36 79.95 35.48 81.16 35.76 81.16 37.6"/><polygon class="cls-3" points="84.72 38.3 83.65 38.09 83.65 36.32 84.72 36.56 84.72 38.3"/><polygon class="cls-3" points="86.35 38.62 85.34 38.42 85.34 36.7 86.35 36.93 86.35 38.62"/><polygon class="cls-3" points="87.89 38.92 86.93 38.73 86.93 37.06 87.89 37.27 87.89 38.92"/><polygon class="cls-3" points="89.36 39.2 88.45 39.03 88.45 37.4 89.36 37.6 89.36 39.2"/><polygon class="cls-3" points="77.14 39.93 75.77 39.73 75.77 37.72 77.14 37.97 77.14 39.93"/><polygon class="cls-3" points="79.21 40.24 77.92 40.05 77.92 38.11 79.21 38.34 79.21 40.24"/><polygon class="cls-3" points="82.99 40.8 81.85 40.63 81.85 38.81 82.99 39.01 82.99 40.8"/><polygon class="cls-3" points="84.72 41.06 83.65 40.9 83.65 39.13 84.72 39.32 84.72 41.06"/><polygon class="cls-3" points="89.36 41.75 88.45 41.61 88.45 39.98 89.36 40.15 89.36 41.75"/><polygon class="cls-3" points="77.14 43.05 75.77 42.91 75.77 40.91 77.14 41.09 77.14 43.05"/><polygon class="cls-3" points="79.21 43.26 77.92 43.13 77.92 41.19 79.21 41.36 79.21 43.26"/><polygon class="cls-3" points="84.72 43.82 83.65 43.71 83.65 41.94 84.72 42.08 84.72 43.82"/><polygon class="cls-3" points="86.35 43.98 85.34 43.88 85.34 42.16 86.35 42.3 86.35 43.98"/><polygon class="cls-3" points="87.89 44.14 86.93 44.04 86.93 42.37 87.89 42.5 87.89 44.14"/><polygon class="cls-3" points="89.36 44.29 88.45 44.2 88.45 42.57 89.36 42.69 89.36 44.29"/><polygon class="cls-3" points="74.93 46.05 73.46 45.97 73.46 43.89 74.93 44.02 74.93 46.05"/><polygon class="cls-3" points="82.99 46.48 81.85 46.42 81.85 44.6 82.99 44.7 82.99 46.48"/><polygon class="cls-3" points="86.35 46.67 85.34 46.61 85.34 44.89 86.35 44.98 86.35 46.67"/><polygon class="cls-3" points="87.89 46.75 86.93 46.7 86.93 45.03 87.89 45.11 87.89 46.75"/><polygon class="cls-3" points="89.36 46.83 88.45 46.78 88.45 45.16 89.36 45.23 89.36 46.83"/><polygon class="cls-3" points="77.14 49.28 75.77 49.27 75.77 47.27 77.14 47.32 77.14 49.28"/><polygon class="cls-3" points="79.21 49.3 77.92 49.29 77.92 47.35 79.21 47.4 79.21 49.3"/><polygon class="cls-3" points="82.99 49.33 81.85 49.32 81.85 47.5 82.99 47.54 82.99 49.33"/><polygon class="cls-3" points="84.72 49.34 83.65 49.33 83.65 47.56 84.72 47.6 84.72 49.34"/><polygon class="cls-3" points="89.36 49.38 88.45 49.37 88.45 47.74 89.36 47.77 89.36 49.38"/><polygon class="cls-3" points="74.93 52.49 73.46 52.55 73.46 50.48 74.93 50.46 74.93 52.49"/><polygon class="cls-3" points="77.14 52.4 75.77 52.46 75.77 50.45 77.14 50.44 77.14 52.4"/><polygon class="cls-3" points="79.21 52.32 77.92 52.37 77.92 50.43 79.21 50.42 79.21 52.32"/><polygon class="cls-3" points="81.16 52.24 79.95 52.29 79.95 50.41 81.16 50.4 81.16 52.24"/><polygon class="cls-3" points="84.72 52.1 83.65 52.15 83.65 50.38 84.72 50.37 84.72 52.1"/><polygon class="cls-3" points="87.89 51.98 86.93 52.01 86.93 50.34 87.89 50.33 87.89 51.98"/><polygon class="cls-3" points="74.93 55.71 73.46 55.84 73.46 53.77 74.93 53.69 74.93 55.71"/><polygon class="cls-3" points="81.16 55.17 79.95 55.28 79.95 53.4 81.16 53.33 81.16 55.17"/><polygon class="cls-3" points="82.99 55.01 81.85 55.11 81.85 53.29 82.99 53.23 82.99 55.01"/><polygon class="cls-3" points="84.72 54.86 83.65 54.96 83.65 53.19 84.72 53.13 84.72 54.86"/><polygon class="cls-3" points="86.35 54.72 85.34 54.81 85.34 53.09 86.35 53.03 86.35 54.72"/><polygon class="cls-3" points="89.36 54.46 88.45 54.54 88.45 52.91 89.36 52.86 89.36 54.46"/><polygon class="cls-3" points="74.93 58.94 73.46 59.13 73.46 57.06 74.93 56.91 74.93 58.94"/><polygon class="cls-3" points="79.21 58.36 77.92 58.53 77.92 56.6 79.21 56.46 79.21 58.36"/><polygon class="cls-3" points="81.16 58.1 79.95 58.26 79.95 56.38 81.16 56.26 81.16 58.1"/><polygon class="cls-3" points="84.72 57.63 83.65 57.77 83.65 56 84.72 55.89 84.72 57.63"/><polygon class="cls-3" points="86.35 57.41 85.34 57.54 85.34 55.82 86.35 55.72 86.35 57.41"/><polygon class="cls-3" points="87.89 57.2 86.93 57.33 86.93 55.66 87.89 55.56 87.89 57.2"/><polygon class="cls-3" points="89.36 57 88.45 57.13 88.45 55.5 89.36 55.4 89.36 57"/><polygon class="cls-3" points="74.93 62.16 73.46 62.43 73.46 60.35 74.93 60.13 74.93 62.16"/><polygon class="cls-3" points="77.14 61.76 75.77 62.01 75.77 60.01 77.14 59.8 77.14 61.76"/><polygon class="cls-3" points="81.16 61.03 79.95 61.25 79.95 59.37 81.16 59.19 81.16 61.03"/><polygon class="cls-3" points="86.35 60.09 85.34 60.27 85.34 58.56 86.35 58.4 86.35 60.09"/><polygon class="cls-3" points="87.89 59.81 86.93 59.98 86.93 58.31 87.89 58.17 87.89 59.81"/><polygon class="cls-3" points="89.36 59.55 88.45 59.71 88.45 58.09 89.36 57.95 89.36 59.55"/><polygon class="cls-3" points="74.93 65.38 73.46 65.72 73.46 63.65 74.93 63.35 74.93 65.38"/><polygon class="cls-3" points="79.21 64.41 77.92 64.7 77.92 62.76 79.21 62.5 79.21 64.41"/><polygon class="cls-3" points="81.16 63.96 79.95 64.24 79.95 62.36 81.16 62.12 81.16 63.96"/><polygon class="cls-3" points="84.72 63.15 83.65 63.39 83.65 61.62 84.72 61.41 84.72 63.15"/><polygon class="cls-3" points="86.35 62.77 85.34 63.01 85.34 61.29 86.35 61.09 86.35 62.77"/><polygon class="cls-3" points="87.89 62.42 86.93 62.64 86.93 60.97 87.89 60.78 87.89 62.42"/><polygon class="cls-3" points="89.36 62.09 88.45 62.3 88.45 60.67 89.36 60.49 89.36 62.09"/><polygon class="cls-3" points="77.14 68 75.77 68.38 75.77 66.37 77.14 66.03 77.14 68"/><polygon class="cls-3" points="82.99 66.39 81.85 66.7 81.85 64.88 82.99 64.6 82.99 66.39"/><polygon class="cls-3" points="87.89 65.03 86.93 65.3 86.93 63.63 87.89 63.39 87.89 65.03"/><polygon class="cls-3" points="89.36 64.63 88.45 64.88 88.45 63.26 89.36 63.03 89.36 64.63"/><polygon class="cls-3" points="77.14 71.11 75.77 71.56 75.77 69.56 77.14 69.15 77.14 71.11"/><polygon class="cls-3" points="82.99 69.23 81.85 69.59 81.85 67.77 82.99 67.44 82.99 69.23"/><polygon class="cls-3" points="86.35 68.14 85.34 68.47 85.34 66.75 86.35 66.45 86.35 68.14"/><polygon class="cls-3" points="89.36 67.17 88.45 67.47 88.45 65.84 89.36 65.58 89.36 67.17"/><polygon class="cls-3" points="74.93 75.05 73.46 75.59 73.46 73.52 74.93 73.02 74.93 75.05"/><polygon class="cls-3" points="87.89 70.26 86.93 70.61 86.93 68.94 87.89 68.61 87.89 70.26"/><polygon class="cls-3" points="89.36 69.72 88.45 70.06 88.45 68.43 89.36 68.12 89.36 69.72"/><polygon class="cls-3" points="74.93 78.27 73.46 78.89 73.46 76.81 74.93 76.25 74.93 78.27"/><polygon class="cls-3" points="79.21 76.49 77.92 77.03 77.92 75.09 79.21 74.59 79.21 76.49"/><polygon class="cls-3" points="84.72 74.19 83.65 74.64 83.65 72.87 84.72 72.45 84.72 74.19"/><polygon class="cls-3" points="87.89 72.87 86.93 73.27 86.93 71.6 87.89 71.23 87.89 72.87"/><polygon class="cls-3" points="89.36 72.26 88.45 72.64 88.45 71.01 89.36 70.66 89.36 72.26"/><polygon class="cls-3" points="82.99 77.76 81.85 78.28 81.85 76.46 82.99 75.97 82.99 77.76"/><polygon class="cls-3" points="86.35 76.2 85.34 76.67 85.34 74.95 86.35 74.51 86.35 76.2"/><polygon class="cls-3" points="81.16 81.53 79.95 82.15 79.95 80.28 81.16 79.69 81.16 81.53"/><polygon class="cls-3" points="84.72 79.72 83.65 80.27 83.65 78.5 84.72 77.98 84.72 79.72"/><polygon class="cls-3" points="86.35 78.88 85.34 79.4 85.34 77.68 86.35 77.19 86.35 78.88"/><polygon class="cls-3" points="87.89 78.09 86.93 78.58 86.93 76.91 87.89 76.45 87.89 78.09"/><polygon class="cls-2" points="145.22 28.49 144.04 28.94 144.04 27.23 145.22 26.75 145.22 28.49"/><polygon class="cls-2" points="141.63 32.47 140.59 32.82 140.59 31.21 141.63 30.83 141.63 32.47"/><polygon class="cls-2" points="147.19 42.03 145.94 42.22 145.94 40.46 147.19 40.23 147.19 42.03"/><polygon class="cls-2" points="143.37 45.28 142.26 45.4 142.26 43.74 143.37 43.6 143.37 45.28"/><polygon class="cls-2" points="143.37 50.64 142.26 50.65 142.26 49 143.37 48.96 143.37 50.64"/><polygon class="cls-2" points="145.22 50.63 144.04 50.64 144.04 48.93 145.22 48.89 145.22 50.63"/><polygon class="cls-2" points="139.99 58.23 139.01 58.1 139.01 56.55 139.99 56.65 139.99 58.23"/><polygon class="cls-2" points="147.19 59.2 145.94 59.03 145.94 57.27 147.19 57.4 147.19 59.2"/><polygon class="cls-2" points="145.22 70.01 144.04 69.63 144.04 67.92 145.22 68.26 145.22 70.01"/><polygon class="cls-2" points="141.63 71.45 140.59 71.06 140.59 69.46 141.63 69.81 141.63 71.45"/><polygon class="cls-2" points="138.45 75.17 137.53 74.74 137.53 73.23 138.45 73.63 138.45 75.17"/><polygon class="cls-3" points="134.32 28.17 133.53 28.54 133.53 27.15 134.32 26.75 134.32 28.17"/><polygon class="cls-3" points="135.62 27.55 134.79 27.94 134.79 26.51 135.62 26.09 135.62 27.55"/><polygon class="cls-3" points="137 26.89 136.12 27.3 136.12 25.83 137 25.39 137 26.89"/><polygon class="cls-3" points="143.37 23.84 142.26 24.37 142.26 22.71 143.37 22.15 143.37 23.84"/><polygon class="cls-3" points="145.22 22.95 144.04 23.52 144.04 21.81 145.22 21.21 145.22 22.95"/><polygon class="cls-3" points="134.32 30.42 133.53 30.76 133.53 29.37 134.32 29 134.32 30.42"/><polygon class="cls-3" points="135.62 29.86 134.79 30.22 134.79 28.79 135.62 28.4 135.62 29.86"/><polygon class="cls-3" points="137 29.27 136.12 29.64 136.12 28.17 137 27.77 137 29.27"/><polygon class="cls-3" points="138.45 28.64 137.53 29.04 137.53 27.52 138.45 27.1 138.45 28.64"/><polygon class="cls-3" points="139.99 27.97 139.01 28.4 139.01 26.84 139.99 26.39 139.99 27.97"/><polygon class="cls-3" points="141.63 27.27 140.59 27.72 140.59 26.11 141.63 25.63 141.63 27.27"/><polygon class="cls-3" points="134.32 32.68 133.53 32.98 133.53 31.58 134.32 31.26 134.32 32.68"/><polygon class="cls-3" points="135.62 32.18 134.79 32.49 134.79 31.06 135.62 30.72 135.62 32.18"/><polygon class="cls-3" points="138.45 31.09 137.53 31.44 137.53 29.93 138.45 29.55 138.45 31.09"/><polygon class="cls-3" points="139.99 30.5 139.01 30.87 139.01 29.32 139.99 28.91 139.99 30.5"/><polygon class="cls-3" points="143.37 29.2 142.26 29.62 142.26 27.97 143.37 27.51 143.37 29.2"/><polygon class="cls-3" points="134.32 34.93 133.53 35.2 133.53 33.8 134.32 33.51 134.32 34.93"/><polygon class="cls-3" points="135.62 34.49 134.79 34.77 134.79 33.34 135.62 33.03 135.62 34.49"/><polygon class="cls-3" points="137 34.03 136.12 34.32 136.12 32.85 137 32.53 137 34.03"/><polygon class="cls-3" points="138.45 33.54 137.53 33.85 137.53 32.34 138.45 32 138.45 33.54"/><polygon class="cls-3" points="139.99 33.02 139.01 33.35 139.01 31.79 139.99 31.43 139.99 33.02"/><polygon class="cls-3" points="143.37 31.88 142.26 32.25 142.26 30.6 143.37 30.19 143.37 31.88"/><polygon class="cls-3" points="147.19 30.59 145.94 31.01 145.94 29.25 147.19 28.79 147.19 30.59"/><polygon class="cls-3" points="134.32 37.19 133.53 37.41 133.53 36.02 134.32 35.77 134.32 37.19"/><polygon class="cls-3" points="135.62 36.81 134.79 37.05 134.79 35.62 135.62 35.35 135.62 36.81"/><polygon class="cls-3" points="137 36.41 136.12 36.66 136.12 35.19 137 34.91 137 36.41"/><polygon class="cls-3" points="138.45 35.99 137.53 36.26 137.53 34.74 138.45 34.45 138.45 35.99"/><polygon class="cls-3" points="139.99 35.54 139.01 35.82 139.01 34.27 139.99 33.95 139.99 35.54"/><polygon class="cls-3" points="143.37 34.56 142.26 34.88 142.26 33.23 143.37 32.87 143.37 34.56"/><polygon class="cls-3" points="145.22 34.02 144.04 34.37 144.04 32.66 145.22 32.28 145.22 34.02"/><polygon class="cls-3" points="134.32 39.44 133.53 39.63 133.53 38.23 134.32 38.02 134.32 39.44"/><polygon class="cls-3" points="135.62 39.12 134.79 39.32 134.79 37.89 135.62 37.67 135.62 39.12"/><polygon class="cls-3" points="137 38.79 136.12 39 136.12 37.53 137 37.29 137 38.79"/><polygon class="cls-3" points="138.45 38.44 137.53 38.66 137.53 37.15 138.45 36.89 138.45 38.44"/><polygon class="cls-3" points="141.63 37.66 140.59 37.92 140.59 36.31 141.63 36.03 141.63 37.66"/><polygon class="cls-3" points="143.37 37.24 142.26 37.51 142.26 35.86 143.37 35.55 143.37 37.24"/><polygon class="cls-3" points="134.32 41.69 133.53 41.85 133.53 40.45 134.32 40.28 134.32 41.69"/><polygon class="cls-3" points="135.62 41.44 134.79 41.6 134.79 40.17 135.62 39.98 135.62 41.44"/><polygon class="cls-3" points="138.45 40.88 137.53 41.06 137.53 39.55 138.45 39.34 138.45 40.88"/><polygon class="cls-3" points="141.63 40.26 140.59 40.47 140.59 38.86 141.63 38.63 141.63 40.26"/><polygon class="cls-3" points="145.22 39.56 144.04 39.79 144.04 38.08 145.22 37.82 145.22 39.56"/><polygon class="cls-3" points="147.19 39.17 145.94 39.42 145.94 37.66 147.19 37.37 147.19 39.17"/><polygon class="cls-3" points="134.32 43.95 133.53 44.06 133.53 42.67 134.32 42.53 134.32 43.95"/><polygon class="cls-3" points="135.62 43.75 134.79 43.88 134.79 42.45 135.62 42.3 135.62 43.75"/><polygon class="cls-3" points="137 43.55 136.12 43.68 136.12 42.21 137 42.05 137 43.55"/><polygon class="cls-3" points="138.45 43.33 137.53 43.47 137.53 41.96 138.45 41.79 138.45 43.33"/><polygon class="cls-3" points="139.99 43.1 139.01 43.25 139.01 41.69 139.99 41.52 139.99 43.1"/><polygon class="cls-3" points="141.63 42.86 140.59 43.02 140.59 41.41 141.63 41.23 141.63 42.86"/><polygon class="cls-3" points="134.32 46.2 133.53 46.28 133.53 44.89 134.32 44.78 134.32 46.2"/><polygon class="cls-3" points="135.62 46.07 134.79 46.15 134.79 44.72 135.62 44.61 135.62 46.07"/><polygon class="cls-3" points="137 45.93 136.12 46.02 136.12 44.55 137 44.43 137 45.93"/><polygon class="cls-3" points="138.45 45.78 137.53 45.88 137.53 44.36 138.45 44.24 138.45 45.78"/><polygon class="cls-3" points="139.99 45.63 139.01 45.73 139.01 44.17 139.99 44.04 139.99 45.63"/><polygon class="cls-3" points="147.19 44.89 145.94 45.02 145.94 43.26 147.19 43.09 147.19 44.89"/><polygon class="cls-3" points="134.32 48.46 133.53 48.5 133.53 47.1 134.32 47.04 134.32 48.46"/><polygon class="cls-3" points="135.62 48.39 134.79 48.43 134.79 47 135.62 46.93 135.62 48.39"/><polygon class="cls-3" points="137 48.31 136.12 48.36 136.12 46.89 137 46.81 137 48.31"/><polygon class="cls-3" points="139.99 48.15 139.01 48.2 139.01 46.64 139.99 46.56 139.99 48.15"/><polygon class="cls-3" points="141.63 48.06 140.59 48.12 140.59 46.51 141.63 46.42 141.63 48.06"/><polygon class="cls-3" points="147.19 47.76 145.94 47.82 145.94 46.06 147.19 45.95 147.19 47.76"/><polygon class="cls-3" points="134.32 50.71 133.53 50.72 133.53 49.32 134.32 49.29 134.32 50.71"/><polygon class="cls-3" points="135.62 50.7 134.79 50.71 134.79 49.27 135.62 49.24 135.62 50.7"/><polygon class="cls-3" points="137 50.69 136.12 50.7 136.12 49.23 137 49.19 137 50.69"/><polygon class="cls-3" points="139.99 50.67 139.01 50.68 139.01 49.12 139.99 49.08 139.99 50.67"/><polygon class="cls-3" points="147.19 50.62 145.94 50.63 145.94 48.86 147.19 48.81 147.19 50.62"/><polygon class="cls-3" points="134.32 52.97 133.53 52.93 133.53 51.54 134.32 51.55 134.32 52.97"/><polygon class="cls-3" points="135.62 53.02 134.79 52.98 134.79 51.55 135.62 51.56 135.62 53.02"/><polygon class="cls-3" points="137 53.07 136.12 53.04 136.12 51.56 137 51.57 137 53.07"/><polygon class="cls-3" points="138.45 53.13 137.53 53.09 137.53 51.58 138.45 51.59 138.45 53.13"/><polygon class="cls-3" points="141.63 53.26 140.59 53.21 140.59 51.61 141.63 51.62 141.63 53.26"/><polygon class="cls-3" points="147.19 53.48 145.94 53.43 145.94 51.66 147.19 51.68 147.19 53.48"/><polygon class="cls-3" points="134.32 55.22 133.53 55.15 133.53 53.76 134.32 53.8 134.32 55.22"/><polygon class="cls-3" points="135.62 55.33 134.79 55.26 134.79 53.83 135.62 53.88 135.62 55.33"/><polygon class="cls-3" points="137 55.45 136.12 55.38 136.12 53.9 137 53.95 137 55.45"/><polygon class="cls-3" points="138.45 55.58 137.53 55.5 137.53 53.98 138.45 54.04 138.45 55.58"/><polygon class="cls-3" points="139.99 55.71 139.01 55.63 139.01 54.07 139.99 54.13 139.99 55.71"/><polygon class="cls-3" points="143.37 56.01 142.26 55.91 142.26 54.26 143.37 54.32 143.37 56.01"/><polygon class="cls-3" points="147.19 56.34 145.94 56.23 145.94 54.47 147.19 54.54 147.19 56.34"/><polygon class="cls-3" points="134.32 57.47 133.53 57.37 133.53 55.97 134.32 56.05 134.32 57.47"/><polygon class="cls-3" points="135.62 57.65 134.79 57.54 134.79 56.1 135.62 56.19 135.62 57.65"/><polygon class="cls-3" points="137 57.83 136.12 57.72 136.12 56.24 137 56.34 137 57.83"/><polygon class="cls-3" points="141.63 58.45 140.59 58.31 140.59 56.71 141.63 56.82 141.63 58.45"/><polygon class="cls-3" points="143.37 58.69 142.26 58.54 142.26 56.88 143.37 57 143.37 58.69"/><polygon class="cls-3" points="134.32 59.73 133.53 59.59 133.53 58.19 134.32 58.31 134.32 59.73"/><polygon class="cls-3" points="135.62 59.96 134.79 59.81 134.79 58.38 135.62 58.51 135.62 59.96"/><polygon class="cls-3" points="137 60.21 136.12 60.05 136.12 58.58 137 58.72 137 60.21"/><polygon class="cls-3" points="138.45 60.48 137.53 60.31 137.53 58.8 138.45 58.94 138.45 60.48"/><polygon class="cls-3" points="139.99 60.76 139.01 60.58 139.01 59.02 139.99 59.17 139.99 60.76"/><polygon class="cls-3" points="145.22 61.7 144.04 61.49 144.04 59.78 145.22 59.96 145.22 61.7"/><polygon class="cls-3" points="147.19 62.06 145.94 61.83 145.94 60.07 147.19 60.26 147.19 62.06"/><polygon class="cls-3" points="134.32 61.98 133.53 61.8 133.53 60.41 134.32 60.56 134.32 61.98"/><polygon class="cls-3" points="135.62 62.28 134.79 62.09 134.79 60.66 135.62 60.82 135.62 62.28"/><polygon class="cls-3" points="139.99 63.28 139.01 63.05 139.01 61.5 139.99 61.69 139.99 63.28"/><polygon class="cls-3" points="141.63 63.65 140.59 63.41 140.59 61.81 141.63 62.02 141.63 63.65"/><polygon class="cls-3" points="143.37 64.05 142.26 63.8 142.26 62.14 143.37 62.36 143.37 64.05"/><polygon class="cls-3" points="147.19 64.92 145.94 64.63 145.94 62.87 147.19 63.12 147.19 64.92"/><polygon class="cls-3" points="134.32 64.24 133.53 64.02 133.53 62.63 134.32 62.82 134.32 64.24"/><polygon class="cls-3" points="135.62 64.59 134.79 64.37 134.79 62.94 135.62 63.14 135.62 64.59"/><polygon class="cls-3" points="137 64.97 136.12 64.73 136.12 63.26 137 63.48 137 64.97"/><polygon class="cls-3" points="139.99 65.8 139.01 65.53 139.01 63.97 139.99 64.21 139.99 65.8"/><polygon class="cls-3" points="147.19 67.78 145.94 67.44 145.94 65.67 147.19 65.98 147.19 67.78"/><polygon class="cls-3" points="134.32 66.49 133.53 66.24 133.53 64.84 134.32 65.07 134.32 66.49"/><polygon class="cls-3" points="135.62 66.91 134.79 66.64 134.79 65.21 135.62 65.45 135.62 66.91"/><polygon class="cls-3" points="137 67.36 136.12 67.07 136.12 65.6 137 65.86 137 67.36"/><polygon class="cls-3" points="138.45 67.82 137.53 67.53 137.53 66.01 138.45 66.28 138.45 67.82"/><polygon class="cls-3" points="139.99 68.32 139.01 68 139.01 66.45 139.99 66.73 139.99 68.32"/><polygon class="cls-3" points="134.32 68.75 133.53 68.45 133.53 67.06 134.32 67.33 134.32 68.75"/><polygon class="cls-3" points="135.62 69.23 134.79 68.92 134.79 67.49 135.62 67.77 135.62 69.23"/><polygon class="cls-3" points="137 69.73 136.12 69.41 136.12 67.94 137 68.24 137 69.73"/><polygon class="cls-3" points="138.45 70.27 137.53 69.93 137.53 68.42 138.45 68.73 138.45 70.27"/><polygon class="cls-3" points="147.19 73.5 145.94 73.04 145.94 71.28 147.19 71.7 147.19 73.5"/><polygon class="cls-3" points="134.32 71 133.53 70.67 133.53 69.28 134.32 69.58 134.32 71"/><polygon class="cls-3" points="135.62 71.54 134.79 71.2 134.79 69.77 135.62 70.08 135.62 71.54"/><polygon class="cls-3" points="137 72.11 136.12 71.75 136.12 70.28 137 70.62 137 72.11"/><polygon class="cls-3" points="135.62 73.86 134.79 73.47 134.79 72.04 135.62 72.4 135.62 73.86"/><polygon class="cls-3" points="147.19 79.23 145.94 78.64 145.94 76.88 147.19 77.43 147.19 79.23"/><polygon class="cls-3" points="134.32 75.51 133.53 75.11 133.53 73.71 134.32 74.09 134.32 75.51"/><polygon class="cls-3" points="137 76.88 136.12 76.43 136.12 74.96 137 75.38 137 76.88"/><polygon class="cls-3" points="141.63 79.24 140.59 78.71 140.59 77.11 141.63 77.61 141.63 79.24"/><polygon class="cls-3" points="143.37 80.13 142.26 79.57 142.26 77.91 143.37 78.44 143.37 80.13"/><polygon class="cls-3" points="147.19 82.09 145.94 81.44 145.94 79.68 147.19 80.29 147.19 82.09"/><polygon class="cls-2" points="162.11 28.29 161.3 27.9 161.3 26.47 162.11 26.88 162.11 28.29"/><polygon class="cls-2" points="154.88 32.58 153.81 32.22 153.81 30.56 154.88 30.95 154.88 32.58"/><polygon class="cls-2" points="149.38 44.93 148.09 44.8 148.09 42.98 149.38 43.15 149.38 44.93"/><polygon class="cls-2" points="154.88 48.08 153.81 48.02 153.81 46.36 154.88 46.45 154.88 48.08"/><polygon class="cls-2" points="162.11 52.95 161.3 52.99 161.3 51.55 162.11 51.54 162.11 52.95"/><polygon class="cls-2" points="156.5 60.7 155.49 60.88 155.49 59.27 156.5 59.12 156.5 60.7"/><polygon class="cls-3" points="149.38 22.2 148.09 21.58 148.09 19.75 149.38 20.41 149.38 22.2"/><polygon class="cls-3" points="151.33 23.13 150.12 22.55 150.12 20.78 151.33 21.4 151.33 23.13"/><polygon class="cls-3" points="153.16 24.01 152.03 23.46 152.03 21.75 153.16 22.33 153.16 24.01"/><polygon class="cls-3" points="156.5 25.6 155.49 25.12 155.49 23.51 156.5 24.02 156.5 25.6"/><polygon class="cls-3" points="158.02 26.33 157.07 25.88 157.07 24.32 158.02 24.8 158.02 26.33"/><polygon class="cls-3" points="160.82 27.67 159.97 27.27 159.97 25.79 160.82 26.22 160.82 27.67"/><polygon class="cls-3" points="149.38 25.04 148.09 24.48 148.09 22.65 149.38 23.25 149.38 25.04"/><polygon class="cls-3" points="154.88 27.41 153.81 26.95 153.81 25.29 154.88 25.79 154.88 27.41"/><polygon class="cls-3" points="158.02 28.77 157.07 28.36 157.07 26.8 158.02 27.23 158.02 28.77"/><polygon class="cls-3" points="159.46 29.39 158.56 29 158.56 27.48 159.46 27.9 159.46 29.39"/><polygon class="cls-3" points="162.11 30.53 161.3 30.18 161.3 28.75 162.11 29.12 162.11 30.53"/><polygon class="cls-3" points="149.38 27.88 148.09 27.38 148.09 25.56 149.38 26.09 149.38 27.88"/><polygon class="cls-3" points="154.88 29.99 153.81 29.58 153.81 27.93 154.88 28.37 154.88 29.99"/><polygon class="cls-3" points="156.5 30.62 155.49 30.23 155.49 28.62 156.5 29.04 156.5 30.62"/><polygon class="cls-3" points="159.46 31.75 158.56 31.41 158.56 29.89 159.46 30.27 159.46 31.75"/><polygon class="cls-3" points="162.11 32.77 161.3 32.46 161.3 31.03 162.11 31.36 162.11 32.77"/><polygon class="cls-3" points="149.38 30.72 148.09 30.29 148.09 28.46 149.38 28.93 149.38 30.72"/><polygon class="cls-3" points="151.33 31.38 150.12 30.97 150.12 29.21 151.33 29.65 151.33 31.38"/><polygon class="cls-3" points="156.5 33.12 155.49 32.78 155.49 31.18 156.5 31.55 156.5 33.12"/><polygon class="cls-3" points="158.02 33.64 157.07 33.32 157.07 31.76 158.02 32.1 158.02 33.64"/><polygon class="cls-3" points="159.46 34.12 158.56 33.82 158.56 32.3 159.46 32.63 159.46 34.12"/><polygon class="cls-3" points="162.11 35.02 161.3 34.74 161.3 33.31 162.11 33.6 162.11 35.02"/><polygon class="cls-3" points="149.38 33.57 148.09 33.19 148.09 31.36 149.38 31.78 149.38 33.57"/><polygon class="cls-3" points="151.33 34.13 150.12 33.78 150.12 32.01 151.33 32.4 151.33 34.13"/><polygon class="cls-3" points="153.16 34.66 152.03 34.33 152.03 32.62 153.16 32.99 153.16 34.66"/><polygon class="cls-3" points="156.5 35.63 155.49 35.34 155.49 33.73 156.5 34.05 156.5 35.63"/><polygon class="cls-3" points="159.46 36.49 158.56 36.23 158.56 34.71 159.46 35 159.46 36.49"/><polygon class="cls-3" points="160.82 36.88 159.97 36.64 159.97 35.16 160.82 35.44 160.82 36.88"/><polygon class="cls-3" points="162.11 37.26 161.3 37.02 161.3 35.59 162.11 35.85 162.11 37.26"/><polygon class="cls-3" points="149.38 36.41 148.09 36.09 148.09 34.27 149.38 34.62 149.38 36.41"/><polygon class="cls-3" points="154.88 37.74 153.81 37.48 153.81 35.83 154.88 36.12 154.88 37.74"/><polygon class="cls-3" points="156.5 38.14 155.49 37.89 155.49 36.28 156.5 36.56 156.5 38.14"/><polygon class="cls-3" points="158.02 38.51 157.07 38.28 157.07 36.72 158.02 36.97 158.02 38.51"/><polygon class="cls-3" points="162.11 39.5 161.3 39.3 161.3 37.87 162.11 38.09 162.11 39.5"/><polygon class="cls-3" points="149.38 39.25 148.09 39 148.09 37.17 149.38 37.46 149.38 39.25"/><polygon class="cls-3" points="151.33 39.63 150.12 39.4 150.12 37.63 151.33 37.9 151.33 39.63"/><polygon class="cls-3" points="153.16 39.99 152.03 39.77 152.03 38.06 153.16 38.31 153.16 39.99"/><polygon class="cls-3" points="154.88 40.33 153.81 40.12 153.81 38.46 154.88 38.7 154.88 40.33"/><polygon class="cls-3" points="158.02 40.94 157.07 40.76 157.07 39.2 158.02 39.41 158.02 40.94"/><polygon class="cls-3" points="159.46 41.22 158.56 41.05 158.56 39.53 159.46 39.73 159.46 41.22"/><polygon class="cls-3" points="160.82 41.49 159.97 41.32 159.97 39.85 160.82 40.04 160.82 41.49"/><polygon class="cls-3" points="162.11 41.74 161.3 41.59 161.3 40.15 162.11 40.33 162.11 41.74"/><polygon class="cls-3" points="151.33 42.38 150.12 42.2 150.12 40.44 151.33 40.65 151.33 42.38"/><polygon class="cls-3" points="153.16 42.65 152.03 42.48 152.03 40.77 153.16 40.98 153.16 42.65"/><polygon class="cls-3" points="156.5 43.15 155.49 43 155.49 41.39 156.5 41.57 156.5 43.15"/><polygon class="cls-3" points="158.02 43.38 157.07 43.24 157.07 41.68 158.02 41.84 158.02 43.38"/><polygon class="cls-3" points="162.11 43.98 161.3 43.87 161.3 42.43 162.11 42.57 162.11 43.98"/><polygon class="cls-3" points="151.33 45.13 150.12 45.01 150.12 43.24 151.33 43.4 151.33 45.13"/><polygon class="cls-3" points="153.16 45.32 152.03 45.2 152.03 43.49 153.16 43.64 153.16 45.32"/><polygon class="cls-3" points="158.02 45.81 157.07 45.72 157.07 44.16 158.02 44.28 158.02 45.81"/><polygon class="cls-3" points="159.46 45.96 158.56 45.87 158.56 44.35 159.46 44.47 159.46 45.96"/><polygon class="cls-3" points="160.82 46.1 159.97 46.01 159.97 44.54 160.82 44.65 160.82 46.1"/><polygon class="cls-3" points="162.11 46.23 161.3 46.15 161.3 44.71 162.11 44.82 162.11 46.23"/><polygon class="cls-3" points="149.38 47.78 148.09 47.71 148.09 45.88 149.38 45.99 149.38 47.78"/><polygon class="cls-3" points="156.5 48.16 155.49 48.11 155.49 46.5 156.5 46.59 156.5 48.16"/><polygon class="cls-3" points="159.46 48.33 158.56 48.28 158.56 46.76 159.46 46.84 159.46 48.33"/><polygon class="cls-3" points="160.82 48.4 159.97 48.35 159.97 46.88 160.82 46.95 160.82 48.4"/><polygon class="cls-3" points="162.11 48.47 161.3 48.43 161.3 46.99 162.11 47.06 162.11 48.47"/><polygon class="cls-3" points="151.33 50.63 150.12 50.62 150.12 48.86 151.33 48.9 151.33 50.63"/><polygon class="cls-3" points="153.16 50.65 152.03 50.64 152.03 48.93 153.16 48.97 153.16 50.65"/><polygon class="cls-3" points="156.5 50.67 155.49 50.66 155.49 49.06 156.5 49.09 156.5 50.67"/><polygon class="cls-3" points="158.02 50.68 157.07 50.68 157.07 49.12 158.02 49.15 158.02 50.68"/><polygon class="cls-3" points="162.11 50.71 161.3 50.71 161.3 49.27 162.11 49.3 162.11 50.71"/><polygon class="cls-3" points="149.38 53.46 148.09 53.51 148.09 51.69 149.38 51.67 149.38 53.46"/><polygon class="cls-3" points="151.33 53.38 150.12 53.43 150.12 51.66 151.33 51.65 151.33 53.38"/><polygon class="cls-3" points="153.16 53.31 152.03 53.36 152.03 51.65 153.16 51.63 153.16 53.31"/><polygon class="cls-3" points="154.88 53.24 153.81 53.28 153.81 51.63 154.88 51.62 154.88 53.24"/><polygon class="cls-3" points="158.02 53.12 157.07 53.16 157.07 51.59 158.02 51.59 158.02 53.12"/><polygon class="cls-3" points="160.82 53.01 159.97 53.04 159.97 51.57 160.82 51.56 160.82 53.01"/><polygon class="cls-3" points="149.38 56.3 148.09 56.41 148.09 54.59 149.38 54.52 149.38 56.3"/><polygon class="cls-3" points="154.88 55.83 153.81 55.92 153.81 54.26 154.88 54.2 154.88 55.83"/><polygon class="cls-3" points="156.5 55.69 155.49 55.77 155.49 54.16 156.5 54.11 156.5 55.69"/><polygon class="cls-3" points="158.02 55.55 157.07 55.63 157.07 54.08 158.02 54.02 158.02 55.55"/><polygon class="cls-3" points="159.46 55.43 158.56 55.51 158.56 53.99 159.46 53.94 159.46 55.43"/><polygon class="cls-3" points="162.11 55.2 161.3 55.27 161.3 53.83 162.11 53.79 162.11 55.2"/><polygon class="cls-3" points="149.38 59.15 148.09 59.32 148.09 57.49 149.38 57.36 149.38 59.15"/><polygon class="cls-3" points="153.16 58.64 152.03 58.79 152.03 57.08 153.16 56.96 153.16 58.64"/><polygon class="cls-3" points="154.88 58.41 153.81 58.55 153.81 56.9 154.88 56.78 154.88 58.41"/><polygon class="cls-3" points="158.02 57.99 157.07 58.12 157.07 56.55 158.02 56.46 158.02 57.99"/><polygon class="cls-3" points="159.46 57.8 158.56 57.91 158.56 56.4 159.46 56.31 159.46 57.8"/><polygon class="cls-3" points="160.82 57.61 159.97 57.73 159.97 56.25 160.82 56.16 160.82 57.61"/><polygon class="cls-3" points="162.11 57.44 161.3 57.55 161.3 56.11 162.11 56.03 162.11 57.44"/><polygon class="cls-3" points="149.38 61.99 148.09 62.22 148.09 60.4 149.38 60.2 149.38 61.99"/><polygon class="cls-3" points="151.33 61.63 150.12 61.85 150.12 60.09 151.33 59.9 151.33 61.63"/><polygon class="cls-3" points="154.88 60.99 153.81 61.19 153.81 59.53 154.88 59.37 154.88 60.99"/><polygon class="cls-3" points="159.46 60.16 158.56 60.33 158.56 58.81 159.46 58.67 159.46 60.16"/><polygon class="cls-3" points="160.82 59.92 159.97 60.07 159.97 58.59 160.82 58.47 160.82 59.92"/><polygon class="cls-3" points="162.11 59.68 161.3 59.83 161.3 58.39 162.11 58.27 162.11 59.68"/><polygon class="cls-3" points="149.38 64.83 148.09 65.13 148.09 63.3 149.38 63.04 149.38 64.83"/><polygon class="cls-3" points="153.16 63.97 152.03 64.23 152.03 62.52 153.16 62.29 153.16 63.97"/><polygon class="cls-3" points="154.88 63.58 153.81 63.82 153.81 62.16 154.88 61.95 154.88 63.58"/><polygon class="cls-3" points="158.02 62.86 157.07 63.08 157.07 61.51 158.02 61.33 158.02 62.86"/><polygon class="cls-3" points="159.46 62.53 158.56 62.73 158.56 61.22 159.46 61.04 159.46 62.53"/><polygon class="cls-3" points="160.82 62.22 159.97 62.41 159.97 60.94 160.82 60.77 160.82 62.22"/><polygon class="cls-3" points="162.11 61.92 161.3 62.11 161.3 60.67 162.11 60.51 162.11 61.92"/><polygon class="cls-3" points="151.33 67.13 150.12 67.47 150.12 65.7 151.33 65.4 151.33 67.13"/><polygon class="cls-3" points="156.5 65.71 155.49 65.99 155.49 64.38 156.5 64.14 156.5 65.71"/><polygon class="cls-3" points="160.82 64.52 159.97 64.76 159.97 63.28 160.82 63.07 160.82 64.52"/><polygon class="cls-3" points="162.11 64.17 161.3 64.39 161.3 62.95 162.11 62.76 162.11 64.17"/><polygon class="cls-3" points="151.33 69.89 150.12 70.28 150.12 68.51 151.33 68.15 151.33 69.89"/><polygon class="cls-3" points="156.5 68.22 155.49 68.54 155.49 66.94 156.5 66.64 156.5 68.22"/><polygon class="cls-3" points="159.46 67.27 158.56 67.55 158.56 66.04 159.46 65.78 159.46 67.27"/><polygon class="cls-3" points="162.11 66.41 161.3 66.67 161.3 65.23 162.11 65 162.11 66.41"/><polygon class="cls-3" points="149.38 73.36 148.09 73.83 148.09 72.01 149.38 71.57 149.38 73.36"/><polygon class="cls-3" points="160.82 69.13 159.97 69.44 159.97 67.97 160.82 67.68 160.82 69.13"/><polygon class="cls-3" points="162.11 68.65 161.3 68.95 161.3 67.52 162.11 67.24 162.11 68.65"/><polygon class="cls-3" points="149.38 76.2 148.09 76.74 148.09 74.91 149.38 74.41 149.38 76.2"/><polygon class="cls-3" points="153.16 74.62 152.03 75.1 152.03 73.39 153.16 72.95 153.16 74.62"/><polygon class="cls-3" points="158.02 72.6 157.07 72.99 157.07 71.43 158.02 71.07 158.02 72.6"/><polygon class="cls-3" points="160.82 71.43 159.97 71.79 159.97 70.31 160.82 69.98 160.82 71.43"/><polygon class="cls-3" points="162.11 70.89 161.3 71.23 161.3 69.8 162.11 69.48 162.11 70.89"/><polygon class="cls-3" points="156.5 75.74 155.49 76.21 155.49 74.6 156.5 74.16 156.5 75.74"/><polygon class="cls-3" points="159.46 74.37 158.56 74.78 158.56 73.27 159.46 72.88 159.46 74.37"/><polygon class="cls-3" points="154.88 79.07 153.81 79.62 153.81 77.96 154.88 77.45 154.88 79.07"/><polygon class="cls-3" points="158.02 77.47 157.07 77.95 157.07 76.39 158.02 75.94 158.02 77.47"/><polygon class="cls-3" points="159.46 76.73 158.56 77.19 158.56 75.68 159.46 75.25 159.46 76.73"/><polygon class="cls-3" points="160.82 76.04 159.97 76.47 159.97 75 160.82 74.59 160.82 76.04"/><polygon class="cls-2" points="98.21 19.64 96.61 20.25 96.61 17.63 98.21 16.97 98.21 19.64"/><polygon class="cls-2" points="95.69 28.85 94.17 29.29 94.17 26.74 95.69 26.26 95.69 28.85"/><polygon class="cls-2" points="95.69 32.98 94.17 33.34 94.17 30.8 95.69 30.38 95.69 32.98"/><polygon class="cls-2" points="109.93 34.31 107.89 34.71 107.89 31.75 109.93 31.29 109.93 34.31"/><polygon class="cls-2" points="98.21 45.09 96.61 45.25 96.61 42.63 98.21 42.42 98.21 45.09"/><polygon class="cls-2" points="95.69 57.72 94.17 57.66 94.17 55.11 95.69 55.12 95.69 57.72"/><polygon class="cls-2" points="109.93 58.28 107.89 58.2 107.89 55.24 109.93 55.27 109.93 58.28"/><polygon class="cls-2" points="95.69 65.96 94.17 65.76 94.17 63.21 95.69 63.37 95.69 65.96"/><polygon class="cls-2" points="109.93 67.87 107.89 67.6 107.89 64.64 109.93 64.85 109.93 67.87"/><polygon class="cls-2" points="109.93 77.46 107.89 76.99 107.89 74.04 109.93 74.44 109.93 77.46"/><polygon class="cls-2" points="95.69 86.58 94.17 86.02 94.17 83.47 95.69 83.98 95.69 86.58"/><polygon class="cls-3" points="93.31 13.5 91.87 14.19 91.87 11.71 93.31 10.98 93.31 13.5"/><polygon class="cls-3" points="98.21 11.15 96.61 11.92 96.61 9.3 98.21 8.48 98.21 11.15"/><polygon class="cls-3" points="103.71 8.52 101.91 9.38 101.91 6.61 103.71 5.69 103.71 8.52"/><polygon class="cls-3" points="106.72 7.08 104.8 8 104.8 5.13 106.72 4.16 106.72 7.08"/><polygon class="cls-3" points="91.05 18.49 89.69 19.07 89.69 16.66 91.05 16.03 91.05 18.49"/><polygon class="cls-3" points="93.31 17.51 91.87 18.13 91.87 15.65 93.31 14.99 93.31 17.51"/><polygon class="cls-3" points="98.21 15.4 96.61 16.09 96.61 13.47 98.21 12.73 98.21 15.4"/><polygon class="cls-3" points="103.71 13.02 101.91 13.8 101.91 11.02 103.71 10.19 103.71 13.02"/><polygon class="cls-3" points="106.72 11.72 104.8 12.55 104.8 9.69 106.72 8.8 106.72 11.72"/><polygon class="cls-3" points="109.93 10.34 107.89 11.22 107.89 8.26 109.93 7.32 109.93 10.34"/><polygon class="cls-3" points="113.35 8.86 111.17 9.8 111.17 6.75 113.35 5.74 113.35 8.86"/><polygon class="cls-3" points="91.05 22.39 89.69 22.91 89.69 20.5 91.05 19.93 91.05 22.39"/><polygon class="cls-3" points="93.31 21.52 91.87 22.07 91.87 19.59 93.31 19 93.31 21.52"/><polygon class="cls-3" points="95.69 20.61 94.17 21.19 94.17 18.64 95.69 18.01 95.69 20.61"/><polygon class="cls-3" points="100.88 18.61 99.18 19.27 99.18 16.57 100.88 15.86 100.88 18.61"/><polygon class="cls-3" points="103.71 17.52 101.91 18.22 101.91 15.44 103.71 14.69 103.71 17.52"/><polygon class="cls-3" points="109.93 15.13 107.89 15.92 107.89 12.96 109.93 12.12 109.93 15.13"/><polygon class="cls-3" points="113.35 13.82 111.17 14.65 111.17 11.6 113.35 10.7 113.35 13.82"/><polygon class="cls-3" points="91.05 26.3 89.69 26.75 89.69 24.34 91.05 23.84 91.05 26.3"/><polygon class="cls-3" points="93.31 25.53 91.87 26.02 91.87 23.54 93.31 23.01 93.31 25.53"/><polygon class="cls-3" points="95.69 24.73 94.17 25.24 94.17 22.69 95.69 22.14 95.69 24.73"/><polygon class="cls-3" points="100.88 22.98 99.18 23.55 99.18 20.86 100.88 20.23 100.88 22.98"/><polygon class="cls-3" points="103.71 22.02 101.91 22.63 101.91 19.85 103.71 19.19 103.71 22.02"/><polygon class="cls-3" points="106.72 21.01 104.8 21.66 104.8 18.79 106.72 18.09 106.72 21.01"/><polygon class="cls-3" points="109.93 19.93 107.89 20.62 107.89 17.66 109.93 16.91 109.93 19.93"/><polygon class="cls-3" points="91.05 30.2 89.69 30.59 89.69 28.18 91.05 27.74 91.05 30.2"/><polygon class="cls-3" points="93.31 29.55 91.87 29.96 91.87 27.48 93.31 27.02 93.31 29.55"/><polygon class="cls-3" points="98.21 28.12 96.61 28.59 96.61 25.97 98.21 25.45 98.21 28.12"/><polygon class="cls-3" points="100.88 27.35 99.18 27.84 99.18 25.14 100.88 24.6 100.88 27.35"/><polygon class="cls-3" points="106.72 25.65 104.8 26.21 104.8 23.34 106.72 22.73 106.72 25.65"/><polygon class="cls-3" points="113.35 23.73 111.17 24.36 111.17 21.31 113.35 20.61 113.35 23.73"/><polygon class="cls-3" points="91.05 34.1 89.69 34.44 89.69 32.02 91.05 31.65 91.05 34.1"/><polygon class="cls-3" points="93.31 33.56 91.87 33.91 91.87 31.42 93.31 31.03 93.31 33.56"/><polygon class="cls-3" points="98.21 32.37 96.61 32.75 96.61 30.13 98.21 29.7 98.21 32.37"/><polygon class="cls-3" points="100.88 31.72 99.18 32.13 99.18 29.43 100.88 28.97 100.88 31.72"/><polygon class="cls-3" points="103.71 31.03 101.91 31.46 101.91 28.69 103.71 28.2 103.71 31.03"/><polygon class="cls-3" points="106.72 30.3 104.8 30.76 104.8 27.9 106.72 27.37 106.72 30.3"/><polygon class="cls-3" points="113.35 28.68 111.17 29.21 111.17 26.16 113.35 25.57 113.35 28.68"/><polygon class="cls-3" points="91.05 38.01 89.69 38.28 89.69 35.86 91.05 35.55 91.05 38.01"/><polygon class="cls-3" points="93.31 37.57 91.87 37.85 91.87 35.37 93.31 35.04 93.31 37.57"/><polygon class="cls-3" points="98.21 36.61 96.61 36.92 96.61 34.3 98.21 33.94 98.21 36.61"/><polygon class="cls-3" points="100.88 36.08 99.18 36.42 99.18 33.72 100.88 33.34 100.88 36.08"/><polygon class="cls-3" points="106.72 34.94 104.8 35.31 104.8 32.45 106.72 32.02 106.72 34.94"/><polygon class="cls-3" points="113.35 33.64 111.17 34.07 111.17 31.01 113.35 30.52 113.35 33.64"/><polygon class="cls-3" points="91.05 41.91 89.69 42.12 89.69 39.7 91.05 39.46 91.05 41.91"/><polygon class="cls-3" points="93.31 41.58 91.87 41.79 91.87 39.31 93.31 39.05 93.31 41.58"/><polygon class="cls-3" points="95.69 41.22 94.17 41.45 94.17 38.9 95.69 38.63 95.69 41.22"/><polygon class="cls-3" points="98.21 40.85 96.61 41.09 96.61 38.47 98.21 38.18 98.21 40.85"/><polygon class="cls-3" points="100.88 40.45 99.18 40.7 99.18 38.01 100.88 37.7 100.88 40.45"/><polygon class="cls-3" points="103.71 40.03 101.91 40.3 101.91 37.52 103.71 37.2 103.71 40.03"/><polygon class="cls-3" points="106.72 39.58 104.8 39.87 104.8 37 106.72 36.66 106.72 39.58"/><polygon class="cls-3" points="113.35 38.59 111.17 38.92 111.17 35.87 113.35 35.48 113.35 38.59"/><polygon class="cls-3" points="91.05 45.82 89.69 45.96 89.69 43.54 91.05 43.36 91.05 45.82"/><polygon class="cls-3" points="93.31 45.59 91.87 45.73 91.87 43.25 93.31 43.06 93.31 45.59"/><polygon class="cls-3" points="95.69 45.35 94.17 45.5 94.17 42.95 95.69 42.75 95.69 45.35"/><polygon class="cls-3" points="100.88 44.82 99.18 44.99 99.18 42.29 100.88 42.07 100.88 44.82"/><polygon class="cls-3" points="103.71 44.53 101.91 44.72 101.91 41.94 103.71 41.7 103.71 44.53"/><polygon class="cls-3" points="106.72 44.23 104.8 44.42 104.8 41.55 106.72 41.3 106.72 44.23"/><polygon class="cls-3" points="109.9 43.9 107.86 44.11 107.86 41.15 109.9 40.88 109.9 43.9"/><polygon class="cls-3" points="113.35 43.55 111.17 43.77 111.17 40.72 113.35 40.43 113.35 43.55"/><polygon class="cls-3" points="91.05 49.72 89.69 49.8 89.69 47.38 91.05 47.27 91.05 49.72"/><polygon class="cls-3" points="95.69 49.47 94.17 49.55 94.17 47 95.69 46.88 95.69 49.47"/><polygon class="cls-3" points="98.21 49.33 96.61 49.42 96.61 46.8 98.21 46.66 98.21 49.33"/><polygon class="cls-3" points="100.88 49.19 99.18 49.28 99.18 46.58 100.88 46.44 100.88 49.19"/><polygon class="cls-3" points="103.71 49.03 101.91 49.13 101.91 46.35 103.71 46.2 103.71 49.03"/><polygon class="cls-3" points="106.72 48.87 104.8 48.97 104.8 46.11 106.72 45.95 106.72 48.87"/><polygon class="cls-3" points="109.93 48.69 107.89 48.8 107.89 45.85 109.93 45.68 109.93 48.69"/><polygon class="cls-3" points="113.35 48.51 111.17 48.63 111.17 45.57 113.35 45.39 113.35 48.51"/><polygon class="cls-3" points="91.05 53.63 89.69 53.64 89.69 51.22 91.05 51.17 91.05 53.63"/><polygon class="cls-3" points="93.31 53.61 91.87 53.62 91.87 51.14 93.31 51.09 93.31 53.61"/><polygon class="cls-3" points="95.69 53.59 94.17 53.6 94.17 51.05 95.69 51 95.69 53.59"/><polygon class="cls-3" points="100.88 53.55 99.18 53.57 99.18 50.87 100.88 50.81 100.88 53.55"/><polygon class="cls-3" points="106.72 53.51 104.8 53.53 104.8 50.66 106.72 50.59 106.72 53.51"/><polygon class="cls-3" points="109.93 53.49 107.89 53.5 107.89 50.55 109.93 50.47 109.93 53.49"/><polygon class="cls-3" points="113.35 53.46 111.17 53.48 111.17 50.42 113.35 50.34 113.35 53.46"/><polygon class="cls-3" points="91.05 57.53 89.69 57.48 89.69 55.06 91.05 55.08 91.05 57.53"/><polygon class="cls-3" points="93.31 57.62 91.87 57.56 91.87 55.08 93.31 55.1 93.31 57.62"/><polygon class="cls-3" points="100.88 57.92 99.18 57.85 99.18 55.16 100.88 55.17 100.88 57.92"/><polygon class="cls-3" points="103.71 58.03 101.91 57.96 101.91 55.19 103.71 55.2 103.71 58.03"/><polygon class="cls-3" points="113.35 58.42 111.17 58.33 111.17 55.28 113.35 55.3 113.35 58.42"/><polygon class="cls-3" points="91.05 61.44 89.69 61.32 89.69 58.9 91.05 58.98 91.05 61.44"/><polygon class="cls-3" points="93.31 61.63 91.87 61.51 91.87 59.03 93.31 59.11 93.31 61.63"/><polygon class="cls-3" points="95.69 61.84 94.17 61.71 94.17 59.16 95.69 59.25 95.69 61.84"/><polygon class="cls-3" points="98.21 62.06 96.61 61.92 96.61 59.3 98.21 59.39 98.21 62.06"/><polygon class="cls-3" points="100.88 62.29 99.18 62.14 99.18 59.45 100.88 59.54 100.88 62.29"/><polygon class="cls-3" points="103.71 62.54 101.91 62.38 101.91 59.6 103.71 59.7 103.71 62.54"/><polygon class="cls-3" points="106.72 62.8 104.8 62.63 104.8 59.77 106.72 59.88 106.72 62.8"/><polygon class="cls-3" points="109.93 63.08 107.89 62.9 107.89 59.94 109.93 60.06 109.93 63.08"/><polygon class="cls-3" points="113.35 63.37 111.17 63.19 111.17 60.13 113.35 60.26 113.35 63.37"/><polygon class="cls-3" points="91.05 65.34 89.69 65.16 89.69 62.74 91.05 62.88 91.05 65.34"/><polygon class="cls-3" points="93.31 65.64 91.87 65.45 91.87 62.97 93.31 63.12 93.31 65.64"/><polygon class="cls-3" points="98.21 66.3 96.61 66.09 96.61 63.47 98.21 63.63 98.21 66.3"/><polygon class="cls-3" points="100.88 66.66 99.18 66.43 99.18 63.73 100.88 63.91 100.88 66.66"/><polygon class="cls-3" points="103.71 67.04 101.91 66.8 101.91 64.02 103.71 64.21 103.71 67.04"/><polygon class="cls-3" points="91.05 69.25 89.69 69 89.69 66.58 91.05 66.79 91.05 69.25"/><polygon class="cls-3" points="93.31 69.66 91.87 69.39 91.87 66.91 93.31 67.13 93.31 69.66"/><polygon class="cls-3" points="95.69 70.09 94.17 69.81 94.17 67.26 95.69 67.49 95.69 70.09"/><polygon class="cls-3" points="100.88 71.03 99.18 70.72 99.18 68.02 100.88 68.28 100.88 71.03"/><polygon class="cls-3" points="103.71 71.54 101.91 71.21 101.91 68.43 103.71 68.71 103.71 71.54"/><polygon class="cls-3" points="106.72 72.08 104.8 71.74 104.8 68.87 106.72 69.16 106.72 72.08"/><polygon class="cls-3" points="113.35 73.28 111.17 72.89 111.17 69.84 113.35 70.17 113.35 73.28"/><polygon class="cls-3" points="91.05 73.15 89.69 72.84 89.69 70.42 91.05 70.69 91.05 73.15"/><polygon class="cls-3" points="93.31 73.67 91.87 73.34 91.87 70.86 93.31 71.14 93.31 73.67"/><polygon class="cls-3" points="100.88 75.39 99.18 75.01 99.18 72.31 100.88 72.65 100.88 75.39"/><polygon class="cls-3" points="106.72 76.73 104.8 76.29 104.8 73.43 106.72 73.81 106.72 76.73"/><polygon class="cls-3" points="113.35 78.24 111.17 77.74 111.17 74.69 113.35 75.12 113.35 78.24"/><polygon class="cls-3" points="93.31 77.68 91.87 77.28 91.87 74.8 93.31 75.15 93.31 77.68"/><polygon class="cls-3" points="95.69 78.33 94.17 77.92 94.17 75.37 95.69 75.74 95.69 78.33"/><polygon class="cls-3" points="93.31 81.69 91.87 81.23 91.87 78.74 93.31 79.16 93.31 81.69"/><polygon class="cls-3" points="113.35 88.15 111.17 87.45 111.17 84.4 113.35 85.03 113.35 88.15"/><polygon class="cls-3" points="91.05 84.86 89.69 84.36 89.69 81.95 91.05 82.41 91.05 84.86"/><polygon class="cls-3" points="93.31 85.7 91.87 85.17 91.87 82.69 93.31 83.17 93.31 85.7"/><polygon class="cls-3" points="100.88 88.5 99.18 87.87 99.18 85.17 100.88 85.75 100.88 88.5"/><polygon class="cls-3" points="106.72 90.66 104.8 89.95 104.8 87.08 106.72 87.74 106.72 90.66"/><polygon class="cls-3" points="91.05 88.77 89.69 88.2 89.69 85.79 91.05 86.31 91.05 88.77"/><polygon class="cls-3" points="95.69 90.7 94.17 90.07 94.17 87.52 95.69 88.11 95.69 90.7"/><polygon class="cls-3" points="103.71 94.05 101.91 93.3 101.91 90.52 103.71 91.21 103.71 94.05"/><polygon class="cls-3" points="91.05 92.67 89.69 92.04 89.69 89.63 91.05 90.22 91.05 92.67"/><polygon class="cls-3" points="95.69 94.83 94.17 94.12 94.17 91.57 95.69 92.23 95.69 94.83"/><polygon class="cls-3" points="106.72 99.94 104.8 99.06 104.8 96.19 106.72 97.02 106.72 99.94"/><polygon class="cls-3" points="93.31 97.73 91.87 97 91.87 94.52 93.31 95.21 93.31 97.73"/><polygon class="cls-3" points="109.93 106.23 107.89 105.18 107.89 102.23 109.93 103.21 109.93 106.23"/><polygon class="cls-2" points="132.1 19.84 130.46 19.2 130.46 16.5 132.1 17.18 132.1 19.84"/><polygon class="cls-2" points="120.52 20.15 118.42 19.44 118.42 16.38 120.52 17.15 120.52 20.15"/><polygon class="cls-2" points="117.14 33.78 114.9 33.34 114.9 30.17 117.14 30.68 117.14 33.78"/><polygon class="cls-2" points="129.46 40.53 127.72 40.27 127.72 37.49 129.46 37.8 129.46 40.53"/><polygon class="cls-2" points="123.69 48.9 121.72 48.79 121.72 45.83 123.69 46 123.69 48.9"/><polygon class="cls-2" points="134.59 53.6 133.04 53.59 133.04 50.96 134.59 51.02 134.59 53.6"/><polygon class="cls-2" points="120.52 63.02 118.42 63.2 118.42 60.14 120.52 60.02 120.52 63.02"/><polygon class="cls-2" points="129.46 62.24 127.72 62.4 127.72 59.61 129.46 59.51 129.46 62.24"/><polygon class="cls-2" points="129.46 79.61 127.72 80.09 127.72 77.31 129.46 76.88 129.46 79.61"/><polygon class="cls-2" points="123.69 90.43 121.72 91.16 121.72 88.2 123.69 87.53 123.69 90.43"/><polygon class="cls-3" points="117.14 4.24 114.9 3.16 114.9 0 117.14 1.14 117.14 4.24"/><polygon class="cls-3" points="123.69 7.37 121.72 6.43 121.72 3.47 123.69 4.47 123.69 7.37"/><polygon class="cls-3" points="126.66 8.8 124.81 7.91 124.81 5.04 126.66 5.98 126.66 8.8"/><polygon class="cls-3" points="132.1 11.4 130.46 10.61 130.46 7.91 132.1 8.74 132.1 11.4"/><polygon class="cls-3" points="134.59 12.59 133.04 11.85 133.04 9.22 134.59 10.01 134.59 12.59"/><polygon class="cls-3" points="139.18 14.79 137.79 14.12 137.79 11.64 139.18 12.34 139.18 14.79"/><polygon class="cls-3" points="117.14 9.16 114.9 8.19 114.9 5.03 117.14 6.06 117.14 9.16"/><polygon class="cls-3" points="120.52 10.62 118.42 9.71 118.42 6.65 120.52 7.62 120.52 10.62"/><polygon class="cls-3" points="123.69 11.99 121.72 11.14 121.72 8.17 123.69 9.08 123.69 11.99"/><polygon class="cls-3" points="129.46 14.48 127.72 13.73 127.72 10.94 129.46 11.75 129.46 14.48"/><polygon class="cls-3" points="136.95 17.71 135.48 17.08 135.48 14.52 136.95 15.2 136.95 17.71"/><polygon class="cls-3" points="139.18 18.67 137.79 18.07 137.79 15.59 139.18 16.23 139.18 18.67"/><polygon class="cls-3" points="120.52 15.38 118.42 14.58 118.42 11.52 120.52 12.39 120.52 15.38"/><polygon class="cls-3" points="123.69 16.6 121.72 15.84 121.72 12.88 123.69 13.7 123.69 16.6"/><polygon class="cls-3" points="126.66 17.74 124.81 17.03 124.81 14.16 126.66 14.93 126.66 17.74"/><polygon class="cls-3" points="129.46 18.82 127.72 18.15 127.72 15.37 129.46 16.09 129.46 18.82"/><polygon class="cls-3" points="134.59 20.79 133.04 20.2 133.04 17.57 134.59 18.21 134.59 20.79"/><polygon class="cls-3" points="136.95 21.7 135.48 21.13 135.48 18.58 136.95 19.19 136.95 21.7"/><polygon class="cls-3" points="139.18 22.56 137.79 22.02 137.79 19.54 139.18 20.11 139.18 22.56"/><polygon class="cls-3" points="117.14 19.01 114.9 18.25 114.9 15.09 117.14 15.91 117.14 19.01"/><polygon class="cls-3" points="126.66 22.22 124.81 21.59 124.81 18.72 126.66 19.4 126.66 22.22"/><polygon class="cls-3" points="129.46 23.16 127.72 22.57 127.72 19.79 129.46 20.43 129.46 23.16"/><polygon class="cls-3" points="132.1 24.05 130.46 23.5 130.46 20.8 132.1 21.4 132.1 24.05"/><polygon class="cls-3" points="134.59 24.89 133.04 24.37 133.04 21.74 134.59 22.31 134.59 24.89"/><polygon class="cls-3" points="136.95 25.69 135.48 25.19 135.48 22.64 136.95 23.18 136.95 25.69"/><polygon class="cls-3" points="139.18 26.44 137.79 25.97 137.79 23.49 139.18 24 139.18 26.44"/><polygon class="cls-3" points="120.52 24.91 118.42 24.3 118.42 21.24 120.52 21.91 120.52 24.91"/><polygon class="cls-3" points="123.69 25.83 121.72 25.26 121.72 22.3 123.69 22.93 123.69 25.83"/><polygon class="cls-3" points="126.66 26.69 124.81 26.16 124.81 23.29 126.66 23.88 126.66 26.69"/><polygon class="cls-3" points="129.46 27.5 127.72 27 127.72 24.22 129.46 24.77 129.46 27.5"/><polygon class="cls-3" points="132.1 28.27 130.46 27.79 130.46 25.09 132.1 25.62 132.1 28.27"/><polygon class="cls-3" points="136.95 29.68 135.48 29.25 135.48 26.7 136.95 27.17 136.95 29.68"/><polygon class="cls-3" points="139.18 30.32 137.79 29.92 137.79 27.44 139.18 27.88 139.18 30.32"/><polygon class="cls-3" points="117.14 28.85 114.9 28.31 114.9 25.14 117.14 25.75 117.14 28.85"/><polygon class="cls-3" points="120.52 29.67 118.42 29.16 118.42 26.1 120.52 26.68 120.52 29.67"/><polygon class="cls-3" points="123.69 30.44 121.72 29.96 121.72 27 123.69 27.54 123.69 30.44"/><polygon class="cls-3" points="129.46 31.85 127.72 31.42 127.72 28.64 129.46 29.11 129.46 31.85"/><polygon class="cls-3" points="132.1 32.49 130.46 32.09 130.46 29.39 132.1 29.84 132.1 32.49"/><polygon class="cls-3" points="134.59 33.09 133.04 32.72 133.04 30.09 134.59 30.51 134.59 33.09"/><polygon class="cls-3" points="136.95 33.67 135.48 33.31 135.48 30.76 136.95 31.16 136.95 33.67"/><polygon class="cls-3" points="139.18 34.21 137.79 33.87 137.79 31.39 139.18 31.77 139.18 34.21"/><polygon class="cls-3" points="120.52 34.44 118.42 34.03 118.42 30.97 120.52 31.44 120.52 34.44"/><polygon class="cls-3" points="126.66 35.64 124.81 35.28 124.81 32.41 126.66 32.83 126.66 35.64"/><polygon class="cls-3" points="129.46 36.19 127.72 35.85 127.72 33.06 129.46 33.46 129.46 36.19"/><polygon class="cls-3" points="132.1 36.71 130.46 36.38 130.46 33.68 132.1 34.05 132.1 36.71"/><polygon class="cls-3" points="134.59 37.2 133.04 36.89 133.04 34.27 134.59 34.62 134.59 37.2"/><polygon class="cls-3" points="136.95 37.66 135.48 37.37 135.48 34.81 136.95 35.15 136.95 37.66"/><polygon class="cls-3" points="139.18 38.09 137.79 37.82 137.79 35.34 139.18 35.65 139.18 38.09"/><polygon class="cls-3" points="120.52 39.2 118.42 38.89 118.42 35.83 120.52 36.2 120.52 39.2"/><polygon class="cls-3" points="123.69 39.67 121.72 39.38 121.72 36.42 123.69 36.77 123.69 39.67"/><polygon class="cls-3" points="126.66 40.12 124.81 39.84 124.81 36.97 126.66 37.3 126.66 40.12"/><polygon class="cls-3" points="136.95 41.65 135.48 41.43 135.48 38.87 136.95 39.14 136.95 41.65"/><polygon class="cls-3" points="139.18 41.98 137.79 41.77 137.79 39.29 139.18 39.53 139.18 41.98"/><polygon class="cls-3" points="117.14 43.62 114.9 43.39 114.9 40.23 117.14 40.52 117.14 43.62"/><polygon class="cls-3" points="123.69 44.29 121.72 44.09 121.72 41.13 123.69 41.38 123.69 44.29"/><polygon class="cls-3" points="126.66 44.59 124.81 44.4 124.81 41.53 126.66 41.77 126.66 44.59"/><polygon class="cls-3" points="129.46 44.87 127.72 44.7 127.72 41.91 129.46 42.14 129.46 44.87"/><polygon class="cls-3" points="134.59 45.4 133.04 45.24 133.04 42.61 134.59 42.82 134.59 45.4"/><polygon class="cls-3" points="136.95 45.64 135.48 45.49 135.48 42.93 136.95 43.13 136.95 45.64"/><polygon class="cls-3" points="139.18 45.86 137.79 45.72 137.79 43.24 139.18 43.42 139.18 45.86"/><polygon class="cls-3" points="117.14 48.55 114.9 48.42 114.9 45.26 117.14 45.45 117.14 48.55"/><polygon class="cls-3" points="120.52 48.73 118.42 48.62 118.42 45.55 120.52 45.73 120.52 48.73"/><polygon class="cls-3" points="132.1 49.36 130.46 49.27 130.46 46.57 132.1 46.71 132.1 49.36"/><polygon class="cls-3" points="134.59 49.5 133.04 49.41 133.04 46.79 134.59 46.92 134.59 49.5"/><polygon class="cls-3" points="136.95 49.63 135.48 49.55 135.48 46.99 136.95 47.12 136.95 49.63"/><polygon class="cls-3" points="139.18 49.75 137.79 49.67 137.79 47.19 139.18 47.3 139.18 49.75"/><polygon class="cls-3" points="117.14 53.47 114.9 53.45 114.9 50.29 117.14 50.37 117.14 53.47"/><polygon class="cls-3" points="120.52 53.49 118.42 53.48 118.42 50.42 120.52 50.49 120.52 53.49"/><polygon class="cls-3" points="123.69 53.52 121.72 53.5 121.72 50.54 123.69 50.61 123.69 53.52"/><polygon class="cls-3" points="126.66 53.54 124.81 53.52 124.81 50.65 126.66 50.72 126.66 53.54"/><polygon class="cls-3" points="129.46 53.56 127.72 53.55 127.72 50.76 129.46 50.83 129.46 53.56"/><polygon class="cls-3" points="132.1 53.58 130.46 53.57 130.46 50.86 132.1 50.92 132.1 53.58"/><polygon class="cls-3" points="136.95 53.62 135.48 53.6 135.48 51.05 136.95 51.1 136.95 53.62"/><polygon class="cls-3" points="139.18 53.63 137.79 53.62 137.79 51.13 139.18 51.19 139.18 53.63"/><polygon class="cls-3" points="120.52 58.26 118.42 58.34 118.42 55.28 120.52 55.26 120.52 58.26"/><polygon class="cls-3" points="123.69 58.13 121.72 58.21 121.72 55.25 123.69 55.23 123.69 58.13"/><polygon class="cls-3" points="126.66 58.01 124.81 58.09 124.81 55.22 126.66 55.2 126.66 58.01"/><polygon class="cls-3" points="129.46 57.9 127.72 57.97 127.72 55.19 129.46 55.17 129.46 57.9"/><polygon class="cls-3" points="132.1 57.8 130.46 57.86 130.46 55.16 132.1 55.14 132.1 57.8"/><polygon class="cls-3" points="134.59 57.7 133.04 57.76 133.04 55.13 134.59 55.12 134.59 57.7"/><polygon class="cls-3" points="136.95 57.6 135.48 57.66 135.48 55.11 136.95 55.09 136.95 57.6"/><polygon class="cls-3" points="139.18 57.52 137.79 57.57 137.79 55.09 139.18 55.07 139.18 57.52"/><polygon class="cls-3" points="117.14 63.31 114.9 63.51 114.9 60.34 117.14 60.22 117.14 63.31"/><polygon class="cls-3" points="123.69 62.74 121.72 62.92 121.72 59.95 123.69 59.84 123.69 62.74"/><polygon class="cls-3" points="132.1 62.02 130.46 62.16 130.46 59.45 132.1 59.36 132.1 62.02"/><polygon class="cls-3" points="136.95 61.59 135.48 61.72 135.48 59.17 136.95 59.08 136.95 61.59"/><polygon class="cls-3" points="139.18 61.4 137.79 61.52 137.79 59.03 139.18 58.96 139.18 61.4"/><polygon class="cls-3" points="117.14 68.24 114.9 68.54 114.9 65.37 117.14 65.14 117.14 68.24"/><polygon class="cls-3" points="123.69 67.36 121.72 67.62 121.72 64.66 123.69 64.46 123.69 67.36"/><polygon class="cls-3" points="126.66 66.96 124.81 67.21 124.81 64.34 126.66 64.15 126.66 66.96"/><polygon class="cls-3" points="129.46 66.59 127.72 66.82 127.72 64.04 129.46 63.85 129.46 66.59"/><polygon class="cls-3" points="132.1 66.23 130.46 66.45 130.46 63.75 132.1 63.58 132.1 66.23"/><polygon class="cls-3" points="134.59 65.9 133.04 66.11 133.04 63.48 134.59 63.32 134.59 65.9"/><polygon class="cls-3" points="136.95 65.58 135.48 65.78 135.48 63.23 136.95 63.07 136.95 65.58"/><polygon class="cls-3" points="139.18 65.28 137.79 65.47 137.79 62.98 139.18 62.84 139.18 65.28"/><polygon class="cls-3" points="117.14 73.16 114.9 73.57 114.9 70.4 117.14 70.06 117.14 73.16"/><polygon class="cls-3" points="120.52 72.55 118.42 72.93 118.42 69.87 120.52 69.55 120.52 72.55"/><polygon class="cls-3" points="123.69 71.97 121.72 72.33 121.72 69.37 123.69 69.07 123.69 71.97"/><polygon class="cls-3" points="126.66 71.44 124.81 71.77 124.81 68.9 126.66 68.62 126.66 71.44"/><polygon class="cls-3" points="129.46 70.93 127.72 71.24 127.72 68.46 129.46 68.2 129.46 70.93"/><polygon class="cls-3" points="134.59 70 133.04 70.28 133.04 67.65 134.59 67.42 134.59 70"/><polygon class="cls-3" points="139.18 69.17 137.79 69.42 137.79 66.94 139.18 66.72 139.18 69.17"/><polygon class="cls-3" points="117.14 78.08 114.9 78.59 114.9 75.43 117.14 74.98 117.14 78.08"/><polygon class="cls-3" points="126.66 75.91 124.81 76.33 124.81 73.46 126.66 73.09 126.66 75.91"/><polygon class="cls-3" points="129.46 75.27 127.72 75.67 127.72 72.88 129.46 72.54 129.46 75.27"/><polygon class="cls-3" points="132.1 74.67 130.46 75.04 130.46 72.34 132.1 72.02 132.1 74.67"/><polygon class="cls-3" points="136.95 73.56 135.48 73.9 135.48 71.34 136.95 71.05 136.95 73.56"/><polygon class="cls-3" points="139.18 73.05 137.79 73.37 137.79 70.89 139.18 70.61 139.18 73.05"/><polygon class="cls-3" points="117.14 83 114.9 83.62 114.9 80.46 117.14 79.91 117.14 83"/><polygon class="cls-3" points="134.59 78.2 133.04 78.63 133.04 76 134.59 75.62 134.59 78.2"/><polygon class="cls-3" points="139.18 76.94 137.79 77.32 137.79 74.83 139.18 74.49 139.18 76.94"/><polygon class="cls-3" points="117.14 87.93 114.9 88.65 114.9 85.49 117.14 84.83 117.14 87.93"/><polygon class="cls-3" points="120.52 86.84 118.42 87.52 118.42 84.46 120.52 83.84 120.52 86.84"/><polygon class="cls-3" points="126.66 84.86 124.81 85.45 124.81 82.58 126.66 82.04 126.66 84.86"/><polygon class="cls-3" points="129.46 83.96 127.72 84.52 127.72 81.73 129.46 81.22 129.46 83.96"/><polygon class="cls-3" points="136.95 81.54 135.48 82.01 135.48 79.46 136.95 79.03 136.95 81.54"/><polygon class="cls-3" points="117.14 97.77 114.9 98.71 114.9 95.55 117.14 94.68 117.14 97.77"/><polygon class="cls-3" points="123.69 95.05 121.72 95.87 121.72 92.91 123.69 92.14 123.69 95.05"/><polygon class="cls-3" points="132.1 91.54 130.46 92.22 130.46 89.52 132.1 88.89 132.1 91.54"/><polygon class="cls-3" points="136.95 89.52 135.48 90.13 135.48 87.58 136.95 87.01 136.95 89.52"/><polygon class="cls-3" points="126.66 98.28 124.81 99.14 124.81 96.27 126.66 95.47 126.66 98.28"/><polygon class="cls-3" points="136.95 93.51 135.48 94.19 135.48 91.64 136.95 91 136.95 93.51"/><polygon class="cls-3" points="139.18 92.47 137.79 93.12 137.79 90.63 139.18 90.03 139.18 92.47"/><polygon class="cls-3" points="117.14 107.62 114.9 108.77 114.9 105.6 117.14 104.52 117.14 107.62"/><polygon class="cls-3" points="136.95 97.5 135.48 98.25 135.48 95.69 136.95 94.99 136.95 97.5"/></g></g></svg>