<svg xmlns="http://www.w3.org/2000/svg" viewBox="0 0 714.13 234.12"><defs><style>.cls-1{font-size:77.48px;font-family:bankgothic_lt_btlight, bankgothic_lt_btlight;}.cls-1,.cls-4{fill:#2a3132;}.cls-2{letter-spacing:-0.08em;}.cls-3{fill:#7691c1;}</style></defs><title>Recurso 1</title><g id="Capa_2" data-name="Capa 2"><g id="Main"><text class="cls-1" transform="translate(268.61 95.68)">OMA<tspan x="-189.32" y="116.97">ARQUITEC</tspan><tspan class="cls-2" x="202.17" y="116.97">T</tspan><tspan x="245.53" y="116.97">OS</tspan></text><polygon class="cls-3" points="130.42 30.62 128.68 31.27 128.68 28.82 130.42 28.12 130.42 30.62"/><polygon class="cls-3" points="125.12 36.33 123.58 36.84 123.58 34.53 125.12 33.98 125.12 36.33"/><polygon class="cls-3" points="133.34 50.07 131.48 50.34 131.48 47.81 133.34 47.49 133.34 50.07"/><polygon class="cls-3" points="127.69 54.74 126.05 54.9 126.05 52.53 127.69 52.32 127.69 54.74"/><polygon class="cls-3" points="127.69 62.44 126.05 62.45 126.05 60.08 127.69 60.02 127.69 62.44"/><polygon class="cls-3" points="130.42 62.42 128.68 62.43 128.68 59.98 130.42 59.92 130.42 62.42"/><polygon class="cls-3" points="122.7 73.34 121.25 73.15 121.25 70.92 122.7 71.06 122.7 73.34"/><polygon class="cls-3" points="133.34 74.73 131.48 74.49 131.48 71.95 133.34 72.14 133.34 74.73"/><polygon class="cls-3" points="130.42 90.25 128.68 89.7 128.68 87.25 130.42 87.75 130.42 90.25"/><polygon class="cls-3" points="125.12 92.32 123.58 91.77 123.58 89.46 125.12 89.97 125.12 92.32"/><polygon class="cls-3" points="120.42 97.67 119.06 97.05 119.06 94.88 120.42 95.45 120.42 97.67"/><polygon class="cls-4" points="114.31 30.16 113.15 30.7 113.15 28.7 114.31 28.12 114.31 30.16"/><polygon class="cls-4" points="116.24 29.26 115.02 29.83 115.02 27.78 116.24 27.17 116.24 29.26"/><polygon class="cls-4" points="118.27 28.32 116.98 28.92 116.98 26.81 118.27 26.17 118.27 28.32"/><polygon class="cls-4" points="127.69 23.94 126.05 24.7 126.05 22.32 127.69 21.52 127.69 23.94"/><polygon class="cls-4" points="130.42 22.67 128.68 23.48 128.68 21.03 130.42 20.16 130.42 22.67"/><polygon class="cls-4" points="114.31 33.4 113.15 33.88 113.15 31.88 114.31 31.36 114.31 33.4"/><polygon class="cls-4" points="116.24 32.59 115.02 33.1 115.02 31.05 116.24 30.5 116.24 32.59"/><polygon class="cls-4" points="118.27 31.74 116.98 32.28 116.98 30.17 118.27 29.59 118.27 31.74"/><polygon class="cls-4" points="120.42 30.84 119.06 31.41 119.06 29.23 120.42 28.62 120.42 30.84"/><polygon class="cls-4" points="122.7 29.88 121.25 30.49 121.25 28.25 122.7 27.6 122.7 29.88"/><polygon class="cls-4" points="125.12 28.87 123.58 29.51 123.58 27.21 125.12 26.52 125.12 28.87"/><polygon class="cls-4" points="114.31 36.64 113.15 37.07 113.15 35.06 114.31 34.6 114.31 36.64"/><polygon class="cls-4" points="116.24 35.92 115.02 36.37 115.02 34.32 116.24 33.82 116.24 35.92"/><polygon class="cls-4" points="120.42 34.35 119.06 34.86 119.06 32.69 120.42 32.14 120.42 34.35"/><polygon class="cls-4" points="122.7 33.5 121.25 34.04 121.25 31.81 122.7 31.22 122.7 33.5"/><polygon class="cls-4" points="127.69 31.64 126.05 32.25 126.05 29.88 127.69 29.22 127.69 31.64"/><polygon class="cls-4" points="114.31 39.87 113.15 40.25 113.15 38.25 114.31 37.84 114.31 39.87"/><polygon class="cls-4" points="116.24 39.24 115.02 39.64 115.02 37.59 116.24 37.15 116.24 39.24"/><polygon class="cls-4" points="118.27 38.58 116.98 39 116.98 36.88 118.27 36.42 118.27 38.58"/><polygon class="cls-4" points="120.42 37.87 119.06 38.32 119.06 36.15 120.42 35.66 120.42 37.87"/><polygon class="cls-4" points="122.7 37.12 121.25 37.6 121.25 35.36 122.7 34.84 122.7 37.12"/><polygon class="cls-4" points="127.69 35.49 126.05 36.03 126.05 33.65 127.69 33.07 127.69 35.49"/><polygon class="cls-4" points="133.34 33.63 131.48 34.24 131.48 31.71 133.34 31.05 133.34 33.63"/><polygon class="cls-4" points="114.31 43.11 113.15 43.44 113.15 41.43 114.31 41.07 114.31 43.11"/><polygon class="cls-4" points="116.24 42.57 115.02 42.91 115.02 40.86 116.24 40.48 116.24 42.57"/><polygon class="cls-4" points="118.27 41.99 116.98 42.36 116.98 40.24 118.27 39.84 118.27 41.99"/><polygon class="cls-4" points="120.42 41.39 119.06 41.77 119.06 39.6 120.42 39.17 120.42 41.39"/><polygon class="cls-4" points="122.7 40.75 121.25 41.16 121.25 38.92 122.7 38.47 122.7 40.75"/><polygon class="cls-4" points="127.69 39.34 126.05 39.8 126.05 37.43 127.69 36.92 127.69 39.34"/><polygon class="cls-4" points="130.42 38.57 128.68 39.06 128.68 36.61 130.42 36.07 130.42 38.57"/><polygon class="cls-4" points="114.31 46.35 113.15 46.62 113.15 44.62 114.31 44.31 114.31 46.35"/><polygon class="cls-4" points="116.24 45.89 115.02 46.18 115.02 44.13 116.24 43.8 116.24 45.89"/><polygon class="cls-4" points="118.27 45.41 116.98 45.72 116.98 43.6 118.27 43.26 118.27 45.41"/><polygon class="cls-4" points="120.42 44.91 119.06 45.23 119.06 43.05 120.42 42.69 120.42 44.91"/><polygon class="cls-4" points="125.12 43.8 123.58 44.16 123.58 41.86 125.12 41.45 125.12 43.8"/><polygon class="cls-4" points="127.69 43.19 126.05 43.58 126.05 41.2 127.69 40.77 127.69 43.19"/><polygon class="cls-4" points="114.31 49.59 113.15 49.81 113.15 47.8 114.31 47.55 114.31 49.59"/><polygon class="cls-4" points="116.24 49.22 115.02 49.45 115.02 47.4 116.24 47.13 116.24 49.22"/><polygon class="cls-4" points="120.42 48.42 119.06 48.68 119.06 46.51 120.42 46.21 120.42 48.42"/><polygon class="cls-4" points="125.12 47.53 123.58 47.82 123.58 45.52 125.12 45.18 125.12 47.53"/><polygon class="cls-4" points="130.42 46.52 128.68 46.85 128.68 44.4 130.42 44.02 130.42 46.52"/><polygon class="cls-4" points="133.34 45.96 131.48 46.32 131.48 43.78 133.34 43.38 133.34 45.96"/><polygon class="cls-4" points="114.31 52.82 113.15 52.99 113.15 50.99 114.31 50.79 114.31 52.82"/><polygon class="cls-4" points="116.24 52.55 115.02 52.72 115.02 50.66 116.24 50.45 116.24 52.55"/><polygon class="cls-4" points="118.27 52.25 116.98 52.44 116.98 50.33 118.27 50.1 118.27 52.25"/><polygon class="cls-4" points="120.42 51.94 119.06 52.14 119.06 49.97 120.42 49.73 120.42 51.94"/><polygon class="cls-4" points="122.7 51.61 121.25 51.82 121.25 49.58 122.7 49.33 122.7 51.61"/><polygon class="cls-4" points="125.12 51.26 123.58 51.48 123.58 49.18 125.12 48.91 125.12 51.26"/><polygon class="cls-4" points="114.31 56.06 113.15 56.18 113.15 54.17 114.31 54.02 114.31 56.06"/><polygon class="cls-4" points="116.24 55.87 115.02 55.99 115.02 53.94 116.24 53.78 116.24 55.87"/><polygon class="cls-4" points="118.27 55.67 116.98 55.8 116.98 53.69 118.27 53.52 118.27 55.67"/><polygon class="cls-4" points="120.42 55.46 119.06 55.59 119.06 53.42 120.42 53.24 120.42 55.46"/><polygon class="cls-4" points="122.7 55.23 121.25 55.38 121.25 53.14 122.7 52.95 122.7 55.23"/><polygon class="cls-4" points="133.34 54.18 131.48 54.37 131.48 51.83 133.34 51.6 133.34 54.18"/><polygon class="cls-4" points="114.31 59.3 113.15 59.36 113.15 57.36 114.31 57.26 114.31 59.3"/><polygon class="cls-4" points="116.24 59.2 115.02 59.26 115.02 57.2 116.24 57.1 116.24 59.2"/><polygon class="cls-4" points="118.27 59.09 116.98 59.16 116.98 57.04 118.27 56.94 118.27 59.09"/><polygon class="cls-4" points="122.7 58.85 121.25 58.93 121.25 56.7 122.7 56.58 122.7 58.85"/><polygon class="cls-4" points="125.12 58.73 123.58 58.81 123.58 56.5 125.12 56.38 125.12 58.73"/><polygon class="cls-4" points="133.34 58.29 131.48 58.39 131.48 55.86 133.34 55.7 133.34 58.29"/><polygon class="cls-4" points="114.31 62.54 113.15 62.55 113.15 60.54 114.31 60.5 114.31 62.54"/><polygon class="cls-4" points="116.24 62.52 115.02 62.53 115.02 60.48 116.24 60.43 116.24 62.52"/><polygon class="cls-4" points="118.27 62.51 116.98 62.52 116.98 60.4 118.27 60.36 118.27 62.51"/><polygon class="cls-4" points="122.7 62.48 121.25 62.49 121.25 60.25 122.7 60.2 122.7 62.48"/><polygon class="cls-4" points="133.34 62.4 131.48 62.41 131.48 59.88 133.34 59.81 133.34 62.4"/><polygon class="cls-4" points="114.31 65.78 113.15 65.73 113.15 63.73 114.31 63.74 114.31 65.78"/><polygon class="cls-4" points="116.24 65.85 115.02 65.8 115.02 63.74 116.24 63.76 116.24 65.85"/><polygon class="cls-4" points="118.27 65.93 116.98 65.88 116.98 63.76 118.27 63.78 118.27 65.93"/><polygon class="cls-4" points="120.42 66.01 119.06 65.96 119.06 63.78 120.42 63.8 120.42 66.01"/><polygon class="cls-4" points="125.12 66.19 123.58 66.13 123.58 63.83 125.12 63.84 125.12 66.19"/><polygon class="cls-4" points="133.34 66.51 131.48 66.44 131.48 63.91 133.34 63.92 133.34 66.51"/><polygon class="cls-4" points="114.31 69.01 113.15 68.92 113.15 66.91 114.31 66.98 114.31 69.01"/><polygon class="cls-4" points="116.24 69.17 115.02 69.07 115.02 67.02 116.24 67.08 116.24 69.17"/><polygon class="cls-4" points="118.27 69.35 116.98 69.24 116.98 67.12 118.27 67.2 118.27 69.35"/><polygon class="cls-4" points="120.42 69.53 119.06 69.41 119.06 67.24 120.42 67.31 120.42 69.53"/><polygon class="cls-4" points="122.7 69.72 121.25 69.6 121.25 67.36 122.7 67.44 122.7 69.72"/><polygon class="cls-4" points="127.69 70.14 126.05 70 126.05 67.63 127.69 67.72 127.69 70.14"/><polygon class="cls-4" points="133.34 70.62 131.48 70.46 131.48 67.93 133.34 68.03 133.34 70.62"/><polygon class="cls-4" points="114.31 72.25 113.15 72.1 113.15 70.1 114.31 70.21 114.31 72.25"/><polygon class="cls-4" points="116.24 72.5 115.02 72.34 115.02 70.28 116.24 70.41 116.24 72.5"/><polygon class="cls-4" points="118.27 72.77 116.98 72.6 116.98 70.48 118.27 70.61 118.27 72.77"/><polygon class="cls-4" points="125.12 73.66 123.58 73.46 123.58 71.15 125.12 71.31 125.12 73.66"/><polygon class="cls-4" points="127.69 73.99 126.05 73.78 126.05 71.4 127.69 71.57 127.69 73.99"/><polygon class="cls-4" points="114.31 75.49 113.15 75.28 113.15 73.28 114.31 73.45 114.31 75.49"/><polygon class="cls-4" points="116.24 75.83 115.02 75.61 115.02 73.55 116.24 73.73 116.24 75.83"/><polygon class="cls-4" points="118.27 76.19 116.98 75.96 116.98 73.84 118.27 74.03 118.27 76.19"/><polygon class="cls-4" points="120.42 76.56 119.06 76.32 119.06 74.15 120.42 74.35 120.42 76.56"/><polygon class="cls-4" points="122.7 76.96 121.25 76.71 121.25 74.47 122.7 74.69 122.7 76.96"/><polygon class="cls-4" points="130.42 78.32 128.68 78.02 128.68 75.57 130.42 75.82 130.42 78.32"/><polygon class="cls-4" points="133.34 78.84 131.48 78.51 131.48 75.98 133.34 76.25 133.34 78.84"/><polygon class="cls-4" points="114.31 78.73 113.15 78.47 113.15 76.47 114.31 76.69 114.31 78.73"/><polygon class="cls-4" points="116.24 79.15 115.02 78.88 115.02 76.82 116.24 77.06 116.24 79.15"/><polygon class="cls-4" points="122.7 80.59 121.25 80.27 121.25 78.03 122.7 78.31 122.7 80.59"/><polygon class="cls-4" points="125.12 81.12 123.58 80.78 123.58 78.48 125.12 78.77 125.12 81.12"/><polygon class="cls-4" points="127.69 81.69 126.05 81.33 126.05 78.95 127.69 79.27 127.69 81.69"/><polygon class="cls-4" points="133.34 82.95 131.48 82.53 131.48 80 133.34 80.36 133.34 82.95"/><polygon class="cls-4" points="114.31 81.96 113.15 81.65 113.15 79.65 114.31 79.93 114.31 81.96"/><polygon class="cls-4" points="116.24 82.48 115.02 82.15 115.02 80.09 116.24 80.39 116.24 82.48"/><polygon class="cls-4" points="118.27 83.02 116.98 82.68 116.98 80.56 118.27 80.87 118.27 83.02"/><polygon class="cls-4" points="122.7 84.21 121.25 83.82 121.25 81.58 122.7 81.93 122.7 84.21"/><polygon class="cls-4" points="133.34 87.06 131.48 86.56 131.48 84.03 133.34 84.47 133.34 87.06"/><polygon class="cls-4" points="114.31 85.2 113.15 84.84 113.15 82.83 114.31 83.16 114.31 85.2"/><polygon class="cls-4" points="116.24 85.81 115.02 85.42 115.02 83.36 116.24 83.71 116.24 85.81"/><polygon class="cls-4" points="118.27 86.44 116.98 86.04 116.98 83.92 118.27 84.29 118.27 86.44"/><polygon class="cls-4" points="120.42 87.12 119.06 86.69 119.06 84.51 120.42 84.9 120.42 87.12"/><polygon class="cls-4" points="122.7 87.83 121.25 87.38 121.25 85.14 122.7 85.55 122.7 87.83"/><polygon class="cls-4" points="114.31 88.44 113.15 88.02 113.15 86.02 114.31 86.4 114.31 88.44"/><polygon class="cls-4" points="116.24 89.13 115.02 88.69 115.02 86.63 116.24 87.04 116.24 89.13"/><polygon class="cls-4" points="118.27 89.86 116.98 89.4 116.98 87.28 118.27 87.71 118.27 89.86"/><polygon class="cls-4" points="120.42 90.63 119.06 90.14 119.06 87.97 120.42 88.42 120.42 90.63"/><polygon class="cls-4" points="133.34 95.27 131.48 94.61 131.48 92.07 133.34 92.69 133.34 95.27"/><polygon class="cls-4" points="114.31 91.68 113.15 91.21 113.15 89.2 114.31 89.64 114.31 91.68"/><polygon class="cls-4" points="116.24 92.46 115.02 91.96 115.02 89.9 116.24 90.36 116.24 92.46"/><polygon class="cls-4" points="118.27 93.28 116.98 92.76 116.98 90.64 118.27 91.13 118.27 93.28"/><polygon class="cls-4" points="116.24 95.78 115.02 95.23 115.02 93.17 116.24 93.69 116.24 95.78"/><polygon class="cls-4" points="133.34 103.49 131.48 102.65 131.48 100.12 133.34 100.91 133.34 103.49"/><polygon class="cls-4" points="114.31 98.15 113.15 97.58 113.15 95.57 114.31 96.11 114.31 98.15"/><polygon class="cls-4" points="118.27 100.12 116.98 99.48 116.98 97.36 118.27 97.97 118.27 100.12"/><polygon class="cls-4" points="125.12 103.52 123.58 102.75 123.58 100.45 125.12 101.17 125.12 103.52"/><polygon class="cls-4" points="127.69 104.79 126.05 103.98 126.05 101.61 127.69 102.37 127.69 104.79"/><polygon class="cls-4" points="133.34 107.6 131.48 106.68 131.48 104.15 133.34 105.02 133.34 107.6"/><polygon class="cls-3" points="155.38 30.33 154.2 29.78 154.2 27.72 155.38 28.3 155.38 30.33"/><polygon class="cls-3" points="144.7 36.49 143.12 35.98 143.12 33.59 144.7 34.16 144.7 36.49"/><polygon class="cls-3" points="136.58 54.24 134.66 54.05 134.66 51.43 136.58 51.67 136.58 54.24"/><polygon class="cls-3" points="144.7 58.75 143.12 58.67 143.12 56.29 144.7 56.42 144.7 58.75"/><polygon class="cls-3" points="155.38 65.76 154.2 65.81 154.2 63.75 155.38 63.73 155.38 65.76"/><polygon class="cls-3" points="147.09 76.88 145.6 77.14 145.6 74.84 147.09 74.62 147.09 76.88"/><polygon class="cls-4" points="136.58 21.58 134.66 20.69 134.66 18.07 136.58 19.02 136.58 21.58"/><polygon class="cls-4" points="139.46 22.93 137.67 22.09 137.67 19.55 139.46 20.44 139.46 22.93"/><polygon class="cls-4" points="142.16 24.18 140.48 23.4 140.48 20.94 142.16 21.77 142.16 24.18"/><polygon class="cls-4" points="147.09 26.47 145.6 25.78 145.6 23.47 147.09 24.21 147.09 26.47"/><polygon class="cls-4" points="149.34 27.52 147.94 26.87 147.94 24.63 149.34 25.32 149.34 27.52"/><polygon class="cls-4" points="153.48 29.45 152.23 28.86 152.23 26.75 153.48 27.36 153.48 29.45"/><polygon class="cls-4" points="136.58 25.67 134.66 24.86 134.66 22.24 136.58 23.1 136.58 25.67"/><polygon class="cls-4" points="144.7 29.07 143.12 28.41 143.12 26.03 144.7 26.74 144.7 29.07"/><polygon class="cls-4" points="149.34 31.02 147.94 30.43 147.94 28.19 149.34 28.82 149.34 31.02"/><polygon class="cls-4" points="151.47 31.91 150.14 31.36 150.14 29.18 151.47 29.77 151.47 31.91"/><polygon class="cls-4" points="155.38 33.55 154.2 33.05 154.2 30.99 155.38 31.53 155.38 33.55"/><polygon class="cls-4" points="136.58 29.75 134.66 29.03 134.66 26.41 136.58 27.18 136.58 29.75"/><polygon class="cls-4" points="144.7 32.78 143.12 32.19 143.12 29.81 144.7 30.45 144.7 32.78"/><polygon class="cls-4" points="147.09 33.67 145.6 33.12 145.6 30.81 147.09 31.41 147.09 33.67"/><polygon class="cls-4" points="151.47 35.31 150.14 34.82 150.14 32.64 151.47 33.17 151.47 35.31"/><polygon class="cls-4" points="155.38 36.77 154.2 36.33 154.2 34.27 155.38 34.75 155.38 36.77"/><polygon class="cls-4" points="136.58 33.83 134.66 33.2 134.66 30.58 136.58 31.26 136.58 33.83"/><polygon class="cls-4" points="139.46 34.77 137.67 34.19 137.67 31.65 139.46 32.29 139.46 34.77"/><polygon class="cls-4" points="147.09 37.28 145.6 36.79 145.6 34.48 147.09 35.01 147.09 37.28"/><polygon class="cls-4" points="149.34 38.01 147.94 37.55 147.94 35.31 149.34 35.81 149.34 38.01"/><polygon class="cls-4" points="151.47 38.71 150.14 38.28 150.14 36.1 151.47 36.57 151.47 38.71"/><polygon class="cls-4" points="155.38 39.99 154.2 39.6 154.2 37.54 155.38 37.97 155.38 39.99"/><polygon class="cls-4" points="136.58 37.91 134.66 37.37 134.66 34.75 136.58 35.34 136.58 37.91"/><polygon class="cls-4" points="139.46 38.73 137.67 38.22 137.67 35.68 139.46 36.24 139.46 38.73"/><polygon class="cls-4" points="142.16 39.49 140.48 39.01 140.48 36.56 142.16 37.08 142.16 39.49"/><polygon class="cls-4" points="147.09 40.88 145.6 40.46 145.6 38.15 147.09 38.61 147.09 40.88"/><polygon class="cls-4" points="151.47 42.11 150.14 41.74 150.14 39.56 151.47 39.97 151.47 42.11"/><polygon class="cls-4" points="153.48 42.68 152.23 42.33 152.23 40.21 153.48 40.6 153.48 42.68"/><polygon class="cls-4" points="155.38 43.22 154.2 42.88 154.2 40.82 155.38 41.19 155.38 43.22"/><polygon class="cls-4" points="136.58 41.99 134.66 41.54 134.66 38.92 136.58 39.43 136.58 41.99"/><polygon class="cls-4" points="144.7 43.91 143.12 43.54 143.12 41.16 144.7 41.58 144.7 43.91"/><polygon class="cls-4" points="147.09 44.48 145.6 44.13 145.6 41.82 147.09 42.21 147.09 44.48"/><polygon class="cls-4" points="149.34 45.01 147.94 44.68 147.94 42.44 149.34 42.81 149.34 45.01"/><polygon class="cls-4" points="155.38 46.44 154.2 46.16 154.2 44.09 155.38 44.41 155.38 46.44"/><polygon class="cls-4" points="136.58 46.08 134.66 45.71 134.66 43.09 136.58 43.51 136.58 46.08"/><polygon class="cls-4" points="139.46 46.63 137.67 46.28 137.67 43.75 139.46 44.14 139.46 46.63"/><polygon class="cls-4" points="142.16 47.14 140.48 46.82 140.48 44.36 142.16 44.73 142.16 47.14"/><polygon class="cls-4" points="144.7 47.62 143.12 47.32 143.12 44.94 144.7 45.29 144.7 47.62"/><polygon class="cls-4" points="149.34 48.51 147.94 48.24 147.94 46 149.34 46.31 149.34 48.51"/><polygon class="cls-4" points="151.47 48.91 150.14 48.66 150.14 46.48 151.47 46.77 151.47 48.91"/><polygon class="cls-4" points="153.48 49.29 152.23 49.06 152.23 46.94 153.48 47.21 153.48 49.29"/><polygon class="cls-4" points="155.38 49.66 154.2 49.43 154.2 47.37 155.38 47.63 155.38 49.66"/><polygon class="cls-4" points="139.46 50.58 137.67 50.32 137.67 47.78 139.46 48.09 139.46 50.58"/><polygon class="cls-4" points="142.16 50.97 140.48 50.72 140.48 48.27 142.16 48.56 142.16 50.97"/><polygon class="cls-4" points="147.09 51.68 145.6 51.46 145.6 49.16 147.09 49.41 147.09 51.68"/><polygon class="cls-4" points="149.34 52 147.94 51.8 147.94 49.56 149.34 49.8 149.34 52"/><polygon class="cls-4" points="155.38 52.88 154.2 52.71 154.2 50.65 155.38 50.85 155.38 52.88"/><polygon class="cls-4" points="139.46 54.52 137.67 54.35 137.67 51.81 139.46 52.04 139.46 54.52"/><polygon class="cls-4" points="142.16 54.79 140.48 54.63 140.48 52.17 142.16 52.38 142.16 54.79"/><polygon class="cls-4" points="149.34 55.5 147.94 55.36 147.94 53.12 149.34 53.3 149.34 55.5"/><polygon class="cls-4" points="151.47 55.71 150.14 55.58 150.14 53.4 151.47 53.57 151.47 55.71"/><polygon class="cls-4" points="153.48 55.91 152.23 55.79 152.23 53.67 153.48 53.83 153.48 55.91"/><polygon class="cls-4" points="155.38 56.1 154.2 55.98 154.2 53.92 155.38 54.07 155.38 56.1"/><polygon class="cls-4" points="136.58 58.32 134.66 58.22 134.66 55.6 136.58 55.75 136.58 58.32"/><polygon class="cls-4" points="147.09 58.88 145.6 58.8 145.6 56.49 147.09 56.61 147.09 58.88"/><polygon class="cls-4" points="151.47 59.11 150.14 59.04 150.14 56.86 151.47 56.97 151.47 59.11"/><polygon class="cls-4" points="153.48 59.22 152.23 59.15 152.23 57.03 153.48 57.14 153.48 59.22"/><polygon class="cls-4" points="155.38 59.32 154.2 59.26 154.2 57.2 155.38 57.29 155.38 59.32"/><polygon class="cls-4" points="139.46 62.42 137.67 62.41 137.67 59.88 139.46 59.94 139.46 62.42"/><polygon class="cls-4" points="142.16 62.45 140.48 62.43 140.48 59.98 142.16 60.04 142.16 62.45"/><polygon class="cls-4" points="147.09 62.48 145.6 62.47 145.6 60.16 147.09 60.22 147.09 62.48"/><polygon class="cls-4" points="149.34 62.5 147.94 62.49 147.94 60.24 149.34 60.3 149.34 62.5"/><polygon class="cls-4" points="155.38 62.54 154.2 62.53 154.2 60.47 155.38 60.51 155.38 62.54"/><polygon class="cls-4" points="136.58 66.49 134.66 66.56 134.66 63.94 136.58 63.92 136.58 66.49"/><polygon class="cls-4" points="139.46 66.38 137.67 66.44 137.67 63.91 139.46 63.89 139.46 66.38"/><polygon class="cls-4" points="142.16 66.27 140.48 66.34 140.48 63.88 142.16 63.86 142.16 66.27"/><polygon class="cls-4" points="144.7 66.17 143.12 66.23 143.12 63.85 144.7 63.84 144.7 66.17"/><polygon class="cls-4" points="149.34 65.99 147.94 66.05 147.94 63.81 149.34 63.79 149.34 65.99"/><polygon class="cls-4" points="153.48 65.83 152.23 65.88 152.23 63.77 153.48 63.75 153.48 65.83"/><polygon class="cls-4" points="136.58 70.57 134.66 70.73 134.66 68.11 136.58 68 136.58 70.57"/><polygon class="cls-4" points="144.7 69.88 143.12 70.02 143.12 67.64 144.7 67.55 144.7 69.88"/><polygon class="cls-4" points="147.09 69.68 145.6 69.81 145.6 67.5 147.09 67.42 147.09 69.68"/><polygon class="cls-4" points="149.34 69.49 147.94 69.61 147.94 67.37 149.34 67.29 149.34 69.49"/><polygon class="cls-4" points="151.47 69.31 150.14 69.42 150.14 67.25 151.47 67.17 151.47 69.31"/><polygon class="cls-4" points="155.38 68.98 154.2 69.08 154.2 67.02 155.38 66.95 155.38 68.98"/><polygon class="cls-4" points="136.58 74.65 134.66 74.9 134.66 72.28 136.58 72.08 136.58 74.65"/><polygon class="cls-4" points="142.16 73.92 140.48 74.14 140.48 71.69 142.16 71.52 142.16 73.92"/><polygon class="cls-4" points="144.7 73.59 143.12 73.8 143.12 71.42 144.7 71.26 144.7 73.59"/><polygon class="cls-4" points="149.34 72.99 147.94 73.17 147.94 70.93 149.34 70.79 149.34 72.99"/><polygon class="cls-4" points="151.47 72.71 150.14 72.89 150.14 70.71 151.47 70.57 151.47 72.71"/><polygon class="cls-4" points="153.48 72.45 152.23 72.61 152.23 70.5 153.48 70.37 153.48 72.45"/><polygon class="cls-4" points="155.38 72.2 154.2 72.36 154.2 70.3 155.38 70.18 155.38 72.2"/><polygon class="cls-4" points="136.58 78.73 134.66 79.07 134.66 76.45 136.58 76.16 136.58 78.73"/><polygon class="cls-4" points="139.46 78.23 137.67 78.54 137.67 76 139.46 75.74 139.46 78.23"/><polygon class="cls-4" points="144.7 77.3 143.12 77.58 143.12 75.2 144.7 74.97 144.7 77.3"/><polygon class="cls-4" points="151.47 76.11 150.14 76.35 150.14 74.17 151.47 73.97 151.47 76.11"/><polygon class="cls-4" points="153.48 75.76 152.23 75.98 152.23 73.86 153.48 73.68 153.48 75.76"/><polygon class="cls-4" points="155.38 75.42 154.2 75.63 154.2 73.57 155.38 73.4 155.38 75.42"/><polygon class="cls-4" points="136.58 82.81 134.66 83.24 134.66 80.62 136.58 80.25 136.58 82.81"/><polygon class="cls-4" points="142.16 81.58 140.48 81.95 140.48 79.49 142.16 79.17 142.16 81.58"/><polygon class="cls-4" points="144.7 81.01 143.12 81.36 143.12 78.98 144.7 78.68 144.7 81.01"/><polygon class="cls-4" points="149.34 79.98 147.94 80.3 147.94 78.05 149.34 77.78 149.34 79.98"/><polygon class="cls-4" points="151.47 79.51 150.14 79.81 150.14 77.63 151.47 77.37 151.47 79.51"/><polygon class="cls-4" points="153.48 79.07 152.23 79.34 152.23 77.23 153.48 76.98 153.48 79.07"/><polygon class="cls-4" points="155.38 78.64 154.2 78.91 154.2 76.85 155.38 76.62 155.38 78.64"/><polygon class="cls-4" points="139.46 86.13 137.67 86.61 137.67 84.07 139.46 83.64 139.46 86.13"/><polygon class="cls-4" points="147.09 84.08 145.6 84.48 145.6 82.17 147.09 81.82 147.09 84.08"/><polygon class="cls-4" points="153.48 82.38 152.23 82.71 152.23 80.59 153.48 80.29 153.48 82.38"/><polygon class="cls-4" points="155.38 81.86 154.2 82.18 154.2 80.12 155.38 79.84 155.38 81.86"/><polygon class="cls-4" points="139.46 90.08 137.67 90.64 137.67 88.1 139.46 87.59 139.46 90.08"/><polygon class="cls-4" points="147.09 87.69 145.6 88.15 145.6 85.84 147.09 85.42 147.09 87.69"/><polygon class="cls-4" points="151.47 86.31 150.14 86.73 150.14 84.55 151.47 84.17 151.47 86.31"/><polygon class="cls-4" points="155.38 85.09 154.2 85.46 154.2 83.4 155.38 83.06 155.38 85.09"/><polygon class="cls-4" points="136.58 95.06 134.66 95.75 134.66 93.13 136.58 92.49 136.58 95.06"/><polygon class="cls-4" points="153.48 88.99 152.23 89.44 152.23 87.32 153.48 86.91 153.48 88.99"/><polygon class="cls-4" points="155.38 88.31 154.2 88.73 154.2 86.67 155.38 86.28 155.38 88.31"/><polygon class="cls-4" points="136.58 99.14 134.66 99.92 134.66 97.3 136.58 96.58 136.58 99.14"/><polygon class="cls-4" points="142.16 96.88 140.48 97.56 140.48 95.11 142.16 94.47 142.16 96.88"/><polygon class="cls-4" points="149.34 93.97 147.94 94.54 147.94 92.3 149.34 91.77 149.34 93.97"/><polygon class="cls-4" points="153.48 92.3 152.23 92.81 152.23 90.69 153.48 90.22 153.48 92.3"/><polygon class="cls-4" points="155.38 91.53 154.2 92.01 154.2 89.95 155.38 89.5 155.38 91.53"/><polygon class="cls-4" points="147.09 98.49 145.6 99.16 145.6 96.85 147.09 96.22 147.09 98.49"/><polygon class="cls-4" points="151.47 96.51 150.14 97.11 150.14 94.93 151.47 94.37 151.47 96.51"/><polygon class="cls-4" points="144.7 103.27 143.12 104.06 143.12 101.68 144.7 100.94 144.7 103.27"/><polygon class="cls-4" points="149.34 100.97 147.94 101.67 147.94 99.42 149.34 98.77 149.34 100.97"/><polygon class="cls-4" points="151.47 99.91 150.14 100.57 150.14 98.39 151.47 97.78 151.47 99.91"/><polygon class="cls-4" points="153.48 98.92 152.23 99.54 152.23 97.42 153.48 96.83 153.48 98.92"/><polygon class="cls-3" points="228.19 36.08 226.66 36.66 226.66 34.49 228.19 33.88 228.19 36.08"/><polygon class="cls-3" points="223.51 41.12 222.16 41.57 222.16 39.53 223.51 39.05 223.51 41.12"/><polygon class="cls-3" points="230.77 53.24 229.13 53.48 229.13 51.24 230.77 50.96 230.77 53.24"/><polygon class="cls-3" points="225.78 57.36 224.34 57.5 224.34 55.4 225.78 55.22 225.78 57.36"/><polygon class="cls-3" points="225.78 64.15 224.34 64.16 224.34 62.06 225.78 62.01 225.78 64.15"/><polygon class="cls-3" points="228.19 64.13 226.66 64.14 226.66 61.98 228.19 61.92 228.19 64.13"/><polygon class="cls-3" points="221.38 73.76 220.1 73.59 220.1 71.62 221.38 71.75 221.38 73.76"/><polygon class="cls-3" points="230.77 74.98 229.13 74.77 229.13 72.54 230.77 72.7 230.77 74.98"/><polygon class="cls-3" points="228.19 88.67 226.66 88.19 226.66 86.03 228.19 86.47 228.19 88.67"/><polygon class="cls-3" points="223.51 90.5 222.16 90.01 222.16 87.98 223.51 88.42 223.51 90.5"/><polygon class="cls-3" points="219.37 95.21 218.17 94.67 218.17 92.75 219.37 93.26 219.37 95.21"/><polygon class="cls-4" points="213.99 35.68 212.96 36.16 212.96 34.39 213.99 33.88 213.99 35.68"/><polygon class="cls-4" points="215.68 34.89 214.6 35.39 214.6 33.58 215.68 33.04 215.68 34.89"/><polygon class="cls-4" points="217.48 34.05 216.34 34.59 216.34 32.72 217.48 32.16 217.48 34.05"/><polygon class="cls-4" points="225.78 30.19 224.34 30.86 224.34 28.77 225.78 28.06 225.78 30.19"/><polygon class="cls-4" points="228.19 29.07 226.66 29.79 226.66 27.62 228.19 26.86 228.19 29.07"/><polygon class="cls-4" points="213.99 38.53 212.96 38.96 212.96 37.2 213.99 36.74 213.99 38.53"/><polygon class="cls-4" points="215.68 37.82 214.6 38.27 214.6 36.46 215.68 35.98 215.68 37.82"/><polygon class="cls-4" points="217.48 37.07 216.34 37.55 216.34 35.68 217.48 35.17 217.48 37.07"/><polygon class="cls-4" points="219.37 36.27 218.17 36.78 218.17 34.86 219.37 34.32 219.37 36.27"/><polygon class="cls-4" points="221.38 35.43 220.1 35.97 220.1 33.99 221.38 33.42 221.38 35.43"/><polygon class="cls-4" points="223.51 34.54 222.16 35.11 222.16 33.08 223.51 32.47 223.51 34.54"/><polygon class="cls-4" points="213.99 41.39 212.96 41.77 212.96 40.01 213.99 39.59 213.99 41.39"/><polygon class="cls-4" points="215.68 40.76 214.6 41.16 214.6 39.34 215.68 38.91 215.68 40.76"/><polygon class="cls-4" points="219.37 39.38 218.17 39.83 218.17 37.91 219.37 37.42 219.37 39.38"/><polygon class="cls-4" points="221.38 38.63 220.1 39.1 220.1 37.13 221.38 36.62 221.38 38.63"/><polygon class="cls-4" points="225.78 36.98 224.34 37.52 224.34 35.43 225.78 34.85 225.78 36.98"/><polygon class="cls-4" points="213.99 44.24 212.96 44.58 212.96 42.81 213.99 42.45 213.99 44.24"/><polygon class="cls-4" points="215.68 43.69 214.6 44.04 214.6 42.23 215.68 41.84 215.68 43.69"/><polygon class="cls-4" points="217.48 43.1 216.34 43.47 216.34 41.61 217.48 41.2 217.48 43.1"/><polygon class="cls-4" points="219.37 42.48 218.17 42.87 218.17 40.96 219.37 40.53 219.37 42.48"/><polygon class="cls-4" points="221.38 41.82 220.1 42.24 220.1 40.27 221.38 39.81 221.38 41.82"/><polygon class="cls-4" points="225.78 40.38 224.34 40.85 224.34 38.76 225.78 38.24 225.78 40.38"/><polygon class="cls-4" points="230.77 38.74 229.13 39.28 229.13 37.05 230.77 36.46 230.77 38.74"/><polygon class="cls-4" points="213.99 47.1 212.96 47.39 212.96 45.62 213.99 45.3 213.99 47.1"/><polygon class="cls-4" points="215.68 46.62 214.6 46.93 214.6 45.11 215.68 44.78 215.68 46.62"/><polygon class="cls-4" points="217.48 46.12 216.34 46.44 216.34 44.57 217.48 44.22 217.48 46.12"/><polygon class="cls-4" points="219.37 45.58 218.17 45.92 218.17 44 219.37 43.63 219.37 45.58"/><polygon class="cls-4" points="221.38 45.02 220.1 45.38 220.1 43.4 221.38 43.01 221.38 45.02"/><polygon class="cls-4" points="225.78 43.77 224.34 44.18 224.34 42.09 225.78 41.64 225.78 43.77"/><polygon class="cls-4" points="228.19 43.09 226.66 43.53 226.66 41.37 228.19 40.89 228.19 43.09"/><polygon class="cls-4" points="213.99 49.95 212.96 50.2 212.96 48.43 213.99 48.16 213.99 49.95"/><polygon class="cls-4" points="215.68 49.55 214.6 49.81 214.6 47.99 215.68 47.71 215.68 49.55"/><polygon class="cls-4" points="217.48 49.13 216.34 49.4 216.34 47.54 217.48 47.23 217.48 49.13"/><polygon class="cls-4" points="219.37 48.68 218.17 48.97 218.17 47.05 219.37 46.73 219.37 48.68"/><polygon class="cls-4" points="223.51 47.7 222.16 48.02 222.16 45.99 223.51 45.63 223.51 47.7"/><polygon class="cls-4" points="225.78 47.17 224.34 47.51 224.34 45.42 225.78 45.03 225.78 47.17"/><polygon class="cls-4" points="213.99 52.81 212.96 53.01 212.96 51.24 213.99 51.01 213.99 52.81"/><polygon class="cls-4" points="215.68 52.49 214.6 52.69 214.6 50.88 215.68 50.64 215.68 52.49"/><polygon class="cls-4" points="219.37 51.78 218.17 52.02 218.17 50.1 219.37 49.83 219.37 51.78"/><polygon class="cls-4" points="223.51 51 222.16 51.26 222.16 49.22 223.51 48.93 223.51 51"/><polygon class="cls-4" points="228.19 50.11 226.66 50.4 226.66 48.24 228.19 47.9 228.19 50.11"/><polygon class="cls-4" points="230.77 49.62 229.13 49.93 229.13 47.7 230.77 47.34 230.77 49.62"/><polygon class="cls-4" points="213.99 55.67 212.96 55.81 212.96 54.05 213.99 53.87 213.99 55.67"/><polygon class="cls-4" points="215.68 55.42 214.6 55.58 214.6 53.76 215.68 53.58 215.68 55.42"/><polygon class="cls-4" points="217.48 55.16 216.34 55.33 216.34 53.46 217.48 53.26 217.48 55.16"/><polygon class="cls-4" points="219.37 54.89 218.17 55.06 218.17 53.14 219.37 52.94 219.37 54.89"/><polygon class="cls-4" points="221.38 54.6 220.1 54.78 220.1 52.81 221.38 52.59 221.38 54.6"/><polygon class="cls-4" points="223.51 54.29 222.16 54.48 222.16 52.45 223.51 52.22 223.51 54.29"/><polygon class="cls-4" points="213.99 58.52 212.96 58.62 212.96 56.85 213.99 56.73 213.99 58.52"/><polygon class="cls-4" points="215.68 58.35 214.6 58.46 214.6 56.65 215.68 56.51 215.68 58.35"/><polygon class="cls-4" points="217.48 58.18 216.34 58.29 216.34 56.42 217.48 56.28 217.48 58.18"/><polygon class="cls-4" points="219.37 57.99 218.17 58.11 218.17 56.19 219.37 56.04 219.37 57.99"/><polygon class="cls-4" points="221.38 57.79 220.1 57.92 220.1 55.94 221.38 55.78 221.38 57.79"/><polygon class="cls-4" points="230.77 56.86 229.13 57.02 229.13 54.79 230.77 54.58 230.77 56.86"/><polygon class="cls-4" points="213.99 61.38 212.96 61.43 212.96 59.66 213.99 59.58 213.99 61.38"/><polygon class="cls-4" points="215.68 61.29 214.6 61.34 214.6 59.53 215.68 59.44 215.68 61.29"/><polygon class="cls-4" points="217.48 61.19 216.34 61.25 216.34 59.39 217.48 59.29 217.48 61.19"/><polygon class="cls-4" points="221.38 60.98 220.1 61.05 220.1 59.08 221.38 58.98 221.38 60.98"/><polygon class="cls-4" points="223.51 60.87 222.16 60.94 222.16 58.91 223.51 58.8 223.51 60.87"/><polygon class="cls-4" points="230.77 60.49 229.13 60.57 229.13 58.34 230.77 58.21 230.77 60.49"/><polygon class="cls-4" points="213.99 64.23 212.96 64.24 212.96 62.47 213.99 62.44 213.99 64.23"/><polygon class="cls-4" points="215.68 64.22 214.6 64.23 214.6 62.41 215.68 62.37 215.68 64.22"/><polygon class="cls-4" points="217.48 64.21 216.34 64.22 216.34 62.35 217.48 62.31 217.48 64.21"/><polygon class="cls-4" points="221.38 64.18 220.1 64.19 220.1 62.22 221.38 62.17 221.38 64.18"/><polygon class="cls-4" points="230.77 64.11 229.13 64.12 229.13 61.89 230.77 61.83 230.77 64.11"/><polygon class="cls-4" points="213.99 67.09 212.96 67.05 212.96 65.28 213.99 65.29 213.99 67.09"/><polygon class="cls-4" points="215.68 67.15 214.6 67.11 214.6 65.3 215.68 65.31 215.68 67.15"/><polygon class="cls-4" points="217.48 67.22 216.34 67.18 216.34 65.31 217.48 65.33 217.48 67.22"/><polygon class="cls-4" points="219.37 67.3 218.17 67.25 218.17 65.33 219.37 65.34 219.37 67.3"/><polygon class="cls-4" points="223.51 67.45 222.16 67.4 222.16 65.37 223.51 65.38 223.51 67.45"/><polygon class="cls-4" points="230.77 67.73 229.13 67.67 229.13 65.44 230.77 65.45 230.77 67.73"/><polygon class="cls-4" points="213.99 69.94 212.96 69.86 212.96 68.09 213.99 68.15 213.99 69.94"/><polygon class="cls-4" points="215.68 70.09 214.6 70 214.6 68.18 215.68 68.24 215.68 70.09"/><polygon class="cls-4" points="217.48 70.24 216.34 70.14 216.34 68.28 217.48 68.34 217.48 70.24"/><polygon class="cls-4" points="219.37 70.4 218.17 70.3 218.17 68.38 219.37 68.44 219.37 70.4"/><polygon class="cls-4" points="221.38 70.57 220.1 70.46 220.1 68.49 221.38 68.56 221.38 70.57"/><polygon class="cls-4" points="225.78 70.94 224.34 70.82 224.34 68.72 225.78 68.8 225.78 70.94"/><polygon class="cls-4" points="230.77 71.36 229.13 71.22 229.13 68.99 230.77 69.08 230.77 71.36"/><polygon class="cls-4" points="213.99 72.8 212.96 72.67 212.96 70.9 213.99 71 213.99 72.8"/><polygon class="cls-4" points="215.68 73.02 214.6 72.88 214.6 71.06 215.68 71.17 215.68 73.02"/><polygon class="cls-4" points="217.48 73.25 216.34 73.1 216.34 71.24 217.48 71.36 217.48 73.25"/><polygon class="cls-4" points="223.51 74.04 222.16 73.86 222.16 71.83 223.51 71.97 223.51 74.04"/><polygon class="cls-4" points="225.78 74.33 224.34 74.14 224.34 72.05 225.78 72.2 225.78 74.33"/><polygon class="cls-4" points="213.99 75.65 212.96 75.47 212.96 73.71 213.99 73.86 213.99 75.65"/><polygon class="cls-4" points="215.68 75.95 214.6 75.76 214.6 73.95 215.68 74.11 215.68 75.95"/><polygon class="cls-4" points="217.48 76.27 216.34 76.07 216.34 74.2 217.48 74.37 217.48 76.27"/><polygon class="cls-4" points="219.37 76.6 218.17 76.39 218.17 74.47 219.37 74.65 219.37 76.6"/><polygon class="cls-4" points="221.38 76.95 220.1 76.73 220.1 74.76 221.38 74.94 221.38 76.95"/><polygon class="cls-4" points="228.19 78.15 226.66 77.88 226.66 75.72 228.19 75.95 228.19 78.15"/><polygon class="cls-4" points="230.77 78.61 229.13 78.32 229.13 76.08 230.77 76.33 230.77 78.61"/><polygon class="cls-4" points="213.99 78.51 212.96 78.28 212.96 76.51 213.99 76.71 213.99 78.51"/><polygon class="cls-4" points="215.68 78.89 214.6 78.65 214.6 76.83 215.68 77.04 215.68 78.89"/><polygon class="cls-4" points="221.38 80.15 220.1 79.86 220.1 77.89 221.38 78.14 221.38 80.15"/><polygon class="cls-4" points="223.51 80.62 222.16 80.32 222.16 78.29 223.51 78.55 223.51 80.62"/><polygon class="cls-4" points="225.78 81.12 224.34 80.8 224.34 78.71 225.78 78.99 225.78 81.12"/><polygon class="cls-4" points="230.77 82.23 229.13 81.87 229.13 79.63 230.77 79.95 230.77 82.23"/><polygon class="cls-4" points="213.99 81.36 212.96 81.09 212.96 79.32 213.99 79.57 213.99 81.36"/><polygon class="cls-4" points="215.68 81.82 214.6 81.53 214.6 79.72 215.68 79.97 215.68 81.82"/><polygon class="cls-4" points="217.48 82.3 216.34 81.99 216.34 80.13 217.48 80.4 217.48 82.3"/><polygon class="cls-4" points="221.38 83.34 220.1 83 220.1 81.03 221.38 81.33 221.38 83.34"/><polygon class="cls-4" points="230.77 85.85 229.13 85.42 229.13 83.18 230.77 83.57 230.77 85.85"/><polygon class="cls-4" points="213.99 84.22 212.96 83.9 212.96 82.13 213.99 82.42 213.99 84.22"/><polygon class="cls-4" points="215.68 84.75 214.6 84.41 214.6 82.6 215.68 82.91 215.68 84.75"/><polygon class="cls-4" points="217.48 85.31 216.34 84.96 216.34 83.09 217.48 83.42 217.48 85.31"/><polygon class="cls-4" points="219.37 85.91 218.17 85.53 218.17 83.61 219.37 83.95 219.37 85.91"/><polygon class="cls-4" points="221.38 86.54 220.1 86.14 220.1 84.16 221.38 84.53 221.38 86.54"/><polygon class="cls-4" points="213.99 87.07 212.96 86.71 212.96 84.94 213.99 85.28 213.99 87.07"/><polygon class="cls-4" points="215.68 87.68 214.6 87.3 214.6 85.48 215.68 85.84 215.68 87.68"/><polygon class="cls-4" points="217.48 88.33 216.34 87.92 216.34 86.05 217.48 86.43 217.48 88.33"/><polygon class="cls-4" points="219.37 89.01 218.17 88.58 218.17 86.66 219.37 87.06 219.37 89.01"/><polygon class="cls-4" points="230.77 93.1 229.13 92.51 229.13 90.28 230.77 90.82 230.77 93.1"/><polygon class="cls-4" points="213.99 89.93 212.96 89.52 212.96 87.75 213.99 88.13 213.99 89.93"/><polygon class="cls-4" points="215.68 90.62 214.6 90.18 214.6 88.37 215.68 88.77 215.68 90.62"/><polygon class="cls-4" points="217.48 91.34 216.34 90.88 216.34 89.02 217.48 89.45 217.48 91.34"/><polygon class="cls-4" points="215.68 93.55 214.6 93.06 214.6 91.25 215.68 91.7 215.68 93.55"/><polygon class="cls-4" points="230.77 100.35 229.13 99.61 229.13 97.38 230.77 98.07 230.77 100.35"/><polygon class="cls-4" points="213.99 95.64 212.96 95.13 212.96 93.36 213.99 93.84 213.99 95.64"/><polygon class="cls-4" points="217.48 97.37 216.34 96.81 216.34 94.94 217.48 95.48 217.48 97.37"/><polygon class="cls-4" points="223.51 100.37 222.16 99.7 222.16 97.67 223.51 98.3 223.51 100.37"/><polygon class="cls-4" points="225.78 101.5 224.34 100.78 224.34 98.69 225.78 99.36 225.78 101.5"/><polygon class="cls-4" points="230.77 103.97 229.13 103.16 229.13 100.93 230.77 101.69 230.77 103.97"/><polygon class="cls-3" points="250.21 35.83 249.16 35.34 249.16 33.53 250.21 34.04 250.21 35.83"/><polygon class="cls-3" points="240.78 41.26 239.39 40.81 239.39 38.71 240.78 39.2 240.78 41.26"/><polygon class="cls-3" points="233.62 56.91 231.93 56.75 231.93 54.43 233.62 54.65 233.62 56.91"/><polygon class="cls-3" points="240.78 60.9 239.39 60.82 239.39 58.72 240.78 58.84 240.78 60.9"/><polygon class="cls-3" points="250.21 67.08 249.16 67.11 249.16 65.3 250.21 65.29 250.21 67.08"/><polygon class="cls-3" points="242.89 76.88 241.58 77.11 241.58 75.08 242.89 74.89 242.89 76.88"/><polygon class="cls-4" points="233.62 28.11 231.93 27.33 231.93 25.02 233.62 25.85 233.62 28.11"/><polygon class="cls-4" points="236.16 29.3 234.58 28.56 234.58 26.33 236.16 27.11 236.16 29.3"/><polygon class="cls-4" points="238.55 30.41 237.06 29.72 237.06 27.55 238.55 28.28 238.55 30.41"/><polygon class="cls-4" points="242.89 32.43 241.58 31.82 241.58 29.78 242.89 30.43 242.89 32.43"/><polygon class="cls-4" points="244.88 33.35 243.64 32.78 243.64 30.8 244.88 31.41 244.88 33.35"/><polygon class="cls-4" points="248.53 35.05 247.42 34.53 247.42 32.67 248.53 33.21 248.53 35.05"/><polygon class="cls-4" points="233.62 31.71 231.93 31.01 231.93 28.69 233.62 29.45 233.62 31.71"/><polygon class="cls-4" points="240.78 34.72 239.39 34.14 239.39 32.04 240.78 32.66 240.78 34.72"/><polygon class="cls-4" points="244.88 36.44 243.64 35.92 243.64 33.94 244.88 34.49 244.88 36.44"/><polygon class="cls-4" points="246.75 37.22 245.58 36.73 245.58 34.81 246.75 35.34 246.75 37.22"/><polygon class="cls-4" points="250.21 38.67 249.16 38.23 249.16 36.41 250.21 36.88 250.21 38.67"/><polygon class="cls-4" points="233.62 35.31 231.93 34.68 231.93 32.37 233.62 33.05 233.62 35.31"/><polygon class="cls-4" points="240.78 37.99 239.39 37.47 239.39 35.37 240.78 35.93 240.78 37.99"/><polygon class="cls-4" points="242.89 38.78 241.58 38.29 241.58 36.25 242.89 36.78 242.89 38.78"/><polygon class="cls-4" points="246.75 40.22 245.58 39.78 245.58 37.86 246.75 38.33 246.75 40.22"/><polygon class="cls-4" points="250.21 41.51 249.16 41.12 249.16 39.3 250.21 39.72 250.21 41.51"/><polygon class="cls-4" points="233.62 38.91 231.93 38.36 231.93 36.05 233.62 36.65 233.62 38.91"/><polygon class="cls-4" points="236.16 39.75 234.58 39.23 234.58 36.99 236.16 37.56 236.16 39.75"/><polygon class="cls-4" points="242.89 41.95 241.58 41.52 241.58 39.49 242.89 39.96 242.89 41.95"/><polygon class="cls-4" points="244.88 42.6 243.64 42.2 243.64 40.22 244.88 40.66 244.88 42.6"/><polygon class="cls-4" points="246.75 43.22 245.58 42.84 245.58 40.92 246.75 41.33 246.75 43.22"/><polygon class="cls-4" points="250.21 44.35 249.16 44.01 249.16 42.19 250.21 42.56 250.21 44.35"/><polygon class="cls-4" points="233.62 42.52 231.93 42.04 231.93 39.73 233.62 40.25 233.62 42.52"/><polygon class="cls-4" points="236.16 43.23 234.58 42.79 234.58 40.55 236.16 41.04 236.16 43.23"/><polygon class="cls-4" points="238.55 43.9 237.06 43.49 237.06 41.32 238.55 41.78 238.55 43.9"/><polygon class="cls-4" points="242.89 45.13 241.58 44.76 241.58 42.72 242.89 43.13 242.89 45.13"/><polygon class="cls-4" points="246.75 46.22 245.58 45.89 245.58 43.97 246.75 44.33 246.75 46.22"/><polygon class="cls-4" points="248.53 46.72 247.42 46.41 247.42 44.54 248.53 44.88 248.53 46.72"/><polygon class="cls-4" points="250.21 47.19 249.16 46.9 249.16 45.08 250.21 45.41 250.21 47.19"/><polygon class="cls-4" points="233.62 46.12 231.93 45.72 231.93 43.4 233.62 43.85 233.62 46.12"/><polygon class="cls-4" points="240.78 47.81 239.39 47.48 239.39 45.38 240.78 45.75 240.78 47.81"/><polygon class="cls-4" points="242.89 48.3 241.58 47.99 241.58 45.96 242.89 46.31 242.89 48.3"/><polygon class="cls-4" points="244.88 48.77 243.64 48.48 243.64 46.51 244.88 46.83 244.88 48.77"/><polygon class="cls-4" points="250.21 50.03 249.16 49.78 249.16 47.97 250.21 48.24 250.21 50.03"/><polygon class="cls-4" points="233.62 49.72 231.93 49.39 231.93 47.08 233.62 47.45 233.62 49.72"/><polygon class="cls-4" points="236.16 50.2 234.58 49.9 234.58 47.66 236.16 48.01 236.16 50.2"/><polygon class="cls-4" points="238.55 50.65 237.06 50.37 237.06 48.2 238.55 48.53 238.55 50.65"/><polygon class="cls-4" points="240.78 51.08 239.39 50.81 239.39 48.72 240.78 49.02 240.78 51.08"/><polygon class="cls-4" points="244.88 51.86 243.64 51.62 243.64 49.65 244.88 49.92 244.88 51.86"/><polygon class="cls-4" points="246.75 52.22 245.58 51.99 245.58 50.07 246.75 50.33 246.75 52.22"/><polygon class="cls-4" points="248.53 52.55 247.42 52.34 247.42 50.48 248.53 50.72 248.53 52.55"/><polygon class="cls-4" points="250.21 52.87 249.16 52.67 249.16 50.86 250.21 51.09 250.21 52.87"/><polygon class="cls-4" points="236.16 53.68 234.58 53.45 234.58 51.22 236.16 51.49 236.16 53.68"/><polygon class="cls-4" points="238.55 54.03 237.06 53.81 237.06 51.65 238.55 51.9 238.55 54.03"/><polygon class="cls-4" points="242.89 54.66 241.58 54.47 241.58 52.43 242.89 52.66 242.89 54.66"/><polygon class="cls-4" points="244.88 54.94 243.64 54.76 243.64 52.79 244.88 53 244.88 54.94"/><polygon class="cls-4" points="250.21 55.71 249.16 55.56 249.16 53.74 250.21 53.93 250.21 55.71"/><polygon class="cls-4" points="236.16 57.17 234.58 57.01 234.58 54.77 236.16 54.97 236.16 57.17"/><polygon class="cls-4" points="238.55 57.4 237.06 57.26 237.06 55.09 238.55 55.28 238.55 57.4"/><polygon class="cls-4" points="244.88 58.03 243.64 57.91 243.64 55.93 244.88 56.09 244.88 58.03"/><polygon class="cls-4" points="246.75 58.21 245.58 58.1 245.58 56.18 246.75 56.33 246.75 58.21"/><polygon class="cls-4" points="248.53 58.39 247.42 58.28 247.42 56.41 248.53 56.55 248.53 58.39"/><polygon class="cls-4" points="250.21 58.55 249.16 58.45 249.16 56.63 250.21 56.77 250.21 58.55"/><polygon class="cls-4" points="233.62 60.52 231.93 60.42 231.93 58.11 233.62 58.25 233.62 60.52"/><polygon class="cls-4" points="242.89 61.01 241.58 60.94 241.58 58.9 242.89 59.01 242.89 61.01"/><polygon class="cls-4" points="246.75 61.21 245.58 61.15 245.58 59.23 246.75 59.32 246.75 61.21"/><polygon class="cls-4" points="248.53 61.3 247.42 61.25 247.42 59.38 248.53 59.47 248.53 61.3"/><polygon class="cls-4" points="250.21 61.39 249.16 61.34 249.16 59.52 250.21 59.61 250.21 61.39"/><polygon class="cls-4" points="236.16 64.13 234.58 64.12 234.58 61.88 236.16 61.94 236.16 64.13"/><polygon class="cls-4" points="238.55 64.15 237.06 64.14 237.06 61.97 238.55 62.03 238.55 64.15"/><polygon class="cls-4" points="242.89 64.18 241.58 64.17 241.58 62.14 242.89 62.18 242.89 64.18"/><polygon class="cls-4" points="244.88 64.2 243.64 64.19 243.64 62.21 244.88 62.26 244.88 64.2"/><polygon class="cls-4" points="250.21 64.23 249.16 64.23 249.16 62.41 250.21 62.45 250.21 64.23"/><polygon class="cls-4" points="233.62 67.72 231.93 67.78 231.93 65.47 233.62 65.45 233.62 67.72"/><polygon class="cls-4" points="236.16 67.62 234.58 67.68 234.58 65.44 236.16 65.42 236.16 67.62"/><polygon class="cls-4" points="238.55 67.53 237.06 67.58 237.06 65.42 238.55 65.4 238.55 67.53"/><polygon class="cls-4" points="240.78 67.44 239.39 67.49 239.39 65.39 240.78 65.38 240.78 67.44"/><polygon class="cls-4" points="244.88 67.28 243.64 67.33 243.64 65.35 244.88 65.34 244.88 67.28"/><polygon class="cls-4" points="248.53 67.14 247.42 67.18 247.42 65.31 248.53 65.3 248.53 67.14"/><polygon class="cls-4" points="233.62 71.31 231.93 71.46 231.93 69.14 233.62 69.05 233.62 71.31"/><polygon class="cls-4" points="240.78 70.71 239.39 70.83 239.39 68.73 240.78 68.65 240.78 70.71"/><polygon class="cls-4" points="242.89 70.53 241.58 70.64 241.58 68.61 242.89 68.53 242.89 70.53"/><polygon class="cls-4" points="244.88 70.36 243.64 70.47 243.64 68.49 244.88 68.42 244.88 70.36"/><polygon class="cls-4" points="246.75 70.21 245.58 70.31 245.58 68.39 246.75 68.32 246.75 70.21"/><polygon class="cls-4" points="250.21 69.92 249.16 70 249.16 68.19 250.21 68.13 250.21 69.92"/><polygon class="cls-4" points="233.62 74.92 231.93 75.13 231.93 72.82 233.62 72.65 233.62 74.92"/><polygon class="cls-4" points="238.55 74.27 237.06 74.47 237.06 72.3 238.55 72.15 238.55 74.27"/><polygon class="cls-4" points="240.78 73.98 239.39 74.16 239.39 72.06 240.78 71.92 240.78 73.98"/><polygon class="cls-4" points="244.88 73.45 243.64 73.61 243.64 71.63 244.88 71.51 244.88 73.45"/><polygon class="cls-4" points="246.75 73.2 245.58 73.36 245.58 71.44 246.75 71.32 246.75 73.2"/><polygon class="cls-4" points="248.53 72.97 247.42 73.12 247.42 71.25 248.53 71.14 248.53 72.97"/><polygon class="cls-4" points="250.21 72.75 249.16 72.89 249.16 71.07 250.21 70.97 250.21 72.75"/><polygon class="cls-4" points="233.62 78.52 231.93 78.81 231.93 76.5 233.62 76.25 233.62 78.52"/><polygon class="cls-4" points="236.16 78.07 234.58 78.34 234.58 76.11 236.16 75.88 236.16 78.07"/><polygon class="cls-4" points="240.78 77.25 239.39 77.5 239.39 75.4 240.78 75.19 240.78 77.25"/><polygon class="cls-4" points="246.75 76.2 245.58 76.41 245.58 74.49 246.75 74.32 246.75 76.2"/><polygon class="cls-4" points="248.53 75.89 247.42 76.09 247.42 74.22 248.53 74.06 248.53 75.89"/><polygon class="cls-4" points="250.21 75.6 249.16 75.78 249.16 73.96 250.21 73.81 250.21 75.6"/><polygon class="cls-4" points="233.62 82.11 231.93 82.49 231.93 80.17 233.62 79.85 233.62 82.11"/><polygon class="cls-4" points="238.55 81.02 237.06 81.35 237.06 79.19 238.55 78.9 238.55 81.02"/><polygon class="cls-4" points="240.78 80.53 239.39 80.83 239.39 78.74 240.78 78.47 240.78 80.53"/><polygon class="cls-4" points="244.88 79.62 243.64 79.89 243.64 77.92 244.88 77.68 244.88 79.62"/><polygon class="cls-4" points="246.75 79.2 245.58 79.46 245.58 77.54 246.75 77.31 246.75 79.2"/><polygon class="cls-4" points="248.53 78.81 247.42 79.05 247.42 77.19 248.53 76.97 248.53 78.81"/><polygon class="cls-4" points="250.21 78.44 249.16 78.67 249.16 76.85 250.21 76.65 250.21 78.44"/><polygon class="cls-4" points="236.16 85.03 234.58 85.46 234.58 83.22 236.16 82.84 236.16 85.03"/><polygon class="cls-4" points="242.89 83.23 241.58 83.58 241.58 81.55 242.89 81.24 242.89 83.23"/><polygon class="cls-4" points="248.53 81.73 247.42 82.02 247.42 80.15 248.53 79.89 248.53 81.73"/><polygon class="cls-4" points="250.21 81.28 249.16 81.56 249.16 79.74 250.21 79.49 250.21 81.28"/><polygon class="cls-4" points="236.16 88.52 234.58 89.01 234.58 86.78 236.16 86.33 236.16 88.52"/><polygon class="cls-4" points="242.89 86.41 241.58 86.82 241.58 84.78 242.89 84.41 242.89 86.41"/><polygon class="cls-4" points="246.75 85.2 245.58 85.56 245.58 83.64 246.75 83.31 246.75 85.2"/><polygon class="cls-4" points="250.21 84.12 249.16 84.44 249.16 82.63 250.21 82.33 250.21 84.12"/><polygon class="cls-4" points="233.62 92.91 231.93 93.52 231.93 91.21 233.62 90.65 233.62 92.91"/><polygon class="cls-4" points="248.53 87.56 247.42 87.96 247.42 86.09 248.53 85.72 248.53 87.56"/><polygon class="cls-4" points="250.21 86.96 249.16 87.33 249.16 85.52 250.21 85.17 250.21 86.96"/><polygon class="cls-4" points="233.62 96.51 231.93 97.2 231.93 94.88 233.62 94.25 233.62 96.51"/><polygon class="cls-4" points="238.55 94.52 237.06 95.12 237.06 92.95 238.55 92.4 238.55 94.52"/><polygon class="cls-4" points="244.88 91.96 243.64 92.46 243.64 90.48 244.88 90.02 244.88 91.96"/><polygon class="cls-4" points="248.53 90.48 247.42 90.93 247.42 89.06 248.53 88.64 248.53 90.48"/><polygon class="cls-4" points="250.21 89.8 249.16 90.22 249.16 88.4 250.21 88.01 250.21 89.8"/><polygon class="cls-4" points="242.89 95.94 241.58 96.53 241.58 94.49 242.89 93.94 242.89 95.94"/><polygon class="cls-4" points="246.75 94.19 245.58 94.72 245.58 92.8 246.75 92.31 246.75 94.19"/><polygon class="cls-4" points="240.78 100.16 239.39 100.85 239.39 98.75 240.78 98.1 240.78 100.16"/><polygon class="cls-4" points="244.88 98.13 243.64 98.74 243.64 96.76 244.88 96.18 244.88 98.13"/><polygon class="cls-4" points="246.75 97.19 245.58 97.77 245.58 95.85 246.75 95.31 246.75 97.19"/><polygon class="cls-4" points="248.53 96.31 247.42 96.86 247.42 94.99 248.53 94.48 248.53 96.31"/><polygon class="cls-3" points="166.92 24.88 164.83 25.66 164.83 22.33 166.92 21.49 166.92 24.88"/><polygon class="cls-3" points="163.63 36.55 161.66 37.1 161.66 33.87 163.63 33.26 163.63 36.55"/><polygon class="cls-3" points="163.63 41.77 161.66 42.24 161.66 39.01 163.63 38.48 163.63 41.77"/><polygon class="cls-3" points="182.19 43.46 179.53 43.97 179.53 40.22 182.19 39.64 182.19 43.46"/><polygon class="cls-3" points="166.92 57.11 164.83 57.32 164.83 54 166.92 53.73 166.92 57.11"/><polygon class="cls-3" points="163.63 73.11 161.66 73.03 161.66 69.8 163.63 69.82 163.63 73.11"/><polygon class="cls-3" points="182.19 73.82 179.53 73.72 179.53 69.97 182.19 70 182.19 73.82"/><polygon class="cls-3" points="163.63 83.55 161.66 83.29 161.66 80.06 163.63 80.27 163.63 83.55"/><polygon class="cls-3" points="182.19 85.97 179.53 85.62 179.53 81.88 182.19 82.15 182.19 85.97"/><polygon class="cls-3" points="182.19 98.11 179.53 97.52 179.53 93.78 182.19 94.29 182.19 98.11"/><polygon class="cls-3" points="163.63 109.66 161.66 108.95 161.66 105.73 163.63 106.38 163.63 109.66"/><polygon class="cls-4" points="160.53 17.1 158.66 17.97 158.66 14.83 160.53 13.9 160.53 17.1"/><polygon class="cls-4" points="166.92 14.13 164.83 15.1 164.83 11.78 166.92 10.75 166.92 14.13"/><polygon class="cls-4" points="174.09 10.79 171.74 11.88 171.74 8.37 174.09 7.21 174.09 10.79"/><polygon class="cls-4" points="178.01 8.97 175.52 10.13 175.52 6.5 178.01 5.27 178.01 8.97"/><polygon class="cls-4" points="157.59 23.41 155.82 24.16 155.82 21.1 157.59 20.3 157.59 23.41"/><polygon class="cls-4" points="160.53 22.18 158.66 22.96 158.66 19.82 160.53 18.98 160.53 22.18"/><polygon class="cls-4" points="166.92 19.5 164.83 20.38 164.83 17.06 166.92 16.12 166.92 19.5"/><polygon class="cls-4" points="174.09 16.49 171.74 17.48 171.74 13.96 174.09 12.91 174.09 16.49"/><polygon class="cls-4" points="178.01 14.85 175.52 15.9 175.52 12.27 178.01 11.15 178.01 14.85"/><polygon class="cls-4" points="182.19 13.1 179.53 14.21 179.53 10.47 182.19 9.27 182.19 13.1"/><polygon class="cls-4" points="186.66 11.22 183.81 12.42 183.81 8.55 186.66 7.27 186.66 11.22"/><polygon class="cls-4" points="157.59 28.36 155.82 29.02 155.82 25.96 157.59 25.25 157.59 28.36"/><polygon class="cls-4" points="160.53 27.26 158.66 27.96 158.66 24.82 160.53 24.07 160.53 27.26"/><polygon class="cls-4" points="163.63 26.1 161.66 26.84 161.66 23.61 163.63 22.82 163.63 26.1"/><polygon class="cls-4" points="170.4 23.57 168.19 24.4 168.19 20.98 170.4 20.09 170.4 23.57"/><polygon class="cls-4" points="174.09 22.2 171.74 23.07 171.74 19.55 174.09 18.61 174.09 22.2"/><polygon class="cls-4" points="182.19 19.17 179.53 20.16 179.53 16.42 182.19 15.35 182.19 19.17"/><polygon class="cls-4" points="186.66 17.5 183.81 18.56 183.81 14.7 186.66 13.55 186.66 17.5"/><polygon class="cls-4" points="157.59 33.31 155.82 33.89 155.82 30.83 157.59 30.2 157.59 33.31"/><polygon class="cls-4" points="160.53 32.34 158.66 32.95 158.66 29.81 160.53 29.15 160.53 32.34"/><polygon class="cls-4" points="163.63 31.32 161.66 31.97 161.66 28.74 163.63 28.04 163.63 31.32"/><polygon class="cls-4" points="170.4 29.11 168.19 29.83 168.19 26.41 170.4 25.63 170.4 29.11"/><polygon class="cls-4" points="174.09 27.9 171.74 28.67 171.74 25.15 174.09 24.31 174.09 27.9"/><polygon class="cls-4" points="178.01 26.61 175.52 27.43 175.52 23.8 178.01 22.91 178.01 26.61"/><polygon class="cls-4" points="182.19 25.24 179.53 26.11 179.53 22.37 182.19 21.42 182.19 25.24"/><polygon class="cls-4" points="157.59 38.25 155.82 38.75 155.82 35.69 157.59 35.14 157.59 38.25"/><polygon class="cls-4" points="160.53 37.42 158.66 37.95 158.66 34.81 160.53 34.23 160.53 37.42"/><polygon class="cls-4" points="166.92 35.62 164.83 36.21 164.83 32.89 166.92 32.24 166.92 35.62"/><polygon class="cls-4" points="170.4 34.64 168.19 35.26 168.19 31.85 170.4 31.16 170.4 34.64"/><polygon class="cls-4" points="178.01 32.49 175.52 33.2 175.52 29.57 178.01 28.79 178.01 32.49"/><polygon class="cls-4" points="186.66 30.05 183.81 30.86 183.81 26.99 186.66 26.11 186.66 30.05"/><polygon class="cls-4" points="157.59 43.2 155.82 43.62 155.82 40.55 157.59 40.09 157.59 43.2"/><polygon class="cls-4" points="160.53 42.5 158.66 42.95 158.66 39.8 160.53 39.31 160.53 42.5"/><polygon class="cls-4" points="166.92 40.99 164.83 41.49 164.83 38.17 166.92 37.61 166.92 40.99"/><polygon class="cls-4" points="170.4 40.17 168.19 40.7 168.19 37.28 170.4 36.69 170.4 40.17"/><polygon class="cls-4" points="174.09 39.3 171.74 39.85 171.74 36.34 174.09 35.71 174.09 39.3"/><polygon class="cls-4" points="178.01 38.37 175.52 38.96 175.52 35.34 178.01 34.67 178.01 38.37"/><polygon class="cls-4" points="186.66 36.33 183.81 37 183.81 33.13 186.66 32.38 186.66 36.33"/><polygon class="cls-4" points="157.59 48.14 155.82 48.48 155.82 45.42 157.59 45.03 157.59 48.14"/><polygon class="cls-4" points="160.53 47.58 158.66 47.94 158.66 44.8 160.53 44.39 160.53 47.58"/><polygon class="cls-4" points="166.92 46.37 164.83 46.77 164.83 43.44 166.92 42.99 166.92 46.37"/><polygon class="cls-4" points="170.4 45.7 168.19 46.13 168.19 42.71 170.4 42.22 170.4 45.7"/><polygon class="cls-4" points="178.01 44.25 175.52 44.73 175.52 41.1 178.01 40.55 178.01 44.25"/><polygon class="cls-4" points="186.66 42.61 183.81 43.15 183.81 39.28 186.66 38.66 186.66 42.61"/><polygon class="cls-4" points="157.59 53.09 155.82 53.34 155.82 50.28 157.59 49.98 157.59 53.09"/><polygon class="cls-4" points="160.53 52.66 158.66 52.93 158.66 49.79 160.53 49.47 160.53 52.66"/><polygon class="cls-4" points="163.63 52.22 161.66 52.5 161.66 49.27 163.63 48.93 163.63 52.22"/><polygon class="cls-4" points="166.92 51.74 164.83 52.04 164.83 48.72 166.92 48.36 166.92 51.74"/><polygon class="cls-4" points="170.4 51.24 168.19 51.56 168.19 48.14 170.4 47.76 170.4 51.24"/><polygon class="cls-4" points="174.09 50.7 171.74 51.04 171.74 47.52 174.09 47.12 174.09 50.7"/><polygon class="cls-4" points="178.01 50.14 175.52 50.5 175.52 46.87 178.01 46.44 178.01 50.14"/><polygon class="cls-4" points="186.66 48.89 183.81 49.3 183.81 45.43 186.66 44.94 186.66 48.89"/><polygon class="cls-4" points="157.59 58.03 155.82 58.21 155.82 55.15 157.59 54.92 157.59 58.03"/><polygon class="cls-4" points="160.53 57.74 158.66 57.93 158.66 54.79 160.53 54.55 160.53 57.74"/><polygon class="cls-4" points="163.63 57.44 161.66 57.63 161.66 54.4 163.63 54.15 163.63 57.44"/><polygon class="cls-4" points="170.4 56.77 168.19 56.99 168.19 53.57 170.4 53.29 170.4 56.77"/><polygon class="cls-4" points="174.09 56.41 171.74 56.64 171.74 53.12 174.09 52.82 174.09 56.41"/><polygon class="cls-4" points="178.01 56.02 175.52 56.26 175.52 52.63 178.01 52.32 178.01 56.02"/><polygon class="cls-4" points="182.16 55.6 179.5 55.87 179.5 52.12 182.16 51.78 182.16 55.6"/><polygon class="cls-4" points="186.66 55.16 183.81 55.44 183.81 51.58 186.66 51.21 186.66 55.16"/><polygon class="cls-4" points="157.59 62.98 155.82 63.08 155.82 60.01 157.59 59.87 157.59 62.98"/><polygon class="cls-4" points="163.63 62.66 161.66 62.77 161.66 59.54 163.63 59.37 163.63 62.66"/><polygon class="cls-4" points="166.92 62.49 164.83 62.6 164.83 59.28 166.92 59.1 166.92 62.49"/><polygon class="cls-4" points="170.4 62.3 168.19 62.42 168.19 59 170.4 58.82 170.4 62.3"/><polygon class="cls-4" points="174.09 62.11 171.74 62.23 171.74 58.71 174.09 58.52 174.09 62.11"/><polygon class="cls-4" points="178.01 61.9 175.52 62.03 175.52 58.4 178.01 58.2 178.01 61.9"/><polygon class="cls-4" points="182.19 61.68 179.53 61.82 179.53 58.07 182.19 57.85 182.19 61.68"/><polygon class="cls-4" points="186.66 61.44 183.81 61.59 183.81 57.72 186.66 57.49 186.66 61.44"/><polygon class="cls-4" points="157.59 67.93 155.82 67.94 155.82 64.88 157.59 64.81 157.59 67.93"/><polygon class="cls-4" points="160.53 67.91 158.66 67.92 158.66 64.78 160.53 64.71 160.53 67.91"/><polygon class="cls-4" points="163.63 67.88 161.66 67.9 161.66 64.67 163.63 64.6 163.63 67.88"/><polygon class="cls-4" points="170.4 67.83 168.19 67.85 168.19 64.43 170.4 64.35 170.4 67.83"/><polygon class="cls-4" points="178.01 67.78 175.52 67.8 175.52 64.17 178.01 64.08 178.01 67.78"/><polygon class="cls-4" points="182.19 67.75 179.53 67.77 179.53 64.02 182.19 63.93 182.19 67.75"/><polygon class="cls-4" points="186.66 67.72 183.81 67.74 183.81 63.87 186.66 63.77 186.66 67.72"/><polygon class="cls-4" points="157.59 72.87 155.82 72.8 155.82 69.74 157.59 69.76 157.59 72.87"/><polygon class="cls-4" points="160.53 72.99 158.66 72.91 158.66 69.77 160.53 69.79 160.53 72.99"/><polygon class="cls-4" points="170.4 73.37 168.19 73.28 168.19 69.86 170.4 69.89 170.4 73.37"/><polygon class="cls-4" points="174.09 73.51 171.74 73.42 171.74 69.9 174.09 69.92 174.09 73.51"/><polygon class="cls-4" points="186.66 73.99 183.81 73.88 183.81 70.02 186.66 70.04 186.66 73.99"/><polygon class="cls-4" points="157.59 77.82 155.82 77.67 155.82 74.61 157.59 74.71 157.59 77.82"/><polygon class="cls-4" points="160.53 78.07 158.66 77.91 158.66 74.77 160.53 74.87 160.53 78.07"/><polygon class="cls-4" points="163.63 78.33 161.66 78.16 161.66 74.93 163.63 75.04 163.63 78.33"/><polygon class="cls-4" points="166.92 78.61 164.83 78.43 164.83 75.11 166.92 75.22 166.92 78.61"/><polygon class="cls-4" points="170.4 78.9 168.19 78.71 168.19 75.3 170.4 75.42 170.4 78.9"/><polygon class="cls-4" points="174.09 79.21 171.74 79.01 171.74 75.49 174.09 75.62 174.09 79.21"/><polygon class="cls-4" points="178.01 79.54 175.52 79.33 175.52 75.7 178.01 75.84 178.01 79.54"/><polygon class="cls-4" points="182.19 79.89 179.53 79.67 179.53 75.93 182.19 76.07 182.19 79.89"/><polygon class="cls-4" points="186.66 80.27 183.81 80.03 183.81 76.16 186.66 76.32 186.66 80.27"/><polygon class="cls-4" points="157.59 82.76 155.82 82.53 155.82 79.47 157.59 79.65 157.59 82.76"/><polygon class="cls-4" points="160.53 83.15 158.66 82.9 158.66 79.76 160.53 79.95 160.53 83.15"/><polygon class="cls-4" points="166.92 83.98 164.83 83.71 164.83 80.39 166.92 80.6 166.92 83.98"/><polygon class="cls-4" points="170.4 84.43 168.19 84.14 168.19 80.73 170.4 80.95 170.4 84.43"/><polygon class="cls-4" points="174.09 84.91 171.74 84.61 171.74 81.09 174.09 81.33 174.09 84.91"/><polygon class="cls-4" points="157.59 87.71 155.82 87.4 155.82 84.34 157.59 84.6 157.59 87.71"/><polygon class="cls-4" points="160.53 88.23 158.66 87.9 158.66 84.75 160.53 85.03 160.53 88.23"/><polygon class="cls-4" points="163.63 88.77 161.66 88.43 161.66 85.2 163.63 85.49 163.63 88.77"/><polygon class="cls-4" points="170.4 89.96 168.19 89.57 168.19 86.16 170.4 86.48 170.4 89.96"/><polygon class="cls-4" points="174.09 90.61 171.74 90.2 171.74 86.68 174.09 87.03 174.09 90.61"/><polygon class="cls-4" points="178.01 91.3 175.52 90.86 175.52 87.24 178.01 87.6 178.01 91.3"/><polygon class="cls-4" points="186.66 92.83 183.81 92.33 183.81 88.46 186.66 88.88 186.66 92.83"/><polygon class="cls-4" points="157.59 92.66 155.82 92.26 155.82 89.2 157.59 89.54 157.59 92.66"/><polygon class="cls-4" points="160.53 93.31 158.66 92.89 158.66 89.75 160.53 90.11 160.53 93.31"/><polygon class="cls-4" points="170.4 95.5 168.19 95 168.19 91.59 170.4 92.02 170.4 95.5"/><polygon class="cls-4" points="178.01 97.19 175.52 96.63 175.52 93 178.01 93.48 178.01 97.19"/><polygon class="cls-4" points="186.66 99.1 183.81 98.47 183.81 94.6 186.66 95.15 186.66 99.1"/><polygon class="cls-4" points="160.53 98.39 158.66 97.89 158.66 94.75 160.53 95.19 160.53 98.39"/><polygon class="cls-4" points="163.63 99.22 161.66 98.69 161.66 95.46 163.63 95.93 163.63 99.22"/><polygon class="cls-4" points="160.53 103.47 158.66 102.88 158.66 99.74 160.53 100.27 160.53 103.47"/><polygon class="cls-4" points="186.66 111.66 183.81 110.77 183.81 106.9 186.66 107.71 186.66 111.66"/><polygon class="cls-4" points="157.59 107.49 155.82 106.86 155.82 103.8 157.59 104.38 157.59 107.49"/><polygon class="cls-4" points="160.53 108.55 158.66 107.88 158.66 104.73 160.53 105.35 160.53 108.55"/><polygon class="cls-4" points="170.4 112.09 168.19 111.3 168.19 107.88 170.4 108.61 170.4 112.09"/><polygon class="cls-4" points="178.01 114.83 175.52 113.93 175.52 110.3 178.01 111.13 178.01 114.83"/><polygon class="cls-4" points="157.59 112.44 155.82 111.72 155.82 108.66 157.59 109.33 157.59 112.44"/><polygon class="cls-4" points="163.63 114.89 161.66 114.09 161.66 110.86 163.63 111.6 163.63 114.89"/><polygon class="cls-4" points="174.09 119.12 171.74 118.17 171.74 114.65 174.09 115.53 174.09 119.12"/><polygon class="cls-4" points="157.59 117.38 155.82 116.58 155.82 113.52 157.59 114.27 157.59 117.38"/><polygon class="cls-4" points="163.63 120.11 161.66 119.22 161.66 115.99 163.63 116.82 163.63 120.11"/><polygon class="cls-4" points="178.01 126.59 175.52 125.47 175.52 121.84 178.01 122.89 178.01 126.59"/><polygon class="cls-4" points="160.53 123.79 158.66 122.86 158.66 119.72 160.53 120.59 160.53 123.79"/><polygon class="cls-4" points="182.19 134.55 179.53 133.23 179.53 129.48 182.19 130.73 182.19 134.55"/><polygon class="cls-3" points="211.09 25.12 208.95 24.32 208.95 20.9 211.09 21.76 211.09 25.12"/><polygon class="cls-3" points="196 25.52 193.27 24.62 193.27 20.75 196 21.72 196 25.52"/><polygon class="cls-3" points="191.6 42.78 188.68 42.23 188.68 38.22 191.6 38.86 191.6 42.78"/><polygon class="cls-3" points="207.66 51.34 205.38 51.01 205.38 47.48 207.66 47.88 207.66 51.34"/><polygon class="cls-3" points="200.13 61.94 197.56 61.8 197.56 58.05 200.13 58.26 200.13 61.94"/><polygon class="cls-3" points="214.34 67.89 212.32 67.87 212.32 64.55 214.34 64.62 214.34 67.89"/><polygon class="cls-3" points="196 79.82 193.27 80.05 193.27 76.18 196 76.03 196 79.82"/><polygon class="cls-3" points="207.66 78.84 205.38 79.03 205.38 75.5 207.66 75.38 207.66 78.84"/><polygon class="cls-3" points="207.66 100.84 205.38 101.45 205.38 97.92 207.66 97.38 207.66 100.84"/><polygon class="cls-3" points="200.13 114.54 197.56 115.47 197.56 111.71 200.13 110.87 200.13 114.54"/><polygon class="cls-4" points="191.6 5.37 188.68 4.01 188.68 0 191.6 1.45 191.6 5.37"/><polygon class="cls-4" points="200.13 9.34 197.56 8.14 197.56 4.39 200.13 5.66 200.13 9.34"/><polygon class="cls-4" points="204.01 11.14 201.6 10.02 201.6 6.38 204.01 7.58 204.01 11.14"/><polygon class="cls-4" points="211.09 14.44 208.95 13.44 208.95 10.02 211.09 11.08 211.09 14.44"/><polygon class="cls-4" points="214.34 15.95 212.32 15.01 212.32 11.68 214.34 12.68 214.34 15.95"/><polygon class="cls-4" points="220.32 18.73 218.51 17.89 218.51 14.74 220.32 15.64 220.32 18.73"/><polygon class="cls-4" points="191.6 11.6 188.68 10.38 188.68 6.37 191.6 7.68 191.6 11.6"/><polygon class="cls-4" points="196 13.45 193.27 12.3 193.27 8.43 196 9.65 196 13.45"/><polygon class="cls-4" points="200.13 15.18 197.56 14.11 197.56 10.35 200.13 11.5 200.13 15.18"/><polygon class="cls-4" points="207.66 18.34 205.38 17.39 205.38 13.86 207.66 14.88 207.66 18.34"/><polygon class="cls-4" points="217.41 22.43 215.5 21.63 215.5 18.39 217.41 19.25 217.41 22.43"/><polygon class="cls-4" points="220.32 23.65 218.51 22.89 218.51 19.74 220.32 20.55 220.32 23.65"/><polygon class="cls-4" points="196 19.48 193.27 18.46 193.27 14.59 196 15.69 196 19.48"/><polygon class="cls-4" points="200.13 21.03 197.56 20.07 197.56 16.32 200.13 17.35 200.13 21.03"/><polygon class="cls-4" points="204.01 22.48 201.6 21.57 201.6 17.94 204.01 18.91 204.01 22.48"/><polygon class="cls-4" points="207.66 23.84 205.38 22.99 205.38 19.46 207.66 20.38 207.66 23.84"/><polygon class="cls-4" points="214.34 26.34 212.32 25.58 212.32 22.25 214.34 23.07 214.34 26.34"/><polygon class="cls-4" points="217.41 27.48 215.5 26.77 215.5 23.54 217.41 24.3 217.41 27.48"/><polygon class="cls-4" points="220.32 28.57 218.51 27.89 218.51 24.75 220.32 25.48 220.32 28.57"/><polygon class="cls-4" points="191.6 24.07 188.68 23.12 188.68 19.11 191.6 20.15 191.6 24.07"/><polygon class="cls-4" points="204.01 28.14 201.6 27.35 201.6 23.72 204.01 24.58 204.01 28.14"/><polygon class="cls-4" points="207.66 29.34 205.38 28.59 205.38 25.07 207.66 25.88 207.66 29.34"/><polygon class="cls-4" points="211.09 30.47 208.95 29.76 208.95 26.34 211.09 27.1 211.09 30.47"/><polygon class="cls-4" points="214.34 31.53 212.32 30.87 212.32 27.54 214.34 28.26 214.34 31.53"/><polygon class="cls-4" points="217.41 32.54 215.5 31.91 215.5 28.68 217.41 29.36 217.41 32.54"/><polygon class="cls-4" points="220.32 33.49 218.51 32.9 218.51 29.75 220.32 30.39 220.32 33.49"/><polygon class="cls-4" points="196 31.55 193.27 30.78 193.27 26.91 196 27.76 196 31.55"/><polygon class="cls-4" points="200.13 32.72 197.56 31.99 197.56 28.24 200.13 29.04 200.13 32.72"/><polygon class="cls-4" points="204.01 33.81 201.6 33.13 201.6 29.49 204.01 30.24 204.01 33.81"/><polygon class="cls-4" points="207.66 34.84 205.38 34.2 205.38 30.67 207.66 31.38 207.66 34.84"/><polygon class="cls-4" points="211.09 35.81 208.95 35.2 208.95 31.78 211.09 32.45 211.09 35.81"/><polygon class="cls-4" points="217.41 37.59 215.5 37.05 215.5 33.82 217.41 34.41 217.41 37.59"/><polygon class="cls-4" points="220.32 38.41 218.51 37.9 218.51 34.75 220.32 35.31 220.32 38.41"/><polygon class="cls-4" points="191.6 36.55 188.68 35.85 188.68 31.85 191.6 32.62 191.6 36.55"/><polygon class="cls-4" points="196 37.59 193.27 36.94 193.27 33.06 196 33.79 196 37.59"/><polygon class="cls-4" points="200.13 38.56 197.56 37.95 197.56 34.2 200.13 34.88 200.13 38.56"/><polygon class="cls-4" points="207.66 40.34 205.38 39.8 205.38 36.28 207.66 36.88 207.66 40.34"/><polygon class="cls-4" points="211.09 41.15 208.95 40.65 208.95 37.22 211.09 37.79 211.09 41.15"/><polygon class="cls-4" points="214.34 41.92 212.32 41.44 212.32 38.11 214.34 38.65 214.34 41.92"/><polygon class="cls-4" points="217.41 42.64 215.5 42.19 215.5 38.96 217.41 39.46 217.41 42.64"/><polygon class="cls-4" points="220.32 43.33 218.51 42.9 218.51 39.76 220.32 40.23 220.32 43.33"/><polygon class="cls-4" points="196 43.62 193.27 43.1 193.27 39.22 196 39.82 196 43.62"/><polygon class="cls-4" points="204.01 45.14 201.6 44.69 201.6 41.05 204.01 41.58 204.01 45.14"/><polygon class="cls-4" points="207.66 45.84 205.38 45.41 205.38 41.88 207.66 42.38 207.66 45.84"/><polygon class="cls-4" points="211.09 46.49 208.95 46.09 208.95 42.66 211.09 43.13 211.09 46.49"/><polygon class="cls-4" points="214.34 47.11 212.32 46.73 212.32 43.4 214.34 43.84 214.34 47.11"/><polygon class="cls-4" points="217.41 47.7 215.5 47.33 215.5 44.1 217.41 44.52 217.41 47.7"/><polygon class="cls-4" points="220.32 48.25 218.51 47.91 218.51 44.76 220.32 45.16 220.32 48.25"/><polygon class="cls-4" points="196 49.65 193.27 49.26 193.27 45.38 196 45.86 196 49.65"/><polygon class="cls-4" points="200.13 50.25 197.56 49.88 197.56 46.13 200.13 46.57 200.13 50.25"/><polygon class="cls-4" points="204.01 50.81 201.6 50.46 201.6 46.83 204.01 47.24 204.01 50.81"/><polygon class="cls-4" points="217.41 52.75 215.5 52.47 215.5 49.24 217.41 49.57 217.41 52.75"/><polygon class="cls-4" points="220.32 53.17 218.51 52.91 218.51 49.76 220.32 50.08 220.32 53.17"/><polygon class="cls-4" points="191.6 55.25 188.68 54.96 188.68 50.96 191.6 51.33 191.6 55.25"/><polygon class="cls-4" points="200.13 56.09 197.56 55.84 197.56 52.09 200.13 52.42 200.13 56.09"/><polygon class="cls-4" points="204.01 56.48 201.6 56.24 201.6 52.6 204.01 52.91 204.01 56.48"/><polygon class="cls-4" points="207.66 56.84 205.38 56.62 205.38 53.09 207.66 53.38 207.66 56.84"/><polygon class="cls-4" points="214.34 57.5 212.32 57.3 212.32 53.97 214.34 54.23 214.34 57.5"/><polygon class="cls-4" points="217.41 57.8 215.5 57.61 215.5 54.38 217.41 54.62 217.41 57.8"/><polygon class="cls-4" points="220.32 58.09 218.51 57.91 218.51 54.76 220.32 54.99 220.32 58.09"/><polygon class="cls-4" points="191.6 61.49 188.68 61.33 188.68 57.33 191.6 57.56 191.6 61.49"/><polygon class="cls-4" points="196 61.72 193.27 61.58 193.27 57.7 196 57.92 196 61.72"/><polygon class="cls-4" points="211.09 62.52 208.95 62.41 208.95 58.98 211.09 59.16 211.09 62.52"/><polygon class="cls-4" points="214.34 62.69 212.32 62.59 212.32 59.26 214.34 59.42 214.34 62.69"/><polygon class="cls-4" points="217.41 62.86 215.5 62.76 215.5 59.52 217.41 59.68 217.41 62.86"/><polygon class="cls-4" points="220.32 63.01 218.51 62.91 218.51 59.77 220.32 59.91 220.32 63.01"/><polygon class="cls-4" points="191.6 67.72 188.68 67.7 188.68 63.7 191.6 63.8 191.6 67.72"/><polygon class="cls-4" points="196 67.75 193.27 67.74 193.27 63.86 196 63.96 196 67.75"/><polygon class="cls-4" points="200.13 67.78 197.56 67.77 197.56 64.02 200.13 64.11 200.13 67.78"/><polygon class="cls-4" points="204.01 67.81 201.6 67.8 201.6 64.16 204.01 64.25 204.01 67.81"/><polygon class="cls-4" points="207.66 67.84 205.38 67.82 205.38 64.3 207.66 64.38 207.66 67.84"/><polygon class="cls-4" points="211.09 67.86 208.95 67.85 208.95 64.42 211.09 64.5 211.09 67.86"/><polygon class="cls-4" points="217.41 67.91 215.5 67.9 215.5 64.66 217.41 64.73 217.41 67.91"/><polygon class="cls-4" points="220.32 67.93 218.51 67.92 218.51 64.77 220.32 64.83 220.32 67.93"/><polygon class="cls-4" points="196 73.79 193.27 73.89 193.27 70.02 196 69.99 196 73.79"/><polygon class="cls-4" points="200.13 73.63 197.56 73.73 197.56 69.98 200.13 69.95 200.13 73.63"/><polygon class="cls-4" points="204.01 73.48 201.6 73.57 201.6 69.94 204.01 69.91 204.01 73.48"/><polygon class="cls-4" points="207.66 73.34 205.38 73.43 205.38 69.9 207.66 69.88 207.66 73.34"/><polygon class="cls-4" points="211.09 73.21 208.95 73.29 208.95 69.87 211.09 69.84 211.09 73.21"/><polygon class="cls-4" points="214.34 73.08 212.32 73.16 212.32 69.83 214.34 69.81 214.34 73.08"/><polygon class="cls-4" points="217.41 72.96 215.5 73.04 215.5 69.8 217.41 69.78 217.41 72.96"/><polygon class="cls-4" points="220.32 72.85 218.51 72.92 218.51 69.77 220.32 69.75 220.32 72.85"/><polygon class="cls-4" points="191.6 80.19 188.68 80.44 188.68 76.43 191.6 76.27 191.6 80.19"/><polygon class="cls-4" points="200.13 79.47 197.56 79.69 197.56 75.94 200.13 75.8 200.13 79.47"/><polygon class="cls-4" points="211.09 78.55 208.95 78.73 208.95 75.31 211.09 75.19 211.09 78.55"/><polygon class="cls-4" points="217.41 78.02 215.5 78.18 215.5 74.94 217.41 74.84 217.41 78.02"/><polygon class="cls-4" points="220.32 77.77 218.51 77.92 218.51 74.78 220.32 74.67 220.32 77.77"/><polygon class="cls-4" points="191.6 86.43 188.68 86.81 188.68 82.8 191.6 82.51 191.6 86.43"/><polygon class="cls-4" points="200.13 85.32 197.56 85.65 197.56 81.9 200.13 81.64 200.13 85.32"/><polygon class="cls-4" points="204.01 84.81 201.6 85.13 201.6 81.49 204.01 81.25 204.01 84.81"/><polygon class="cls-4" points="207.66 84.34 205.38 84.64 205.38 81.11 207.66 80.88 207.66 84.34"/><polygon class="cls-4" points="211.09 83.89 208.95 84.17 208.95 80.75 211.09 80.53 211.09 83.89"/><polygon class="cls-4" points="214.34 83.47 212.32 83.73 212.32 80.41 214.34 80.2 214.34 83.47"/><polygon class="cls-4" points="217.41 83.07 215.5 83.32 215.5 80.08 217.41 79.89 217.41 83.07"/><polygon class="cls-4" points="220.32 82.69 218.51 82.93 218.51 79.78 220.32 79.59 220.32 82.69"/><polygon class="cls-4" points="191.6 92.67 188.68 93.18 188.68 89.17 191.6 88.74 191.6 92.67"/><polygon class="cls-4" points="196 91.89 193.27 92.37 193.27 88.5 196 88.09 196 91.89"/><polygon class="cls-4" points="200.13 91.16 197.56 91.62 197.56 87.86 200.13 87.49 200.13 91.16"/><polygon class="cls-4" points="204.01 90.48 201.6 90.91 201.6 87.27 204.01 86.92 204.01 90.48"/><polygon class="cls-4" points="207.66 89.84 205.38 90.24 205.38 86.71 207.66 86.38 207.66 89.84"/><polygon class="cls-4" points="214.34 88.66 212.32 89.02 212.32 85.69 214.34 85.39 214.34 88.66"/><polygon class="cls-4" points="220.32 87.61 218.51 87.93 218.51 84.78 220.32 84.52 220.32 87.61"/><polygon class="cls-4" points="191.6 98.9 188.68 99.55 188.68 95.54 191.6 94.98 191.6 98.9"/><polygon class="cls-4" points="204.01 96.15 201.6 96.68 201.6 93.05 204.01 92.58 204.01 96.15"/><polygon class="cls-4" points="207.66 95.34 205.38 95.84 205.38 92.32 207.66 91.88 207.66 95.34"/><polygon class="cls-4" points="211.09 94.58 208.95 95.05 208.95 91.63 211.09 91.22 211.09 94.58"/><polygon class="cls-4" points="217.41 93.18 215.5 93.6 215.5 90.36 217.41 90 217.41 93.18"/><polygon class="cls-4" points="220.32 92.53 218.51 92.93 218.51 89.78 220.32 89.43 220.32 92.53"/><polygon class="cls-4" points="191.6 105.14 188.68 105.92 188.68 101.91 191.6 101.21 191.6 105.14"/><polygon class="cls-4" points="214.34 99.05 212.32 99.59 212.32 96.27 214.34 95.78 214.34 99.05"/><polygon class="cls-4" points="220.32 97.45 218.51 97.94 218.51 94.79 220.32 94.35 220.32 97.45"/><polygon class="cls-4" points="191.6 111.37 188.68 112.29 188.68 108.28 191.6 107.45 191.6 111.37"/><polygon class="cls-4" points="196 109.99 193.27 110.85 193.27 106.97 196 106.2 196 109.99"/><polygon class="cls-4" points="204.01 107.48 201.6 108.24 201.6 104.6 204.01 103.92 204.01 107.48"/><polygon class="cls-4" points="207.66 106.34 205.38 107.05 205.38 103.53 207.66 102.88 207.66 106.34"/><polygon class="cls-4" points="217.41 103.28 215.5 103.88 215.5 100.65 217.41 100.1 217.41 103.28"/><polygon class="cls-4" points="191.6 123.84 188.68 125.03 188.68 121.02 191.6 119.92 191.6 123.84"/><polygon class="cls-4" points="200.13 120.39 197.56 121.43 197.56 117.68 200.13 116.71 200.13 120.39"/><polygon class="cls-4" points="211.09 115.95 208.95 116.81 208.95 113.39 211.09 112.59 211.09 115.95"/><polygon class="cls-4" points="217.41 113.39 215.5 114.16 215.5 110.93 217.41 110.21 217.41 113.39"/><polygon class="cls-4" points="204.01 124.48 201.6 125.57 201.6 121.94 204.01 120.92 204.01 124.48"/><polygon class="cls-4" points="217.41 118.44 215.5 119.3 215.5 116.07 217.41 115.26 217.41 118.44"/><polygon class="cls-4" points="220.32 117.13 218.51 117.95 218.51 114.8 220.32 114.03 220.32 117.13"/><polygon class="cls-4" points="191.6 136.31 188.68 137.77 188.68 133.76 191.6 132.39 191.6 136.31"/><polygon class="cls-4" points="217.41 123.5 215.5 124.44 215.5 121.21 217.41 120.31 217.41 123.5"/></g></g></svg>