<svg xmlns="http://www.w3.org/2000/svg" viewBox="0 0 714.13 228.92"><defs><style>.cls-1{font-size:80px;font-family:JuliusSansOne-Regular, Julius Sans One;}.cls-1,.cls-4{fill:#2a3132;}.cls-2{letter-spacing:-0.04em;}.cls-3{fill:#7691c1;}</style></defs><title>Recurso 1</title><g id="Capa_2" data-name="Capa 2"><g id="Main"><text class="cls-1" transform="translate(257.63 91.65)">OMA<tspan x="-186.52" y="96">ARQUITEC</tspan><tspan class="cls-2" x="227.8" y="96">T</tspan><tspan x="271" y="96">OS</tspan></text><polygon class="cls-3" points="121.42 30.62 119.68 31.27 119.68 28.82 121.42 28.12 121.42 30.62"/><polygon class="cls-3" points="116.12 36.33 114.58 36.84 114.58 34.53 116.12 33.98 116.12 36.33"/><polygon class="cls-3" points="124.34 50.07 122.48 50.34 122.48 47.81 124.34 47.49 124.34 50.07"/><polygon class="cls-3" points="118.69 54.74 117.05 54.9 117.05 52.53 118.69 52.32 118.69 54.74"/><polygon class="cls-3" points="118.69 62.44 117.05 62.45 117.05 60.08 118.69 60.02 118.69 62.44"/><polygon class="cls-3" points="121.42 62.42 119.68 62.43 119.68 59.98 121.42 59.92 121.42 62.42"/><polygon class="cls-3" points="113.7 73.34 112.25 73.15 112.25 70.92 113.7 71.06 113.7 73.34"/><polygon class="cls-3" points="124.34 74.73 122.48 74.49 122.48 71.95 124.34 72.14 124.34 74.73"/><polygon class="cls-3" points="121.42 90.25 119.68 89.7 119.68 87.25 121.42 87.75 121.42 90.25"/><polygon class="cls-3" points="116.12 92.32 114.58 91.77 114.58 89.46 116.12 89.97 116.12 92.32"/><polygon class="cls-3" points="111.42 97.67 110.06 97.05 110.06 94.88 111.42 95.45 111.42 97.67"/><polygon class="cls-4" points="105.31 30.16 104.15 30.7 104.15 28.7 105.31 28.12 105.31 30.16"/><polygon class="cls-4" points="107.24 29.26 106.02 29.83 106.02 27.78 107.24 27.17 107.24 29.26"/><polygon class="cls-4" points="109.27 28.32 107.98 28.92 107.98 26.81 109.27 26.17 109.27 28.32"/><polygon class="cls-4" points="118.69 23.94 117.05 24.7 117.05 22.32 118.69 21.52 118.69 23.94"/><polygon class="cls-4" points="121.42 22.67 119.68 23.48 119.68 21.03 121.42 20.16 121.42 22.67"/><polygon class="cls-4" points="105.31 33.4 104.15 33.88 104.15 31.88 105.31 31.36 105.31 33.4"/><polygon class="cls-4" points="107.24 32.59 106.02 33.1 106.02 31.05 107.24 30.5 107.24 32.59"/><polygon class="cls-4" points="109.27 31.74 107.98 32.28 107.98 30.17 109.27 29.59 109.27 31.74"/><polygon class="cls-4" points="111.42 30.84 110.06 31.41 110.06 29.23 111.42 28.62 111.42 30.84"/><polygon class="cls-4" points="113.7 29.88 112.25 30.49 112.25 28.25 113.7 27.6 113.7 29.88"/><polygon class="cls-4" points="116.12 28.87 114.58 29.51 114.58 27.21 116.12 26.52 116.12 28.87"/><polygon class="cls-4" points="105.31 36.64 104.15 37.07 104.15 35.06 105.31 34.6 105.31 36.64"/><polygon class="cls-4" points="107.24 35.92 106.02 36.37 106.02 34.32 107.24 33.82 107.24 35.92"/><polygon class="cls-4" points="111.42 34.35 110.06 34.86 110.06 32.69 111.42 32.14 111.42 34.35"/><polygon class="cls-4" points="113.7 33.5 112.25 34.04 112.25 31.81 113.7 31.22 113.7 33.5"/><polygon class="cls-4" points="118.69 31.64 117.05 32.25 117.05 29.88 118.69 29.22 118.69 31.64"/><polygon class="cls-4" points="105.31 39.87 104.15 40.25 104.15 38.25 105.31 37.84 105.31 39.87"/><polygon class="cls-4" points="107.24 39.24 106.02 39.64 106.02 37.59 107.24 37.15 107.24 39.24"/><polygon class="cls-4" points="109.27 38.58 107.98 39 107.98 36.88 109.27 36.42 109.27 38.58"/><polygon class="cls-4" points="111.42 37.87 110.06 38.32 110.06 36.15 111.42 35.66 111.42 37.87"/><polygon class="cls-4" points="113.7 37.12 112.25 37.6 112.25 35.36 113.7 34.84 113.7 37.12"/><polygon class="cls-4" points="118.69 35.49 117.05 36.03 117.05 33.65 118.69 33.07 118.69 35.49"/><polygon class="cls-4" points="124.34 33.63 122.48 34.24 122.48 31.71 124.34 31.05 124.34 33.63"/><polygon class="cls-4" points="105.31 43.11 104.15 43.44 104.15 41.43 105.31 41.07 105.31 43.11"/><polygon class="cls-4" points="107.24 42.57 106.02 42.91 106.02 40.86 107.24 40.48 107.24 42.57"/><polygon class="cls-4" points="109.27 41.99 107.98 42.36 107.98 40.24 109.27 39.84 109.27 41.99"/><polygon class="cls-4" points="111.42 41.39 110.06 41.77 110.06 39.6 111.42 39.17 111.42 41.39"/><polygon class="cls-4" points="113.7 40.75 112.25 41.16 112.25 38.92 113.7 38.47 113.7 40.75"/><polygon class="cls-4" points="118.69 39.34 117.05 39.8 117.05 37.43 118.69 36.92 118.69 39.34"/><polygon class="cls-4" points="121.42 38.57 119.68 39.06 119.68 36.61 121.42 36.07 121.42 38.57"/><polygon class="cls-4" points="105.31 46.35 104.15 46.62 104.15 44.62 105.31 44.31 105.31 46.35"/><polygon class="cls-4" points="107.24 45.89 106.02 46.18 106.02 44.13 107.24 43.8 107.24 45.89"/><polygon class="cls-4" points="109.27 45.41 107.98 45.72 107.98 43.6 109.27 43.26 109.27 45.41"/><polygon class="cls-4" points="111.42 44.91 110.06 45.23 110.06 43.05 111.42 42.69 111.42 44.91"/><polygon class="cls-4" points="116.12 43.8 114.58 44.16 114.58 41.86 116.12 41.45 116.12 43.8"/><polygon class="cls-4" points="118.69 43.19 117.05 43.58 117.05 41.2 118.69 40.77 118.69 43.19"/><polygon class="cls-4" points="105.31 49.59 104.15 49.81 104.15 47.8 105.31 47.55 105.31 49.59"/><polygon class="cls-4" points="107.24 49.22 106.02 49.45 106.02 47.4 107.24 47.13 107.24 49.22"/><polygon class="cls-4" points="111.42 48.42 110.06 48.68 110.06 46.51 111.42 46.21 111.42 48.42"/><polygon class="cls-4" points="116.12 47.53 114.58 47.82 114.58 45.52 116.12 45.18 116.12 47.53"/><polygon class="cls-4" points="121.42 46.52 119.68 46.85 119.68 44.4 121.42 44.02 121.42 46.52"/><polygon class="cls-4" points="124.34 45.96 122.48 46.32 122.48 43.78 124.34 43.38 124.34 45.96"/><polygon class="cls-4" points="105.31 52.82 104.15 52.99 104.15 50.99 105.31 50.79 105.31 52.82"/><polygon class="cls-4" points="107.24 52.55 106.02 52.72 106.02 50.66 107.24 50.45 107.24 52.55"/><polygon class="cls-4" points="109.27 52.25 107.98 52.44 107.98 50.33 109.27 50.1 109.27 52.25"/><polygon class="cls-4" points="111.42 51.94 110.06 52.14 110.06 49.97 111.42 49.73 111.42 51.94"/><polygon class="cls-4" points="113.7 51.61 112.25 51.82 112.25 49.58 113.7 49.33 113.7 51.61"/><polygon class="cls-4" points="116.12 51.26 114.58 51.48 114.58 49.18 116.12 48.91 116.12 51.26"/><polygon class="cls-4" points="105.31 56.06 104.15 56.18 104.15 54.17 105.31 54.02 105.31 56.06"/><polygon class="cls-4" points="107.24 55.87 106.02 55.99 106.02 53.94 107.24 53.78 107.24 55.87"/><polygon class="cls-4" points="109.27 55.67 107.98 55.8 107.98 53.69 109.27 53.52 109.27 55.67"/><polygon class="cls-4" points="111.42 55.46 110.06 55.59 110.06 53.42 111.42 53.24 111.42 55.46"/><polygon class="cls-4" points="113.7 55.23 112.25 55.38 112.25 53.14 113.7 52.95 113.7 55.23"/><polygon class="cls-4" points="124.34 54.18 122.48 54.37 122.48 51.83 124.34 51.6 124.34 54.18"/><polygon class="cls-4" points="105.31 59.3 104.15 59.36 104.15 57.36 105.31 57.26 105.31 59.3"/><polygon class="cls-4" points="107.24 59.2 106.02 59.26 106.02 57.2 107.24 57.1 107.24 59.2"/><polygon class="cls-4" points="109.27 59.09 107.98 59.16 107.98 57.04 109.27 56.94 109.27 59.09"/><polygon class="cls-4" points="113.7 58.85 112.25 58.93 112.25 56.7 113.7 56.58 113.7 58.85"/><polygon class="cls-4" points="116.12 58.73 114.58 58.81 114.58 56.5 116.12 56.38 116.12 58.73"/><polygon class="cls-4" points="124.34 58.29 122.48 58.39 122.48 55.86 124.34 55.7 124.34 58.29"/><polygon class="cls-4" points="105.31 62.54 104.15 62.55 104.15 60.54 105.31 60.5 105.31 62.54"/><polygon class="cls-4" points="107.24 62.52 106.02 62.53 106.02 60.48 107.24 60.43 107.24 62.52"/><polygon class="cls-4" points="109.27 62.51 107.98 62.52 107.98 60.4 109.27 60.36 109.27 62.51"/><polygon class="cls-4" points="113.7 62.48 112.25 62.49 112.25 60.25 113.7 60.2 113.7 62.48"/><polygon class="cls-4" points="124.34 62.4 122.48 62.41 122.48 59.88 124.34 59.81 124.34 62.4"/><polygon class="cls-4" points="105.31 65.78 104.15 65.73 104.15 63.73 105.31 63.74 105.31 65.78"/><polygon class="cls-4" points="107.24 65.85 106.02 65.8 106.02 63.74 107.24 63.76 107.24 65.85"/><polygon class="cls-4" points="109.27 65.93 107.98 65.88 107.98 63.76 109.27 63.78 109.27 65.93"/><polygon class="cls-4" points="111.42 66.01 110.06 65.96 110.06 63.78 111.42 63.8 111.42 66.01"/><polygon class="cls-4" points="116.12 66.19 114.58 66.13 114.58 63.83 116.12 63.84 116.12 66.19"/><polygon class="cls-4" points="124.34 66.51 122.48 66.44 122.48 63.91 124.34 63.92 124.34 66.51"/><polygon class="cls-4" points="105.31 69.01 104.15 68.92 104.15 66.91 105.31 66.98 105.31 69.01"/><polygon class="cls-4" points="107.24 69.17 106.02 69.07 106.02 67.02 107.24 67.08 107.24 69.17"/><polygon class="cls-4" points="109.27 69.35 107.98 69.24 107.98 67.12 109.27 67.2 109.27 69.35"/><polygon class="cls-4" points="111.42 69.53 110.06 69.41 110.06 67.24 111.42 67.31 111.42 69.53"/><polygon class="cls-4" points="113.7 69.72 112.25 69.6 112.25 67.36 113.7 67.44 113.7 69.72"/><polygon class="cls-4" points="118.69 70.14 117.05 70 117.05 67.63 118.69 67.72 118.69 70.14"/><polygon class="cls-4" points="124.34 70.62 122.48 70.46 122.48 67.93 124.34 68.03 124.34 70.62"/><polygon class="cls-4" points="105.31 72.25 104.15 72.1 104.15 70.1 105.31 70.21 105.31 72.25"/><polygon class="cls-4" points="107.24 72.5 106.02 72.34 106.02 70.28 107.24 70.41 107.24 72.5"/><polygon class="cls-4" points="109.27 72.77 107.98 72.6 107.98 70.48 109.27 70.61 109.27 72.77"/><polygon class="cls-4" points="116.12 73.66 114.58 73.46 114.58 71.15 116.12 71.31 116.12 73.66"/><polygon class="cls-4" points="118.69 73.99 117.05 73.78 117.05 71.4 118.69 71.57 118.69 73.99"/><polygon class="cls-4" points="105.31 75.49 104.15 75.28 104.15 73.28 105.31 73.45 105.31 75.49"/><polygon class="cls-4" points="107.24 75.83 106.02 75.61 106.02 73.55 107.24 73.73 107.24 75.83"/><polygon class="cls-4" points="109.27 76.19 107.98 75.96 107.98 73.84 109.27 74.03 109.27 76.19"/><polygon class="cls-4" points="111.42 76.56 110.06 76.32 110.06 74.15 111.42 74.35 111.42 76.56"/><polygon class="cls-4" points="113.7 76.96 112.25 76.71 112.25 74.47 113.7 74.69 113.7 76.96"/><polygon class="cls-4" points="121.42 78.32 119.68 78.02 119.68 75.57 121.42 75.82 121.42 78.32"/><polygon class="cls-4" points="124.34 78.84 122.48 78.51 122.48 75.98 124.34 76.25 124.34 78.84"/><polygon class="cls-4" points="105.31 78.73 104.15 78.47 104.15 76.47 105.31 76.69 105.31 78.73"/><polygon class="cls-4" points="107.24 79.15 106.02 78.88 106.02 76.82 107.24 77.06 107.24 79.15"/><polygon class="cls-4" points="113.7 80.59 112.25 80.27 112.25 78.03 113.7 78.31 113.7 80.59"/><polygon class="cls-4" points="116.12 81.12 114.58 80.78 114.58 78.48 116.12 78.77 116.12 81.12"/><polygon class="cls-4" points="118.69 81.69 117.05 81.33 117.05 78.95 118.69 79.27 118.69 81.69"/><polygon class="cls-4" points="124.34 82.95 122.48 82.53 122.48 80 124.34 80.36 124.34 82.95"/><polygon class="cls-4" points="105.31 81.96 104.15 81.65 104.15 79.65 105.31 79.93 105.31 81.96"/><polygon class="cls-4" points="107.24 82.48 106.02 82.15 106.02 80.09 107.24 80.39 107.24 82.48"/><polygon class="cls-4" points="109.27 83.02 107.98 82.68 107.98 80.56 109.27 80.87 109.27 83.02"/><polygon class="cls-4" points="113.7 84.21 112.25 83.82 112.25 81.58 113.7 81.93 113.7 84.21"/><polygon class="cls-4" points="124.34 87.06 122.48 86.56 122.48 84.03 124.34 84.47 124.34 87.06"/><polygon class="cls-4" points="105.31 85.2 104.15 84.84 104.15 82.83 105.31 83.16 105.31 85.2"/><polygon class="cls-4" points="107.24 85.81 106.02 85.42 106.02 83.36 107.24 83.71 107.24 85.81"/><polygon class="cls-4" points="109.27 86.44 107.98 86.04 107.98 83.92 109.27 84.29 109.27 86.44"/><polygon class="cls-4" points="111.42 87.12 110.06 86.69 110.06 84.51 111.42 84.9 111.42 87.12"/><polygon class="cls-4" points="113.7 87.83 112.25 87.38 112.25 85.14 113.7 85.55 113.7 87.83"/><polygon class="cls-4" points="105.31 88.44 104.15 88.02 104.15 86.02 105.31 86.4 105.31 88.44"/><polygon class="cls-4" points="107.24 89.13 106.02 88.69 106.02 86.63 107.24 87.04 107.24 89.13"/><polygon class="cls-4" points="109.27 89.86 107.98 89.4 107.98 87.28 109.27 87.71 109.27 89.86"/><polygon class="cls-4" points="111.42 90.63 110.06 90.14 110.06 87.97 111.42 88.42 111.42 90.63"/><polygon class="cls-4" points="124.34 95.27 122.48 94.61 122.48 92.07 124.34 92.69 124.34 95.27"/><polygon class="cls-4" points="105.31 91.68 104.15 91.21 104.15 89.2 105.31 89.64 105.31 91.68"/><polygon class="cls-4" points="107.24 92.46 106.02 91.96 106.02 89.9 107.24 90.36 107.24 92.46"/><polygon class="cls-4" points="109.27 93.28 107.98 92.76 107.98 90.64 109.27 91.13 109.27 93.28"/><polygon class="cls-4" points="107.24 95.78 106.02 95.23 106.02 93.17 107.24 93.69 107.24 95.78"/><polygon class="cls-4" points="124.34 103.49 122.48 102.65 122.48 100.12 124.34 100.91 124.34 103.49"/><polygon class="cls-4" points="105.31 98.15 104.15 97.58 104.15 95.57 105.31 96.11 105.31 98.15"/><polygon class="cls-4" points="109.27 100.12 107.98 99.48 107.98 97.36 109.27 97.97 109.27 100.12"/><polygon class="cls-4" points="116.12 103.52 114.58 102.75 114.58 100.45 116.12 101.17 116.12 103.52"/><polygon class="cls-4" points="118.69 104.79 117.05 103.98 117.05 101.61 118.69 102.37 118.69 104.79"/><polygon class="cls-4" points="124.34 107.6 122.48 106.68 122.48 104.15 124.34 105.02 124.34 107.6"/><polygon class="cls-3" points="146.38 30.33 145.2 29.78 145.2 27.72 146.38 28.3 146.38 30.33"/><polygon class="cls-3" points="135.7 36.49 134.12 35.98 134.12 33.59 135.7 34.16 135.7 36.49"/><polygon class="cls-3" points="127.58 54.24 125.66 54.05 125.66 51.43 127.58 51.67 127.58 54.24"/><polygon class="cls-3" points="135.7 58.75 134.12 58.67 134.12 56.29 135.7 56.42 135.7 58.75"/><polygon class="cls-3" points="146.38 65.76 145.2 65.81 145.2 63.75 146.38 63.73 146.38 65.76"/><polygon class="cls-3" points="138.09 76.88 136.6 77.14 136.6 74.84 138.09 74.62 138.09 76.88"/><polygon class="cls-4" points="127.58 21.58 125.66 20.69 125.66 18.07 127.58 19.02 127.58 21.58"/><polygon class="cls-4" points="130.46 22.93 128.67 22.09 128.67 19.55 130.46 20.44 130.46 22.93"/><polygon class="cls-4" points="133.16 24.18 131.48 23.4 131.48 20.94 133.16 21.77 133.16 24.18"/><polygon class="cls-4" points="138.09 26.47 136.6 25.78 136.6 23.47 138.09 24.21 138.09 26.47"/><polygon class="cls-4" points="140.34 27.52 138.94 26.87 138.94 24.63 140.34 25.32 140.34 27.52"/><polygon class="cls-4" points="144.48 29.45 143.23 28.86 143.23 26.75 144.48 27.36 144.48 29.45"/><polygon class="cls-4" points="127.58 25.67 125.66 24.86 125.66 22.24 127.58 23.1 127.58 25.67"/><polygon class="cls-4" points="135.7 29.07 134.12 28.41 134.12 26.03 135.7 26.74 135.7 29.07"/><polygon class="cls-4" points="140.34 31.02 138.94 30.43 138.94 28.19 140.34 28.82 140.34 31.02"/><polygon class="cls-4" points="142.47 31.91 141.14 31.36 141.14 29.18 142.47 29.77 142.47 31.91"/><polygon class="cls-4" points="146.38 33.55 145.2 33.05 145.2 30.99 146.38 31.53 146.38 33.55"/><polygon class="cls-4" points="127.58 29.75 125.66 29.03 125.66 26.41 127.58 27.18 127.58 29.75"/><polygon class="cls-4" points="135.7 32.78 134.12 32.19 134.12 29.81 135.7 30.45 135.7 32.78"/><polygon class="cls-4" points="138.09 33.67 136.6 33.12 136.6 30.81 138.09 31.41 138.09 33.67"/><polygon class="cls-4" points="142.47 35.31 141.14 34.82 141.14 32.64 142.47 33.17 142.47 35.31"/><polygon class="cls-4" points="146.38 36.77 145.2 36.33 145.2 34.27 146.38 34.75 146.38 36.77"/><polygon class="cls-4" points="127.58 33.83 125.66 33.2 125.66 30.58 127.58 31.26 127.58 33.83"/><polygon class="cls-4" points="130.46 34.77 128.67 34.19 128.67 31.65 130.46 32.29 130.46 34.77"/><polygon class="cls-4" points="138.09 37.28 136.6 36.79 136.6 34.48 138.09 35.01 138.09 37.28"/><polygon class="cls-4" points="140.34 38.01 138.94 37.55 138.94 35.31 140.34 35.81 140.34 38.01"/><polygon class="cls-4" points="142.47 38.71 141.14 38.28 141.14 36.1 142.47 36.57 142.47 38.71"/><polygon class="cls-4" points="146.38 39.99 145.2 39.6 145.2 37.54 146.38 37.97 146.38 39.99"/><polygon class="cls-4" points="127.58 37.91 125.66 37.37 125.66 34.75 127.58 35.34 127.58 37.91"/><polygon class="cls-4" points="130.46 38.73 128.67 38.22 128.67 35.68 130.46 36.24 130.46 38.73"/><polygon class="cls-4" points="133.16 39.49 131.48 39.01 131.48 36.56 133.16 37.08 133.16 39.49"/><polygon class="cls-4" points="138.09 40.88 136.6 40.46 136.6 38.15 138.09 38.61 138.09 40.88"/><polygon class="cls-4" points="142.47 42.11 141.14 41.74 141.14 39.56 142.47 39.97 142.47 42.11"/><polygon class="cls-4" points="144.48 42.68 143.23 42.33 143.23 40.21 144.48 40.6 144.48 42.68"/><polygon class="cls-4" points="146.38 43.22 145.2 42.88 145.2 40.82 146.38 41.19 146.38 43.22"/><polygon class="cls-4" points="127.58 41.99 125.66 41.54 125.66 38.92 127.58 39.43 127.58 41.99"/><polygon class="cls-4" points="135.7 43.91 134.12 43.54 134.12 41.16 135.7 41.58 135.7 43.91"/><polygon class="cls-4" points="138.09 44.48 136.6 44.13 136.6 41.82 138.09 42.21 138.09 44.48"/><polygon class="cls-4" points="140.34 45.01 138.94 44.68 138.94 42.44 140.34 42.81 140.34 45.01"/><polygon class="cls-4" points="146.38 46.44 145.2 46.16 145.2 44.09 146.38 44.41 146.38 46.44"/><polygon class="cls-4" points="127.58 46.08 125.66 45.71 125.66 43.09 127.58 43.51 127.58 46.08"/><polygon class="cls-4" points="130.46 46.63 128.67 46.28 128.67 43.75 130.46 44.14 130.46 46.63"/><polygon class="cls-4" points="133.16 47.14 131.48 46.82 131.48 44.36 133.16 44.73 133.16 47.14"/><polygon class="cls-4" points="135.7 47.62 134.12 47.32 134.12 44.94 135.7 45.29 135.7 47.62"/><polygon class="cls-4" points="140.34 48.51 138.94 48.24 138.94 46 140.34 46.31 140.34 48.51"/><polygon class="cls-4" points="142.47 48.91 141.14 48.66 141.14 46.48 142.47 46.77 142.47 48.91"/><polygon class="cls-4" points="144.48 49.29 143.23 49.06 143.23 46.94 144.48 47.21 144.48 49.29"/><polygon class="cls-4" points="146.38 49.66 145.2 49.43 145.2 47.37 146.38 47.63 146.38 49.66"/><polygon class="cls-4" points="130.46 50.58 128.67 50.32 128.67 47.78 130.46 48.09 130.46 50.58"/><polygon class="cls-4" points="133.16 50.97 131.48 50.72 131.48 48.27 133.16 48.56 133.16 50.97"/><polygon class="cls-4" points="138.09 51.68 136.6 51.46 136.6 49.16 138.09 49.41 138.09 51.68"/><polygon class="cls-4" points="140.34 52 138.94 51.8 138.94 49.56 140.34 49.8 140.34 52"/><polygon class="cls-4" points="146.38 52.88 145.2 52.71 145.2 50.65 146.38 50.85 146.38 52.88"/><polygon class="cls-4" points="130.46 54.52 128.67 54.35 128.67 51.81 130.46 52.04 130.46 54.52"/><polygon class="cls-4" points="133.16 54.79 131.48 54.63 131.48 52.17 133.16 52.38 133.16 54.79"/><polygon class="cls-4" points="140.34 55.5 138.94 55.36 138.94 53.12 140.34 53.3 140.34 55.5"/><polygon class="cls-4" points="142.47 55.71 141.14 55.58 141.14 53.4 142.47 53.57 142.47 55.71"/><polygon class="cls-4" points="144.48 55.91 143.23 55.79 143.23 53.67 144.48 53.83 144.48 55.91"/><polygon class="cls-4" points="146.38 56.1 145.2 55.98 145.2 53.92 146.38 54.07 146.38 56.1"/><polygon class="cls-4" points="127.58 58.32 125.66 58.22 125.66 55.6 127.58 55.75 127.58 58.32"/><polygon class="cls-4" points="138.09 58.88 136.6 58.8 136.6 56.49 138.09 56.61 138.09 58.88"/><polygon class="cls-4" points="142.47 59.11 141.14 59.04 141.14 56.86 142.47 56.97 142.47 59.11"/><polygon class="cls-4" points="144.48 59.22 143.23 59.15 143.23 57.03 144.48 57.14 144.48 59.22"/><polygon class="cls-4" points="146.38 59.32 145.2 59.26 145.2 57.2 146.38 57.29 146.38 59.32"/><polygon class="cls-4" points="130.46 62.42 128.67 62.41 128.67 59.88 130.46 59.94 130.46 62.42"/><polygon class="cls-4" points="133.16 62.45 131.48 62.43 131.48 59.98 133.16 60.04 133.16 62.45"/><polygon class="cls-4" points="138.09 62.48 136.6 62.47 136.6 60.16 138.09 60.22 138.09 62.48"/><polygon class="cls-4" points="140.34 62.5 138.94 62.49 138.94 60.24 140.34 60.3 140.34 62.5"/><polygon class="cls-4" points="146.38 62.54 145.2 62.53 145.2 60.47 146.38 60.51 146.38 62.54"/><polygon class="cls-4" points="127.58 66.49 125.66 66.56 125.66 63.94 127.58 63.92 127.58 66.49"/><polygon class="cls-4" points="130.46 66.38 128.67 66.44 128.67 63.91 130.46 63.89 130.46 66.38"/><polygon class="cls-4" points="133.16 66.27 131.48 66.34 131.48 63.88 133.16 63.86 133.16 66.27"/><polygon class="cls-4" points="135.7 66.17 134.12 66.23 134.12 63.85 135.7 63.84 135.7 66.17"/><polygon class="cls-4" points="140.34 65.99 138.94 66.05 138.94 63.81 140.34 63.79 140.34 65.99"/><polygon class="cls-4" points="144.48 65.83 143.23 65.88 143.23 63.77 144.48 63.75 144.48 65.83"/><polygon class="cls-4" points="127.58 70.57 125.66 70.73 125.66 68.11 127.58 68 127.58 70.57"/><polygon class="cls-4" points="135.7 69.88 134.12 70.02 134.12 67.64 135.7 67.55 135.7 69.88"/><polygon class="cls-4" points="138.09 69.68 136.6 69.81 136.6 67.5 138.09 67.42 138.09 69.68"/><polygon class="cls-4" points="140.34 69.49 138.94 69.61 138.94 67.37 140.34 67.29 140.34 69.49"/><polygon class="cls-4" points="142.47 69.31 141.14 69.42 141.14 67.25 142.47 67.17 142.47 69.31"/><polygon class="cls-4" points="146.38 68.98 145.2 69.08 145.2 67.02 146.38 66.95 146.38 68.98"/><polygon class="cls-4" points="127.58 74.65 125.66 74.9 125.66 72.28 127.58 72.08 127.58 74.65"/><polygon class="cls-4" points="133.16 73.92 131.48 74.14 131.48 71.69 133.16 71.52 133.16 73.92"/><polygon class="cls-4" points="135.7 73.59 134.12 73.8 134.12 71.42 135.7 71.26 135.7 73.59"/><polygon class="cls-4" points="140.34 72.99 138.94 73.17 138.94 70.93 140.34 70.79 140.34 72.99"/><polygon class="cls-4" points="142.47 72.71 141.14 72.89 141.14 70.71 142.47 70.57 142.47 72.71"/><polygon class="cls-4" points="144.48 72.45 143.23 72.61 143.23 70.5 144.48 70.37 144.48 72.45"/><polygon class="cls-4" points="146.38 72.2 145.2 72.36 145.2 70.3 146.38 70.18 146.38 72.2"/><polygon class="cls-4" points="127.58 78.73 125.66 79.07 125.66 76.45 127.58 76.16 127.58 78.73"/><polygon class="cls-4" points="130.46 78.23 128.67 78.54 128.67 76 130.46 75.74 130.46 78.23"/><polygon class="cls-4" points="135.7 77.3 134.12 77.58 134.12 75.2 135.7 74.97 135.7 77.3"/><polygon class="cls-4" points="142.47 76.11 141.14 76.35 141.14 74.17 142.47 73.97 142.47 76.11"/><polygon class="cls-4" points="144.48 75.76 143.23 75.98 143.23 73.86 144.48 73.68 144.48 75.76"/><polygon class="cls-4" points="146.38 75.42 145.2 75.63 145.2 73.57 146.38 73.4 146.38 75.42"/><polygon class="cls-4" points="127.58 82.81 125.66 83.24 125.66 80.62 127.58 80.25 127.58 82.81"/><polygon class="cls-4" points="133.16 81.58 131.48 81.95 131.48 79.49 133.16 79.17 133.16 81.58"/><polygon class="cls-4" points="135.7 81.01 134.12 81.36 134.12 78.98 135.7 78.68 135.7 81.01"/><polygon class="cls-4" points="140.34 79.98 138.94 80.3 138.94 78.05 140.34 77.78 140.34 79.98"/><polygon class="cls-4" points="142.47 79.51 141.14 79.81 141.14 77.63 142.47 77.37 142.47 79.51"/><polygon class="cls-4" points="144.48 79.07 143.23 79.34 143.23 77.23 144.48 76.98 144.48 79.07"/><polygon class="cls-4" points="146.38 78.64 145.2 78.91 145.2 76.85 146.38 76.62 146.38 78.64"/><polygon class="cls-4" points="130.46 86.13 128.67 86.61 128.67 84.07 130.46 83.64 130.46 86.13"/><polygon class="cls-4" points="138.09 84.08 136.6 84.48 136.6 82.17 138.09 81.82 138.09 84.08"/><polygon class="cls-4" points="144.48 82.38 143.23 82.71 143.23 80.59 144.48 80.29 144.48 82.38"/><polygon class="cls-4" points="146.38 81.86 145.2 82.18 145.2 80.12 146.38 79.84 146.38 81.86"/><polygon class="cls-4" points="130.46 90.08 128.67 90.64 128.67 88.1 130.46 87.59 130.46 90.08"/><polygon class="cls-4" points="138.09 87.69 136.6 88.15 136.6 85.84 138.09 85.42 138.09 87.69"/><polygon class="cls-4" points="142.47 86.31 141.14 86.73 141.14 84.55 142.47 84.17 142.47 86.31"/><polygon class="cls-4" points="146.38 85.09 145.2 85.46 145.2 83.4 146.38 83.06 146.38 85.09"/><polygon class="cls-4" points="127.58 95.06 125.66 95.75 125.66 93.13 127.58 92.49 127.58 95.06"/><polygon class="cls-4" points="144.48 88.99 143.23 89.44 143.23 87.32 144.48 86.91 144.48 88.99"/><polygon class="cls-4" points="146.38 88.31 145.2 88.73 145.2 86.67 146.38 86.28 146.38 88.31"/><polygon class="cls-4" points="127.58 99.14 125.66 99.92 125.66 97.3 127.58 96.58 127.58 99.14"/><polygon class="cls-4" points="133.16 96.88 131.48 97.56 131.48 95.11 133.16 94.47 133.16 96.88"/><polygon class="cls-4" points="140.34 93.97 138.94 94.54 138.94 92.3 140.34 91.77 140.34 93.97"/><polygon class="cls-4" points="144.48 92.3 143.23 92.81 143.23 90.69 144.48 90.22 144.48 92.3"/><polygon class="cls-4" points="146.38 91.53 145.2 92.01 145.2 89.95 146.38 89.5 146.38 91.53"/><polygon class="cls-4" points="138.09 98.49 136.6 99.16 136.6 96.85 138.09 96.22 138.09 98.49"/><polygon class="cls-4" points="142.47 96.51 141.14 97.11 141.14 94.93 142.47 94.37 142.47 96.51"/><polygon class="cls-4" points="135.7 103.27 134.12 104.06 134.12 101.68 135.7 100.94 135.7 103.27"/><polygon class="cls-4" points="140.34 100.97 138.94 101.67 138.94 99.42 140.34 98.77 140.34 100.97"/><polygon class="cls-4" points="142.47 99.91 141.14 100.57 141.14 98.39 142.47 97.78 142.47 99.91"/><polygon class="cls-4" points="144.48 98.92 143.23 99.54 143.23 97.42 144.48 96.83 144.48 98.92"/><polygon class="cls-3" points="219.19 36.08 217.66 36.66 217.66 34.49 219.19 33.88 219.19 36.08"/><polygon class="cls-3" points="214.51 41.12 213.16 41.57 213.16 39.53 214.51 39.05 214.51 41.12"/><polygon class="cls-3" points="221.77 53.24 220.13 53.48 220.13 51.24 221.77 50.96 221.77 53.24"/><polygon class="cls-3" points="216.78 57.36 215.34 57.5 215.34 55.4 216.78 55.22 216.78 57.36"/><polygon class="cls-3" points="216.78 64.15 215.34 64.16 215.34 62.06 216.78 62.01 216.78 64.15"/><polygon class="cls-3" points="219.19 64.13 217.66 64.14 217.66 61.98 219.19 61.92 219.19 64.13"/><polygon class="cls-3" points="212.38 73.76 211.1 73.59 211.1 71.62 212.38 71.75 212.38 73.76"/><polygon class="cls-3" points="221.77 74.98 220.13 74.77 220.13 72.54 221.77 72.7 221.77 74.98"/><polygon class="cls-3" points="219.19 88.67 217.66 88.19 217.66 86.03 219.19 86.47 219.19 88.67"/><polygon class="cls-3" points="214.51 90.5 213.16 90.01 213.16 87.98 214.51 88.42 214.51 90.5"/><polygon class="cls-3" points="210.37 95.21 209.17 94.67 209.17 92.75 210.37 93.26 210.37 95.21"/><polygon class="cls-4" points="204.99 35.68 203.96 36.16 203.96 34.39 204.99 33.88 204.99 35.68"/><polygon class="cls-4" points="206.68 34.89 205.6 35.39 205.6 33.58 206.68 33.04 206.68 34.89"/><polygon class="cls-4" points="208.48 34.05 207.34 34.59 207.34 32.72 208.48 32.16 208.48 34.05"/><polygon class="cls-4" points="216.78 30.19 215.34 30.86 215.34 28.77 216.78 28.06 216.78 30.19"/><polygon class="cls-4" points="219.19 29.07 217.66 29.79 217.66 27.62 219.19 26.86 219.19 29.07"/><polygon class="cls-4" points="204.99 38.53 203.96 38.96 203.96 37.2 204.99 36.74 204.99 38.53"/><polygon class="cls-4" points="206.68 37.82 205.6 38.27 205.6 36.46 206.68 35.98 206.68 37.82"/><polygon class="cls-4" points="208.48 37.07 207.34 37.55 207.34 35.68 208.48 35.17 208.48 37.07"/><polygon class="cls-4" points="210.37 36.27 209.17 36.78 209.17 34.86 210.37 34.32 210.37 36.27"/><polygon class="cls-4" points="212.38 35.43 211.1 35.97 211.1 33.99 212.38 33.42 212.38 35.43"/><polygon class="cls-4" points="214.51 34.54 213.16 35.11 213.16 33.08 214.51 32.47 214.51 34.54"/><polygon class="cls-4" points="204.99 41.39 203.96 41.77 203.96 40.01 204.99 39.59 204.99 41.39"/><polygon class="cls-4" points="206.68 40.76 205.6 41.16 205.6 39.34 206.68 38.91 206.68 40.76"/><polygon class="cls-4" points="210.37 39.38 209.17 39.83 209.17 37.91 210.37 37.42 210.37 39.38"/><polygon class="cls-4" points="212.38 38.63 211.1 39.1 211.1 37.13 212.38 36.62 212.38 38.63"/><polygon class="cls-4" points="216.78 36.98 215.34 37.52 215.34 35.43 216.78 34.85 216.78 36.98"/><polygon class="cls-4" points="204.99 44.24 203.96 44.58 203.96 42.81 204.99 42.45 204.99 44.24"/><polygon class="cls-4" points="206.68 43.69 205.6 44.04 205.6 42.23 206.68 41.84 206.68 43.69"/><polygon class="cls-4" points="208.48 43.1 207.34 43.47 207.34 41.61 208.48 41.2 208.48 43.1"/><polygon class="cls-4" points="210.37 42.48 209.17 42.87 209.17 40.96 210.37 40.53 210.37 42.48"/><polygon class="cls-4" points="212.38 41.82 211.1 42.24 211.1 40.27 212.38 39.81 212.38 41.82"/><polygon class="cls-4" points="216.78 40.38 215.34 40.85 215.34 38.76 216.78 38.24 216.78 40.38"/><polygon class="cls-4" points="221.77 38.74 220.13 39.28 220.13 37.05 221.77 36.46 221.77 38.74"/><polygon class="cls-4" points="204.99 47.1 203.96 47.39 203.96 45.62 204.99 45.3 204.99 47.1"/><polygon class="cls-4" points="206.68 46.62 205.6 46.93 205.6 45.11 206.68 44.78 206.68 46.62"/><polygon class="cls-4" points="208.48 46.12 207.34 46.44 207.34 44.57 208.48 44.22 208.48 46.12"/><polygon class="cls-4" points="210.37 45.58 209.17 45.92 209.17 44 210.37 43.63 210.37 45.58"/><polygon class="cls-4" points="212.38 45.02 211.1 45.38 211.1 43.4 212.38 43.01 212.38 45.02"/><polygon class="cls-4" points="216.78 43.77 215.34 44.18 215.34 42.09 216.78 41.64 216.78 43.77"/><polygon class="cls-4" points="219.19 43.09 217.66 43.53 217.66 41.37 219.19 40.89 219.19 43.09"/><polygon class="cls-4" points="204.99 49.95 203.96 50.2 203.96 48.43 204.99 48.16 204.99 49.95"/><polygon class="cls-4" points="206.68 49.55 205.6 49.81 205.6 47.99 206.68 47.71 206.68 49.55"/><polygon class="cls-4" points="208.48 49.13 207.34 49.4 207.34 47.54 208.48 47.23 208.48 49.13"/><polygon class="cls-4" points="210.37 48.68 209.17 48.97 209.17 47.05 210.37 46.73 210.37 48.68"/><polygon class="cls-4" points="214.51 47.7 213.16 48.02 213.16 45.99 214.51 45.63 214.51 47.7"/><polygon class="cls-4" points="216.78 47.17 215.34 47.51 215.34 45.42 216.78 45.03 216.78 47.17"/><polygon class="cls-4" points="204.99 52.81 203.96 53.01 203.96 51.24 204.99 51.01 204.99 52.81"/><polygon class="cls-4" points="206.68 52.49 205.6 52.69 205.6 50.88 206.68 50.64 206.68 52.49"/><polygon class="cls-4" points="210.37 51.78 209.17 52.02 209.17 50.1 210.37 49.83 210.37 51.78"/><polygon class="cls-4" points="214.51 51 213.16 51.26 213.16 49.22 214.51 48.93 214.51 51"/><polygon class="cls-4" points="219.19 50.11 217.66 50.4 217.66 48.24 219.19 47.9 219.19 50.11"/><polygon class="cls-4" points="221.77 49.62 220.13 49.93 220.13 47.7 221.77 47.34 221.77 49.62"/><polygon class="cls-4" points="204.99 55.67 203.96 55.81 203.96 54.05 204.99 53.87 204.99 55.67"/><polygon class="cls-4" points="206.68 55.42 205.6 55.58 205.6 53.76 206.68 53.58 206.68 55.42"/><polygon class="cls-4" points="208.48 55.16 207.34 55.33 207.34 53.46 208.48 53.26 208.48 55.16"/><polygon class="cls-4" points="210.37 54.89 209.17 55.06 209.17 53.14 210.37 52.94 210.37 54.89"/><polygon class="cls-4" points="212.38 54.6 211.1 54.78 211.1 52.81 212.38 52.59 212.38 54.6"/><polygon class="cls-4" points="214.51 54.29 213.16 54.48 213.16 52.45 214.51 52.22 214.51 54.29"/><polygon class="cls-4" points="204.99 58.52 203.96 58.62 203.96 56.85 204.99 56.73 204.99 58.52"/><polygon class="cls-4" points="206.68 58.35 205.6 58.46 205.6 56.65 206.68 56.51 206.68 58.35"/><polygon class="cls-4" points="208.48 58.18 207.34 58.29 207.34 56.42 208.48 56.28 208.48 58.18"/><polygon class="cls-4" points="210.37 57.99 209.17 58.11 209.17 56.19 210.37 56.04 210.37 57.99"/><polygon class="cls-4" points="212.38 57.79 211.1 57.92 211.1 55.94 212.38 55.78 212.38 57.79"/><polygon class="cls-4" points="221.77 56.86 220.13 57.02 220.13 54.79 221.77 54.58 221.77 56.86"/><polygon class="cls-4" points="204.99 61.38 203.96 61.43 203.96 59.66 204.99 59.58 204.99 61.38"/><polygon class="cls-4" points="206.68 61.29 205.6 61.34 205.6 59.53 206.68 59.44 206.68 61.29"/><polygon class="cls-4" points="208.48 61.19 207.34 61.25 207.34 59.39 208.48 59.29 208.48 61.19"/><polygon class="cls-4" points="212.38 60.98 211.1 61.05 211.1 59.08 212.38 58.98 212.38 60.98"/><polygon class="cls-4" points="214.51 60.87 213.16 60.94 213.16 58.91 214.51 58.8 214.51 60.87"/><polygon class="cls-4" points="221.77 60.49 220.13 60.57 220.13 58.34 221.77 58.21 221.77 60.49"/><polygon class="cls-4" points="204.99 64.23 203.96 64.24 203.96 62.47 204.99 62.44 204.99 64.23"/><polygon class="cls-4" points="206.68 64.22 205.6 64.23 205.6 62.41 206.68 62.37 206.68 64.22"/><polygon class="cls-4" points="208.48 64.21 207.34 64.22 207.34 62.35 208.48 62.31 208.48 64.21"/><polygon class="cls-4" points="212.38 64.18 211.1 64.19 211.1 62.22 212.38 62.17 212.38 64.18"/><polygon class="cls-4" points="221.77 64.11 220.13 64.12 220.13 61.89 221.77 61.83 221.77 64.11"/><polygon class="cls-4" points="204.99 67.09 203.96 67.05 203.96 65.28 204.99 65.29 204.99 67.09"/><polygon class="cls-4" points="206.68 67.15 205.6 67.11 205.6 65.3 206.68 65.31 206.68 67.15"/><polygon class="cls-4" points="208.48 67.22 207.34 67.18 207.34 65.31 208.48 65.33 208.48 67.22"/><polygon class="cls-4" points="210.37 67.3 209.17 67.25 209.17 65.33 210.37 65.34 210.37 67.3"/><polygon class="cls-4" points="214.51 67.45 213.16 67.4 213.16 65.37 214.51 65.38 214.51 67.45"/><polygon class="cls-4" points="221.77 67.73 220.13 67.67 220.13 65.44 221.77 65.45 221.77 67.73"/><polygon class="cls-4" points="204.99 69.94 203.96 69.86 203.96 68.09 204.99 68.15 204.99 69.94"/><polygon class="cls-4" points="206.68 70.09 205.6 70 205.6 68.18 206.68 68.24 206.68 70.09"/><polygon class="cls-4" points="208.48 70.24 207.34 70.14 207.34 68.28 208.48 68.34 208.48 70.24"/><polygon class="cls-4" points="210.37 70.4 209.17 70.3 209.17 68.38 210.37 68.44 210.37 70.4"/><polygon class="cls-4" points="212.38 70.57 211.1 70.46 211.1 68.49 212.38 68.56 212.38 70.57"/><polygon class="cls-4" points="216.78 70.94 215.34 70.82 215.34 68.72 216.78 68.8 216.78 70.94"/><polygon class="cls-4" points="221.77 71.36 220.13 71.22 220.13 68.99 221.77 69.08 221.77 71.36"/><polygon class="cls-4" points="204.99 72.8 203.96 72.67 203.96 70.9 204.99 71 204.99 72.8"/><polygon class="cls-4" points="206.68 73.02 205.6 72.88 205.6 71.06 206.68 71.17 206.68 73.02"/><polygon class="cls-4" points="208.48 73.25 207.34 73.1 207.34 71.24 208.48 71.36 208.48 73.25"/><polygon class="cls-4" points="214.51 74.04 213.16 73.86 213.16 71.83 214.51 71.97 214.51 74.04"/><polygon class="cls-4" points="216.78 74.33 215.34 74.14 215.34 72.05 216.78 72.2 216.78 74.33"/><polygon class="cls-4" points="204.99 75.65 203.96 75.47 203.96 73.71 204.99 73.86 204.99 75.65"/><polygon class="cls-4" points="206.68 75.95 205.6 75.76 205.6 73.95 206.68 74.11 206.68 75.95"/><polygon class="cls-4" points="208.48 76.27 207.34 76.07 207.34 74.2 208.48 74.37 208.48 76.27"/><polygon class="cls-4" points="210.37 76.6 209.17 76.39 209.17 74.47 210.37 74.65 210.37 76.6"/><polygon class="cls-4" points="212.38 76.95 211.1 76.73 211.1 74.76 212.38 74.94 212.38 76.95"/><polygon class="cls-4" points="219.19 78.15 217.66 77.88 217.66 75.72 219.19 75.95 219.19 78.15"/><polygon class="cls-4" points="221.77 78.61 220.13 78.32 220.13 76.08 221.77 76.33 221.77 78.61"/><polygon class="cls-4" points="204.99 78.51 203.96 78.28 203.96 76.51 204.99 76.71 204.99 78.51"/><polygon class="cls-4" points="206.68 78.89 205.6 78.65 205.6 76.83 206.68 77.04 206.68 78.89"/><polygon class="cls-4" points="212.38 80.15 211.1 79.86 211.1 77.89 212.38 78.14 212.38 80.15"/><polygon class="cls-4" points="214.51 80.62 213.16 80.32 213.16 78.29 214.51 78.55 214.51 80.62"/><polygon class="cls-4" points="216.78 81.12 215.34 80.8 215.34 78.71 216.78 78.99 216.78 81.12"/><polygon class="cls-4" points="221.77 82.23 220.13 81.87 220.13 79.63 221.77 79.95 221.77 82.23"/><polygon class="cls-4" points="204.99 81.36 203.96 81.09 203.96 79.32 204.99 79.57 204.99 81.36"/><polygon class="cls-4" points="206.68 81.82 205.6 81.53 205.6 79.72 206.68 79.97 206.68 81.82"/><polygon class="cls-4" points="208.48 82.3 207.34 81.99 207.34 80.13 208.48 80.4 208.48 82.3"/><polygon class="cls-4" points="212.38 83.34 211.1 83 211.1 81.03 212.38 81.33 212.38 83.34"/><polygon class="cls-4" points="221.77 85.85 220.13 85.42 220.13 83.18 221.77 83.57 221.77 85.85"/><polygon class="cls-4" points="204.99 84.22 203.96 83.9 203.96 82.13 204.99 82.42 204.99 84.22"/><polygon class="cls-4" points="206.68 84.75 205.6 84.41 205.6 82.6 206.68 82.91 206.68 84.75"/><polygon class="cls-4" points="208.48 85.31 207.34 84.96 207.34 83.09 208.48 83.42 208.48 85.31"/><polygon class="cls-4" points="210.37 85.91 209.17 85.53 209.17 83.61 210.37 83.95 210.37 85.91"/><polygon class="cls-4" points="212.38 86.54 211.1 86.14 211.1 84.16 212.38 84.53 212.38 86.54"/><polygon class="cls-4" points="204.99 87.07 203.96 86.71 203.96 84.94 204.99 85.28 204.99 87.07"/><polygon class="cls-4" points="206.68 87.68 205.6 87.3 205.6 85.48 206.68 85.84 206.68 87.68"/><polygon class="cls-4" points="208.48 88.33 207.34 87.92 207.34 86.05 208.48 86.43 208.48 88.33"/><polygon class="cls-4" points="210.37 89.01 209.17 88.58 209.17 86.66 210.37 87.06 210.37 89.01"/><polygon class="cls-4" points="221.77 93.1 220.13 92.51 220.13 90.28 221.77 90.82 221.77 93.1"/><polygon class="cls-4" points="204.99 89.93 203.96 89.52 203.96 87.75 204.99 88.13 204.99 89.93"/><polygon class="cls-4" points="206.68 90.62 205.6 90.18 205.6 88.37 206.68 88.77 206.68 90.62"/><polygon class="cls-4" points="208.48 91.34 207.34 90.88 207.34 89.02 208.48 89.45 208.48 91.34"/><polygon class="cls-4" points="206.68 93.55 205.6 93.06 205.6 91.25 206.68 91.7 206.68 93.55"/><polygon class="cls-4" points="221.77 100.35 220.13 99.61 220.13 97.38 221.77 98.07 221.77 100.35"/><polygon class="cls-4" points="204.99 95.64 203.96 95.13 203.96 93.36 204.99 93.84 204.99 95.64"/><polygon class="cls-4" points="208.48 97.37 207.34 96.81 207.34 94.94 208.48 95.48 208.48 97.37"/><polygon class="cls-4" points="214.51 100.37 213.16 99.7 213.16 97.67 214.51 98.3 214.51 100.37"/><polygon class="cls-4" points="216.78 101.5 215.34 100.78 215.34 98.69 216.78 99.36 216.78 101.5"/><polygon class="cls-4" points="221.77 103.97 220.13 103.16 220.13 100.93 221.77 101.69 221.77 103.97"/><polygon class="cls-3" points="241.21 35.83 240.16 35.34 240.16 33.53 241.21 34.04 241.21 35.83"/><polygon class="cls-3" points="231.78 41.26 230.39 40.81 230.39 38.71 231.78 39.2 231.78 41.26"/><polygon class="cls-3" points="224.62 56.91 222.93 56.75 222.93 54.43 224.62 54.65 224.62 56.91"/><polygon class="cls-3" points="231.78 60.9 230.39 60.82 230.39 58.72 231.78 58.84 231.78 60.9"/><polygon class="cls-3" points="241.21 67.08 240.16 67.11 240.16 65.3 241.21 65.29 241.21 67.08"/><polygon class="cls-3" points="233.89 76.88 232.58 77.11 232.58 75.08 233.89 74.89 233.89 76.88"/><polygon class="cls-4" points="224.62 28.11 222.93 27.33 222.93 25.02 224.62 25.85 224.62 28.11"/><polygon class="cls-4" points="227.16 29.3 225.58 28.56 225.58 26.33 227.16 27.11 227.16 29.3"/><polygon class="cls-4" points="229.55 30.41 228.06 29.72 228.06 27.55 229.55 28.28 229.55 30.41"/><polygon class="cls-4" points="233.89 32.43 232.58 31.82 232.58 29.78 233.89 30.43 233.89 32.43"/><polygon class="cls-4" points="235.88 33.35 234.64 32.78 234.64 30.8 235.88 31.41 235.88 33.35"/><polygon class="cls-4" points="239.53 35.05 238.42 34.53 238.42 32.67 239.53 33.21 239.53 35.05"/><polygon class="cls-4" points="224.62 31.71 222.93 31.01 222.93 28.69 224.62 29.45 224.62 31.71"/><polygon class="cls-4" points="231.78 34.72 230.39 34.14 230.39 32.04 231.78 32.66 231.78 34.72"/><polygon class="cls-4" points="235.88 36.44 234.64 35.92 234.64 33.94 235.88 34.49 235.88 36.44"/><polygon class="cls-4" points="237.75 37.22 236.58 36.73 236.58 34.81 237.75 35.34 237.75 37.22"/><polygon class="cls-4" points="241.21 38.67 240.16 38.23 240.16 36.41 241.21 36.88 241.21 38.67"/><polygon class="cls-4" points="224.62 35.31 222.93 34.68 222.93 32.37 224.62 33.05 224.62 35.31"/><polygon class="cls-4" points="231.78 37.99 230.39 37.47 230.39 35.37 231.78 35.93 231.78 37.99"/><polygon class="cls-4" points="233.89 38.78 232.58 38.29 232.58 36.25 233.89 36.78 233.89 38.78"/><polygon class="cls-4" points="237.75 40.22 236.58 39.78 236.58 37.86 237.75 38.33 237.75 40.22"/><polygon class="cls-4" points="241.21 41.51 240.16 41.12 240.16 39.3 241.21 39.72 241.21 41.51"/><polygon class="cls-4" points="224.62 38.91 222.93 38.36 222.93 36.05 224.62 36.65 224.62 38.91"/><polygon class="cls-4" points="227.16 39.75 225.58 39.23 225.58 36.99 227.16 37.56 227.16 39.75"/><polygon class="cls-4" points="233.89 41.95 232.58 41.52 232.58 39.49 233.89 39.96 233.89 41.95"/><polygon class="cls-4" points="235.88 42.6 234.64 42.2 234.64 40.22 235.88 40.66 235.88 42.6"/><polygon class="cls-4" points="237.75 43.22 236.58 42.84 236.58 40.92 237.75 41.33 237.75 43.22"/><polygon class="cls-4" points="241.21 44.35 240.16 44.01 240.16 42.19 241.21 42.56 241.21 44.35"/><polygon class="cls-4" points="224.62 42.52 222.93 42.04 222.93 39.73 224.62 40.25 224.62 42.52"/><polygon class="cls-4" points="227.16 43.23 225.58 42.79 225.58 40.55 227.16 41.04 227.16 43.23"/><polygon class="cls-4" points="229.55 43.9 228.06 43.49 228.06 41.32 229.55 41.78 229.55 43.9"/><polygon class="cls-4" points="233.89 45.13 232.58 44.76 232.58 42.72 233.89 43.13 233.89 45.13"/><polygon class="cls-4" points="237.75 46.22 236.58 45.89 236.58 43.97 237.75 44.33 237.75 46.22"/><polygon class="cls-4" points="239.53 46.72 238.42 46.41 238.42 44.54 239.53 44.88 239.53 46.72"/><polygon class="cls-4" points="241.21 47.19 240.16 46.9 240.16 45.08 241.21 45.41 241.21 47.19"/><polygon class="cls-4" points="224.62 46.12 222.93 45.72 222.93 43.4 224.62 43.85 224.62 46.12"/><polygon class="cls-4" points="231.78 47.81 230.39 47.48 230.39 45.38 231.78 45.75 231.78 47.81"/><polygon class="cls-4" points="233.89 48.3 232.58 47.99 232.58 45.96 233.89 46.31 233.89 48.3"/><polygon class="cls-4" points="235.88 48.77 234.64 48.48 234.64 46.51 235.88 46.83 235.88 48.77"/><polygon class="cls-4" points="241.21 50.03 240.16 49.78 240.16 47.97 241.21 48.24 241.21 50.03"/><polygon class="cls-4" points="224.62 49.72 222.93 49.39 222.93 47.08 224.62 47.45 224.62 49.72"/><polygon class="cls-4" points="227.16 50.2 225.58 49.9 225.58 47.66 227.16 48.01 227.16 50.2"/><polygon class="cls-4" points="229.55 50.65 228.06 50.37 228.06 48.2 229.55 48.53 229.55 50.65"/><polygon class="cls-4" points="231.78 51.08 230.39 50.81 230.39 48.72 231.78 49.02 231.78 51.08"/><polygon class="cls-4" points="235.88 51.86 234.64 51.62 234.64 49.65 235.88 49.92 235.88 51.86"/><polygon class="cls-4" points="237.75 52.22 236.58 51.99 236.58 50.07 237.75 50.33 237.75 52.22"/><polygon class="cls-4" points="239.53 52.55 238.42 52.34 238.42 50.48 239.53 50.72 239.53 52.55"/><polygon class="cls-4" points="241.21 52.87 240.16 52.67 240.16 50.86 241.21 51.09 241.21 52.87"/><polygon class="cls-4" points="227.16 53.68 225.58 53.45 225.58 51.22 227.16 51.49 227.16 53.68"/><polygon class="cls-4" points="229.55 54.03 228.06 53.81 228.06 51.65 229.55 51.9 229.55 54.03"/><polygon class="cls-4" points="233.89 54.66 232.58 54.47 232.58 52.43 233.89 52.66 233.89 54.66"/><polygon class="cls-4" points="235.88 54.94 234.64 54.76 234.64 52.79 235.88 53 235.88 54.94"/><polygon class="cls-4" points="241.21 55.71 240.16 55.56 240.16 53.74 241.21 53.93 241.21 55.71"/><polygon class="cls-4" points="227.16 57.17 225.58 57.01 225.58 54.77 227.16 54.97 227.16 57.17"/><polygon class="cls-4" points="229.55 57.4 228.06 57.26 228.06 55.09 229.55 55.28 229.55 57.4"/><polygon class="cls-4" points="235.88 58.03 234.64 57.91 234.64 55.93 235.88 56.09 235.88 58.03"/><polygon class="cls-4" points="237.75 58.21 236.58 58.1 236.58 56.18 237.75 56.33 237.75 58.21"/><polygon class="cls-4" points="239.53 58.39 238.42 58.28 238.42 56.41 239.53 56.55 239.53 58.39"/><polygon class="cls-4" points="241.21 58.55 240.16 58.45 240.16 56.63 241.21 56.77 241.21 58.55"/><polygon class="cls-4" points="224.62 60.52 222.93 60.42 222.93 58.11 224.62 58.25 224.62 60.52"/><polygon class="cls-4" points="233.89 61.01 232.58 60.94 232.58 58.9 233.89 59.01 233.89 61.01"/><polygon class="cls-4" points="237.75 61.21 236.58 61.15 236.58 59.23 237.75 59.32 237.75 61.21"/><polygon class="cls-4" points="239.53 61.3 238.42 61.25 238.42 59.38 239.53 59.47 239.53 61.3"/><polygon class="cls-4" points="241.21 61.39 240.16 61.34 240.16 59.52 241.21 59.61 241.21 61.39"/><polygon class="cls-4" points="227.16 64.13 225.58 64.12 225.58 61.88 227.16 61.94 227.16 64.13"/><polygon class="cls-4" points="229.55 64.15 228.06 64.14 228.06 61.97 229.55 62.03 229.55 64.15"/><polygon class="cls-4" points="233.89 64.18 232.58 64.17 232.58 62.14 233.89 62.18 233.89 64.18"/><polygon class="cls-4" points="235.88 64.2 234.64 64.19 234.64 62.21 235.88 62.26 235.88 64.2"/><polygon class="cls-4" points="241.21 64.23 240.16 64.23 240.16 62.41 241.21 62.45 241.21 64.23"/><polygon class="cls-4" points="224.62 67.72 222.93 67.78 222.93 65.47 224.62 65.45 224.62 67.72"/><polygon class="cls-4" points="227.16 67.62 225.58 67.68 225.58 65.44 227.16 65.42 227.16 67.62"/><polygon class="cls-4" points="229.55 67.53 228.06 67.58 228.06 65.42 229.55 65.4 229.55 67.53"/><polygon class="cls-4" points="231.78 67.44 230.39 67.49 230.39 65.39 231.78 65.38 231.78 67.44"/><polygon class="cls-4" points="235.88 67.28 234.64 67.33 234.64 65.35 235.88 65.34 235.88 67.28"/><polygon class="cls-4" points="239.53 67.14 238.42 67.18 238.42 65.31 239.53 65.3 239.53 67.14"/><polygon class="cls-4" points="224.62 71.31 222.93 71.46 222.93 69.14 224.62 69.05 224.62 71.31"/><polygon class="cls-4" points="231.78 70.71 230.39 70.83 230.39 68.73 231.78 68.65 231.78 70.71"/><polygon class="cls-4" points="233.89 70.53 232.58 70.64 232.58 68.61 233.89 68.53 233.89 70.53"/><polygon class="cls-4" points="235.88 70.36 234.64 70.47 234.64 68.49 235.88 68.42 235.88 70.36"/><polygon class="cls-4" points="237.75 70.21 236.58 70.31 236.58 68.39 237.75 68.32 237.75 70.21"/><polygon class="cls-4" points="241.21 69.92 240.16 70 240.16 68.19 241.21 68.13 241.21 69.92"/><polygon class="cls-4" points="224.62 74.92 222.93 75.13 222.93 72.82 224.62 72.65 224.62 74.92"/><polygon class="cls-4" points="229.55 74.27 228.06 74.47 228.06 72.3 229.55 72.15 229.55 74.27"/><polygon class="cls-4" points="231.78 73.98 230.39 74.16 230.39 72.06 231.78 71.92 231.78 73.98"/><polygon class="cls-4" points="235.88 73.45 234.64 73.61 234.64 71.63 235.88 71.51 235.88 73.45"/><polygon class="cls-4" points="237.75 73.2 236.58 73.36 236.58 71.44 237.75 71.32 237.75 73.2"/><polygon class="cls-4" points="239.53 72.97 238.42 73.12 238.42 71.25 239.53 71.14 239.53 72.97"/><polygon class="cls-4" points="241.21 72.75 240.16 72.89 240.16 71.07 241.21 70.97 241.21 72.75"/><polygon class="cls-4" points="224.62 78.52 222.93 78.81 222.93 76.5 224.62 76.25 224.62 78.52"/><polygon class="cls-4" points="227.16 78.07 225.58 78.34 225.58 76.11 227.16 75.88 227.16 78.07"/><polygon class="cls-4" points="231.78 77.25 230.39 77.5 230.39 75.4 231.78 75.19 231.78 77.25"/><polygon class="cls-4" points="237.75 76.2 236.58 76.41 236.58 74.49 237.75 74.32 237.75 76.2"/><polygon class="cls-4" points="239.53 75.89 238.42 76.09 238.42 74.22 239.53 74.06 239.53 75.89"/><polygon class="cls-4" points="241.21 75.6 240.16 75.78 240.16 73.96 241.21 73.81 241.21 75.6"/><polygon class="cls-4" points="224.62 82.11 222.93 82.49 222.93 80.17 224.62 79.85 224.62 82.11"/><polygon class="cls-4" points="229.55 81.02 228.06 81.35 228.06 79.19 229.55 78.9 229.55 81.02"/><polygon class="cls-4" points="231.78 80.53 230.39 80.83 230.39 78.74 231.78 78.47 231.78 80.53"/><polygon class="cls-4" points="235.88 79.62 234.64 79.89 234.64 77.92 235.88 77.68 235.88 79.62"/><polygon class="cls-4" points="237.75 79.2 236.58 79.46 236.58 77.54 237.75 77.31 237.75 79.2"/><polygon class="cls-4" points="239.53 78.81 238.42 79.05 238.42 77.19 239.53 76.97 239.53 78.81"/><polygon class="cls-4" points="241.21 78.44 240.16 78.67 240.16 76.85 241.21 76.65 241.21 78.44"/><polygon class="cls-4" points="227.16 85.03 225.58 85.46 225.58 83.22 227.16 82.84 227.16 85.03"/><polygon class="cls-4" points="233.89 83.23 232.58 83.58 232.58 81.55 233.89 81.24 233.89 83.23"/><polygon class="cls-4" points="239.53 81.73 238.42 82.02 238.42 80.15 239.53 79.89 239.53 81.73"/><polygon class="cls-4" points="241.21 81.28 240.16 81.56 240.16 79.74 241.21 79.49 241.21 81.28"/><polygon class="cls-4" points="227.16 88.52 225.58 89.01 225.58 86.78 227.16 86.33 227.16 88.52"/><polygon class="cls-4" points="233.89 86.41 232.58 86.82 232.58 84.78 233.89 84.41 233.89 86.41"/><polygon class="cls-4" points="237.75 85.2 236.58 85.56 236.58 83.64 237.75 83.31 237.75 85.2"/><polygon class="cls-4" points="241.21 84.12 240.16 84.44 240.16 82.63 241.21 82.33 241.21 84.12"/><polygon class="cls-4" points="224.62 92.91 222.93 93.52 222.93 91.21 224.62 90.65 224.62 92.91"/><polygon class="cls-4" points="239.53 87.56 238.42 87.96 238.42 86.09 239.53 85.72 239.53 87.56"/><polygon class="cls-4" points="241.21 86.96 240.16 87.33 240.16 85.52 241.21 85.17 241.21 86.96"/><polygon class="cls-4" points="224.62 96.51 222.93 97.2 222.93 94.88 224.62 94.25 224.62 96.51"/><polygon class="cls-4" points="229.55 94.52 228.06 95.12 228.06 92.95 229.55 92.4 229.55 94.52"/><polygon class="cls-4" points="235.88 91.96 234.64 92.46 234.64 90.48 235.88 90.02 235.88 91.96"/><polygon class="cls-4" points="239.53 90.48 238.42 90.93 238.42 89.06 239.53 88.64 239.53 90.48"/><polygon class="cls-4" points="241.21 89.8 240.16 90.22 240.16 88.4 241.21 88.01 241.21 89.8"/><polygon class="cls-4" points="233.89 95.94 232.58 96.53 232.58 94.49 233.89 93.94 233.89 95.94"/><polygon class="cls-4" points="237.75 94.19 236.58 94.72 236.58 92.8 237.75 92.31 237.75 94.19"/><polygon class="cls-4" points="231.78 100.16 230.39 100.85 230.39 98.75 231.78 98.1 231.78 100.16"/><polygon class="cls-4" points="235.88 98.13 234.64 98.74 234.64 96.76 235.88 96.18 235.88 98.13"/><polygon class="cls-4" points="237.75 97.19 236.58 97.77 236.58 95.85 237.75 95.31 237.75 97.19"/><polygon class="cls-4" points="239.53 96.31 238.42 96.86 238.42 94.99 239.53 94.48 239.53 96.31"/><polygon class="cls-3" points="157.92 24.88 155.83 25.66 155.83 22.33 157.92 21.49 157.92 24.88"/><polygon class="cls-3" points="154.63 36.55 152.66 37.1 152.66 33.87 154.63 33.26 154.63 36.55"/><polygon class="cls-3" points="154.63 41.77 152.66 42.24 152.66 39.01 154.63 38.48 154.63 41.77"/><polygon class="cls-3" points="173.19 43.46 170.53 43.97 170.53 40.22 173.19 39.64 173.19 43.46"/><polygon class="cls-3" points="157.92 57.11 155.83 57.32 155.83 54 157.92 53.73 157.92 57.11"/><polygon class="cls-3" points="154.63 73.11 152.66 73.03 152.66 69.8 154.63 69.82 154.63 73.11"/><polygon class="cls-3" points="173.19 73.82 170.53 73.72 170.53 69.97 173.19 70 173.19 73.82"/><polygon class="cls-3" points="154.63 83.55 152.66 83.29 152.66 80.06 154.63 80.27 154.63 83.55"/><polygon class="cls-3" points="173.19 85.97 170.53 85.62 170.53 81.88 173.19 82.15 173.19 85.97"/><polygon class="cls-3" points="173.19 98.11 170.53 97.52 170.53 93.78 173.19 94.29 173.19 98.11"/><polygon class="cls-3" points="154.63 109.66 152.66 108.95 152.66 105.73 154.63 106.38 154.63 109.66"/><polygon class="cls-4" points="151.53 17.1 149.66 17.97 149.66 14.83 151.53 13.9 151.53 17.1"/><polygon class="cls-4" points="157.92 14.13 155.83 15.1 155.83 11.78 157.92 10.75 157.92 14.13"/><polygon class="cls-4" points="165.09 10.79 162.74 11.88 162.74 8.37 165.09 7.21 165.09 10.79"/><polygon class="cls-4" points="169.01 8.97 166.52 10.13 166.52 6.5 169.01 5.27 169.01 8.97"/><polygon class="cls-4" points="148.59 23.41 146.82 24.16 146.82 21.1 148.59 20.3 148.59 23.41"/><polygon class="cls-4" points="151.53 22.18 149.66 22.96 149.66 19.82 151.53 18.98 151.53 22.18"/><polygon class="cls-4" points="157.92 19.5 155.83 20.38 155.83 17.06 157.92 16.12 157.92 19.5"/><polygon class="cls-4" points="165.09 16.49 162.74 17.48 162.74 13.96 165.09 12.91 165.09 16.49"/><polygon class="cls-4" points="169.01 14.85 166.52 15.9 166.52 12.27 169.01 11.15 169.01 14.85"/><polygon class="cls-4" points="173.19 13.1 170.53 14.21 170.53 10.47 173.19 9.27 173.19 13.1"/><polygon class="cls-4" points="177.66 11.22 174.81 12.42 174.81 8.55 177.66 7.27 177.66 11.22"/><polygon class="cls-4" points="148.59 28.36 146.82 29.02 146.82 25.96 148.59 25.25 148.59 28.36"/><polygon class="cls-4" points="151.53 27.26 149.66 27.96 149.66 24.82 151.53 24.07 151.53 27.26"/><polygon class="cls-4" points="154.63 26.1 152.66 26.84 152.66 23.61 154.63 22.82 154.63 26.1"/><polygon class="cls-4" points="161.4 23.57 159.19 24.4 159.19 20.98 161.4 20.09 161.4 23.57"/><polygon class="cls-4" points="165.09 22.2 162.74 23.07 162.74 19.55 165.09 18.61 165.09 22.2"/><polygon class="cls-4" points="173.19 19.17 170.53 20.16 170.53 16.42 173.19 15.35 173.19 19.17"/><polygon class="cls-4" points="177.66 17.5 174.81 18.56 174.81 14.7 177.66 13.55 177.66 17.5"/><polygon class="cls-4" points="148.59 33.31 146.82 33.89 146.82 30.83 148.59 30.2 148.59 33.31"/><polygon class="cls-4" points="151.53 32.34 149.66 32.95 149.66 29.81 151.53 29.15 151.53 32.34"/><polygon class="cls-4" points="154.63 31.32 152.66 31.97 152.66 28.74 154.63 28.04 154.63 31.32"/><polygon class="cls-4" points="161.4 29.11 159.19 29.83 159.19 26.41 161.4 25.63 161.4 29.11"/><polygon class="cls-4" points="165.09 27.9 162.74 28.67 162.74 25.15 165.09 24.31 165.09 27.9"/><polygon class="cls-4" points="169.01 26.61 166.52 27.43 166.52 23.8 169.01 22.91 169.01 26.61"/><polygon class="cls-4" points="173.19 25.24 170.53 26.11 170.53 22.37 173.19 21.42 173.19 25.24"/><polygon class="cls-4" points="148.59 38.25 146.82 38.75 146.82 35.69 148.59 35.14 148.59 38.25"/><polygon class="cls-4" points="151.53 37.42 149.66 37.95 149.66 34.81 151.53 34.23 151.53 37.42"/><polygon class="cls-4" points="157.92 35.62 155.83 36.21 155.83 32.89 157.92 32.24 157.92 35.62"/><polygon class="cls-4" points="161.4 34.64 159.19 35.26 159.19 31.85 161.4 31.16 161.4 34.64"/><polygon class="cls-4" points="169.01 32.49 166.52 33.2 166.52 29.57 169.01 28.79 169.01 32.49"/><polygon class="cls-4" points="177.66 30.05 174.81 30.86 174.81 26.99 177.66 26.11 177.66 30.05"/><polygon class="cls-4" points="148.59 43.2 146.82 43.62 146.82 40.55 148.59 40.09 148.59 43.2"/><polygon class="cls-4" points="151.53 42.5 149.66 42.95 149.66 39.8 151.53 39.31 151.53 42.5"/><polygon class="cls-4" points="157.92 40.99 155.83 41.49 155.83 38.17 157.92 37.61 157.92 40.99"/><polygon class="cls-4" points="161.4 40.17 159.19 40.7 159.19 37.28 161.4 36.69 161.4 40.17"/><polygon class="cls-4" points="165.09 39.3 162.74 39.85 162.74 36.34 165.09 35.71 165.09 39.3"/><polygon class="cls-4" points="169.01 38.37 166.52 38.96 166.52 35.34 169.01 34.67 169.01 38.37"/><polygon class="cls-4" points="177.66 36.33 174.81 37 174.81 33.13 177.66 32.38 177.66 36.33"/><polygon class="cls-4" points="148.59 48.14 146.82 48.48 146.82 45.42 148.59 45.03 148.59 48.14"/><polygon class="cls-4" points="151.53 47.58 149.66 47.94 149.66 44.8 151.53 44.39 151.53 47.58"/><polygon class="cls-4" points="157.92 46.37 155.83 46.77 155.83 43.44 157.92 42.99 157.92 46.37"/><polygon class="cls-4" points="161.4 45.7 159.19 46.13 159.19 42.71 161.4 42.22 161.4 45.7"/><polygon class="cls-4" points="169.01 44.25 166.52 44.73 166.52 41.1 169.01 40.55 169.01 44.25"/><polygon class="cls-4" points="177.66 42.61 174.81 43.15 174.81 39.28 177.66 38.66 177.66 42.61"/><polygon class="cls-4" points="148.59 53.09 146.82 53.34 146.82 50.28 148.59 49.98 148.59 53.09"/><polygon class="cls-4" points="151.53 52.66 149.66 52.93 149.66 49.79 151.53 49.47 151.53 52.66"/><polygon class="cls-4" points="154.63 52.22 152.66 52.5 152.66 49.27 154.63 48.93 154.63 52.22"/><polygon class="cls-4" points="157.92 51.74 155.83 52.04 155.83 48.72 157.92 48.36 157.92 51.74"/><polygon class="cls-4" points="161.4 51.24 159.19 51.56 159.19 48.14 161.4 47.76 161.4 51.24"/><polygon class="cls-4" points="165.09 50.7 162.74 51.04 162.74 47.52 165.09 47.12 165.09 50.7"/><polygon class="cls-4" points="169.01 50.14 166.52 50.5 166.52 46.87 169.01 46.44 169.01 50.14"/><polygon class="cls-4" points="177.66 48.89 174.81 49.3 174.81 45.43 177.66 44.94 177.66 48.89"/><polygon class="cls-4" points="148.59 58.03 146.82 58.21 146.82 55.15 148.59 54.92 148.59 58.03"/><polygon class="cls-4" points="151.53 57.74 149.66 57.93 149.66 54.79 151.53 54.55 151.53 57.74"/><polygon class="cls-4" points="154.63 57.44 152.66 57.63 152.66 54.4 154.63 54.15 154.63 57.44"/><polygon class="cls-4" points="161.4 56.77 159.19 56.99 159.19 53.57 161.4 53.29 161.4 56.77"/><polygon class="cls-4" points="165.09 56.41 162.74 56.64 162.74 53.12 165.09 52.82 165.09 56.41"/><polygon class="cls-4" points="169.01 56.02 166.52 56.26 166.52 52.63 169.01 52.32 169.01 56.02"/><polygon class="cls-4" points="173.16 55.6 170.5 55.87 170.5 52.12 173.16 51.78 173.16 55.6"/><polygon class="cls-4" points="177.66 55.16 174.81 55.44 174.81 51.58 177.66 51.21 177.66 55.16"/><polygon class="cls-4" points="148.59 62.98 146.82 63.08 146.82 60.01 148.59 59.87 148.59 62.98"/><polygon class="cls-4" points="154.63 62.66 152.66 62.77 152.66 59.54 154.63 59.37 154.63 62.66"/><polygon class="cls-4" points="157.92 62.49 155.83 62.6 155.83 59.28 157.92 59.1 157.92 62.49"/><polygon class="cls-4" points="161.4 62.3 159.19 62.42 159.19 59 161.4 58.82 161.4 62.3"/><polygon class="cls-4" points="165.09 62.11 162.74 62.23 162.74 58.71 165.09 58.52 165.09 62.11"/><polygon class="cls-4" points="169.01 61.9 166.52 62.03 166.52 58.4 169.01 58.2 169.01 61.9"/><polygon class="cls-4" points="173.19 61.68 170.53 61.82 170.53 58.07 173.19 57.85 173.19 61.68"/><polygon class="cls-4" points="177.66 61.44 174.81 61.59 174.81 57.72 177.66 57.49 177.66 61.44"/><polygon class="cls-4" points="148.59 67.93 146.82 67.94 146.82 64.88 148.59 64.81 148.59 67.93"/><polygon class="cls-4" points="151.53 67.91 149.66 67.92 149.66 64.78 151.53 64.71 151.53 67.91"/><polygon class="cls-4" points="154.63 67.88 152.66 67.9 152.66 64.67 154.63 64.6 154.63 67.88"/><polygon class="cls-4" points="161.4 67.83 159.19 67.85 159.19 64.43 161.4 64.35 161.4 67.83"/><polygon class="cls-4" points="169.01 67.78 166.52 67.8 166.52 64.17 169.01 64.08 169.01 67.78"/><polygon class="cls-4" points="173.19 67.75 170.53 67.77 170.53 64.02 173.19 63.93 173.19 67.75"/><polygon class="cls-4" points="177.66 67.72 174.81 67.74 174.81 63.87 177.66 63.77 177.66 67.72"/><polygon class="cls-4" points="148.59 72.87 146.82 72.8 146.82 69.74 148.59 69.76 148.59 72.87"/><polygon class="cls-4" points="151.53 72.99 149.66 72.91 149.66 69.77 151.53 69.79 151.53 72.99"/><polygon class="cls-4" points="161.4 73.37 159.19 73.28 159.19 69.86 161.4 69.89 161.4 73.37"/><polygon class="cls-4" points="165.09 73.51 162.74 73.42 162.74 69.9 165.09 69.92 165.09 73.51"/><polygon class="cls-4" points="177.66 73.99 174.81 73.88 174.81 70.02 177.66 70.04 177.66 73.99"/><polygon class="cls-4" points="148.59 77.82 146.82 77.67 146.82 74.61 148.59 74.71 148.59 77.82"/><polygon class="cls-4" points="151.53 78.07 149.66 77.91 149.66 74.77 151.53 74.87 151.53 78.07"/><polygon class="cls-4" points="154.63 78.33 152.66 78.16 152.66 74.93 154.63 75.04 154.63 78.33"/><polygon class="cls-4" points="157.92 78.61 155.83 78.43 155.83 75.11 157.92 75.22 157.92 78.61"/><polygon class="cls-4" points="161.4 78.9 159.19 78.71 159.19 75.3 161.4 75.42 161.4 78.9"/><polygon class="cls-4" points="165.09 79.21 162.74 79.01 162.74 75.49 165.09 75.62 165.09 79.21"/><polygon class="cls-4" points="169.01 79.54 166.52 79.33 166.52 75.7 169.01 75.84 169.01 79.54"/><polygon class="cls-4" points="173.19 79.89 170.53 79.67 170.53 75.93 173.19 76.07 173.19 79.89"/><polygon class="cls-4" points="177.66 80.27 174.81 80.03 174.81 76.16 177.66 76.32 177.66 80.27"/><polygon class="cls-4" points="148.59 82.76 146.82 82.53 146.82 79.47 148.59 79.65 148.59 82.76"/><polygon class="cls-4" points="151.53 83.15 149.66 82.9 149.66 79.76 151.53 79.95 151.53 83.15"/><polygon class="cls-4" points="157.92 83.98 155.83 83.71 155.83 80.39 157.92 80.6 157.92 83.98"/><polygon class="cls-4" points="161.4 84.43 159.19 84.14 159.19 80.73 161.4 80.95 161.4 84.43"/><polygon class="cls-4" points="165.09 84.91 162.74 84.61 162.74 81.09 165.09 81.33 165.09 84.91"/><polygon class="cls-4" points="148.59 87.71 146.82 87.4 146.82 84.34 148.59 84.6 148.59 87.71"/><polygon class="cls-4" points="151.53 88.23 149.66 87.9 149.66 84.75 151.53 85.03 151.53 88.23"/><polygon class="cls-4" points="154.63 88.77 152.66 88.43 152.66 85.2 154.63 85.49 154.63 88.77"/><polygon class="cls-4" points="161.4 89.96 159.19 89.57 159.19 86.16 161.4 86.48 161.4 89.96"/><polygon class="cls-4" points="165.09 90.61 162.74 90.2 162.74 86.68 165.09 87.03 165.09 90.61"/><polygon class="cls-4" points="169.01 91.3 166.52 90.86 166.52 87.24 169.01 87.6 169.01 91.3"/><polygon class="cls-4" points="177.66 92.83 174.81 92.33 174.81 88.46 177.66 88.88 177.66 92.83"/><polygon class="cls-4" points="148.59 92.66 146.82 92.26 146.82 89.2 148.59 89.54 148.59 92.66"/><polygon class="cls-4" points="151.53 93.31 149.66 92.89 149.66 89.75 151.53 90.11 151.53 93.31"/><polygon class="cls-4" points="161.4 95.5 159.19 95 159.19 91.59 161.4 92.02 161.4 95.5"/><polygon class="cls-4" points="169.01 97.19 166.52 96.63 166.52 93 169.01 93.48 169.01 97.19"/><polygon class="cls-4" points="177.66 99.1 174.81 98.47 174.81 94.6 177.66 95.15 177.66 99.1"/><polygon class="cls-4" points="151.53 98.39 149.66 97.89 149.66 94.75 151.53 95.19 151.53 98.39"/><polygon class="cls-4" points="154.63 99.22 152.66 98.69 152.66 95.46 154.63 95.93 154.63 99.22"/><polygon class="cls-4" points="151.53 103.47 149.66 102.88 149.66 99.74 151.53 100.27 151.53 103.47"/><polygon class="cls-4" points="177.66 111.66 174.81 110.77 174.81 106.9 177.66 107.71 177.66 111.66"/><polygon class="cls-4" points="148.59 107.49 146.82 106.86 146.82 103.8 148.59 104.38 148.59 107.49"/><polygon class="cls-4" points="151.53 108.55 149.66 107.88 149.66 104.73 151.53 105.35 151.53 108.55"/><polygon class="cls-4" points="161.4 112.09 159.19 111.3 159.19 107.88 161.4 108.61 161.4 112.09"/><polygon class="cls-4" points="169.01 114.83 166.52 113.93 166.52 110.3 169.01 111.13 169.01 114.83"/><polygon class="cls-4" points="148.59 112.44 146.82 111.72 146.82 108.66 148.59 109.33 148.59 112.44"/><polygon class="cls-4" points="154.63 114.89 152.66 114.09 152.66 110.86 154.63 111.6 154.63 114.89"/><polygon class="cls-4" points="165.09 119.12 162.74 118.17 162.74 114.65 165.09 115.53 165.09 119.12"/><polygon class="cls-4" points="148.59 117.38 146.82 116.58 146.82 113.52 148.59 114.27 148.59 117.38"/><polygon class="cls-4" points="154.63 120.11 152.66 119.22 152.66 115.99 154.63 116.82 154.63 120.11"/><polygon class="cls-4" points="169.01 126.59 166.52 125.47 166.52 121.84 169.01 122.89 169.01 126.59"/><polygon class="cls-4" points="151.53 123.79 149.66 122.86 149.66 119.72 151.53 120.59 151.53 123.79"/><polygon class="cls-4" points="173.19 134.55 170.53 133.23 170.53 129.48 173.19 130.73 173.19 134.55"/><polygon class="cls-3" points="202.09 25.12 199.95 24.32 199.95 20.9 202.09 21.76 202.09 25.12"/><polygon class="cls-3" points="187 25.52 184.27 24.62 184.27 20.75 187 21.72 187 25.52"/><polygon class="cls-3" points="182.6 42.78 179.68 42.23 179.68 38.22 182.6 38.86 182.6 42.78"/><polygon class="cls-3" points="198.66 51.34 196.38 51.01 196.38 47.48 198.66 47.88 198.66 51.34"/><polygon class="cls-3" points="191.13 61.94 188.56 61.8 188.56 58.05 191.13 58.26 191.13 61.94"/><polygon class="cls-3" points="205.34 67.89 203.32 67.87 203.32 64.55 205.34 64.62 205.34 67.89"/><polygon class="cls-3" points="187 79.82 184.27 80.05 184.27 76.18 187 76.03 187 79.82"/><polygon class="cls-3" points="198.66 78.84 196.38 79.03 196.38 75.5 198.66 75.38 198.66 78.84"/><polygon class="cls-3" points="198.66 100.84 196.38 101.45 196.38 97.92 198.66 97.38 198.66 100.84"/><polygon class="cls-3" points="191.13 114.54 188.56 115.47 188.56 111.71 191.13 110.87 191.13 114.54"/><polygon class="cls-4" points="182.6 5.37 179.68 4.01 179.68 0 182.6 1.45 182.6 5.37"/><polygon class="cls-4" points="191.13 9.34 188.56 8.14 188.56 4.39 191.13 5.66 191.13 9.34"/><polygon class="cls-4" points="195.01 11.14 192.6 10.02 192.6 6.38 195.01 7.58 195.01 11.14"/><polygon class="cls-4" points="202.09 14.44 199.95 13.44 199.95 10.02 202.09 11.08 202.09 14.44"/><polygon class="cls-4" points="205.34 15.95 203.32 15.01 203.32 11.68 205.34 12.68 205.34 15.95"/><polygon class="cls-4" points="211.32 18.73 209.51 17.89 209.51 14.74 211.32 15.64 211.32 18.73"/><polygon class="cls-4" points="182.6 11.6 179.68 10.38 179.68 6.37 182.6 7.68 182.6 11.6"/><polygon class="cls-4" points="187 13.45 184.27 12.3 184.27 8.43 187 9.65 187 13.45"/><polygon class="cls-4" points="191.13 15.18 188.56 14.11 188.56 10.35 191.13 11.5 191.13 15.18"/><polygon class="cls-4" points="198.66 18.34 196.38 17.39 196.38 13.86 198.66 14.88 198.66 18.34"/><polygon class="cls-4" points="208.41 22.43 206.5 21.63 206.5 18.39 208.41 19.25 208.41 22.43"/><polygon class="cls-4" points="211.32 23.65 209.51 22.89 209.51 19.74 211.32 20.55 211.32 23.65"/><polygon class="cls-4" points="187 19.48 184.27 18.46 184.27 14.59 187 15.69 187 19.48"/><polygon class="cls-4" points="191.13 21.03 188.56 20.07 188.56 16.32 191.13 17.35 191.13 21.03"/><polygon class="cls-4" points="195.01 22.48 192.6 21.57 192.6 17.94 195.01 18.91 195.01 22.48"/><polygon class="cls-4" points="198.66 23.84 196.38 22.99 196.38 19.46 198.66 20.38 198.66 23.84"/><polygon class="cls-4" points="205.34 26.34 203.32 25.58 203.32 22.25 205.34 23.07 205.34 26.34"/><polygon class="cls-4" points="208.41 27.48 206.5 26.77 206.5 23.54 208.41 24.3 208.41 27.48"/><polygon class="cls-4" points="211.32 28.57 209.51 27.89 209.51 24.75 211.32 25.48 211.32 28.57"/><polygon class="cls-4" points="182.6 24.07 179.68 23.12 179.68 19.11 182.6 20.15 182.6 24.07"/><polygon class="cls-4" points="195.01 28.14 192.6 27.35 192.6 23.72 195.01 24.58 195.01 28.14"/><polygon class="cls-4" points="198.66 29.34 196.38 28.59 196.38 25.07 198.66 25.88 198.66 29.34"/><polygon class="cls-4" points="202.09 30.47 199.95 29.76 199.95 26.34 202.09 27.1 202.09 30.47"/><polygon class="cls-4" points="205.34 31.53 203.32 30.87 203.32 27.54 205.34 28.26 205.34 31.53"/><polygon class="cls-4" points="208.41 32.54 206.5 31.91 206.5 28.68 208.41 29.36 208.41 32.54"/><polygon class="cls-4" points="211.32 33.49 209.51 32.9 209.51 29.75 211.32 30.39 211.32 33.49"/><polygon class="cls-4" points="187 31.55 184.27 30.78 184.27 26.91 187 27.76 187 31.55"/><polygon class="cls-4" points="191.13 32.72 188.56 31.99 188.56 28.24 191.13 29.04 191.13 32.72"/><polygon class="cls-4" points="195.01 33.81 192.6 33.13 192.6 29.49 195.01 30.24 195.01 33.81"/><polygon class="cls-4" points="198.66 34.84 196.38 34.2 196.38 30.67 198.66 31.38 198.66 34.84"/><polygon class="cls-4" points="202.09 35.81 199.95 35.2 199.95 31.78 202.09 32.45 202.09 35.81"/><polygon class="cls-4" points="208.41 37.59 206.5 37.05 206.5 33.82 208.41 34.41 208.41 37.59"/><polygon class="cls-4" points="211.32 38.41 209.51 37.9 209.51 34.75 211.32 35.31 211.32 38.41"/><polygon class="cls-4" points="182.6 36.55 179.68 35.85 179.68 31.85 182.6 32.62 182.6 36.55"/><polygon class="cls-4" points="187 37.59 184.27 36.94 184.27 33.06 187 33.79 187 37.59"/><polygon class="cls-4" points="191.13 38.56 188.56 37.95 188.56 34.2 191.13 34.88 191.13 38.56"/><polygon class="cls-4" points="198.66 40.34 196.38 39.8 196.38 36.28 198.66 36.88 198.66 40.34"/><polygon class="cls-4" points="202.09 41.15 199.95 40.65 199.95 37.22 202.09 37.79 202.09 41.15"/><polygon class="cls-4" points="205.34 41.92 203.32 41.44 203.32 38.11 205.34 38.65 205.34 41.92"/><polygon class="cls-4" points="208.41 42.64 206.5 42.19 206.5 38.96 208.41 39.46 208.41 42.64"/><polygon class="cls-4" points="211.32 43.33 209.51 42.9 209.51 39.76 211.32 40.23 211.32 43.33"/><polygon class="cls-4" points="187 43.62 184.27 43.1 184.27 39.22 187 39.82 187 43.62"/><polygon class="cls-4" points="195.01 45.14 192.6 44.69 192.6 41.05 195.01 41.58 195.01 45.14"/><polygon class="cls-4" points="198.66 45.84 196.38 45.41 196.38 41.88 198.66 42.38 198.66 45.84"/><polygon class="cls-4" points="202.09 46.49 199.95 46.09 199.95 42.66 202.09 43.13 202.09 46.49"/><polygon class="cls-4" points="205.34 47.11 203.32 46.73 203.32 43.4 205.34 43.84 205.34 47.11"/><polygon class="cls-4" points="208.41 47.7 206.5 47.33 206.5 44.1 208.41 44.52 208.41 47.7"/><polygon class="cls-4" points="211.32 48.25 209.51 47.91 209.51 44.76 211.32 45.16 211.32 48.25"/><polygon class="cls-4" points="187 49.65 184.27 49.26 184.27 45.38 187 45.86 187 49.65"/><polygon class="cls-4" points="191.13 50.25 188.56 49.88 188.56 46.13 191.13 46.57 191.13 50.25"/><polygon class="cls-4" points="195.01 50.81 192.6 50.46 192.6 46.83 195.01 47.24 195.01 50.81"/><polygon class="cls-4" points="208.41 52.75 206.5 52.47 206.5 49.24 208.41 49.57 208.41 52.75"/><polygon class="cls-4" points="211.32 53.17 209.51 52.91 209.51 49.76 211.32 50.08 211.32 53.17"/><polygon class="cls-4" points="182.6 55.25 179.68 54.96 179.68 50.96 182.6 51.33 182.6 55.25"/><polygon class="cls-4" points="191.13 56.09 188.56 55.84 188.56 52.09 191.13 52.42 191.13 56.09"/><polygon class="cls-4" points="195.01 56.48 192.6 56.24 192.6 52.6 195.01 52.91 195.01 56.48"/><polygon class="cls-4" points="198.66 56.84 196.38 56.62 196.38 53.09 198.66 53.38 198.66 56.84"/><polygon class="cls-4" points="205.34 57.5 203.32 57.3 203.32 53.97 205.34 54.23 205.34 57.5"/><polygon class="cls-4" points="208.41 57.8 206.5 57.61 206.5 54.38 208.41 54.62 208.41 57.8"/><polygon class="cls-4" points="211.32 58.09 209.51 57.91 209.51 54.76 211.32 54.99 211.32 58.09"/><polygon class="cls-4" points="182.6 61.49 179.68 61.33 179.68 57.33 182.6 57.56 182.6 61.49"/><polygon class="cls-4" points="187 61.72 184.27 61.58 184.27 57.7 187 57.92 187 61.72"/><polygon class="cls-4" points="202.09 62.52 199.95 62.41 199.95 58.98 202.09 59.16 202.09 62.52"/><polygon class="cls-4" points="205.34 62.69 203.32 62.59 203.32 59.26 205.34 59.42 205.34 62.69"/><polygon class="cls-4" points="208.41 62.86 206.5 62.76 206.5 59.52 208.41 59.68 208.41 62.86"/><polygon class="cls-4" points="211.32 63.01 209.51 62.91 209.51 59.77 211.32 59.91 211.32 63.01"/><polygon class="cls-4" points="182.6 67.72 179.68 67.7 179.68 63.7 182.6 63.8 182.6 67.72"/><polygon class="cls-4" points="187 67.75 184.27 67.74 184.27 63.86 187 63.96 187 67.75"/><polygon class="cls-4" points="191.13 67.78 188.56 67.77 188.56 64.02 191.13 64.11 191.13 67.78"/><polygon class="cls-4" points="195.01 67.81 192.6 67.8 192.6 64.16 195.01 64.25 195.01 67.81"/><polygon class="cls-4" points="198.66 67.84 196.38 67.82 196.38 64.3 198.66 64.38 198.66 67.84"/><polygon class="cls-4" points="202.09 67.86 199.95 67.85 199.95 64.42 202.09 64.5 202.09 67.86"/><polygon class="cls-4" points="208.41 67.91 206.5 67.9 206.5 64.66 208.41 64.73 208.41 67.91"/><polygon class="cls-4" points="211.32 67.93 209.51 67.92 209.51 64.77 211.32 64.83 211.32 67.93"/><polygon class="cls-4" points="187 73.79 184.27 73.89 184.27 70.02 187 69.99 187 73.79"/><polygon class="cls-4" points="191.13 73.63 188.56 73.73 188.56 69.98 191.13 69.95 191.13 73.63"/><polygon class="cls-4" points="195.01 73.48 192.6 73.57 192.6 69.94 195.01 69.91 195.01 73.48"/><polygon class="cls-4" points="198.66 73.34 196.38 73.43 196.38 69.9 198.66 69.88 198.66 73.34"/><polygon class="cls-4" points="202.09 73.21 199.95 73.29 199.95 69.87 202.09 69.84 202.09 73.21"/><polygon class="cls-4" points="205.34 73.08 203.32 73.16 203.32 69.83 205.34 69.81 205.34 73.08"/><polygon class="cls-4" points="208.41 72.96 206.5 73.04 206.5 69.8 208.41 69.78 208.41 72.96"/><polygon class="cls-4" points="211.32 72.85 209.51 72.92 209.51 69.77 211.32 69.75 211.32 72.85"/><polygon class="cls-4" points="182.6 80.19 179.68 80.44 179.68 76.43 182.6 76.27 182.6 80.19"/><polygon class="cls-4" points="191.13 79.47 188.56 79.69 188.56 75.94 191.13 75.8 191.13 79.47"/><polygon class="cls-4" points="202.09 78.55 199.95 78.73 199.95 75.31 202.09 75.19 202.09 78.55"/><polygon class="cls-4" points="208.41 78.02 206.5 78.18 206.5 74.94 208.41 74.84 208.41 78.02"/><polygon class="cls-4" points="211.32 77.77 209.51 77.92 209.51 74.78 211.32 74.67 211.32 77.77"/><polygon class="cls-4" points="182.6 86.43 179.68 86.81 179.68 82.8 182.6 82.51 182.6 86.43"/><polygon class="cls-4" points="191.13 85.32 188.56 85.65 188.56 81.9 191.13 81.64 191.13 85.32"/><polygon class="cls-4" points="195.01 84.81 192.6 85.13 192.6 81.49 195.01 81.25 195.01 84.81"/><polygon class="cls-4" points="198.66 84.34 196.38 84.64 196.38 81.11 198.66 80.88 198.66 84.34"/><polygon class="cls-4" points="202.09 83.89 199.95 84.17 199.95 80.75 202.09 80.53 202.09 83.89"/><polygon class="cls-4" points="205.34 83.47 203.32 83.73 203.32 80.41 205.34 80.2 205.34 83.47"/><polygon class="cls-4" points="208.41 83.07 206.5 83.32 206.5 80.08 208.41 79.89 208.41 83.07"/><polygon class="cls-4" points="211.32 82.69 209.51 82.93 209.51 79.78 211.32 79.59 211.32 82.69"/><polygon class="cls-4" points="182.6 92.67 179.68 93.18 179.68 89.17 182.6 88.74 182.6 92.67"/><polygon class="cls-4" points="187 91.89 184.27 92.37 184.27 88.5 187 88.09 187 91.89"/><polygon class="cls-4" points="191.13 91.16 188.56 91.62 188.56 87.86 191.13 87.49 191.13 91.16"/><polygon class="cls-4" points="195.01 90.48 192.6 90.91 192.6 87.27 195.01 86.92 195.01 90.48"/><polygon class="cls-4" points="198.66 89.84 196.38 90.24 196.38 86.71 198.66 86.38 198.66 89.84"/><polygon class="cls-4" points="205.34 88.66 203.32 89.02 203.32 85.69 205.34 85.39 205.34 88.66"/><polygon class="cls-4" points="211.32 87.61 209.51 87.93 209.51 84.78 211.32 84.52 211.32 87.61"/><polygon class="cls-4" points="182.6 98.9 179.68 99.55 179.68 95.54 182.6 94.98 182.6 98.9"/><polygon class="cls-4" points="195.01 96.15 192.6 96.68 192.6 93.05 195.01 92.58 195.01 96.15"/><polygon class="cls-4" points="198.66 95.34 196.38 95.84 196.38 92.32 198.66 91.88 198.66 95.34"/><polygon class="cls-4" points="202.09 94.58 199.95 95.05 199.95 91.63 202.09 91.22 202.09 94.58"/><polygon class="cls-4" points="208.41 93.18 206.5 93.6 206.5 90.36 208.41 90 208.41 93.18"/><polygon class="cls-4" points="211.32 92.53 209.51 92.93 209.51 89.78 211.32 89.43 211.32 92.53"/><polygon class="cls-4" points="182.6 105.14 179.68 105.92 179.68 101.91 182.6 101.21 182.6 105.14"/><polygon class="cls-4" points="205.34 99.05 203.32 99.59 203.32 96.27 205.34 95.78 205.34 99.05"/><polygon class="cls-4" points="211.32 97.45 209.51 97.94 209.51 94.79 211.32 94.35 211.32 97.45"/><polygon class="cls-4" points="182.6 111.37 179.68 112.29 179.68 108.28 182.6 107.45 182.6 111.37"/><polygon class="cls-4" points="187 109.99 184.27 110.85 184.27 106.97 187 106.2 187 109.99"/><polygon class="cls-4" points="195.01 107.48 192.6 108.24 192.6 104.6 195.01 103.92 195.01 107.48"/><polygon class="cls-4" points="198.66 106.34 196.38 107.05 196.38 103.53 198.66 102.88 198.66 106.34"/><polygon class="cls-4" points="208.41 103.28 206.5 103.88 206.5 100.65 208.41 100.1 208.41 103.28"/><polygon class="cls-4" points="182.6 123.84 179.68 125.03 179.68 121.02 182.6 119.92 182.6 123.84"/><polygon class="cls-4" points="191.13 120.39 188.56 121.43 188.56 117.68 191.13 116.71 191.13 120.39"/><polygon class="cls-4" points="202.09 115.95 199.95 116.81 199.95 113.39 202.09 112.59 202.09 115.95"/><polygon class="cls-4" points="208.41 113.39 206.5 114.16 206.5 110.93 208.41 110.21 208.41 113.39"/><polygon class="cls-4" points="195.01 124.48 192.6 125.57 192.6 121.94 195.01 120.92 195.01 124.48"/><polygon class="cls-4" points="208.41 118.44 206.5 119.3 206.5 116.07 208.41 115.26 208.41 118.44"/><polygon class="cls-4" points="211.32 117.13 209.51 117.95 209.51 114.8 211.32 114.03 211.32 117.13"/><polygon class="cls-4" points="182.6 136.31 179.68 137.77 179.68 133.76 182.6 132.39 182.6 136.31"/><polygon class="cls-4" points="208.41 123.5 206.5 124.44 206.5 121.21 208.41 120.31 208.41 123.5"/></g></g></svg>