<svg height="368pt" viewBox="0 0 368 368" width="368pt" xmlns="http://www.w3.org/2000/svg"><path d="m184 0c-101.457031 0-184 82.542969-184 184s82.542969 184 184 184c101.464844 0 184-82.542969 184-184s-82.535156-184-184-184zm0 352c-92.640625 0-168-75.359375-168-168s75.359375-168 168-168c92.632812 0 168 75.359375 168 168s-75.367188 168-168 168zm0 0"/><path d="m208 184c0 30.878906 25.128906 56 56 56s56-25.121094 56-56-25.128906-56-56-56-56 25.121094-56 56zm96 0c0 22.054688-17.945312 40-40 40s-40-17.945312-40-40 17.945312-40 40-40 40 17.945312 40 40zm0 0"/><path d="m104 128c-30.878906 0-56 25.121094-56 56s25.121094 56 56 56 56-25.121094 56-56-25.121094-56-56-56zm0 96c-22.054688 0-40-17.945312-40-40s17.945312-40 40-40 40 17.945312 40 40-17.945312 40-40 40zm0 0"/></svg>