<?xml version="1.0" standalone="no"?>
<!DOCTYPE svg PUBLIC "-//W3C//DTD SVG 1.1//EN" "http://www.w3.org/Graphics/SVG/1.1/DTD/svg11.dtd" >
<svg>
<metadata>
Created by FontForge 20120731 at Wed Jan  2 09:09:40 2019
 By www-data
Copyright (c) 2006 by TypeTogether. All rights reserved.
</metadata>
<defs>
<font id="Ronnia-Thin" horiz-adv-x="550" >
  <font-face 
    font-family="Ronnia-Thin"
    font-weight="400"
    font-stretch="normal"
    units-per-em="1000"
    panose-1="2 0 5 6 0 0 0 2 0 4"
    ascent="770"
    descent="-230"
    x-height="526"
    cap-height="719"
    bbox="-208 -232 1287 939"
    underline-thickness="50"
    underline-position="-50"
    unicode-range="U+000D-FB04"
  />
<missing-glyph horiz-adv-x="562" 
d="M123 632v-726h347v726h-347zM47 -172v882h500v-882h-500z" />
    <glyph glyph-name="ff" unicode="ff" horiz-adv-x="556" 
d="M562 487h-138v-487h-47v487h-237v-487h-47v487h-86v39h86v39q0 167 154 167q35 0 82 -10l-4 -44q-44 11 -82 11q-55 0 -79 -31t-24 -100v-32h237v39q0 167 154 167q35 0 82 -10l-4 -44q-44 11 -82 11q-55 0 -79 -31t-24 -100v-32h138v-39z" />
    <glyph glyph-name="fi" unicode="fi" horiz-adv-x="496" 
d="M356 487h-216v-487h-47v487h-87v39h87v41q0 82 32 123t120 41q64 0 120 -23l-8 -43q-65 23 -115 23q-62 0 -82 -30t-20 -91v-41h263v-526h-47v487z" />
    <glyph glyph-name="fl" unicode="fl" horiz-adv-x="593" 
d="M377 108v573q-54 8 -107 8q-67 0 -98.5 -31.5t-31.5 -99.5v-32h138v-39h-138v-487h-47v487h-86v39h86v39q0 78 45 122.5t139 44.5q82 0 147 -13v-599q0 -46 14 -67t51 -21t82 21l7 -41q-38 -22 -95 -22q-61 0 -83.5 27.5t-22.5 90.5z" />
    <glyph glyph-name="ffi" unicode="ffi" horiz-adv-x="779" 
d="M640 487h-216v-487h-47v487h-237v-487h-47v487h-86v39h86v39q0 167 154 167q40 0 83 -9l-5 -43q-40 10 -81 10q-55 0 -79.5 -31.5t-24.5 -100.5v-32h237v41q0 82 32 123t120 41q64 0 120 -23l-8 -43q-65 23 -115 23q-62 0 -82 -30t-20 -91v-41h263v-526h-47v487z" />
    <glyph glyph-name="ffl" unicode="ffl" horiz-adv-x="876" 
d="M661 108v573q-54 8 -107 8q-67 0 -98.5 -31.5t-31.5 -99.5v-32h138v-39h-138v-487h-47v487h-237v-487h-47v487h-86v39h86v39q0 167 154 167q40 0 83 -9l-5 -43q-40 10 -81 10q-55 0 -79.5 -31.5t-24.5 -100.5v-32h237v39q0 78 45 122.5t139 44.5q82 0 147 -13v-599
q0 -46 14 -67t51 -21t82 21l7 -41q-38 -22 -95 -22q-61 0 -83.5 27.5t-22.5 90.5z" />
    <glyph glyph-name=".notdef" horiz-adv-x="562" 
d="M123 632v-726h347v726h-347zM47 -172v882h500v-882h-500z" />
    <glyph glyph-name=".null" horiz-adv-x="0" 
 />
    <glyph glyph-name=".null" horiz-adv-x="0" 
 />
    <glyph glyph-name="nonmarkingreturn" horiz-adv-x="333" 
 />
    <glyph glyph-name="CR" unicode="&#xd;" horiz-adv-x="435" 
 />
    <glyph glyph-name="space" unicode=" " horiz-adv-x="250" 
 />
    <glyph glyph-name="exclam" unicode="!" horiz-adv-x="214" 
d="M89 192l-13 527h60l-13 -527h-34zM66 39q0 18 11.5 30.5t29.5 12.5t29 -12.5t11 -30.5q0 -20 -11 -32.5t-30 -12.5q-17 0 -28.5 13t-11.5 32z" />
    <glyph glyph-name="quotedbl" unicode="&#x22;" horiz-adv-x="331" 
d="M204 698h61l-9 -259h-42zM71 698h61l-9 -259h-42z" />
    <glyph glyph-name="numbersign" unicode="#" horiz-adv-x="676" 
d="M118 428l15 46h118l56 186h48l-53 -186h157l56 186h50l-55 -186h123l-15 -46h-125l-56 -187h125l-17 -44h-125l-58 -197h-52l59 197h-156l-58 -197h-52l59 197h-117l17 44h117l56 187h-117zM285 428l-55 -187h157l56 187h-158z" />
    <glyph glyph-name="dollar" unicode="$" horiz-adv-x="493" 
d="M229 -100v90q-64 1 -113 23t-70 47l26 39q24 -26 66 -45t91 -20v301q-31 11 -49 19t-42.5 24t-38 33.5t-23.5 45.5t-10 63q0 76 45.5 121.5t117.5 54.5v87h44v-85q45 -2 79 -18.5t53 -41t28.5 -47.5t12.5 -46l-45 -11q-15 60 -45.5 87t-82.5 29v-282q34 -14 48 -20.5
t42.5 -24.5t41 -35t24 -46t11.5 -65q0 -75 -42 -125.5t-125 -59.5v-92h-44zM388 174q0 57 -30 89t-85 55v-282q52 8 83.5 41.5t31.5 96.5zM117 519q0 -52 29 -81.5t83 -52.5v264q-52 -6 -82 -38.5t-30 -91.5z" />
    <glyph glyph-name="percent" unicode="%" horiz-adv-x="778" 
d="M178 719q126 0 126 -197q0 -100 -34.5 -150t-94.5 -50q-130 0 -130 199q0 102 38 150t95 48zM176 366q38 0 60.5 40t22.5 116q0 74 -22.5 113.5t-60.5 39.5q-40 0 -63 -41t-23 -118q0 -71 23 -110.5t63 -39.5zM202 0h-53l398 719h54zM593 383q126 0 126 -197
q0 -100 -34.5 -150t-94.5 -50q-130 0 -130 199q0 102 38 150t95 48zM591 30q38 0 60.5 40t22.5 116q0 74 -22.5 113.5t-60.5 39.5q-40 0 -63 -41t-23 -118q0 -71 23 -110.5t63 -39.5z" />
    <glyph glyph-name="ampersand" unicode="&#x26;" horiz-adv-x="677" 
d="M286 28q104 0 198 107q-129 142 -213 246q-68 -16 -109 -68t-41 -122q0 -72 42.5 -117.5t122.5 -45.5zM447 477l-33 25q30 43 30 83q0 42 -30.5 66.5t-83.5 24.5q-56 0 -85.5 -27.5t-29.5 -68.5q0 -55 49 -116q164 -216 391 -448l-31 -29q-56 55 -110 118
q-54 -63 -109.5 -92t-122.5 -29q-102 0 -156 58.5t-54 145.5q0 78 44 138t128 89q-78 92 -78 158t45 106t123 40q70 0 113.5 -35t43.5 -97q0 -59 -44 -110z" />
    <glyph glyph-name="quotesingle" unicode="'" horiz-adv-x="198" 
d="M71 698h61l-9 -259h-42z" />
    <glyph glyph-name="parenleft" unicode="(" horiz-adv-x="297" 
d="M262 -92l-41 -18q-62 116 -92 210.5t-30 220.5q0 109 30 212t89 228l39 -15q-57 -131 -83 -223t-26 -205q0 -78 15.5 -148.5t32 -112.5t54.5 -123q8 -17 12 -26z" />
    <glyph glyph-name="parenright" unicode=")" horiz-adv-x="297" 
d="M35 742l40 18q62 -116 92 -210.5t30 -220.5q0 -110 -29.5 -213t-88.5 -227l-39 15q57 131 83 223t26 205q0 78 -15.5 148.5t-32 112.5t-54.5 123q-8 17 -12 26z" />
    <glyph glyph-name="asterisk" unicode="*" horiz-adv-x="367" 
d="M198 553l45 -80q11 -20 28 -20q10 0 19.5 7.5t9.5 18.5q0 13 -16 29l-63 62zM225 592l89 19q29 6 29 27q0 11 -7.5 21t-18.5 10q-9 0 -25 -8l-77 -42zM169 552l-45 -80q-11 -20 -28 -20q-10 0 -19.5 7.5t-9.5 18.5q0 13 16 29l63 62zM142 591l-89 19q-29 6 -29 27
q0 11 7.5 21t18.5 10q9 0 25 -8l77 -42zM172 635l-13 90q-4 19 5 29t24 10t22 -11t3 -31l-13 -87h-28z" />
    <glyph glyph-name="plus" unicode="+" 
d="M246 342v191h48v-191h202v-44h-202v-204h-48v204h-194v44h194z" />
    <glyph glyph-name="comma" unicode="," horiz-adv-x="200" 
d="M61 -179l-34 8l40 243q4 25 11.5 35.5t29.5 10.5q19 0 30.5 -14t3.5 -39z" />
    <glyph glyph-name="hyphen" unicode="-" horiz-adv-x="425" 
d="M62 289v46h301v-46h-301z" />
    <glyph glyph-name="period" unicode="." horiz-adv-x="216" 
d="M60 39q0 21 12.5 36t34.5 15q23 0 36 -13.5t13 -36.5q0 -22 -13 -36t-36 -14t-35 13.5t-12 35.5z" />
    <glyph glyph-name="slash" unicode="/" horiz-adv-x="391" 
d="M17 -75l319 843l43 -17l-321 -844z" />
    <glyph glyph-name="zero" unicode="0" horiz-adv-x="516" 
d="M263 698q105 0 156 -81.5t51 -268.5q0 -192 -54 -275t-161 -83q-111 0 -160 80t-49 275q0 353 217 353zM257 34q84 0 124.5 73t40.5 239q0 162 -39 234.5t-124 72.5q-163 0 -163 -320q0 -155 38 -227t123 -72z" />
    <glyph glyph-name="one" unicode="1" horiz-adv-x="399" 
d="M61 0v41h124v601h-112v43h160v-644h124v-41h-296z" />
    <glyph glyph-name="two" unicode="2" horiz-adv-x="485" 
d="M77 541l-37 19q65 139 205 139q82 0 133.5 -47t51.5 -132q0 -95 -68 -187q-102 -138 -256 -287h337v-46h-405v41q160 154 265 288q45 58 61 100t16 89q0 61 -37.5 98.5t-99.5 37.5q-55 0 -93.5 -26t-72.5 -87z" />
    <glyph glyph-name="three" unicode="3" horiz-adv-x="486" 
d="M78 559l-39 17q23 55 76 88.5t126 33.5q85 0 133 -43t48 -119q0 -58 -30 -100t-82 -61q124 -37 124 -175q0 -95 -58.5 -152.5t-159.5 -57.5q-50 0 -101.5 17.5t-80.5 44.5l23 40q72 -58 163 -58q73 0 119.5 46t46.5 121q0 51 -21.5 85t-56 47t-65.5 17t-63 1v46
q27 -1 51 1t51.5 10.5t47 22.5t32.5 40t13 60q0 66 -40.5 94.5t-101.5 28.5q-106 0 -155 -95z" />
    <glyph glyph-name="four" unicode="4" horiz-adv-x="512" 
d="M392 0h-45v177h-308v48l284 460h70v-464h95v-48h-96v-173zM89 221h257v416z" />
    <glyph glyph-name="five" unicode="5" horiz-adv-x="496" 
d="M263 434q-79 0 -162 -81l-47 16v316h351v-45h-302v-234q74 74 167 74q90 0 135.5 -65.5t45.5 -166.5q0 -118 -58 -188t-165 -70q-53 0 -100.5 18t-76.5 43l26 43q70 -60 155 -60q81 0 124.5 61t43.5 153q0 84 -35 135t-102 51z" />
    <glyph glyph-name="six" unicode="6" horiz-adv-x="519" 
d="M422 561q-49 91 -131 91q-75 0 -123.5 -78t-57.5 -198q28 28 75 51.5t95 23.5q100 0 147.5 -61.5t47.5 -154.5q0 -109 -54.5 -177t-146.5 -68q-217 0 -217 314q0 197 65.5 296t173.5 99q55 0 98.5 -29t69.5 -82zM110 317v-30q0 -47 7 -87.5t24 -79.5t51 -62t81 -23
q70 0 110.5 55.5t40.5 139.5q0 78 -34.5 126t-109.5 48q-50 0 -97.5 -27.5t-72.5 -59.5z" />
    <glyph glyph-name="seven" unicode="7" horiz-adv-x="464" 
d="M20 640v45h422v-35l-223 -451q-31 -62 -31 -120v-79h-51v76q0 73 26 121l222 443h-365z" />
    <glyph glyph-name="eight" unicode="8" horiz-adv-x="515" 
d="M133 369q-66 55 -66 147q0 83 54 132.5t137 49.5q90 0 138 -45.5t48 -133.5q0 -91 -66 -163q45 -28 67 -64t22 -91q0 -99 -54.5 -155t-157.5 -56q-104 0 -157 54.5t-53 150.5q0 104 88 174zM266 335l-94 8q-37 -22 -56.5 -62t-19.5 -86q0 -76 42 -119t120 -43
q75 0 117 44t42 119q0 72 -36 102.5t-115 36.5zM255 654q-59 0 -99 -36t-40 -99q0 -129 126 -139l91 -9q27 24 45 64.5t18 85.5q0 67 -38.5 100t-102.5 33z" />
    <glyph glyph-name="nine" unicode="9" horiz-adv-x="513" 
d="M97 127q49 -90 138 -90q155 0 174 275q-28 -28 -75 -51.5t-95 -23.5q-100 0 -147.5 61.5t-47.5 154.5q0 110 55.5 177.5t152.5 67.5q210 0 210 -314q0 -394 -230 -394q-60 0 -109 30t-70 83zM409 371v30q0 47 -7 87.5t-23.5 79.5t-49.5 62t-79 23q-73 0 -114 -55.5
t-41 -139.5q0 -78 34.5 -126t109.5 -48q50 0 97.5 27.5t72.5 59.5z" />
    <glyph glyph-name="colon" unicode=":" horiz-adv-x="229" 
d="M60 452q0 21 12.5 36t34.5 15q23 0 36 -13.5t13 -36.5q0 -22 -13 -36t-36 -14t-35 13.5t-12 35.5zM60 39q0 21 12.5 36t34.5 15q23 0 36 -13.5t13 -36.5q0 -22 -13 -36t-36 -14t-35 13.5t-12 35.5z" />
    <glyph glyph-name="semicolon" unicode=";" horiz-adv-x="221" 
d="M77 452q0 21 12.5 36t34.5 15q23 0 36 -13.5t13 -36.5q0 -22 -13 -36t-36 -14t-35 13.5t-12 35.5zM61 -179l-34 8l40 243q4 25 11.5 35.5t29.5 10.5q19 0 30.5 -14t3.5 -39z" />
    <glyph glyph-name="less" unicode="&#x3c;" 
d="M502 462l-394 -163l388 -162l-16 -43l-432 184v39l437 184z" />
    <glyph glyph-name="equal" unicode="=" 
d="M49 260h451v-44h-451v44zM49 422h451v-44h-451v44z" />
    <glyph glyph-name="greater" unicode="&#x3e;" 
d="M55 136l387 161l-391 162l17 42l433 -184v-39l-429 -181z" />
    <glyph glyph-name="question" unicode="?" horiz-adv-x="373" 
d="M94 186v193q105 12 152 59t47 105q0 65 -39.5 98t-108.5 33q-36 0 -71 -7l-9 44q28 8 83 8q93 0 142.5 -44t49.5 -129q0 -77 -52.5 -131.5t-147.5 -73.5v-155h-46zM73 39q0 18 11.5 30.5t29.5 12.5t29 -12.5t11 -30.5q0 -20 -11 -32.5t-30 -12.5q-17 0 -28.5 13t-11.5 32
z" />
    <glyph glyph-name="at" unicode="@" horiz-adv-x="757" 
d="M652 490v-467q-93 -34 -164 -34q-88 0 -134.5 45t-46.5 125q0 87 52 130.5t145 43.5q47 0 101 -14v145q-68 35 -186 35q-125 0 -209.5 -91t-84.5 -238q0 -146 86 -237.5t222 -91.5q93 0 153 35l20 -41q-70 -39 -178 -39q-163 0 -259.5 105.5t-96.5 266.5q0 159 101 267
t252 108q139 0 227 -53zM605 50v227q-54 13 -97 13q-150 0 -150 -126q0 -134 136 -134q65 0 111 20z" />
    <glyph glyph-name="A" unicode="A" horiz-adv-x="605" 
d="M84 0h-53l226 719h82l235 -719h-52l-78 233h-289zM297 690l-129 -413h264z" />
    <glyph glyph-name="B" unicode="B" horiz-adv-x="595" 
d="M104 719h199q217 0 217 -162q0 -69 -33.5 -113.5t-82.5 -66.5q68 -14 105 -59t37 -108q0 -102 -63 -156t-172 -54h-207v719zM153 349v-303h170q87 0 129 45t42 115q0 65 -42.5 104t-124.5 39h-174zM153 673v-277h146q81 0 124.5 42.5t43.5 107.5q0 69 -40.5 98t-130.5 29
h-143z" />
    <glyph glyph-name="C" unicode="C" horiz-adv-x="553" 
d="M520 564l-49 -13q-17 69 -51 102.5t-110 33.5q-37 0 -67 -11.5t-50 -29.5t-34 -47.5t-22 -57t-12.5 -66.5t-5.5 -68.5t-1 -69.5q0 -147 48.5 -224.5t160.5 -77.5q99 0 177 55l15 -50q-24 -19 -77 -36.5t-117 -17.5t-111.5 21t-75.5 54t-44.5 83.5t-22 99.5t-5.5 111
q0 64 5.5 114.5t21.5 102t42 85.5t71 55.5t106 21.5q54 0 93.5 -15t62 -41.5t34 -53t18.5 -60.5z" />
    <glyph glyph-name="D" unicode="D" horiz-adv-x="620" 
d="M104 719h203q123 0 190 -74.5t67 -253.5q0 -116 -21.5 -196t-62.5 -121t-87.5 -57.5t-108.5 -16.5h-180v719zM153 673v-627h132q116 1 172 79.5t56 250.5q0 156 -50.5 226.5t-152.5 70.5h-157z" />
    <glyph glyph-name="E" unicode="E" horiz-adv-x="525" 
d="M104 0v719h372v-46h-323v-273h282v-49h-282v-305h336v-46h-385z" />
    <glyph glyph-name="F" unicode="F" horiz-adv-x="507" 
d="M104 719h388v-46h-339v-276h285v-46h-285v-351h-49v719z" />
    <glyph glyph-name="G" unicode="G" horiz-adv-x="598" 
d="M313 296v42h229v-308q-99 -44 -196 -44q-147 0 -213.5 92t-66.5 295q0 167 61 264t193 97q95 0 145.5 -42.5t66.5 -127.5l-46 -12q-22 70 -56 102.5t-112 32.5q-95 0 -148.5 -76t-53.5 -234q0 -82 9.5 -140t34 -107t71.5 -73.5t117 -24.5q84 0 147 33v231h-182z" />
    <glyph glyph-name="H" unicode="H" horiz-adv-x="695" 
d="M542 719h49v-719h-49v348h-389v-348h-49v719h49v-325h389v325z" />
    <glyph glyph-name="I" unicode="I" horiz-adv-x="258" 
d="M104 719h49v-719h-49v719z" />
    <glyph glyph-name="J" unicode="J" horiz-adv-x="404" 
d="M12 19l18 45q55 -32 129 -32q28 0 47 7.5t29.5 19.5t16 33.5t7 42t1.5 53.5v531h49v-546q0 -43 -4 -69.5t-18 -57t-47 -45.5t-85 -15q-43 0 -83.5 10t-59.5 23z" />
    <glyph glyph-name="K" unicode="K" horiz-adv-x="552" 
d="M526 719l-184 -340l197 -379h-57l-185 352h-143v-352h-50v719h50v-319h147l171 319h54z" />
    <glyph glyph-name="L" unicode="L" horiz-adv-x="512" 
d="M104 0v719h49v-673h327v-46h-376z" />
    <glyph glyph-name="M" unicode="M" horiz-adv-x="793" 
d="M606 719h68l32 -719h-48l-27 657l-214 -584h-40l-216 584l-28 -657h-46l30 719h73l209 -570z" />
    <glyph glyph-name="N" unicode="N" horiz-adv-x="692" 
d="M540 719h47v-719h-51l-384 635v-635h-48v719h56l380 -630v630z" />
    <glyph glyph-name="O" unicode="O" horiz-adv-x="648" 
d="M322 -14q-256 0 -256 385q0 180 70 271.5t196 91.5q128 0 188.5 -86t60.5 -271q0 -391 -259 -391zM530 376q0 88 -14.5 150t-42 96.5t-63 49.5t-81.5 15q-96 0 -154 -75t-58 -241q0 -339 204 -339q47 0 82.5 15t65.5 51.5t45.5 106.5t15.5 171z" />
    <glyph glyph-name="P" unicode="P" horiz-adv-x="601" 
d="M153 301v-301h-49v719h234q102 0 158 -47t56 -139q0 -114 -61.5 -173t-173.5 -59h-164zM153 347h168q87 0 134 46t47 130q0 81 -43 115.5t-130 34.5h-176v-326z" />
    <glyph glyph-name="Q" unicode="Q" horiz-adv-x="647" 
d="M584 -53l-12 -43q-169 22 -301 72q-101 37 -153 125t-52 270q0 181 70 272t197 91q128 0 188 -86t60 -271q0 -197 -59 -285t-187 -98q163 -39 249 -47zM531 376q0 88 -14.5 149.5t-42.5 96t-63 49.5t-82 15q-96 0 -154 -74.5t-58 -240.5q0 -338 205 -338q47 0 82.5 15
t65.5 51.5t45.5 106t15.5 170.5z" />
    <glyph glyph-name="R" unicode="R" horiz-adv-x="603" 
d="M152 329v-329h-48v719h216q104 0 163 -44t59 -136q0 -138 -127 -197l126 -342h-52l-123 329h-214zM152 373h164q80 0 127 39t47 112q0 81 -42 115t-130 34h-166v-300z" />
    <glyph glyph-name="S" unicode="S" horiz-adv-x="534" 
d="M46 60l29 45q27 -28 73.5 -49t104.5 -21q70 0 114.5 35t44.5 110q0 31 -9 56t-21.5 40.5t-35 29.5t-40.5 21.5t-47 17.5q-47 16 -70.5 26t-57 33t-48.5 57.5t-15 82.5q0 90 59 140t148 50q50 0 88.5 -15t61 -40t34.5 -51.5t15 -53.5l-48 -12q-30 123 -154 123
q-65 0 -107 -35t-42 -104q0 -25 5 -44.5t17.5 -34.5t23.5 -25.5t34 -21t37 -16t43 -15.5q36 -13 54.5 -20.5t48 -25t44 -36t26 -49.5t11.5 -71q0 -91 -52.5 -146t-160.5 -55q-74 0 -128.5 23t-79.5 51z" />
    <glyph glyph-name="T" unicode="T" horiz-adv-x="535" 
d="M15 673v46h505v-46h-229v-673h-49v673h-227z" />
    <glyph glyph-name="U" unicode="U" horiz-adv-x="668" 
d="M152 719v-486q0 -104 36.5 -152.5t143.5 -48.5q110 0 147 48.5t37 160.5v478h49v-488q0 -58 -9.5 -99.5t-34 -76t-72 -52t-117.5 -17.5q-71 0 -117.5 16.5t-70 50t-32.5 73.5t-9 98v495h49z" />
    <glyph glyph-name="V" unicode="V" horiz-adv-x="551" 
d="M272 48l219 671h49l-232 -719h-75l-222 719h49z" />
    <glyph glyph-name="W" unicode="W" horiz-adv-x="831" 
d="M220 0h-62l-91 719h54q78 -626 78 -637l201 567h36l195 -567l80 637h52l-90 -719h-64l-192 552z" />
    <glyph glyph-name="X" unicode="X" horiz-adv-x="539" 
d="M516 719l-212 -349l209 -370h-56l-187 322l-196 -322h-57l220 365l-195 354h60l170 -313l184 313h60z" />
    <glyph glyph-name="Y" unicode="Y" horiz-adv-x="551" 
d="M279 351l200 368h52l-227 -416v-303h-51v300l-233 419h55z" />
    <glyph glyph-name="Z" unicode="Z" horiz-adv-x="524" 
d="M48 673v46h448v-56l-413 -617h398v-46h-453v51l417 622h-397z" />
    <glyph glyph-name="bracketleft" unicode="[" horiz-adv-x="270" 
d="M91 -118v885h167v-36h-125v-813h125v-36h-167z" />
    <glyph glyph-name="backslash" unicode="\" horiz-adv-x="391" 
d="M373 -75l-41 -18l-321 844l43 17z" />
    <glyph glyph-name="bracketright" unicode="]" horiz-adv-x="269" 
d="M177 767v-885h-167v36h125v813h-125v36h167z" />
    <glyph glyph-name="asciicircum" unicode="^" horiz-adv-x="584" 
d="M444 321l-147 316l-147 -316l-49 8l172 361h50l173 -361z" />
    <glyph glyph-name="underscore" unicode="_" horiz-adv-x="500" 
d="M-7 -127v43h514v-43h-514z" />
    <glyph glyph-name="grave" unicode="`" horiz-adv-x="193" 
d="M205 611l-19 -27l-199 121l32 46z" />
    <glyph glyph-name="a" unicode="a" horiz-adv-x="504" 
d="M95 477l-5 42q74 18 149 18q41 0 70 -10.5t44.5 -26.5t24.5 -43t11 -51t2 -60v-270q0 -46 41 -46q19 0 39 7l6 -38q-25 -9 -54 -9q-41 0 -58.5 19.5t-18.5 44.5q-73 -64 -153 -64q-71 0 -107.5 45.5t-36.5 112.5q0 170 200 170q50 0 94 -10v61q0 71 -26 99t-100 28
q-55 0 -122 -19zM344 95v173q-43 11 -88 11q-79 0 -117.5 -30t-38.5 -100q0 -52 25.5 -84t74.5 -32q75 0 144 62z" />
    <glyph glyph-name="b" unicode="b" horiz-adv-x="519" 
d="M140 719v-250q53 34 89.5 51t73.5 17q76 0 115.5 -61.5t39.5 -180.5q0 -137 -51 -221t-157 -84q-88 0 -157 45v684h47zM140 422v-362q47 -27 108 -27q58 0 95.5 38.5t50.5 90.5t13 117q0 118 -29 165t-81 47q-57 0 -157 -69z" />
    <glyph glyph-name="c" unicode="c" horiz-adv-x="434" 
d="M263 30q62 0 132 38l5 -44q-66 -36 -140 -36q-200 0 -200 264q0 285 190 285q69 0 106.5 -39.5t50.5 -95.5l-43 -17q-30 109 -118 109q-135 0 -135 -244q0 -220 152 -220z" />
    <glyph glyph-name="d" unicode="d" horiz-adv-x="519" 
d="M380 487v232h47v-719h-45v55q-71 -67 -146 -67q-82 0 -130 65.5t-48 199.5q0 54 9.5 101.5t30 90t58.5 67.5t90 25q61 0 134 -50zM380 109v324q-75 58 -132 58q-139 0 -139 -248q0 -101 36 -156.5t95 -55.5q76 0 140 78z" />
    <glyph glyph-name="e" unicode="e" horiz-adv-x="475" 
d="M420 261h-311q0 -112 36.5 -171t120.5 -59q69 0 141 37l5 -44q-65 -36 -152 -36q-202 0 -202 274q0 138 52 206.5t142 68.5q168 0 168 -238v-38zM110 302h259q0 192 -122 192q-68 0 -102 -56.5t-35 -135.5z" />
    <glyph glyph-name="f" unicode="f" horiz-adv-x="272" 
d="M278 487h-138v-487h-47v487h-86v39h86v48q0 158 154 158q40 0 83 -9l-5 -43q-40 10 -81 10q-104 0 -104 -117v-47h138v-39z" />
    <glyph glyph-name="g" unicode="g" horiz-adv-x="521" 
d="M380 487v39h47v-515q0 -114 -34.5 -172t-135.5 -58q-105 0 -175 41l10 48q27 -17 72.5 -32t89.5 -15q34 0 59 11.5t38.5 28.5t21 44.5t9.5 52.5t2 60v39q-73 -69 -148 -69q-82 0 -130 65t-48 199q0 77 16.5 137.5t61.5 103t114 42.5q37 0 64.5 -12t65.5 -38zM380 111v322
q-75 58 -131 58q-140 0 -140 -248q0 -102 36 -156t95 -54q76 0 140 78z" />
    <glyph glyph-name="h" unicode="h" horiz-adv-x="551" 
d="M327 537q110 0 129 -96q3 -17 3 -65v-376h-47v370q0 37 -3 58q-7 34 -28.5 48.5t-63.5 14.5q-78 0 -178 -81v-410h-47v719h47v-260q103 78 188 78z" />
    <glyph glyph-name="i" unicode="i" horiz-adv-x="230" 
d="M91 526h47v-526h-47v526zM114 621q-33 0 -33 40q0 35 33 35t33 -35q0 -40 -33 -40z" />
    <glyph glyph-name="j" unicode="j" horiz-adv-x="230" 
d="M138 526v-616q0 -67 -25.5 -98t-83.5 -31q-53 0 -88 25l11 40q39 -23 80 -23q33 0 46 20.5t13 63.5v619h47zM114 621q-33 0 -33 40q0 35 33 35t33 -35q0 -40 -33 -40z" />
    <glyph glyph-name="k" unicode="k" horiz-adv-x="465" 
d="M377 530l46 -9l-145 -221l169 -300h-54l-154 272h-100v-272h-47v719h47v-407h96z" />
    <glyph glyph-name="l" unicode="l" horiz-adv-x="300" 
d="M85 108v611h47v-599q0 -46 14 -67t51 -21t82 21l7 -41q-38 -22 -95 -22q-61 0 -83.5 27.5t-22.5 90.5z" />
    <glyph glyph-name="m" unicode="m" horiz-adv-x="838" 
d="M139 526v-71q93 82 180 82q95 0 122 -73q80 73 166 73q117 0 135 -101q4 -23 4 -65v-371h-46v367q0 39 -4 58q-12 68 -95 68q-76 0 -152 -74q1 -15 1 -52v-367h-46v367q0 39 -4 58q-10 68 -86 68q-84 0 -175 -88v-405h-47v526h47z" />
    <glyph glyph-name="n" unicode="n" horiz-adv-x="551" 
d="M139 526v-71q90 82 180 82q117 0 137 -101q3 -17 3 -65v-371h-46v367q0 30 -4 58q-7 35 -30.5 51.5t-70.5 16.5q-78 0 -169 -87v-406h-47v526h47z" />
    <glyph glyph-name="o" unicode="o" horiz-adv-x="504" 
d="M248 -12q-190 0 -190 272q0 121 50.5 199t151.5 78q186 0 186 -267q0 -57 -10.5 -105.5t-32.5 -89t-61.5 -64t-93.5 -23.5zM249 30q146 0 146 236q0 228 -138 228q-44 0 -75.5 -24.5t-46 -64t-20.5 -75.5t-6 -73q0 -227 140 -227z" />
    <glyph glyph-name="p" unicode="p" horiz-adv-x="518" 
d="M92 526h47v-57q97 68 164 68q154 0 154 -236q0 -313 -190 -313q-59 0 -128 37v-234h-47v735zM139 422v-344q57 -46 132 -46q37 0 65 22t42.5 59t21 76.5t6.5 83.5q0 125 -29 171.5t-83 46.5q-56 0 -155 -69z" />
    <glyph glyph-name="q" unicode="q" horiz-adv-x="519" 
d="M380 487v39h47v-735h-47v261q-69 -64 -144 -64q-82 0 -130 66t-48 200q0 55 10 102.5t31 89.5t60 66.5t91 24.5q57 0 130 -50zM380 109v324q-75 58 -132 58q-139 0 -139 -248q0 -102 36 -157t95 -55q76 0 140 78z" />
    <glyph glyph-name="r" unicode="r" horiz-adv-x="365" 
d="M264 537q65 0 91 -75l-41 -22q-8 17 -14 26t-18 17t-29 8q-51 0 -114 -72v-419h-47v526h45v-57q24 23 37 34t38.5 22.5t51.5 11.5z" />
    <glyph glyph-name="s" unicode="s" horiz-adv-x="417" 
d="M41 44l14 46q22 -20 63 -39.5t84 -19.5q49 0 81 24.5t32 72.5q0 35 -17 58.5t-37 33t-56 21.5q-26 9 -32.5 11t-29.5 11t-30.5 15t-23.5 19t-22 25.5t-11.5 32t-5.5 41.5q0 64 45 102.5t116 38.5q68 0 107.5 -36t49.5 -84l-40 -15q-15 49 -43.5 71t-76.5 22
q-47 0 -78 -25.5t-31 -74.5q0 -24 8.5 -41.5t27 -30t34.5 -19.5t44 -17q32 -11 45 -16t38.5 -18.5t37 -27t21.5 -37t10 -52.5q0 -66 -43.5 -106.5t-122.5 -40.5q-48 0 -94 18.5t-64 36.5z" />
    <glyph glyph-name="t" unicode="t" horiz-adv-x="312" 
d="M282 487h-144v-359q0 -52 10.5 -74.5t49.5 -22.5q32 0 76 21l7 -42q-40 -21 -87 -21q-55 0 -79 27.5t-24 87.5v383h-66v39h66v88l47 28v-116h144v-39z" />
    <glyph glyph-name="u" unicode="u" horiz-adv-x="542" 
d="M401 0v67q-91 -79 -180 -79q-116 0 -136 100q-4 21 -4 64v368l46 7v-368q0 -35 5 -58q7 -34 28 -52t66 -18q84 0 175 88v407h47v-526h-47z" />
    <glyph glyph-name="v" unicode="v" horiz-adv-x="439" 
d="M375 528l45 -6l-171 -522h-61l-169 522l46 5l155 -483z" />
    <glyph glyph-name="w" unicode="w" horiz-adv-x="654" 
d="M578 527l45 -6l-115 -521h-63l-114 454l-133 -454h-61l-107 522l44 5l96 -476l139 468h50l116 -471z" />
    <glyph glyph-name="x" unicode="x" horiz-adv-x="422" 
d="M354 528l50 -5l-165 -262l164 -261h-55l-138 223l-139 -223h-58l170 263l-163 260l52 5l141 -229z" />
    <glyph glyph-name="y" unicode="y" horiz-adv-x="435" 
d="M370 527l43 -5q-87 -323 -172 -525q-50 -121 -89 -167.5t-113 -46.5q-73 0 -131 35l15 45q65 -38 116 -38q55 0 87 42t68 136l-181 519l48 5l160 -466q45 98 149 466z" />
    <glyph glyph-name="z" unicode="z" horiz-adv-x="390" 
d="M375 498l-295 -459h286v-39h-338v36l289 451h-275v39h333v-28z" />
    <glyph glyph-name="braceleft" unicode="{" horiz-adv-x="341" 
d="M127 328q45 -14 60.5 -42.5t15.5 -83.5v-195v-13.5v-13.5t0.5 -12.5t1.5 -12.5t2.5 -10.5t4 -10.5t6.5 -7.5t9 -6.5t11.5 -3.5t14.5 -1.5q26 0 47 8l7 -37q-29 -11 -61 -11q-58 0 -73 27.5t-15 89.5v186q0 60 -17.5 90.5t-64.5 35.5v46q49 8 65.5 36t16.5 87v182
q0 27 2.5 44t10.5 35t27 27t48 9q33 0 61 -11l-7 -37q-20 8 -47 8q-33 0 -41.5 -19t-8.5 -67v-194q0 -47 -17.5 -75.5t-58.5 -46.5z" />
    <glyph glyph-name="bar" unicode="|" horiz-adv-x="194" 
d="M84 -118v885h42v-885h-42z" />
    <glyph glyph-name="braceright" unicode="}" horiz-adv-x="341" 
d="M214 328q-41 18 -58.5 46.5t-17.5 75.5v194q0 48 -8.5 67t-41.5 19q-27 0 -47 -8l-7 37q28 11 61 11q55 0 71.5 -29.5t16.5 -85.5v-182q0 -59 16.5 -87t65.5 -36v-46q-47 -5 -64.5 -35.5t-17.5 -90.5v-186q0 -32 -2 -48.5t-10 -35t-26.5 -26t-49.5 -7.5q-32 0 -61 11
l7 37q21 -8 47 -8q8 0 14.5 1.5t11.5 3.5t9 6.5t6.5 7.5t4 10.5t2.5 10.5t1.5 12.5t0.5 12.5v13.5v13.5v195q0 55 15.5 83.5t60.5 42.5z" />
    <glyph glyph-name="asciitilde" unicode="~" horiz-adv-x="636" 
d="M556 332l32 -26q-22 -39 -55 -65t-71 -26q-51 0 -120 32l-59 28q-62 29 -93 29q-20 0 -37.5 -9.5t-28 -20t-32.5 -37.5l-33 28q23 29 38.5 45.5t41 30.5t52.5 14q45 0 117 -35l58 -28q58 -28 95 -28q47 0 95 68z" />
    <glyph glyph-name="uni00A0" unicode="&#xa0;" horiz-adv-x="245" 
 />
    <glyph glyph-name="exclamdown" unicode="&#xa1;" horiz-adv-x="228" 
d="M139 327l13 -527h-60l13 527h34zM162 480q0 -18 -11.5 -30.5t-29.5 -12.5t-29 12.5t-11 30.5q0 20 11 32.5t30 12.5q17 0 28.5 -13t11.5 -32z" />
    <glyph glyph-name="cent" unicode="&#xa2;" horiz-adv-x="489" 
d="M239 579v112h44v-111q111 -8 141 -134l-43 -13q-27 94 -98 103v-405q74 12 98 100l43 -12q-12 -50 -46 -88t-95 -46v-140h-44v139q-151 11 -151 252q0 97 35.5 164.5t115.5 78.5zM139 336q0 -193 100 -206v404q-100 -20 -100 -198z" />
    <glyph glyph-name="sterling" unicode="&#xa3;" horiz-adv-x="516" 
d="M61 320v41h59q-4 13 -14 39.5t-14.5 40.5t-8.5 35.5t-4 41.5q0 82 49.5 131t137.5 49q85 0 131 -43t65 -132l-44 -11q-21 81 -58.5 113t-96.5 32q-66 0 -100.5 -38t-34.5 -99q0 -13 1.5 -26.5t3.5 -23t7 -26t7.5 -23.5t11 -29t11.5 -31h181v-40h-168q22 -60 22 -121
q0 -101 -65 -156h318v-44h-397l-6 38q53 15 79 58.5t26 95.5q0 54 -27 128h-72z" />
    <glyph glyph-name="currency" unicode="&#xa4;" horiz-adv-x="607" 
d="M466 230l67 -65l-28 -28l-66 63q-38 -27 -67 -37t-69 -10t-68.5 10t-66.5 38l-67 -64l-29 28l69 65q-28 38 -38.5 66t-10.5 67q0 36 10.5 64.5t38.5 67.5l-69 65l29 27l67 -64q39 28 67 38t68 10q39 0 68 -10.5t68 -38.5l66 65l28 -27l-67 -65q27 -38 37.5 -66.5
t10.5 -65.5q0 -39 -10 -67t-38 -66zM476 363q0 74 -50.5 123t-121.5 49q-72 0 -122.5 -49.5t-50.5 -122.5t50.5 -123.5t122.5 -50.5q70 0 121 50.5t51 123.5z" />
    <glyph glyph-name="yen" unicode="&#xa5;" horiz-adv-x="516" 
d="M88 685l174 -335l164 335h53l-177 -354h169v-42h-187v-93h187v-41h-187v-155h-47v155h-183v41h183v93h-183v42h163l-183 354h54z" />
    <glyph glyph-name="brokenbar" unicode="&#xa6;" horiz-adv-x="188" 
d="M80 -118v379h42v-379h-42zM80 422v345h42v-345h-42z" />
    <glyph glyph-name="section" unicode="&#xa7;" horiz-adv-x="555" 
d="M157 629q-46 -54 -46 -135q0 -53 28 -110t67 -107.5t78.5 -102t66 -113t25.5 -122.5q44 67 44 154q0 57 -27.5 116.5t-66.5 110t-77.5 100t-65.5 104t-26 105.5zM501 564l-49 -12q-12 63 -52.5 99t-101.5 36q-43 0 -65 -22t-22 -57q0 -31 27 -75.5t65.5 -93t76.5 -101
t65 -115.5t27 -121q0 -125 -70 -204t-165 -79q-170 0 -200 156l48 13q30 -125 141 -125q100 0 100 82q0 51 -27.5 106.5t-67 106t-79 102t-67 113t-27.5 120.5q0 95 67.5 166t175.5 71q94 0 143 -50t57 -116z" />
    <glyph glyph-name="dieresis" unicode="&#xa8;" horiz-adv-x="387" 
d="M94 651q0 16 9 26t24 10q33 0 33 -36q0 -16 -9.5 -26.5t-23.5 -10.5q-15 0 -24 10.5t-9 26.5zM243 651q0 16 9 26t23 10q33 0 33 -36q0 -37 -33 -37q-15 0 -23.5 10.5t-8.5 26.5z" />
    <glyph glyph-name="copyright" unicode="&#xa9;" horiz-adv-x="880" 
d="M447 548q-40 0 -69 -17t-43.5 -46t-20.5 -60.5t-6 -67.5t6 -67t20.5 -60.5t42 -46.5t65.5 -17q44 0 71.5 17t52.5 53l33 -31q-21 -36 -63 -60t-97 -24q-182 0 -182 236q0 102 46.5 168.5t143.5 66.5q61 0 99 -32t55 -75l-39 -23q-39 86 -115 86zM825 359
q0 -167 -109 -273t-281 -106q-174 0 -277 104t-103 269q0 163 107 270t273 107q171 0 280.5 -106t109.5 -265zM779 353q0 147 -97 240t-247 93q-152 0 -242.5 -91.5t-90.5 -241.5q0 -148 93.5 -239.5t239.5 -91.5q152 0 248 90t96 241z" />
    <glyph glyph-name="ordfeminine" unicode="&#xaa;" horiz-adv-x="350" 
d="M56 660l-6 41q64 18 111 18q38 0 62 -9.5t34 -30t12.5 -39t2.5 -50.5v-183q0 -38 29 -38q13 0 29 6l5 -39q-19 -8 -42 -8q-45 0 -63 40q-47 -38 -100 -38q-55 0 -82.5 32.5t-27.5 83.5q0 127 150 127q39 0 56 -3v27q0 43 -15 61.5t-60 18.5q-42 0 -95 -17zM226 406v126
q-25 4 -54 4q-54 0 -79.5 -20.5t-25.5 -69.5q0 -31 16.5 -54t50.5 -23q46 0 92 37z" />
    <glyph glyph-name="guillemotleft" unicode="&#xab;" horiz-adv-x="537" 
d="M445 84l-199 191l197 194l33 -30l-161 -162l165 -162zM251 84l-199 191l197 194l33 -30l-161 -162l165 -162z" />
    <glyph glyph-name="logicalnot" unicode="&#xac;" 
d="M448 201v151h-398v44h449v-195h-51z" />
    <glyph glyph-name="uni00AD" unicode="&#xad;" horiz-adv-x="422" 
d="M62 289v46h301v-46h-301z" />
    <glyph glyph-name="registered" unicode="&#xae;" horiz-adv-x="476" 
d="M426 549q0 -81 -53 -133t-137 -52q-86 0 -136 51t-50 131t52.5 132t133.5 52q83 0 136.5 -51.5t53.5 -129.5zM389 546q0 67 -43.5 109.5t-109.5 42.5q-68 0 -108.5 -42t-40.5 -110t41.5 -109.5t107.5 -41.5q68 0 110.5 40.5t42.5 110.5zM278 538l41 -93h-36l-37 86h-43
v-86h-32v208h73q72 0 72 -58q0 -40 -38 -57zM203 558h34q46 0 46 36q0 31 -45 31h-35v-67z" />
    <glyph glyph-name="macron" unicode="&#xaf;" horiz-adv-x="317" 
d="M20 628v45h273v-45h-273z" />
    <glyph glyph-name="degree" unicode="&#xb0;" horiz-adv-x="320" 
d="M48 576q0 49 32 82.5t79 33.5q51 0 81.5 -32.5t30.5 -78.5q0 -51 -32 -85t-81 -34q-51 0 -80.5 32.5t-29.5 81.5zM96 576q0 -31 17 -50.5t46 -19.5q30 0 47.5 20t17.5 50q0 33 -17 51.5t-48 18.5q-63 0 -63 -70z" />
    <glyph glyph-name="plusminus" unicode="&#xb1;" 
d="M246 318v185h48v-185h202v-44h-202v-181h-48v181h-194v44h194zM496 0v44h-443v-44h443z" />
    <glyph glyph-name="twosuperior" unicode="&#xb2;" horiz-adv-x="400" 
d="M90 707l-38 19q18 41 59 70t90 29q61 0 94 -30.5t33 -90.5q0 -35 -21 -78t-57 -78q-59 -58 -108 -97h200v-43h-275v37q94 70 158 139q55 58 55 122q0 38 -22 57.5t-56 19.5q-67 0 -112 -76z" />
    <glyph glyph-name="threesuperior" unicode="&#xb3;" horiz-adv-x="400" 
d="M97 717l-39 19q49 89 143 89q54 0 85.5 -26.5t31.5 -75.5q0 -68 -59 -100q66 -23 66 -98q0 -58 -39.5 -92t-105.5 -34q-35 0 -71 12.5t-58 30.5l21 38q50 -40 113 -40q41 0 67 24t26 63q0 38 -21.5 55t-54.5 17h-55v42h49q36 0 56 21t20 53q0 68 -76 68q-64 0 -99 -66z
" />
    <glyph glyph-name="acute" unicode="&#xb4;" horiz-adv-x="193" 
d="M32 584l-19 27l186 140l32 -46z" />
    <glyph glyph-name="mu" unicode="&#xb5;" horiz-adv-x="587" 
d="M509 -17q-44 0 -61.5 22.5t-17.5 67.5q-17 -24 -31 -39.5t-49 -31.5t-81 -16q-86 0 -128 62v-261h-46v739h45v-339q0 -70 34 -111t104 -41q76 0 117.5 47t41.5 126v318h45v-450q0 -27 7.5 -40t28.5 -13q11 0 26 5l5 -36q-14 -9 -40 -9z" />
    <glyph glyph-name="paragraph" unicode="&#xb6;" horiz-adv-x="604" 
d="M267 -181q-86 0 -162 37l10 49q74 -38 154 -38q84 0 111.5 44.5t27.5 134.5v224h-83q-250 0 -250 226q0 112 72 168t175 56h218l-5 -46h-78v-635q0 -108 -40.5 -164t-149.5 -56zM408 318v355h-91q-81 0 -133 -44t-52 -133q0 -88 46 -133t145 -45h85z" />
    <glyph glyph-name="periodcentered" unicode="&#xb7;" horiz-adv-x="308" 
d="M106 329q0 21 12.5 36t34.5 15q23 0 36 -13.5t13 -36.5q0 -22 -13.5 -36t-36.5 -14q-22 0 -34 13.5t-12 35.5z" />
    <glyph glyph-name="cedilla" unicode="&#xb8;" horiz-adv-x="217" 
d="M48 -97v39q33 9 63 9q41 0 65 -21t24 -59q0 -56 -36.5 -79.5t-87.5 -23.5q-22 0 -42 4l-6 41q13 -4 38 -4q86 0 86 57q0 45 -51 45q-23 0 -53 -8z" />
    <glyph glyph-name="onesuperior" unicode="&#xb9;" horiz-adv-x="400" 
d="M93 408v41h79v326h-71v41h115v-367h81v-41h-204z" />
    <glyph glyph-name="ordmasculine" unicode="&#xba;" horiz-adv-x="369" 
d="M185 328q-148 0 -148 194q0 86 39.5 141t116.5 55q78 0 111.5 -52.5t33.5 -136.5q0 -88 -37.5 -144.5t-115.5 -56.5zM185 370q31 0 53 14.5t32.5 39t15 49.5t4.5 53q0 151 -99 151q-32 0 -54.5 -16.5t-32.5 -43t-14.5 -50t-4.5 -47.5q0 -63 23.5 -106.5t76.5 -43.5z" />
    <glyph glyph-name="guillemotright" unicode="&#xbb;" horiz-adv-x="537" 
d="M484 275l-198 -191l-36 31l166 162l-162 162l33 30zM290 275l-198 -191l-36 31l166 162l-162 162l33 30z" />
    <glyph glyph-name="onequarter" unicode="&#xbc;" horiz-adv-x="835" 
d="M689 2h-43v99h-205v37l188 272h61v-267h66v-42h-67v-99zM495 143h151v217zM77 308v41h79v326h-71v41h115v-367h81v-41h-204zM245 0h-53l398 719h54z" />
    <glyph glyph-name="onehalf" unicode="&#xbd;" horiz-adv-x="835" 
d="M45 308v41h79v326h-71v41h115v-367h81v-41h-204zM213 0h-53l398 719h54zM518 301l-38 19q18 41 59 70t90 29q61 0 94 -30.5t33 -90.5q0 -35 -21 -78t-57 -78q-59 -58 -108 -97h200v-43h-275v37q94 70 158 139q55 58 55 122q0 38 -22 57.5t-56 19.5q-67 0 -112 -76z" />
    <glyph glyph-name="threequarters" unicode="&#xbe;" horiz-adv-x="835" 
d="M97 617l-39 19q49 89 143 89q54 0 85.5 -26.5t31.5 -75.5q0 -68 -59 -100q66 -23 66 -98q0 -58 -39.5 -92t-105.5 -34q-35 0 -71 12.5t-58 30.5l21 38q50 -40 113 -40q41 0 67 24t26 63q0 38 -21.5 55t-54.5 17h-55v42h49q36 0 56 21t20 53q0 68 -76 68q-64 0 -99 -66z
M704 2h-43v99h-205v37l188 272h61v-267h66v-42h-67v-99zM510 143h151v217zM260 0h-53l398 719h54z" />
    <glyph glyph-name="questiondown" unicode="&#xbf;" horiz-adv-x="387" 
d="M293 333v-193q-105 -12 -152 -59t-47 -105q0 -65 39.5 -98t108.5 -33q36 0 71 7l9 -44q-28 -8 -83 -8q-93 0 -142.5 44t-49.5 129q0 77 52.5 131.5t147.5 73.5v155h46zM314 480q0 -18 -11.5 -30.5t-29.5 -12.5t-29 12.5t-11 30.5q0 20 11 32.5t30 12.5q17 0 28.5 -13
t11.5 -32z" />
    <glyph glyph-name="Agrave" unicode="&#xc0;" horiz-adv-x="605" 
d="M84 0h-53l226 719h82l235 -719h-52l-78 233h-289zM297 690l-129 -413h264zM185 874l208 -72l-10 -31l-213 51z" />
    <glyph glyph-name="Aacute" unicode="&#xc1;" horiz-adv-x="605" 
d="M84 0h-53l226 719h82l235 -719h-52l-78 233h-289zM297 690l-129 -413h264zM209 801l208 72l16 -51l-213 -51z" />
    <glyph glyph-name="Acircumflex" unicode="&#xc2;" horiz-adv-x="605" 
d="M84 0h-53l226 719h82l235 -719h-52l-78 233h-289zM297 690l-129 -413h264zM273 879h53l99 -90l-28 -27l-97 84l-97 -83l-29 27z" />
    <glyph glyph-name="Atilde" unicode="&#xc3;" horiz-adv-x="605" 
d="M84 0h-53l226 719h82l235 -719h-52l-78 233h-289zM297 690l-129 -413h264zM184 792l-16 39q15 15 41 26.5t50 11.5q17 0 49 -13.5t53 -13.5q28 0 61 23l7 -45q-29 -22 -71 -22q-23 0 -58 11t-47 11q-30 0 -69 -28z" />
    <glyph glyph-name="Adieresis" unicode="&#xc4;" horiz-adv-x="605" 
d="M84 0h-53l226 719h82l235 -719h-52l-78 233h-289zM297 690l-129 -413h264zM192 824q0 36 32 36q33 0 33 -36q0 -17 -9 -27t-24 -10q-32 0 -32 37zM340 824q0 17 9 26.5t23 9.5q34 0 34 -36q0 -17 -9 -27t-25 -10q-15 0 -23.5 10.5t-8.5 26.5z" />
    <glyph glyph-name="Aring" unicode="&#xc5;" horiz-adv-x="605" 
d="M84 0h-53l226 719q-38 19 -38 70q0 41 22.5 65t61.5 24q36 0 57.5 -21.5t21.5 -59.5q0 -58 -43 -78l235 -719h-52l-78 233h-289zM297 690l-129 -413h264zM257 791q0 -50 43 -50q45 0 45 52q0 54 -42 54q-46 0 -46 -56z" />
    <glyph glyph-name="AE" unicode="&#xc6;" horiz-adv-x="812" 
d="M391 0v233h-210l-106 -233h-55l331 719h412v-46h-323v-273h282v-49h-282v-305h336v-46h-385zM391 689l-189 -412h189v412z" />
    <glyph glyph-name="Ccedilla" unicode="&#xc7;" horiz-adv-x="553" 
d="M520 564l-49 -13q-17 69 -51 102.5t-110 33.5q-37 0 -67 -11.5t-50 -29.5t-34 -47.5t-22 -57t-12.5 -66.5t-5.5 -68.5t-1 -69.5q0 -147 48.5 -224.5t160.5 -77.5q99 0 177 55l15 -50q-24 -19 -77 -36.5t-117 -17.5t-111.5 21t-75.5 54t-44.5 83.5t-22 99.5t-5.5 111
q0 64 5.5 114.5t21.5 102t42 85.5t71 55.5t106 21.5q54 0 93.5 -15t62 -41.5t34 -53t18.5 -60.5zM246 -97v39q33 9 63 9q41 0 65 -21t24 -59q0 -56 -36.5 -79.5t-87.5 -23.5q-22 0 -42 4l-6 41q13 -4 38 -4q86 0 86 57q0 45 -51 45q-23 0 -53 -8z" />
    <glyph glyph-name="Egrave" unicode="&#xc8;" horiz-adv-x="525" 
d="M104 0v719h372v-46h-323v-273h282v-49h-282v-305h336v-46h-385zM177 874l208 -72l-10 -31l-213 51z" />
    <glyph glyph-name="Eacute" unicode="&#xc9;" horiz-adv-x="525" 
d="M104 0v719h372v-46h-323v-273h282v-49h-282v-305h336v-46h-385zM204 801l208 72l16 -51l-213 -51z" />
    <glyph glyph-name="Ecircumflex" unicode="&#xca;" horiz-adv-x="525" 
d="M104 0v719h372v-46h-323v-273h282v-49h-282v-305h336v-46h-385zM267 879h53l99 -90l-28 -27l-97 84l-97 -83l-29 27z" />
    <glyph glyph-name="Edieresis" unicode="&#xcb;" horiz-adv-x="525" 
d="M104 0v719h372v-46h-323v-273h282v-49h-282v-305h336v-46h-385zM185 824q0 36 32 36q33 0 33 -36q0 -17 -9 -27t-24 -10q-32 0 -32 37zM333 824q0 17 9 26.5t23 9.5q34 0 34 -36q0 -17 -9 -27t-25 -10q-15 0 -23.5 10.5t-8.5 26.5z" />
    <glyph glyph-name="Igrave" unicode="&#xcc;" horiz-adv-x="258" 
d="M104 719h49v-719h-49v719zM12 874l208 -72l-10 -31l-213 51z" />
    <glyph glyph-name="Iacute" unicode="&#xcd;" horiz-adv-x="258" 
d="M104 719h49v-719h-49v719zM40 801l208 72l16 -51l-213 -51z" />
    <glyph glyph-name="Icircumflex" unicode="&#xce;" horiz-adv-x="258" 
d="M104 719h49v-719h-49v719zM104 879h53l99 -90l-28 -27l-97 84l-97 -83l-29 27z" />
    <glyph glyph-name="Idieresis" unicode="&#xcf;" horiz-adv-x="258" 
d="M104 719h49v-719h-49v719zM23 824q0 36 32 36q33 0 33 -36q0 -17 -9 -27t-24 -10q-32 0 -32 37zM171 824q0 17 9 26.5t23 9.5q34 0 34 -36q0 -17 -9 -27t-25 -10q-15 0 -23.5 10.5t-8.5 26.5z" />
    <glyph glyph-name="Eth" unicode="&#xd0;" horiz-adv-x="620" 
d="M104 719h203q123 0 190 -74.5t67 -253.5q0 -116 -21.5 -196t-62.5 -121t-87.5 -57.5t-108.5 -16.5h-180v338h-86v45h86v336zM153 673v-290h202v-45h-202v-292h132q116 1 172 79.5t56 250.5q0 156 -50.5 226.5t-152.5 70.5h-157z" />
    <glyph glyph-name="Ntilde" unicode="&#xd1;" horiz-adv-x="692" 
d="M540 719h47v-719h-51l-384 635v-635h-48v719h56l380 -630v630zM231 792l-16 39q15 15 41 26.5t50 11.5q17 0 49 -13.5t53 -13.5q28 0 61 23l7 -45q-29 -22 -71 -22q-23 0 -58 11t-47 11q-30 0 -69 -28z" />
    <glyph glyph-name="Ograve" unicode="&#xd2;" horiz-adv-x="648" 
d="M322 -14q-256 0 -256 385q0 180 70 271.5t196 91.5q128 0 188.5 -86t60.5 -271q0 -391 -259 -391zM530 376q0 88 -14.5 150t-42 96.5t-63 49.5t-81.5 15q-96 0 -154 -75t-58 -241q0 -339 204 -339q47 0 82.5 15t65.5 51.5t45.5 106.5t15.5 171zM222 874l208 -72l-10 -31
l-213 51z" />
    <glyph glyph-name="Oacute" unicode="&#xd3;" horiz-adv-x="648" 
d="M322 -14q-256 0 -256 385q0 180 70 271.5t196 91.5q128 0 188.5 -86t60.5 -271q0 -391 -259 -391zM530 376q0 88 -14.5 150t-42 96.5t-63 49.5t-81.5 15q-96 0 -154 -75t-58 -241q0 -339 204 -339q47 0 82.5 15t65.5 51.5t45.5 106.5t15.5 171zM241 801l208 72l16 -51
l-213 -51z" />
    <glyph glyph-name="Ocircumflex" unicode="&#xd4;" horiz-adv-x="648" 
d="M322 -14q-256 0 -256 385q0 180 70 271.5t196 91.5q128 0 188.5 -86t60.5 -271q0 -391 -259 -391zM530 376q0 88 -14.5 150t-42 96.5t-63 49.5t-81.5 15q-96 0 -154 -75t-58 -241q0 -339 204 -339q47 0 82.5 15t65.5 51.5t45.5 106.5t15.5 171zM305 879h53l99 -90
l-28 -27l-97 84l-97 -83l-29 27z" />
    <glyph glyph-name="Otilde" unicode="&#xd5;" horiz-adv-x="648" 
d="M322 -14q-256 0 -256 385q0 180 70 271.5t196 91.5q128 0 188.5 -86t60.5 -271q0 -391 -259 -391zM530 376q0 88 -14.5 150t-42 96.5t-63 49.5t-81.5 15q-96 0 -154 -75t-58 -241q0 -339 204 -339q47 0 82.5 15t65.5 51.5t45.5 106.5t15.5 171zM216 792l-16 39
q15 15 41 26.5t50 11.5q17 0 49 -13.5t53 -13.5q28 0 61 23l7 -45q-29 -22 -71 -22q-23 0 -58 11t-47 11q-30 0 -69 -28z" />
    <glyph glyph-name="Odieresis" unicode="&#xd6;" horiz-adv-x="648" 
d="M322 -14q-256 0 -256 385q0 180 70 271.5t196 91.5q128 0 188.5 -86t60.5 -271q0 -391 -259 -391zM530 376q0 88 -14.5 150t-42 96.5t-63 49.5t-81.5 15q-96 0 -154 -75t-58 -241q0 -339 204 -339q47 0 82.5 15t65.5 51.5t45.5 106.5t15.5 171zM226 824q0 36 32 36
q33 0 33 -36q0 -17 -9 -27t-24 -10q-32 0 -32 37zM374 824q0 17 9 26.5t23 9.5q34 0 34 -36q0 -17 -9 -27t-25 -10q-15 0 -23.5 10.5t-8.5 26.5z" />
    <glyph glyph-name="multiply" unicode="&#xd7;" 
d="M49 133l184 182l-180 184l36 34l186 -189l187 187l33 -33l-179 -182l182 -183l-34 -34l-191 187l-191 -187z" />
    <glyph glyph-name="Oslash" unicode="&#xd8;" horiz-adv-x="648" 
d="M322 -14q-78 0 -131 34l-55 -115l-38 21l58 122q-90 93 -90 323q0 180 70 271.5t196 91.5q79 0 133 -33l47 99l43 -22l-52 -108q78 -84 78 -293q0 -391 -259 -391zM117 371q0 -187 63 -272l262 554q-44 34 -113 34q-96 0 -154 -75t-58 -241zM530 376q0 163 -53 240
l-264 -551q43 -33 108 -33q47 0 82.5 15t65.5 51.5t45.5 106.5t15.5 171z" />
    <glyph glyph-name="Ugrave" unicode="&#xd9;" horiz-adv-x="668" 
d="M152 719v-486q0 -104 36.5 -152.5t143.5 -48.5q110 0 147 48.5t37 160.5v478h49v-488q0 -58 -9.5 -99.5t-34 -76t-72 -52t-117.5 -17.5q-71 0 -117.5 16.5t-70 50t-32.5 73.5t-9 98v495h49zM222 874l208 -72l-10 -31l-213 51z" />
    <glyph glyph-name="Uacute" unicode="&#xda;" horiz-adv-x="668" 
d="M152 719v-486q0 -104 36.5 -152.5t143.5 -48.5q110 0 147 48.5t37 160.5v478h49v-488q0 -58 -9.5 -99.5t-34 -76t-72 -52t-117.5 -17.5q-71 0 -117.5 16.5t-70 50t-32.5 73.5t-9 98v495h49zM242 801l208 72l16 -51l-213 -51z" />
    <glyph glyph-name="Ucircumflex" unicode="&#xdb;" horiz-adv-x="668" 
d="M152 719v-486q0 -104 36.5 -152.5t143.5 -48.5q110 0 147 48.5t37 160.5v478h49v-488q0 -58 -9.5 -99.5t-34 -76t-72 -52t-117.5 -17.5q-71 0 -117.5 16.5t-70 50t-32.5 73.5t-9 98v495h49zM310 879h53l99 -90l-28 -27l-97 84l-97 -83l-29 27z" />
    <glyph glyph-name="Udieresis" unicode="&#xdc;" horiz-adv-x="668" 
d="M152 719v-486q0 -104 36.5 -152.5t143.5 -48.5q110 0 147 48.5t37 160.5v478h49v-488q0 -58 -9.5 -99.5t-34 -76t-72 -52t-117.5 -17.5q-71 0 -117.5 16.5t-70 50t-32.5 73.5t-9 98v495h49zM228 824q0 36 32 36q33 0 33 -36q0 -17 -9 -27t-24 -10q-32 0 -32 37zM376 824
q0 17 9 26.5t23 9.5q34 0 34 -36q0 -17 -9 -27t-25 -10q-15 0 -23.5 10.5t-8.5 26.5z" />
    <glyph glyph-name="Yacute" unicode="&#xdd;" horiz-adv-x="551" 
d="M279 351l200 368h52l-227 -416v-303h-51v300l-233 419h55zM203 801l208 72l16 -51l-213 -51z" />
    <glyph glyph-name="Thorn" unicode="&#xde;" horiz-adv-x="601" 
d="M153 187v-187h-49v719h49v-112h174q104 0 164.5 -49t60.5 -146q0 -104 -61.5 -164.5t-165.5 -60.5h-172zM153 232h168q87 0 133 45.5t46 126.5q0 84 -46.5 120t-135.5 36h-165v-328z" />
    <glyph glyph-name="germandbls" unicode="&#xdf;" horiz-adv-x="556" 
d="M139 543v-543h-45v549q0 86 50.5 128t132.5 42q51 0 86.5 -13t55 -32.5t30.5 -52.5t13.5 -62t2.5 -73v-18h-47q-121 0 -121 -93q0 -27 15.5 -47.5t39 -33.5t50.5 -29t50.5 -31t39 -42t15.5 -62q0 -66 -42 -103t-112 -37q-46 0 -83.5 14t-56.5 29l16 41q49 -43 121 -43
q50 0 80.5 23.5t30.5 71.5q0 30 -15.5 52.5t-39 35t-51 27t-51 29t-39 41t-15.5 62.5q0 66 49 100.5t124 32.5v19q0 75 -32.5 115t-109.5 40q-76 0 -109 -35t-33 -102z" />
    <glyph glyph-name="agrave" unicode="&#xe0;" horiz-adv-x="504" 
d="M95 477l-5 42q74 18 149 18q41 0 70 -10.5t44.5 -26.5t24.5 -43t11 -51t2 -60v-270q0 -46 41 -46q19 0 39 7l6 -38q-25 -9 -54 -9q-41 0 -58.5 19.5t-18.5 44.5q-73 -64 -153 -64q-71 0 -107.5 45.5t-36.5 112.5q0 170 200 170q50 0 94 -10v61q0 71 -26 99t-100 28
q-55 0 -122 -19zM344 95v173q-43 11 -88 11q-79 0 -117.5 -30t-38.5 -100q0 -52 25.5 -84t74.5 -32q75 0 144 62zM327 611l-19 -27l-199 121l32 46z" />
    <glyph glyph-name="aacute" unicode="&#xe1;" horiz-adv-x="504" 
d="M95 477l-5 42q74 18 149 18q41 0 70 -10.5t44.5 -26.5t24.5 -43t11 -51t2 -60v-270q0 -46 41 -46q19 0 39 7l6 -38q-25 -9 -54 -9q-41 0 -58.5 19.5t-18.5 44.5q-73 -64 -153 -64q-71 0 -107.5 45.5t-36.5 112.5q0 170 200 170q50 0 94 -10v61q0 71 -26 99t-100 28
q-55 0 -122 -19zM344 95v173q-43 11 -88 11q-79 0 -117.5 -30t-38.5 -100q0 -52 25.5 -84t74.5 -32q75 0 144 62zM175 584l-19 27l186 140l32 -46z" />
    <glyph glyph-name="acircumflex" unicode="&#xe2;" horiz-adv-x="504" 
d="M95 477l-5 42q74 18 149 18q41 0 70 -10.5t44.5 -26.5t24.5 -43t11 -51t2 -60v-270q0 -46 41 -46q19 0 39 7l6 -38q-25 -9 -54 -9q-41 0 -58.5 19.5t-18.5 44.5q-73 -64 -153 -64q-71 0 -107.5 45.5t-36.5 112.5q0 170 200 170q50 0 94 -10v61q0 71 -26 99t-100 28
q-55 0 -122 -19zM344 95v173q-43 11 -88 11q-79 0 -117.5 -30t-38.5 -100q0 -52 25.5 -84t74.5 -32q75 0 144 62zM209 737h53l96 -133l-34 -21l-89 118l-89 -116l-36 19z" />
    <glyph glyph-name="atilde" unicode="&#xe3;" horiz-adv-x="504" 
d="M95 477l-5 42q74 18 149 18q41 0 70 -10.5t44.5 -26.5t24.5 -43t11 -51t2 -60v-270q0 -46 41 -46q19 0 39 7l6 -38q-25 -9 -54 -9q-41 0 -58.5 19.5t-18.5 44.5q-73 -64 -153 -64q-71 0 -107.5 45.5t-36.5 112.5q0 170 200 170q50 0 94 -10v61q0 71 -26 99t-100 28
q-55 0 -122 -19zM344 95v173q-43 11 -88 11q-79 0 -117.5 -30t-38.5 -100q0 -52 25.5 -84t74.5 -32q75 0 144 62zM116 609l-17 39q15 15 41 27t51 12q17 0 49 -13.5t53 -13.5q30 0 61 23l7 -45q-30 -22 -71 -22q-24 0 -59 11t-46 11q-31 0 -69 -29z" />
    <glyph glyph-name="adieresis" unicode="&#xe4;" horiz-adv-x="504" 
d="M95 477l-5 42q74 18 149 18q41 0 70 -10.5t44.5 -26.5t24.5 -43t11 -51t2 -60v-270q0 -46 41 -46q19 0 39 7l6 -38q-25 -9 -54 -9q-41 0 -58.5 19.5t-18.5 44.5q-73 -64 -153 -64q-71 0 -107.5 45.5t-36.5 112.5q0 170 200 170q50 0 94 -10v61q0 71 -26 99t-100 28
q-55 0 -122 -19zM344 95v173q-43 11 -88 11q-79 0 -117.5 -30t-38.5 -100q0 -52 25.5 -84t74.5 -32q75 0 144 62zM128 651q0 16 9 26t24 10q33 0 33 -36q0 -16 -9.5 -26.5t-23.5 -10.5q-15 0 -24 10.5t-9 26.5zM277 651q0 16 9 26t23 10q33 0 33 -36q0 -37 -33 -37
q-15 0 -23.5 10.5t-8.5 26.5z" />
    <glyph glyph-name="aring" unicode="&#xe5;" horiz-adv-x="504" 
d="M95 477l-5 42q74 18 149 18q41 0 70 -10.5t44.5 -26.5t24.5 -43t11 -51t2 -60v-270q0 -46 41 -46q19 0 39 7l6 -38q-25 -9 -54 -9q-41 0 -58.5 19.5t-18.5 44.5q-73 -64 -153 -64q-71 0 -107.5 45.5t-36.5 112.5q0 170 200 170q50 0 94 -10v61q0 71 -26 99t-100 28
q-55 0 -122 -19zM344 95v173q-43 11 -88 11q-79 0 -117.5 -30t-38.5 -100q0 -52 25.5 -84t74.5 -32q75 0 144 62zM231 578q-36 0 -57 21t-21 58q0 41 22.5 65t61.5 24q36 0 57.5 -21.5t21.5 -59.5q0 -39 -22.5 -63t-62.5 -24zM191 659q0 -50 43 -50q45 0 45 52q0 54 -42 54
q-46 0 -46 -56z" />
    <glyph glyph-name="ae" unicode="&#xe6;" horiz-adv-x="760" 
d="M700 272h-311q1 -120 37 -180.5t120 -60.5q69 0 141 37l5 -44q-65 -36 -152 -36q-112 0 -159 83q-30 -32 -78.5 -56.5t-100.5 -24.5q-79 0 -116 45t-37 116q0 93 54 137t148 44q50 0 94 -10v48q0 66 -25.5 96t-88.5 30q-69 0 -133 -20l-5 42q68 19 144 19q115 0 144 -87
q47 87 151 87q168 0 168 -227v-38zM207 37q86 0 154 77l-5 19q-15 59 -15 148q-50 10 -83 10q-80 0 -118 -32.5t-38 -108.5q0 -49 25 -81t80 -32zM390 313h259q0 96 -31 138.5t-91 42.5q-68 0 -102 -53t-35 -128z" />
    <glyph glyph-name="ccedilla" unicode="&#xe7;" horiz-adv-x="434" 
d="M263 30q62 0 132 38l5 -44q-66 -36 -140 -36q-200 0 -200 264q0 285 190 285q69 0 106.5 -39.5t50.5 -95.5l-43 -17q-30 109 -118 109q-135 0 -135 -244q0 -220 152 -220zM184 -97v39q33 9 63 9q41 0 65 -21t24 -59q0 -56 -36.5 -79.5t-87.5 -23.5q-22 0 -42 4l-6 41
q13 -4 38 -4q86 0 86 57q0 45 -51 45q-23 0 -53 -8z" />
    <glyph glyph-name="egrave" unicode="&#xe8;" horiz-adv-x="475" 
d="M420 261h-311q0 -112 36.5 -171t120.5 -59q69 0 141 37l5 -44q-65 -36 -152 -36q-202 0 -202 274q0 138 52 206.5t142 68.5q168 0 168 -238v-38zM110 302h259q0 192 -122 192q-68 0 -102 -56.5t-35 -135.5zM347 611l-19 -27l-199 121l32 46z" />
    <glyph glyph-name="eacute" unicode="&#xe9;" horiz-adv-x="475" 
d="M420 261h-311q0 -112 36.5 -171t120.5 -59q69 0 141 37l5 -44q-65 -36 -152 -36q-202 0 -202 274q0 138 52 206.5t142 68.5q168 0 168 -238v-38zM110 302h259q0 192 -122 192q-68 0 -102 -56.5t-35 -135.5zM187 584l-19 27l186 140l32 -46z" />
    <glyph glyph-name="ecircumflex" unicode="&#xea;" horiz-adv-x="475" 
d="M420 261h-311q0 -112 36.5 -171t120.5 -59q69 0 141 37l5 -44q-65 -36 -152 -36q-202 0 -202 274q0 138 52 206.5t142 68.5q168 0 168 -238v-38zM110 302h259q0 192 -122 192q-68 0 -102 -56.5t-35 -135.5zM223 737h53l96 -133l-34 -21l-89 118l-89 -116l-36 19z" />
    <glyph glyph-name="edieresis" unicode="&#xeb;" horiz-adv-x="475" 
d="M420 261h-311q0 -112 36.5 -171t120.5 -59q69 0 141 37l5 -44q-65 -36 -152 -36q-202 0 -202 274q0 138 52 206.5t142 68.5q168 0 168 -238v-38zM110 302h259q0 192 -122 192q-68 0 -102 -56.5t-35 -135.5zM144 651q0 16 9 26t24 10q33 0 33 -36q0 -16 -9.5 -26.5
t-23.5 -10.5q-15 0 -24 10.5t-9 26.5zM293 651q0 16 9 26t23 10q33 0 33 -36q0 -37 -33 -37q-15 0 -23.5 10.5t-8.5 26.5z" />
    <glyph glyph-name="igrave" unicode="&#xec;" horiz-adv-x="230" 
d="M91 514h47v-514h-47v514zM203 611l-19 -27l-199 121l32 46z" />
    <glyph glyph-name="iacute" unicode="&#xed;" horiz-adv-x="230" 
d="M91 514h47v-514h-47v514zM44 584l-19 27l186 140l32 -46z" />
    <glyph glyph-name="icircumflex" unicode="&#xee;" horiz-adv-x="230" 
d="M91 514h47v-514h-47v514zM89 737h53l96 -133l-34 -21l-89 118l-89 -116l-36 19z" />
    <glyph glyph-name="idieresis" unicode="&#xef;" horiz-adv-x="230" 
d="M91 514h47v-514h-47v514zM8 651q0 16 9 26t24 10q33 0 33 -36q0 -16 -9.5 -26.5t-23.5 -10.5q-15 0 -24 10.5t-9 26.5zM157 651q0 16 9 26t23 10q33 0 33 -36q0 -37 -33 -37q-15 0 -23.5 10.5t-8.5 26.5z" />
    <glyph glyph-name="eth" unicode="&#xf0;" horiz-adv-x="506" 
d="M248 -10q-190 0 -190 261q0 116 52.5 194t152.5 78q57 0 100 -31q-33 102 -94 151l-99 -63l-23 38l84 52q-42 25 -128 43l8 44q92 -14 164 -57l102 60l22 -38l-87 -51q134 -126 134 -393q0 -288 -198 -288zM252 31q144 0 144 230q0 112 -22 175q-42 42 -113 42
q-47 0 -79.5 -23.5t-47.5 -62t-21 -73t-6 -71.5q0 -60 12 -106t45.5 -78.5t87.5 -32.5z" />
    <glyph glyph-name="ntilde" unicode="&#xf1;" horiz-adv-x="551" 
d="M139 526v-71q90 82 180 82q117 0 137 -101q3 -17 3 -65v-371h-46v367q0 30 -4 58q-7 35 -30.5 51.5t-70.5 16.5q-78 0 -169 -87v-406h-47v526h47zM166 609l-17 39q15 15 41 27t51 12q17 0 49 -13.5t53 -13.5q30 0 61 23l7 -45q-30 -22 -71 -22q-24 0 -58.5 11t-46.5 11
q-31 0 -69 -29z" />
    <glyph glyph-name="ograve" unicode="&#xf2;" horiz-adv-x="504" 
d="M248 -12q-190 0 -190 272q0 121 50.5 199t151.5 78q186 0 186 -267q0 -57 -10.5 -105.5t-32.5 -89t-61.5 -64t-93.5 -23.5zM249 30q146 0 146 236q0 228 -138 228q-44 0 -75.5 -24.5t-46 -64t-20.5 -75.5t-6 -73q0 -227 140 -227zM356 611l-19 -27l-199 121l32 46z" />
    <glyph glyph-name="oacute" unicode="&#xf3;" horiz-adv-x="504" 
d="M248 -12q-190 0 -190 272q0 121 50.5 199t151.5 78q186 0 186 -267q0 -57 -10.5 -105.5t-32.5 -89t-61.5 -64t-93.5 -23.5zM249 30q146 0 146 236q0 228 -138 228q-44 0 -75.5 -24.5t-46 -64t-20.5 -75.5t-6 -73q0 -227 140 -227zM194 584l-19 27l186 140l32 -46z" />
    <glyph glyph-name="ocircumflex" unicode="&#xf4;" horiz-adv-x="504" 
d="M248 -12q-190 0 -190 272q0 121 50.5 199t151.5 78q186 0 186 -267q0 -57 -10.5 -105.5t-32.5 -89t-61.5 -64t-93.5 -23.5zM249 30q146 0 146 236q0 228 -138 228q-44 0 -75.5 -24.5t-46 -64t-20.5 -75.5t-6 -73q0 -227 140 -227zM228 737h53l96 -133l-34 -21l-89 118
l-89 -116l-36 19z" />
    <glyph glyph-name="otilde" unicode="&#xf5;" horiz-adv-x="504" 
d="M248 -12q-190 0 -190 272q0 121 50.5 199t151.5 78q186 0 186 -267q0 -57 -10.5 -105.5t-32.5 -89t-61.5 -64t-93.5 -23.5zM249 30q146 0 146 236q0 228 -138 228q-44 0 -75.5 -24.5t-46 -64t-20.5 -75.5t-6 -73q0 -227 140 -227zM140 609l-17 39q15 15 41 27t51 12
q17 0 49 -13.5t53 -13.5q30 0 61 23l7 -45q-30 -22 -71 -22q-24 0 -59 11t-46 11q-31 0 -69 -29z" />
    <glyph glyph-name="odieresis" unicode="&#xf6;" horiz-adv-x="504" 
d="M248 -12q-190 0 -190 272q0 121 50.5 199t151.5 78q186 0 186 -267q0 -57 -10.5 -105.5t-32.5 -89t-61.5 -64t-93.5 -23.5zM249 30q146 0 146 236q0 228 -138 228q-44 0 -75.5 -24.5t-46 -64t-20.5 -75.5t-6 -73q0 -227 140 -227zM149 651q0 16 9 26t24 10q33 0 33 -36
q0 -16 -9.5 -26.5t-23.5 -10.5q-15 0 -24 10.5t-9 26.5zM298 651q0 16 9 26t23 10q33 0 33 -36q0 -37 -33 -37q-15 0 -23.5 10.5t-8.5 26.5z" />
    <glyph glyph-name="divide" unicode="&#xf7;" 
d="M220 451q0 20 13 34.5t34 14.5q22 0 34.5 -13.5t12.5 -34.5t-13 -35t-35 -14q-21 0 -33.5 13.5t-12.5 34.5zM220 178q0 20 13 34.5t34 14.5q22 0 34.5 -13.5t12.5 -34.5t-13 -35t-35 -14q-21 0 -33.5 13.5t-12.5 34.5zM496 293v44h-443v-44h443z" />
    <glyph glyph-name="oslash" unicode="&#xf8;" horiz-adv-x="504" 
d="M248 -12q-47 0 -85 18l-39 -83l-39 19l41 90q-68 65 -68 228q0 121 50.5 199t151.5 78q52 0 91 -22l34 73l40 -19l-39 -83q60 -67 60 -216q0 -57 -10.5 -105.5t-32.5 -89t-61.5 -64t-93.5 -23.5zM109 257q0 -120 40 -177l181 391q-30 23 -73 23q-44 0 -75.5 -24.5
t-46 -64t-20.5 -75.5t-6 -73zM249 30q146 0 146 236q0 111 -33 168l-180 -386q27 -18 67 -18z" />
    <glyph glyph-name="ugrave" unicode="&#xf9;" horiz-adv-x="542" 
d="M401 0v67q-91 -79 -180 -79q-116 0 -136 100q-4 21 -4 64v368l46 7v-368q0 -35 5 -58q7 -34 28 -52t66 -18q84 0 175 88v407h47v-526h-47zM353 611l-19 -27l-199 121l32 46z" />
    <glyph glyph-name="uacute" unicode="&#xfa;" horiz-adv-x="542" 
d="M401 0v67q-91 -79 -180 -79q-116 0 -136 100q-4 21 -4 64v368l46 7v-368q0 -35 5 -58q7 -34 28 -52t66 -18q84 0 175 88v407h47v-526h-47zM203 584l-19 27l186 140l32 -46z" />
    <glyph glyph-name="ucircumflex" unicode="&#xfb;" horiz-adv-x="542" 
d="M401 0v67q-91 -79 -180 -79q-116 0 -136 100q-4 21 -4 64v368l46 7v-368q0 -35 5 -58q7 -34 28 -52t66 -18q84 0 175 88v407h47v-526h-47zM239 737h53l96 -133l-34 -21l-89 118l-89 -116l-36 19z" />
    <glyph glyph-name="udieresis" unicode="&#xfc;" horiz-adv-x="542" 
d="M401 0v67q-91 -79 -180 -79q-116 0 -136 100q-4 21 -4 64v368l46 7v-368q0 -35 5 -58q7 -34 28 -52t66 -18q84 0 175 88v407h47v-526h-47zM158 651q0 16 9 26t24 10q33 0 33 -36q0 -16 -9.5 -26.5t-23.5 -10.5q-15 0 -24 10.5t-9 26.5zM307 651q0 16 9 26t23 10
q33 0 33 -36q0 -37 -33 -37q-15 0 -23.5 10.5t-8.5 26.5z" />
    <glyph glyph-name="yacute" unicode="&#xfd;" horiz-adv-x="435" 
d="M370 527l43 -5q-87 -323 -172 -525q-50 -121 -89 -167.5t-113 -46.5q-73 0 -131 35l15 45q65 -38 116 -38q55 0 87 42t68 136l-181 519l48 5l160 -466q45 98 149 466zM174 584l-19 27l186 140l32 -46z" />
    <glyph glyph-name="thorn" unicode="&#xfe;" horiz-adv-x="518" 
d="M92 719h47v-250q97 68 164 68q154 0 154 -236q0 -313 -190 -313q-59 0 -128 37v-234h-47v928zM139 422v-344q57 -46 132 -46q37 0 65 22t42.5 59t21 76.5t6.5 83.5q0 125 -29 171.5t-83 46.5q-56 0 -155 -69z" />
    <glyph glyph-name="ydieresis" unicode="&#xff;" horiz-adv-x="435" 
d="M370 527l43 -5q-87 -323 -172 -525q-50 -121 -89 -167.5t-113 -46.5q-73 0 -131 35l15 45q65 -38 116 -38q55 0 87 42t68 136l-181 519l48 5l160 -466q45 98 149 466zM116 651q0 16 9 26t24 10q33 0 33 -36q0 -16 -9.5 -26.5t-23.5 -10.5q-15 0 -24 10.5t-9 26.5z
M265 651q0 16 9 26t23 10q33 0 33 -36q0 -37 -33 -37q-15 0 -23.5 10.5t-8.5 26.5z" />
    <glyph glyph-name="Amacron" unicode="&#x100;" horiz-adv-x="605" 
d="M84 0h-53l226 719h82l235 -719h-52l-78 233h-289zM297 690l-129 -413h264zM162 803v44h273v-44h-273z" />
    <glyph glyph-name="amacron" unicode="&#x101;" horiz-adv-x="504" 
d="M95 477l-5 42q74 18 149 18q41 0 70 -10.5t44.5 -26.5t24.5 -43t11 -51t2 -60v-270q0 -46 41 -46q19 0 39 7l6 -38q-25 -9 -54 -9q-41 0 -58.5 19.5t-18.5 44.5q-73 -64 -153 -64q-71 0 -107.5 45.5t-36.5 112.5q0 170 200 170q50 0 94 -10v61q0 71 -26 99t-100 28
q-55 0 -122 -19zM344 95v173q-43 11 -88 11q-79 0 -117.5 -30t-38.5 -100q0 -52 25.5 -84t74.5 -32q75 0 144 62zM104 628v45h273v-45h-273z" />
    <glyph glyph-name="Abreve" unicode="&#x102;" horiz-adv-x="605" 
d="M84 0h-53l226 719h82l235 -719h-52l-78 233h-289zM297 690l-129 -413h264zM403 913l35 -20q-18 -42 -54.5 -75.5t-92.5 -33.5q-52 0 -86 33t-49 72l37 20q38 -84 101 -84q39 0 63 23t46 65z" />
    <glyph glyph-name="abreve" unicode="&#x103;" horiz-adv-x="504" 
d="M95 477l-5 42q74 18 149 18q41 0 70 -10.5t44.5 -26.5t24.5 -43t11 -51t2 -60v-270q0 -46 41 -46q19 0 39 7l6 -38q-25 -9 -54 -9q-41 0 -58.5 19.5t-18.5 44.5q-73 -64 -153 -64q-71 0 -107.5 45.5t-36.5 112.5q0 170 200 170q50 0 94 -10v61q0 71 -26 99t-100 28
q-55 0 -122 -19zM344 95v173q-43 11 -88 11q-79 0 -117.5 -30t-38.5 -100q0 -52 25.5 -84t74.5 -32q75 0 144 62zM342 713l35 -20q-18 -42 -54.5 -75.5t-92.5 -33.5q-52 0 -86 33t-49 72l37 20q38 -84 101 -84q39 0 63 23t46 65z" />
    <glyph glyph-name="Aogonek" unicode="&#x104;" horiz-adv-x="605" 
d="M521 2l-77 231h-289l-71 -233h-53l226 719h82l235 -719q-78 -62 -78 -115q0 -48 47 -48q27 0 52 13l9 -43q-30 -15 -71 -15q-42 0 -65.5 21t-23.5 59q0 71 77 130zM297 690l-129 -413h264z" />
    <glyph glyph-name="aogonek" unicode="&#x105;" horiz-adv-x="504" 
d="M95 477l-5 42q74 18 149 18q41 0 70 -10.5t44.5 -26.5t24.5 -43t11 -51t2 -60v-270q0 -46 41 -46q19 0 39 7l6 -38q-89 -54 -89 -113q0 -48 47 -48q27 0 52 13l9 -43q-30 -15 -71 -15q-42 0 -65.5 21t-23.5 59q0 66 63 120q-51 10 -53 61q-73 -64 -153 -64
q-71 0 -107.5 45.5t-36.5 112.5q0 170 200 170q50 0 94 -10v61q0 71 -26 99t-100 28q-55 0 -122 -19zM344 95v173q-43 11 -88 11q-79 0 -117.5 -30t-38.5 -100q0 -52 25.5 -84t74.5 -32q75 0 144 62z" />
    <glyph glyph-name="Cacute" unicode="&#x106;" horiz-adv-x="553" 
d="M520 564l-49 -13q-17 69 -51 102.5t-110 33.5q-37 0 -67 -11.5t-50 -29.5t-34 -47.5t-22 -57t-12.5 -66.5t-5.5 -68.5t-1 -69.5q0 -147 48.5 -224.5t160.5 -77.5q99 0 177 55l15 -50q-24 -19 -77 -36.5t-117 -17.5t-111.5 21t-75.5 54t-44.5 83.5t-22 99.5t-5.5 111
q0 64 5.5 114.5t21.5 102t42 85.5t71 55.5t106 21.5q54 0 93.5 -15t62 -41.5t34 -53t18.5 -60.5zM224 801l208 72l16 -51l-213 -51z" />
    <glyph glyph-name="cacute" unicode="&#x107;" horiz-adv-x="434" 
d="M263 30q62 0 132 38l5 -44q-66 -36 -140 -36q-200 0 -200 264q0 285 190 285q69 0 106.5 -39.5t50.5 -95.5l-43 -17q-30 109 -118 109q-135 0 -135 -244q0 -220 152 -220zM191 584l-19 27l186 140l32 -46z" />
    <glyph glyph-name="Ccircumflex" unicode="&#x108;" horiz-adv-x="553" 
d="M520 564l-49 -13q-17 69 -51 102.5t-110 33.5q-37 0 -67 -11.5t-50 -29.5t-34 -47.5t-22 -57t-12.5 -66.5t-5.5 -68.5t-1 -69.5q0 -147 48.5 -224.5t160.5 -77.5q99 0 177 55l15 -50q-24 -19 -77 -36.5t-117 -17.5t-111.5 21t-75.5 54t-44.5 83.5t-22 99.5t-5.5 111
q0 64 5.5 114.5t21.5 102t42 85.5t71 55.5t106 21.5q54 0 93.5 -15t62 -41.5t34 -53t18.5 -60.5zM293 879h53l99 -90l-28 -27l-97 84l-97 -83l-29 27z" />
    <glyph glyph-name="ccircumflex" unicode="&#x109;" horiz-adv-x="434" 
d="M263 30q62 0 132 38l5 -44q-66 -36 -140 -36q-200 0 -200 264q0 285 190 285q69 0 106.5 -39.5t50.5 -95.5l-43 -17q-30 109 -118 109q-135 0 -135 -244q0 -220 152 -220zM225 737h53l96 -133l-34 -21l-89 118l-89 -116l-36 19z" />
    <glyph glyph-name="Cdotaccent" unicode="&#x10a;" horiz-adv-x="553" 
d="M520 564l-49 -13q-17 69 -51 102.5t-110 33.5q-37 0 -67 -11.5t-50 -29.5t-34 -47.5t-22 -57t-12.5 -66.5t-5.5 -68.5t-1 -69.5q0 -147 48.5 -224.5t160.5 -77.5q99 0 177 55l15 -50q-24 -19 -77 -36.5t-117 -17.5t-111.5 21t-75.5 54t-44.5 83.5t-22 99.5t-5.5 111
q0 64 5.5 114.5t21.5 102t42 85.5t71 55.5t106 21.5q54 0 93.5 -15t62 -41.5t34 -53t18.5 -60.5zM316 797q-33 0 -33 40q0 35 33 35t33 -35q0 -40 -33 -40z" />
    <glyph glyph-name="cdotaccent" unicode="&#x10b;" horiz-adv-x="434" 
d="M263 30q62 0 132 38l5 -44q-66 -36 -140 -36q-200 0 -200 264q0 285 190 285q69 0 106.5 -39.5t50.5 -95.5l-43 -17q-30 109 -118 109q-135 0 -135 -244q0 -220 152 -220zM255 609q-33 0 -33 40q0 35 33 35t33 -35q0 -40 -33 -40z" />
    <glyph glyph-name="Ccaron" unicode="&#x10c;" horiz-adv-x="553" 
d="M520 564l-49 -13q-17 69 -51 102.5t-110 33.5q-37 0 -67 -11.5t-50 -29.5t-34 -47.5t-22 -57t-12.5 -66.5t-5.5 -68.5t-1 -69.5q0 -147 48.5 -224.5t160.5 -77.5q99 0 177 55l15 -50q-24 -19 -77 -36.5t-117 -17.5t-111.5 21t-75.5 54t-44.5 83.5t-22 99.5t-5.5 111
q0 64 5.5 114.5t21.5 102t42 85.5t71 55.5t106 21.5q54 0 93.5 -15t62 -41.5t34 -53t18.5 -60.5zM348 771h-53l-99 90l30 28l96 -86l97 85l28 -28z" />
    <glyph glyph-name="ccaron" unicode="&#x10d;" horiz-adv-x="434" 
d="M263 30q62 0 132 38l5 -44q-66 -36 -140 -36q-200 0 -200 264q0 285 190 285q69 0 106.5 -39.5t50.5 -95.5l-43 -17q-30 109 -118 109q-135 0 -135 -244q0 -220 152 -220zM280 584h-53l-96 133l36 22l87 -119l88 118l37 -21z" />
    <glyph glyph-name="Dcaron" unicode="&#x10e;" horiz-adv-x="620" 
d="M104 719h203q123 0 190 -74.5t67 -253.5q0 -116 -21.5 -196t-62.5 -121t-87.5 -57.5t-108.5 -16.5h-180v719zM153 673v-627h132q116 1 172 79.5t56 250.5q0 156 -50.5 226.5t-152.5 70.5h-157zM318 771h-53l-99 90l30 28l96 -86l97 85l28 -28z" />
    <glyph glyph-name="dcaron" unicode="&#x10f;" horiz-adv-x="519" 
d="M380 487v232h47v-719h-45v55q-71 -67 -146 -67q-82 0 -130 65.5t-48 199.5q0 54 9.5 101.5t30 90t58.5 67.5t90 25q61 0 134 -50zM380 109v324q-75 58 -132 58q-139 0 -139 -248q0 -101 36 -156.5t95 -55.5q76 0 140 78zM511 719h54l-20 -202h-34v202z" />
    <glyph glyph-name="Dcroat" unicode="&#x110;" horiz-adv-x="620" 
d="M104 719h203q123 0 190 -74.5t67 -253.5q0 -116 -21.5 -196t-62.5 -121t-87.5 -57.5t-108.5 -16.5h-180v338h-86v45h86v336zM153 673v-290h202v-45h-202v-292h132q116 1 172 79.5t56 250.5q0 156 -50.5 226.5t-152.5 70.5h-157z" />
    <glyph glyph-name="dcroat" unicode="&#x111;" horiz-adv-x="519" 
d="M188 604v43h192v72h47v-72h72v-43h-72v-604h-45v55q-71 -67 -146 -67q-82 0 -130 65.5t-48 199.5q0 50 9.5 94t30 84t58.5 63t90 23q61 0 134 -50v137h-192zM380 109v304q-75 58 -132 58q-139 0 -139 -228q0 -101 36 -156.5t95 -55.5q76 0 140 78z" />
    <glyph glyph-name="Emacron" unicode="&#x112;" horiz-adv-x="525" 
d="M104 0v719h372v-46h-323v-273h282v-49h-282v-305h336v-46h-385zM155 803v44h273v-44h-273z" />
    <glyph glyph-name="emacron" unicode="&#x113;" horiz-adv-x="475" 
d="M420 261h-311q0 -112 36.5 -171t120.5 -59q69 0 141 37l5 -44q-65 -36 -152 -36q-202 0 -202 274q0 138 52 206.5t142 68.5q168 0 168 -238v-38zM110 302h259q0 192 -122 192q-68 0 -102 -56.5t-35 -135.5zM117 628v45h273v-45h-273z" />
    <glyph glyph-name="Ebreve" unicode="&#x114;" horiz-adv-x="525" 
d="M104 0v719h372v-46h-323v-273h282v-49h-282v-305h336v-46h-385zM401 913l35 -20q-18 -42 -54.5 -75.5t-92.5 -33.5q-52 0 -86 33t-49 72l37 20q38 -84 101 -84q39 0 63 23t46 65z" />
    <glyph glyph-name="ebreve" unicode="&#x115;" horiz-adv-x="475" 
d="M420 261h-311q0 -112 36.5 -171t120.5 -59q69 0 141 37l5 -44q-65 -36 -152 -36q-202 0 -202 274q0 138 52 206.5t142 68.5q168 0 168 -238v-38zM110 302h259q0 192 -122 192q-68 0 -102 -56.5t-35 -135.5zM360 713l35 -20q-18 -42 -54.5 -75.5t-92.5 -33.5q-52 0 -86 33
t-49 72l37 20q38 -84 101 -84q39 0 63 23t46 65z" />
    <glyph glyph-name="Edotaccent" unicode="&#x116;" horiz-adv-x="525" 
d="M104 0v719h372v-46h-323v-273h282v-49h-282v-305h336v-46h-385zM296 797q-33 0 -33 40q0 35 33 35t33 -35q0 -40 -33 -40z" />
    <glyph glyph-name="edotaccent" unicode="&#x117;" horiz-adv-x="475" 
d="M420 261h-311q0 -112 36.5 -171t120.5 -59q69 0 141 37l5 -44q-65 -36 -152 -36q-202 0 -202 274q0 138 52 206.5t142 68.5q168 0 168 -238v-38zM110 302h259q0 192 -122 192q-68 0 -102 -56.5t-35 -135.5zM251 609q-33 0 -33 40q0 35 33 35t33 -35q0 -40 -33 -40z" />
    <glyph glyph-name="Eogonek" unicode="&#x118;" horiz-adv-x="525" 
d="M104 0v719h372v-46h-323v-273h282v-49h-282v-305h336v-46h-385zM429 2l54 -2q-78 -62 -78 -115q0 -48 47 -48q27 0 52 13l9 -43q-30 -15 -71 -15q-42 0 -65.5 21t-23.5 59q0 72 76 130z" />
    <glyph glyph-name="eogonek" unicode="&#x119;" horiz-adv-x="475" 
d="M420 261h-311q0 -112 36.5 -171t120.5 -59q69 0 141 37l5 -44q-46 -23 -82 -61.5t-36 -79.5q0 -45 47 -45q27 0 52 13l9 -43q-30 -15 -71 -15q-42 0 -65.5 21t-23.5 59q0 61 61 118q-21 -3 -43 -3q-202 0 -202 274q0 138 52 206.5t142 68.5q168 0 168 -238v-38zM110 302
h259q0 192 -122 192q-68 0 -102 -56.5t-35 -135.5z" />
    <glyph glyph-name="Ecaron" unicode="&#x11a;" horiz-adv-x="525" 
d="M104 0v719h372v-46h-323v-273h282v-49h-282v-305h336v-46h-385zM323 771h-53l-99 90l30 28l96 -86l97 85l28 -28z" />
    <glyph glyph-name="ecaron" unicode="&#x11b;" horiz-adv-x="475" 
d="M420 261h-311q0 -112 36.5 -171t120.5 -59q69 0 141 37l5 -44q-65 -36 -152 -36q-202 0 -202 274q0 138 52 206.5t142 68.5q168 0 168 -238v-38zM110 302h259q0 192 -122 192q-68 0 -102 -56.5t-35 -135.5zM278 584h-53l-96 133l36 22l87 -119l88 118l37 -21z" />
    <glyph glyph-name="Gcircumflex" unicode="&#x11c;" horiz-adv-x="598" 
d="M313 296v42h229v-308q-99 -44 -196 -44q-147 0 -213.5 92t-66.5 295q0 167 61 264t193 97q95 0 145.5 -42.5t66.5 -127.5l-46 -12q-22 70 -56 102.5t-112 32.5q-95 0 -148.5 -76t-53.5 -234q0 -82 9.5 -140t34 -107t71.5 -73.5t117 -24.5q84 0 147 33v231h-182zM294 879
h53l99 -90l-28 -27l-97 84l-97 -83l-29 27z" />
    <glyph glyph-name="gcircumflex" unicode="&#x11d;" horiz-adv-x="521" 
d="M380 526v-39q-38 26 -65.5 38t-64.5 12q-69 0 -114 -42.5t-61.5 -103t-16.5 -137.5q0 -134 48 -199t130 -65q75 0 148 69v-39q0 -35 -2 -60t-9.5 -52.5t-21 -44.5t-38.5 -28.5t-59 -11.5q-44 0 -89.5 15t-72.5 32l-10 -48q70 -41 175 -41q101 0 135.5 58t34.5 172v515
h-47zM380 433v-322q-64 -78 -140 -78q-59 0 -95 54t-36 156q0 248 140 248q56 0 131 -58zM233 737h53l96 -133l-34 -21l-89 118l-89 -116l-36 19z" />
    <glyph glyph-name="Gbreve" unicode="&#x11e;" horiz-adv-x="598" 
d="M313 296v42h229v-308q-99 -44 -196 -44q-147 0 -213.5 92t-66.5 295q0 167 61 264t193 97q95 0 145.5 -42.5t66.5 -127.5l-46 -12q-22 70 -56 102.5t-112 32.5q-95 0 -148.5 -76t-53.5 -234q0 -82 9.5 -140t34 -107t71.5 -73.5t117 -24.5q84 0 147 33v231h-182zM427 913
l35 -20q-18 -42 -54.5 -75.5t-92.5 -33.5q-52 0 -86 33t-49 72l37 20q38 -84 101 -84q39 0 63 23t46 65z" />
    <glyph glyph-name="gbreve" unicode="&#x11f;" horiz-adv-x="521" 
d="M380 526v-39q-38 26 -65.5 38t-64.5 12q-69 0 -114 -42.5t-61.5 -103t-16.5 -137.5q0 -134 48 -199t130 -65q75 0 148 69v-39q0 -35 -2 -60t-9.5 -52.5t-21 -44.5t-38.5 -28.5t-59 -11.5q-44 0 -89.5 15t-72.5 32l-10 -48q70 -41 175 -41q101 0 135.5 58t34.5 172v515
h-47zM380 433v-322q-64 -78 -140 -78q-59 0 -95 54t-36 156q0 248 140 248q56 0 131 -58zM366 713l35 -20q-18 -42 -54.5 -75.5t-92.5 -33.5q-52 0 -86 33t-49 72l37 20q38 -84 101 -84q39 0 63 23t46 65z" />
    <glyph glyph-name="Gdotaccent" unicode="&#x120;" horiz-adv-x="598" 
d="M313 296v42h229v-308q-99 -44 -196 -44q-147 0 -213.5 92t-66.5 295q0 167 61 264t193 97q95 0 145.5 -42.5t66.5 -127.5l-46 -12q-22 70 -56 102.5t-112 32.5q-95 0 -148.5 -76t-53.5 -234q0 -82 9.5 -140t34 -107t71.5 -73.5t117 -24.5q84 0 147 33v231h-182zM322 797
q-33 0 -33 40q0 35 33 35t33 -35q0 -40 -33 -40z" />
    <glyph glyph-name="gdotaccent" unicode="&#x121;" horiz-adv-x="521" 
d="M380 487v39h47v-515q0 -114 -34.5 -172t-135.5 -58q-105 0 -175 41l10 48q27 -17 72.5 -32t89.5 -15q34 0 59 11.5t38.5 28.5t21 44.5t9.5 52.5t2 60v39q-73 -69 -148 -69q-82 0 -130 65t-48 199q0 77 16.5 137.5t61.5 103t114 42.5q37 0 64.5 -12t65.5 -38zM380 111v322
q-75 58 -131 58q-140 0 -140 -248q0 -102 36 -156t95 -54q76 0 140 78zM253 609q-33 0 -33 40q0 35 33 35t33 -35q0 -40 -33 -40z" />
    <glyph glyph-name="Gcommaaccent" unicode="&#x122;" horiz-adv-x="598" 
d="M313 296v42h229v-308q-99 -44 -196 -44q-147 0 -213.5 92t-66.5 295q0 167 61 264t193 97q95 0 145.5 -42.5t66.5 -127.5l-46 -12q-22 70 -56 102.5t-112 32.5q-95 0 -148.5 -76t-53.5 -234q0 -82 9.5 -140t34 -107t71.5 -73.5t117 -24.5q84 0 147 33v231h-182zM263 -220
l34 -9l62 173l-54 15z" />
    <glyph glyph-name="gcommaaccent" unicode="&#x123;" horiz-adv-x="521" 
d="M380 487v39h47v-515q0 -114 -34.5 -172t-135.5 -58q-105 0 -175 41l10 48q27 -17 72.5 -32t89.5 -15q34 0 59 11.5t38.5 28.5t21 44.5t9.5 52.5t2 60v39q-73 -69 -148 -69q-82 0 -130 65t-48 199q0 77 16.5 137.5t61.5 103t114 42.5q37 0 64.5 -12t65.5 -38zM380 111v322
q-75 58 -131 58q-140 0 -140 -248q0 -102 36 -156t95 -54q76 0 140 78zM283 772l33 -10l-42 -178l-53 15z" />
    <glyph glyph-name="Hcircumflex" unicode="&#x124;" horiz-adv-x="695" 
d="M542 719h49v-719h-49v348h-389v-348h-49v719h49v-325h389v325zM323 879h53l99 -90l-28 -27l-97 84l-97 -83l-29 27z" />
    <glyph glyph-name="hcircumflex" unicode="&#x125;" horiz-adv-x="551" 
d="M327 537q110 0 129 -96q3 -17 3 -65v-376h-47v370q0 37 -3 58q-7 34 -28.5 48.5t-63.5 14.5q-78 0 -178 -81v-410h-47v719h47v-260q103 78 188 78zM177 879h53l99 -90l-28 -27l-97 84l-97 -83l-29 27z" />
    <glyph glyph-name="Hbar" unicode="&#x126;" horiz-adv-x="695" 
d="M542 719h49v-136h77v-46h-77v-537h-49v348h-389v-348h-49v537h-77v46h77v136h49v-136h389v136zM153 394h389v143h-389v-143z" />
    <glyph glyph-name="hbar" unicode="&#x127;" horiz-adv-x="551" 
d="M28 600v41h64v78h47v-78h225v-41h-225v-153q103 78 188 78q110 0 129 -96q3 -17 3 -65v-364h-47v358q0 37 -3 58q-7 34 -28.5 48.5t-63.5 14.5q-78 0 -178 -81v-398h-47v600h-64z" />
    <glyph glyph-name="Itilde" unicode="&#x128;" horiz-adv-x="258" 
d="M104 719h49v-719h-49v719zM12 792l-16 39q15 15 41 26.5t50 11.5q17 0 49 -13.5t53 -13.5q28 0 61 23l7 -45q-29 -22 -71 -22q-23 0 -58 11t-47 11q-30 0 -69 -28z" />
    <glyph glyph-name="itilde" unicode="&#x129;" horiz-adv-x="230" 
d="M91 514h47v-514h-47v514zM-4 609l-17 39q15 15 41 27t51 12q17 0 49 -13.5t53 -13.5q30 0 61 23l7 -45q-30 -22 -71 -22q-24 0 -59 11t-46 11q-31 0 -69 -29z" />
    <glyph glyph-name="Imacron" unicode="&#x12a;" horiz-adv-x="258" 
d="M104 719h49v-719h-49v719zM-8 803v44h273v-44h-273z" />
    <glyph glyph-name="imacron" unicode="&#x12b;" horiz-adv-x="230" 
d="M91 514h47v-514h-47v514zM-22 628v45h273v-45h-273z" />
    <glyph glyph-name="Ibreve" unicode="&#x12c;" horiz-adv-x="258" 
d="M104 719h49v-719h-49v719zM234 913l35 -20q-18 -42 -54.5 -75.5t-92.5 -33.5q-52 0 -86 33t-49 72l37 20q38 -84 101 -84q39 0 63 23t46 65z" />
    <glyph glyph-name="ibreve" unicode="&#x12d;" horiz-adv-x="230" 
d="M91 514h47v-514h-47v514zM222 713l35 -20q-18 -42 -54.5 -75.5t-92.5 -33.5q-52 0 -86 33t-49 72l37 20q38 -84 101 -84q39 0 63 23t46 65z" />
    <glyph glyph-name="Iogonek" unicode="&#x12e;" horiz-adv-x="258" 
d="M104 719h49v-719h-49v719zM93 2l54 -2q-78 -62 -78 -115q0 -48 47 -48q27 0 52 13l9 -43q-30 -15 -71 -15q-42 0 -65.5 21t-23.5 59q0 72 76 130z" />
    <glyph glyph-name="iogonek" unicode="&#x12f;" horiz-adv-x="230" 
d="M91 6v520h47v-526q-22 -19 -35 -32.5t-26.5 -37t-13.5 -45.5q0 -48 47 -48q27 0 52 13l9 -43q-30 -15 -71 -15q-42 0 -65.5 21t-23.5 59q0 69 80 134zM114 621q-33 0 -33 40q0 35 33 35t33 -35q0 -40 -33 -40z" />
    <glyph glyph-name="Idotaccent" unicode="&#x130;" horiz-adv-x="258" 
d="M104 719h49v-719h-49v719zM129 797q-33 0 -33 40q0 35 33 35t33 -35q0 -40 -33 -40z" />
    <glyph glyph-name="dotlessi" unicode="&#x131;" horiz-adv-x="230" 
d="M91 514h47v-514h-47v514z" />
    <glyph glyph-name="IJ" unicode="&#x132;" horiz-adv-x="662" 
d="M104 719h49v-719h-49v719zM270 19l18 45q55 -32 129 -32q28 0 47 7.5t29.5 19.5t16 33.5t7 42t1.5 53.5v531h49v-546q0 -43 -4 -69.5t-18 -57t-47 -45.5t-85 -15q-43 0 -83.5 10t-59.5 23z" />
    <glyph glyph-name="ij" unicode="&#x133;" horiz-adv-x="460" 
d="M91 526h47v-526h-47v526zM114 621q-33 0 -33 40q0 35 33 35t33 -35q0 -40 -33 -40zM368 526v-616q0 -67 -25.5 -98t-83.5 -31q-53 0 -88 25l11 40q39 -23 80 -23q33 0 46 20.5t13 63.5v619h47zM344 621q-33 0 -33 40q0 35 33 35t33 -35q0 -40 -33 -40z" />
    <glyph glyph-name="Jcircumflex" unicode="&#x134;" horiz-adv-x="404" 
d="M12 19l18 45q55 -32 129 -32q28 0 47 7.5t29.5 19.5t16 33.5t7 42t1.5 53.5v531h49v-546q0 -43 -4 -69.5t-18 -57t-47 -45.5t-85 -15q-43 0 -83.5 10t-59.5 23zM259 879h53l99 -90l-28 -27l-97 84l-97 -83l-29 27z" />
    <glyph glyph-name="jcircumflex" unicode="&#x135;" horiz-adv-x="230" 
d="M138 526v-616q0 -67 -25.5 -98t-83.5 -31q-53 0 -88 25l11 40q39 -23 80 -23q33 0 46 20.5t13 63.5v619h47zM90 737h53l96 -133l-34 -21l-89 118l-89 -116l-36 19z" />
    <glyph glyph-name="Kcommaaccent" unicode="&#x136;" horiz-adv-x="552" 
d="M526 719l-184 -340l197 -379h-57l-185 352h-143v-352h-50v719h50v-319h147l171 319h54zM220 -220l34 -9l62 173l-54 15z" />
    <glyph glyph-name="kcommaaccent" unicode="&#x137;" horiz-adv-x="465" 
d="M377 530l46 -9l-145 -221l169 -300h-54l-154 272h-100v-272h-47v719h47v-407h96zM179 -220l34 -9l62 173l-54 15z" />
    <glyph glyph-name="kgreenlandic" unicode="&#x138;" horiz-adv-x="480" 
d="M389 514l51 -5l-162 -232l170 -277h-59l-151 246h-99v-246h-47v514h47v-225h92z" />
    <glyph glyph-name="Lacute" unicode="&#x139;" horiz-adv-x="512" 
d="M104 0v719h49v-673h327v-46h-376zM72 801l208 72l16 -51l-213 -51z" />
    <glyph glyph-name="lacute" unicode="&#x13a;" horiz-adv-x="300" 
d="M85 108v611h47v-599q0 -46 14 -67t51 -21t82 21l7 -41q-38 -22 -95 -22q-61 0 -83.5 27.5t-22.5 90.5zM52 801l208 72l16 -51l-213 -51z" />
    <glyph glyph-name="Lcommaaccent" unicode="&#x13b;" horiz-adv-x="512" 
d="M104 0v719h49v-673h327v-46h-376zM217 -220l34 -9l62 173l-54 15z" />
    <glyph glyph-name="lcommaaccent" unicode="&#x13c;" horiz-adv-x="300" 
d="M85 108v611h47v-599q0 -46 14 -67t51 -21t82 21l7 -41q-38 -22 -95 -22q-61 0 -83.5 27.5t-22.5 90.5zM140 -229l-34 9l42 179l54 -15z" />
    <glyph glyph-name="Lcaron" unicode="&#x13d;" horiz-adv-x="512" 
d="M104 0v719h49v-673h327v-46h-376zM355 719h-54v-202h34z" />
    <glyph glyph-name="lcaron" unicode="&#x13e;" horiz-adv-x="300" 
d="M85 108v611h47v-599q0 -46 14 -67t51 -21t82 21l7 -41q-38 -22 -95 -22q-61 0 -83.5 27.5t-22.5 90.5zM216 719h54l-20 -202h-34v202z" />
    <glyph glyph-name="Ldot" unicode="&#x13f;" horiz-adv-x="512" 
d="M104 0v719h49v-673h327v-46h-376zM387 335q33 0 33 40q0 35 -33 35t-33 -35q0 -40 33 -40z" />
    <glyph glyph-name="ldot" unicode="&#x140;" horiz-adv-x="326" 
d="M85 108v611h47v-599q0 -46 14 -67t51 -21t82 21l7 -41q-38 -22 -95 -22q-61 0 -83.5 27.5t-22.5 90.5zM283 326q-33 0 -33 40q0 35 33 35t33 -35q0 -40 -33 -40z" />
    <glyph glyph-name="Lslash" unicode="&#x141;" horiz-adv-x="517" 
d="M-2 240l-16 38l127 68v373h49v-351l203 107l18 -35l-221 -120v-271h327v-49h-376v299z" />
    <glyph glyph-name="lslash" unicode="&#x142;" horiz-adv-x="310" 
d="M99 359v360h47v-326l107 88l25 -30l-132 -112v-219q0 -46 14 -67t51 -21q36 0 82 21l7 -41q-38 -22 -95 -22q-61 0 -83.5 27.5t-22.5 90.5v197l-84 -69l-25 35z" />
    <glyph glyph-name="Nacute" unicode="&#x143;" horiz-adv-x="692" 
d="M540 719h47v-719h-51l-384 635v-635h-48v719h56l380 -630v630zM267 801l208 72l16 -51l-213 -51z" />
    <glyph glyph-name="nacute" unicode="&#x144;" horiz-adv-x="551" 
d="M139 526v-71q90 82 180 82q117 0 137 -101q3 -17 3 -65v-371h-46v367q0 30 -4 58q-7 35 -30.5 51.5t-70.5 16.5q-78 0 -169 -87v-406h-47v526h47zM218 584l-19 27l186 140l32 -46z" />
    <glyph glyph-name="Ncommaaccent" unicode="&#x145;" horiz-adv-x="692" 
d="M540 719h47v-719h-51l-384 635v-635h-48v719h56l380 -630v630zM278 -220l34 -9l62 173l-54 15z" />
    <glyph glyph-name="ncommaaccent" unicode="&#x146;" horiz-adv-x="551" 
d="M139 526v-71q90 82 180 82q117 0 137 -101q3 -17 3 -65v-371h-46v367q0 30 -4 58q-7 35 -30.5 51.5t-70.5 16.5q-78 0 -169 -87v-406h-47v526h47zM214 -220l34 -9l62 173l-54 15z" />
    <glyph glyph-name="Ncaron" unicode="&#x147;" horiz-adv-x="692" 
d="M540 719h47v-719h-51l-384 635v-635h-48v719h56l380 -630v630zM376 771h-53l-99 90l30 28l96 -86l97 85l28 -28z" />
    <glyph glyph-name="ncaron" unicode="&#x148;" horiz-adv-x="551" 
d="M139 526v-71q90 82 180 82q117 0 137 -101q3 -17 3 -65v-371h-46v367q0 30 -4 58q-7 35 -30.5 51.5t-70.5 16.5q-78 0 -169 -87v-406h-47v526h47zM306 584h-53l-96 133l36 22l87 -119l88 118l37 -21z" />
    <glyph glyph-name="napostrophe" unicode="&#x149;" horiz-adv-x="551" 
d="M139 526v-71q90 82 180 82q117 0 137 -101q3 -17 3 -65v-371h-46v367q0 30 -4 58q-7 35 -30.5 51.5t-70.5 16.5q-78 0 -169 -87v-406h-47v526h47zM21 545l21 171q3 25 34 25q27 0 27 -29q0 -6 -2 -16l-47 -157z" />
    <glyph glyph-name="Eng" unicode="&#x14a;" horiz-adv-x="692" 
d="M540 719h47v-809q0 -67 -25.5 -98t-83.5 -31q-53 0 -88 25l11 40q39 -23 80 -23q33 0 46 20.5t13 63.5v93l-388 630v-630h-48v719h56l380 -621v621z" />
    <glyph glyph-name="eng" unicode="&#x14b;" horiz-adv-x="551" 
d="M139 526v-71q90 82 180 82q117 0 137 -101q3 -17 3 -65v-461q0 -67 -25.5 -98t-83.5 -31q-53 0 -88 25l11 40q39 -23 80 -23q33 0 46.5 20.5t13.5 63.5v460q0 30 -4 58q-7 35 -30.5 51.5t-70.5 16.5q-78 0 -169 -87v-406h-47v526h47z" />
    <glyph glyph-name="Omacron" unicode="&#x14c;" horiz-adv-x="648" 
d="M322 -14q-256 0 -256 385q0 180 70 271.5t196 91.5q128 0 188.5 -86t60.5 -271q0 -391 -259 -391zM530 376q0 88 -14.5 150t-42 96.5t-63 49.5t-81.5 15q-96 0 -154 -75t-58 -241q0 -339 204 -339q47 0 82.5 15t65.5 51.5t45.5 106.5t15.5 171zM194 803v44h273v-44h-273z
" />
    <glyph glyph-name="omacron" unicode="&#x14d;" horiz-adv-x="504" 
d="M248 -12q-190 0 -190 272q0 121 50.5 199t151.5 78q186 0 186 -267q0 -57 -10.5 -105.5t-32.5 -89t-61.5 -64t-93.5 -23.5zM249 30q146 0 146 236q0 228 -138 228q-44 0 -75.5 -24.5t-46 -64t-20.5 -75.5t-6 -73q0 -227 140 -227zM123 628v45h273v-45h-273z" />
    <glyph glyph-name="Obreve" unicode="&#x14e;" horiz-adv-x="648" 
d="M322 -14q-256 0 -256 385q0 180 70 271.5t196 91.5q128 0 188.5 -86t60.5 -271q0 -391 -259 -391zM530 376q0 88 -14.5 150t-42 96.5t-63 49.5t-81.5 15q-96 0 -154 -75t-58 -241q0 -339 204 -339q47 0 82.5 15t65.5 51.5t45.5 106.5t15.5 171zM436 913l35 -20
q-18 -42 -54.5 -75.5t-92.5 -33.5q-52 0 -86 33t-49 72l37 20q38 -84 101 -84q39 0 63 23t46 65z" />
    <glyph glyph-name="obreve" unicode="&#x14f;" horiz-adv-x="504" 
d="M248 -12q-190 0 -190 272q0 121 50.5 199t151.5 78q186 0 186 -267q0 -57 -10.5 -105.5t-32.5 -89t-61.5 -64t-93.5 -23.5zM249 30q146 0 146 236q0 228 -138 228q-44 0 -75.5 -24.5t-46 -64t-20.5 -75.5t-6 -73q0 -227 140 -227zM365 713l35 -20q-18 -42 -54.5 -75.5
t-92.5 -33.5q-52 0 -86 33t-49 72l37 20q38 -84 101 -84q39 0 63 23t46 65z" />
    <glyph glyph-name="Ohungarumlaut" unicode="&#x150;" horiz-adv-x="648" 
d="M322 -14q-256 0 -256 385q0 180 70 271.5t196 91.5q128 0 188.5 -86t60.5 -271q0 -391 -259 -391zM530 376q0 88 -14.5 150t-42 96.5t-63 49.5t-81.5 15q-96 0 -154 -75t-58 -241q0 -339 204 -339q47 0 82.5 15t65.5 51.5t45.5 106.5t15.5 171zM362 800l191 139l32 -48
l-205 -120zM187 800l192 139l31 -48l-204 -120z" />
    <glyph glyph-name="ohungarumlaut" unicode="&#x151;" horiz-adv-x="504" 
d="M248 -12q-190 0 -190 272q0 121 50.5 199t151.5 78q186 0 186 -267q0 -57 -10.5 -105.5t-32.5 -89t-61.5 -64t-93.5 -23.5zM249 30q146 0 146 236q0 228 -138 228q-44 0 -75.5 -24.5t-46 -64t-20.5 -75.5t-6 -73q0 -227 140 -227zM304 583l-17 29l191 138l31 -48z
M138 583l-19 28l186 146l32 -47z" />
    <glyph glyph-name="OE" unicode="&#x152;" horiz-adv-x="864" 
d="M409 0q-36 -10 -81 -10q-55 0 -95.5 16.5t-75.5 57t-53 118t-18 189.5q0 359 257 359q49 0 85 -12h386v-45h-316q79 -82 82 -273h193v-46h-192q-4 -219 -95 -308h342v-46h-419zM531 376q0 117 -24.5 186t-64.5 94.5t-103 25.5q-202 0 -202 -311q0 -179 48.5 -256.5
t145.5 -77.5q47 0 81 14t62.5 50t42.5 104.5t14 170.5z" />
    <glyph glyph-name="oe" unicode="&#x153;" horiz-adv-x="808" 
d="M752 261h-311q0 -112 36.5 -171t120.5 -59q69 0 141 37l5 -44q-65 -36 -152 -36q-138 0 -175 129q-42 -129 -169 -129q-190 0 -190 272q0 121 50.5 199t151.5 78q123 0 161 -123q19 59 61.5 91t101.5 32q168 0 168 -238v-38zM249 30q146 0 146 236q0 228 -138 228
q-44 0 -75.5 -24.5t-46 -64t-20.5 -75.5t-6 -73q0 -227 140 -227zM442 302h259q0 192 -122 192q-68 0 -102 -56.5t-35 -135.5z" />
    <glyph glyph-name="Racute" unicode="&#x154;" horiz-adv-x="603" 
d="M152 329v-329h-48v719h216q104 0 163 -44t59 -136q0 -138 -127 -197l126 -342h-52l-123 329h-214zM152 373h164q80 0 127 39t47 112q0 81 -42 115t-130 34h-166v-300zM210 801l208 72l16 -51l-213 -51z" />
    <glyph glyph-name="racute" unicode="&#x155;" horiz-adv-x="365" 
d="M264 537q65 0 91 -75l-41 -22q-8 17 -14 26t-18 17t-29 8q-51 0 -114 -72v-419h-47v526h45v-57q24 23 37 34t38.5 22.5t51.5 11.5zM177 584l-19 27l186 140l32 -46z" />
    <glyph glyph-name="Rcommaaccent" unicode="&#x156;" horiz-adv-x="603" 
d="M152 329v-329h-48v719h216q104 0 163 -44t59 -136q0 -138 -127 -197l126 -342h-52l-123 329h-214zM152 373h164q80 0 127 39t47 112q0 81 -42 115t-130 34h-166v-300zM240 -220l34 -9l62 173l-54 15z" />
    <glyph glyph-name="rcommaaccent" unicode="&#x157;" horiz-adv-x="365" 
d="M264 537q65 0 91 -75l-41 -22q-8 17 -14 26t-18 17t-29 8q-51 0 -114 -72v-419h-47v526h45v-57q24 23 37 34t38.5 22.5t51.5 11.5zM49 -220l34 -9l62 173l-54 15z" />
    <glyph glyph-name="Rcaron" unicode="&#x158;" horiz-adv-x="603" 
d="M152 329v-329h-48v719h216q104 0 163 -44t59 -136q0 -138 -127 -197l126 -342h-52l-123 329h-214zM152 373h164q80 0 127 39t47 112q0 81 -42 115t-130 34h-166v-300zM330 771h-53l-99 90l30 28l96 -86l97 85l28 -28z" />
    <glyph glyph-name="rcaron" unicode="&#x159;" horiz-adv-x="365" 
d="M264 537q65 0 91 -75l-41 -22q-8 17 -14 26t-18 17t-29 8q-51 0 -114 -72v-419h-47v526h45v-57q24 23 37 34t38.5 22.5t51.5 11.5zM246 584h-53l-96 133l36 22l87 -119l88 118l37 -21z" />
    <glyph glyph-name="Sacute" unicode="&#x15a;" horiz-adv-x="534" 
d="M46 60l29 45q27 -28 73.5 -49t104.5 -21q70 0 114.5 35t44.5 110q0 31 -9 56t-21.5 40.5t-35 29.5t-40.5 21.5t-47 17.5q-47 16 -70.5 26t-57 33t-48.5 57.5t-15 82.5q0 90 59 140t148 50q50 0 88.5 -15t61 -40t34.5 -51.5t15 -53.5l-48 -12q-30 123 -154 123
q-65 0 -107 -35t-42 -104q0 -25 5 -44.5t17.5 -34.5t23.5 -25.5t34 -21t37 -16t43 -15.5q36 -13 54.5 -20.5t48 -25t44 -36t26 -49.5t11.5 -71q0 -91 -52.5 -146t-160.5 -55q-74 0 -128.5 23t-79.5 51zM184 801l208 72l16 -51l-213 -51z" />
    <glyph glyph-name="sacute" unicode="&#x15b;" horiz-adv-x="417" 
d="M41 44l14 46q22 -20 63 -39.5t84 -19.5q49 0 81 24.5t32 72.5q0 35 -17 58.5t-37 33t-56 21.5q-26 9 -32.5 11t-29.5 11t-30.5 15t-23.5 19t-22 25.5t-11.5 32t-5.5 41.5q0 64 45 102.5t116 38.5q68 0 107.5 -36t49.5 -84l-40 -15q-15 49 -43.5 71t-76.5 22
q-47 0 -78 -25.5t-31 -74.5q0 -24 8.5 -41.5t27 -30t34.5 -19.5t44 -17q32 -11 45 -16t38.5 -18.5t37 -27t21.5 -37t10 -52.5q0 -66 -43.5 -106.5t-122.5 -40.5q-48 0 -94 18.5t-64 36.5zM146 584l-19 27l186 140l32 -46z" />
    <glyph glyph-name="Scircumflex" unicode="&#x15c;" horiz-adv-x="534" 
d="M46 60l29 45q27 -28 73.5 -49t104.5 -21q70 0 114.5 35t44.5 110q0 31 -9 56t-21.5 40.5t-35 29.5t-40.5 21.5t-47 17.5q-47 16 -70.5 26t-57 33t-48.5 57.5t-15 82.5q0 90 59 140t148 50q50 0 88.5 -15t61 -40t34.5 -51.5t15 -53.5l-48 -12q-30 123 -154 123
q-65 0 -107 -35t-42 -104q0 -25 5 -44.5t17.5 -34.5t23.5 -25.5t34 -21t37 -16t43 -15.5q36 -13 54.5 -20.5t48 -25t44 -36t26 -49.5t11.5 -71q0 -91 -52.5 -146t-160.5 -55q-74 0 -128.5 23t-79.5 51zM248 879h53l99 -90l-28 -27l-97 84l-97 -83l-29 27z" />
    <glyph glyph-name="scircumflex" unicode="&#x15d;" horiz-adv-x="417" 
d="M41 44l14 46q22 -20 63 -39.5t84 -19.5q49 0 81 24.5t32 72.5q0 35 -17 58.5t-37 33t-56 21.5q-26 9 -32.5 11t-29.5 11t-30.5 15t-23.5 19t-22 25.5t-11.5 32t-5.5 41.5q0 64 45 102.5t116 38.5q68 0 107.5 -36t49.5 -84l-40 -15q-15 49 -43.5 71t-76.5 22
q-47 0 -78 -25.5t-31 -74.5q0 -24 8.5 -41.5t27 -30t34.5 -19.5t44 -17q32 -11 45 -16t38.5 -18.5t37 -27t21.5 -37t10 -52.5q0 -66 -43.5 -106.5t-122.5 -40.5q-48 0 -94 18.5t-64 36.5zM187 737h53l96 -133l-34 -21l-89 118l-89 -116l-36 19z" />
    <glyph glyph-name="Scedilla" unicode="&#x15e;" horiz-adv-x="534" 
d="M46 60l29 45q27 -28 73.5 -49t104.5 -21q70 0 114.5 35t44.5 110q0 31 -9 56t-21.5 40.5t-35 29.5t-40.5 21.5t-47 17.5q-47 16 -70.5 26t-57 33t-48.5 57.5t-15 82.5q0 90 59 140t148 50q50 0 88.5 -15t61 -40t34.5 -51.5t15 -53.5l-48 -12q-30 123 -154 123
q-65 0 -107 -35t-42 -104q0 -25 5 -44.5t17.5 -34.5t23.5 -25.5t34 -21t37 -16t43 -15.5q36 -13 54.5 -20.5t48 -25t44 -36t26 -49.5t11.5 -71q0 -91 -52.5 -146t-160.5 -55q-74 0 -128.5 23t-79.5 51zM191 -97v39q33 9 63 9q41 0 65 -21t24 -59q0 -56 -36.5 -79.5
t-87.5 -23.5q-22 0 -42 4l-6 41q13 -4 38 -4q86 0 86 57q0 45 -51 45q-23 0 -53 -8z" />
    <glyph glyph-name="scedilla" unicode="&#x15f;" horiz-adv-x="417" 
d="M41 44l14 46q22 -20 63 -39.5t84 -19.5q49 0 81 24.5t32 72.5q0 35 -17 58.5t-37 33t-56 21.5q-26 9 -32.5 11t-29.5 11t-30.5 15t-23.5 19t-22 25.5t-11.5 32t-5.5 41.5q0 64 45 102.5t116 38.5q68 0 107.5 -36t49.5 -84l-40 -15q-15 49 -43.5 71t-76.5 22
q-47 0 -78 -25.5t-31 -74.5q0 -24 8.5 -41.5t27 -30t34.5 -19.5t44 -17q32 -11 45 -16t38.5 -18.5t37 -27t21.5 -37t10 -52.5q0 -66 -43.5 -106.5t-122.5 -40.5q-48 0 -94 18.5t-64 36.5zM134 -97v39q33 9 63 9q41 0 65 -21t24 -59q0 -56 -36.5 -79.5t-87.5 -23.5
q-22 0 -42 4l-6 41q13 -4 38 -4q86 0 86 57q0 45 -51 45q-23 0 -53 -8z" />
    <glyph glyph-name="Scaron" unicode="&#x160;" horiz-adv-x="534" 
d="M46 60l29 45q27 -28 73.5 -49t104.5 -21q70 0 114.5 35t44.5 110q0 31 -9 56t-21.5 40.5t-35 29.5t-40.5 21.5t-47 17.5q-47 16 -70.5 26t-57 33t-48.5 57.5t-15 82.5q0 90 59 140t148 50q50 0 88.5 -15t61 -40t34.5 -51.5t15 -53.5l-48 -12q-30 123 -154 123
q-65 0 -107 -35t-42 -104q0 -25 5 -44.5t17.5 -34.5t23.5 -25.5t34 -21t37 -16t43 -15.5q36 -13 54.5 -20.5t48 -25t44 -36t26 -49.5t11.5 -71q0 -91 -52.5 -146t-160.5 -55q-74 0 -128.5 23t-79.5 51zM296 771h-53l-99 90l30 28l96 -86l97 85l28 -28z" />
    <glyph glyph-name="scaron" unicode="&#x161;" horiz-adv-x="417" 
d="M41 44l14 46q22 -20 63 -39.5t84 -19.5q49 0 81 24.5t32 72.5q0 35 -17 58.5t-37 33t-56 21.5q-26 9 -32.5 11t-29.5 11t-30.5 15t-23.5 19t-22 25.5t-11.5 32t-5.5 41.5q0 64 45 102.5t116 38.5q68 0 107.5 -36t49.5 -84l-40 -15q-15 49 -43.5 71t-76.5 22
q-47 0 -78 -25.5t-31 -74.5q0 -24 8.5 -41.5t27 -30t34.5 -19.5t44 -17q32 -11 45 -16t38.5 -18.5t37 -27t21.5 -37t10 -52.5q0 -66 -43.5 -106.5t-122.5 -40.5q-48 0 -94 18.5t-64 36.5zM236 584h-53l-96 133l36 22l87 -119l88 118l37 -21z" />
    <glyph glyph-name="Tcommaaccent" unicode="&#x162;" horiz-adv-x="535" 
d="M15 673v46h505v-46h-229v-673h-49v673h-227zM187 -220l34 -9l62 173l-54 15z" />
    <glyph glyph-name="tcommaaccent" unicode="&#x163;" horiz-adv-x="312" 
d="M282 487h-144v-359q0 -52 10.5 -74.5t49.5 -22.5q32 0 76 21l7 -42q-40 -21 -87 -21q-55 0 -79 27.5t-24 87.5v383h-66v39h66v88l47 28v-116h144v-39zM110 -220l34 -9l62 173l-54 15z" />
    <glyph glyph-name="Tcaron" unicode="&#x164;" horiz-adv-x="535" 
d="M15 673v46h505v-46h-229v-673h-49v673h-227zM292 771h-53l-99 90l30 28l96 -86l97 85l28 -28z" />
    <glyph glyph-name="tcaron" unicode="&#x165;" horiz-adv-x="312" 
d="M282 487h-144v-359q0 -52 10.5 -74.5t49.5 -22.5q32 0 76 21l7 -42q-40 -21 -87 -21q-55 0 -79 27.5t-24 87.5v383h-66v39h66v88l47 28v-116h144v-39zM222 799h54l-20 -202h-34v202z" />
    <glyph glyph-name="Tbar" unicode="&#x166;" horiz-adv-x="535" 
d="M15 673v46h505v-46h-229v-299h146v-46h-146v-328h-49v328h-146v46h146v299h-227z" />
    <glyph glyph-name="tbar" unicode="&#x167;" horiz-adv-x="312" 
d="M282 487h-144v-176h144v-39h-144v-144q0 -52 10.5 -74.5t49.5 -22.5q32 0 76 21l7 -42q-40 -21 -87 -21q-55 0 -79 27.5t-24 87.5v168h-66v39h66v176h-66v39h66v88l47 28v-116h144v-39z" />
    <glyph glyph-name="Utilde" unicode="&#x168;" horiz-adv-x="668" 
d="M152 719v-486q0 -104 36.5 -152.5t143.5 -48.5q110 0 147 48.5t37 160.5v478h49v-488q0 -58 -9.5 -99.5t-34 -76t-72 -52t-117.5 -17.5q-71 0 -117.5 16.5t-70 50t-32.5 73.5t-9 98v495h49zM215 792l-16 39q15 15 41 26.5t50 11.5q17 0 49 -13.5t53 -13.5q28 0 61 23
l7 -45q-29 -22 -71 -22q-23 0 -58 11t-47 11q-30 0 -69 -28z" />
    <glyph glyph-name="utilde" unicode="&#x169;" horiz-adv-x="542" 
d="M401 0v67q-91 -79 -180 -79q-116 0 -136 100q-4 21 -4 64v368l46 7v-368q0 -35 5 -58q7 -34 28 -52t66 -18q84 0 175 88v407h47v-526h-47zM152 609l-17 39q15 15 41 27t51 12q17 0 49 -13.5t53 -13.5q30 0 61 23l7 -45q-30 -22 -71 -22q-24 0 -59 11t-46 11
q-31 0 -69 -29z" />
    <glyph glyph-name="Umacron" unicode="&#x16a;" horiz-adv-x="668" 
d="M152 719v-486q0 -104 36.5 -152.5t143.5 -48.5q110 0 147 48.5t37 160.5v478h49v-488q0 -58 -9.5 -99.5t-34 -76t-72 -52t-117.5 -17.5q-71 0 -117.5 16.5t-70 50t-32.5 73.5t-9 98v495h49zM199 803v44h273v-44h-273z" />
    <glyph glyph-name="umacron" unicode="&#x16b;" horiz-adv-x="542" 
d="M401 0v67q-91 -79 -180 -79q-116 0 -136 100q-4 21 -4 64v368l46 7v-368q0 -35 5 -58q7 -34 28 -52t66 -18q84 0 175 88v407h47v-526h-47zM129 628v45h273v-45h-273z" />
    <glyph glyph-name="Ubreve" unicode="&#x16c;" horiz-adv-x="668" 
d="M152 719v-486q0 -104 36.5 -152.5t143.5 -48.5q110 0 147 48.5t37 160.5v478h49v-488q0 -58 -9.5 -99.5t-34 -76t-72 -52t-117.5 -17.5q-71 0 -117.5 16.5t-70 50t-32.5 73.5t-9 98v495h49zM440 913l35 -20q-18 -42 -54.5 -75.5t-92.5 -33.5q-52 0 -86 33t-49 72l37 20
q38 -84 101 -84q39 0 63 23t46 65z" />
    <glyph glyph-name="ubreve" unicode="&#x16d;" horiz-adv-x="542" 
d="M401 0v67q-91 -79 -180 -79q-116 0 -136 100q-4 21 -4 64v368l46 7v-368q0 -35 5 -58q7 -34 28 -52t66 -18q84 0 175 88v407h47v-526h-47zM372 713l35 -20q-18 -42 -54.5 -75.5t-92.5 -33.5q-52 0 -86 33t-49 72l37 20q38 -84 101 -84q39 0 63 23t46 65z" />
    <glyph glyph-name="Uring" unicode="&#x16e;" horiz-adv-x="668" 
d="M152 719v-486q0 -104 36.5 -152.5t143.5 -48.5q110 0 147 48.5t37 160.5v478h49v-488q0 -58 -9.5 -99.5t-34 -76t-72 -52t-117.5 -17.5q-71 0 -117.5 16.5t-70 50t-32.5 73.5t-9 98v495h49zM332 749q-36 0 -57 21t-21 58q0 41 22.5 65t61.5 24q36 0 57.5 -21.5
t21.5 -59.5q0 -39 -22.5 -63t-62.5 -24zM292 830q0 -50 43 -50q45 0 45 52q0 54 -42 54q-46 0 -46 -56z" />
    <glyph glyph-name="uring" unicode="&#x16f;" horiz-adv-x="542" 
d="M401 0v67q-91 -79 -180 -79q-116 0 -136 100q-4 21 -4 64v368l46 7v-368q0 -35 5 -58q7 -34 28 -52t66 -18q84 0 175 88v407h47v-526h-47zM262 578q-36 0 -57 21t-21 58q0 41 22.5 65t61.5 24q36 0 57.5 -21.5t21.5 -59.5q0 -39 -22.5 -63t-62.5 -24zM222 659
q0 -50 43 -50q45 0 45 52q0 54 -42 54q-46 0 -46 -56z" />
    <glyph glyph-name="Uhungarumlaut" unicode="&#x170;" horiz-adv-x="668" 
d="M152 719v-486q0 -104 36.5 -152.5t143.5 -48.5q110 0 147 48.5t37 160.5v478h49v-488q0 -58 -9.5 -99.5t-34 -76t-72 -52t-117.5 -17.5q-71 0 -117.5 16.5t-70 50t-32.5 73.5t-9 98v495h49zM364 800l191 139l32 -48l-205 -120zM189 800l192 139l31 -48l-204 -120z" />
    <glyph glyph-name="uhungarumlaut" unicode="&#x171;" horiz-adv-x="542" 
d="M401 0v67q-91 -79 -180 -79q-116 0 -136 100q-4 21 -4 64v368l46 7v-368q0 -35 5 -58q7 -34 28 -52t66 -18q84 0 175 88v407h47v-526h-47zM313 583l-17 29l191 138l31 -48zM147 583l-19 28l186 146l32 -47z" />
    <glyph glyph-name="Uogonek" unicode="&#x172;" horiz-adv-x="668" 
d="M152 719v-486q0 -104 36.5 -152.5t143.5 -48.5q110 0 147 48.5t37 160.5v478h49v-488q0 -58 -9.5 -99.5t-34 -76t-72 -52t-117.5 -17.5q-71 0 -117.5 16.5t-70 50t-32.5 73.5t-9 98v495h49zM381 3l54 -2q-78 -62 -78 -115q0 -48 47 -48q27 0 52 13l9 -43q-30 -15 -71 -15
q-42 0 -65.5 21t-23.5 59q0 72 76 130z" />
    <glyph glyph-name="uogonek" unicode="&#x173;" horiz-adv-x="542" 
d="M401 4v63q-91 -79 -180 -79q-116 0 -136 100q-4 21 -4 64v368l46 7v-368q0 -35 5 -58q7 -34 28 -52t66 -18q84 0 175 88v407h47v-526q-72 -65 -72 -115q0 -48 47 -48q27 0 52 13l9 -43q-30 -15 -71 -15q-42 0 -65.5 21t-23.5 59q0 68 77 132z" />
    <glyph glyph-name="Wcircumflex" unicode="&#x174;" horiz-adv-x="831" 
d="M220 0h-62l-91 719h54q78 -626 78 -637l201 567h36l195 -567l80 637h52l-90 -719h-64l-192 552zM394 879h53l99 -90l-28 -27l-97 84l-97 -83l-29 27z" />
    <glyph glyph-name="wcircumflex" unicode="&#x175;" horiz-adv-x="654" 
d="M578 527l45 -6l-115 -521h-63l-114 454l-133 -454h-61l-107 522l44 5l96 -476l139 468h50l116 -471zM309 737h53l96 -133l-34 -21l-89 118l-89 -116l-36 19z" />
    <glyph glyph-name="Ycircumflex" unicode="&#x176;" horiz-adv-x="551" 
d="M279 351l200 368h52l-227 -416v-303h-51v300l-233 419h55zM253 879h53l99 -90l-28 -27l-97 84l-97 -83l-29 27z" />
    <glyph glyph-name="ycircumflex" unicode="&#x177;" horiz-adv-x="435" 
d="M370 527l43 -5q-87 -323 -172 -525q-50 -121 -89 -167.5t-113 -46.5q-73 0 -131 35l15 45q65 -38 116 -38q55 0 87 42t68 136l-181 519l48 5l160 -466q45 98 149 466zM197 737h53l96 -133l-34 -21l-89 118l-89 -116l-36 19z" />
    <glyph glyph-name="Ydieresis" unicode="&#x178;" horiz-adv-x="551" 
d="M279 351l200 368h52l-227 -416v-303h-51v300l-233 419h55zM173 824q0 36 32 36q33 0 33 -36q0 -17 -9 -27t-24 -10q-32 0 -32 37zM321 824q0 17 9 26.5t23 9.5q34 0 34 -36q0 -17 -9 -27t-25 -10q-15 0 -23.5 10.5t-8.5 26.5z" />
    <glyph glyph-name="Zacute" unicode="&#x179;" horiz-adv-x="524" 
d="M48 673v46h448v-56l-413 -617h398v-46h-453v51l417 622h-397zM187 801l208 72l16 -51l-213 -51z" />
    <glyph glyph-name="zacute" unicode="&#x17a;" horiz-adv-x="390" 
d="M375 498l-295 -459h286v-39h-338v36l289 451h-275v39h333v-28zM156 584l-19 27l186 140l32 -46z" />
    <glyph glyph-name="Zdotaccent" unicode="&#x17b;" horiz-adv-x="524" 
d="M48 673v46h448v-56l-413 -617h398v-46h-453v51l417 622h-397zM275 797q-33 0 -33 40q0 35 33 35t33 -35q0 -40 -33 -40z" />
    <glyph glyph-name="zdotaccent" unicode="&#x17c;" horiz-adv-x="390" 
d="M375 498l-295 -459h286v-39h-338v36l289 451h-275v39h333v-28zM211 609q-33 0 -33 40q0 35 33 35t33 -35q0 -40 -33 -40z" />
    <glyph glyph-name="Zcaron" unicode="&#x17d;" horiz-adv-x="524" 
d="M48 673v46h448v-56l-413 -617h398v-46h-453v51l417 622h-397zM302 771h-53l-99 90l30 28l96 -86l97 85l28 -28z" />
    <glyph glyph-name="zcaron" unicode="&#x17e;" horiz-adv-x="390" 
d="M375 498l-295 -459h286v-39h-338v36l289 451h-275v39h333v-28zM236 584h-53l-96 133l36 22l87 -119l88 118l37 -21z" />
    <glyph glyph-name="longs" unicode="&#x17f;" horiz-adv-x="272" 
d="M140 558v-558h-47v565q0 167 154 167q35 0 82 -10l-4 -44q-44 11 -82 11q-55 0 -79 -31t-24 -100z" />
    <glyph glyph-name="florin" unicode="&#x192;" horiz-adv-x="438" 
d="M439 686l-3 -42q-30 11 -66 11q-48 0 -68.5 -27.5t-32.5 -86.5l-22 -107h116l-9 -39h-115l-71 -389q-14 -76 -45 -116t-100 -40q-47 0 -86 15l6 42q42 -14 77 -14q42 0 64.5 26t33.5 85l74 391h-85l8 39h84l23 122q13 67 47 104.5t101 37.5q35 0 69 -12z" />
    <glyph glyph-name="Scommaaccent" unicode="&#x218;" horiz-adv-x="534" 
d="M46 60l29 45q27 -28 73.5 -49t104.5 -21q70 0 114.5 35t44.5 110q0 31 -9 56t-21.5 40.5t-35 29.5t-40.5 21.5t-47 17.5q-47 16 -70.5 26t-57 33t-48.5 57.5t-15 82.5q0 90 59 140t148 50q50 0 88.5 -15t61 -40t34.5 -51.5t15 -53.5l-48 -12q-30 123 -154 123
q-65 0 -107 -35t-42 -104q0 -25 5 -44.5t17.5 -34.5t23.5 -25.5t34 -21t37 -16t43 -15.5q36 -13 54.5 -20.5t48 -25t44 -36t26 -49.5t11.5 -71q0 -91 -52.5 -146t-160.5 -55q-74 0 -128.5 23t-79.5 51zM201 -220l34 -9l62 173l-54 15z" />
    <glyph glyph-name="scommaaccent" unicode="&#x219;" horiz-adv-x="417" 
d="M41 44l14 46q22 -20 63 -39.5t84 -19.5q49 0 81 24.5t32 72.5q0 35 -17 58.5t-37 33t-56 21.5q-26 9 -32.5 11t-29.5 11t-30.5 15t-23.5 19t-22 25.5t-11.5 32t-5.5 41.5q0 64 45 102.5t116 38.5q68 0 107.5 -36t49.5 -84l-40 -15q-15 49 -43.5 71t-76.5 22
q-47 0 -78 -25.5t-31 -74.5q0 -24 8.5 -41.5t27 -30t34.5 -19.5t44 -17q32 -11 45 -16t38.5 -18.5t37 -27t21.5 -37t10 -52.5q0 -66 -43.5 -106.5t-122.5 -40.5q-48 0 -94 18.5t-64 36.5zM144 -220l34 -9l62 173l-54 15z" />
    <glyph glyph-name="uni021A" unicode="&#x21a;" horiz-adv-x="535" 
d="M15 673v46h505v-46h-229v-673h-49v673h-227zM196 -220l34 -9l62 173l-54 15z" />
    <glyph glyph-name="uni021B" unicode="&#x21b;" horiz-adv-x="312" 
d="M282 487h-144v-359q0 -52 10.5 -74.5t49.5 -22.5q32 0 76 21l7 -42q-40 -21 -87 -21q-55 0 -79 27.5t-24 87.5v383h-66v39h66v88l47 28v-116h144v-39zM107 -220l34 -9l62 173l-54 15z" />
    <glyph glyph-name="dotlessj" unicode="&#x237;" horiz-adv-x="230" 
d="M138 526v-616q0 -67 -25.5 -98t-83.5 -31q-53 0 -88 25l11 40q39 -23 80 -23q33 0 46 20.5t13 63.5v619h47z" />
    <glyph glyph-name="apostrophe" unicode="&#x2bc;" horiz-adv-x="182" 
d="M39 582l21 171q3 25 34 25q27 0 27 -29q0 -6 -2 -16l-47 -157z" />
    <glyph glyph-name="circumflex" unicode="&#x2c6;" horiz-adv-x="310" 
d="M135 737h53l96 -133l-34 -21l-89 118l-89 -116l-36 19z" />
    <glyph glyph-name="caron" unicode="&#x2c7;" horiz-adv-x="310" 
d="M182 584h-53l-96 133l36 22l87 -119l88 118l37 -21z" />
    <glyph glyph-name="uni02C9" unicode="&#x2c9;" horiz-adv-x="317" 
d="M20 628v45h273v-45h-273z" />
    <glyph glyph-name="breve" unicode="&#x2d8;" horiz-adv-x="400" 
d="M306 713l35 -20q-18 -42 -54.5 -75.5t-92.5 -33.5q-52 0 -86 33t-49 72l37 20q38 -84 101 -84q39 0 63 23t46 65z" />
    <glyph glyph-name="dotaccent" unicode="&#x2d9;" horiz-adv-x="250" 
d="M125 609q-33 0 -33 40q0 35 33 35t33 -35q0 -40 -33 -40z" />
    <glyph glyph-name="ring" unicode="&#x2da;" horiz-adv-x="292" 
d="M147 578q-36 0 -57 21t-21 58q0 41 22.5 65t61.5 24q36 0 57.5 -21.5t21.5 -59.5q0 -39 -22.5 -63t-62.5 -24zM107 659q0 -50 43 -50q45 0 45 52q0 54 -42 54q-46 0 -46 -56z" />
    <glyph glyph-name="ogonek" unicode="&#x2db;" horiz-adv-x="535" 
d="M280 3l54 -2q-78 -62 -78 -115q0 -48 47 -48q27 0 52 13l9 -43q-30 -15 -71 -15q-42 0 -65.5 21t-23.5 59q0 72 76 130z" />
    <glyph glyph-name="tilde" unicode="&#x2dc;" horiz-adv-x="365" 
d="M95 609l-17 39q15 15 41 27t51 12q17 0 49 -13.5t53 -13.5q30 0 61 23l7 -45q-30 -22 -71 -22q-23 0 -58 11t-47 11q-31 0 -69 -29z" />
    <glyph glyph-name="hungarumlaut" unicode="&#x2dd;" horiz-adv-x="493" 
d="M227 583l-17 29l191 138l31 -48zM61 583l-19 28l186 146l32 -47z" />
    <glyph glyph-name="uni0394" unicode="&#x394;" horiz-adv-x="696" 
d="M662 0h-627l287 688h54zM347 628l-242 -583h483z" />
    <glyph glyph-name="uni03A9" unicode="&#x3a9;" horiz-adv-x="807" 
d="M78 41h168q-148 111 -148 304q0 162 88.5 259t215.5 97q133 0 216.5 -94t83.5 -249q0 -198 -154 -317h186v-41h-262l12 47q167 90 167 306q0 148 -72 224.5t-179 76.5q-108 0 -179 -81.5t-71 -228.5q0 -113 50 -187t126 -112l12 -45h-260v41z" />
    <glyph glyph-name="uni03BC" unicode="&#x3bc;" horiz-adv-x="587" 
d="M509 -17q-44 0 -61.5 22.5t-17.5 67.5q-17 -24 -31 -39.5t-49 -31.5t-81 -16q-86 0 -128 62v-261h-46v739h45v-339q0 -70 34 -111t104 -41q76 0 117.5 47t41.5 126v318h45v-450q0 -27 7.5 -40t28.5 -13q11 0 26 5l5 -36q-14 -9 -40 -9z" />
    <glyph glyph-name="pi" unicode="&#x3c0;" horiz-adv-x="559" 
d="M532 480h-83v-402q0 -19 1.5 -29t10 -17t24.5 -7q23 0 37 7l5 -35q-20 -11 -49 -11q-49 0 -61.5 24t-12.5 79v391h-258v-480h-45v480h-83v46h514v-46z" />
    <glyph glyph-name="Wgrave" unicode="&#x1e80;" horiz-adv-x="831" 
d="M220 0h-62l-91 719h54q78 -626 78 -637l201 567h36l195 -567l80 637h52l-90 -719h-64l-192 552zM306 874l208 -72l-10 -31l-213 51z" />
    <glyph glyph-name="wgrave" unicode="&#x1e81;" horiz-adv-x="654" 
d="M578 527l45 -6l-115 -521h-63l-114 454l-133 -454h-61l-107 522l44 5l96 -476l139 468h50l116 -471zM422 611l-19 -27l-199 121l32 46z" />
    <glyph glyph-name="Wacute" unicode="&#x1e82;" horiz-adv-x="831" 
d="M220 0h-62l-91 719h54q78 -626 78 -637l201 567h36l195 -567l80 637h52l-90 -719h-64l-192 552zM334 801l208 72l16 -51l-213 -51z" />
    <glyph glyph-name="wacute" unicode="&#x1e83;" horiz-adv-x="654" 
d="M578 527l45 -6l-115 -521h-63l-114 454l-133 -454h-61l-107 522l44 5l96 -476l139 468h50l116 -471zM270 584l-19 27l186 140l32 -46z" />
    <glyph glyph-name="Wdieresis" unicode="&#x1e84;" horiz-adv-x="831" 
d="M220 0h-62l-91 719h54q78 -626 78 -637l201 567h36l195 -567l80 637h52l-90 -719h-64l-192 552zM312 824q0 36 32 36q33 0 33 -36q0 -17 -9 -27t-24 -10q-32 0 -32 37zM460 824q0 17 9 26.5t23 9.5q34 0 34 -36q0 -17 -9 -27t-25 -10q-15 0 -23.5 10.5t-8.5 26.5z" />
    <glyph glyph-name="wdieresis" unicode="&#x1e85;" horiz-adv-x="654" 
d="M578 527l45 -6l-115 -521h-63l-114 454l-133 -454h-61l-107 522l44 5l96 -476l139 468h50l116 -471zM226 651q0 16 9 26t24 10q33 0 33 -36q0 -16 -9.5 -26.5t-23.5 -10.5q-15 0 -24 10.5t-9 26.5zM375 651q0 16 9 26t23 10q33 0 33 -36q0 -37 -33 -37q-15 0 -23.5 10.5
t-8.5 26.5z" />
    <glyph glyph-name="Ygrave" unicode="&#x1ef2;" horiz-adv-x="551" 
d="M279 351l200 368h52l-227 -416v-303h-51v300l-233 419h55zM165 874l208 -72l-10 -31l-213 51z" />
    <glyph glyph-name="ygrave" unicode="&#x1ef3;" horiz-adv-x="435" 
d="M370 527l43 -5q-87 -323 -172 -525q-50 -121 -89 -167.5t-113 -46.5q-73 0 -131 35l15 45q65 -38 116 -38q55 0 87 42t68 136l-181 519l48 5l160 -466q45 98 149 466zM299 611l-19 -27l-199 121l32 46z" />
    <glyph glyph-name="endash" unicode="&#x2013;" horiz-adv-x="500" 
d="M0 276v46h500v-46h-500z" />
    <glyph glyph-name="emdash" unicode="&#x2014;" horiz-adv-x="1000" 
d="M0 276v46h1000v-46h-1000z" />
    <glyph glyph-name="quoteleft" unicode="&#x2018;" horiz-adv-x="183" 
d="M151 761l-15 -202q-1 -14 -10 -21.5t-20 -7.5q-16 0 -25 12.5t-4 33.5l42 191z" />
    <glyph glyph-name="quoteright" unicode="&#x2019;" horiz-adv-x="176" 
d="M70 535l15 202q4 28 30 28q16 0 25 -12t4 -33l-42 -191z" />
    <glyph glyph-name="quotesinglbase" unicode="&#x201a;" horiz-adv-x="183" 
d="M62 -140l15 203q4 29 30 29q17 0 26 -12t4 -35l-43 -190z" />
    <glyph glyph-name="quotedblleft" unicode="&#x201c;" horiz-adv-x="335" 
d="M295 761l-15 -202q-1 -14 -10 -21.5t-20 -7.5q-16 0 -25 12.5t-4 33.5l42 191zM151 761l-15 -202q-1 -14 -10 -21.5t-20 -7.5q-16 0 -25 12.5t-4 33.5l42 191z" />
    <glyph glyph-name="quotedblright" unicode="&#x201d;" horiz-adv-x="330" 
d="M214 535l15 202q4 28 30 28q16 0 25 -12t4 -33l-42 -191zM70 535l15 202q4 28 30 28q16 0 25 -12t4 -33l-42 -191z" />
    <glyph glyph-name="quotedblbase" unicode="&#x201e;" horiz-adv-x="327" 
d="M62 -140l15 203q4 29 30 29q17 0 26 -12t4 -35l-43 -190zM206 -140l15 203q4 29 30 29q17 0 26 -12t4 -35l-43 -190z" />
    <glyph glyph-name="dagger" unicode="&#x2020;" horiz-adv-x="488" 
d="M219 -113l6 637h-154v42h156l-6 153h56l-7 -153h167v-42h-166l6 -637h-58z" />
    <glyph glyph-name="daggerdbl" unicode="&#x2021;" horiz-adv-x="488" 
d="M225 95v429h-154v43h156l-6 152h56l-7 -152h167v-43h-166v-429h166v-43h-167l7 -165h-56l6 165h-156v43h154z" />
    <glyph glyph-name="bullet" unicode="&#x2022;" horiz-adv-x="480" 
d="M106 356q0 63 38 103t96 40q59 0 96.5 -40t37.5 -103t-37.5 -102.5t-96.5 -39.5t-96.5 38.5t-37.5 103.5z" />
    <glyph glyph-name="ellipsis" unicode="&#x2026;" horiz-adv-x="751" 
d="M60 39q0 21 12.5 36t34.5 15q23 0 36 -13.5t13 -36.5q0 -22 -13 -36t-36 -14t-35 13.5t-12 35.5zM329 39q0 21 12.5 36t34.5 15q23 0 36 -13.5t13 -36.5q0 -22 -13 -36t-36 -14t-35 13.5t-12 35.5zM595 39q0 21 12.5 36t34.5 15q23 0 36 -13.5t13 -36.5q0 -22 -13 -36
t-36 -14t-35 13.5t-12 35.5z" />
    <glyph glyph-name="perthousand" unicode="&#x2030;" horiz-adv-x="980" 
d="M141 0h-53l398 719h54zM168 415q79 0 79 132q0 63 -20.5 95t-57.5 32q-78 0 -78 -132q0 -62 20.5 -94.5t56.5 -32.5zM167 370q-122 0 -122 176q0 89 35 131t91 42q122 0 122 -176q0 -89 -35 -131t-91 -42zM486 31q79 0 79 132q0 63 -20.5 95t-57.5 32q-78 0 -78 -132
q0 -62 20.5 -94.5t56.5 -32.5zM485 -14q-122 0 -122 176q0 89 35 131t91 42q122 0 122 -176q0 -89 -35 -131t-91 -42zM795 31q79 0 79 132q0 63 -20.5 95t-57.5 32q-78 0 -78 -132q0 -62 20.5 -94.5t56.5 -32.5zM794 -14q-122 0 -122 176q0 89 35 131t91 42q122 0 122 -176
q0 -89 -35 -131t-91 -42z" />
    <glyph glyph-name="guilsinglleft" unicode="&#x2039;" horiz-adv-x="343" 
d="M251 84l-199 191l197 194l33 -30l-161 -162l165 -162z" />
    <glyph glyph-name="guilsinglright" unicode="&#x203a;" horiz-adv-x="343" 
d="M290 275l-198 -191l-36 31l166 162l-162 162l33 30z" />
    <glyph glyph-name="fraction" unicode="&#x2044;" horiz-adv-x="66" 
d="M-155 0h-53l398 719h54z" />
    <glyph glyph-name="zerosuperior" unicode="&#x2070;" horiz-adv-x="400" 
d="M202 825q69 0 105.5 -50t36.5 -163q0 -112 -37 -162.5t-109 -50.5q-75 0 -109 49.5t-34 162.5q0 111 39.5 162.5t107.5 51.5zM199 441q50 0 74 39.5t24 130.5q0 90 -23.5 130.5t-72.5 40.5q-52 0 -74.5 -42t-22.5 -135q0 -88 22 -126t73 -38z" />
    <glyph glyph-name="foursuperior" unicode="&#x2074;" horiz-adv-x="400" 
d="M289 408h-43v99h-205v37l188 272h61v-267h66v-42h-67v-99zM95 549h151v217z" />
    <glyph glyph-name="fivesuperior" unicode="&#x2075;" horiz-adv-x="400" 
d="M207 647q-50 0 -105 -51l-29 11v206h235v-40h-192v-120q39 37 97 37q122 0 122 -137q0 -71 -39 -112.5t-107 -41.5t-127 37l20 39q46 -34 112 -34q48 0 72 30t24 83q0 93 -83 93z" />
    <glyph glyph-name="sixsuperior" unicode="&#x2076;" horiz-adv-x="400" 
d="M343 769l-31 -30q-41 44 -96 44q-47 0 -75.5 -37.5t-37.5 -102.5q42 40 100 40q69 0 103.5 -39t34.5 -103q0 -65 -37.5 -103.5t-99.5 -38.5q-149 0 -149 188q0 117 44 177.5t118 60.5q82 0 126 -56zM102 595v-23q0 -54 22.5 -92.5t75.5 -38.5q44 0 70 27t26 71
q0 47 -23.5 74t-69.5 27q-58 0 -101 -45z" />
    <glyph glyph-name="sevensuperior" unicode="&#x2077;" horiz-adv-x="400" 
d="M55 773v43h290v-34l-141 -243q-19 -33 -19 -70v-61h-48v58q0 51 18 81l137 226h-237z" />
    <glyph glyph-name="eightsuperior" unicode="&#x2078;" horiz-adv-x="400" 
d="M110 622q-35 36 -35 89t35 83.5t89 30.5q58 0 90 -29.5t32 -83.5q0 -48 -35 -91q49 -31 49 -91q0 -61 -36.5 -96t-100.5 -35q-66 0 -100.5 34t-34.5 96q0 59 47 93zM203 600l-54 5q-41 -24 -41 -79q0 -41 24 -64t67 -23q44 0 68 23.5t24 64.5q0 37 -21 53t-67 20z
M192 639l54 -4q30 20 30 78q0 33 -21.5 51.5t-56.5 18.5q-33 0 -55.5 -18t-22.5 -52q0 -67 72 -74z" />
    <glyph glyph-name="ninesuperior" unicode="&#x2079;" horiz-adv-x="400" 
d="M59 459l31 30q39 -48 92 -48q47 0 75.5 37t37.5 102q-41 -43 -100 -43q-69 0 -103.5 39.5t-34.5 104.5t37.5 104.5t99.5 39.5q149 0 149 -188q0 -117 -44 -177.5t-118 -60.5q-80 0 -122 60zM296 629v23q0 54 -22.5 92.5t-75.5 38.5q-44 0 -70 -27.5t-26 -72.5
q0 -48 23.5 -75.5t69.5 -27.5q29 0 56.5 14.5t44.5 34.5z" />
    <glyph glyph-name="zeroinferior" unicode="&#x2080;" horiz-adv-x="400" 
d="M202 329q69 0 105.5 -50t36.5 -163q0 -112 -37 -162.5t-109 -50.5q-75 0 -109 49.5t-34 162.5q0 111 39.5 162.5t107.5 51.5zM199 -55q50 0 74 39.5t24 130.5q0 90 -23.5 130.5t-72.5 40.5q-52 0 -74.5 -42t-22.5 -135q0 -88 22 -126t73 -38z" />
    <glyph glyph-name="oneinferior" unicode="&#x2081;" horiz-adv-x="400" 
d="M93 -88v41h79v326h-71v41h115v-367h81v-41h-204z" />
    <glyph glyph-name="twoinferior" unicode="&#x2082;" horiz-adv-x="400" 
d="M90 211l-38 19q18 41 59 70t90 29q61 0 94 -30.5t33 -90.5q0 -35 -21 -78t-57 -78q-59 -58 -108 -97h200v-43h-275v37q94 70 158 139q55 58 55 122q0 38 -22 57.5t-56 19.5q-67 0 -112 -76z" />
    <glyph glyph-name="threeinferior" unicode="&#x2083;" horiz-adv-x="400" 
d="M97 221l-39 19q49 89 143 89q54 0 85.5 -26.5t31.5 -75.5q0 -68 -59 -100q66 -23 66 -98q0 -58 -39.5 -92t-105.5 -34q-35 0 -71 12.5t-58 30.5l21 38q50 -40 113 -40q41 0 67 24t26 63q0 38 -21.5 55t-54.5 17h-55v42h49q36 0 56 21t20 53q0 68 -76 68q-64 0 -99 -66z
" />
    <glyph glyph-name="fourinferior" unicode="&#x2084;" horiz-adv-x="400" 
d="M289 -88h-43v99h-205v37l188 272h61v-267h66v-42h-67v-99zM95 53h151v217z" />
    <glyph glyph-name="fiveinferior" unicode="&#x2085;" horiz-adv-x="400" 
d="M207 151q-50 0 -105 -51l-29 11v206h235v-40h-192v-120q39 37 97 37q122 0 122 -137q0 -71 -39 -112.5t-107 -41.5t-127 37l20 39q46 -34 112 -34q48 0 72 30t24 83q0 93 -83 93z" />
    <glyph glyph-name="sixinferior" unicode="&#x2086;" horiz-adv-x="400" 
d="M343 273l-31 -30q-41 44 -96 44q-47 0 -75.5 -37.5t-37.5 -102.5q42 40 100 40q69 0 103.5 -39t34.5 -103q0 -65 -37.5 -103.5t-99.5 -38.5q-149 0 -149 188q0 117 44 177.5t118 60.5q82 0 126 -56zM102 99v-23q0 -54 22.5 -92.5t75.5 -38.5q44 0 70 27t26 71
q0 47 -23.5 74t-69.5 27q-58 0 -101 -45z" />
    <glyph glyph-name="seveninferior" unicode="&#x2087;" horiz-adv-x="400" 
d="M55 277v43h290v-34l-141 -243q-19 -33 -19 -70v-61h-48v58q0 51 18 81l137 226h-237z" />
    <glyph glyph-name="eightinferior" unicode="&#x2088;" horiz-adv-x="400" 
d="M110 126q-35 36 -35 89t35 83.5t89 30.5q58 0 90 -29.5t32 -83.5q0 -48 -35 -91q49 -31 49 -91q0 -61 -36.5 -96t-100.5 -35q-66 0 -100.5 34t-34.5 96q0 59 47 93zM203 104l-54 5q-41 -24 -41 -79q0 -41 24 -64t67 -23q44 0 68 23.5t24 64.5q0 37 -21 53t-67 20z
M192 143l54 -4q30 20 30 78q0 33 -21.5 51.5t-56.5 18.5q-33 0 -55.5 -18t-22.5 -52q0 -67 72 -74z" />
    <glyph glyph-name="nineinferior" unicode="&#x2089;" horiz-adv-x="400" 
d="M59 -37l31 30q39 -48 92 -48q47 0 75.5 37t37.5 102q-41 -43 -100 -43q-69 0 -103.5 39.5t-34.5 104.5t37.5 104.5t99.5 39.5q149 0 149 -188q0 -117 -44 -177.5t-118 -60.5q-80 0 -122 60zM296 133v23q0 54 -22.5 92.5t-75.5 38.5q-44 0 -70 -27.5t-26 -72.5
q0 -48 23.5 -75.5t69.5 -27.5q29 0 56.5 14.5t44.5 34.5z" />
    <glyph glyph-name="Euro" unicode="&#x20ac;" horiz-adv-x="513" 
d="M20 356v42h71q5 67 18.5 118t39.5 94t69.5 65.5t103.5 22.5q47 0 81.5 -14.5t54 -41.5t29.5 -51.5t17 -57.5l-44 -13q-14 66 -46.5 101t-97.5 35q-159 0 -175 -258h212v-42h-333zM20 301h333v-40h-206q15 -228 175 -228q44 0 76 17t62 59l35 -25q-58 -94 -177 -94
q-49 0 -87 16t-61.5 41t-40 62t-24.5 72.5t-12 79.5h-73v40z" />
    <glyph glyph-name="trademark" unicode="&#x2122;" horiz-adv-x="806" 
d="M188 685v-355h-43v355h-125v34h302v-34h-134zM391 719h46l111 -322l115 322h42l24 -389h-44l-16 288l-94 -257h-56l-93 257l-19 -288h-45z" />
    <glyph glyph-name="Omega" unicode="&#x2126;" horiz-adv-x="807" 
d="M78 41h168q-148 111 -148 304q0 162 88.5 259t215.5 97q133 0 216.5 -94t83.5 -249q0 -198 -154 -317h186v-41h-262l12 47q167 90 167 306q0 148 -72 224.5t-179 76.5q-108 0 -179 -81.5t-71 -228.5q0 -113 50 -187t126 -112l12 -45h-260v41z" />
    <glyph glyph-name="onethird" unicode="&#x2153;" horiz-adv-x="835" 
d="M547 311l-39 19q49 89 143 89q54 0 85.5 -26.5t31.5 -75.5q0 -68 -59 -100q66 -23 66 -98q0 -58 -39.5 -92t-105.5 -34q-35 0 -71 12.5t-58 30.5l21 38q50 -40 113 -40q41 0 67 24t26 63q0 38 -21.5 55t-54.5 17h-55v42h49q36 0 56 21t20 53q0 68 -76 68q-64 0 -99 -66z
M65 308v41h79v326h-71v41h115v-367h81v-41h-204zM233 0h-53l398 719h54z" />
    <glyph glyph-name="twothirds" unicode="&#x2154;" horiz-adv-x="835" 
d="M62 607l-38 19q18 41 59 70t90 29q61 0 94 -30.5t33 -90.5q0 -35 -21 -78t-57 -78q-59 -58 -108 -97h200v-43h-275v37q94 70 158 139q55 58 55 122q0 38 -22 57.5t-56 19.5q-67 0 -112 -76zM565 311l-39 19q49 89 143 89q54 0 85.5 -26.5t31.5 -75.5q0 -68 -59 -100
q66 -23 66 -98q0 -58 -39.5 -92t-105.5 -34q-35 0 -71 12.5t-58 30.5l21 38q50 -40 113 -40q41 0 67 24t26 63q0 38 -21.5 55t-54.5 17h-55v42h49q36 0 56 21t20 53q0 68 -76 68q-64 0 -99 -66zM255 0h-53l398 719h54z" />
    <glyph glyph-name="oneeighth" unicode="&#x215b;" horiz-adv-x="835" 
d="M56 308v41h79v326h-71v41h115v-367h81v-41h-204zM541 216q-35 36 -35 89t35 83.5t89 30.5q58 0 90 -29.5t32 -83.5q0 -48 -35 -91q49 -31 49 -91q0 -61 -36.5 -96t-100.5 -35q-66 0 -100.5 34t-34.5 96q0 59 47 93zM634 194l-54 5q-41 -24 -41 -79q0 -41 24 -64t67 -23
q44 0 68 23.5t24 64.5q0 37 -21 53t-67 20zM623 233l54 -4q30 20 30 78q0 33 -21.5 51.5t-56.5 18.5q-33 0 -55.5 -18t-22.5 -52q0 -67 72 -74zM224 0h-53l398 719h54z" />
    <glyph glyph-name="threeeighths" unicode="&#x215c;" horiz-adv-x="835" 
d="M564 216q-35 36 -35 89t35 83.5t89 30.5q58 0 90 -29.5t32 -83.5q0 -48 -35 -91q49 -31 49 -91q0 -61 -36.5 -96t-100.5 -35q-66 0 -100.5 34t-34.5 96q0 59 47 93zM657 194l-54 5q-41 -24 -41 -79q0 -41 24 -64t67 -23q44 0 68 23.5t24 64.5q0 37 -21 53t-67 20z
M646 233l54 -4q30 20 30 78q0 33 -21.5 51.5t-56.5 18.5q-33 0 -55.5 -18t-22.5 -52q0 -67 72 -74zM84 617l-39 19q49 89 143 89q54 0 85.5 -26.5t31.5 -75.5q0 -68 -59 -100q66 -23 66 -98q0 -58 -39.5 -92t-105.5 -34q-35 0 -71 12.5t-58 30.5l21 38q50 -40 113 -40
q41 0 67 24t26 63q0 38 -21.5 55t-54.5 17h-55v42h49q36 0 56 21t20 53q0 68 -76 68q-64 0 -99 -66zM247 0h-53l398 719h54z" />
    <glyph glyph-name="fiveeighths" unicode="&#x215d;" horiz-adv-x="835" 
d="M190 547q-50 0 -105 -51l-29 11v206h235v-40h-192v-120q39 37 97 37q122 0 122 -137q0 -71 -39 -112.5t-107 -41.5t-127 37l20 39q46 -34 112 -34q48 0 72 30t24 83q0 93 -83 93zM562 216q-35 36 -35 89t35 83.5t89 30.5q58 0 90 -29.5t32 -83.5q0 -48 -35 -91
q49 -31 49 -91q0 -61 -36.5 -96t-100.5 -35q-66 0 -100.5 34t-34.5 96q0 59 47 93zM655 194l-54 5q-41 -24 -41 -79q0 -41 24 -64t67 -23q44 0 68 23.5t24 64.5q0 37 -21 53t-67 20zM644 233l54 -4q30 20 30 78q0 33 -21.5 51.5t-56.5 18.5q-33 0 -55.5 -18t-22.5 -52
q0 -67 72 -74zM240 0h-53l398 719h54z" />
    <glyph glyph-name="seveneighths" unicode="&#x215e;" horiz-adv-x="835" 
d="M69 673v43h290v-34l-141 -243q-19 -33 -19 -70v-61h-48v58q0 51 18 81l137 226h-237zM517 216q-35 36 -35 89t35 83.5t89 30.5q58 0 90 -29.5t32 -83.5q0 -48 -35 -91q49 -31 49 -91q0 -61 -36.5 -96t-100.5 -35q-66 0 -100.5 34t-34.5 96q0 59 47 93zM610 194l-54 5
q-41 -24 -41 -79q0 -41 24 -64t67 -23q44 0 68 23.5t24 64.5q0 37 -21 53t-67 20zM599 233l54 -4q30 20 30 78q0 33 -21.5 51.5t-56.5 18.5q-33 0 -55.5 -18t-22.5 -52q0 -67 72 -74zM193 0h-53l398 719h54z" />
    <glyph glyph-name="partialdiff" unicode="&#x2202;" horiz-adv-x="585" 
d="M485 318q0 -330 -200 -330q-97 0 -146 65t-49 173q0 109 52 173t141 64q104 0 154 -98q-9 141 -46 210t-108 69q-82 0 -127 -86l-40 26q56 105 165 105q114 0 159 -95t45 -276zM287 30q149 0 149 264q-31 59 -66 92t-91 33q-72 0 -105 -53.5t-33 -141.5q0 -85 34 -139.5
t112 -54.5z" />
    <glyph glyph-name="Delta" unicode="&#x2206;" horiz-adv-x="696" 
d="M662 0h-627l287 688h54zM347 628l-242 -583h483z" />
    <glyph glyph-name="product" unicode="&#x220f;" horiz-adv-x="740" 
d="M642 -131h-48v774h-449v-774h-46v822h543v-822z" />
    <glyph glyph-name="summation" unicode="&#x2211;" horiz-adv-x="570" 
d="M531 -131h-489v50l279 364l-270 356v51h458v-45h-396l274 -364l-288 -367h432v-45z" />
    <glyph glyph-name="minus" unicode="&#x2212;" 
d="M496 342v-44h-443v44h443z" />
    <glyph glyph-name="uni2215" unicode="&#x2215;" horiz-adv-x="391" 
d="M58 -93l-41 18l319 843l43 -17z" />
    <glyph glyph-name="uni2219" unicode="&#x2219;" horiz-adv-x="298" 
d="M122 334q0 14 9 22.5t22 8.5q12 0 22 -10t10 -21q0 -12 -8.5 -21.5t-22.5 -9.5q-11 0 -21.5 9.5t-10.5 21.5z" />
    <glyph glyph-name="radical" unicode="&#x221a;" horiz-adv-x="708" 
d="M683 794l-286 -811h-51l-160 455l-100 -56l-22 40l155 84l155 -451l260 739h49z" />
    <glyph glyph-name="infinity" unicode="&#x221e;" horiz-adv-x="736" 
d="M693 353q0 -68 -41 -111t-98 -43q-117 0 -188 101q-84 -101 -172 -101q-67 0 -111 38.5t-44 104.5q0 65 45 107.5t111 42.5q56 0 96 -27t79 -83q45 57 85.5 84t96.5 27q63 0 102 -41t39 -99zM642 347q0 47 -24.5 74t-73.5 27q-69 0 -144 -108q75 -99 150 -99q44 0 68 31
t24 75zM337 340q-39 57 -71.5 82.5t-72.5 25.5q-48 0 -74 -30t-26 -75q0 -46 28 -75t74 -29q73 0 142 101z" />
    <glyph glyph-name="integral" unicode="&#x222b;" horiz-adv-x="390" 
d="M335 687l-9 -41q-30 15 -69 15q-30 0 -44 -18.5t-14 -63.5q0 -9 2 -55l31 -567q2 -48 2 -71q0 -35 -10 -58t-27.5 -33t-32 -13t-32.5 -3q-46 0 -81 15l16 42q38 -15 70 -15q50 0 50 69q0 3 -0.5 10t-1 19.5t-0.5 24.5l-29 597q-1 16 -1 51q0 109 102 109q42 0 78 -14z
" />
    <glyph glyph-name="approxequal" unicode="&#x2248;" horiz-adv-x="647" 
d="M556 479l31 -27q-55 -90 -130 -90q-53 0 -115 31l-59 29q-56 29 -98 29q-50 0 -94 -68l-32 28q14 22 34 44q44 44 99 44t116 -32l59 -30q54 -28 94 -28q46 0 95 70zM556 309l31 -27q-55 -90 -130 -90q-53 0 -115 31l-59 29q-56 29 -98 29q-50 0 -94 -68l-32 28
q14 22 34 44q44 44 99 44t116 -32l59 -30q54 -28 94 -28q46 0 95 70z" />
    <glyph glyph-name="notequal" unicode="&#x2260;" 
d="M49 378v44h270l73 121h53l-73 -121h128v-44h-159l-71 -118h230v-44h-260l-76 -126h-52l75 126h-138v44h168l72 118h-240z" />
    <glyph glyph-name="lessequal" unicode="&#x2264;" 
d="M500 448l-394 -163l385 -166l-13 -43l-431 187v39l437 186zM492 0v44h-443v-44h443z" />
    <glyph glyph-name="greaterequal" unicode="&#x2265;" 
d="M500 0v44h-443v-44h443zM52 123l391 162l-386 166l18 41l427 -185v-39l-437 -186z" />
    <glyph glyph-name="triangle" unicode="&#x25b3;" horiz-adv-x="425" 
d="M150 203v231l185 -114z" />
    <glyph glyph-name="lozenge" unicode="&#x25ca;" horiz-adv-x="581" 
d="M519 336l-201 -349h-55l-201 346l201 355h55zM288 654l-171 -318l176 -317l173 315z" />
    <glyph glyph-name="circle" unicode="&#x25cb;" horiz-adv-x="610" 
d="M100 354q0 85 60 145t145 60t145 -60t60 -145t-60 -145t-145 -60t-145 60t-60 145z" />
    <glyph glyph-name="onefifth" unicode="&#xf500;" horiz-adv-x="835" 
d="M659 241q-50 0 -105 -51l-29 11v206h235v-40h-192v-120q39 37 97 37q122 0 122 -137q0 -71 -39 -112.5t-107 -41.5t-127 37l20 39q46 -34 112 -34q48 0 72 30t24 83q0 93 -83 93zM59 308v41h79v326h-71v41h115v-367h81v-41h-204zM227 0h-53l398 719h54z" />
    <glyph glyph-name="twofifths" unicode="&#xf501;" horiz-adv-x="835" 
d="M62 607l-38 19q18 41 59 70t90 29q61 0 94 -30.5t33 -90.5q0 -35 -21 -78t-57 -78q-59 -58 -108 -97h200v-43h-275v37q94 70 158 139q55 58 55 122q0 38 -22 57.5t-56 19.5q-67 0 -112 -76zM687 241q-50 0 -105 -51l-29 11v206h235v-40h-192v-120q39 37 97 37
q122 0 122 -137q0 -71 -39 -112.5t-107 -41.5t-127 37l20 39q46 -34 112 -34q48 0 72 30t24 83q0 93 -83 93zM255 0h-53l398 719h54z" />
    <glyph glyph-name="threefifths" unicode="&#xf502;" horiz-adv-x="835" 
d="M92 617l-39 19q49 89 143 89q54 0 85.5 -26.5t31.5 -75.5q0 -68 -59 -100q66 -23 66 -98q0 -58 -39.5 -92t-105.5 -34q-35 0 -71 12.5t-58 30.5l21 38q50 -40 113 -40q41 0 67 24t26 63q0 38 -21.5 55t-54.5 17h-55v42h49q36 0 56 21t20 53q0 68 -76 68q-64 0 -99 -66z
M667 241q-50 0 -105 -51l-29 11v206h235v-40h-192v-120q39 37 97 37q122 0 122 -137q0 -71 -39 -112.5t-107 -41.5t-127 37l20 39q46 -34 112 -34q48 0 72 30t24 83q0 93 -83 93zM240 0h-53l398 719h54z" />
    <glyph glyph-name="fourfifths" unicode="&#xf503;" horiz-adv-x="835" 
d="M269 308h-43v99h-205v37l188 272h61v-267h66v-42h-67v-99zM75 449h151v217zM677 241q-50 0 -105 -51l-29 11v206h235v-40h-192v-120q39 37 97 37q122 0 122 -137q0 -71 -39 -112.5t-107 -41.5t-127 37l20 39q46 -34 112 -34q48 0 72 30t24 83q0 93 -83 93zM245 0h-53
l398 719h54z" />
    <glyph glyph-name="onesixth" unicode="&#xf504;" horiz-adv-x="835" 
d="M779 363l-31 -30q-41 44 -96 44q-47 0 -75.5 -37.5t-37.5 -102.5q42 40 100 40q69 0 103.5 -39t34.5 -103q0 -65 -37.5 -103.5t-99.5 -38.5q-149 0 -149 188q0 117 44 177.5t118 60.5q82 0 126 -56zM538 189v-23q0 -54 22.5 -92.5t75.5 -38.5q44 0 70 27t26 71
q0 47 -23.5 74t-69.5 27q-58 0 -101 -45zM65 308v41h79v326h-71v41h115v-367h81v-41h-204zM233 0h-53l398 719h54z" />
    <glyph glyph-name="fivesixths" unicode="&#xf505;" horiz-adv-x="835" 
d="M188 547q-50 0 -105 -51l-29 11v206h235v-40h-192v-120q39 37 97 37q122 0 122 -137q0 -71 -39 -112.5t-107 -41.5t-127 37l20 39q46 -34 112 -34q48 0 72 30t24 83q0 93 -83 93zM782 363l-31 -30q-41 44 -96 44q-47 0 -75.5 -37.5t-37.5 -102.5q42 40 100 40
q69 0 103.5 -39t34.5 -103q0 -65 -37.5 -103.5t-99.5 -38.5q-149 0 -149 188q0 117 44 177.5t118 60.5q82 0 126 -56zM541 189v-23q0 -54 22.5 -92.5t75.5 -38.5q44 0 70 27t26 71q0 47 -23.5 74t-69.5 27q-58 0 -101 -45zM240 0h-53l398 719h54z" />
    <glyph glyph-name="oneseventh" unicode="&#xf506;" horiz-adv-x="835" 
d="M45 308v41h79v326h-71v41h115v-367h81v-41h-204zM509 367v43h290v-34l-141 -243q-19 -33 -19 -70v-61h-48v58q0 51 18 81l137 226h-237zM213 0h-53l398 719h54z" />
    <glyph glyph-name="twosevenths" unicode="&#xf507;" horiz-adv-x="835" 
d="M62 607l-38 19q18 41 59 70t90 29q61 0 94 -30.5t33 -90.5q0 -35 -21 -78t-57 -78q-59 -58 -108 -97h200v-43h-275v37q94 70 158 139q55 58 55 122q0 38 -22 57.5t-56 19.5q-67 0 -112 -76zM543 367v43h290v-34l-141 -243q-19 -33 -19 -70v-61h-48v58q0 51 18 81l137 226
h-237zM255 0h-53l398 719h54z" />
    <glyph glyph-name="threesevenths" unicode="&#xf508;" horiz-adv-x="835" 
d="M519 367v43h290v-34l-141 -243q-19 -33 -19 -70v-61h-48v58q0 51 18 81l137 226h-237zM62 617l-39 19q49 89 143 89q54 0 85.5 -26.5t31.5 -75.5q0 -68 -59 -100q66 -23 66 -98q0 -58 -39.5 -92t-105.5 -34q-35 0 -71 12.5t-58 30.5l21 38q50 -40 113 -40q41 0 67 24
t26 63q0 38 -21.5 55t-54.5 17h-55v42h49q36 0 56 21t20 53q0 68 -76 68q-64 0 -99 -66zM223 0h-53l398 719h54z" />
    <glyph glyph-name="foursevenths" unicode="&#xf509;" horiz-adv-x="835" 
d="M269 308h-43v99h-205v37l188 272h61v-267h66v-42h-67v-99zM75 449h151v217zM541 367v43h290v-34l-141 -243q-19 -33 -19 -70v-61h-48v58q0 51 18 81l137 226h-237zM245 0h-53l398 719h54z" />
    <glyph glyph-name="fivesevenths" unicode="&#xf50a;" horiz-adv-x="835" 
d="M190 547q-50 0 -105 -51l-29 11v206h235v-40h-192v-120q39 37 97 37q122 0 122 -137q0 -71 -39 -112.5t-107 -41.5t-127 37l20 39q46 -34 112 -34q48 0 72 30t24 83q0 93 -83 93zM531 367v43h290v-34l-141 -243q-19 -33 -19 -70v-61h-48v58q0 51 18 81l137 226h-237z
M235 0h-53l398 719h54z" />
    <glyph glyph-name="sixsevenths" unicode="&#xf50b;" horiz-adv-x="835" 
d="M327 669l-31 -30q-41 44 -96 44q-47 0 -75.5 -37.5t-37.5 -102.5q42 40 100 40q69 0 103.5 -39t34.5 -103q0 -65 -37.5 -103.5t-99.5 -38.5q-149 0 -149 188q0 117 44 177.5t118 60.5q82 0 126 -56zM86 495v-23q0 -54 22.5 -92.5t75.5 -38.5q44 0 70 27t26 71
q0 47 -23.5 74t-69.5 27q-58 0 -101 -45zM235 0h-53l398 719h54zM517 367v43h290v-34l-141 -243q-19 -33 -19 -70v-61h-48v58q0 51 18 81l137 226h-237z" />
    <glyph glyph-name="oneninth" unicode="&#xf50c;" horiz-adv-x="835" 
d="M487 53l31 30q39 -48 92 -48q47 0 75.5 37t37.5 102q-41 -43 -100 -43q-69 0 -103.5 39.5t-34.5 104.5t37.5 104.5t99.5 39.5q149 0 149 -188q0 -117 -44 -177.5t-118 -60.5q-80 0 -122 60zM724 223v23q0 54 -22.5 92.5t-75.5 38.5q-44 0 -70 -27.5t-26 -72.5
q0 -48 23.5 -75.5t69.5 -27.5q29 0 56.5 14.5t44.5 34.5zM45 308v41h79v326h-71v41h115v-367h81v-41h-204zM213 0h-53l398 719h54z" />
    <glyph glyph-name="twoninths" unicode="&#xf50d;" horiz-adv-x="835" 
d="M62 607l-38 19q18 41 59 70t90 29q61 0 94 -30.5t33 -90.5q0 -35 -21 -78t-57 -78q-59 -58 -108 -97h200v-43h-275v37q94 70 158 139q55 58 55 122q0 38 -22 57.5t-56 19.5q-67 0 -112 -76zM526 53l31 30q39 -48 92 -48q47 0 75.5 37t37.5 102q-41 -43 -100 -43
q-69 0 -103.5 39.5t-34.5 104.5t37.5 104.5t99.5 39.5q149 0 149 -188q0 -117 -44 -177.5t-118 -60.5q-80 0 -122 60zM763 223v23q0 54 -22.5 92.5t-75.5 38.5q-44 0 -70 -27.5t-26 -72.5q0 -48 23.5 -75.5t69.5 -27.5q29 0 56.5 14.5t44.5 34.5zM255 0h-53l398 719h54z" />
    <glyph glyph-name="fourninths" unicode="&#xf50e;" horiz-adv-x="835" 
d="M269 308h-43v99h-205v37l188 272h61v-267h66v-42h-67v-99zM75 449h151v217zM519 53l31 30q39 -48 92 -48q47 0 75.5 37t37.5 102q-41 -43 -100 -43q-69 0 -103.5 39.5t-34.5 104.5t37.5 104.5t99.5 39.5q149 0 149 -188q0 -117 -44 -177.5t-118 -60.5q-80 0 -122 60z
M756 223v23q0 54 -22.5 92.5t-75.5 38.5q-44 0 -70 -27.5t-26 -72.5q0 -48 23.5 -75.5t69.5 -27.5q29 0 56.5 14.5t44.5 34.5zM245 0h-53l398 719h54z" />
    <glyph glyph-name="fiveninths" unicode="&#xf50f;" horiz-adv-x="835" 
d="M509 53l31 30q39 -48 92 -48q47 0 75.5 37t37.5 102q-41 -43 -100 -43q-69 0 -103.5 39.5t-34.5 104.5t37.5 104.5t99.5 39.5q149 0 149 -188q0 -117 -44 -177.5t-118 -60.5q-80 0 -122 60zM746 223v23q0 54 -22.5 92.5t-75.5 38.5q-44 0 -70 -27.5t-26 -72.5
q0 -48 23.5 -75.5t69.5 -27.5q29 0 56.5 14.5t44.5 34.5zM189 547q-50 0 -105 -51l-29 11v206h235v-40h-192v-120q39 37 97 37q122 0 122 -137q0 -71 -39 -112.5t-107 -41.5t-127 37l20 39q46 -34 112 -34q48 0 72 30t24 83q0 93 -83 93zM240 0h-53l398 719h54z" />
    <glyph glyph-name="sevenninths" unicode="&#xf510;" horiz-adv-x="835" 
d="M44 673v43h290v-34l-141 -243q-19 -33 -19 -70v-61h-48v58q0 51 18 81l137 226h-237zM436 53l31 30q39 -48 92 -48q47 0 75.5 37t37.5 102q-41 -43 -100 -43q-69 0 -103.5 39.5t-34.5 104.5t37.5 104.5t99.5 39.5q149 0 149 -188q0 -117 -44 -177.5t-118 -60.5
q-80 0 -122 60zM673 223v23q0 54 -22.5 92.5t-75.5 38.5q-44 0 -70 -27.5t-26 -72.5q0 -48 23.5 -75.5t69.5 -27.5q29 0 56.5 14.5t44.5 34.5zM160 0h-53l398 719h54z" />
    <glyph glyph-name="eightninths" unicode="&#xf511;" horiz-adv-x="835" 
d="M92 522q-35 36 -35 89t35 83.5t89 30.5q58 0 90 -29.5t32 -83.5q0 -48 -35 -91q49 -31 49 -91q0 -61 -36.5 -96t-100.5 -35q-66 0 -100.5 34t-34.5 96q0 59 47 93zM185 500l-54 5q-41 -24 -41 -79q0 -41 24 -64t67 -23q44 0 68 23.5t24 64.5q0 37 -21 53t-67 20zM174 539
l54 -4q30 20 30 78q0 33 -21.5 51.5t-56.5 18.5q-33 0 -55.5 -18t-22.5 -52q0 -67 72 -74zM516 53l31 30q39 -48 92 -48q47 0 75.5 37t37.5 102q-41 -43 -100 -43q-69 0 -103.5 39.5t-34.5 104.5t37.5 104.5t99.5 39.5q149 0 149 -188q0 -117 -44 -177.5t-118 -60.5
q-80 0 -122 60zM753 223v23q0 54 -22.5 92.5t-75.5 38.5q-44 0 -70 -27.5t-26 -72.5q0 -48 23.5 -75.5t69.5 -27.5q29 0 56.5 14.5t44.5 34.5zM240 0h-53l398 719h54z" />
    <glyph glyph-name="a.smcp" unicode="&#xf605;" horiz-adv-x="506" 
d="M75 0h-47l184 571h75l192 -571h-50l-57 173h-240zM249 543l-105 -324h213z" />
    <glyph glyph-name="b.smcp" unicode="&#xf606;" horiz-adv-x="511" 
d="M100 571h166q85 0 131.5 -33t46.5 -98q0 -50 -27 -88t-66 -53q55 -10 86 -46t31 -86q0 -80 -52.5 -123.5t-144.5 -43.5h-171v571zM148 275v-233h133q68 0 101.5 34t33.5 88q0 51 -33.5 81t-98.5 30h-136zM148 529v-211h114q63 0 97 32t34 81q0 98 -135 98h-110z" />
    <glyph glyph-name="c.smcp" unicode="&#xf607;" horiz-adv-x="468" 
d="M441 445l-48 -11q-14 52 -40 79t-83 27q-42 0 -72.5 -17.5t-46 -42t-24.5 -65t-11 -71.5t-2 -76q0 -114 39 -174.5t129 -60.5q80 0 145 42l12 -45q-21 -16 -64.5 -29t-96.5 -13q-66 0 -110.5 23.5t-67 67t-31 91.5t-8.5 112t8.5 112.5t30 94t65.5 70t109 24.5
q80 0 117 -38.5t50 -99.5z" />
    <glyph glyph-name="d.smcp" unicode="&#xf608;" horiz-adv-x="534" 
d="M100 571h164q105 0 162.5 -59t57.5 -199q0 -92 -18.5 -155.5t-52.5 -96.5t-73 -47t-89 -14h-151v571zM148 529v-487h111q87 0 130 62.5t43 201.5q0 115 -41 169t-125 54h-118z" />
    <glyph glyph-name="e.smcp" unicode="&#xf609;" horiz-adv-x="452" 
d="M100 0v571h311v-42h-263v-211h229v-43h-229v-233h274v-42h-322z" />
    <glyph glyph-name="f.smcp" unicode="&#xf60a;" horiz-adv-x="433" 
d="M100 571h324v-42h-276v-211h231v-44h-231v-274h-48v571z" />
    <glyph glyph-name="g.smcp" unicode="&#xf60b;" horiz-adv-x="509" 
d="M268 230v42h191v-248q-83 -35 -165 -35q-125 0 -179 72.5t-54 234.5q0 287 216 287q145 0 173 -138l-45 -10q-18 54 -44.5 79t-84.5 25q-165 0 -165 -240q0 -131 39 -199t146 -68q64 0 114 24v174h-142z" />
    <glyph glyph-name="h.smcp" unicode="&#xf60c;" horiz-adv-x="603" 
d="M456 571h47v-571h-47v276h-308v-276h-48v571h48v-250h308v250z" />
    <glyph glyph-name="i.smcp" unicode="&#xf60d;" horiz-adv-x="249" 
d="M100 571h48v-571h-48v571z" />
    <glyph glyph-name="j.smcp" unicode="&#xf60e;" horiz-adv-x="345" 
d="M8 19l16 43q42 -27 100 -27q52 0 67 28.5t15 93.5v414h48v-431q0 -79 -29.5 -114t-101.5 -35q-70 0 -115 28z" />
    <glyph glyph-name="k.smcp" unicode="&#xf60f;" horiz-adv-x="472" 
d="M453 571l-151 -270l162 -301h-54l-151 275h-111v-275h-48v571h48v-252h114l141 252h50z" />
    <glyph glyph-name="l.smcp" unicode="&#xf610;" horiz-adv-x="440" 
d="M100 0v571h48v-529h266v-42h-314z" />
    <glyph glyph-name="m.smcp" unicode="&#xf611;" horiz-adv-x="680" 
d="M511 571h62l26 -571h-47l-22 496l-170 -440h-37l-171 444l-24 -500h-46l27 571h67l166 -446z" />
    <glyph glyph-name="n.smcp" unicode="&#xf612;" horiz-adv-x="599" 
d="M452 571h48v-571h-48l-304 483v-483h-48v571h52l300 -478v478z" />
    <glyph glyph-name="o.smcp" unicode="&#xf613;" horiz-adv-x="552" 
d="M275 -12q-214 0 -214 306q0 143 58.5 216t163.5 73q107 0 157.5 -68.5t50.5 -215.5q0 -311 -216 -311zM440 298q0 132 -41.5 186t-118.5 54q-76 0 -121.5 -57.5t-45.5 -186.5q0 -262 161 -262q79 0 122.5 58t43.5 208z" />
    <glyph glyph-name="p.smcp" unicode="&#xf614;" horiz-adv-x="514" 
d="M148 234v-234h-48v571h192q86 0 132.5 -38.5t46.5 -112.5q0 -86 -52 -136t-137 -50h-134zM148 276h129q69 0 106 36t37 100q0 63 -34 90t-102 27h-136v-253z" />
    <glyph glyph-name="q.smcp" unicode="&#xf615;" horiz-adv-x="549" 
d="M493 -37l-11 -41q-141 18 -248 57q-41 14 -70.5 36t-53.5 57.5t-36.5 91t-12.5 130.5q0 143 58.5 216t162.5 73q108 0 158.5 -68.5t50.5 -215.5q0 -148 -52 -222.5t-147 -78.5q20 -8 89.5 -20t111.5 -15zM440 298q0 132 -41.5 186.5t-118.5 54.5q-76 0 -121.5 -58
t-45.5 -187q0 -262 162 -262q38 0 65.5 11.5t51 40t36 82.5t12.5 132z" />
    <glyph glyph-name="r.smcp" unicode="&#xf616;" horiz-adv-x="523" 
d="M148 254v-254h-48v571h179q186 0 186 -145q0 -108 -103 -156l104 -270h-54l-98 254h-166zM148 297h129q60 0 98.5 31.5t38.5 90.5t-34 84.5t-104 25.5h-128v-232z" />
    <glyph glyph-name="s.smcp" unicode="&#xf617;" horiz-adv-x="451" 
d="M41 43l24 42q64 -53 147 -53q57 0 92 28t35 84q0 61 -33 86t-111 47q-67 19 -103.5 51.5t-36.5 101.5q0 71 49 112t123 41q77 0 118.5 -38t49.5 -88l-45 -13q-26 93 -124 93q-52 0 -85 -25.5t-33 -78.5q0 -28 7 -46.5t27 -32t37 -20t54 -18.5q39 -12 59 -20.5t48 -27
t40.5 -47.5t12.5 -71q0 -75 -46.5 -118.5t-136.5 -43.5q-57 0 -102 17.5t-67 37.5z" />
    <glyph glyph-name="t.smcp" unicode="&#xf618;" horiz-adv-x="439" 
d="M10 529v42h420v-42h-188v-529h-48v529h-184z" />
    <glyph glyph-name="u.smcp" unicode="&#xf619;" horiz-adv-x="580" 
d="M148 571v-376q0 -73 12 -101q28 -63 130 -63q106 0 132 63q13 33 13 114v363h48v-378q0 -71 -9 -101q-34 -104 -185 -104q-144 0 -178 94q-11 32 -11 112v377h48z" />
    <glyph glyph-name="v.smcp" unicode="&#xf61a;" horiz-adv-x="453" 
d="M225 43l174 528h48l-189 -571h-68l-183 571h50z" />
    <glyph glyph-name="w.smcp" unicode="&#xf61b;" horiz-adv-x="705" 
d="M197 0h-55l-80 571h48l69 -494l158 439h38l154 -444l67 499h48l-78 -571h-58l-153 435z" />
    <glyph glyph-name="x.smcp" unicode="&#xf61c;" horiz-adv-x="450" 
d="M432 571l-174 -278l171 -293h-55l-150 248l-153 -248h-58l181 289l-161 282h59l136 -240l144 240h60z" />
    <glyph glyph-name="y.smcp" unicode="&#xf61d;" horiz-adv-x="454" 
d="M230 285l157 286h54l-187 -335v-236h-49v236l-190 335h55z" />
    <glyph glyph-name="z.smcp" unicode="&#xf61e;" horiz-adv-x="436" 
d="M39 529v42h374v-45l-333 -484h322v-42h-379v41l336 488h-320z" />
    <glyph glyph-name="ae.smcp" unicode="&#xf61f;" horiz-adv-x="659" 
d="M307 0v181h-161l-86 -181h-49l273 571h334v-42h-262v-211h228v-43h-228v-233h273v-42h-322zM307 523l-141 -299h141v299z" />
    <glyph glyph-name="oe.smcp" unicode="&#xf621;" horiz-adv-x="740" 
d="M275 -11q-36 0 -66 8t-58.5 29t-47.5 54.5t-30.5 88t-11.5 125.5q0 143 58.5 216t163.5 73q45 0 80 -12h336v-42h-274q62 -68 66 -211h174v-43h-174q-4 -158 -74 -233h293v-42h-361q-36 -11 -74 -11zM440 296q0 132 -42 187t-118 55t-121.5 -57.5t-45.5 -186.5
q0 -261 161 -261q38 0 66 11t51.5 39t36 81.5t12.5 131.5z" />
    <glyph glyph-name="eth.smcp" unicode="&#xf622;" horiz-adv-x="534" 
d="M20 273v44h80v254h169q102 0 158.5 -59t56.5 -199q0 -92 -18.5 -155.5t-52.5 -96.5t-73 -47t-89 -14h-151v273h-80zM149 528v-211h160v-44h-160v-228h110q87 0 129.5 60t42.5 193q0 121 -40 175.5t-121 54.5h-121z" />
    <glyph glyph-name="oslash.smcp" unicode="&#xf627;" horiz-adv-x="552" 
d="M275 -11q-58 0 -100 21l-41 -87l-39 19l43 94q-77 70 -77 258q0 143 58.5 216t163.5 73q58 0 100 -21l39 83l40 -19l-42 -89q71 -67 71 -238q0 -310 -216 -310zM113 294q0 -146 48 -209l201 432q-32 21 -82 21q-76 0 -121.5 -57.5t-45.5 -186.5zM440 298q0 129 -43 188
l-202 -432q32 -21 79 -21q79 0 122.5 57.5t43.5 207.5z" />
    <glyph glyph-name="thorn.smcp" unicode="&#xf628;" horiz-adv-x="514" 
d="M148 144v-144h-48v571h48v-89h137q86 0 136 -39.5t50 -117.5q0 -82 -51.5 -131.5t-137.5 -49.5h-134zM148 188h129q69 0 106 35t37 97q0 64 -37 91t-106 27h-129v-250z" />
    <glyph glyph-name="ampersand.smcp" unicode="&#xf62c;" horiz-adv-x="558" 
d="M234 28q79 0 154 80q-83 84 -172 188q-52 -15 -81.5 -53t-29.5 -89q0 -56 33 -91t96 -35zM367 376l-34 22q22 29 22 59q0 34 -25.5 52.5t-63.5 18.5q-44 0 -66.5 -20t-22.5 -50q0 -38 42 -89q128 -163 319 -352l-33 -30q-37 34 -90 92q-83 -91 -189 -91q-84 0 -129 47.5
t-45 114.5q0 61 37 108t104 70q-66 66 -66 126q0 51 38.5 84t104.5 33q57 0 95 -29t38 -78q0 -47 -36 -88z" />
    <glyph glyph-name="germandbls.smcp" unicode="&#xf637;" horiz-adv-x="900" 
d="M41 43l24 42q64 -53 147 -53q57 0 92 28t35 84q0 61 -33 86t-111 47q-67 19 -103.5 51.5t-36.5 101.5q0 71 49 112t123 41q77 0 118.5 -38t49.5 -88l-45 -13q-26 93 -124 93q-52 0 -85 -25.5t-33 -78.5q0 -28 7 -46.5t27 -32t37 -20t54 -18.5q39 -12 59 -20.5t48 -27
t40.5 -47.5t12.5 -71q0 -75 -46.5 -118.5t-136.5 -43.5q-57 0 -102 17.5t-67 37.5zM490 43l24 42q64 -53 147 -53q57 0 92 28t35 84q0 61 -33 86t-111 47q-67 19 -103.5 51.5t-36.5 101.5q0 71 49 112t123 41q77 0 118.5 -38t49.5 -88l-45 -13q-25 93 -124 93
q-52 0 -85 -25.5t-33 -78.5q0 -28 7 -46.5t27 -32t37 -20t54 -18.5q39 -12 59 -20.5t48 -27t40.5 -47.5t12.5 -71q0 -75 -46.5 -118.5t-136.5 -43.5q-57 0 -102 17.5t-67 37.5z" />
    <glyph glyph-name="dollar.smcp" unicode="&#xf639;" horiz-adv-x="535" 
d="M75 44l21 42q59 -51 143 -52v240l-11 3q-67 20 -104 53t-37 101q0 65 42.5 105t109.5 46v78h44v-78q66 -5 101.5 -41.5t43.5 -83.5l-45 -13q-22 79 -100 90v-223q33 -11 54 -21t44 -28t34.5 -46t11.5 -67q0 -66 -36.5 -107t-107.5 -50v-92h-44v89q-56 1 -99.5 18
t-64.5 37zM141 433q0 -46 23.5 -68.5t74.5 -39.5v210q-43 -5 -70.5 -30.5t-27.5 -71.5zM371 144q0 48 -22 73t-66 42v-221q88 18 88 106z" />
    <glyph glyph-name="cent.smcp" unicode="&#xf63a;" horiz-adv-x="483" 
d="M236 539v112h44v-111q111 -8 141 -134l-43 -13q-27 94 -98 103v-405q74 12 98 100l43 -12q-12 -50 -46 -88t-95 -46v-140h-44v139q-151 11 -151 252q0 97 35.5 164.5t115.5 78.5zM136 296q0 -193 100 -206v404q-100 -20 -100 -198z" />
    <glyph glyph-name="sterling.smcp" unicode="&#xf63b;" horiz-adv-x="524" 
d="M76 272v41h52q-35 72 -35 115q0 69 53.5 112t129.5 43q84 0 129 -35.5t63 -108.5l-46 -12q-17 62 -54.5 87.5t-94.5 25.5q-61 0 -95 -28.5t-34 -70.5q0 -15 1 -26.5t6 -26.5l6.5 -19.5t12 -27t12.5 -28.5h198v-40h-185q25 -64 25 -104q0 -32 -20 -66.5t-50 -57.5h320v-45
h-392l-6 37q46 13 71.5 49t25.5 76q0 43 -29 110h-64z" />
    <glyph glyph-name="yen.smcp" unicode="&#xf63c;" horiz-adv-x="542" 
d="M95 239v40h127l-180 292h57l169 -273l170 273h54l-182 -292h135v-40h-152v-74h152v-40h-152v-125h-52v125h-146v40h146v74h-146z" />
    <glyph glyph-name="florin.smcp" unicode="&#xf63d;" horiz-adv-x="443" 
d="M416 571l-2 -42q-31 11 -73 11q-29 0 -44 -10t-29 -31q-12 -21 -22 -67l-18 -92h107l-9 -40h-106l-52 -278q-12 -68 -30 -97q-19 -32 -52 -50.5t-71 -18.5t-79 13l7 45q34 -15 75 -15q48 0 74 39q16 23 24 66l58 296h-85l8 40h83l17 88q12 60 27 86q19 33 52 51t72 18
q34 0 68 -12z" />
    <glyph glyph-name="exclam.smcp" unicode="&#xf63e;" horiz-adv-x="194" 
d="M78 155l-11 416h59l-11 -416h-37zM61 34q0 16 10 27t26 11t26 -11t10 -27q0 -17 -10 -28t-27 -11q-16 0 -25.5 11t-9.5 28z" />
    <glyph glyph-name="question.smcp" unicode="&#xf63f;" horiz-adv-x="332" 
d="M89 150v151q82 9 121 44.5t39 81.5q0 101 -115 101q-40 0 -60 -6l-9 41q26 8 72 8q79 0 121 -36.5t42 -104.5q0 -60 -43.5 -103.5t-120.5 -58.5v-118h-47zM74 34q0 16 10 27t26 11q17 0 27 -11t10 -27q0 -17 -10 -28t-26 -11t-26.5 11t-10.5 28z" />
    <glyph glyph-name="ordfeminine.smcp" unicode="&#xf640;" horiz-adv-x="293" 
d="M55 312h-43l109 337h45l114 -337h-42l-35 102h-115zM191 451l-48 149l-45 -149h93z" />
    <glyph glyph-name="ordmasculine.smcp" unicode="&#xf641;" horiz-adv-x="308" 
d="M154 308q-57 0 -90 38.5t-33 139.5q0 83 33 125t93 42q63 0 92 -39t29 -125q0 -181 -124 -181zM235 488q0 69 -20 98t-58 29q-83 0 -83 -129q0 -140 80 -140q39 0 60 31.5t21 110.5z" />
    <glyph glyph-name="questiondown.smcp" unicode="&#xf642;" horiz-adv-x="332" 
d="M251 421v-151q-82 -9 -121 -44.5t-39 -81.5q0 -101 115 -101q40 0 60 6l9 -41q-26 -8 -72 -8q-79 0 -121 36.5t-42 104.5q0 61 43.5 104t120.5 58v118h47zM266 537q0 -16 -10 -27t-26 -11q-17 0 -27 11t-10 27q0 17 10 28t26 11t26.5 -11t10.5 -28z" />
    <glyph glyph-name="exclamdown.smcp" unicode="&#xf643;" horiz-adv-x="194" 
d="M116 416l11 -416h-59l11 416h37zM133 537q0 -16 -10 -27t-26 -11t-26 11t-10 27q0 17 10 28t27 11q16 0 25.5 -11t9.5 -28z" />
    <glyph glyph-name="percent.smcp" unicode="&#xf69e;" horiz-adv-x="673" 
d="M171 293q32 0 49.5 32t17.5 91q0 54 -18 84.5t-49 30.5q-32 0 -49.5 -32t-17.5 -91q0 -54 18 -84.5t49 -30.5zM208 0h-52l316 571h52zM169 253q-109 0 -109 159q0 81 31.5 120t81.5 39q109 0 109 -159q0 -81 -31.5 -120t-81.5 -39zM503 28q32 0 49.5 32t17.5 91
q0 54 -18 84.5t-49 30.5q-32 0 -49.5 -32t-17.5 -91q0 -54 18 -84.5t49 -30.5zM501 -12q-109 0 -109 159q0 81 31.5 120t81.5 39q109 0 109 -159q0 -81 -31.5 -120t-81.5 -39z" />
    <glyph glyph-name="perthousand.smcp" unicode="&#xf69f;" horiz-adv-x="831" 
d="M169 0h-53l317 571h52zM160 571q101 0 101 -139q0 -72 -28 -107t-76 -35q-50 0 -77 36t-27 106q0 71 30.5 105t76.5 34zM158 331q58 0 58 101q0 98 -57 98q-61 0 -61 -101q0 -98 60 -98zM444 270q101 0 101 -139q0 -72 -28 -107t-76 -35q-50 0 -77 36t-27 106
q0 71 30.5 105t76.5 34zM442 30q58 0 58 101q0 98 -57 98q-61 0 -61 -101q0 -98 60 -98zM703 270q101 0 101 -139q0 -72 -28 -107t-76 -35q-50 0 -77 36t-27 106q0 71 30.5 105t76.5 34zM701 30q58 0 58 101q0 98 -57 98q-61 0 -61 -101q0 -98 60 -98z" />
    <glyph glyph-name="slash.smcp" unicode="&#xf6a0;" horiz-adv-x="399" 
d="M40 -18l237 631l43 -17l-239 -632z" />
    <glyph glyph-name="backslash.smcp" unicode="&#xf6a1;" horiz-adv-x="399" 
d="M292 -36l-240 633l44 16l236 -630z" />
    <glyph glyph-name="parenleft.smcp" unicode="&#xf6a3;" horiz-adv-x="268" 
d="M238 -71l-42 -20q-51 92 -76.5 169.5t-25.5 177.5q0 151 100 353l42 -16q-47 -100 -69.5 -174.5t-22.5 -164.5q0 -65 14 -124t29.5 -94t50.5 -107z" />
    <glyph glyph-name="parenright.smcp" unicode="&#xf6a4;" horiz-adv-x="268" 
d="M30 590l42 20q51 -92 76.5 -169.5t25.5 -177.5q0 -151 -100 -353l-42 16q47 100 69.5 174.5t22.5 164.5q0 65 -14 124t-29.5 94t-50.5 107z" />
    <glyph glyph-name="braceleft.smcp" unicode="&#xf6a5;" horiz-adv-x="297" 
d="M121 261q62 -22 62 -99v-161q0 -20 2 -31t11.5 -20.5t27.5 -9.5q14 0 38 8l6 -37q-20 -9 -53 -9q-26 0 -42.5 8t-24 24.5t-9.5 31.5t-2 39v134q0 95 -66 101v41q66 6 66 98v124q0 24 2.5 40t9.5 33.5t23.5 26t42.5 8.5q27 0 54 -9l-7 -38q-17 7 -38 7q-15 0 -23.5 -5
t-12 -17t-4.5 -21t-1 -28v-142q0 -70 -62 -97z" />
    <glyph glyph-name="braceright.smcp" unicode="&#xf6a6;" horiz-adv-x="298" 
d="M176 261q-62 26 -62 97v142q0 19 -0.5 28t-4 21t-12.5 17t-23 5q-21 0 -39 -7l-7 38q29 9 55 9q47 0 62 -27t15 -76v-129q0 -91 67 -98v-41q-67 -6 -67 -101v-134q0 -19 -1 -31.5t-5.5 -27t-12.5 -23.5t-22.5 -15t-35.5 -6q-33 0 -54 9l6 37q26 -8 39 -8q26 0 33 15.5
t7 45.5v161q0 77 62 99z" />
    <glyph glyph-name="bracketleft.smcp" unicode="&#xf6a7;" horiz-adv-x="240" 
d="M86 -93v701h147v-36h-102v-629h102v-36h-147z" />
    <glyph glyph-name="bracketright.smcp" unicode="&#xf6a8;" horiz-adv-x="239" 
d="M153 608v-701h-147v36h102v629h-102v36h147z" />
    <glyph glyph-name="asterisk.smcp" unicode="&#xf6a9;" horiz-adv-x="347" 
d="M188 429l45 -80q11 -20 28 -20q10 0 19.5 7.5t9.5 18.5q0 13 -16 29l-63 62zM215 468l89 19q29 6 29 27q0 11 -7.5 21t-18.5 10q-9 0 -25 -8l-77 -42zM159 428l-45 -80q-11 -20 -28 -20q-10 0 -19.5 7.5t-9.5 18.5q0 13 16 29l63 62zM132 467l-89 19q-29 6 -29 27
q0 11 7.5 21t18.5 10q9 0 25 -8l77 -42zM162 511l-13 90q-4 19 5 29t24 10t22 -11t3 -31l-13 -87h-28z" />
    <glyph glyph-name="quoteleft.smcp" unicode="&#xf6aa;" horiz-adv-x="184" 
d="M126 631l-15 -202q-1 -14 -10 -21.5t-20 -7.5q-16 0 -25 12.5t-4 33.5l42 191z" />
    <glyph glyph-name="quoteright.smcp" unicode="&#xf6ab;" horiz-adv-x="183" 
d="M65 405l15 202q4 28 30 28q16 0 25 -12t4 -33l-42 -191z" />
    <glyph glyph-name="quotedblleft.smcp" unicode="&#xf6ac;" horiz-adv-x="318" 
d="M126 631l-15 -202q-1 -14 -10 -21.5t-20 -7.5q-16 0 -25 12.5t-4 33.5l42 191zM260 631l-15 -202q-1 -14 -10 -21.5t-20 -7.5q-16 0 -25 12.5t-4 33.5l42 191z" />
    <glyph glyph-name="quotedblright.smcp" unicode="&#xf6ad;" horiz-adv-x="317" 
d="M65 405l15 202q4 28 30 28q16 0 25 -12t4 -33l-42 -191zM199 405l15 202q4 28 30 28q16 0 25 -12t4 -33l-42 -191z" />
    <glyph glyph-name="commaaccent" unicode="&#xf6c3;" horiz-adv-x="237" 
d="M107 -229l-34 9l42 179l54 -15z" />
    <glyph glyph-name="zero.tosf" unicode="&#xf81e;" 
d="M278 598q107 0 169 -70t62 -215q0 -161 -64 -242t-173 -81q-111 0 -171 81.5t-60 226.5q0 147 68.5 223.5t168.5 76.5zM274 33q88 0 137 69.5t49 204.5q0 120 -48 183.5t-136 63.5q-87 0 -135.5 -69.5t-48.5 -190.5q0 -122 47 -191.5t135 -69.5z" />
    <glyph glyph-name="one.tosf" unicode="&#xf81f;" 
d="M134 0v40h124v505h-113v40h160v-545h125v-40h-296z" />
    <glyph glyph-name="two.tosf" unicode="&#xf820;" 
d="M113 438l-39 19q25 59 79.5 98.5t133.5 39.5q81 0 129 -46t48 -124q0 -50 -21 -94t-79 -103q-42 -43 -109 -98.5t-110 -83.5h333v-46h-407v42q156 114 249 205q54 53 74.5 93t20.5 88q0 59 -35.5 91.5t-100.5 32.5q-104 0 -166 -114z" />
    <glyph glyph-name="three.tosf" unicode="&#xf821;" 
d="M107 456l-40 17q23 55 76 88.5t126 33.5q88 0 135.5 -42.5t47.5 -119.5q0 -58 -31 -100t-83 -61q126 -32 126 -175q0 -95 -59.5 -152.5t-160.5 -57.5q-50 0 -101.5 17.5t-80.5 44.5l23 40q73 -58 163 -58q73 0 119.5 46t46.5 121q0 45 -15.5 76.5t-42 47t-54 22
t-60.5 6.5q-12 0 -34 -2v46q27 -1 51 1t51.5 10.5t47 22.5t32.5 40t13 60q0 123 -139 123q-108 0 -157 -95z" />
    <glyph glyph-name="four.tosf" unicode="&#xf822;" 
d="M403 -100h-45v177h-308v48l284 460h70v-464h95v-44h-96v-177zM100 121h257v416z" />
    <glyph glyph-name="five.tosf" unicode="&#xf823;" 
d="M301 334q-79 0 -162 -81l-47 16v316h351v-45h-303v-231q75 71 168 71q90 0 135.5 -65.5t45.5 -166.5q0 -118 -58 -188t-165 -70q-53 0 -100.5 18t-76.5 43l26 43q70 -60 155 -60q81 0 124.5 61t43.5 153q0 84 -35 135t-102 51z" />
    <glyph glyph-name="six.tosf" unicode="&#xf824;" 
d="M438 561q-49 91 -131 91q-75 0 -123.5 -78t-57.5 -198q28 28 75 51.5t95 23.5q100 0 147.5 -61.5t47.5 -154.5q0 -109 -54.5 -177t-146.5 -68q-217 0 -217 314q0 197 65.5 296t173.5 99q55 0 98.5 -29t69.5 -82zM126 317v-30q0 -47 7 -87.5t24 -79.5t51 -62t81 -23
q70 0 110.5 55.5t40.5 139.5q0 78 -34.5 126t-109.5 48q-50 0 -97.5 -27.5t-72.5 -59.5z" />
    <glyph glyph-name="seven.tosf" unicode="&#xf825;" 
d="M62 540v45h422v-35l-223 -451q-31 -62 -31 -120v-79h-51v76q0 73 26 121l222 443h-365z" />
    <glyph glyph-name="eight.tosf" unicode="&#xf826;" 
d="M151 369q-66 55 -66 147q0 83 54 132.5t137 49.5q90 0 138 -45.5t48 -133.5q0 -91 -66 -163q45 -28 67 -64t22 -91q0 -99 -54.5 -155t-157.5 -56q-104 0 -157 54.5t-53 150.5q0 104 88 174zM284 335l-94 8q-37 -22 -56.5 -62t-19.5 -86q0 -76 42 -119t120 -43
q75 0 117 44t42 119q0 72 -36 102.5t-115 36.5zM273 654q-59 0 -99 -36t-40 -99q0 -129 126 -139l91 -9q27 24 45 64.5t18 85.5q0 67 -38.5 100t-102.5 33z" />
    <glyph glyph-name="nine.tosf" unicode="&#xf827;" 
d="M119 26q49 -90 138 -90q155 0 174 275q-28 -28 -75 -51.5t-95 -23.5q-100 0 -147.5 61.5t-47.5 154.5q0 110 55.5 177.5t152.5 67.5q210 0 210 -314q0 -394 -230 -394q-60 0 -109 30t-70 83zM431 270v30q0 47 -7 87.5t-23.5 79.5t-49.5 62t-79 23q-73 0 -114 -55.5
t-41 -139.5q0 -78 34.5 -126t109.5 -48q50 0 97.5 27.5t72.5 59.5z" />
    <glyph glyph-name="ij.smcp" unicode="&#xf919;" horiz-adv-x="595" 
d="M100 571h48v-571h-48v571zM258 19l16 43q42 -27 100 -27q52 0 67 28.5t15 93.5v414h48v-431q0 -79 -29.5 -114t-101.5 -35q-70 0 -115 28z" />
    <glyph glyph-name="eng.smcp" unicode="&#xf926;" horiz-adv-x="599" 
d="M452 571h49v-619q0 -67 -25.5 -98t-83.5 -31q-54 0 -87 23l10 43q41 -24 80 -24q33 0 46 20.5t13 63.5v48l-306 486v-483h-48v571h52l300 -478v478z" />
    <glyph glyph-name="tcommaaccent.smcp" unicode="&#xf945;" horiz-adv-x="439" 
d="M10 529v42h420v-42h-188v-529h-48v529h-184zM140 -220l34 -9l62 173l-54 15z" />
    <glyph glyph-name="hyphen.case" horiz-adv-x="425" 
d="M62 329v46h301v-46h-301z" />
    <glyph glyph-name="zero.num" horiz-adv-x="400" 
d="M202 725q69 0 105.5 -50t36.5 -163q0 -112 -37 -162.5t-109 -50.5q-75 0 -109 49.5t-34 162.5q0 111 39.5 162.5t107.5 51.5zM199 341q50 0 74 39.5t24 130.5q0 90 -23.5 130.5t-72.5 40.5q-52 0 -74.5 -42t-22.5 -135q0 -88 22 -126t73 -38z" />
    <glyph glyph-name="one.num" horiz-adv-x="400" 
d="M93 308v41h79v326h-71v41h115v-367h81v-41h-204z" />
    <glyph glyph-name="two.num" horiz-adv-x="400" 
d="M90 607l-38 19q18 41 59 70t90 29q61 0 94 -30.5t33 -90.5q0 -35 -21 -78t-57 -78q-59 -58 -108 -97h200v-43h-275v37q94 70 158 139q55 58 55 122q0 38 -22 57.5t-56 19.5q-67 0 -112 -76z" />
    <glyph glyph-name="three.num" horiz-adv-x="400" 
d="M97 617l-39 19q49 89 143 89q54 0 85.5 -26.5t31.5 -75.5q0 -68 -59 -100q66 -23 66 -98q0 -58 -39.5 -92t-105.5 -34q-35 0 -71 12.5t-58 30.5l21 38q50 -40 113 -40q41 0 67 24t26 63q0 38 -21.5 55t-54.5 17h-55v42h49q36 0 56 21t20 53q0 68 -76 68q-64 0 -99 -66z
" />
    <glyph glyph-name="four.num" horiz-adv-x="400" 
d="M289 308h-43v99h-205v37l188 272h61v-267h66v-42h-67v-99zM95 449h151v217z" />
    <glyph glyph-name="five.num" horiz-adv-x="400" 
d="M207 547q-50 0 -105 -51l-29 11v206h235v-40h-192v-120q39 37 97 37q122 0 122 -137q0 -71 -39 -112.5t-107 -41.5t-127 37l20 39q46 -34 112 -34q48 0 72 30t24 83q0 93 -83 93z" />
    <glyph glyph-name="six.num" horiz-adv-x="400" 
d="M343 669l-31 -30q-41 44 -96 44q-47 0 -75.5 -37.5t-37.5 -102.5q42 40 100 40q69 0 103.5 -39t34.5 -103q0 -65 -37.5 -103.5t-99.5 -38.5q-149 0 -149 188q0 117 44 177.5t118 60.5q82 0 126 -56zM102 495v-23q0 -54 22.5 -92.5t75.5 -38.5q44 0 70 27t26 71
q0 47 -23.5 74t-69.5 27q-58 0 -101 -45z" />
    <glyph glyph-name="seven.num" horiz-adv-x="400" 
d="M55 673v43h290v-34l-141 -243q-19 -33 -19 -70v-61h-48v58q0 51 18 81l137 226h-237z" />
    <glyph glyph-name="eight.num" horiz-adv-x="400" 
d="M110 522q-35 36 -35 89t35 83.5t89 30.5q58 0 90 -29.5t32 -83.5q0 -48 -35 -91q49 -31 49 -91q0 -61 -36.5 -96t-100.5 -35q-66 0 -100.5 34t-34.5 96q0 59 47 93zM203 500l-54 5q-41 -24 -41 -79q0 -41 24 -64t67 -23q44 0 68 23.5t24 64.5q0 37 -21 53t-67 20z
M192 539l54 -4q30 20 30 78q0 33 -21.5 51.5t-56.5 18.5q-33 0 -55.5 -18t-22.5 -52q0 -67 72 -74z" />
    <glyph glyph-name="nine.num" horiz-adv-x="400" 
d="M59 359l31 30q39 -48 92 -48q47 0 75.5 37t37.5 102q-41 -43 -100 -43q-69 0 -103.5 39.5t-34.5 104.5t37.5 104.5t99.5 39.5q149 0 149 -188q0 -117 -44 -177.5t-118 -60.5q-80 0 -122 60zM296 529v23q0 54 -22.5 92.5t-75.5 38.5q-44 0 -70 -27.5t-26 -72.5
q0 -48 23.5 -75.5t69.5 -27.5q29 0 56.5 14.5t44.5 34.5z" />
    <glyph glyph-name="zero.denom" horiz-adv-x="400" 
d="M202 419q69 0 105.5 -50t36.5 -163q0 -112 -37 -162.5t-109 -50.5q-75 0 -109 49.5t-34 162.5q0 111 39.5 162.5t107.5 51.5zM199 35q50 0 74 39.5t24 130.5q0 90 -23.5 130.5t-72.5 40.5q-52 0 -74.5 -42t-22.5 -135q0 -88 22 -126t73 -38z" />
    <glyph glyph-name="one.denom" horiz-adv-x="400" 
d="M93 2v41h79v326h-71v41h115v-367h81v-41h-204z" />
    <glyph glyph-name="two.denom" horiz-adv-x="400" 
d="M90 301l-38 19q18 41 59 70t90 29q61 0 94 -30.5t33 -90.5q0 -35 -21 -78t-57 -78q-59 -58 -108 -97h200v-43h-275v37q94 70 158 139q55 58 55 122q0 38 -22 57.5t-56 19.5q-67 0 -112 -76z" />
    <glyph glyph-name="three.denom" horiz-adv-x="400" 
d="M97 311l-39 19q49 89 143 89q54 0 85.5 -26.5t31.5 -75.5q0 -68 -59 -100q66 -23 66 -98q0 -58 -39.5 -92t-105.5 -34q-35 0 -71 12.5t-58 30.5l21 38q50 -40 113 -40q41 0 67 24t26 63q0 38 -21.5 55t-54.5 17h-55v42h49q36 0 56 21t20 53q0 68 -76 68q-64 0 -99 -66z
" />
    <glyph glyph-name="four.denom" horiz-adv-x="400" 
d="M289 2h-43v99h-205v37l188 272h61v-267h66v-42h-67v-99zM95 143h151v217z" />
    <glyph glyph-name="five.denom" horiz-adv-x="400" 
d="M207 241q-50 0 -105 -51l-29 11v206h235v-40h-192v-120q39 37 97 37q122 0 122 -137q0 -71 -39 -112.5t-107 -41.5t-127 37l20 39q46 -34 112 -34q48 0 72 30t24 83q0 93 -83 93z" />
    <glyph glyph-name="six.denom" horiz-adv-x="400" 
d="M343 363l-31 -30q-41 44 -96 44q-47 0 -75.5 -37.5t-37.5 -102.5q42 40 100 40q69 0 103.5 -39t34.5 -103q0 -65 -37.5 -103.5t-99.5 -38.5q-149 0 -149 188q0 117 44 177.5t118 60.5q82 0 126 -56zM102 189v-23q0 -54 22.5 -92.5t75.5 -38.5q44 0 70 27t26 71
q0 47 -23.5 74t-69.5 27q-58 0 -101 -45z" />
    <glyph glyph-name="seven.denom" horiz-adv-x="400" 
d="M55 367v43h290v-34l-141 -243q-19 -33 -19 -70v-61h-48v58q0 51 18 81l137 226h-237z" />
    <glyph glyph-name="eight.denom" horiz-adv-x="400" 
d="M110 216q-35 36 -35 89t35 83.5t89 30.5q58 0 90 -29.5t32 -83.5q0 -48 -35 -91q49 -31 49 -91q0 -61 -36.5 -96t-100.5 -35q-66 0 -100.5 34t-34.5 96q0 59 47 93zM203 194l-54 5q-41 -24 -41 -79q0 -41 24 -64t67 -23q44 0 68 23.5t24 64.5q0 37 -21 53t-67 20z
M192 233l54 -4q30 20 30 78q0 33 -21.5 51.5t-56.5 18.5q-33 0 -55.5 -18t-22.5 -52q0 -67 72 -74z" />
    <glyph glyph-name="nine.denom" horiz-adv-x="400" 
d="M59 53l31 30q39 -48 92 -48q47 0 75.5 37t37.5 102q-41 -43 -100 -43q-69 0 -103.5 39.5t-34.5 104.5t37.5 104.5t99.5 39.5q149 0 149 -188q0 -117 -44 -177.5t-118 -60.5q-80 0 -122 60zM296 223v23q0 54 -22.5 92.5t-75.5 38.5q-44 0 -70 -27.5t-26 -72.5
q0 -48 23.5 -75.5t69.5 -27.5q29 0 56.5 14.5t44.5 34.5z" />
    <glyph glyph-name="revcommaaccent" horiz-adv-x="103" 
d="M52 772l33 -10l-42 -178l-53 15z" />
    <glyph glyph-name="tilde.cap" horiz-adv-x="384" 
d="M73 595l-16 39q15 15 41 26.5t50 11.5q17 0 49 -13.5t53 -13.5q28 0 61 23l7 -45q-29 -22 -71 -22q-23 0 -58 11t-47 11q-30 0 -69 -28z" />
    <glyph glyph-name="ring.cap" horiz-adv-x="322" 
d="M162 578q-36 0 -57 21t-21 58q0 41 22.5 65t61.5 24q36 0 57.5 -21.5t21.5 -59.5q0 -39 -22.5 -63t-62.5 -24zM122 659q0 -50 43 -50q45 0 45 52q0 54 -42 54q-46 0 -46 -56z" />
    <glyph glyph-name="circumflex.cap" horiz-adv-x="337" 
d="M148 682h53l99 -90l-28 -27l-97 84l-97 -83l-29 27z" />
    <glyph glyph-name="acute.cap" horiz-adv-x="237" 
d="M0 604l208 72l16 -51l-213 -51z" />
    <glyph glyph-name="grave.cap" horiz-adv-x="237" 
d="M13 677l208 -72l-10 -31l-213 51z" />
    <glyph glyph-name="dieresis.cap" horiz-adv-x="403" 
d="M101 627q0 36 32 36q33 0 33 -36q0 -17 -9 -27t-24 -10q-32 0 -32 37zM249 627q0 17 9 26.5t23 9.5q34 0 34 -36q0 -17 -9 -27t-25 -10q-15 0 -23.5 10.5t-8.5 26.5z" />
    <glyph glyph-name="caron.cap" horiz-adv-x="337" 
d="M201 574h-53l-99 90l30 28l96 -86l97 85l28 -28z" />
    <glyph glyph-name="macron.cap" horiz-adv-x="338" 
d="M31 606v44h273v-44h-273z" />
    <glyph glyph-name="dotaccent.cap" horiz-adv-x="286" 
d="M142 600q-33 0 -33 40q0 35 33 35t33 -35q0 -40 -33 -40z" />
    <glyph glyph-name="cedilla.cap" horiz-adv-x="217" 
d="M48 -97v39q33 9 63 9q41 0 65 -21t24 -59q0 -56 -36.5 -79.5t-87.5 -23.5q-22 0 -42 4l-6 41q13 -4 38 -4q86 0 86 57q0 45 -51 45q-23 0 -53 -8z" />
    <glyph glyph-name="hungarumlaut.cap" horiz-adv-x="493" 
d="M209 603l191 139l32 -48l-205 -120zM34 603l192 139l31 -48l-204 -120z" />
    <glyph glyph-name="commaaccent.cap" horiz-adv-x="237" 
d="M107 -229l-34 9l42 179l54 -15z" />
    <glyph glyph-name="breve.cap" horiz-adv-x="414" 
d="M311 716l35 -20q-18 -42 -54.5 -75.5t-92.5 -33.5q-52 0 -86 33t-49 72l37 20q38 -84 101 -84q39 0 63 23t46 65z" />
    <glyph glyph-name="caron.alt" horiz-adv-x="190" 
d="M67 719h54l-20 -202h-34v202z" />
    <glyph glyph-name="ogonek.cap" horiz-adv-x="535" 
d="M280 3l54 -2q-78 -62 -78 -115q0 -48 47 -48q27 0 52 13l9 -43q-30 -15 -71 -15q-42 0 -65.5 21t-23.5 59q0 72 76 130z" />
    <glyph glyph-name="square" horiz-adv-x="595" 
d="M101 143v395h395v-395h-395z" />
    <glyph glyph-name="square.open" horiz-adv-x="595" 
d="M171 466v-252h252v252h-252zM100 143v395h395v-395h-395z" />
    <glyph glyph-name="circle.open" horiz-adv-x="610" 
d="M100 354q0 85 60 145t145 60t145 -60t60 -145t-60 -145t-145 -60t-145 60t-60 145zM171 354q0 -56 39.5 -95t94.5 -39t94 39.5t39 94.5t-39 94t-94 39t-94.5 -39t-39.5 -94z" />
    <glyph glyph-name="triangle.left" horiz-adv-x="425" 
d="M275 434v-231l-185 117z" />
    <glyph glyph-name="raute" horiz-adv-x="610" 
d="M305 535l209 -210l-210 -209l-209 210z" />
    <glyph glyph-name="arrow.right" horiz-adv-x="931" 
d="M573 685l308 -312l-304 -299l-38 38l245 235h-734v49h736l-249 253z" />
    <glyph glyph-name="arrow.left" horiz-adv-x="931" 
d="M50 373l308 312l36 -36l-249 -253h736v-49h-734l245 -235l-38 -38z" />
    <glyph glyph-name="arrow.up" horiz-adv-x="711" 
d="M349 795l312 -308l-36 -36l-253 249v-736h-49v734l-235 -245l-38 38z" />
    <glyph glyph-name="arrow.down" horiz-adv-x="711" 
d="M677 195l-312 -308l-299 304l38 38l235 -245v734h49v-736l253 249z" />
    <glyph glyph-name="arrow.leftup" horiz-adv-x="784" 
d="M85 243v440h431v-47h-345l583 -585l-36 -35l-583 584v-357h-50z" />
    <glyph glyph-name="arrow.rightup" horiz-adv-x="785" 
d="M701 683v-440h-50v357l-583 -584l-36 35l583 585h-345v47h431z" />
    <glyph glyph-name="zero.tf" 
d="M279 698q113 0 168 -81t55 -269q0 -192 -58 -275t-173 -83q-119 0 -172 80t-53 275q0 183 62 268t171 85zM273 34q93 0 137 73t44 239q0 162 -43 234.5t-136 72.5q-179 0 -179 -320q0 -155 42 -227t135 -72z" />
    <glyph glyph-name="one.tf" 
d="M81 0v41h169v601h-112v43h160v-644h169v-41h-386z" />
    <glyph glyph-name="two.tf" 
d="M111 541l-37 19q65 139 205 139q82 0 133.5 -47t51.5 -132q0 -95 -68 -187q-102 -138 -256 -287h337v-46h-405v41q160 154 265 288q45 58 61 100t16 89q0 61 -37.5 98.5t-99.5 37.5q-55 0 -93.5 -26t-72.5 -87z" />
    <glyph glyph-name="three.tf" 
d="M106 559l-39 17q23 55 76 88.5t126 33.5q85 0 133 -43t48 -119q0 -58 -30 -100t-82 -61q124 -37 124 -175q0 -95 -58.5 -152.5t-159.5 -57.5q-50 0 -101.5 17.5t-80.5 44.5l23 40q73 -58 163 -58q73 0 119.5 46t46.5 121q0 51 -21.5 85t-56 47t-65.5 17t-63 1v46
q27 -1 51 1t51.5 10.5t47 22.5t32.5 40t13 60q0 66 -40.5 94.5t-101.5 28.5q-106 0 -155 -95z" />
    <glyph glyph-name="four.tf" 
d="M403 0h-45v177h-308v48l284 460h70v-464h95v-48h-96v-173zM100 221h257v416z" />
    <glyph glyph-name="five.tf" 
d="M284 434q-79 0 -162 -81l-47 16v316h351v-45h-302v-234q74 74 167 74q90 0 135.5 -65.5t45.5 -166.5q0 -118 -58 -188t-165 -70q-53 0 -100.5 18t-76.5 43l26 43q70 -60 155 -60q81 0 124.5 61t43.5 153q0 84 -35 135t-102 51z" />
    <glyph glyph-name="six.tf" 
d="M430 561q-49 91 -131 91q-75 0 -123.5 -78t-57.5 -198q28 28 75 51.5t95 23.5q100 0 147.5 -61.5t47.5 -154.5q0 -109 -54.5 -177t-146.5 -68q-217 0 -217 314q0 197 65.5 296t173.5 99q55 0 98.5 -29t69.5 -82zM118 317v-30q0 -47 7 -87.5t24 -79.5t51 -62t81 -23
q70 0 110.5 55.5t40.5 139.5q0 78 -34.5 126t-109.5 48q-50 0 -97.5 -27.5t-72.5 -59.5z" />
    <glyph glyph-name="seven.tf" 
d="M63 640v45h422v-35l-223 -451q-31 -62 -31 -120v-79h-51v76q0 73 26 121l222 443h-365z" />
    <glyph glyph-name="eight.tf" 
d="M152 369q-66 55 -66 147q0 83 54 132.5t137 49.5q90 0 138 -45.5t48 -133.5q0 -91 -66 -163q45 -28 67 -64t22 -91q0 -99 -54.5 -155t-157.5 -56q-104 0 -157 54.5t-53 150.5q0 104 88 174zM285 335l-94 8q-37 -22 -56.5 -62t-19.5 -86q0 -76 42 -119t120 -43
q75 0 117 44t42 119q0 72 -36 102.5t-115 36.5zM274 654q-59 0 -99 -36t-40 -99q0 -129 126 -139l91 -9q27 24 45 64.5t18 85.5q0 67 -38.5 100t-102.5 33z" />
    <glyph glyph-name="nine.tf" 
d="M118 127q49 -90 138 -90q155 0 174 275q-28 -28 -75 -51.5t-95 -23.5q-100 0 -147.5 61.5t-47.5 154.5q0 110 55.5 177.5t152.5 67.5q210 0 210 -314q0 -394 -230 -394q-60 0 -109 30t-70 83zM430 371v30q0 47 -7 87.5t-23.5 79.5t-49.5 62t-79 23q-73 0 -114 -55.5
t-41 -139.5q0 -78 34.5 -126t109.5 -48q50 0 97.5 27.5t72.5 59.5z" />
    <glyph glyph-name="dollar.tf" 
d="M257 -100v90q-64 1 -113 23t-70 47l26 39q24 -26 66 -45t91 -20v301q-31 11 -49 19t-42.5 24t-38 33.5t-23.5 45.5t-10 63q0 76 45.5 121.5t117.5 54.5v87h44v-85q45 -2 79 -18.5t53 -41t28.5 -47.5t12.5 -46l-45 -11q-15 60 -45.5 87t-82.5 29v-282q34 -14 48 -20.5
t42.5 -24.5t41 -35t24 -46t11.5 -65q0 -75 -42 -125.5t-125 -59.5v-92h-44zM416 174q0 57 -30 89t-85 55v-282q52 8 83.5 41.5t31.5 96.5zM145 519q0 -52 29 -81.5t83 -52.5v264q-52 -6 -82 -38.5t-30 -91.5z" />
    <glyph glyph-name="Euro.tf" 
d="M33 356v42h71q5 67 18.5 118t39.5 94t69.5 65.5t103.5 22.5q47 0 81.5 -14.5t54 -41.5t29.5 -51.5t17 -57.5l-44 -13q-14 66 -46.5 101t-97.5 35q-159 0 -175 -258h212v-42h-333zM33 301h333v-40h-206q15 -228 175 -228q44 0 76 17t62 59l35 -25q-58 -94 -177 -94
q-49 0 -87 16t-61.5 41t-40 62t-24.5 72.5t-12 79.5h-73v40z" />
    <glyph glyph-name="cent.tf" 
d="M270 579v112h44v-111q111 -8 141 -134l-43 -13q-27 94 -98 103v-405q74 12 98 100l43 -12q-12 -50 -46 -88t-95 -46v-140h-44v139q-151 11 -151 252q0 97 35.5 164.5t115.5 78.5zM170 336q0 -193 100 -206v404q-100 -20 -100 -198z" />
    <glyph glyph-name="sterling.tf" 
d="M72 320v41h59q-4 13 -14 39.5t-14.5 40.5t-8.5 35.5t-4 41.5q0 82 49.5 131t137.5 49q85 0 131 -43t65 -132l-44 -11q-21 81 -58.5 113t-96.5 32q-66 0 -100.5 -38t-34.5 -99q0 -13 1.5 -26.5t3.5 -23t7 -26t7.5 -23.5t11 -29t11.5 -31h181v-40h-168q22 -60 22 -121
q0 -101 -65 -156h318v-44h-397l-6 38q53 15 79 58.5t26 95.5q0 54 -27 128h-72z" />
    <glyph glyph-name="yen.tf" 
d="M106 685l174 -335l164 335h53l-177 -354h169v-42h-187v-93h187v-41h-187v-155h-47v155h-183v41h183v93h-183v42h163l-183 354h54z" />
    <glyph glyph-name="florin.tf" 
d="M486 686l-3 -42q-30 11 -66 11q-48 0 -68.5 -27.5t-32.5 -86.5l-22 -107h116l-9 -39h-115l-71 -389q-14 -76 -45 -116t-100 -40q-47 0 -86 15l6 42q42 -14 77 -14q42 0 64.5 26t33.5 85l74 391h-85l8 39h84l23 122q13 67 47 104.5t101 37.5q35 0 69 -12z" />
    <glyph glyph-name="dollar.tosf" 
d="M257 -100v90q-64 1 -113 23t-70 47l26 39q24 -26 66 -45t91 -20v301q-31 11 -49 19t-42.5 24t-38 33.5t-23.5 45.5t-10 63q0 76 45.5 121.5t117.5 54.5v87h44v-85q45 -2 79 -18.5t53 -41t28.5 -47.5t12.5 -46l-45 -11q-15 60 -45.5 87t-82.5 29v-282q34 -14 48 -20.5
t42.5 -24.5t41 -35t24 -46t11.5 -65q0 -75 -42 -125.5t-125 -59.5v-92h-44zM416 174q0 57 -30 89t-85 55v-282q52 8 83.5 41.5t31.5 96.5zM145 519q0 -52 29 -81.5t83 -52.5v264q-52 -6 -82 -38.5t-30 -91.5z" />
    <glyph glyph-name="Euro.tosf" 
d="M33 356v42h71q5 67 18.5 118t39.5 94t69.5 65.5t103.5 22.5q47 0 81.5 -14.5t54 -41.5t29.5 -51.5t17 -57.5l-44 -13q-14 66 -46.5 101t-97.5 35q-159 0 -175 -258h212v-42h-333zM33 301h333v-40h-206q15 -228 175 -228q44 0 76 17t62 59l35 -25q-58 -94 -177 -94
q-49 0 -87 16t-61.5 41t-40 62t-24.5 72.5t-12 79.5h-73v40z" />
    <glyph glyph-name="cent.tosf" 
d="M270 552v112h44v-111q111 -8 141 -134l-43 -13q-27 94 -98 103v-405q74 12 98 100l43 -12q-12 -50 -46 -88t-95 -46v-140h-44v139q-151 11 -151 252q0 97 35.5 164.5t115.5 78.5zM170 309q0 -193 100 -206v404q-100 -20 -100 -198z" />
    <glyph glyph-name="sterling.tosf" 
d="M72 320v41h59q-4 13 -14 39.5t-14.5 40.5t-8.5 35.5t-4 41.5q0 82 49.5 131t137.5 49q85 0 131 -43t65 -132l-44 -11q-21 81 -58.5 113t-96.5 32q-66 0 -100.5 -38t-34.5 -99q0 -13 1.5 -26.5t3.5 -23t7 -26t7.5 -23.5t11 -29t11.5 -31h181v-40h-168q22 -60 22 -121
q0 -101 -65 -156h318v-44h-397l-6 38q53 15 79 58.5t26 95.5q0 54 -27 128h-72z" />
    <glyph glyph-name="yen.tosf" 
d="M106 685l174 -335l164 335h53l-177 -354h169v-42h-187v-93h187v-41h-187v-155h-47v155h-183v41h183v93h-183v42h163l-183 354h54z" />
    <glyph glyph-name="florin.tosf" 
d="M500 686l-3 -42q-30 11 -66 11q-48 0 -68.5 -27.5t-32.5 -86.5l-22 -107h116l-9 -39h-115l-71 -389q-14 -76 -45 -116t-100 -40q-47 0 -86 15l6 42q42 -14 77 -14q42 0 64.5 26t33.5 85l74 391h-85l8 39h84l23 122q13 67 47 104.5t101 37.5q35 0 69 -12z" />
    <glyph glyph-name="zero.osf" horiz-adv-x="592" 
d="M299 597q113 0 178.5 -69.5t65.5 -214.5q0 -157 -68 -240t-182 -83q-117 0 -180.5 81.5t-63.5 226.5q0 147 72 223t178 76zM295 34q94 0 146.5 69t52.5 204q0 120 -51.5 182.5t-145.5 62.5q-93 0 -145 -68.5t-52 -189.5q0 -122 50 -191t145 -69z" />
    <glyph glyph-name="one.osf" horiz-adv-x="339" 
d="M33 0v40h124v505h-113v40h160v-545h125v-40h-296z" />
    <glyph glyph-name="two.osf" horiz-adv-x="507" 
d="M94 438l-39 19q25 59 79.5 98.5t133.5 39.5q81 0 129 -46t48 -124q0 -50 -21 -94t-79 -103q-42 -43 -109 -98.5t-110 -83.5h333v-46h-407v42q156 114 249 205q54 53 74.5 93t20.5 88q0 59 -35.5 91.5t-100.5 32.5q-104 0 -166 -114z" />
    <glyph glyph-name="three.osf" horiz-adv-x="488" 
d="M76 456l-40 17q23 55 76 88.5t126 33.5q88 0 135.5 -42.5t47.5 -119.5q0 -58 -31 -100t-83 -61q126 -32 126 -175q0 -95 -59.5 -152.5t-160.5 -57.5q-50 0 -101.5 17.5t-80.5 44.5l23 40q72 -58 163 -58q73 0 119.5 46t46.5 121q0 45 -15.5 76.5t-42 47t-54 22t-60.5 6.5
q-12 0 -34 -2v46q27 -1 51 1t51.5 10.5t47 22.5t32.5 40t13 60q0 123 -139 123q-108 0 -157 -95z" />
    <glyph glyph-name="four.osf" horiz-adv-x="516" 
d="M392 -100h-45v177h-308v48l284 460h70v-464h95v-44h-96v-177zM89 121h257v416z" />
    <glyph glyph-name="five.osf" horiz-adv-x="516" 
d="M283 334q-79 0 -162 -81l-47 16v316h351v-45h-303v-231q75 71 168 71q90 0 135.5 -65.5t45.5 -166.5q0 -118 -58 -188t-165 -70q-53 0 -100.5 18t-76.5 43l26 43q70 -60 155 -60q81 0 124.5 61t43.5 153q0 84 -35 135t-102 51z" />
    <glyph glyph-name="six.osf" horiz-adv-x="528" 
d="M425 561q-49 91 -131 91q-75 0 -123.5 -78t-57.5 -198q28 28 75 51.5t95 23.5q100 0 147.5 -61.5t47.5 -154.5q0 -109 -54.5 -177t-146.5 -68q-217 0 -217 314q0 197 65.5 296t173.5 99q55 0 98.5 -29t69.5 -82zM113 317v-30q0 -47 7 -87.5t24 -79.5t51 -62t81 -23
q70 0 110.5 55.5t40.5 139.5q0 78 -34.5 126t-109.5 48q-50 0 -97.5 -27.5t-72.5 -59.5z" />
    <glyph glyph-name="seven.osf" horiz-adv-x="435" 
d="M3 540v45h422v-35l-223 -451q-31 -62 -31 -120v-79h-51v76q0 73 26 121l222 443h-365z" />
    <glyph glyph-name="eight.osf" horiz-adv-x="515" 
d="M133 369q-66 55 -66 147q0 83 54 132.5t137 49.5q90 0 138 -45.5t48 -133.5q0 -91 -66 -163q45 -28 67 -64t22 -91q0 -99 -54.5 -155t-157.5 -56q-104 0 -157 54.5t-53 150.5q0 104 88 174zM266 335l-94 8q-37 -22 -56.5 -62t-19.5 -86q0 -76 42 -119t120 -43
q75 0 117 44t42 119q0 72 -36 102.5t-115 36.5zM255 654q-59 0 -99 -36t-40 -99q0 -129 126 -139l91 -9q27 24 45 64.5t18 85.5q0 67 -38.5 100t-102.5 33z" />
    <glyph glyph-name="nine.osf" horiz-adv-x="514" 
d="M100 26q49 -90 138 -90q155 0 174 275q-28 -28 -75 -51.5t-95 -23.5q-100 0 -147.5 61.5t-47.5 154.5q0 110 55.5 177.5t152.5 67.5q210 0 210 -314q0 -394 -230 -394q-60 0 -109 30t-70 83zM412 270v30q0 47 -7 87.5t-23.5 79.5t-49.5 62t-79 23q-73 0 -114 -55.5
t-41 -139.5q0 -78 34.5 -126t109.5 -48q50 0 97.5 27.5t72.5 59.5z" />
    <glyph glyph-name="dollar.osf" horiz-adv-x="493" 
d="M219 -100v90q-64 1 -113 23t-70 47l26 39q24 -26 66 -45t91 -20v301q-31 11 -49 19t-42.5 24t-38 33.5t-23.5 45.5t-10 63q0 76 45.5 121.5t117.5 54.5v87h44v-85q45 -2 79 -18.5t53 -41t28.5 -47.5t12.5 -46l-45 -11q-15 60 -45.5 87t-82.5 29v-282q34 -14 48 -20.5
t42.5 -24.5t41 -35t24 -46t11.5 -65q0 -75 -42 -125.5t-125 -59.5v-92h-44zM378 174q0 57 -30 89t-85 55v-282q52 8 83.5 41.5t31.5 96.5zM107 519q0 -52 29 -81.5t83 -52.5v264q-52 -6 -82 -38.5t-30 -91.5z" />
    <glyph glyph-name="Euro.osf" horiz-adv-x="513" 
d="M20 356v42h71q5 67 18.5 118t39.5 94t69.5 65.5t103.5 22.5q47 0 81.5 -14.5t54 -41.5t29.5 -51.5t17 -57.5l-44 -13q-14 66 -46.5 101t-97.5 35q-159 0 -175 -258h212v-42h-333zM20 301h333v-40h-206q15 -228 175 -228q44 0 76 17t62 59l35 -25q-58 -94 -177 -94
q-49 0 -87 16t-61.5 41t-40 62t-24.5 72.5t-12 79.5h-73v40z" />
    <glyph glyph-name="cent.osf" horiz-adv-x="489" 
d="M239 539v112h44v-111q111 -8 141 -134l-43 -13q-27 94 -98 103v-405q74 12 98 100l43 -12q-12 -50 -46 -88t-95 -46v-140h-44v139q-151 11 -151 252q0 97 35.5 164.5t115.5 78.5zM139 296q0 -193 100 -206v404q-100 -20 -100 -198z" />
    <glyph glyph-name="sterling.osf" horiz-adv-x="516" 
d="M61 320v41h59q-4 13 -14 39.5t-14.5 40.5t-8.5 35.5t-4 41.5q0 82 49.5 131t137.5 49q85 0 131 -43t65 -132l-44 -11q-21 81 -58.5 113t-96.5 32q-66 0 -100.5 -38t-34.5 -99q0 -13 1.5 -26.5t3.5 -23t7 -26t7.5 -23.5t11 -29t11.5 -31h181v-40h-168q22 -60 22 -121
q0 -101 -65 -156h318v-44h-397l-6 38q53 15 79 58.5t26 95.5q0 54 -27 128h-72z" />
    <glyph glyph-name="yen.osf" horiz-adv-x="516" 
d="M88 685l174 -335l164 335h53l-177 -354h169v-42h-187v-93h187v-41h-187v-155h-47v155h-183v41h183v93h-183v42h163l-183 354h54z" />
    <glyph glyph-name="florin.osf" horiz-adv-x="438" 
d="M439 686l-3 -42q-30 11 -66 11q-48 0 -68.5 -27.5t-32.5 -86.5l-22 -107h116l-9 -39h-115l-71 -389q-14 -76 -45 -116t-100 -40q-47 0 -86 15l6 42q42 -14 77 -14q42 0 64.5 26t33.5 85l74 391h-85l8 39h84l23 122q13 67 47 104.5t101 37.5q35 0 69 -12z" />
    <glyph glyph-name="agrave.smcp" horiz-adv-x="506" 
d="M75 0h-47l184 571h75l192 -571h-50l-57 173h-240zM249 543l-105 -324h213zM338 638l-19 -27l-199 121l32 46z" />
    <glyph glyph-name="aacute.smcp" horiz-adv-x="506" 
d="M75 0h-47l184 571h75l192 -571h-50l-57 173h-240zM249 543l-105 -324h213zM178 611l-19 27l186 140l32 -46z" />
    <glyph glyph-name="acircumflex.smcp" horiz-adv-x="506" 
d="M75 0h-47l184 571h75l192 -571h-50l-57 173h-240zM249 543l-105 -324h213zM224 764h53l96 -133l-34 -21l-89 118l-89 -116l-36 19z" />
    <glyph glyph-name="atilde.smcp" horiz-adv-x="506" 
d="M75 0h-47l184 571h75l192 -571h-50l-57 173h-240zM249 543l-105 -324h213zM135 636l-17 39q15 15 41 27t51 12q17 0 49 -13.5t53 -13.5q30 0 61 23l7 -45q-30 -22 -71 -22q-23 0 -58 11t-47 11q-31 0 -69 -29z" />
    <glyph glyph-name="adieresis.smcp" horiz-adv-x="506" 
d="M75 0h-47l184 571h75l192 -571h-50l-57 173h-240zM249 543l-105 -324h213zM142 678q0 16 9 26t24 10q33 0 33 -36q0 -16 -9.5 -26.5t-23.5 -10.5q-15 0 -24 10.5t-9 26.5zM291 678q0 16 9 26t23 10q33 0 33 -36q0 -37 -33 -37q-15 0 -23.5 10.5t-8.5 26.5z" />
    <glyph glyph-name="aring.smcp" horiz-adv-x="506" 
d="M75 0h-47l184 570q-41 19 -41 72q0 41 22.5 65t61.5 24q36 0 57.5 -21.5t21.5 -59.5q0 -60 -47 -80l192 -570h-50l-57 173h-240zM249 543l-105 -324h213zM209 644q0 -50 43 -50q45 0 45 52q0 54 -42 54q-46 0 -46 -56z" />
    <glyph glyph-name="ccedilla.smcp" horiz-adv-x="468" 
d="M441 445l-48 -11q-14 52 -40 79t-83 27q-42 0 -72.5 -17.5t-46 -42t-24.5 -65t-11 -71.5t-2 -76q0 -114 39 -174.5t129 -60.5q80 0 145 42l12 -45q-21 -16 -64.5 -29t-96.5 -13q-66 0 -110.5 23.5t-67 67t-31 91.5t-8.5 112t8.5 112.5t30 94t65.5 70t109 24.5
q80 0 117 -38.5t50 -99.5zM198 -97v39q33 9 63 9q41 0 65 -21t24 -59q0 -56 -36.5 -79.5t-87.5 -23.5q-22 0 -42 4l-6 41q13 -4 38 -4q86 0 86 57q0 45 -51 45q-23 0 -53 -8z" />
    <glyph glyph-name="egrave.smcp" horiz-adv-x="452" 
d="M100 0v571h311v-42h-263v-211h229v-43h-229v-233h274v-42h-322zM349 638l-19 -27l-199 121l32 46z" />
    <glyph glyph-name="eacute.smcp" horiz-adv-x="452" 
d="M100 0v571h311v-42h-263v-211h229v-43h-229v-233h274v-42h-322zM188 611l-19 27l186 140l32 -46z" />
    <glyph glyph-name="ecircumflex.smcp" horiz-adv-x="452" 
d="M100 0v571h311v-42h-263v-211h229v-43h-229v-233h274v-42h-322zM231 764h53l96 -133l-34 -21l-89 118l-89 -116l-36 19z" />
    <glyph glyph-name="edieresis.smcp" horiz-adv-x="452" 
d="M100 0v571h311v-42h-263v-211h229v-43h-229v-233h274v-42h-322zM151 678q0 16 9 26t24 10q33 0 33 -36q0 -16 -9.5 -26.5t-23.5 -10.5q-15 0 -24 10.5t-9 26.5zM300 678q0 16 9 26t23 10q33 0 33 -36q0 -37 -33 -37q-15 0 -23.5 10.5t-8.5 26.5z" />
    <glyph glyph-name="igrave.smcp" horiz-adv-x="249" 
d="M100 571h48v-571h-48v571zM213 638l-19 -27l-199 121l32 46z" />
    <glyph glyph-name="iacute.smcp" horiz-adv-x="249" 
d="M100 571h48v-571h-48v571zM60 611l-19 27l186 140l32 -46z" />
    <glyph glyph-name="icircumflex.smcp" horiz-adv-x="249" 
d="M100 571h48v-571h-48v571zM100 764h53l96 -133l-34 -21l-89 118l-89 -116l-36 19z" />
    <glyph glyph-name="idieresis.smcp" horiz-adv-x="249" 
d="M100 571h48v-571h-48v571zM19 678q0 16 9 26t24 10q33 0 33 -36q0 -16 -9.5 -26.5t-23.5 -10.5q-15 0 -24 10.5t-9 26.5zM168 678q0 16 9 26t23 10q33 0 33 -36q0 -37 -33 -37q-15 0 -23.5 10.5t-8.5 26.5z" />
    <glyph glyph-name="ntilde.smcp" horiz-adv-x="599" 
d="M452 571h48v-571h-48l-304 483v-483h-48v571h52l300 -478v478zM184 636l-17 39q15 15 41 27t51 12q17 0 49 -13.5t53 -13.5q30 0 61 23l7 -45q-30 -22 -71 -22q-24 0 -59 11t-46 11q-31 0 -69 -29z" />
    <glyph glyph-name="ograve.smcp" horiz-adv-x="552" 
d="M275 -12q-214 0 -214 306q0 143 58.5 216t163.5 73q107 0 157.5 -68.5t50.5 -215.5q0 -311 -216 -311zM440 298q0 132 -41.5 186t-118.5 54q-76 0 -121.5 -57.5t-45.5 -186.5q0 -262 161 -262q79 0 122.5 58t43.5 208zM371 638l-19 -27l-199 121l32 46z" />
    <glyph glyph-name="oacute.smcp" horiz-adv-x="552" 
d="M275 -12q-214 0 -214 306q0 143 58.5 216t163.5 73q107 0 157.5 -68.5t50.5 -215.5q0 -311 -216 -311zM440 298q0 132 -41.5 186t-118.5 54q-76 0 -121.5 -57.5t-45.5 -186.5q0 -262 161 -262q79 0 122.5 58t43.5 208zM207 611l-19 27l186 140l32 -46z" />
    <glyph glyph-name="ocircumflex.smcp" horiz-adv-x="552" 
d="M275 -12q-214 0 -214 306q0 143 58.5 216t163.5 73q107 0 157.5 -68.5t50.5 -215.5q0 -311 -216 -311zM440 298q0 132 -41.5 186t-118.5 54q-76 0 -121.5 -57.5t-45.5 -186.5q0 -262 161 -262q79 0 122.5 58t43.5 208zM255 764h53l96 -133l-34 -21l-89 118l-89 -116
l-36 19z" />
    <glyph glyph-name="otilde.smcp" horiz-adv-x="552" 
d="M275 -12q-214 0 -214 306q0 143 58.5 216t163.5 73q107 0 157.5 -68.5t50.5 -215.5q0 -311 -216 -311zM440 298q0 132 -41.5 186t-118.5 54q-76 0 -121.5 -57.5t-45.5 -186.5q0 -262 161 -262q79 0 122.5 58t43.5 208zM171 636l-17 39q15 15 41 27t51 12q17 0 49 -13.5
t53 -13.5q30 0 61 23l7 -45q-30 -22 -71 -22q-23 0 -58 11t-47 11q-31 0 -69 -29z" />
    <glyph glyph-name="odieresis.smcp" horiz-adv-x="552" 
d="M275 -12q-214 0 -214 306q0 143 58.5 216t163.5 73q107 0 157.5 -68.5t50.5 -215.5q0 -311 -216 -311zM440 298q0 132 -41.5 186t-118.5 54q-76 0 -121.5 -57.5t-45.5 -186.5q0 -262 161 -262q79 0 122.5 58t43.5 208zM171 678q0 16 9 26t24 10q33 0 33 -36
q0 -16 -9.5 -26.5t-23.5 -10.5q-15 0 -24 10.5t-9 26.5zM320 678q0 16 9 26t23 10q33 0 33 -36q0 -37 -33 -37q-15 0 -23.5 10.5t-8.5 26.5z" />
    <glyph glyph-name="ugrave.smcp" horiz-adv-x="580" 
d="M148 571v-376q0 -73 12 -101q28 -63 130 -63q106 0 132 63q13 33 13 114v363h48v-378q0 -71 -9 -101q-34 -104 -185 -104q-144 0 -178 94q-11 32 -11 112v377h48zM377 638l-19 -27l-199 121l32 46z" />
    <glyph glyph-name="uacute.smcp" horiz-adv-x="580" 
d="M148 571v-376q0 -73 12 -101q28 -63 130 -63q106 0 132 63q13 33 13 114v363h48v-378q0 -71 -9 -101q-34 -104 -185 -104q-144 0 -178 94q-11 32 -11 112v377h48zM220 611l-19 27l186 140l32 -46z" />
    <glyph glyph-name="ucircumflex.smcp" horiz-adv-x="580" 
d="M148 571v-376q0 -73 12 -101q28 -63 130 -63q106 0 132 63q13 33 13 114v363h48v-378q0 -71 -9 -101q-34 -104 -185 -104q-144 0 -178 94q-11 32 -11 112v377h48zM267 764h53l96 -133l-34 -21l-89 118l-89 -116l-36 19z" />
    <glyph glyph-name="udieresis.smcp" horiz-adv-x="580" 
d="M148 571v-376q0 -73 12 -101q28 -63 130 -63q106 0 132 63q13 33 13 114v363h48v-378q0 -71 -9 -101q-34 -104 -185 -104q-144 0 -178 94q-11 32 -11 112v377h48zM184 678q0 16 9 26t24 10q33 0 33 -36q0 -16 -9.5 -26.5t-23.5 -10.5q-15 0 -24 10.5t-9 26.5zM333 678
q0 16 9 26t23 10q33 0 33 -36q0 -37 -33 -37q-15 0 -23.5 10.5t-8.5 26.5z" />
    <glyph glyph-name="yacute.smcp" horiz-adv-x="454" 
d="M230 285l157 286h54l-187 -335v-236h-49v236l-190 335h55zM175 611l-19 27l186 140l32 -46z" />
    <glyph glyph-name="ydieresis.smcp" horiz-adv-x="454" 
d="M230 285l157 286h54l-187 -335v-236h-49v236l-190 335h55zM123 678q0 16 9 26t24 10q33 0 33 -36q0 -16 -9.5 -26.5t-23.5 -10.5q-15 0 -24 10.5t-9 26.5zM272 678q0 16 9 26t23 10q33 0 33 -36q0 -37 -33 -37q-15 0 -23.5 10.5t-8.5 26.5z" />
    <glyph glyph-name="amacron.smcp" horiz-adv-x="506" 
d="M75 0h-47l184 571h75l192 -571h-50l-57 173h-240zM249 543l-105 -324h213zM113 655v45h273v-45h-273z" />
    <glyph glyph-name="abreve.smcp" horiz-adv-x="506" 
d="M75 0h-47l184 571h75l192 -571h-50l-57 173h-240zM249 543l-105 -324h213zM356 740l35 -20q-18 -42 -54.5 -75.5t-92.5 -33.5q-52 0 -86 33t-49 72l37 20q38 -84 101 -84q39 0 63 23t46 65z" />
    <glyph glyph-name="aogonek.smcp" horiz-adv-x="506" 
d="M428 2l-56 171h-240l-57 -173h-47l184 571h75l194 -571q-77 -62 -77 -115q0 -48 47 -48q27 0 52 13l9 -43q-30 -15 -71 -15q-42 0 -65.5 21t-23.5 59q0 72 76 130zM249 543l-105 -324h213z" />
    <glyph glyph-name="cacute.smcp" horiz-adv-x="468" 
d="M441 445l-48 -11q-14 52 -40 79t-83 27q-42 0 -72.5 -17.5t-46 -42t-24.5 -65t-11 -71.5t-2 -76q0 -114 39 -174.5t129 -60.5q80 0 145 42l12 -45q-21 -16 -64.5 -29t-96.5 -13q-66 0 -110.5 23.5t-67 67t-31 91.5t-8.5 112t8.5 112.5t30 94t65.5 70t109 24.5
q80 0 117 -38.5t50 -99.5zM198 611l-19 27l186 140l32 -46z" />
    <glyph glyph-name="ccircumflex.smcp" horiz-adv-x="468" 
d="M441 445l-48 -11q-14 52 -40 79t-83 27q-42 0 -72.5 -17.5t-46 -42t-24.5 -65t-11 -71.5t-2 -76q0 -114 39 -174.5t129 -60.5q80 0 145 42l12 -45q-21 -16 -64.5 -29t-96.5 -13q-66 0 -110.5 23.5t-67 67t-31 91.5t-8.5 112t8.5 112.5t30 94t65.5 70t109 24.5
q80 0 117 -38.5t50 -99.5zM243 764h53l96 -133l-34 -21l-89 118l-89 -116l-36 19z" />
    <glyph glyph-name="cdotaccent.smcp" horiz-adv-x="468" 
d="M441 445l-48 -11q-14 52 -40 79t-83 27q-42 0 -72.5 -17.5t-46 -42t-24.5 -65t-11 -71.5t-2 -76q0 -114 39 -174.5t129 -60.5q80 0 145 42l12 -45q-21 -16 -64.5 -29t-96.5 -13q-66 0 -110.5 23.5t-67 67t-31 91.5t-8.5 112t8.5 112.5t30 94t65.5 70t109 24.5
q80 0 117 -38.5t50 -99.5zM272 636q-33 0 -33 40q0 35 33 35t33 -35q0 -40 -33 -40z" />
    <glyph glyph-name="ccaron.smcp" horiz-adv-x="468" 
d="M441 445l-48 -11q-14 52 -40 79t-83 27q-42 0 -72.5 -17.5t-46 -42t-24.5 -65t-11 -71.5t-2 -76q0 -114 39 -174.5t129 -60.5q80 0 145 42l12 -45q-21 -16 -64.5 -29t-96.5 -13q-66 0 -110.5 23.5t-67 67t-31 91.5t-8.5 112t8.5 112.5t30 94t65.5 70t109 24.5
q80 0 117 -38.5t50 -99.5zM297 611h-53l-96 133l36 22l87 -119l88 118l37 -21z" />
    <glyph glyph-name="dcaron.smcp" horiz-adv-x="534" 
d="M100 571h164q105 0 162.5 -59t57.5 -199q0 -92 -18.5 -155.5t-52.5 -96.5t-73 -47t-89 -14h-151v571zM148 529v-487h111q87 0 130 62.5t43 201.5q0 115 -41 169t-125 54h-118zM277 611h-53l-96 133l36 22l87 -119l88 118l37 -21z" />
    <glyph glyph-name="dcroat.smcp" horiz-adv-x="534" 
d="M20 273v44h80v254h169q102 0 158.5 -59t56.5 -199q0 -92 -18.5 -155.5t-52.5 -96.5t-73 -47t-89 -14h-151v273h-80zM149 528v-211h160v-44h-160v-228h110q87 0 129.5 60t42.5 193q0 121 -40 175.5t-121 54.5h-121z" />
    <glyph glyph-name="emacron.smcp" horiz-adv-x="452" 
d="M100 0v571h311v-42h-263v-211h229v-43h-229v-233h274v-42h-322zM121 655v45h273v-45h-273z" />
    <glyph glyph-name="ebreve.smcp" horiz-adv-x="452" 
d="M100 0v571h311v-42h-263v-211h229v-43h-229v-233h274v-42h-322zM365 740l35 -20q-18 -42 -54.5 -75.5t-92.5 -33.5q-52 0 -86 33t-49 72l37 20q38 -84 101 -84q39 0 63 23t46 65z" />
    <glyph glyph-name="edotaccent.smcp" horiz-adv-x="452" 
d="M100 0v571h311v-42h-263v-211h229v-43h-229v-233h274v-42h-322zM259 636q-33 0 -33 40q0 35 33 35t33 -35q0 -40 -33 -40z" />
    <glyph glyph-name="eogonek.smcp" horiz-adv-x="452" 
d="M100 0v571h311v-42h-263v-211h229v-43h-229v-233h274v-42q-97 -49 -97 -116q0 -46 47 -46q27 0 52 13l9 -43q-30 -15 -71 -15q-42 0 -65.5 21t-23.5 59q0 73 75 127h-248z" />
    <glyph glyph-name="ecaron.smcp" horiz-adv-x="452" 
d="M100 0v571h311v-42h-263v-211h229v-43h-229v-233h274v-42h-322zM284 611h-53l-96 133l36 22l87 -119l88 118l37 -21z" />
    <glyph glyph-name="gcircumflex.smcp" horiz-adv-x="509" 
d="M268 230v42h191v-248q-83 -35 -165 -35q-125 0 -179 72.5t-54 234.5q0 287 216 287q145 0 173 -138l-45 -10q-18 54 -44.5 79t-84.5 25q-165 0 -165 -240q0 -131 39 -199t146 -68q64 0 114 24v174h-142zM246 764h53l96 -133l-34 -21l-89 118l-89 -116l-36 19z" />
    <glyph glyph-name="gbreve.smcp" horiz-adv-x="509" 
d="M268 230v42h191v-248q-83 -35 -165 -35q-125 0 -179 72.5t-54 234.5q0 287 216 287q145 0 173 -138l-45 -10q-18 54 -44.5 79t-84.5 25q-165 0 -165 -240q0 -131 39 -199t146 -68q64 0 114 24v174h-142zM384 740l35 -20q-18 -42 -54.5 -75.5t-92.5 -33.5q-52 0 -86 33
t-49 72l37 20q38 -84 101 -84q39 0 63 23t46 65z" />
    <glyph glyph-name="gdotaccent.smcp" horiz-adv-x="509" 
d="M268 230v42h191v-248q-83 -35 -165 -35q-125 0 -179 72.5t-54 234.5q0 287 216 287q145 0 173 -138l-45 -10q-18 54 -44.5 79t-84.5 25q-165 0 -165 -240q0 -131 39 -199t146 -68q64 0 114 24v174h-142zM276 636q-33 0 -33 40q0 35 33 35t33 -35q0 -40 -33 -40z" />
    <glyph glyph-name="gcommaaccent.smcp" horiz-adv-x="509" 
d="M268 230v42h191v-248q-83 -35 -165 -35q-125 0 -179 72.5t-54 234.5q0 287 216 287q145 0 173 -138l-45 -10q-18 54 -44.5 79t-84.5 25q-165 0 -165 -240q0 -131 39 -199t146 -68q64 0 114 24v174h-142zM205 -220l34 -9l62 173l-54 15z" />
    <glyph glyph-name="hcircumflex.smcp" horiz-adv-x="603" 
d="M456 571h47v-571h-47v276h-308v-276h-48v571h48v-250h308v250zM276 764h53l96 -133l-34 -21l-89 118l-89 -116l-36 19z" />
    <glyph glyph-name="hbar.smcp" horiz-adv-x="603" 
d="M29 433v44h70v94h50v-94h306v94h49v-94h70v-44h-70v-433h-49v276h-306v-276h-50v433h-70zM149 321h306v112h-306v-112z" />
    <glyph glyph-name="itilde.smcp" horiz-adv-x="249" 
d="M100 571h48v-571h-48v571zM10 636l-17 39q15 15 41 27t51 12q17 0 49 -13.5t53 -13.5q30 0 61 23l7 -45q-30 -22 -71 -22q-24 0 -59 11t-46 11q-31 0 -69 -29z" />
    <glyph glyph-name="imacron.smcp" horiz-adv-x="249" 
d="M100 571h48v-571h-48v571zM-12 655v45h273v-45h-273z" />
    <glyph glyph-name="ibreve.smcp" horiz-adv-x="249" 
d="M100 571h48v-571h-48v571zM232 740l35 -20q-18 -42 -54.5 -75.5t-92.5 -33.5q-52 0 -86 33t-49 72l37 20q38 -84 101 -84q39 0 63 23t46 65z" />
    <glyph glyph-name="iogonek.smcp" horiz-adv-x="249" 
d="M100 2v569h48v-571q-21 -20 -33 -32.5t-25.5 -36.5t-13.5 -46q0 -48 47 -48q27 0 52 13l9 -43q-30 -15 -71 -15q-42 0 -65.5 21t-23.5 59q0 72 76 130z" />
    <glyph glyph-name="idotaccent.smcp" horiz-adv-x="249" 
d="M100 571h48v-571h-48v571zM125 636q-33 0 -33 40q0 35 33 35t33 -35q0 -40 -33 -40z" />
    <glyph glyph-name="dotlessi.smcp" horiz-adv-x="249" 
d="M100 571h49v-571h-49v571z" />
    <glyph glyph-name="jcircumflex.smcp" horiz-adv-x="345" 
d="M8 19l16 43q42 -27 100 -27q52 0 67 28.5t15 93.5v414h48v-431q0 -79 -29.5 -114t-101.5 -35q-70 0 -115 28zM206 764h53l96 -133l-34 -21l-89 118l-89 -116l-36 19z" />
    <glyph glyph-name="kcommaaccent.smcp" horiz-adv-x="472" 
d="M453 571l-151 -270l162 -301h-54l-151 275h-111v-275h-48v571h48v-252h114l141 252h50zM197 -220l34 -9l62 173l-54 15z" />
    <glyph glyph-name="kgreenlandic.smcp" horiz-adv-x="472" 
d="M453 571l-151 -270l162 -301h-54l-151 275h-111v-275h-48v571h48v-252h114l141 252h50z" />
    <glyph glyph-name="lacute.smcp" horiz-adv-x="440" 
d="M100 0v571h48v-529h266v-42h-314zM67 611l-19 27l186 140l32 -46z" />
    <glyph glyph-name="lcommaaccent.smcp" horiz-adv-x="440" 
d="M100 0v571h48v-529h266v-42h-314zM187 -220l34 -9l62 173l-54 15z" />
    <glyph glyph-name="lcaron.smcp" horiz-adv-x="440" 
d="M100 0v571h48v-529h266v-42h-314zM278 575h54l-20 -202h-34v202z" />
    <glyph glyph-name="ldot.smcp" horiz-adv-x="440" 
d="M100 0v571h48v-529h266v-42h-314zM334 272q33 0 33 40q0 35 -33 35t-33 -35q0 -40 33 -40z" />
    <glyph glyph-name="nacute.smcp" horiz-adv-x="599" 
d="M452 571h48v-571h-48l-304 483v-483h-48v571h52l300 -478v478zM248 611l-19 27l186 140l32 -46z" />
    <glyph glyph-name="ncommaaccent.smcp" horiz-adv-x="599" 
d="M452 571h48v-571h-48l-304 483v-483h-48v571h52l300 -478v478zM238 -220l34 -9l62 173l-54 15z" />
    <glyph glyph-name="ncaron.smcp" horiz-adv-x="599" 
d="M452 571h48v-571h-48l-304 483v-483h-48v571h52l300 -478v478zM329 611h-53l-96 133l36 22l87 -119l88 118l37 -21z" />
    <glyph glyph-name="napostrophe.smcp" horiz-adv-x="599" 
d="M452 571h48v-571h-48l-304 483v-483h-48v571h52l300 -478v478zM40 614l21 171q3 25 34 25q27 0 27 -29q0 -6 -2 -16l-47 -157z" />
    <glyph glyph-name="omacron.smcp" horiz-adv-x="552" 
d="M275 -12q-214 0 -214 306q0 143 58.5 216t163.5 73q107 0 157.5 -68.5t50.5 -215.5q0 -311 -216 -311zM440 298q0 132 -41.5 186t-118.5 54q-76 0 -121.5 -57.5t-45.5 -186.5q0 -262 161 -262q79 0 122.5 58t43.5 208zM144 655v45h273v-45h-273z" />
    <glyph glyph-name="obreve.smcp" horiz-adv-x="552" 
d="M275 -12q-214 0 -214 306q0 143 58.5 216t163.5 73q107 0 157.5 -68.5t50.5 -215.5q0 -311 -216 -311zM440 298q0 132 -41.5 186t-118.5 54q-76 0 -121.5 -57.5t-45.5 -186.5q0 -262 161 -262q79 0 122.5 58t43.5 208zM392 740l35 -20q-18 -42 -54.5 -75.5t-92.5 -33.5
q-52 0 -86 33t-49 72l37 20q38 -84 101 -84q39 0 63 23t46 65z" />
    <glyph glyph-name="ohungarumlaut.smcp" horiz-adv-x="552" 
d="M275 -12q-214 0 -214 306q0 143 58.5 216t163.5 73q107 0 157.5 -68.5t50.5 -215.5q0 -311 -216 -311zM440 298q0 132 -41.5 186t-118.5 54q-76 0 -121.5 -57.5t-45.5 -186.5q0 -262 161 -262q79 0 122.5 58t43.5 208zM323 610l-17 29l191 138l31 -48zM157 610l-19 28
l186 146l32 -47z" />
    <glyph glyph-name="racute.smcp" horiz-adv-x="523" 
d="M148 254v-254h-48v571h179q186 0 186 -145q0 -108 -103 -156l104 -270h-54l-98 254h-166zM148 297h129q60 0 98.5 31.5t38.5 90.5t-34 84.5t-104 25.5h-128v-232zM185 611l-19 27l186 140l32 -46z" />
    <glyph glyph-name="rcommaaccent.smcp" horiz-adv-x="523" 
d="M148 254v-254h-48v571h179q186 0 186 -145q0 -108 -103 -156l104 -270h-54l-98 254h-166zM148 297h129q60 0 98.5 31.5t38.5 90.5t-34 84.5t-104 25.5h-128v-232zM201 -220l34 -9l62 173l-54 15z" />
    <glyph glyph-name="rcaron.smcp" horiz-adv-x="523" 
d="M148 254v-254h-48v571h179q186 0 186 -145q0 -108 -103 -156l104 -270h-54l-98 254h-166zM148 297h129q60 0 98.5 31.5t38.5 90.5t-34 84.5t-104 25.5h-128v-232zM286 611h-53l-96 133l36 22l87 -119l88 118l37 -21z" />
    <glyph glyph-name="sacute.smcp" horiz-adv-x="451" 
d="M41 43l24 42q64 -53 147 -53q57 0 92 28t35 84q0 61 -33 86t-111 47q-67 19 -103.5 51.5t-36.5 101.5q0 71 49 112t123 41q77 0 118.5 -38t49.5 -88l-45 -13q-26 93 -124 93q-52 0 -85 -25.5t-33 -78.5q0 -28 7 -46.5t27 -32t37 -20t54 -18.5q39 -12 59 -20.5t48 -27
t40.5 -47.5t12.5 -71q0 -75 -46.5 -118.5t-136.5 -43.5q-57 0 -102 17.5t-67 37.5zM160 611l-19 27l186 140l32 -46z" />
    <glyph glyph-name="scircumflex.smcp" horiz-adv-x="451" 
d="M41 43l24 42q64 -53 147 -53q57 0 92 28t35 84q0 61 -33 86t-111 47q-67 19 -103.5 51.5t-36.5 101.5q0 71 49 112t123 41q77 0 118.5 -38t49.5 -88l-45 -13q-26 93 -124 93q-52 0 -85 -25.5t-33 -78.5q0 -28 7 -46.5t27 -32t37 -20t54 -18.5q39 -12 59 -20.5t48 -27
t40.5 -47.5t12.5 -71q0 -75 -46.5 -118.5t-136.5 -43.5q-57 0 -102 17.5t-67 37.5zM204 764h53l96 -133l-34 -21l-89 118l-89 -116l-36 19z" />
    <glyph glyph-name="scedilla.smcp" horiz-adv-x="451" 
d="M41 43l24 42q64 -53 147 -53q57 0 92 28t35 84q0 61 -33 86t-111 47q-67 19 -103.5 51.5t-36.5 101.5q0 71 49 112t123 41q77 0 118.5 -38t49.5 -88l-45 -13q-26 93 -124 93q-52 0 -85 -25.5t-33 -78.5q0 -28 7 -46.5t27 -32t37 -20t54 -18.5q39 -12 59 -20.5t48 -27
t40.5 -47.5t12.5 -71q0 -75 -46.5 -118.5t-136.5 -43.5q-57 0 -102 17.5t-67 37.5zM147 -97v39q33 9 63 9q41 0 65 -21t24 -59q0 -56 -36.5 -79.5t-87.5 -23.5q-22 0 -42 4l-6 41q13 -4 38 -4q86 0 86 57q0 45 -51 45q-23 0 -53 -8z" />
    <glyph glyph-name="tcaron.smcp" horiz-adv-x="439" 
d="M10 529v42h420v-42h-188v-529h-48v529h-184zM247 611h-53l-96 133l36 22l87 -119l88 118l37 -21z" />
    <glyph glyph-name="tbar.smcp" horiz-adv-x="439" 
d="M10 529v42h420v-42h-188v-240h127v-44h-127v-245h-48v245h-125v44h125v240h-184z" />
    <glyph glyph-name="utilde.smcp" horiz-adv-x="580" 
d="M148 571v-376q0 -73 12 -101q28 -63 130 -63q106 0 132 63q13 33 13 114v363h48v-378q0 -71 -9 -101q-34 -104 -185 -104q-144 0 -178 94q-11 32 -11 112v377h48zM172 636l-17 39q15 15 41 27t51 12q17 0 49 -13.5t53 -13.5q30 0 61 23l7 -45q-30 -22 -71 -22
q-24 0 -58.5 11t-46.5 11q-31 0 -69 -29z" />
    <glyph glyph-name="umacron.smcp" horiz-adv-x="580" 
d="M148 571v-376q0 -73 12 -101q28 -63 130 -63q106 0 132 63q13 33 13 114v363h48v-378q0 -71 -9 -101q-34 -104 -185 -104q-144 0 -178 94q-11 32 -11 112v377h48zM154 655v45h273v-45h-273z" />
    <glyph glyph-name="ubreve.smcp" horiz-adv-x="580" 
d="M148 571v-376q0 -73 12 -101q28 -63 130 -63q106 0 132 63q13 33 13 114v363h48v-378q0 -71 -9 -101q-34 -104 -185 -104q-144 0 -178 94q-11 32 -11 112v377h48zM398 740l35 -20q-18 -42 -54.5 -75.5t-92.5 -33.5q-52 0 -86 33t-49 72l37 20q38 -84 101 -84q39 0 63 23
t46 65z" />
    <glyph glyph-name="uring.smcp" horiz-adv-x="580" 
d="M148 571v-376q0 -73 12 -101q28 -63 130 -63q106 0 132 63q13 33 13 114v363h48v-378q0 -71 -9 -101q-34 -104 -185 -104q-144 0 -178 94q-11 32 -11 112v377h48zM287 605q-36 0 -57 21t-21 58q0 41 22.5 65t61.5 24q36 0 57.5 -21.5t21.5 -59.5q0 -39 -22.5 -63
t-62.5 -24zM247 686q0 -50 43 -50q45 0 45 52q0 54 -42 54q-46 0 -46 -56z" />
    <glyph glyph-name="uhungarumlaut.smcp" horiz-adv-x="580" 
d="M148 571v-376q0 -73 12 -101q28 -63 130 -63q106 0 132 63q13 33 13 114v363h48v-378q0 -71 -9 -101q-34 -104 -185 -104q-144 0 -178 94q-11 32 -11 112v377h48zM324 610l-17 29l191 138l31 -48zM158 610l-19 28l186 146l32 -47z" />
    <glyph glyph-name="uogonek.smcp" horiz-adv-x="580" 
d="M148 571v-376q0 -73 12 -101q28 -63 130 -63q106 0 132 63q13 33 13 114v363h48v-378q0 -71 -9 -101q-11 -34 -36 -54.5t-76 -46.5q-32 -16 -54 -44.5t-22 -60.5q0 -48 47 -48q27 0 52 13l9 -43q-30 -15 -71 -15q-42 0 -65.5 21t-23.5 59q0 63 58 115q-147 0 -181 94
q-11 32 -11 112v377h48z" />
    <glyph glyph-name="wcircumflex.smcp" horiz-adv-x="705" 
d="M197 0h-55l-80 571h48l69 -494l158 439h38l154 -444l67 499h48l-78 -571h-58l-153 435zM328 764h53l96 -133l-34 -21l-89 118l-89 -116l-36 19z" />
    <glyph glyph-name="ycircumflex.smcp" horiz-adv-x="454" 
d="M230 285l157 286h54l-187 -335v-236h-49v236l-190 335h55zM203 764h53l96 -133l-34 -21l-89 118l-89 -116l-36 19z" />
    <glyph glyph-name="zacute.smcp" horiz-adv-x="436" 
d="M39 529v42h374v-45l-333 -484h322v-42h-379v41l336 488h-320zM163 611l-19 27l186 140l32 -46z" />
    <glyph glyph-name="zdotaccent.smcp" horiz-adv-x="436" 
d="M39 529v42h374v-45l-333 -484h322v-42h-379v41l336 488h-320zM222 636q-33 0 -33 40q0 35 33 35t33 -35q0 -40 -33 -40z" />
    <glyph glyph-name="scommaaccent.smcp" horiz-adv-x="451" 
d="M41 43l24 42q64 -53 147 -53q57 0 92 28t35 84q0 61 -33 86t-111 47q-67 19 -103.5 51.5t-36.5 101.5q0 71 49 112t123 41q77 0 118.5 -38t49.5 -88l-45 -13q-26 93 -124 93q-52 0 -85 -25.5t-33 -78.5q0 -28 7 -46.5t27 -32t37 -20t54 -18.5q39 -12 59 -20.5t48 -27
t40.5 -47.5t12.5 -71q0 -75 -46.5 -118.5t-136.5 -43.5q-57 0 -102 17.5t-67 37.5zM152 -220l34 -9l62 173l-54 15z" />
    <glyph glyph-name="uni021B.smcp" horiz-adv-x="439" 
d="M10 529v42h420v-42h-188v-529h-48v529h-184zM146 -220l34 -9l62 173l-54 15z" />
    <glyph glyph-name="wgrave.smcp" horiz-adv-x="705" 
d="M197 0h-55l-80 571h48l69 -494l158 439h38l154 -444l67 499h48l-78 -571h-58l-153 435zM452 638l-19 -27l-199 121l32 46z" />
    <glyph glyph-name="wacute.smcp" horiz-adv-x="705" 
d="M197 0h-55l-80 571h48l69 -494l158 439h38l154 -444l67 499h48l-78 -571h-58l-153 435zM289 611l-19 27l186 140l32 -46z" />
    <glyph glyph-name="wdieresis.smcp" horiz-adv-x="705" 
d="M197 0h-55l-80 571h48l69 -494l158 439h38l154 -444l67 499h48l-78 -571h-58l-153 435zM247 678q0 16 9 26t24 10q33 0 33 -36q0 -16 -9.5 -26.5t-23.5 -10.5q-15 0 -24 10.5t-9 26.5zM396 678q0 16 9 26t23 10q33 0 33 -36q0 -37 -33 -37q-15 0 -23.5 10.5t-8.5 26.5z
" />
    <glyph glyph-name="ygrave.smcp" horiz-adv-x="454" 
d="M230 285l157 286h54l-187 -335v-236h-49v236l-190 335h55zM314 638l-19 -27l-199 121l32 46z" />
    <glyph glyph-name="lslash.smcp" horiz-adv-x="440" 
d="M25 246l-12 40l87 27v258h49v-245l127 41l13 -40l-140 -44v-238h265v-45h-314v270z" />
    <glyph glyph-name="scaron.smcp" horiz-adv-x="451" 
d="M41 43l24 42q64 -53 147 -53q57 0 92 28t35 84q0 61 -33 86t-111 47q-67 19 -103.5 51.5t-36.5 101.5q0 71 49 112t123 41q77 0 118.5 -38t49.5 -88l-45 -13q-26 93 -124 93q-52 0 -85 -25.5t-33 -78.5q0 -28 7 -46.5t27 -32t37 -20t54 -18.5q39 -12 59 -20.5t48 -27
t40.5 -47.5t12.5 -71q0 -75 -46.5 -118.5t-136.5 -43.5q-57 0 -102 17.5t-67 37.5zM256 611h-53l-96 133l36 22l87 -119l88 118l37 -21z" />
    <glyph glyph-name="zcaron.smcp" horiz-adv-x="436" 
d="M39 529v42h374v-45l-333 -484h322v-42h-379v41l336 488h-320zM250 611h-53l-96 133l36 22l87 -119l88 118l37 -21z" />
    <glyph glyph-name="fi.smcp" horiz-adv-x="686" 
d="M100 571h324v-42h-276v-211h231v-44h-231v-274h-48v571zM538 571h48v-571h-48v571z" />
    <glyph glyph-name="fl.smcp" horiz-adv-x="878" 
d="M100 571h324v-42h-276v-211h231v-44h-231v-274h-48v571zM538 0v571h48v-529h266v-42h-314z" />
    <glyph glyph-name="ff.smcp" horiz-adv-x="871" 
d="M100 571h324v-42h-276v-211h231v-44h-231v-274h-48v571zM538 571h324v-42h-276v-211h231v-44h-231v-274h-48v571z" />
    <glyph glyph-name="ffi.smcp" horiz-adv-x="1121" 
d="M100 571h324v-42h-276v-211h231v-44h-231v-274h-48v571zM538 571h324v-42h-276v-211h231v-44h-231v-274h-48v571zM973 571h48v-571h-48v571z" />
    <glyph glyph-name="ffl.smcp" horiz-adv-x="1313" 
d="M100 571h324v-42h-276v-211h231v-44h-231v-274h-48v571zM538 571h324v-42h-276v-211h231v-44h-231v-274h-48v571zM973 0v571h48v-529h266v-42h-314z" />
    <glyph glyph-name="hyphen.smcp" horiz-adv-x="425" 
d="M64 267v46h301v-46h-301z" />
    <glyph glyph-name="endash.smcp" horiz-adv-x="505" 
d="M2 253v46h500v-46h-500z" />
    <glyph glyph-name="emdash.smcp" horiz-adv-x="1005" 
d="M2 253v46h1000v-46h-1000z" />
    <glyph glyph-name="zero.smcp" horiz-adv-x="437" 
d="M222 583q89 0 135 -69t46 -225q0 -161 -46.5 -230.5t-139.5 -69.5q-98 0 -140 66.5t-42 231.5q0 153 50 224.5t137 71.5zM218 33q69 0 101 58.5t32 195.5q0 134 -31 192.5t-100 58.5q-72 0 -102.5 -60t-30.5 -201q0 -128 30.5 -186t100.5 -58z" />
    <glyph glyph-name="one.smcp" horiz-adv-x="340" 
d="M50 0v38h104v493h-94v40h143v-533h104v-38h-257z" />
    <glyph glyph-name="two.smcp" horiz-adv-x="412" 
d="M76 448l-34 17q16 47 63.5 82.5t109.5 35.5q71 0 116 -40t45 -110q0 -78 -59 -155q-80 -106 -216 -233h283v-45h-346v37q134 130 222 241q37 47 50.5 81t13.5 70q0 49 -30 79t-79 30q-87 0 -139 -90z" />
    <glyph glyph-name="three.smcp" horiz-adv-x="413" 
d="M63 459l-35 20q20 47 65 75.5t110 28.5q69 0 111 -37.5t42 -102.5q0 -47 -25.5 -84t-67.5 -49q102 -30 102 -147q0 -78 -51 -126t-136 -48q-42 0 -85 15.5t-68 38.5l21 43q59 -53 138 -53q59 0 94 37.5t35 98.5q0 118 -165 118v45q83 0 119.5 25t36.5 84q0 49 -32.5 73
t-82.5 24q-83 0 -126 -79z" />
    <glyph glyph-name="four.smcp" horiz-adv-x="434" 
d="M338 0h-49v146h-257v44l239 381h68v-382h74v-45h-75v-144zM84 189h204v328z" />
    <glyph glyph-name="five.smcp" horiz-adv-x="422" 
d="M220 358q-36 0 -64.5 -16t-63.5 -49l-42 13v265h299v-45h-253v-176q60 52 126 52q82 0 122.5 -54.5t40.5 -140.5q0 -95 -51 -156.5t-141 -61.5q-45 0 -86.5 15t-64.5 37l19 44q59 -52 137 -52q67 0 101 48.5t34 125.5q0 65 -28.5 108t-84.5 43z" />
    <glyph glyph-name="six.smcp" horiz-adv-x="439" 
d="M355 463q-45 75 -115 75q-64 0 -102 -61t-45 -163q54 59 139 59q83 0 127.5 -51.5t44.5 -128.5q0 -89 -48 -146.5t-123 -57.5q-188 0 -188 262q0 166 56 249t148 83t142 -92zM95 263v-28q0 -37 6 -69.5t19.5 -64t40.5 -50t64 -18.5q62 0 96.5 44t34.5 112q0 63 -32.5 101
t-97.5 38q-85 0 -131 -65z" />
    <glyph glyph-name="seven.smcp" horiz-adv-x="393" 
d="M17 526v45h360v-32l-189 -373q-27 -53 -27 -99v-67h-49v63q0 58 23 101l184 362h-302z" />
    <glyph glyph-name="eight.smcp" horiz-adv-x="437" 
d="M108 303q-50 46 -50 123q0 70 45.5 111.5t115.5 41.5q75 0 116.5 -39.5t41.5 -111.5q0 -68 -54 -135q75 -41 75 -128q0 -82 -48 -129t-133 -47q-86 0 -132.5 47t-46.5 128q0 86 70 139zM227 274l-78 8q-61 -34 -61 -120q0 -62 33.5 -95.5t97.5 -33.5q62 0 95 34t33 95
q0 59 -27.5 82.5t-92.5 29.5zM217 538q-48 0 -80 -26.5t-32 -78.5q0 -53 23.5 -81.5t76.5 -33.5l76 -7q21 14 34 48t13 75q0 49 -31 76.5t-80 27.5z" />
    <glyph glyph-name="nine.smcp" horiz-adv-x="434" 
d="M345 262q-20 -29 -56.5 -48.5t-76.5 -19.5q-81 0 -125.5 52.5t-44.5 131.5q0 93 49.5 149t133.5 56q81 0 125 -64t44 -187q0 -172 -51 -257.5t-145 -85.5q-99 0 -151 84l36 33q45 -73 116 -73q67 0 103.5 61.5t42.5 167.5zM345 315q1 11 1 32q0 79 -31 135t-101 56
q-59 0 -91.5 -44.5t-32.5 -113.5q0 -63 30 -102t94 -39q41 0 76.5 21.5t54.5 54.5z" />
    <glyph glyph-name="Euro.smcp" horiz-adv-x="566" 
d="M68 310v42h60q9 103 61.5 167t152.5 64q142 0 173 -142l-45 -12q-15 56 -45.5 83.5t-86.5 27.5q-74 0 -116 -55.5t-44 -132.5h214v-42h-324zM68 257h324v-42h-212q6 -85 48 -134.5t115 -49.5q77 0 130 67l35 -28q-61 -82 -171 -82q-52 0 -92 19.5t-63 54t-35.5 72
t-16.5 81.5h-62v42z" />
    <glyph glyph-name="smiley" horiz-adv-x="610" 
d="M107 354q0 82 58 140t140 58t140 -58t58 -140t-58 -140t-140 -58t-140 58t-58 140zM138 354q0 -69 49 -118t118 -49t117.5 49t48.5 118t-48.5 117.5t-117.5 48.5t-118 -48.5t-49 -117.5zM303 239q-25 0 -46.5 8.5t-34.5 21t-22.5 25t-13.5 20.5l-3 9l23 11l2.5 -7.5
t9 -16.5t17.5 -21t28 -16.5t40 -7.5q34 0 59 17t32 34l8 17l21 -11q-1 -3 -4 -9t-13 -20t-22.5 -25t-34 -20t-46.5 -9zM213 418q0 13 8.5 22t21.5 9t22 -9t9 -22t-8.5 -21.5t-22.5 -8.5q-13 0 -21.5 8.5t-8.5 21.5zM336 418q0 13 8.5 22t21.5 9q12 0 21.5 -9t9.5 -22
t-9.5 -21.5t-21.5 -8.5q-14 0 -22 8t-8 22z" />
    <glyph glyph-name="smiley.down" horiz-adv-x="610" 
d="M107 354q0 82 58 140t140 58t140 -58t58 -140t-58 -140t-140 -58t-140 58t-58 140zM138 354q0 -69 49 -118t118 -49t117.5 49t48.5 118t-48.5 117.5t-117.5 48.5t-118 -48.5t-49 -117.5zM304 345q-25 0 -46.5 -7.5t-34.5 -18.5t-22.5 -22t-12.5 -19l-4 -7l23 -9
q1 2 2.5 6t9.5 14t17.5 17.5t27.5 14t40 6.5t40 -6t28.5 -14t18 -16.5t9.5 -14.5l3 -6l21 9q-1 3 -4 8t-13 17.5t-22.5 22t-34 17.5t-46.5 8zM213 418q0 13 8.5 22t21.5 9t22 -9t9 -22t-8.5 -21.5t-22.5 -8.5q-13 0 -21.5 8.5t-8.5 21.5zM336 418q0 13 8.5 22t21.5 9
q12 0 21.5 -9t9.5 -22t-9.5 -21.5t-21.5 -8.5q-14 0 -22 8t-8 22z" />
    <glyph glyph-name="smiley.wink" horiz-adv-x="610" 
d="M107 354q0 82 58 140t140 58t140 -58t58 -140t-58 -140t-140 -58t-140 58t-58 140zM138 354q0 -69 49 -118t118 -49t117.5 49t48.5 118t-48.5 117.5t-117.5 48.5t-118 -48.5t-49 -117.5zM303 239q-25 0 -45.5 7.5t-32 17.5t-19.5 20.5t-10 17.5l-3 8l24 10q1 -2 2 -6
t7.5 -14t15.5 -17.5t25 -13.5t36 -6q22 0 41 9t31 21.5t20 25.5t11 22l4 9l23 -9q-1 -4 -3.5 -11t-12.5 -24.5t-23.5 -31t-37.5 -24.5t-53 -11zM213 418q0 13 8.5 22t21.5 9t22 -9t9 -22t-8.5 -21.5t-22.5 -8.5q-13 0 -21.5 8.5t-8.5 21.5zM412 459l13 -22l-95 -54l-13 24z
" />
    <glyph glyph-name="peace" horiz-adv-x="610" 
d="M471 354q0 65 -43.5 112.5t-107.5 52.5v-178l105 -102q46 48 46 115zM138 354q0 -66 44 -113l104 102v176q-63 -8 -105.5 -55t-42.5 -110zM318 302v-115q47 3 87 33zM288 302l-85 -81q37 -30 85 -34v115zM107 354q0 82 58 140t140 58t140 -58t58 -140t-58 -140t-140 -58
t-140 58t-58 140z" />
    <glyph glyph-name="flower" horiz-adv-x="466" 
d="M187 345l-62 -63q-24 -24 -24 -42q0 -15 12 -25.5t29 -10.5q27 0 44 37l36 78zM276 345l61 -63q24 -24 24 -44q0 -14 -11.5 -24t-27.5 -10q-29 0 -45 37l-35 78zM181 367l-86 15q-45 7 -45 39q0 19 9.5 30t25.5 11q13 0 38 -14l72 -43zM271 405l74 43q24 14 38 14
q15 0 24 -12t9 -28q0 -33 -49 -42l-82 -16zM212 417l-15 86q-2 12 -2 16q0 20 11 31.5t29 11.5q37 0 37 -43q0 -13 -2 -21l-17 -81h-41z" />
    <glyph glyph-name="nbspace" horiz-adv-x="250" 
 />
    <glyph glyph-name="comma.alt" horiz-adv-x="200" 
d="M40 -110l-16 37q22 9 38 31t16 42h-31v83h74q8 -28 8 -56q0 -50 -24.5 -85.5t-64.5 -51.5z" />
    <glyph glyph-name="semicolon.alt" horiz-adv-x="188" 
d="M41 462q0 20 12.5 35t34.5 15q23 0 36 -13.5t13 -35.5t-13 -36.5t-36 -14.5t-35 14t-12 36zM50 -110l-16 37q22 9 38 31t16 42h-31v83h74q8 -28 8 -56q0 -50 -24.5 -85.5t-64.5 -51.5z" />
    <glyph glyph-name="quoteleft.alt" horiz-adv-x="168" 
d="M127 769l15 -33q-21 -8 -35.5 -27.5t-14.5 -38.5h27v-74h-66q-7 27 -7 50q0 45 22.5 77t58.5 46z" />
    <glyph glyph-name="quoteright.alt" horiz-adv-x="176" 
d="M54 586l-15 33q21 8 35.5 27.5t14.5 38.5h-27v74h66q7 -27 7 -50q0 -45 -22.5 -77t-58.5 -46z" />
    <glyph glyph-name="quotesinglbase.alt" horiz-adv-x="183" 
d="M55 -99l-15 33q21 8 35.5 27.5t14.5 38.5h-27v74h66q7 -27 7 -50q0 -45 -22.5 -77t-58.5 -46z" />
    <glyph glyph-name="quotedblleft.alt" horiz-adv-x="305" 
d="M127 769l15 -33q-21 -8 -35.5 -27.5t-14.5 -38.5h27v-74h-66q-7 27 -7 50q0 45 22.5 77t58.5 46zM264 769l15 -33q-21 -8 -35.5 -27.5t-14.5 -38.5h27v-74h-66q-7 27 -7 50q0 45 22.5 77t58.5 46z" />
    <glyph glyph-name="quotedblright.alt" horiz-adv-x="313" 
d="M54 586l-15 33q21 8 35.5 27.5t14.5 38.5h-27v74h66q7 -27 7 -50q0 -45 -22.5 -77t-58.5 -46zM191 586l-15 33q21 8 35.5 27.5t14.5 38.5h-27v74h66q7 -27 7 -50q0 -45 -22.5 -77t-58.5 -46z" />
    <glyph glyph-name="quotedblbase.alt" horiz-adv-x="318" 
d="M55 -99l-15 33q21 8 35.5 27.5t14.5 38.5h-27v74h66q7 -27 7 -50q0 -45 -22.5 -77t-58.5 -46zM192 -99l-15 33q21 8 35.5 27.5t14.5 38.5h-27v74h66q7 -27 7 -50q0 -45 -22.5 -77t-58.5 -46z" />
    </font>
</defs>
</svg>
