<?xml version="1.0" standalone="no"?>
<!DOCTYPE svg PUBLIC "-//W3C//DTD SVG 1.1//EN" "http://www.w3.org/Graphics/SVG/1.1/DTD/svg11.dtd" >
<svg>
<metadata>
Created by FontForge 20120731 at Wed Jan  2 09:18:36 2019
 By www-data
Copyright (c) 2006 by TypeTogether. All rights reserved.
</metadata>
<defs>
<font id="Ronnia-Light" horiz-adv-x="550" >
  <font-face 
    font-family="Ronnia-Light"
    font-weight="400"
    font-stretch="normal"
    units-per-em="1000"
    panose-1="2 0 5 6 0 0 0 2 0 4"
    ascent="770"
    descent="-230"
    x-height="528"
    cap-height="719"
    bbox="-201 -249 1314 967"
    underline-thickness="50"
    underline-position="-50"
    unicode-range="U+000D-FB04"
  />
<missing-glyph horiz-adv-x="559" 
d="M122 632v-726h347v726h-347zM46 -172v882h500v-882h-500z" />
    <glyph glyph-name="ff" unicode="ff" horiz-adv-x="576" 
d="M580 474h-136v-474h-65v474h-223v-474h-65v474h-85v54h85v47q0 73 40 115t121 42q46 0 90 -12l-5 -57q-46 12 -85 12q-50 0 -73 -24.5t-23 -83.5v-39h223v47q0 73 40 115t121 42q46 0 90 -12l-5 -57q-46 12 -85 12q-50 0 -73 -24.5t-23 -83.5v-39h136v-54z" />
    <glyph glyph-name="fi" unicode="fi" horiz-adv-x="512" 
d="M360 474h-204v-474h-65v474h-85v54h85v36q0 73 41 114.5t124 41.5q71 0 125 -19l-9 -58q-54 19 -112 19q-61 0 -82.5 -27.5t-21.5 -86.5v-20h270v-528h-66v474z" />
    <glyph glyph-name="fl" unicode="fl" horiz-adv-x="610" 
d="M494 -10q-65 0 -90 34.5t-25 101.5v523q-53 13 -113 13q-64 0 -87 -27.5t-23 -86.5v-20h136v-54h-136v-474h-65v474h-85v54h85v37q0 73 42.5 114t131.5 41q90 0 181 -26v-558q0 -47 13 -67.5t47 -20.5q36 0 81 21l8 -56q-44 -23 -101 -23z" />
    <glyph glyph-name="ffi" unicode="ffi" horiz-adv-x="800" 
d="M648 474h-204v-474h-65v474h-223v-474h-65v474h-85v54h85v47q0 73 40 115t121 42q46 0 90 -12l-5 -57q-46 12 -85 12q-50 0 -73 -24.5t-23 -83.5v-39h223v36q0 73 41 114.5t124 41.5q71 0 125 -19l-9 -58q-54 19 -112 19q-61 0 -82.5 -27.5t-21.5 -86.5v-20h270v-528h-66
v474z" />
    <glyph glyph-name="ffl" unicode="ffl" horiz-adv-x="897" 
d="M781 -10q-65 0 -90 34.5t-25 101.5v523q-53 13 -113 13q-64 0 -87 -27.5t-23 -86.5v-20h136v-54h-136v-474h-65v474h-222v-474h-65v474h-85v54h85v47q0 73 40 115t121 42q46 0 90 -12l-5 -57q-46 12 -85 12q-50 0 -73 -24.5t-23 -83.5v-39h222v37q0 73 42.5 114t131.5 41
q90 0 181 -26v-558q0 -47 13 -67.5t47 -20.5q35 0 81 21l8 -56q-44 -23 -101 -23z" />
    <glyph glyph-name=".notdef" horiz-adv-x="559" 
d="M122 632v-726h347v726h-347zM46 -172v882h500v-882h-500z" />
    <glyph glyph-name=".null" horiz-adv-x="0" 
 />
    <glyph glyph-name=".null" horiz-adv-x="0" 
 />
    <glyph glyph-name="nonmarkingreturn" horiz-adv-x="333" 
 />
    <glyph glyph-name="CR" unicode="&#xd;" horiz-adv-x="435" 
 />
    <glyph glyph-name="space" unicode=" " horiz-adv-x="250" 
 />
    <glyph glyph-name="exclam" unicode="!" horiz-adv-x="228" 
d="M88 196l-14 523h79l-14 -523h-51zM67 45q0 21 13 35.5t34 14.5t34 -14.5t13 -35.5q0 -22 -13 -36.5t-34 -14.5t-34 14.5t-13 36.5z" />
    <glyph glyph-name="quotedbl" unicode="&#x22;" horiz-adv-x="340" 
d="M207 698h73l-10 -259h-52zM65 698h73l-10 -259h-52z" />
    <glyph glyph-name="numbersign" unicode="#" horiz-adv-x="681" 
d="M114 421l18 57h116l55 183h64l-53 -183h140l55 183h65l-54 -183h121l-19 -57h-122l-52 -172h123l-20 -55h-123l-57 -194h-67l58 194h-139l-57 -194h-67l58 194h-115l20 55h115l52 172h-115zM294 421l-51 -172h140l52 172h-141z" />
    <glyph glyph-name="dollar" unicode="$" horiz-adv-x="503" 
d="M224 -100v90h-4q-108 0 -180 56l21 61q73 -61 161 -61h2v282q-76 33 -120 76.5t-44 115.5q0 75 46 121.5t118 54.5v87h54v-86q76 -8 117.5 -53.5t47.5 -100.5l-58 -17q-22 93 -107 108v-259q72 -35 114.5 -79t42.5 -113q0 -76 -41 -126.5t-116 -63.5v-93h-54zM127 526
q0 -83 97 -130v238q-43 -6 -70 -32.5t-27 -75.5zM367 169q0 92 -89 137v-255q40 11 64.5 41.5t24.5 76.5z" />
    <glyph glyph-name="percent" unicode="%" horiz-adv-x="808" 
d="M615 388q133 0 133 -199q0 -101 -36.5 -152t-99.5 -51q-66 0 -102 50.5t-36 151.5q0 102 40 151t101 49zM613 40q36 0 56.5 38t20.5 110q0 71 -20 109t-56 38q-38 0 -59 -39t-21 -113q0 -68 21 -105.5t58 -37.5zM201 719q133 0 133 -199q0 -101 -36.5 -152t-99.5 -51
q-66 0 -102 50.5t-36 151.5q0 102 40 151t101 49zM199 371q36 0 56.5 38t20.5 110q0 71 -20 109t-56 38q-38 0 -59 -39t-21 -113q0 -68 21 -105.5t58 -37.5zM253 0h-68l378 719h69z" />
    <glyph glyph-name="ampersand" unicode="&#x26;" horiz-adv-x="683" 
d="M288 43q97 0 182 97q-112 120 -200 229q-62 -16 -98.5 -63.5t-36.5 -111.5q0 -67 39.5 -109t113.5 -42zM454 471l-47 32q28 40 28 73q0 40 -29.5 62.5t-74.5 22.5q-51 0 -78 -24t-27 -62q0 -48 49 -110q165 -214 388 -441l-43 -41q-60 57 -110 116q-102 -114 -229 -114
q-105 0 -160.5 60t-55.5 145q0 78 45 136t126 87q-78 81 -78 158q0 66 46.5 107t129.5 41q72 0 118 -36.5t46 -99.5q0 -60 -44 -112z" />
    <glyph glyph-name="quotesingle" unicode="'" horiz-adv-x="198" 
d="M65 698h73l-10 -259h-52z" />
    <glyph glyph-name="parenleft" unicode="(" horiz-adv-x="304" 
d="M272 -88l-57 -26q-62 114 -93 213.5t-31 224.5q0 194 121 444l56 -22q-57 -129 -83.5 -221.5t-26.5 -203.5q0 -62 7 -112.5t27.5 -108.5t32.5 -85t47 -103z" />
    <glyph glyph-name="parenright" unicode=")" horiz-adv-x="304" 
d="M32 741l57 26q62 -114 93 -213.5t31 -224.5q0 -194 -121 -444l-56 22q57 129 83.5 221.5t26.5 203.5q0 62 -7 112.5t-27.5 108.5t-32.5 85t-47 103z" />
    <glyph glyph-name="asterisk" unicode="*" horiz-adv-x="355" 
d="M141 570l-55 -56q-21 -21 -21 -37q0 -13 10.5 -22.5t25.5 -9.5q23 0 39 33l32 69zM221 570l55 -56q21 -21 21 -37q0 -13 -10.5 -22.5t-25.5 -9.5q-23 0 -39 33l-32 69zM136 590l-77 13q-41 6 -41 35q0 17 9 27t23 10q13 0 34 -12l64 -39zM216 624l66 39q17 12 32 12
q14 0 23 -10.5t9 -25.5q0 -30 -44 -38l-74 -13zM164 635l-14 76q-5 25 5 39t29 14q20 0 28 -15t3 -41l-15 -73h-36z" />
    <glyph glyph-name="plus" unicode="+" 
d="M240 348v188h63v-188h196v-59h-196v-200h-63v200h-190v59h190z" />
    <glyph glyph-name="comma" unicode="," horiz-adv-x="213" 
d="M30 -173l43 262q6 35 40 35q21 0 35.5 -15.5t6.5 -39.5l-84 -252z" />
    <glyph glyph-name="hyphen" unicode="-" horiz-adv-x="416" 
d="M59 281v59h301v-59h-301z" />
    <glyph glyph-name="period" unicode="." horiz-adv-x="229" 
d="M60 46q0 23 14.5 40t39.5 17q26 0 40.5 -15.5t14.5 -40.5t-15 -41t-41 -16q-25 0 -39 15.5t-14 40.5z" />
    <glyph glyph-name="slash" unicode="/" horiz-adv-x="403" 
d="M15 -71l319 843l59 -22l-321 -844z" />
    <glyph glyph-name="zero" unicode="0" horiz-adv-x="523" 
d="M266 698q105 0 159.5 -82t54.5 -268q0 -191 -55.5 -274.5t-165.5 -83.5q-114 0 -165 81t-51 274q0 183 59.5 268t163.5 85zM261 50q78 0 115 68t37 228q0 155 -36 223t-114 68q-81 0 -116 -69.5t-35 -233.5q0 -149 35 -216.5t114 -67.5z" />
    <glyph glyph-name="one" unicode="1" horiz-adv-x="411" 
d="M60 0v54h122v576h-111v55h178v-631h122v-54h-311z" />
    <glyph glyph-name="two" unicode="2" horiz-adv-x="496" 
d="M97 531l-53 27q22 60 79 100.5t134 40.5q84 0 137.5 -48t53.5 -134q0 -94 -69 -187q-92 -125 -243 -270h325v-60h-419v51q165 159 261 285q43 56 59 95.5t16 82.5q0 56 -34 90t-90 34q-101 0 -157 -107z" />
    <glyph glyph-name="three" unicode="3" horiz-adv-x="494" 
d="M85 549l-52 27q25 56 78.5 89t129.5 33q85 0 136.5 -44.5t51.5 -122.5q0 -56 -29.5 -99t-79.5 -60q119 -37 119 -172q0 -94 -60.5 -152t-163.5 -58q-53 0 -104.5 17t-82.5 44l30 59q68 -61 161 -61q69 0 110 42.5t41 111.5q0 63 -35.5 97.5t-84.5 39.5q-31 3 -77 3v57
q47 0 70 2q54 5 86 38t32 86q0 59 -37.5 86t-95.5 27q-96 0 -143 -90z" />
    <glyph glyph-name="four" unicode="4" horiz-adv-x="523" 
d="M405 0h-65v174h-303v58l283 453h86v-452h93v-63h-94v-170zM108 233h232v378z" />
    <glyph glyph-name="five" unicode="5" horiz-adv-x="507" 
d="M262 420q-75 0 -148 -75l-60 20v320h363v-62h-298v-203q67 60 148 60q98 0 146.5 -64t48.5 -166q0 -113 -61 -186.5t-168 -73.5q-55 0 -104.5 18t-78.5 45l27 62q71 -63 159 -63q76 0 116 54.5t40 140.5q0 77 -33 125t-97 48z" />
    <glyph glyph-name="six" unicode="6" horiz-adv-x="528" 
d="M125 385q61 66 158 66t148.5 -61.5t51.5 -152.5q0 -109 -57 -178t-150 -69q-223 0 -223 315q0 197 67.5 295.5t179.5 98.5q109 0 173 -108l-50 -37q-27 44 -58 65t-75 21q-72 0 -114.5 -69.5t-50.5 -185.5zM417 232q0 72 -35.5 115.5t-107.5 43.5q-46 0 -86 -20.5
t-63 -52.5v-35q0 -44 6.5 -82.5t21.5 -74t45 -56.5t72 -21q69 0 108 51.5t39 131.5z" />
    <glyph glyph-name="seven" unicode="7" horiz-adv-x="473" 
d="M20 614v63h433v-45l-221 -433q-29 -57 -29 -115v-84h-70v81q0 72 26 121l212 412h-351z" />
    <glyph glyph-name="eight" unicode="8" horiz-adv-x="523" 
d="M128 367q-62 58 -62 147q0 84 55.5 134t141.5 50q91 0 141 -47.5t50 -134.5q0 -84 -64 -159q88 -51 88 -155q0 -98 -57 -155t-161 -57t-160 56.5t-56 153.5q0 49 22 93t62 74zM182 337q-33 -20 -50.5 -57.5t-17.5 -81.5q0 -71 38.5 -110t110.5 -39q69 0 107.5 40
t38.5 110q0 67 -33 95.5t-106 34.5zM260 638q-55 0 -91 -31t-36 -90q0 -121 115 -131l85 -7q23 16 39 55.5t16 83.5q0 56 -35.5 88t-92.5 32z" />
    <glyph glyph-name="nine" unicode="9" horiz-adv-x="523" 
d="M49 451q0 112 59 179.5t159 67.5q99 0 152 -76.5t53 -223.5q0 -204 -61.5 -306t-174.5 -102q-127 0 -183 103l49 40q52 -84 136 -84q75 0 117 70.5t50 190.5q-24 -33 -66 -55t-90 -22q-96 0 -148 62t-52 156zM115 457q0 -75 34.5 -120.5t106.5 -45.5q46 0 87 24.5
t63 60.5v40q0 58 -12 105t-47 82t-89 35q-69 0 -106 -50.5t-37 -130.5z" />
    <glyph glyph-name="colon" unicode=":" horiz-adv-x="229" 
d="M60 459q0 23 14.5 40t39.5 17q26 0 40.5 -15.5t14.5 -40.5t-15 -41t-41 -16q-25 0 -39 15.5t-14 40.5zM60 46q0 23 14.5 40t39.5 17q26 0 40.5 -15.5t14.5 -40.5t-15 -41t-41 -16q-25 0 -39 15.5t-14 40.5z" />
    <glyph glyph-name="semicolon" unicode=";" horiz-adv-x="221" 
d="M77 459q0 23 14.5 40t39.5 17q26 0 40.5 -15.5t14.5 -40.5t-15 -41t-41 -16q-25 0 -39 15.5t-14 40.5zM30 -173l43 262q6 35 40 35q21 0 35.5 -15.5t6.5 -39.5l-84 -252z" />
    <glyph glyph-name="less" unicode="&#x3c;" 
d="M503 456l-373 -153l365 -156l-18 -57l-431 186v49l433 184z" />
    <glyph glyph-name="equal" unicode="=" 
d="M50 364v59h449v-59h-449zM50 192v59h449v-59h-449z" />
    <glyph glyph-name="greater" unicode="&#x3e;" 
d="M419 303l-373 153l24 53l433 -184v-49l-431 -186l-18 57z" />
    <glyph glyph-name="question" unicode="?" horiz-adv-x="387" 
d="M90 190v193q101 11 147.5 54.5t46.5 100.5q0 61 -36 91.5t-102 30.5q-39 0 -75 -8l-11 57q36 10 92 10q97 0 148.5 -45.5t51.5 -132.5q0 -76 -51.5 -130t-145.5 -74v-147h-65zM73 45q0 21 13 35.5t34 14.5t34 -14.5t13 -35.5q0 -22 -13 -36.5t-34 -14.5t-34 14.5
t-13 36.5z" />
    <glyph glyph-name="at" unicode="@" horiz-adv-x="758" 
d="M427 549q140 0 232 -53v-472q-92 -34 -169 -34q-92 0 -140.5 45t-48.5 128q0 87 52 130.5t144 43.5q46 0 97 -14v136q-66 32 -171 32q-123 0 -205 -88t-82 -231t83.5 -231.5t217.5 -88.5q91 0 154 34l22 -55q-71 -38 -183 -38q-170 0 -267.5 107.5t-97.5 268.5
q0 164 103.5 272t258.5 108zM594 60v213q-51 12 -87 12q-137 0 -137 -118q0 -124 123 -124q59 0 101 17z" />
    <glyph glyph-name="A" unicode="A" horiz-adv-x="606" 
d="M93 0h-68l223 719h102l231 -719h-69l-69 215h-282zM298 672l-120 -394h246z" />
    <glyph glyph-name="B" unicode="B" horiz-adv-x="599" 
d="M312 0h-213v719h208q104 0 161.5 -42t57.5 -123q0 -63 -32 -110t-79 -66q66 -14 102.5 -59t36.5 -107q0 -101 -64.5 -156.5t-177.5 -55.5zM326 344h-160v-283h156q81 0 120 41t39 107q0 61 -39.5 98t-115.5 37zM295 658h-129v-256h133q75 0 115 39.5t40 99.5
q0 62 -38 89.5t-121 27.5z" />
    <glyph glyph-name="C" unicode="C" horiz-adv-x="562" 
d="M336 50q94 0 175 54l17 -64q-28 -20 -81 -37t-118 -17t-113.5 21t-77.5 54.5t-46.5 83.5t-23.5 99.5t-6 110.5q0 80 10.5 142t36.5 118.5t78 87.5t129 31q56 0 96.5 -15t64 -42.5t36 -55t19.5 -62.5l-68 -17q-18 63 -49.5 97t-100.5 34q-40 0 -71 -13.5t-50 -40t-31 -56
t-17.5 -71t-7.5 -74.5t-2 -77q0 -142 47 -216.5t154 -74.5z" />
    <glyph glyph-name="D" unicode="D" horiz-adv-x="628" 
d="M99 0v719h210q126 0 195 -74t69 -252q0 -115 -22.5 -194.5t-64 -121.5t-90 -59.5t-110.5 -17.5h-187zM168 659v-597h128q104 1 154.5 75t50.5 239q0 150 -47.5 216.5t-143.5 66.5h-142z" />
    <glyph glyph-name="E" unicode="E" horiz-adv-x="533" 
d="M99 0v719h386v-62h-317v-252h276v-62h-276v-280h330v-63h-399z" />
    <glyph glyph-name="F" unicode="F" horiz-adv-x="516" 
d="M99 719h402v-62h-333v-252h279v-62h-279v-343h-69v719z" />
    <glyph glyph-name="G" unicode="G" horiz-adv-x="607" 
d="M317 287v58h235v-313q-99 -46 -203 -46q-151 0 -219 92t-68 295q0 167 63 264t198 97q99 0 150.5 -44t68.5 -131l-64 -16q-21 68 -53 99t-104 31q-89 0 -138.5 -72.5t-49.5 -223.5q0 -62 5 -109t19.5 -90.5t38.5 -71t63 -44t92 -16.5q78 0 134 29v212h-168z" />
    <glyph glyph-name="H" unicode="H" horiz-adv-x="697" 
d="M529 719h69v-719h-69v345h-361v-345h-69v719h69v-312h361v312z" />
    <glyph glyph-name="I" unicode="I" horiz-adv-x="267" 
d="M99 719h69v-719h-69v719z" />
    <glyph glyph-name="J" unicode="J" horiz-adv-x="413" 
d="M15 21l21 63q56 -33 124 -33q42 0 63 19t27 61q4 27 4 75v513h69v-516q0 -68 -6 -94q-12 -60 -54.5 -90.5t-105.5 -30.5q-82 0 -142 33z" />
    <glyph glyph-name="K" unicode="K" horiz-adv-x="565" 
d="M540 719l-185 -340l200 -379h-78l-182 343h-127v-343h-69v720h69v-315h130l170 314h72z" />
    <glyph glyph-name="L" unicode="L" horiz-adv-x="519" 
d="M99 0v719h69v-656h321v-63h-390z" />
    <glyph glyph-name="M" unicode="M" horiz-adv-x="797" 
d="M600 719h84l33 -719h-67l-26 600l-198 -528h-52l-201 530l-27 -602h-66l33 719h91l197 -542z" />
    <glyph glyph-name="N" unicode="N" horiz-adv-x="693" 
d="M527 720h67v-720h-67l-361 598v-598h-67v720h72l356 -593v593z" />
    <glyph glyph-name="O" unicode="O" horiz-adv-x="654" 
d="M325 -14q-263 0 -263 385q0 179 72 271t201 92q132 0 194.5 -86.5t62.5 -270.5q0 -391 -267 -391zM520 376q0 162 -49 229t-139 67t-144 -71t-54 -230q0 -324 191 -324q44 0 77 14.5t61 49.5t42.5 101.5t14.5 163.5z" />
    <glyph glyph-name="P" unicode="P" horiz-adv-x="603" 
d="M324 292h-156v-292h-69v719h238q105 0 163 -48.5t58 -142.5q0 -108 -64.5 -172t-169.5 -64zM168 353h150q82 0 125.5 42.5t43.5 122.5q0 76 -39.5 107.5t-121.5 31.5h-158v-304z" />
    <glyph glyph-name="Q" unicode="Q" horiz-adv-x="653" 
d="M594 -40l-16 -59q-173 23 -304 73q-50 19 -86.5 46.5t-66 72.5t-44.5 114.5t-15 163.5q0 179 72 271t201 92q132 0 194.5 -86.5t62.5 -270.5q0 -181 -61 -273.5t-174 -101.5q112 -30 237 -42zM520 376q0 162 -49 229t-139 67t-144 -71t-54 -230q0 -325 191 -325
q44 0 77 14.5t61 50t42.5 102t14.5 163.5z" />
    <glyph glyph-name="R" unicode="R" horiz-adv-x="609" 
d="M427 340l127 -340h-75l-119 318h-193v-318h-68v719h223q107 0 167.5 -45t60.5 -138q0 -136 -123 -196zM167 380h153q70 0 114.5 36t44.5 103q0 76 -39.5 108t-121.5 32h-151v-279z" />
    <glyph glyph-name="S" unicode="S" horiz-adv-x="536" 
d="M43 57l32 64q79 -71 179 -71q64 0 106 32.5t42 100.5q0 32 -9.5 56.5t-21 39.5t-38.5 29.5t-45 21t-57 19.5q-32 11 -51.5 19t-45 24t-39.5 34.5t-24.5 49t-10.5 68.5q0 87 61 138.5t154 51.5q95 0 147 -50t59 -112l-63 -18q-13 56 -52 84.5t-94 28.5q-57 0 -97 -30.5
t-40 -92.5q0 -23 4.5 -40.5t16.5 -31.5t21 -22.5t32 -18.5t33.5 -14t40.5 -14q34 -12 48 -17t43 -18.5t42.5 -27t30 -35t23.5 -50t7 -64.5q0 -94 -58 -149.5t-167 -55.5q-72 0 -127 22.5t-82 48.5z" />
    <glyph glyph-name="T" unicode="T" horiz-adv-x="546" 
d="M15 657v62h516v-62h-224v-657h-69v657h-223z" />
    <glyph glyph-name="U" unicode="U" horiz-adv-x="667" 
d="M165 719v-469q0 -84 16 -122q33 -75 151 -75q125 0 156 77q14 37 14 136v453h69v-472q0 -84 -12 -124q-44 -135 -227 -135q-178 0 -221 120q-15 42 -15 140v471h69z" />
    <glyph glyph-name="V" unicode="V" horiz-adv-x="575" 
d="M285 67l207 652h68l-229 -719h-95l-221 719h70z" />
    <glyph glyph-name="W" unicode="W" horiz-adv-x="833" 
d="M232 0h-78l-94 719h72l75 -610l186 541h52l181 -541l76 610h71l-94 -719h-80l-181 525z" />
    <glyph glyph-name="X" unicode="X" horiz-adv-x="555" 
d="M535 719l-213 -351l209 -368h-78l-176 305l-182 -305h-80l220 365l-197 354h82l160 -296l173 296h82z" />
    <glyph glyph-name="Y" unicode="Y" horiz-adv-x="563" 
d="M286 363l188 356h74l-228 -420v-299h-71v296l-234 423h77z" />
    <glyph glyph-name="Z" unicode="Z" horiz-adv-x="540" 
d="M50 658v61h460v-67l-399 -590h385v-62h-466v62l403 596h-383z" />
    <glyph glyph-name="bracketleft" unicode="[" horiz-adv-x="281" 
d="M86 -118v885h185v-47h-124v-791h124v-47h-185z" />
    <glyph glyph-name="backslash" unicode="\" horiz-adv-x="403" 
d="M69 772l319 -843l-57 -23l-321 844z" />
    <glyph glyph-name="bracketright" unicode="]" horiz-adv-x="281" 
d="M195 767v-885h-185v47h124v791h-124v47h185z" />
    <glyph glyph-name="asciicircum" unicode="^" horiz-adv-x="584" 
d="M497 324l-66 -10l-140 302l-140 -302l-63 10l175 366h59z" />
    <glyph glyph-name="underscore" unicode="_" horiz-adv-x="500" 
d="M-7 -138v54h514v-54h-514z" />
    <glyph glyph-name="grave" unicode="`" horiz-adv-x="237" 
d="M234 625l-27 -41l-204 119l39 60z" />
    <glyph glyph-name="a" unicode="a" horiz-adv-x="509" 
d="M96 462l-7 59q65 18 151 18q166 0 166 -164v-283q0 -24 8.5 -34t28.5 -10q16 0 43 10l6 -55q-41 -13 -66 -13q-35 0 -56 18.5t-24 45.5q-72 -64 -152 -64q-73 0 -111 46t-38 117q0 93 53.5 137.5t149.5 44.5q48 0 92 -10v38q0 62 -27 90t-94 28q-63 0 -123 -19zM340 107
l1 166q-44 11 -82 11q-72 0 -107.5 -30t-35.5 -99q0 -46 23.5 -76t69.5 -30q69 0 131 58z" />
    <glyph glyph-name="b" unicode="b" horiz-adv-x="525" 
d="M152 470q97 68 159 68q74 0 116.5 -58t42.5 -173q0 -317 -220 -317q-90 0 -164 45v684h66v-249zM397 281q0 110 -26.5 152t-76.5 42q-55 0 -142 -61v-342q44 -25 99 -25q78 0 112 66t34 168z" />
    <glyph glyph-name="c" unicode="c" horiz-adv-x="443" 
d="M268 46q66 0 135 38l8 -60q-68 -36 -146 -36q-61 0 -104.5 24t-65.5 65.5t-31 86t-9 96.5q0 279 197 279q137 0 166 -139l-58 -23q-28 103 -112 103q-124 0 -124 -220q0 -101 35.5 -157.5t108.5 -56.5z" />
    <glyph glyph-name="d" unicode="d" horiz-adv-x="527" 
d="M249 539q57 0 125 -46v226h67v-719h-63v55q-67 -65 -142 -65q-83 0 -132 67t-49 199q0 53 10.5 100.5t32 90t60.5 67.5t91 25zM125 252q0 -97 34 -150t89 -53q69 0 127 68v310q-67 52 -120 52q-130 0 -130 -227z" />
    <glyph glyph-name="e" unicode="e" horiz-adv-x="479" 
d="M429 257h-305q0 -210 150 -210q69 0 141 38l6 -60q-67 -37 -155 -37q-211 0 -211 281q0 139 53 204.5t146 65.5q91 0 133 -62.5t42 -184.5v-35zM360 310q0 84 -28.5 127.5t-81.5 43.5q-61 0 -93 -51.5t-32 -119.5h235z" />
    <glyph glyph-name="f" unicode="f" horiz-adv-x="288" 
d="M292 474h-136v-474h-65v474h-85v54h85v47q0 73 40 115t121 42q46 0 90 -12l-5 -57q-46 12 -85 12q-50 0 -73 -24.5t-23 -83.5v-39h136v-54z" />
    <glyph glyph-name="g" unicode="g" horiz-adv-x="527" 
d="M249 539q57 0 125 -46v35h67v-513q0 -43 -4 -75.5t-16.5 -63.5t-33.5 -51t-56 -32t-83 -12q-95 0 -166 41l12 63q28 -17 73.5 -31.5t87.5 -14.5q39 0 64.5 14.5t37.5 42.5t16.5 57.5t4.5 70.5v31q-67 -65 -142 -65q-83 0 -132 67t-49 199q0 53 10.5 100.5t32 90
t60.5 67.5t91 25zM125 252q0 -97 34 -150t89 -53q69 0 127 68v310q-67 52 -120 52q-130 0 -130 -227z" />
    <glyph glyph-name="h" unicode="h" horiz-adv-x="554" 
d="M326 539q119 0 139 -104q3 -17 3 -65v-370h-66v361q0 35 -3 54q-12 63 -92 63q-73 0 -154 -77v-401h-67v719h67v-257q85 77 173 77z" />
    <glyph glyph-name="i" unicode="i" horiz-adv-x="238" 
d="M86 528h66v-528h-66v528zM75 664q0 21 12 32.5t31 11.5q44 0 44 -45q0 -22 -12 -34.5t-32 -12.5q-19 0 -31 13t-12 35z" />
    <glyph glyph-name="j" unicode="j" horiz-adv-x="238" 
d="M153 528v-602q0 -72 -29.5 -108.5t-94.5 -36.5q-53 0 -94 23l12 62q41 -26 85 -26q30 0 42 21t12 74v593h67zM75 664q0 21 12 32.5t31 11.5q44 0 44 -45q0 -22 -12 -34.5t-32 -12.5q-19 0 -31 13t-12 35z" />
    <glyph glyph-name="k" unicode="k" horiz-adv-x="484" 
d="M444 521l-145 -218l170 -303h-76l-149 263h-91v-263h-67v719h67v-395h91l134 204z" />
    <glyph glyph-name="l" unicode="l" horiz-adv-x="311" 
d="M80 126v593h67v-583q0 -47 13 -67.5t47 -20.5q35 0 81 21l8 -56q-44 -23 -101 -23q-65 0 -90 34.5t-25 101.5z" />
    <glyph glyph-name="m" unicode="m" horiz-adv-x="841" 
d="M326 539q93 0 122 -70q81 70 165 70q120 0 138 -104q4 -23 4 -65v-370h-66v361q0 37 -4 54q-12 63 -87 63q-69 0 -139 -66q2 -16 2 -53v-359h-66v361q0 37 -4 54q-10 63 -79 63q-83 0 -159 -78v-400h-67v528h67v-65q87 76 173 76z" />
    <glyph glyph-name="n" unicode="n" horiz-adv-x="554" 
d="M326 539q119 0 139 -104q3 -17 3 -65v-370h-66v361q0 35 -3 54q-12 63 -92 63q-73 0 -154 -77v-401h-67v528h67v-66q85 77 173 77z" />
    <glyph glyph-name="o" unicode="o" horiz-adv-x="513" 
d="M252 -12q-56 0 -96.5 24t-61.5 66t-30 86.5t-9 96.5q0 122 52.5 200t156.5 78q194 0 194 -268q0 -54 -11 -102t-34 -90t-64.5 -66.5t-96.5 -24.5zM254 46q40 0 68 20t41.5 54t19.5 70t6 77q0 213 -128 213q-41 0 -69.5 -22.5t-42.5 -59t-19.5 -70.5t-5.5 -69
q0 -58 10.5 -103t41 -77.5t78.5 -32.5z" />
    <glyph glyph-name="p" unicode="p" horiz-adv-x="525" 
d="M86 528h66v-57q97 68 159 68q74 0 116.5 -58.5t42.5 -173.5q0 -317 -203 -317q-62 0 -114 33v-232h-67v737zM152 415v-324q54 -42 121 -42q46 0 75 37t39 86t10 109q0 110 -26.5 152.5t-76.5 42.5q-55 0 -142 -61z" />
    <glyph glyph-name="q" unicode="q" horiz-adv-x="527" 
d="M249 539q57 0 125 -46v35h67v-737h-65v264q-67 -65 -140 -65q-83 0 -132 67t-49 199q0 53 10.5 100.5t32 90t60.5 67.5t91 25zM125 252q0 -96 34 -149.5t89 -53.5q69 0 127 68v310q-67 52 -120 52q-130 0 -130 -227z" />
    <glyph glyph-name="r" unicode="r" horiz-adv-x="383" 
d="M277 539q72 0 101 -82l-55 -30q-12 26 -25 37.5t-38 11.5q-47 0 -107 -69v-407h-67v528h63v-59q64 70 128 70z" />
    <glyph glyph-name="s" unicode="s" horiz-adv-x="427" 
d="M40 44l18 62q22 -20 64 -40t80 -20q49 0 79 22t30 64q0 39 -27 62t-66 35t-77.5 26t-65.5 48t-27 89q0 68 49 107.5t120 39.5q73 0 114.5 -36.5t50.5 -85.5l-54 -22q-12 42 -42 63.5t-70 21.5q-42 0 -71 -21t-29 -64q0 -39 27 -62.5t65.5 -35.5t77.5 -25.5t66 -45.5
t27 -83q0 -68 -46.5 -111.5t-131.5 -43.5q-48 0 -94.5 18.5t-66.5 37.5z" />
    <glyph glyph-name="t" unicode="t" horiz-adv-x="324" 
d="M294 474h-138v-326q0 -35 2.5 -53.5t15.5 -33.5t39 -15q29 0 75 22l7 -56q-48 -24 -94 -24q-111 0 -111 131v355h-68v54h68v86l66 38v-124h138v-54z" />
    <glyph glyph-name="u" unicode="u" horiz-adv-x="547" 
d="M220 -10q-120 0 -138 103q-4 23 -4 65v361l66 9v-361q0 -38 4 -54q10 -64 88 -64q74 0 157 78v401h68v-528h-68v65q-87 -75 -173 -75z" />
    <glyph glyph-name="v" unicode="v" horiz-adv-x="459" 
d="M376 528l65 -7l-168 -521h-88l-167 521l70 7l143 -461z" />
    <glyph glyph-name="w" unicode="w" horiz-adv-x="671" 
d="M575 528l66 -8l-113 -520h-84l-106 417l-122 -417h-81l-105 521l66 7l87 -450l128 440h62l108 -440z" />
    <glyph glyph-name="x" unicode="x" horiz-adv-x="446" 
d="M431 521l-169 -261l168 -260h-77l-131 205l-132 -205h-80l175 261l-167 260l77 7l130 -214l134 214z" />
    <glyph glyph-name="y" unicode="y" horiz-adv-x="456" 
d="M372 528l66 -7q-80 -296 -172 -516q-50 -120 -94.5 -172t-122.5 -52q-73 0 -134 36l19 61q66 -38 116 -38q51 0 81 39t64 129l-184 513l72 7l151 -440q46 110 138 440z" />
    <glyph glyph-name="z" unicode="z" horiz-adv-x="412" 
d="M392 487l-286 -432h277v-55h-353v50l279 424h-265v54h348v-41z" />
    <glyph glyph-name="braceleft" unicode="{" horiz-adv-x="339" 
d="M134 330q75 -29 75 -125v-191q0 -24 1 -34.5t5 -25.5t15 -21t29 -6q24 0 45 9l9 -50q-33 -11 -68 -11q-47 0 -72.5 28t-25.5 71v203q0 57 -17.5 88.5t-63.5 36.5v54q81 8 81 123v192q0 43 25.5 71t72.5 28q35 0 68 -11l-9 -50q-21 9 -45 9q-14 0 -24 -5t-15 -11.5
t-7.5 -20t-3 -23t-0.5 -27.5v-179q0 -91 -75 -122z" />
    <glyph glyph-name="bar" unicode="|" horiz-adv-x="205" 
d="M80 -118v885h59v-885h-59z" />
    <glyph glyph-name="braceright" unicode="}" horiz-adv-x="339" 
d="M205 330q-75 31 -75 122v179q0 18 -0.5 27.5t-3 23t-7.5 20t-15 11.5t-24 5q-24 0 -45 -9l-9 50q33 11 68 11q47 0 72.5 -28t25.5 -71v-192q0 -115 81 -123v-54q-46 -5 -63.5 -36.5t-17.5 -88.5v-203q0 -43 -25.5 -71t-72.5 -28q-35 0 -68 11l9 50q21 -9 45 -9q18 0 29 6
t15 21t5 25.5t1 34.5v191q0 96 75 125z" />
    <glyph glyph-name="asciitilde" unicode="~" horiz-adv-x="636" 
d="M454 211q-52 0 -121 32l-61 29q-54 25 -87 25q-50 0 -95 -68l-43 37q22 30 38 47q45 47 97 47q51 0 120 -32l62 -29q60 -26 87 -26q46 0 96 69l40 -37q-17 -30 -36 -50q-42 -44 -97 -44z" />
    <glyph glyph-name="uni00A0" unicode="&#xa0;" horiz-adv-x="230" 
 />
    <glyph glyph-name="exclamdown" unicode="&#xa1;" horiz-adv-x="228" 
d="M140 331l14 -523h-79l14 523h51zM161 482q0 -21 -13 -35.5t-34 -14.5t-34 14.5t-13 35.5q0 22 13 36.5t34 14.5t34 -14.5t13 -36.5z" />
    <glyph glyph-name="cent" unicode="&#xa2;" horiz-adv-x="481" 
d="M357 449q-10 33 -24.5 51.5t-44.5 23.5v-386q31 5 49 23.5t31 54.5l53 -16q-31 -105 -134 -115v-140h-55v138q-46 7 -76.5 31t-43.5 62t-17.5 72t-4.5 79q0 231 145 252v112h54v-111q59 -5 86 -36t39 -80zM155 315q0 -71 16 -117t62 -58v381q-26 -8 -43 -29.5t-24 -54.5
t-9 -59t-2 -63z" />
    <glyph glyph-name="sterling" unicode="&#xa3;" horiz-adv-x="523" 
d="M59 315v50h59q-3 10 -13 37t-13.5 39.5t-7.5 32.5t-4 38q0 85 51.5 135.5t139.5 50.5q87 0 134.5 -43t69.5 -130l-61 -16q-36 135 -147 135q-57 0 -89.5 -35.5t-32.5 -92.5q0 -18 4 -38.5t7.5 -30.5t15 -41t15.5 -41h180v-49h-165q20 -56 20 -113q0 -95 -59 -147h310v-56
h-410l-7 48q52 15 78 57t26 91t-25 119h-76z" />
    <glyph glyph-name="currency" unicode="&#xa4;" horiz-adv-x="607" 
d="M538 165l-35 -34l-66 63q-37 -25 -66 -34.5t-68 -9.5t-67.5 9.5t-65.5 35.5l-67 -64l-35 34l68 65q-27 37 -37 64.5t-10 66.5q0 36 10 64.5t37 66.5l-68 65l35 33l67 -64q38 26 66 35.5t67 9.5t67.5 -10t66.5 -36l66 65l35 -33l-67 -65q27 -37 37 -65.5t10 -65.5
q0 -39 -10 -66.5t-37 -64.5zM455 361q0 67 -44 110t-107 43q-64 0 -108 -43.5t-44 -109.5t44 -110t108 -44q62 0 106.5 44.5t44.5 109.5z" />
    <glyph glyph-name="yen" unicode="&#xa5;" horiz-adv-x="523" 
d="M264 359l164 326h75l-184 -350h156v-48h-177v-94h177v-49h-177v-144h-68v144h-173v49h173v94h-173v48h150l-189 350h76z" />
    <glyph glyph-name="brokenbar" unicode="&#xa6;" horiz-adv-x="200" 
d="M77 -118v383h59v-383h-59zM77 418v349h59v-349h-59z" />
    <glyph glyph-name="section" unicode="&#xa7;" horiz-adv-x="561" 
d="M161 614v5q-42 -52 -42 -131q0 -49 27.5 -104t66.5 -105.5t78 -102.5t64.5 -113t23.5 -118q44 69 44 150q0 55 -27 113.5t-65.5 108t-77 98t-65.5 100.5t-27 99zM226 -125q95 0 95 69q0 50 -27 106t-66 107t-78 103t-66 112.5t-27 117.5q0 98 69 169t179 71q95 0 147 -50
t59 -112l-63 -18q-14 58 -51 90t-90 32q-40 0 -60.5 -20.5t-20.5 -52.5q0 -29 26.5 -72t64.5 -90.5t76 -99.5t64.5 -114.5t26.5 -120.5q0 -125 -70.5 -204t-170.5 -79q-173 0 -208 155l58 17q31 -116 133 -116z" />
    <glyph glyph-name="dieresis" unicode="&#xa8;" horiz-adv-x="403" 
d="M88 655q0 20 11 31.5t29 11.5q41 0 41 -43q0 -20 -11.5 -32t-29.5 -12q-19 0 -29.5 12t-10.5 32zM248 655q0 20 11 31.5t29 11.5q41 0 41 -43q0 -20 -11 -32t-30 -12t-29.5 12t-10.5 32z" />
    <glyph glyph-name="copyright" unicode="&#xa9;" horiz-adv-x="880" 
d="M602 500l-46 -35q-47 68 -113 68t-97 -51t-31 -126q0 -79 34.5 -129t97.5 -50q39 0 65 14t54 42l35 -44q-70 -68 -157 -68q-44 0 -79 15t-57 39t-37 55t-21 61.5t-6 61.5q0 108 57 173t143 65q54 0 95 -26.5t63 -64.5zM825 359q0 -167 -109 -273t-281 -106
q-174 0 -277 104t-103 269q0 163 107 270t273 107q171 0 280.5 -106t109.5 -265zM760 353q0 141 -92 230.5t-233 89.5q-143 0 -228.5 -88t-85.5 -232q0 -142 88 -230t226 -88q144 0 234.5 86.5t90.5 231.5z" />
    <glyph glyph-name="ordfeminine" unicode="&#xaa;" horiz-adv-x="358" 
d="M56 652l-5 51q56 16 113 16q61 0 91 -28.5t30 -90.5v-196q0 -24 26 -24q13 0 32 8l5 -49q-28 -11 -55 -11q-46 0 -64 41q-50 -40 -98 -40q-55 0 -83 33.5t-28 84.5q0 128 150 128q29 0 53 -4v24q0 39 -16.5 56t-57.5 17q-40 0 -93 -16zM224 412v115q-28 5 -48 5
q-93 0 -93 -83q0 -29 15 -48.5t44 -19.5q44 0 82 31z" />
    <glyph glyph-name="guillemotleft" unicode="&#xab;" horiz-adv-x="537" 
d="M487 121l-45 -42l-203 198l201 200l43 -41l-157 -157zM293 121l-45 -42l-203 198l201 200l43 -41l-157 -157z" />
    <glyph glyph-name="logicalnot" unicode="&#xac;" 
d="M436 186v153h-386v57h449v-210h-63z" />
    <glyph glyph-name="uni00AD" unicode="&#xad;" horiz-adv-x="416" 
d="M59 281v59h301v-59h-301z" />
    <glyph glyph-name="registered" unicode="&#xae;" horiz-adv-x="476" 
d="M426 549q0 -81 -53 -133t-137 -52q-86 0 -136 51t-50 131t52.5 132t133.5 52q83 0 136.5 -51.5t53.5 -129.5zM387 546q0 66 -42.5 108t-108.5 42q-67 0 -107 -41.5t-40 -108.5q0 -66 41 -107.5t106 -41.5q68 0 109.5 40.5t41.5 108.5zM278 538l41 -93h-37l-37 86h-42v-86
h-33v208h74q72 0 72 -58q0 -40 -38 -57zM203 559h33q46 0 46 35q0 31 -45 31h-34v-66z" />
    <glyph glyph-name="macron" unicode="&#xaf;" horiz-adv-x="343" 
d="M30 623v60h281v-60h-281z" />
    <glyph glyph-name="degree" unicode="&#xb0;" horiz-adv-x="318" 
d="M45 580q0 50 32.5 84t81.5 34q51 0 82.5 -33t31.5 -80q0 -52 -32.5 -87t-83.5 -35q-52 0 -82 33.5t-30 83.5zM98 580q0 -30 16 -49t45 -19q28 0 45 19.5t17 48.5q0 31 -16 49t-46 18q-61 0 -61 -67z" />
    <glyph glyph-name="plusminus" unicode="&#xb1;" 
d="M239 324v182h63v-182h197v-59h-197v-175h-63v175h-189v59h189zM499 0v55h-449v-55h449z" />
    <glyph glyph-name="twosuperior" unicode="&#xb2;" horiz-adv-x="400" 
d="M103 696l-52 26q21 43 61 73t93 30q58 0 95 -32.5t37 -91.5q0 -70 -56 -135q-51 -58 -113 -104h179v-56h-279v46q51 38 79.5 62t70.5 69q51 54 51 114q0 34 -20 52t-50 18q-56 0 -96 -71z" />
    <glyph glyph-name="threesuperior" unicode="&#xb3;" horiz-adv-x="400" 
d="M104 711l-52 23q53 91 150 91q57 0 90.5 -27.5t33.5 -77.5q0 -32 -16.5 -59.5t-43.5 -41.5q66 -22 66 -90q0 -62 -41.5 -98t-110.5 -36q-81 0 -132 44l26 53q53 -43 109 -43q39 0 62 20t23 56q0 65 -74 65h-55v54h54q30 0 49.5 20t19.5 50q0 57 -67 57q-53 0 -91 -60z
" />
    <glyph glyph-name="acute" unicode="&#xb4;" horiz-adv-x="237" 
d="M51 584l-27 41l192 138l39 -60z" />
    <glyph glyph-name="mu" unicode="&#xb5;" horiz-adv-x="591" 
d="M507 -16q-80 0 -82 86q-53 -83 -152 -83q-83 0 -120 59v-255h-64v737h64v-341q0 -65 31.5 -103t95.5 -38q70 0 107.5 43.5t37.5 115.5v323h65v-442q0 -26 7.5 -38.5t26.5 -12.5q6 0 26 5l6 -45q-20 -11 -49 -11z" />
    <glyph glyph-name="paragraph" unicode="&#xb6;" horiz-adv-x="595" 
d="M262 -181q-95 0 -166 41l12 63q28 -17 73.5 -31.5t87.5 -14.5q39 0 64 14.5t36.5 43t15 57t3.5 70.5v204h-70q-123 0 -186.5 59.5t-63.5 167.5q0 112 76.5 169t180.5 57h210l-5 -61h-75v-605q0 -43 -4 -75.5t-16.5 -63.5t-33.5 -51t-56 -32t-83 -12zM388 328v329h-77
q-74 0 -121 -41t-47 -123q0 -165 173 -165h72z" />
    <glyph glyph-name="periodcentered" unicode="&#xb7;" horiz-adv-x="309" 
d="M100 336q0 23 14.5 40t39.5 17q26 0 40.5 -15.5t14.5 -40.5t-15 -41t-41 -16q-25 0 -39 15.5t-14 40.5z" />
    <glyph glyph-name="cedilla" unicode="&#xb8;" horiz-adv-x="257" 
d="M66 -104v49q33 9 65 9q44 0 68.5 -23.5t24.5 -59.5q0 -60 -40.5 -89t-95.5 -29q-19 0 -38 4l-3 51q15 -4 39 -4q33 0 56 14t23 43q0 43 -48 43q-21 0 -51 -8z" />
    <glyph glyph-name="onesuperior" unicode="&#xb9;" horiz-adv-x="400" 
d="M86 409v52h79v309h-72v52h139v-361h81v-52h-227z" />
    <glyph glyph-name="ordmasculine" unicode="&#xba;" horiz-adv-x="375" 
d="M187 329q-43 0 -74 17t-47.5 46t-23.5 61.5t-7 69.5q0 86 40.5 141t119.5 55q150 0 150 -189q0 -83 -39 -142t-119 -59zM188 379q96 0 96 148q0 142 -91 142q-29 0 -49.5 -15t-30 -39.5t-13.5 -47t-4 -46.5q0 -61 21 -101.5t71 -40.5z" />
    <glyph glyph-name="guillemotright" unicode="&#xbb;" horiz-adv-x="537" 
d="M289 79l-45 42l161 158l-157 157l43 41l201 -200zM95 79l-45 42l161 158l-157 157l43 41l201 -200z" />
    <glyph glyph-name="onequarter" unicode="&#xbc;" horiz-adv-x="823" 
d="M254 0h-68l378 719h69zM43 309v52h79v309h-72v52h139v-361h81v-52h-227zM713 0h-64v93h-200v51l182 267h83v-266h60v-51h-61v-94zM511 145h138v208z" />
    <glyph glyph-name="onehalf" unicode="&#xbd;" horiz-adv-x="823" 
d="M226 0h-68l378 719h69zM22 309v52h79v309h-72v52h139v-361h81v-52h-227zM525 290l-52 26q21 43 61 73t93 30q58 0 95 -32.5t37 -91.5q0 -70 -56 -135q-51 -58 -113 -104h179v-56h-279v46q51 38 79.5 62t70.5 69q51 54 51 114q0 34 -20 52t-50 18q-56 0 -96 -71z" />
    <glyph glyph-name="threequarters" unicode="&#xbe;" horiz-adv-x="823" 
d="M277 0h-68l378 719h69zM98 611l-52 23q53 91 150 91q57 0 90.5 -27.5t33.5 -77.5q0 -32 -16.5 -59.5t-43.5 -41.5q66 -22 66 -90q0 -62 -41.5 -98t-110.5 -36q-81 0 -132 44l26 53q53 -43 109 -43q39 0 62 20t23 56q0 65 -74 65h-55v54h54q30 0 49.5 20t19.5 50
q0 57 -67 57q-53 0 -91 -60zM733 0h-64v93h-200v51l182 267h83v-266h60v-51h-61v-94zM531 145h138v208z" />
    <glyph glyph-name="questiondown" unicode="&#xbf;" horiz-adv-x="387" 
d="M297 337v-193q-101 -11 -147.5 -54.5t-46.5 -100.5q0 -61 36 -91.5t102 -30.5q39 0 75 8l11 -57q-36 -10 -92 -10q-97 0 -148.5 45.5t-51.5 132.5q0 76 51.5 130t145.5 74v147h65zM314 482q0 -21 -13 -35.5t-34 -14.5t-34 14.5t-13 35.5q0 22 13 36.5t34 14.5t34 -14.5
t13 -36.5z" />
    <glyph glyph-name="Agrave" unicode="&#xc0;" horiz-adv-x="606" 
d="M93 0h-68l223 719h102l231 -719h-69l-69 215h-282zM298 672l-120 -394h246zM386 812l-15 -45l-214 52l20 66z" />
    <glyph glyph-name="Aacute" unicode="&#xc1;" horiz-adv-x="606" 
d="M93 0h-68l223 719h102l231 -719h-69l-69 215h-282zM298 672l-120 -394h246zM229 767l-15 45l209 73l20 -66z" />
    <glyph glyph-name="Acircumflex" unicode="&#xc2;" horiz-adv-x="606" 
d="M93 0h-68l223 719h102l231 -719h-69l-69 215h-282zM298 672l-120 -394h246zM264 883h73l96 -94l-33 -29l-101 71l-100 -71l-32 33z" />
    <glyph glyph-name="Atilde" unicode="&#xc3;" horiz-adv-x="606" 
d="M93 0h-68l223 719h102l231 -719h-69l-69 215h-282zM298 672l-120 -394h246zM183 784l-17 52q15 15 41.5 26.5t50.5 11.5q18 0 52 -13.5t55 -13.5q31 0 62 22l7 -58q-29 -21 -71 -21q-23 0 -59.5 11t-49.5 11q-32 0 -71 -28z" />
    <glyph glyph-name="Adieresis" unicode="&#xc4;" horiz-adv-x="606" 
d="M93 0h-68l223 719h102l231 -719h-69l-69 215h-282zM298 672l-120 -394h246zM180 827q0 20 11 31.5t29 11.5q41 0 41 -43q0 -20 -11.5 -32t-29.5 -12q-19 0 -29.5 12t-10.5 32zM340 827q0 20 11 31.5t29 11.5q41 0 41 -43q0 -20 -11 -32t-30 -12t-29.5 12t-10.5 32z" />
    <glyph glyph-name="Aring" unicode="&#xc5;" horiz-adv-x="586" 
d="M191 807q0 42 28.5 71.5t70.5 29.5q45 0 72 -28.5t27 -68.5q0 -63 -49 -92l231 -719h-69l-69 215h-282l-68 -215h-68l222 717q-46 28 -46 90zM288 672l-120 -394h246zM235 807q0 -27 14.5 -44.5t40.5 -17.5t41 17.5t15 44.5q0 28 -15 44.5t-41 16.5q-27 0 -41 -16.5
t-14 -44.5z" />
    <glyph glyph-name="AE" unicode="&#xc6;" horiz-adv-x="836" 
d="M402 0v215h-211l-103 -215h-68l337 719h431v-62h-317v-252h276v-59h-276v-284h330v-62h-399zM217 278h185v391z" />
    <glyph glyph-name="Ccedilla" unicode="&#xc7;" horiz-adv-x="562" 
d="M336 50q94 0 175 54l17 -64q-28 -20 -81 -37t-118 -17t-113.5 21t-77.5 54.5t-46.5 83.5t-23.5 99.5t-6 110.5q0 80 10.5 142t36.5 118.5t78 87.5t129 31q56 0 96.5 -15t64 -42.5t36 -55t19.5 -62.5l-68 -17q-18 63 -49.5 97t-100.5 34q-40 0 -71 -13.5t-50 -40t-31 -56
t-17.5 -71t-7.5 -74.5t-2 -77q0 -142 47 -216.5t154 -74.5zM247 -104v49q33 9 65 9q44 0 68.5 -23.5t24.5 -59.5q0 -60 -40.5 -89t-95.5 -29q-19 0 -38 4l-3 51q15 -4 39 -4q33 0 56 14t23 43q0 43 -48 43q-21 0 -51 -8z" />
    <glyph glyph-name="Egrave" unicode="&#xc8;" horiz-adv-x="533" 
d="M99 0v719h386v-62h-317v-252h276v-62h-276v-280h330v-63h-399zM383 812l-15 -45l-214 52l20 66z" />
    <glyph glyph-name="Eacute" unicode="&#xc9;" horiz-adv-x="533" 
d="M99 0v719h386v-62h-317v-252h276v-62h-276v-280h330v-63h-399zM217 767l-15 45l209 73l20 -66z" />
    <glyph glyph-name="Ecircumflex" unicode="&#xca;" horiz-adv-x="533" 
d="M99 0v719h386v-62h-317v-252h276v-62h-276v-280h330v-63h-399zM263 883h73l96 -94l-33 -29l-101 71l-100 -71l-32 33z" />
    <glyph glyph-name="Edieresis" unicode="&#xcb;" horiz-adv-x="533" 
d="M99 0v719h386v-62h-317v-252h276v-62h-276v-280h330v-63h-399zM180 827q0 20 11 31.5t29 11.5q41 0 41 -43q0 -20 -11.5 -32t-29.5 -12q-19 0 -29.5 12t-10.5 32zM340 827q0 20 11 31.5t29 11.5q41 0 41 -43q0 -20 -11 -32t-30 -12t-29.5 12t-10.5 32z" />
    <glyph glyph-name="Igrave" unicode="&#xcc;" horiz-adv-x="267" 
d="M99 719h69v-719h-69v719zM208 812l-15 -45l-214 52l20 66z" />
    <glyph glyph-name="Iacute" unicode="&#xcd;" horiz-adv-x="267" 
d="M99 719h69v-719h-69v719zM69 767l-15 45l209 73l20 -66z" />
    <glyph glyph-name="Icircumflex" unicode="&#xce;" horiz-adv-x="267" 
d="M99 719h69v-719h-69v719zM95 883h73l96 -94l-33 -29l-101 71l-100 -71l-32 33z" />
    <glyph glyph-name="Idieresis" unicode="&#xcf;" horiz-adv-x="267" 
d="M99 719h69v-719h-69v719zM11 827q0 20 11 31.5t29 11.5q41 0 41 -43q0 -20 -11.5 -32t-29.5 -12q-19 0 -29.5 12t-10.5 32zM171 827q0 20 11 31.5t29 11.5q41 0 41 -43q0 -20 -11 -32t-30 -12t-29.5 12t-10.5 32z" />
    <glyph glyph-name="Eth" unicode="&#xd0;" horiz-adv-x="647" 
d="M36 330v60h82v329h210q126 0 195 -74t69 -252q0 -115 -22.5 -194.5t-64 -121.5t-90 -59.5t-110.5 -17.5h-187v330h-82zM187 659v-269h168v-60h-168v-268h128q104 1 154.5 75t50.5 239q0 150 -47.5 216.5t-143.5 66.5h-142z" />
    <glyph glyph-name="Ntilde" unicode="&#xd1;" horiz-adv-x="693" 
d="M527 720h67v-720h-67l-361 598v-598h-67v720h72l356 -593v593zM226 784l-17 52q15 15 41.5 26.5t50.5 11.5q19 0 52 -13.5t55 -13.5q31 0 62 22l7 -58q-29 -21 -71 -21q-23 0 -59.5 11t-49.5 11q-32 0 -71 -28z" />
    <glyph glyph-name="Ograve" unicode="&#xd2;" horiz-adv-x="654" 
d="M325 -14q-263 0 -263 385q0 179 72 271t201 92q132 0 194.5 -86.5t62.5 -270.5q0 -391 -267 -391zM520 376q0 162 -49 229t-139 67t-144 -71t-54 -230q0 -324 191 -324q44 0 77 14.5t61 49.5t42.5 101.5t14.5 163.5zM441 812l-15 -45l-214 52l20 66z" />
    <glyph glyph-name="Oacute" unicode="&#xd3;" horiz-adv-x="654" 
d="M325 -14q-263 0 -263 385q0 179 72 271t201 92q132 0 194.5 -86.5t62.5 -270.5q0 -391 -267 -391zM520 376q0 162 -49 229t-139 67t-144 -71t-54 -230q0 -324 191 -324q44 0 77 14.5t61 49.5t42.5 101.5t14.5 163.5zM259 767l-15 45l209 73l20 -66z" />
    <glyph glyph-name="Ocircumflex" unicode="&#xd4;" horiz-adv-x="654" 
d="M325 -14q-263 0 -263 385q0 179 72 271t201 92q132 0 194.5 -86.5t62.5 -270.5q0 -391 -267 -391zM520 376q0 162 -49 229t-139 67t-144 -71t-54 -230q0 -324 191 -324q44 0 77 14.5t61 49.5t42.5 101.5t14.5 163.5zM301 883h73l96 -94l-33 -29l-101 71l-100 -71l-32 33z
" />
    <glyph glyph-name="Otilde" unicode="&#xd5;" horiz-adv-x="654" 
d="M325 -14q-263 0 -263 385q0 179 72 271t201 92q132 0 194.5 -86.5t62.5 -270.5q0 -391 -267 -391zM520 376q0 162 -49 229t-139 67t-144 -71t-54 -230q0 -324 191 -324q44 0 77 14.5t61 49.5t42.5 101.5t14.5 163.5zM220 784l-17 52q15 15 41.5 26.5t50.5 11.5
q18 0 51.5 -13.5t55.5 -13.5q31 0 62 22l7 -58q-29 -21 -71 -21q-23 0 -59.5 11t-49.5 11q-32 0 -71 -28z" />
    <glyph glyph-name="Odieresis" unicode="&#xd6;" horiz-adv-x="654" 
d="M325 -14q-263 0 -263 385q0 179 72 271t201 92q132 0 194.5 -86.5t62.5 -270.5q0 -391 -267 -391zM520 376q0 162 -49 229t-139 67t-144 -71t-54 -230q0 -324 191 -324q44 0 77 14.5t61 49.5t42.5 101.5t14.5 163.5zM218 827q0 20 11 31.5t29 11.5q41 0 41 -43
q0 -20 -11.5 -32t-29.5 -12q-19 0 -29.5 12t-10.5 32zM378 827q0 20 11 31.5t29 11.5q41 0 41 -43q0 -20 -11 -32t-30 -12t-29.5 12t-10.5 32z" />
    <glyph glyph-name="multiply" unicode="&#xd7;" 
d="M42 136l180 179l-177 181l48 45l182 -186l186 184l44 -44l-176 -179l179 -180l-45 -44l-188 184l-189 -184z" />
    <glyph glyph-name="Oslash" unicode="&#xd8;" horiz-adv-x="633" 
d="M315 -10q-67 0 -118 25l-55 -115l-50 28l57 122q-87 87 -87 321q0 180 67.5 269.5t195.5 89.5q80 0 132 -31l49 104l53 -28l-56 -116q68 -82 68 -282q0 -111 -18.5 -188.5t-54.5 -119.5t-80 -60.5t-103 -18.5zM134 371q0 -176 48 -251l245 516q-39 32 -105 32
q-188 0 -188 -297zM500 376q0 135 -33 206l-242 -507q35 -24 90 -24q44 0 75.5 13.5t57.5 48t39 100.5t13 163z" />
    <glyph glyph-name="Ugrave" unicode="&#xd9;" horiz-adv-x="667" 
d="M165 719v-469q0 -84 16 -122q33 -75 151 -75q125 0 156 77q14 37 14 136v453h69v-472q0 -84 -12 -124q-44 -135 -227 -135q-178 0 -221 120q-15 42 -15 140v471h69zM421 812l-15 -45l-214 52l20 66z" />
    <glyph glyph-name="Uacute" unicode="&#xda;" horiz-adv-x="667" 
d="M165 719v-469q0 -84 16 -122q33 -75 151 -75q125 0 156 77q14 37 14 136v453h69v-472q0 -84 -12 -124q-44 -135 -227 -135q-178 0 -221 120q-15 42 -15 140v471h69zM268 768l-15 45l209 73l20 -66z" />
    <glyph glyph-name="Ucircumflex" unicode="&#xdb;" horiz-adv-x="667" 
d="M165 719v-469q0 -84 16 -122q33 -75 151 -75q125 0 156 77q14 37 14 136v453h69v-472q0 -84 -12 -124q-44 -135 -227 -135q-178 0 -221 120q-15 42 -15 140v471h69zM309 883h73l96 -94l-33 -29l-101 71l-100 -71l-32 33z" />
    <glyph glyph-name="Udieresis" unicode="&#xdc;" horiz-adv-x="667" 
d="M165 719v-469q0 -84 16 -122q33 -75 151 -75q125 0 156 77q14 37 14 136v453h69v-472q0 -84 -12 -124q-44 -135 -227 -135q-178 0 -221 120q-15 42 -15 140v471h69zM217 828q0 20 11 31.5t29 11.5q41 0 41 -43q0 -20 -11.5 -32t-29.5 -12q-19 0 -29.5 12t-10.5 32z
M377 828q0 20 11 31.5t29 11.5q41 0 41 -43q0 -20 -11 -32t-30 -12t-29.5 12t-10.5 32z" />
    <glyph glyph-name="Yacute" unicode="&#xdd;" horiz-adv-x="563" 
d="M286 363l188 356h74l-228 -420v-299h-71v296l-234 423h77zM223 767l-15 45l209 73l20 -66z" />
    <glyph glyph-name="Thorn" unicode="&#xde;" horiz-adv-x="603" 
d="M324 181h-156v-181h-69v719h69v-111h160q107 0 168.5 -50t61.5 -148q0 -104 -63.5 -166.5t-170.5 -62.5zM168 242h150q82 0 125.5 42t43.5 118q0 79 -43.5 111.5t-126.5 32.5h-149v-304z" />
    <glyph glyph-name="germandbls" unicode="&#xdf;" horiz-adv-x="568" 
d="M151 540v-540h-65v543q0 89 54.5 133t142.5 44q51 0 88 -13t57.5 -33t32.5 -52t15 -61t3 -70v-32h-44q-106 0 -106 -81q0 -23 11 -40.5t24 -27t36 -22.5q65 -35 84 -54q39 -37 39 -94q0 -67 -45.5 -108.5t-122.5 -41.5q-45 0 -81.5 12t-52.5 26l18 60q53 -42 116 -42
q45 0 73.5 21t28.5 64q0 37 -19.5 58.5t-57.5 40.5q-63 32 -84 53q-33 34 -33 90q0 67 42.5 100.5t111.5 36.5v23q0 134 -138 134q-128 0 -128 -127z" />
    <glyph glyph-name="agrave" unicode="&#xe0;" horiz-adv-x="509" 
d="M96 462l-7 59q65 18 151 18q166 0 166 -164v-283q0 -24 8.5 -34t28.5 -10q16 0 43 10l6 -55q-41 -13 -66 -13q-35 0 -56 18.5t-24 45.5q-72 -64 -152 -64q-73 0 -111 46t-38 117q0 93 53.5 137.5t149.5 44.5q48 0 92 -10v38q0 62 -27 90t-94 28q-63 0 -123 -19zM340 107
l1 166q-44 11 -82 11q-72 0 -107.5 -30t-35.5 -99q0 -46 23.5 -76t69.5 -30q69 0 131 58zM316 625l-27 -41l-204 119l39 60z" />
    <glyph glyph-name="aacute" unicode="&#xe1;" horiz-adv-x="509" 
d="M96 462l-7 59q65 18 151 18q166 0 166 -164v-283q0 -24 8.5 -34t28.5 -10q16 0 43 10l6 -55q-41 -13 -66 -13q-35 0 -56 18.5t-24 45.5q-72 -64 -152 -64q-73 0 -111 46t-38 117q0 93 53.5 137.5t149.5 44.5q48 0 92 -10v38q0 62 -27 90t-94 28q-63 0 -123 -19zM340 107
l1 166q-44 11 -82 11q-72 0 -107.5 -30t-35.5 -99q0 -46 23.5 -76t69.5 -30q69 0 131 58zM196 579l-27 41l192 138l39 -60z" />
    <glyph glyph-name="acircumflex" unicode="&#xe2;" horiz-adv-x="509" 
d="M96 462l-7 59q65 18 151 18q166 0 166 -164v-283q0 -24 8.5 -34t28.5 -10q16 0 43 10l6 -55q-41 -13 -66 -13q-35 0 -56 18.5t-24 45.5q-72 -64 -152 -64q-73 0 -111 46t-38 117q0 93 53.5 137.5t149.5 44.5q48 0 92 -10v38q0 62 -27 90t-94 28q-63 0 -123 -19zM340 107
l1 166q-44 11 -82 11q-72 0 -107.5 -30t-35.5 -99q0 -46 23.5 -76t69.5 -30q69 0 131 58zM209 744h73l93 -132l-40 -29l-91 109l-90 -108l-43 28z" />
    <glyph glyph-name="atilde" unicode="&#xe3;" horiz-adv-x="509" 
d="M96 462l-7 59q65 18 151 18q166 0 166 -164v-283q0 -24 8.5 -34t28.5 -10q16 0 43 10l6 -55q-41 -13 -66 -13q-35 0 -56 18.5t-24 45.5q-72 -64 -152 -64q-73 0 -111 46t-38 117q0 93 53.5 137.5t149.5 44.5q48 0 92 -10v38q0 62 -27 90t-94 28q-63 0 -123 -19zM340 107
l1 166q-44 11 -82 11q-72 0 -107.5 -30t-35.5 -99q0 -46 23.5 -76t69.5 -30q69 0 131 58zM128 607l-17 52q15 15 41.5 26.5t50.5 11.5q19 0 52 -13.5t55 -13.5q31 0 62 22l7 -58q-29 -21 -71 -21q-23 0 -59.5 11t-49.5 11q-32 0 -71 -28z" />
    <glyph glyph-name="adieresis" unicode="&#xe4;" horiz-adv-x="509" 
d="M96 462l-7 59q65 18 151 18q166 0 166 -164v-283q0 -24 8.5 -34t28.5 -10q16 0 43 10l6 -55q-41 -13 -66 -13q-35 0 -56 18.5t-24 45.5q-72 -64 -152 -64q-73 0 -111 46t-38 117q0 93 53.5 137.5t149.5 44.5q48 0 92 -10v38q0 62 -27 90t-94 28q-63 0 -123 -19zM340 107
l1 166q-44 11 -82 11q-72 0 -107.5 -30t-35.5 -99q0 -46 23.5 -76t69.5 -30q69 0 131 58zM121 655q0 20 11 31.5t29 11.5q41 0 41 -43q0 -20 -11.5 -32t-29.5 -12q-19 0 -29.5 12t-10.5 32zM281 655q0 20 11 31.5t29 11.5q41 0 41 -43q0 -20 -11 -32t-30 -12t-29.5 12
t-10.5 32z" />
    <glyph glyph-name="aring" unicode="&#xe5;" horiz-adv-x="509" 
d="M96 462l-7 59q65 18 151 18q166 0 166 -164v-283q0 -24 8.5 -34t28.5 -10q16 0 43 10l6 -55q-41 -13 -66 -13q-35 0 -56 18.5t-24 45.5q-72 -64 -152 -64q-73 0 -111 46t-38 117q0 93 53.5 137.5t149.5 44.5q48 0 92 -10v38q0 62 -27 90t-94 28q-63 0 -123 -19zM340 107
l1 166q-44 11 -82 11q-72 0 -107.5 -30t-35.5 -99q0 -46 23.5 -76t69.5 -30q69 0 131 58zM138 682q0 42 28.5 71.5t70.5 29.5q45 0 72 -28.5t27 -68.5q0 -45 -28.5 -75.5t-72.5 -30.5q-45 0 -71 29t-26 73zM182 682q0 -27 14.5 -44.5t40.5 -17.5t41 17.5t15 44.5
q0 28 -15 44.5t-41 16.5q-27 0 -41 -16.5t-14 -44.5z" />
    <glyph glyph-name="ae" unicode="&#xe6;" horiz-adv-x="761" 
d="M711 267h-305q0 -109 36 -163.5t114 -54.5q69 0 141 38l6 -60q-67 -37 -155 -37q-115 0 -167 81q-79 -81 -180 -81q-80 0 -118 45.5t-38 117.5q0 93 53.5 137.5t149.5 44.5q48 0 92 -10v38q0 62 -27 90t-94 28q-63 0 -123 -19l-6 56q72 20 150 20q111 0 144 -81
q54 82 152 82q175 0 175 -237v-35zM214 49q81 0 143 71q-20 59 -20 154q-45 10 -78 10q-72 0 -107.5 -30t-35.5 -99q0 -47 23.5 -76.5t74.5 -29.5zM642 320q0 161 -110 161q-61 0 -93 -48t-32 -113h235z" />
    <glyph glyph-name="ccedilla" unicode="&#xe7;" horiz-adv-x="443" 
d="M268 46q66 0 135 38l8 -60q-68 -36 -146 -36q-61 0 -104.5 24t-65.5 65.5t-31 86t-9 96.5q0 279 197 279q137 0 166 -139l-58 -23q-28 103 -112 103q-124 0 -124 -220q0 -101 35.5 -157.5t108.5 -56.5zM179 -103v49q33 9 65 9q44 0 68.5 -23.5t24.5 -59.5
q0 -60 -40.5 -89t-95.5 -29q-19 0 -38 4l-3 51q15 -4 39 -4q33 0 56 14t23 43q0 43 -48 43q-21 0 -51 -8z" />
    <glyph glyph-name="egrave" unicode="&#xe8;" horiz-adv-x="479" 
d="M429 257h-305q0 -210 150 -210q69 0 141 38l6 -60q-67 -37 -155 -37q-211 0 -211 281q0 139 53 204.5t146 65.5q91 0 133 -62.5t42 -184.5v-35zM360 310q0 84 -28.5 127.5t-81.5 43.5q-61 0 -93 -51.5t-32 -119.5h235zM335 623l-27 -41l-204 119l39 60z" />
    <glyph glyph-name="eacute" unicode="&#xe9;" horiz-adv-x="479" 
d="M429 257h-305q0 -210 150 -210q69 0 141 38l6 -60q-67 -37 -155 -37q-211 0 -211 281q0 139 53 204.5t146 65.5q91 0 133 -62.5t42 -184.5v-35zM360 310q0 84 -28.5 127.5t-81.5 43.5q-61 0 -93 -51.5t-32 -119.5h235zM197 584l-27 41l192 138l39 -60z" />
    <glyph glyph-name="ecircumflex" unicode="&#xea;" horiz-adv-x="479" 
d="M429 257h-305q0 -210 150 -210q69 0 141 38l6 -60q-67 -37 -155 -37q-211 0 -211 281q0 139 53 204.5t146 65.5q91 0 133 -62.5t42 -184.5v-35zM360 310q0 84 -28.5 127.5t-81.5 43.5q-61 0 -93 -51.5t-32 -119.5h235zM215 744h73l93 -132l-40 -29l-91 109l-90 -108
l-43 28z" />
    <glyph glyph-name="edieresis" unicode="&#xeb;" horiz-adv-x="479" 
d="M429 257h-305q0 -210 150 -210q69 0 141 38l6 -60q-67 -37 -155 -37q-211 0 -211 281q0 139 53 204.5t146 65.5q91 0 133 -62.5t42 -184.5v-35zM360 310q0 84 -28.5 127.5t-81.5 43.5q-61 0 -93 -51.5t-32 -119.5h235zM126 655q0 20 11 31.5t29 11.5q41 0 41 -43
q0 -20 -11.5 -32t-29.5 -12q-19 0 -29.5 12t-10.5 32zM286 655q0 20 11 31.5t29 11.5q41 0 41 -43q0 -20 -11 -32t-30 -12t-29.5 12t-10.5 32z" />
    <glyph glyph-name="igrave" unicode="&#xec;" horiz-adv-x="239" 
d="M86 528h67v-528h-67v528zM196 625l-27 -41l-204 119l39 60z" />
    <glyph glyph-name="iacute" unicode="&#xed;" horiz-adv-x="239" 
d="M86 528h67v-528h-67v528zM73 584l-27 41l192 138l39 -60z" />
    <glyph glyph-name="icircumflex" unicode="&#xee;" horiz-adv-x="239" 
d="M82 744h73l93 -132l-40 -29l-91 109l-90 -108l-43 28zM86 528h67v-528h-67v528z" />
    <glyph glyph-name="idieresis" unicode="&#xef;" horiz-adv-x="239" 
d="M-2 655q0 20 11 31.5t29 11.5q41 0 41 -43q0 -20 -11.5 -32t-29.5 -12q-19 0 -29.5 12t-10.5 32zM158 655q0 20 11 31.5t29 11.5q41 0 41 -43q0 -20 -11 -32t-30 -12t-29.5 12t-10.5 32zM86 528h67v-528h-67v528z" />
    <glyph glyph-name="eth" unicode="&#xf0;" horiz-adv-x="511" 
d="M250 -10q-57 0 -97 22.5t-61 61.5t-30 82.5t-9 94.5q0 115 53.5 191.5t152.5 76.5q54 0 96 -25q-30 82 -89 134l-101 -63l-30 43l82 53q-41 24 -113 40l10 55q88 -12 164 -56l92 58l33 -44l-79 -50q132 -125 132 -382q0 -292 -206 -292zM252 48q135 0 135 209
q0 110 -22 167q-36 36 -102 36q-42 0 -72 -21t-44 -55.5t-19.5 -67t-5.5 -67.5q0 -201 130 -201z" />
    <glyph glyph-name="ntilde" unicode="&#xf1;" horiz-adv-x="554" 
d="M326 539q119 0 139 -104q3 -17 3 -65v-370h-66v361q0 35 -3 54q-12 63 -92 63q-73 0 -154 -77v-401h-67v528h67v-66q85 77 173 77zM181 607l-17 52q15 15 41.5 26.5t50.5 11.5q18 0 52 -13.5t55 -13.5q31 0 62 22l7 -58q-29 -21 -71 -21q-23 0 -59.5 11t-49.5 11
q-32 0 -71 -28z" />
    <glyph glyph-name="ograve" unicode="&#xf2;" horiz-adv-x="513" 
d="M252 -12q-56 0 -96.5 24t-61.5 66t-30 86.5t-9 96.5q0 122 52.5 200t156.5 78q194 0 194 -268q0 -54 -11 -102t-34 -90t-64.5 -66.5t-96.5 -24.5zM254 46q40 0 68 20t41.5 54t19.5 70t6 77q0 213 -128 213q-41 0 -69.5 -22.5t-42.5 -59t-19.5 -70.5t-5.5 -69
q0 -58 10.5 -103t41 -77.5t78.5 -32.5zM342 625l-27 -41l-204 119l39 60z" />
    <glyph glyph-name="oacute" unicode="&#xf3;" horiz-adv-x="513" 
d="M252 -12q-56 0 -96.5 24t-61.5 66t-30 86.5t-9 96.5q0 122 52.5 200t156.5 78q194 0 194 -268q0 -54 -11 -102t-34 -90t-64.5 -66.5t-96.5 -24.5zM254 46q40 0 68 20t41.5 54t19.5 70t6 77q0 213 -128 213q-41 0 -69.5 -22.5t-42.5 -59t-19.5 -70.5t-5.5 -69
q0 -58 10.5 -103t41 -77.5t78.5 -32.5zM221 584l-27 41l192 138l39 -60z" />
    <glyph glyph-name="ocircumflex" unicode="&#xf4;" horiz-adv-x="513" 
d="M252 -12q-56 0 -96.5 24t-61.5 66t-30 86.5t-9 96.5q0 122 52.5 200t156.5 78q194 0 194 -268q0 -54 -11 -102t-34 -90t-64.5 -66.5t-96.5 -24.5zM254 46q40 0 68 20t41.5 54t19.5 70t6 77q0 213 -128 213q-41 0 -69.5 -22.5t-42.5 -59t-19.5 -70.5t-5.5 -69
q0 -58 10.5 -103t41 -77.5t78.5 -32.5zM234 744h73l93 -132l-40 -29l-91 109l-90 -108l-43 28z" />
    <glyph glyph-name="otilde" unicode="&#xf5;" horiz-adv-x="513" 
d="M252 -12q-56 0 -96.5 24t-61.5 66t-30 86.5t-9 96.5q0 122 52.5 200t156.5 78q194 0 194 -268q0 -54 -11 -102t-34 -90t-64.5 -66.5t-96.5 -24.5zM254 46q40 0 68 20t41.5 54t19.5 70t6 77q0 213 -128 213q-41 0 -69.5 -22.5t-42.5 -59t-19.5 -70.5t-5.5 -69
q0 -58 10.5 -103t41 -77.5t78.5 -32.5zM151 607l-17 52q15 15 41.5 26.5t50.5 11.5q18 0 52 -13.5t55 -13.5q31 0 62 22l7 -58q-29 -21 -71 -21q-23 0 -59.5 11t-49.5 11q-32 0 -71 -28z" />
    <glyph glyph-name="odieresis" unicode="&#xf6;" horiz-adv-x="513" 
d="M252 -12q-56 0 -96.5 24t-61.5 66t-30 86.5t-9 96.5q0 122 52.5 200t156.5 78q194 0 194 -268q0 -54 -11 -102t-34 -90t-64.5 -66.5t-96.5 -24.5zM254 46q40 0 68 20t41.5 54t19.5 70t6 77q0 213 -128 213q-41 0 -69.5 -22.5t-42.5 -59t-19.5 -70.5t-5.5 -69
q0 -58 10.5 -103t41 -77.5t78.5 -32.5zM147 655q0 20 11 31.5t29 11.5q41 0 41 -43q0 -20 -11.5 -32t-29.5 -12q-19 0 -29.5 12t-10.5 32zM307 655q0 20 11 31.5t29 11.5q41 0 41 -43q0 -20 -11 -32t-30 -12t-29.5 12t-10.5 32z" />
    <glyph glyph-name="divide" unicode="&#xf7;" 
d="M217 462q0 22 13.5 38t37.5 16t38 -14.5t14 -38.5q0 -23 -14.5 -38.5t-38.5 -15.5t-37 14.5t-13 38.5zM217 167q0 22 13.5 38t37.5 16t38 -14.5t14 -38.5q0 -23 -14.5 -38.5t-38.5 -15.5t-37 14.5t-13 38.5zM499 289v59h-449v-59h449z" />
    <glyph glyph-name="oslash" unicode="&#xf8;" horiz-adv-x="513" 
d="M252 -10q-45 0 -82 16l-40 -82l-47 23l43 90q-71 68 -71 224q0 122 52.5 200t156.5 78q53 0 93 -21l35 73l50 -25l-41 -84q57 -68 57 -211q0 -54 -11 -101.5t-34 -89t-64.5 -66t-96.5 -24.5zM124 259q0 -104 33 -157l171 357q-27 21 -67 21q-41 0 -69.5 -22.5t-42.5 -59
t-19.5 -70.5t-5.5 -69zM254 48q40 0 68 19.5t41.5 53.5t19.5 69.5t6 76.5q0 88 -24 142l-168 -347q25 -14 57 -14z" />
    <glyph glyph-name="ugrave" unicode="&#xf9;" horiz-adv-x="547" 
d="M220 -10q-120 0 -138 103q-4 23 -4 65v361l66 9v-361q0 -38 4 -54q10 -64 88 -64q74 0 157 78v401h68v-528h-68v65q-87 -75 -173 -75zM363 625l-27 -41l-204 119l39 60z" />
    <glyph glyph-name="uacute" unicode="&#xfa;" horiz-adv-x="547" 
d="M220 -10q-120 0 -138 103q-4 23 -4 65v361l66 9v-361q0 -38 4 -54q10 -64 88 -64q74 0 157 78v401h68v-528h-68v65q-87 -75 -173 -75zM236 584l-27 41l192 138l39 -60z" />
    <glyph glyph-name="ucircumflex" unicode="&#xfb;" horiz-adv-x="547" 
d="M220 -10q-120 0 -138 103q-4 23 -4 65v361l66 9v-361q0 -38 4 -54q10 -64 88 -64q74 0 157 78v401h68v-528h-68v65q-87 -75 -173 -75zM251 744h73l93 -132l-40 -29l-91 109l-90 -108l-43 28z" />
    <glyph glyph-name="udieresis" unicode="&#xfc;" horiz-adv-x="547" 
d="M220 -10q-120 0 -138 103q-4 23 -4 65v361l66 9v-361q0 -38 4 -54q10 -64 88 -64q74 0 157 78v401h68v-528h-68v65q-87 -75 -173 -75zM161 655q0 20 11 31.5t29 11.5q41 0 41 -43q0 -20 -11.5 -32t-29.5 -12q-19 0 -29.5 12t-10.5 32zM321 655q0 20 11 31.5t29 11.5
q41 0 41 -43q0 -20 -11 -32t-30 -12t-29.5 12t-10.5 32z" />
    <glyph glyph-name="yacute" unicode="&#xfd;" horiz-adv-x="456" 
d="M372 528l66 -7q-80 -296 -172 -516q-50 -120 -94.5 -172t-122.5 -52q-73 0 -134 36l19 61q66 -38 116 -38q51 0 81 39t64 129l-184 513l72 7l151 -440q46 110 138 440zM201 584l-27 41l192 138l39 -60z" />
    <glyph glyph-name="thorn" unicode="&#xfe;" horiz-adv-x="529" 
d="M86 720h66v-250q97 68 159 68q74 0 116.5 -58t42.5 -173q0 -92 -18.5 -160.5t-65.5 -112.5t-119 -44q-62 0 -114 33v-232h-67v929zM152 414v-323q54 -42 121 -42q44 0 73.5 37t40 86.5t10.5 108.5q0 110 -26.5 152t-76.5 42q-55 0 -142 -61z" />
    <glyph glyph-name="ydieresis" unicode="&#xff;" horiz-adv-x="456" 
d="M372 528l66 -7q-80 -296 -172 -516q-50 -120 -94.5 -172t-122.5 -52q-73 0 -134 36l19 61q66 -38 116 -38q51 0 81 39t64 129l-184 513l72 7l151 -440q46 110 138 440zM106 655q0 20 11 31.5t29 11.5q41 0 41 -43q0 -20 -11.5 -32t-29.5 -12q-19 0 -29.5 12t-10.5 32z
M266 655q0 20 11 31.5t29 11.5q41 0 41 -43q0 -20 -11 -32t-30 -12t-29.5 12t-10.5 32z" />
    <glyph glyph-name="Amacron" unicode="&#x100;" horiz-adv-x="606" 
d="M93 0h-68l223 719h102l231 -719h-69l-69 215h-282zM298 672l-120 -394h246zM159 793v60h281v-60h-281z" />
    <glyph glyph-name="amacron" unicode="&#x101;" horiz-adv-x="509" 
d="M96 462l-7 59q65 18 151 18q166 0 166 -164v-283q0 -24 8.5 -34t28.5 -10q16 0 43 10l6 -55q-41 -13 -66 -13q-35 0 -56 18.5t-24 45.5q-72 -64 -152 -64q-73 0 -111 46t-38 117q0 93 53.5 137.5t149.5 44.5q48 0 92 -10v38q0 62 -27 90t-94 28q-63 0 -123 -19zM340 107
l1 166q-44 11 -82 11q-72 0 -107.5 -30t-35.5 -99q0 -46 23.5 -76t69.5 -30q69 0 131 58zM99 623v60h281v-60h-281z" />
    <glyph glyph-name="Abreve" unicode="&#x102;" horiz-adv-x="606" 
d="M93 0h-68l223 719h102l231 -719h-69l-69 215h-282zM298 672l-120 -394h246zM405 925l45 -31q-19 -44 -57 -79t-96 -35q-56 0 -91 34t-52 76l49 34q40 -86 97 -86q26 0 47 14.5t32 30t26 42.5z" />
    <glyph glyph-name="abreve" unicode="&#x103;" horiz-adv-x="509" 
d="M96 462l-7 59q65 18 151 18q166 0 166 -164v-283q0 -24 8.5 -34t28.5 -10q16 0 43 10l6 -55q-41 -13 -66 -13q-35 0 -56 18.5t-24 45.5q-72 -64 -152 -64q-73 0 -111 46t-38 117q0 93 53.5 137.5t149.5 44.5q48 0 92 -10v38q0 62 -27 90t-94 28q-63 0 -123 -19zM340 107
l1 166q-44 11 -82 11q-72 0 -107.5 -30t-35.5 -99q0 -46 23.5 -76t69.5 -30q69 0 131 58zM354 729l45 -31q-19 -44 -57 -79t-96 -35q-56 0 -91 34t-52 76l49 34q40 -86 97 -86q26 0 47 14.5t32 30t26 42.5z" />
    <glyph glyph-name="Aogonek" unicode="&#x104;" horiz-adv-x="606" 
d="M511 3l-68 212h-282l-68 -215h-68l223 719h102l231 -719q-77 -62 -77 -110q0 -44 40 -44q27 0 53 14l9 -56q-33 -15 -77 -15q-45 0 -69.5 22t-24.5 61q0 73 76 131zM298 672l-120 -394h246z" />
    <glyph glyph-name="aogonek" unicode="&#x105;" horiz-adv-x="509" 
d="M96 462l-7 59q65 18 151 18q166 0 166 -164v-283q0 -24 8.5 -34t28.5 -10q16 0 43 10l6 -55q-78 -62 -78 -113q0 -44 40 -44q27 0 53 14l9 -56q-33 -15 -77 -15q-45 0 -69.5 22t-24.5 61q0 67 62 120q-27 5 -43 22t-18 40q-72 -64 -152 -64q-73 0 -111 46t-38 117
q0 93 53.5 137.5t149.5 44.5q48 0 92 -10v38q0 62 -27 90t-94 28q-63 0 -123 -19zM340 107l1 166q-44 11 -82 11q-72 0 -107.5 -30t-35.5 -99q0 -46 23.5 -76t69.5 -30q69 0 131 58z" />
    <glyph glyph-name="Cacute" unicode="&#x106;" horiz-adv-x="562" 
d="M336 50q94 0 175 54l17 -64q-28 -20 -81 -37t-118 -17t-113.5 21t-77.5 54.5t-46.5 83.5t-23.5 99.5t-6 110.5q0 80 10.5 142t36.5 118.5t78 87.5t129 31q56 0 96.5 -15t64 -42.5t36 -55t19.5 -62.5l-68 -17q-18 63 -49.5 97t-100.5 34q-40 0 -71 -13.5t-50 -40t-31 -56
t-17.5 -71t-7.5 -74.5t-2 -77q0 -142 47 -216.5t154 -74.5zM244 767l-15 45l209 73l20 -66z" />
    <glyph glyph-name="cacute" unicode="&#x107;" horiz-adv-x="443" 
d="M268 46q66 0 135 38l8 -60q-68 -36 -146 -36q-61 0 -104.5 24t-65.5 65.5t-31 86t-9 96.5q0 279 197 279q137 0 166 -139l-58 -23q-28 103 -112 103q-124 0 -124 -220q0 -101 35.5 -157.5t108.5 -56.5zM201 584l-27 41l192 138l39 -60z" />
    <glyph glyph-name="Ccircumflex" unicode="&#x108;" horiz-adv-x="562" 
d="M336 50q94 0 175 54l17 -64q-28 -20 -81 -37t-118 -17t-113.5 21t-77.5 54.5t-46.5 83.5t-23.5 99.5t-6 110.5q0 80 10.5 142t36.5 118.5t78 87.5t129 31q56 0 96.5 -15t64 -42.5t36 -55t19.5 -62.5l-68 -17q-18 63 -49.5 97t-100.5 34q-40 0 -71 -13.5t-50 -40t-31 -56
t-17.5 -71t-7.5 -74.5t-2 -77q0 -142 47 -216.5t154 -74.5zM283 883h73l96 -94l-33 -29l-101 71l-100 -71l-32 33z" />
    <glyph glyph-name="ccircumflex" unicode="&#x109;" horiz-adv-x="443" 
d="M268 46q66 0 135 38l8 -60q-68 -36 -146 -36q-61 0 -104.5 24t-65.5 65.5t-31 86t-9 96.5q0 279 197 279q137 0 166 -139l-58 -23q-28 103 -112 103q-124 0 -124 -220q0 -101 35.5 -157.5t108.5 -56.5zM217 744h73l93 -132l-40 -29l-91 109l-90 -108l-43 28z" />
    <glyph glyph-name="Cdotaccent" unicode="&#x10a;" horiz-adv-x="562" 
d="M336 50q94 0 175 54l17 -64q-28 -20 -81 -37t-118 -17t-113.5 21t-77.5 54.5t-46.5 83.5t-23.5 99.5t-6 110.5q0 80 10.5 142t36.5 118.5t78 87.5t129 31q56 0 96.5 -15t64 -42.5t36 -55t19.5 -62.5l-68 -17q-18 63 -49.5 97t-100.5 34q-40 0 -71 -13.5t-50 -40t-31 -56
t-17.5 -71t-7.5 -74.5t-2 -77q0 -142 47 -216.5t154 -74.5zM277 833q0 21 12 32.5t31 11.5q44 0 44 -45q0 -22 -12 -34.5t-32 -12.5q-19 0 -31 13t-12 35z" />
    <glyph glyph-name="cdotaccent" unicode="&#x10b;" horiz-adv-x="443" 
d="M268 46q66 0 135 38l8 -60q-68 -36 -146 -36q-61 0 -104.5 24t-65.5 65.5t-31 86t-9 96.5q0 279 197 279q137 0 166 -139l-58 -23q-28 103 -112 103q-124 0 -124 -220q0 -101 35.5 -157.5t108.5 -56.5zM208 664q0 21 12 32.5t31 11.5q44 0 44 -45q0 -22 -12 -34.5
t-32 -12.5q-19 0 -31 13t-12 35z" />
    <glyph glyph-name="Ccaron" unicode="&#x10c;" horiz-adv-x="562" 
d="M336 50q94 0 175 54l17 -64q-28 -20 -81 -37t-118 -17t-113.5 21t-77.5 54.5t-46.5 83.5t-23.5 99.5t-6 110.5q0 80 10.5 142t36.5 118.5t78 87.5t129 31q56 0 96.5 -15t64 -42.5t36 -55t19.5 -62.5l-68 -17q-18 63 -49.5 97t-100.5 34q-40 0 -71 -13.5t-50 -40t-31 -56
t-17.5 -71t-7.5 -74.5t-2 -77q0 -142 47 -216.5t154 -74.5zM355 767h-73l-96 94l33 29l101 -71l100 71l32 -33z" />
    <glyph glyph-name="ccaron" unicode="&#x10d;" horiz-adv-x="443" 
d="M268 46q66 0 135 38l8 -60q-68 -36 -146 -36q-61 0 -104.5 24t-65.5 65.5t-31 86t-9 96.5q0 279 197 279q137 0 166 -139l-58 -23q-28 103 -112 103q-124 0 -124 -220q0 -101 35.5 -157.5t108.5 -56.5zM289 584h-73l-98 132l43 28l91 -108l90 109l40 -29z" />
    <glyph glyph-name="Dcaron" unicode="&#x10e;" horiz-adv-x="628" 
d="M99 0v719h210q126 0 195 -74t69 -252q0 -115 -22.5 -194.5t-64 -121.5t-90 -59.5t-110.5 -17.5h-187zM168 659v-597h128q104 1 154.5 75t50.5 239q0 150 -47.5 216.5t-143.5 66.5h-142zM324 767h-73l-96 94l33 29l101 -71l100 71l32 -33z" />
    <glyph glyph-name="dcaron" unicode="&#x10f;" horiz-adv-x="576" 
d="M249 539q57 0 125 -46v226h67v-719h-63v55q-67 -65 -142 -65q-83 0 -132 67t-49 199q0 53 10.5 100.5t32 90t60.5 67.5t91 25zM125 252q0 -97 34 -150t89 -53q69 0 127 68v310q-67 52 -120 52q-130 0 -130 -227zM511 719h65l-20 -204h-45v204z" />
    <glyph glyph-name="Dcroat" unicode="&#x110;" horiz-adv-x="647" 
d="M36 330v60h82v329h210q126 0 195 -74t69 -252q0 -115 -22.5 -194.5t-64 -121.5t-90 -59.5t-110.5 -17.5h-187v330h-82zM187 659v-269h168v-60h-168v-268h128q104 1 154.5 75t50.5 239q0 150 -47.5 216.5t-143.5 66.5h-142z" />
    <glyph glyph-name="dcroat" unicode="&#x111;" horiz-adv-x="527" 
d="M249 519q57 0 125 -46v127h-200v60h200v59h67v-59h69v-60h-69v-600h-63v55q-67 -65 -142 -65q-84 0 -132.5 62.5t-48.5 193.5q0 72 17.5 130.5t62.5 100.5t114 42zM125 242q0 -96 33.5 -144.5t89.5 -48.5q69 0 127 68v290q-67 52 -120 52q-130 0 -130 -217z" />
    <glyph glyph-name="Emacron" unicode="&#x112;" horiz-adv-x="533" 
d="M99 0v719h386v-62h-317v-252h276v-62h-276v-280h330v-63h-399zM153 793v60h281v-60h-281z" />
    <glyph glyph-name="emacron" unicode="&#x113;" horiz-adv-x="479" 
d="M429 257h-305q0 -210 150 -210q69 0 141 38l6 -60q-67 -37 -155 -37q-211 0 -211 281q0 139 53 204.5t146 65.5q91 0 133 -62.5t42 -184.5v-35zM360 310q0 84 -28.5 127.5t-81.5 43.5q-61 0 -93 -51.5t-32 -119.5h235zM110 623v60h281v-60h-281z" />
    <glyph glyph-name="Ebreve" unicode="&#x114;" horiz-adv-x="533" 
d="M99 0v719h386v-62h-317v-252h276v-62h-276v-280h330v-63h-399zM397 925l45 -31q-19 -44 -57 -79t-96 -35q-56 0 -91 34t-52 76l49 34q40 -86 97 -86q26 0 47 14.5t32 30t26 42.5z" />
    <glyph glyph-name="ebreve" unicode="&#x115;" horiz-adv-x="479" 
d="M429 257h-305q0 -210 150 -210q69 0 141 38l6 -60q-67 -37 -155 -37q-211 0 -211 281q0 139 53 204.5t146 65.5q91 0 133 -62.5t42 -184.5v-35zM360 310q0 84 -28.5 127.5t-81.5 43.5q-61 0 -93 -51.5t-32 -119.5h235zM363 729l45 -31q-19 -44 -57 -79t-96 -35
q-56 0 -91 34t-52 76l49 34q40 -86 97 -86q26 0 47 14.5t32 30t26 42.5z" />
    <glyph glyph-name="Edotaccent" unicode="&#x116;" horiz-adv-x="533" 
d="M99 0v719h386v-62h-317v-252h276v-62h-276v-280h330v-63h-399zM252 833q0 21 12 32.5t31 11.5q44 0 44 -45q0 -22 -12 -34.5t-32 -12.5q-19 0 -31 13t-12 35z" />
    <glyph glyph-name="edotaccent" unicode="&#x117;" horiz-adv-x="479" 
d="M429 257h-305q0 -210 150 -210q69 0 141 38l6 -60q-67 -37 -155 -37q-211 0 -211 281q0 139 53 204.5t146 65.5q91 0 133 -62.5t42 -184.5v-35zM360 310q0 84 -28.5 127.5t-81.5 43.5q-61 0 -93 -51.5t-32 -119.5h235zM212 664q0 21 12 32.5t31 11.5q44 0 44 -45
q0 -22 -12 -34.5t-32 -12.5q-19 0 -31 13t-12 35z" />
    <glyph glyph-name="Eogonek" unicode="&#x118;" horiz-adv-x="533" 
d="M99 0v719h386v-62h-317v-252h276v-62h-276v-280h330v-63q-89 -52 -89 -110q0 -44 40 -44q27 0 53 14l9 -56q-33 -15 -77 -15q-45 0 -69.5 22t-24.5 61q0 70 72 128h-313z" />
    <glyph glyph-name="eogonek" unicode="&#x119;" horiz-adv-x="479" 
d="M429 257h-305q0 -210 150 -210q69 0 141 38l6 -60q-3 -2 -6.5 -5l-10.5 -9t-13 -10q-76 -58 -76 -111q0 -44 40 -44q27 0 53 14l9 -56q-33 -15 -77 -15q-45 0 -69.5 22t-24.5 61q0 63 60 119q-20 -3 -40 -3q-211 0 -211 281q0 139 53 204.5t146 65.5q91 0 133 -62.5
t42 -184.5v-35zM360 310q0 84 -28.5 127.5t-81.5 43.5q-61 0 -93 -51.5t-32 -119.5h235z" />
    <glyph glyph-name="Ecaron" unicode="&#x11a;" horiz-adv-x="533" 
d="M99 0v719h386v-62h-317v-252h276v-62h-276v-280h330v-63h-399zM334 767h-73l-96 94l33 29l101 -71l100 71l32 -33z" />
    <glyph glyph-name="ecaron" unicode="&#x11b;" horiz-adv-x="479" 
d="M429 257h-305q0 -210 150 -210q69 0 141 38l6 -60q-67 -37 -155 -37q-211 0 -211 281q0 139 53 204.5t146 65.5q91 0 133 -62.5t42 -184.5v-35zM360 310q0 84 -28.5 127.5t-81.5 43.5q-61 0 -93 -51.5t-32 -119.5h235zM295 584h-73l-98 132l43 28l91 -108l90 109l40 -29z
" />
    <glyph glyph-name="Gcircumflex" unicode="&#x11c;" horiz-adv-x="607" 
d="M317 287v58h235v-313q-99 -46 -203 -46q-151 0 -219 92t-68 295q0 167 63 264t198 97q99 0 150.5 -44t68.5 -131l-64 -16q-21 68 -53 99t-104 31q-89 0 -138.5 -72.5t-49.5 -223.5q0 -62 5 -109t19.5 -90.5t38.5 -71t63 -44t92 -16.5q78 0 134 29v212h-168zM293 883h73
l96 -94l-33 -29l-101 71l-100 -71l-32 33z" />
    <glyph glyph-name="gcircumflex" unicode="&#x11d;" horiz-adv-x="527" 
d="M249 539q-52 0 -91 -25t-60.5 -67.5t-32 -90t-10.5 -100.5q0 -132 49 -199t132 -67q75 0 142 65v-31q0 -41 -4.5 -70.5t-16.5 -57.5t-37.5 -42.5t-64.5 -14.5q-42 0 -87.5 14.5t-73.5 31.5l-12 -63q71 -41 166 -41q48 0 83 12t56 32t33.5 51t16.5 63.5t4 75.5v513h-67
v-35q-68 46 -125 46zM125 252q0 227 130 227q53 0 120 -52v-310q-58 -68 -127 -68q-55 0 -89 53t-34 150zM230 744h73l93 -132l-40 -29l-91 109l-90 -108l-43 28z" />
    <glyph glyph-name="Gbreve" unicode="&#x11e;" horiz-adv-x="607" 
d="M317 287v58h235v-313q-99 -46 -203 -46q-151 0 -219 92t-68 295q0 167 63 264t198 97q99 0 150.5 -44t68.5 -131l-64 -16q-21 68 -53 99t-104 31q-89 0 -138.5 -72.5t-49.5 -223.5q0 -62 5 -109t19.5 -90.5t38.5 -71t63 -44t92 -16.5q78 0 134 29v212h-168zM431 925
l45 -31q-19 -44 -57 -79t-96 -35q-56 0 -91 34t-52 76l49 34q40 -86 97 -86q26 0 47 14.5t32 30t26 42.5z" />
    <glyph glyph-name="gbreve" unicode="&#x11f;" horiz-adv-x="527" 
d="M249 539q-52 0 -91 -25t-60.5 -67.5t-32 -90t-10.5 -100.5q0 -132 49 -199t132 -67q75 0 142 65v-31q0 -41 -4.5 -70.5t-16.5 -57.5t-37.5 -42.5t-64.5 -14.5q-42 0 -87.5 14.5t-73.5 31.5l-12 -63q71 -41 166 -41q48 0 83 12t56 32t33.5 51t16.5 63.5t4 75.5v513h-67
v-35q-68 46 -125 46zM125 252q0 227 130 227q53 0 120 -52v-310q-58 -68 -127 -68q-55 0 -89 53t-34 150zM371 729l45 -31q-19 -44 -57 -79t-96 -35q-56 0 -91 34t-52 76l49 34q40 -86 97 -86q26 0 47 14.5t32 30t26 42.5z" />
    <glyph glyph-name="Gdotaccent" unicode="&#x120;" horiz-adv-x="607" 
d="M317 287v58h235v-313q-99 -46 -203 -46q-151 0 -219 92t-68 295q0 167 63 264t198 97q99 0 150.5 -44t68.5 -131l-64 -16q-21 68 -53 99t-104 31q-89 0 -138.5 -72.5t-49.5 -223.5q0 -62 5 -109t19.5 -90.5t38.5 -71t63 -44t92 -16.5q78 0 134 29v212h-168zM285 833
q0 21 12 32.5t31 11.5q44 0 44 -45q0 -22 -12 -34.5t-32 -12.5q-19 0 -31 13t-12 35z" />
    <glyph glyph-name="gdotaccent" unicode="&#x121;" horiz-adv-x="527" 
d="M249 539q-52 0 -91 -25t-60.5 -67.5t-32 -90t-10.5 -100.5q0 -132 49 -199t132 -67q75 0 142 65v-31q0 -41 -4.5 -70.5t-16.5 -57.5t-37.5 -42.5t-64.5 -14.5q-42 0 -87.5 14.5t-73.5 31.5l-12 -63q71 -41 166 -41q48 0 83 12t56 32t33.5 51t16.5 63.5t4 75.5v513h-67
v-35q-68 46 -125 46zM125 252q0 227 130 227q53 0 120 -52v-310q-58 -68 -127 -68q-55 0 -89 53t-34 150zM219 664q0 21 12 32.5t31 11.5q44 0 44 -45q0 -22 -12 -34.5t-32 -12.5q-19 0 -31 13t-12 35z" />
    <glyph glyph-name="Gcommaaccent" unicode="&#x122;" horiz-adv-x="607" 
d="M317 287v58h235v-313q-99 -46 -203 -46q-151 0 -219 92t-68 295q0 167 63 264t198 97q99 0 150.5 -44t68.5 -131l-64 -16q-21 68 -53 99t-104 31q-89 0 -138.5 -72.5t-49.5 -223.5q0 -62 5 -109t19.5 -90.5t38.5 -71t63 -44t92 -16.5q78 0 134 29v212h-168zM273 -226
l48 -13l63 174l-69 19z" />
    <glyph glyph-name="gcommaaccent" unicode="&#x123;" horiz-adv-x="527" 
d="M249 539q57 0 125 -46v35h67v-513q0 -43 -4 -75.5t-16.5 -63.5t-33.5 -51t-56 -32t-83 -12q-95 0 -166 41l12 63q28 -17 73.5 -31.5t87.5 -14.5q39 0 64.5 14.5t37.5 42.5t16.5 57.5t4.5 70.5v31q-67 -65 -142 -65q-83 0 -132 67t-49 199q0 53 10.5 100.5t32 90
t60.5 67.5t91 25zM125 252q0 -97 34 -150t89 -53q69 0 127 68v310q-67 52 -120 52q-130 0 -130 -227zM293 777l48 -13l-42 -180l-69 19z" />
    <glyph glyph-name="Hcircumflex" unicode="&#x124;" horiz-adv-x="697" 
d="M529 719h69v-719h-69v345h-361v-345h-69v719h69v-312h361v312zM323 883h73l96 -94l-33 -29l-101 71l-100 -71l-32 33z" />
    <glyph glyph-name="hcircumflex" unicode="&#x125;" horiz-adv-x="554" 
d="M326 539q119 0 139 -104q3 -17 3 -65v-370h-66v361q0 35 -3 54q-12 63 -92 63q-73 0 -154 -77v-401h-67v719h67v-257q85 77 173 77zM179 883h73l96 -94l-33 -29l-101 71l-100 -71l-32 33z" />
    <glyph glyph-name="Hbar" unicode="&#x126;" horiz-adv-x="697" 
d="M529 719h69v-117h83v-60h-83v-542h-69v345h-361v-345h-69v542h-83v60h83v117h69v-117h361v117zM168 407h361v135h-361v-135z" />
    <glyph glyph-name="hbar" unicode="&#x127;" horiz-adv-x="554" 
d="M20 600v60h66v59h67v-59h223v-60h-223v-158q85 77 173 77q119 0 139 -104q3 -17 3 -65v-350h-66v341q0 35 -3 54q-12 63 -92 63q-73 0 -154 -77v-381h-67v600h-66z" />
    <glyph glyph-name="Itilde" unicode="&#x128;" horiz-adv-x="267" 
d="M99 719h69v-719h-69v719zM14 784l-17 52q15 15 41.5 26.5t50.5 11.5q18 0 51.5 -13.5t55.5 -13.5q31 0 62 22l7 -58q-29 -21 -71 -21q-23 0 -59.5 11t-49.5 11q-32 0 -71 -28z" />
    <glyph glyph-name="itilde" unicode="&#x129;" horiz-adv-x="239" 
d="M86 528h67v-528h-67v528zM6 607l-17 52q15 15 41.5 26.5t50.5 11.5q18 0 51.5 -13.5t55.5 -13.5q31 0 62 22l7 -58q-29 -21 -71 -21q-23 0 -59.5 11t-49.5 11q-32 0 -71 -28z" />
    <glyph glyph-name="Imacron" unicode="&#x12a;" horiz-adv-x="267" 
d="M99 719h69v-719h-69v719zM-10 793v60h281v-60h-281z" />
    <glyph glyph-name="imacron" unicode="&#x12b;" horiz-adv-x="239" 
d="M86 528h67v-528h-67v528zM-19 623v60h281v-60h-281z" />
    <glyph glyph-name="Ibreve" unicode="&#x12c;" horiz-adv-x="267" 
d="M99 719h69v-719h-69v719zM236 925l45 -31q-19 -44 -57 -79t-96 -35q-56 0 -91 34t-52 76l49 34q40 -86 97 -86q26 0 47 14.5t32 30t26 42.5z" />
    <glyph glyph-name="ibreve" unicode="&#x12d;" horiz-adv-x="239" 
d="M86 528h67v-528h-67v528zM226 729l45 -31q-19 -44 -57 -79t-96 -35q-56 0 -91 34t-52 76l49 34q40 -86 97 -86q26 0 47 14.5t32 30t26 42.5z" />
    <glyph glyph-name="Iogonek" unicode="&#x12e;" horiz-adv-x="267" 
d="M99 719h69v-719q-74 -55 -74 -110q0 -44 40 -44q27 0 53 14l9 -56q-33 -15 -77 -15q-45 0 -69.5 22t-24.5 61q0 72 74 129v718z" />
    <glyph glyph-name="iogonek" unicode="&#x12f;" horiz-adv-x="239" 
d="M86 3v523h67v-526q-74 -58 -74 -110q0 -44 40 -44q27 0 53 14l9 -56q-33 -15 -77 -15q-45 0 -69.5 22t-24.5 61q0 73 76 131z" />
    <glyph glyph-name="Idotaccent" unicode="&#x130;" horiz-adv-x="267" 
d="M99 719h69v-719h-69v719zM90 833q0 21 12 32.5t31 11.5q44 0 44 -45q0 -22 -12 -34.5t-32 -12.5q-19 0 -31 13t-12 35z" />
    <glyph glyph-name="dotlessi" unicode="&#x131;" horiz-adv-x="239" 
d="M86 528h67v-528h-67v528z" />
    <glyph glyph-name="IJ" unicode="&#x132;" horiz-adv-x="690" 
d="M99 719h69v-719h-69v719zM292 21l21 63q56 -33 124 -33q42 0 63 19t27 61q4 27 4 75v513h69v-516q0 -68 -6 -94q-12 -60 -54.5 -90.5t-105.5 -30.5q-82 0 -142 33z" />
    <glyph glyph-name="ij" unicode="&#x133;" horiz-adv-x="483" 
d="M86 528h66v-528h-66v528zM75 664q0 21 12 32.5t31 11.5q44 0 44 -45q0 -22 -12 -34.5t-32 -12.5q-19 0 -31 13t-12 35zM398 528v-602q0 -72 -29.5 -108.5t-94.5 -36.5q-53 0 -94 23l12 62q41 -26 85 -26q30 0 42 21t12 74v593h67zM320 664q0 21 12 32.5t31 11.5
q44 0 44 -45q0 -22 -12 -34.5t-32 -12.5q-19 0 -31 13t-12 35z" />
    <glyph glyph-name="Jcircumflex" unicode="&#x134;" horiz-adv-x="413" 
d="M15 21l21 63q56 -33 124 -33q42 0 63 19t27 61q4 27 4 75v513h69v-516q0 -68 -6 -94q-12 -60 -54.5 -90.5t-105.5 -30.5q-82 0 -142 33zM255 883h73l96 -94l-33 -29l-101 71l-100 -71l-32 33z" />
    <glyph glyph-name="jcircumflex" unicode="&#x135;" horiz-adv-x="238" 
d="M153 528v-602q0 -72 -29.5 -108.5t-94.5 -36.5q-53 0 -94 23l12 62q41 -26 85 -26q30 0 42 21t12 74v593h67zM85 744h73l93 -132l-40 -29l-91 109l-90 -108l-43 28z" />
    <glyph glyph-name="Kcommaaccent" unicode="&#x136;" horiz-adv-x="565" 
d="M540 719l-185 -340l200 -379h-78l-182 343h-127v-343h-69v720h69v-315h130l170 314h72zM235 -226l48 -13l63 174l-69 19z" />
    <glyph glyph-name="kcommaaccent" unicode="&#x137;" horiz-adv-x="484" 
d="M444 521l-145 -218l170 -303h-76l-149 263h-91v-263h-67v719h67v-395h91l134 204zM193 -226l48 -13l63 174l-69 19z" />
    <glyph glyph-name="kgreenlandic" unicode="&#x138;" horiz-adv-x="497" 
d="M458 521l-159 -242l170 -279h-79l-145 239h-92v-239h-67v528h67v-228h89l146 228z" />
    <glyph glyph-name="Lacute" unicode="&#x139;" horiz-adv-x="519" 
d="M99 0v719h69v-656h321v-63h-390zM90 767l-15 45l209 73l20 -66z" />
    <glyph glyph-name="lacute" unicode="&#x13a;" horiz-adv-x="311" 
d="M80 126v593h67v-583q0 -47 13 -67.5t47 -20.5q35 0 81 21l8 -56q-44 -23 -101 -23q-65 0 -90 34.5t-25 101.5zM73 767l-15 45l209 73l20 -66z" />
    <glyph glyph-name="Lcommaaccent" unicode="&#x13b;" horiz-adv-x="519" 
d="M99 0v719h69v-656h321v-63h-390zM225 -226l48 -13l63 174l-69 19z" />
    <glyph glyph-name="lcommaaccent" unicode="&#x13c;" horiz-adv-x="311" 
d="M80 126v593h67v-583q0 -47 13 -67.5t47 -20.5q35 0 81 21l8 -56q-44 -23 -101 -23q-65 0 -90 34.5t-25 101.5zM151 -239l-48 13l42 180l69 -19z" />
    <glyph glyph-name="Lcaron" unicode="&#x13d;" horiz-adv-x="519" 
d="M99 0v719h69v-656h321v-63h-390zM377 719h-65v-204h45z" />
    <glyph glyph-name="lcaron" unicode="&#x13e;" horiz-adv-x="311" 
d="M80 126v593h67v-583q0 -47 13 -67.5t47 -20.5q35 0 81 21l8 -56q-44 -23 -101 -23q-65 0 -90 34.5t-25 101.5zM216 719h65l-20 -204h-45v204z" />
    <glyph glyph-name="Ldot" unicode="&#x13f;" horiz-adv-x="519" 
d="M99 0v719h69v-656h321v-63h-390zM354 368q0 21 12 32.5t31 11.5q44 0 44 -45q0 -22 -12 -34.5t-32 -12.5q-19 0 -31 13t-12 35z" />
    <glyph glyph-name="ldot" unicode="&#x140;" horiz-adv-x="343" 
d="M80 126v593h67v-583q0 -47 13 -67.5t47 -20.5q35 0 81 21l8 -56q-44 -23 -101 -23q-65 0 -90 34.5t-25 101.5zM247 385q0 21 12 32.5t31 11.5q44 0 44 -45q0 -22 -12 -34.5t-32 -12.5q-19 0 -31 13t-12 35z" />
    <glyph glyph-name="Lslash" unicode="&#x141;" horiz-adv-x="523" 
d="M-2 239l-21 49l126 68v363h69v-335l197 101l22 -49l-219 -115v-258h321v-63h-390v294z" />
    <glyph glyph-name="lslash" unicode="&#x142;" horiz-adv-x="340" 
d="M29 241l-29 44l109 89v345h67v-301l100 80l29 -44l-129 -103v-215q0 -47 13 -67.5t47 -20.5q36 0 81 21l8 -56q-44 -23 -101 -23q-65 0 -90 34.5t-25 101.5v179z" />
    <glyph glyph-name="Nacute" unicode="&#x143;" horiz-adv-x="693" 
d="M527 720h67v-720h-67l-361 598v-598h-67v720h72l356 -593v593zM275 767l-15 45l209 73l20 -66z" />
    <glyph glyph-name="nacute" unicode="&#x144;" horiz-adv-x="554" 
d="M326 539q119 0 139 -104q3 -17 3 -65v-370h-66v361q0 35 -3 54q-12 63 -92 63q-73 0 -154 -77v-401h-67v528h67v-66q85 77 173 77zM234 584l-27 41l192 138l39 -60z" />
    <glyph glyph-name="Ncommaaccent" unicode="&#x145;" horiz-adv-x="693" 
d="M527 720h67v-720h-67l-361 598v-598h-67v720h72l356 -593v593zM288 -226l48 -13l63 174l-69 19z" />
    <glyph glyph-name="ncommaaccent" unicode="&#x146;" horiz-adv-x="554" 
d="M326 539q119 0 139 -104q3 -17 3 -65v-370h-66v361q0 35 -3 54q-12 63 -92 63q-73 0 -154 -77v-401h-67v528h67v-66q85 77 173 77zM221 -226l48 -13l63 174l-69 19z" />
    <glyph glyph-name="Ncaron" unicode="&#x147;" horiz-adv-x="693" 
d="M527 720h67v-720h-67l-361 598v-598h-67v720h72l356 -593v593zM392 767h-73l-96 94l33 29l101 -71l100 71l32 -33z" />
    <glyph glyph-name="ncaron" unicode="&#x148;" horiz-adv-x="554" 
d="M326 539q119 0 139 -104q3 -17 3 -65v-370h-66v361q0 35 -3 54q-12 63 -92 63q-73 0 -154 -77v-401h-67v528h67v-66q85 77 173 77zM334 584h-73l-98 132l43 28l91 -108l90 109l40 -29z" />
    <glyph glyph-name="napostrophe" unicode="&#x149;" horiz-adv-x="554" 
d="M326 539q119 0 139 -104q3 -17 3 -65v-370h-66v361q0 35 -3 54q-12 63 -92 63q-73 0 -154 -77v-401h-67v528h67v-66q85 77 173 77zM12 532l23 177q5 32 37 32q35 0 35 -34q0 -11 -3 -20l-53 -163z" />
    <glyph glyph-name="Eng" unicode="&#x14a;" horiz-adv-x="693" 
d="M527 720h67v-795q0 -144 -124 -144q-53 0 -94 23l12 62q41 -26 85 -26q30 0 42 21t12 74v65l-361 598v-598h-67v720h72l356 -593v593z" />
    <glyph glyph-name="eng" unicode="&#x14b;" horiz-adv-x="554" 
d="M326 539q119 0 139 -104q3 -17 3 -65v-444q0 -72 -29.5 -108.5t-94.5 -36.5q-53 0 -94 23l12 62q41 -26 85 -26q30 0 42.5 21t12.5 74v426q0 35 -3 54q-12 63 -92 63q-73 0 -154 -77v-401h-67v528h67v-66q85 77 173 77z" />
    <glyph glyph-name="Omacron" unicode="&#x14c;" horiz-adv-x="654" 
d="M325 -14q-263 0 -263 385q0 179 72 271t201 92q132 0 194.5 -86.5t62.5 -270.5q0 -391 -267 -391zM520 376q0 162 -49 229t-139 67t-144 -71t-54 -230q0 -324 191 -324q44 0 77 14.5t61 49.5t42.5 101.5t14.5 163.5zM201 793v60h281v-60h-281z" />
    <glyph glyph-name="omacron" unicode="&#x14d;" horiz-adv-x="513" 
d="M252 -12q-56 0 -96.5 24t-61.5 66t-30 86.5t-9 96.5q0 122 52.5 200t156.5 78q194 0 194 -268q0 -54 -11 -102t-34 -90t-64.5 -66.5t-96.5 -24.5zM254 46q40 0 68 20t41.5 54t19.5 70t6 77q0 213 -128 213q-41 0 -69.5 -22.5t-42.5 -59t-19.5 -70.5t-5.5 -69
q0 -58 10.5 -103t41 -77.5t78.5 -32.5zM135 623v60h281v-60h-281z" />
    <glyph glyph-name="Obreve" unicode="&#x14e;" horiz-adv-x="654" 
d="M325 -14q-263 0 -263 385q0 179 72 271t201 92q132 0 194.5 -86.5t62.5 -270.5q0 -391 -267 -391zM520 376q0 162 -49 229t-139 67t-144 -71t-54 -230q0 -324 191 -324q44 0 77 14.5t61 49.5t42.5 101.5t14.5 163.5zM443 925l45 -31q-19 -44 -57 -79t-96 -35
q-56 0 -91 34t-52 76l49 34q40 -86 97 -86q26 0 47 14.5t32 30t26 42.5z" />
    <glyph glyph-name="obreve" unicode="&#x14f;" horiz-adv-x="513" 
d="M252 -12q-56 0 -96.5 24t-61.5 66t-30 86.5t-9 96.5q0 122 52.5 200t156.5 78q194 0 194 -268q0 -54 -11 -102t-34 -90t-64.5 -66.5t-96.5 -24.5zM254 46q40 0 68 20t41.5 54t19.5 70t6 77q0 213 -128 213q-41 0 -69.5 -22.5t-42.5 -59t-19.5 -70.5t-5.5 -69
q0 -58 10.5 -103t41 -77.5t78.5 -32.5zM370 729l45 -31q-19 -44 -57 -79t-96 -35q-56 0 -91 34t-52 76l49 34q40 -86 97 -86q26 0 47 14.5t32 30t26 42.5z" />
    <glyph glyph-name="Ohungarumlaut" unicode="&#x150;" horiz-adv-x="654" 
d="M325 -14q-263 0 -263 385q0 179 72 271t201 92q132 0 194.5 -86.5t62.5 -270.5q0 -391 -267 -391zM520 376q0 162 -49 229t-139 67t-144 -71t-54 -230q0 -324 191 -324q44 0 77 14.5t61 49.5t42.5 101.5t14.5 163.5zM412 767l-25 40l186 143l39 -59zM226 767l-25 40
l186 143l39 -59z" />
    <glyph glyph-name="ohungarumlaut" unicode="&#x151;" horiz-adv-x="513" 
d="M252 -12q-56 0 -96.5 24t-61.5 66t-30 86.5t-9 96.5q0 122 52.5 200t156.5 78q194 0 194 -268q0 -54 -11 -102t-34 -90t-64.5 -66.5t-96.5 -24.5zM254 46q40 0 68 20t41.5 54t19.5 70t6 77q0 213 -128 213q-41 0 -69.5 -22.5t-42.5 -59t-19.5 -70.5t-5.5 -69
q0 -58 10.5 -103t41 -77.5t78.5 -32.5zM330 583l-25 40l186 143l39 -59zM144 583l-25 40l186 143l39 -59z" />
    <glyph glyph-name="OE" unicode="&#x152;" horiz-adv-x="871" 
d="M328 -10q-56 0 -99 17t-79.5 57.5t-55.5 118t-19 188.5q0 180 67.5 269.5t195.5 89.5q47 0 86 -11h399v-62h-311q66 -75 71 -252h199v-59h-199q-4 -192 -83 -284h336v-62h-429q-36 -10 -79 -10zM513 376q0 164 -44.5 228t-133.5 64q-188 0 -188 -297q0 -171 45.5 -245.5
t135.5 -74.5q44 0 75.5 13.5t57.5 48t39 100.5t13 163z" />
    <glyph glyph-name="oe" unicode="&#x153;" horiz-adv-x="808" 
d="M252 -10q-56 0 -96.5 24t-61.5 65t-30 85.5t-9 96.5q0 122 52.5 200t156.5 78q111 0 158 -104q56 102 161 102q91 0 133 -62.5t42 -184.5v-35h-305q0 -208 150 -208q69 0 141 38l6 -60q-67 -37 -155 -37q-132 0 -178 116q-22 -52 -63.5 -83t-101.5 -31zM254 48
q40 0 68 19.5t41.5 53.5t19.5 69.5t6 76.5q0 213 -128 213q-41 0 -69.5 -22.5t-42.5 -59t-19.5 -70.5t-5.5 -69q0 -91 30 -151t100 -60zM689 308q0 84 -28.5 127.5t-81.5 43.5q-61 0 -93 -51.5t-32 -119.5h235z" />
    <glyph glyph-name="Racute" unicode="&#x154;" horiz-adv-x="609" 
d="M427 340l127 -340h-75l-119 318h-193v-318h-68v719h223q107 0 167.5 -45t60.5 -138q0 -136 -123 -196zM167 380h153q70 0 114.5 36t44.5 103q0 76 -39.5 108t-121.5 32h-151v-279zM229 767l-15 45l209 73l20 -66z" />
    <glyph glyph-name="racute" unicode="&#x155;" horiz-adv-x="383" 
d="M277 539q72 0 101 -82l-55 -30q-12 26 -25 37.5t-38 11.5q-47 0 -107 -69v-407h-67v528h63v-59q64 70 128 70zM202 584l-27 41l192 138l39 -60z" />
    <glyph glyph-name="Rcommaaccent" unicode="&#x156;" horiz-adv-x="609" 
d="M427 340l127 -340h-75l-119 318h-193v-318h-68v719h223q107 0 167.5 -45t60.5 -138q0 -136 -123 -196zM167 380h153q70 0 114.5 36t44.5 103q0 76 -39.5 108t-121.5 32h-151v-279zM252 -226l48 -13l63 174l-69 19z" />
    <glyph glyph-name="rcommaaccent" unicode="&#x157;" horiz-adv-x="383" 
d="M277 539q72 0 101 -82l-55 -30q-12 26 -25 37.5t-38 11.5q-47 0 -107 -69v-407h-67v528h63v-59q64 70 128 70zM41 -226l48 -13l63 174l-69 19z" />
    <glyph glyph-name="Rcaron" unicode="&#x158;" horiz-adv-x="609" 
d="M427 340l127 -340h-75l-119 318h-193v-318h-68v719h223q107 0 167.5 -45t60.5 -138q0 -136 -123 -196zM167 380h153q70 0 114.5 36t44.5 103q0 76 -39.5 108t-121.5 32h-151v-279zM329 767h-73l-96 94l33 29l101 -71l100 71l32 -33z" />
    <glyph glyph-name="rcaron" unicode="&#x159;" horiz-adv-x="383" 
d="M277 539q72 0 101 -82l-55 -30q-12 26 -25 37.5t-38 11.5q-47 0 -107 -69v-407h-67v528h63v-59q64 70 128 70zM277 584h-73l-98 132l43 28l91 -108l90 109l40 -29z" />
    <glyph glyph-name="Sacute" unicode="&#x15a;" horiz-adv-x="536" 
d="M43 57l32 64q79 -71 179 -71q64 0 106 32.5t42 100.5q0 32 -9.5 56.5t-21 39.5t-38.5 29.5t-45 21t-57 19.5q-32 11 -51.5 19t-45 24t-39.5 34.5t-24.5 49t-10.5 68.5q0 87 61 138.5t154 51.5q95 0 147 -50t59 -112l-63 -18q-13 56 -52 84.5t-94 28.5q-57 0 -97 -30.5
t-40 -92.5q0 -23 4.5 -40.5t16.5 -31.5t21 -22.5t32 -18.5t33.5 -14t40.5 -14q34 -12 48 -17t43 -18.5t42.5 -27t30 -35t23.5 -50t7 -64.5q0 -94 -58 -149.5t-167 -55.5q-72 0 -127 22.5t-82 48.5zM197 767l-15 45l209 73l20 -66z" />
    <glyph glyph-name="sacute" unicode="&#x15b;" horiz-adv-x="427" 
d="M40 44l18 62q22 -20 64 -40t80 -20q49 0 79 22t30 64q0 39 -27 62t-66 35t-77.5 26t-65.5 48t-27 89q0 68 49 107.5t120 39.5q73 0 114.5 -36.5t50.5 -85.5l-54 -22q-12 42 -42 63.5t-70 21.5q-42 0 -71 -21t-29 -64q0 -39 27 -62.5t65.5 -35.5t77.5 -25.5t66 -45.5
t27 -83q0 -68 -46.5 -111.5t-131.5 -43.5q-48 0 -94.5 18.5t-66.5 37.5zM175 584l-27 41l192 138l39 -60z" />
    <glyph glyph-name="Scircumflex" unicode="&#x15c;" horiz-adv-x="536" 
d="M43 57l32 64q79 -71 179 -71q64 0 106 32.5t42 100.5q0 32 -9.5 56.5t-21 39.5t-38.5 29.5t-45 21t-57 19.5q-32 11 -51.5 19t-45 24t-39.5 34.5t-24.5 49t-10.5 68.5q0 87 61 138.5t154 51.5q95 0 147 -50t59 -112l-63 -18q-13 56 -52 84.5t-94 28.5q-57 0 -97 -30.5
t-40 -92.5q0 -23 4.5 -40.5t16.5 -31.5t21 -22.5t32 -18.5t33.5 -14t40.5 -14q34 -12 48 -17t43 -18.5t42.5 -27t30 -35t23.5 -50t7 -64.5q0 -94 -58 -149.5t-167 -55.5q-72 0 -127 22.5t-82 48.5zM242 883h73l96 -94l-33 -29l-101 71l-100 -71l-32 33z" />
    <glyph glyph-name="scircumflex" unicode="&#x15d;" horiz-adv-x="427" 
d="M40 44l18 62q22 -20 64 -40t80 -20q49 0 79 22t30 64q0 39 -27 62t-66 35t-77.5 26t-65.5 48t-27 89q0 68 49 107.5t120 39.5q73 0 114.5 -36.5t50.5 -85.5l-54 -22q-12 42 -42 63.5t-70 21.5q-42 0 -71 -21t-29 -64q0 -39 27 -62.5t65.5 -35.5t77.5 -25.5t66 -45.5
t27 -83q0 -68 -46.5 -111.5t-131.5 -43.5q-48 0 -94.5 18.5t-66.5 37.5zM178 744h73l93 -132l-40 -29l-91 109l-90 -108l-43 28z" />
    <glyph glyph-name="Scedilla" unicode="&#x15e;" horiz-adv-x="536" 
d="M43 57l32 64q79 -71 179 -71q64 0 106 32.5t42 100.5q0 32 -9.5 56.5t-21 39.5t-38.5 29.5t-45 21t-57 19.5q-32 11 -51.5 19t-45 24t-39.5 34.5t-24.5 49t-10.5 68.5q0 87 61 138.5t154 51.5q95 0 147 -50t59 -112l-63 -18q-13 56 -52 84.5t-94 28.5q-57 0 -97 -30.5
t-40 -92.5q0 -23 4.5 -40.5t16.5 -31.5t21 -22.5t32 -18.5t33.5 -14t40.5 -14q34 -12 48 -17t43 -18.5t42.5 -27t30 -35t23.5 -50t7 -64.5q0 -94 -58 -149.5t-167 -55.5q-72 0 -127 22.5t-82 48.5zM199 -104v49q33 9 65 9q44 0 68.5 -23.5t24.5 -59.5q0 -60 -40.5 -89
t-95.5 -29q-19 0 -38 4l-3 51q15 -4 39 -4q33 0 56 14t23 43q0 43 -48 43q-21 0 -51 -8z" />
    <glyph glyph-name="scedilla" unicode="&#x15f;" horiz-adv-x="427" 
d="M40 44l18 62q22 -20 64 -40t80 -20q49 0 79 22t30 64q0 39 -27 62t-66 35t-77.5 26t-65.5 48t-27 89q0 68 49 107.5t120 39.5q73 0 114.5 -36.5t50.5 -85.5l-54 -22q-12 42 -42 63.5t-70 21.5q-42 0 -71 -21t-29 -64q0 -39 27 -62.5t65.5 -35.5t77.5 -25.5t66 -45.5
t27 -83q0 -68 -46.5 -111.5t-131.5 -43.5q-48 0 -94.5 18.5t-66.5 37.5zM135 -104v49q33 9 65 9q44 0 68.5 -23.5t24.5 -59.5q0 -60 -40.5 -89t-95.5 -29q-19 0 -38 4l-3 51q15 -4 39 -4q33 0 56 14t23 43q0 43 -48 43q-21 0 -51 -8z" />
    <glyph glyph-name="Scaron" unicode="&#x160;" horiz-adv-x="536" 
d="M43 57l32 64q79 -71 179 -71q64 0 106 32.5t42 100.5q0 32 -9.5 56.5t-21 39.5t-38.5 29.5t-45 21t-57 19.5q-32 11 -51.5 19t-45 24t-39.5 34.5t-24.5 49t-10.5 68.5q0 87 61 138.5t154 51.5q95 0 147 -50t59 -112l-63 -18q-13 56 -52 84.5t-94 28.5q-57 0 -97 -30.5
t-40 -92.5q0 -23 4.5 -40.5t16.5 -31.5t21 -22.5t32 -18.5t33.5 -14t40.5 -14q34 -12 48 -17t43 -18.5t42.5 -27t30 -35t23.5 -50t7 -64.5q0 -94 -58 -149.5t-167 -55.5q-72 0 -127 22.5t-82 48.5zM314 767h-73l-96 94l33 29l101 -71l100 71l32 -33z" />
    <glyph glyph-name="scaron" unicode="&#x161;" horiz-adv-x="427" 
d="M40 44l18 62q22 -20 64 -40t80 -20q49 0 79 22t30 64q0 39 -27 62t-66 35t-77.5 26t-65.5 48t-27 89q0 68 49 107.5t120 39.5q73 0 114.5 -36.5t50.5 -85.5l-54 -22q-12 42 -42 63.5t-70 21.5q-42 0 -71 -21t-29 -64q0 -39 27 -62.5t65.5 -35.5t77.5 -25.5t66 -45.5
t27 -83q0 -68 -46.5 -111.5t-131.5 -43.5q-48 0 -94.5 18.5t-66.5 37.5zM256 584h-73l-98 132l43 28l91 -108l90 109l40 -29z" />
    <glyph glyph-name="Tcommaaccent" unicode="&#x162;" horiz-adv-x="546" 
d="M15 657v62h516v-62h-224v-657h-69v657h-223zM190 -226l48 -13l63 174l-69 19z" />
    <glyph glyph-name="tcommaaccent" unicode="&#x163;" horiz-adv-x="324" 
d="M294 474h-138v-326q0 -35 2.5 -53.5t15.5 -33.5t39 -15q29 0 75 22l7 -56q-48 -24 -94 -24q-111 0 -111 131v355h-68v54h68v86l66 38v-124h138v-54zM106 -226l48 -13l63 174l-69 19z" />
    <glyph glyph-name="Tcaron" unicode="&#x164;" horiz-adv-x="546" 
d="M15 657v62h516v-62h-224v-657h-69v657h-223zM310 767h-73l-96 94l33 29l101 -71l100 71l32 -33z" />
    <glyph glyph-name="tcaron" unicode="&#x165;" horiz-adv-x="324" 
d="M294 474h-138v-326q0 -35 2.5 -53.5t15.5 -33.5t39 -15q29 0 75 22l7 -56q-48 -24 -94 -24q-111 0 -111 131v355h-68v54h68v86l66 38v-124h138v-54zM218 799h65l-20 -204h-45v204z" />
    <glyph glyph-name="Tbar" unicode="&#x166;" horiz-adv-x="546" 
d="M15 657v62h516v-62h-224v-285h153v-60h-153v-312h-69v312h-144v60h144v285h-223z" />
    <glyph glyph-name="tbar" unicode="&#x167;" horiz-adv-x="324" 
d="M294 474h-138v-157h138v-54h-138v-115q0 -35 2.5 -53.5t15.5 -33.5t39 -15q29 0 75 22l7 -56q-48 -24 -94 -24q-111 0 -111 131v144h-68v54h68v157h-68v54h68v86l66 38v-124h138v-54z" />
    <glyph glyph-name="Utilde" unicode="&#x168;" horiz-adv-x="667" 
d="M165 719v-469q0 -84 16 -122q33 -75 151 -75q125 0 156 77q14 37 14 136v453h69v-472q0 -84 -12 -124q-44 -135 -227 -135q-178 0 -221 120q-15 42 -15 140v471h69zM213 784l-17 52q15 15 41.5 26.5t50.5 11.5q18 0 52 -13.5t55 -13.5q31 0 62 22l7 -58q-29 -21 -71 -21
q-23 0 -59.5 11t-49.5 11q-32 0 -71 -28z" />
    <glyph glyph-name="utilde" unicode="&#x169;" horiz-adv-x="547" 
d="M220 -10q-120 0 -138 103q-4 23 -4 65v361l66 9v-361q0 -38 4 -54q10 -64 88 -64q74 0 157 78v401h68v-528h-68v65q-87 -75 -173 -75zM154 607l-17 52q15 15 41.5 26.5t50.5 11.5q19 0 52 -13.5t55 -13.5q31 0 62 22l7 -58q-29 -21 -71 -21q-23 0 -59.5 11t-49.5 11
q-32 0 -71 -28z" />
    <glyph glyph-name="Umacron" unicode="&#x16a;" horiz-adv-x="667" 
d="M165 719v-469q0 -84 16 -122q33 -75 151 -75q125 0 156 77q14 37 14 136v453h69v-472q0 -84 -12 -124q-44 -135 -227 -135q-178 0 -221 120q-15 42 -15 140v471h69zM198 793v60h281v-60h-281z" />
    <glyph glyph-name="umacron" unicode="&#x16b;" horiz-adv-x="547" 
d="M220 -10q-120 0 -138 103q-4 23 -4 65v361l66 9v-361q0 -38 4 -54q10 -64 88 -64q74 0 157 78v401h68v-528h-68v65q-87 -75 -173 -75zM130 623v60h281v-60h-281z" />
    <glyph glyph-name="Ubreve" unicode="&#x16c;" horiz-adv-x="667" 
d="M165 719v-469q0 -84 16 -122q33 -75 151 -75q125 0 156 77q14 37 14 136v453h69v-472q0 -84 -12 -124q-44 -135 -227 -135q-178 0 -221 120q-15 42 -15 140v471h69zM449 925l45 -31q-19 -44 -57 -79t-96 -35q-56 0 -91 34t-52 76l49 34q40 -86 97 -86q26 0 47 14.5t32 30
t26 42.5z" />
    <glyph glyph-name="ubreve" unicode="&#x16d;" horiz-adv-x="547" 
d="M220 -10q-120 0 -138 103q-4 23 -4 65v361l66 9v-361q0 -38 4 -54q10 -64 88 -64q74 0 157 78v401h68v-528h-68v65q-87 -75 -173 -75zM386 729l45 -31q-19 -44 -57 -79t-96 -35q-56 0 -91 34t-52 76l49 34q40 -86 97 -86q26 0 47 14.5t32 30t26 42.5z" />
    <glyph glyph-name="Uring" unicode="&#x16e;" horiz-adv-x="667" 
d="M165 719v-469q0 -84 16 -122q33 -75 151 -75q125 0 156 77q14 37 14 136v453h69v-472q0 -84 -12 -124q-44 -135 -227 -135q-178 0 -221 120q-15 42 -15 140v471h69zM244 866q0 42 28.5 71.5t70.5 29.5q45 0 72 -28.5t27 -68.5q0 -45 -28.5 -75.5t-72.5 -30.5
q-45 0 -71 29t-26 73zM288 866q0 -27 14.5 -44.5t40.5 -17.5t41 17.5t15 44.5q0 28 -15 44.5t-41 16.5q-27 0 -41 -16.5t-14 -44.5z" />
    <glyph glyph-name="uring" unicode="&#x16f;" horiz-adv-x="547" 
d="M220 -10q-120 0 -138 103q-4 23 -4 65v361l66 9v-361q0 -38 4 -54q10 -64 88 -64q74 0 157 78v401h68v-528h-68v65q-87 -75 -173 -75zM182 676q0 42 28.5 71.5t70.5 29.5q45 0 72 -28.5t27 -68.5q0 -45 -28.5 -75.5t-72.5 -30.5q-45 0 -71 29t-26 73zM226 676
q0 -27 14.5 -44.5t40.5 -17.5t41 17.5t15 44.5q0 28 -15 44.5t-41 16.5q-27 0 -41 -16.5t-14 -44.5z" />
    <glyph glyph-name="Uhungarumlaut" unicode="&#x170;" horiz-adv-x="667" 
d="M165 719v-469q0 -84 16 -122q33 -75 151 -75q125 0 156 77q14 37 14 136v453h69v-472q0 -84 -12 -124q-44 -135 -227 -135q-178 0 -221 120q-15 42 -15 140v471h69zM412 767l-25 40l186 143l39 -59zM226 767l-25 40l186 143l39 -59z" />
    <glyph glyph-name="uhungarumlaut" unicode="&#x171;" horiz-adv-x="547" 
d="M220 -10q-120 0 -138 103q-4 23 -4 65v361l66 9v-361q0 -38 4 -54q10 -64 88 -64q74 0 157 78v401h68v-528h-68v65q-87 -75 -173 -75zM350 583l-25 40l186 143l39 -59zM164 583l-25 40l186 143l39 -59z" />
    <glyph glyph-name="Uogonek" unicode="&#x172;" horiz-adv-x="667" 
d="M165 719v-469q0 -84 16 -122q33 -75 151 -75q125 0 156 77q14 37 14 136v453h69v-472q0 -84 -12 -124q-18 -55 -88 -108q-34 -25 -61 -60.5t-27 -64.5q0 -44 40 -44q27 0 53 14l9 -56q-33 -15 -77 -15q-45 0 -69.5 22t-24.5 61q0 64 60 118q-14 -2 -42 -2
q-178 0 -221 120q-15 42 -15 140v471h69z" />
    <glyph glyph-name="uogonek" unicode="&#x173;" horiz-adv-x="547" 
d="M220 -10q-120 0 -138 103q-4 23 -4 65v361l66 9v-361q0 -38 4 -54q10 -64 88 -64q74 0 157 78v401h68v-527q-74 -59 -74 -111q0 -44 40 -44q27 0 53 14l9 -56q-33 -15 -77 -15q-45 0 -69.5 22t-24.5 61q0 72 75 130v63q-87 -75 -173 -75z" />
    <glyph glyph-name="Wcircumflex" unicode="&#x174;" horiz-adv-x="833" 
d="M232 0h-78l-94 719h72l75 -610l186 541h52l181 -541l76 610h71l-94 -719h-80l-181 525zM380 883h73l96 -94l-33 -29l-101 71l-100 -71l-32 33z" />
    <glyph glyph-name="wcircumflex" unicode="&#x175;" horiz-adv-x="671" 
d="M575 528l66 -8l-113 -520h-84l-106 417l-122 -417h-81l-105 521l66 7l87 -450l128 440h62l108 -440zM304 744h73l93 -132l-40 -29l-91 109l-90 -108l-43 28z" />
    <glyph glyph-name="Ycircumflex" unicode="&#x176;" horiz-adv-x="563" 
d="M286 363l188 356h74l-228 -420v-299h-71v296l-234 423h77zM253 883h73l96 -94l-33 -29l-101 71l-100 -71l-32 33z" />
    <glyph glyph-name="ycircumflex" unicode="&#x177;" horiz-adv-x="456" 
d="M372 528l66 -7q-80 -296 -172 -516q-50 -120 -94.5 -172t-122.5 -52q-73 0 -134 36l19 61q66 -38 116 -38q51 0 81 39t64 129l-184 513l72 7l151 -440q46 110 138 440zM194 744h73l93 -132l-40 -29l-91 109l-90 -108l-43 28z" />
    <glyph glyph-name="Ydieresis" unicode="&#x178;" horiz-adv-x="563" 
d="M286 363l188 356h74l-228 -420v-299h-71v296l-234 423h77zM165 827q0 20 11 31.5t29 11.5q41 0 41 -43q0 -20 -11.5 -32t-29.5 -12q-19 0 -29.5 12t-10.5 32zM325 827q0 20 11 31.5t29 11.5q41 0 41 -43q0 -20 -11 -32t-30 -12t-29.5 12t-10.5 32z" />
    <glyph glyph-name="Zacute" unicode="&#x179;" horiz-adv-x="540" 
d="M50 658v61h460v-67l-399 -590h385v-62h-466v62l403 596h-383zM214 767l-15 45l209 73l20 -66z" />
    <glyph glyph-name="zacute" unicode="&#x17a;" horiz-adv-x="412" 
d="M392 487l-286 -432h277v-55h-353v50l279 424h-265v54h348v-41zM173 584l-27 41l192 138l39 -60z" />
    <glyph glyph-name="Zdotaccent" unicode="&#x17b;" horiz-adv-x="540" 
d="M50 658v61h460v-67l-399 -590h385v-62h-466v62l403 596h-383zM245 833q0 21 12 32.5t31 11.5q44 0 44 -45q0 -22 -12 -34.5t-32 -12.5q-19 0 -31 13t-12 35z" />
    <glyph glyph-name="zdotaccent" unicode="&#x17c;" horiz-adv-x="412" 
d="M392 487l-286 -432h277v-55h-353v50l279 424h-265v54h348v-41zM182 664q0 21 12 32.5t31 11.5q44 0 44 -45q0 -22 -12 -34.5t-32 -12.5q-19 0 -31 13t-12 35z" />
    <glyph glyph-name="Zcaron" unicode="&#x17d;" horiz-adv-x="540" 
d="M50 658v61h460v-67l-399 -590h385v-62h-466v62l403 596h-383zM325 767h-73l-96 94l33 29l101 -71l100 71l32 -33z" />
    <glyph glyph-name="zcaron" unicode="&#x17e;" horiz-adv-x="412" 
d="M392 487l-286 -432h277v-55h-353v50l279 424h-265v54h348v-41zM255 584h-73l-98 132l43 28l91 -108l90 109l40 -29z" />
    <glyph glyph-name="longs" unicode="&#x17f;" horiz-adv-x="288" 
d="M156 0h-65v575q0 73 40 115t121 42q46 0 90 -12l-5 -57q-46 12 -85 12q-50 0 -73 -24.5t-23 -83.5v-567z" />
    <glyph glyph-name="florin" unicode="&#x192;" horiz-adv-x="456" 
d="M456 684l-5 -54q-34 12 -71 12q-48 0 -75 -41q-11 -18 -20 -61l-21 -100h109l-11 -52h-108l-67 -370q-13 -69 -36 -102q-43 -66 -129 -66q-45 0 -87 14l8 58q46 -16 79 -16q47 0 74 41q14 24 20 57l72 384h-83l10 52h82l17 90q13 67 36 102q45 66 130 66q43 0 76 -14z
" />
    <glyph glyph-name="Scommaaccent" unicode="&#x218;" horiz-adv-x="536" 
d="M43 57l32 64q79 -71 179 -71q64 0 106 32.5t42 100.5q0 32 -9.5 56.5t-21 39.5t-38.5 29.5t-45 21t-57 19.5q-32 11 -51.5 19t-45 24t-39.5 34.5t-24.5 49t-10.5 68.5q0 87 61 138.5t154 51.5q95 0 147 -50t59 -112l-63 -18q-13 56 -52 84.5t-94 28.5q-57 0 -97 -30.5
t-40 -92.5q0 -23 4.5 -40.5t16.5 -31.5t21 -22.5t32 -18.5t33.5 -14t40.5 -14q34 -12 48 -17t43 -18.5t42.5 -27t30 -35t23.5 -50t7 -64.5q0 -94 -58 -149.5t-167 -55.5q-72 0 -127 22.5t-82 48.5zM187 -226l48 -13l63 174l-69 19z" />
    <glyph glyph-name="scommaaccent" unicode="&#x219;" horiz-adv-x="427" 
d="M40 44l18 62q22 -20 64 -40t80 -20q49 0 79 22t30 64q0 39 -27 62t-66 35t-77.5 26t-65.5 48t-27 89q0 68 49 107.5t120 39.5q73 0 114.5 -36.5t50.5 -85.5l-54 -22q-12 42 -42 63.5t-70 21.5q-42 0 -71 -21t-29 -64q0 -39 27 -62.5t65.5 -35.5t77.5 -25.5t66 -45.5
t27 -83q0 -68 -46.5 -111.5t-131.5 -43.5q-48 0 -94.5 18.5t-66.5 37.5zM130 -226l48 -13l63 174l-69 19z" />
    <glyph glyph-name="uni021A" unicode="&#x21a;" horiz-adv-x="546" 
d="M15 657v62h516v-62h-224v-657h-69v657h-223zM190 -226l48 -13l63 174l-69 19z" />
    <glyph glyph-name="uni021B" unicode="&#x21b;" horiz-adv-x="324" 
d="M294 474h-138v-326q0 -35 2.5 -53.5t15.5 -33.5t39 -15q29 0 75 22l7 -56q-48 -24 -94 -24q-111 0 -111 131v355h-68v54h68v86l66 38v-124h138v-54zM106 -226l48 -13l63 174l-69 19z" />
    <glyph glyph-name="dotlessj" unicode="&#x237;" horiz-adv-x="238" 
d="M153 528v-602q0 -72 -29.5 -108.5t-94.5 -36.5q-53 0 -94 23l12 62q41 -26 85 -26q30 0 42 21t12 74v593h67z" />
    <glyph glyph-name="apostrophe" unicode="&#x2bc;" horiz-adv-x="186" 
d="M39 584l23 177q5 32 37 32q35 0 35 -34q0 -11 -3 -20l-53 -163z" />
    <glyph glyph-name="circumflex" unicode="&#x2c6;" horiz-adv-x="337" 
d="M139 744h73l93 -132l-40 -29l-91 109l-90 -108l-43 28z" />
    <glyph glyph-name="caron" unicode="&#x2c7;" horiz-adv-x="337" 
d="M206 584h-73l-98 132l43 28l91 -108l90 109l40 -29z" />
    <glyph glyph-name="uni02C9" unicode="&#x2c9;" horiz-adv-x="343" 
d="M30 623v60h281v-60h-281z" />
    <glyph glyph-name="breve" unicode="&#x2d8;" horiz-adv-x="414" 
d="M310 729l45 -31q-19 -44 -57 -79t-96 -35q-56 0 -91 34t-52 76l49 34q40 -86 97 -86q26 0 47 14.5t32 30t26 42.5z" />
    <glyph glyph-name="dotaccent" unicode="&#x2d9;" horiz-adv-x="286" 
d="M98 664q0 21 12 32.5t31 11.5q44 0 44 -45q0 -22 -12 -34.5t-32 -12.5q-19 0 -31 13t-12 35z" />
    <glyph glyph-name="ring" unicode="&#x2da;" horiz-adv-x="322" 
d="M66 676q0 42 28.5 71.5t70.5 29.5q45 0 72 -28.5t27 -68.5q0 -45 -28.5 -75.5t-72.5 -30.5q-45 0 -71 29t-26 73zM110 676q0 -27 14.5 -44.5t40.5 -17.5t41 17.5t15 44.5q0 28 -15 44.5t-41 16.5q-27 0 -41 -16.5t-14 -44.5z" />
    <glyph glyph-name="ogonek" unicode="&#x2db;" horiz-adv-x="530" 
d="M272 3l70 -2q-77 -62 -77 -111q0 -44 40 -44q27 0 53 14l9 -56q-33 -15 -77 -15q-45 0 -69.5 22t-24.5 61q0 73 76 131z" />
    <glyph glyph-name="tilde" unicode="&#x2dc;" horiz-adv-x="384" 
d="M98 607l-17 52q15 15 41.5 26.5t50.5 11.5q19 0 52 -13.5t55 -13.5q31 0 62 22l7 -58q-29 -21 -71 -21q-23 0 -59.5 11t-49.5 11q-32 0 -71 -28z" />
    <glyph glyph-name="hungarumlaut" unicode="&#x2dd;" horiz-adv-x="494" 
d="M240 583l-25 40l186 143l39 -59zM54 583l-25 40l186 143l39 -59z" />
    <glyph glyph-name="uni0394" unicode="&#x394;" horiz-adv-x="702" 
d="M672 0h-642l287 690h69zM574 58l-224 548l-225 -548h449z" />
    <glyph glyph-name="uni03A9" unicode="&#x3a9;" horiz-adv-x="799" 
d="M90 347q0 161 90 257.5t219 96.5q135 0 219.5 -93t84.5 -248q0 -192 -141 -302h170v-58h-268l10 55q67 36 113 109t46 189q0 144 -67.5 217t-168.5 73q-102 0 -169 -78t-67 -220q0 -109 49 -183.5t119 -108.5l10 -53h-268v58h153q-134 104 -134 289z" />
    <glyph glyph-name="uni03BC" unicode="&#x3bc;" horiz-adv-x="591" 
d="M507 -16q-80 0 -82 86q-53 -83 -152 -83q-83 0 -120 59v-255h-64v737h64v-341q0 -65 31.5 -103t95.5 -38q70 0 107.5 43.5t37.5 115.5v323h65v-442q0 -26 7.5 -38.5t26.5 -12.5q6 0 26 5l6 -45q-20 -11 -49 -11z" />
    <glyph glyph-name="pi" unicode="&#x3c0;" horiz-adv-x="586" 
d="M553 472h-82v-383q0 -27 6.5 -39t28.5 -12q18 0 36 7l6 -46q-24 -12 -58 -12q-83 0 -83 86v399h-234v-472h-64v472h-82v56h526v-56z" />
    <glyph glyph-name="Wgrave" unicode="&#x1e80;" horiz-adv-x="833" 
d="M232 0h-78l-94 719h72l75 -610l186 541h52l181 -541l76 610h71l-94 -719h-80l-181 525zM531 812l-15 -45l-214 52l20 66z" />
    <glyph glyph-name="wgrave" unicode="&#x1e81;" horiz-adv-x="671" 
d="M575 528l66 -8l-113 -520h-84l-106 417l-122 -417h-81l-105 521l66 7l87 -450l128 440h62l108 -440zM442 625l-27 -41l-204 119l39 60z" />
    <glyph glyph-name="Wacute" unicode="&#x1e82;" horiz-adv-x="833" 
d="M232 0h-78l-94 719h72l75 -610l186 541h52l181 -541l76 610h71l-94 -719h-80l-181 525zM358 767l-15 45l209 73l20 -66z" />
    <glyph glyph-name="wacute" unicode="&#x1e83;" horiz-adv-x="671" 
d="M575 528l66 -8l-113 -520h-84l-106 417l-122 -417h-81l-105 521l66 7l87 -450l128 440h62l108 -440zM277 584l-27 41l192 138l39 -60z" />
    <glyph glyph-name="Wdieresis" unicode="&#x1e84;" horiz-adv-x="833" 
d="M232 0h-78l-94 719h72l75 -610l186 541h52l181 -541l76 610h71l-94 -719h-80l-181 525zM296 827q0 20 11 31.5t29 11.5q41 0 41 -43q0 -20 -11.5 -32t-29.5 -12q-19 0 -29.5 12t-10.5 32zM456 827q0 20 11 31.5t29 11.5q41 0 41 -43q0 -20 -11 -32t-30 -12t-29.5 12
t-10.5 32z" />
    <glyph glyph-name="wdieresis" unicode="&#x1e85;" horiz-adv-x="671" 
d="M575 528l66 -8l-113 -520h-84l-106 417l-122 -417h-81l-105 521l66 7l87 -450l128 440h62l108 -440zM215 655q0 20 11 31.5t29 11.5q41 0 41 -43q0 -20 -11.5 -32t-29.5 -12q-19 0 -29.5 12t-10.5 32zM375 655q0 20 11 31.5t29 11.5q41 0 41 -43q0 -20 -11 -32t-30 -12
t-29.5 12t-10.5 32z" />
    <glyph glyph-name="Ygrave" unicode="&#x1ef2;" horiz-adv-x="563" 
d="M286 363l188 356h74l-228 -420v-299h-71v296l-234 423h77zM396 812l-15 -45l-214 52l20 66z" />
    <glyph glyph-name="ygrave" unicode="&#x1ef3;" horiz-adv-x="456" 
d="M372 528l66 -7q-80 -296 -172 -516q-50 -120 -94.5 -172t-122.5 -52q-73 0 -134 36l19 61q66 -38 116 -38q51 0 81 39t64 129l-184 513l72 7l151 -440q46 110 138 440zM304 625l-27 -41l-204 119l39 60z" />
    <glyph glyph-name="endash" unicode="&#x2013;" horiz-adv-x="500" 
d="M0 266v59h500v-59h-500z" />
    <glyph glyph-name="emdash" unicode="&#x2014;" horiz-adv-x="1000" 
d="M0 266v59h1000v-59h-1000z" />
    <glyph glyph-name="quoteleft" unicode="&#x2018;" horiz-adv-x="191" 
d="M154 763l-11 -204q-1 -18 -11.5 -27.5t-25.5 -9.5q-20 0 -31 14.5t-5 39.5l44 193z" />
    <glyph glyph-name="quoteright" unicode="&#x2019;" horiz-adv-x="186" 
d="M65 527l11 204q3 37 37 37q20 0 31 -14.5t5 -39.5l-44 -193z" />
    <glyph glyph-name="quotesinglbase" unicode="&#x201a;" horiz-adv-x="191" 
d="M60 -141l11 204q1 18 11.5 28t25.5 10q20 0 31 -15t5 -40l-44 -193z" />
    <glyph glyph-name="quotedblleft" unicode="&#x201c;" horiz-adv-x="335" 
d="M298 763l-11 -204q-1 -18 -11.5 -27.5t-25.5 -9.5q-20 0 -31 14.5t-5 39.5l44 193zM154 763l-11 -204q-1 -18 -11.5 -27.5t-25.5 -9.5q-20 0 -31 14.5t-5 39.5l44 193z" />
    <glyph glyph-name="quotedblright" unicode="&#x201d;" horiz-adv-x="330" 
d="M209 527l11 204q3 37 37 37q20 0 31 -14.5t5 -39.5l-44 -193zM65 527l11 204q3 37 37 37q20 0 31 -14.5t5 -39.5l-44 -193z" />
    <glyph glyph-name="quotedblbase" unicode="&#x201e;" horiz-adv-x="332" 
d="M60 -141l11 204q1 18 11.5 28t25.5 10q20 0 31 -15t5 -40l-44 -193zM201 -141l11 204q1 18 11.5 28t25.5 10q20 0 31 -15t5 -40l-44 -193z" />
    <glyph glyph-name="dagger" unicode="&#x2020;" horiz-adv-x="489" 
d="M206 -113l8 623h-150v61h152l-8 149h76l-8 -149h162v-61h-162l8 -623h-78z" />
    <glyph glyph-name="daggerdbl" unicode="&#x2021;" horiz-adv-x="489" 
d="M214 112v398h-150v61h152l-8 149h76l-8 -149h162v-61h-162v-398h162v-61h-162l8 -164h-76l8 164h-152v61h150z" />
    <glyph glyph-name="bullet" unicode="&#x2022;" horiz-adv-x="468" 
d="M100 356q0 63 38 103t96 40q59 0 96.5 -40t37.5 -103t-37.5 -102.5t-96.5 -39.5t-96.5 38.5t-37.5 103.5z" />
    <glyph glyph-name="ellipsis" unicode="&#x2026;" horiz-adv-x="784" 
d="M84 46q0 23 14.5 40t39.5 17q26 0 40.5 -15.5t14.5 -40.5t-15 -41t-41 -16q-25 0 -39 15.5t-14 40.5zM353 46q0 23 14.5 40t39.5 17q26 0 40.5 -15.5t14.5 -40.5t-15 -41t-41 -16q-25 0 -39 15.5t-14 40.5zM619 46q0 23 14.5 40t39.5 17q26 0 40.5 -15.5t14.5 -40.5
t-15 -41t-41 -16q-25 0 -39 15.5t-14 40.5z" />
    <glyph glyph-name="perthousand" unicode="&#x2030;" horiz-adv-x="1006" 
d="M512 341q125 0 125 -175q0 -91 -35 -135.5t-94 -44.5q-62 0 -95.5 45.5t-33.5 133.5q0 90 37.5 133t95.5 43zM509 38q69 0 69 127q0 122 -68 122q-72 0 -72 -127q0 -60 18.5 -91t52.5 -31zM821 341q125 0 125 -175q0 -91 -35 -135.5t-94 -44.5q-62 0 -95.5 45.5
t-33.5 133.5q0 90 37.5 133t95.5 43zM818 38q69 0 69 127q0 122 -68 122q-72 0 -72 -127q0 -60 18.5 -91t52.5 -31zM193 719q125 0 125 -175q0 -91 -35 -135.5t-94 -44.5q-62 0 -95.5 45.5t-33.5 133.5q0 90 37.5 133t95.5 43zM190 416q69 0 69 127q0 122 -68 122
q-72 0 -72 -127q0 -60 18.5 -91t52.5 -31zM197 0h-68l378 719h69z" />
    <glyph glyph-name="guilsinglleft" unicode="&#x2039;" horiz-adv-x="343" 
d="M293 121l-45 -42l-203 198l201 200l43 -41l-157 -157z" />
    <glyph glyph-name="guilsinglright" unicode="&#x203a;" horiz-adv-x="343" 
d="M95 79l-45 42l161 158l-157 157l43 41l201 -200z" />
    <glyph glyph-name="fraction" unicode="&#x2044;" horiz-adv-x="71" 
d="M-133 0h-68l378 719h69z" />
    <glyph glyph-name="zerosuperior" unicode="&#x2070;" horiz-adv-x="400" 
d="M202 825q73 0 111 -50.5t38 -163.5q0 -116 -38.5 -166t-114.5 -50q-78 0 -113.5 50.5t-35.5 164.5q0 112 41 163.5t112 51.5zM199 446q46 0 68.5 37.5t22.5 126.5q0 87 -21.5 125.5t-67.5 38.5q-48 0 -69 -39.5t-21 -130.5q0 -83 21 -120.5t67 -37.5z" />
    <glyph glyph-name="foursuperior" unicode="&#x2074;" horiz-adv-x="400" 
d="M301 408h-64v93h-200v51l182 267h83v-266h60v-51h-61v-94zM99 553h138v208z" />
    <glyph glyph-name="fivesuperior" unicode="&#x2075;" horiz-adv-x="400" 
d="M206 643q-47 0 -96 -47l-46 15v208h250v-57h-189v-97q36 33 91 33q63 0 95 -39t32 -105q0 -74 -41 -116.5t-115 -42.5q-38 0 -75.5 12t-54.5 28l27 54q47 -40 105 -40q89 0 89 103q0 91 -72 91z" />
    <glyph glyph-name="sixsuperior" unicode="&#x2076;" horiz-adv-x="400" 
d="M222 773q-40 0 -69.5 -35t-37.5 -90q40 36 96 36q68 0 102 -39.5t34 -103.5q0 -67 -39 -106.5t-104 -39.5q-154 0 -154 190q0 117 47.5 178.5t125.5 61.5q82 0 127 -59l-39 -39q-43 46 -89 46zM287 538q0 95 -84 95q-51 0 -90 -41v-24q0 -51 20 -87.5t67 -36.5
q41 0 64 25.5t23 68.5z" />
    <glyph glyph-name="sevensuperior" unicode="&#x2077;" horiz-adv-x="400" 
d="M53 763v56h294v-41l-140 -240q-18 -31 -18 -69v-61h-63v59q0 51 18 81l128 215h-219z" />
    <glyph glyph-name="eightsuperior" unicode="&#x2078;" horiz-adv-x="400" 
d="M56 526q0 60 48 97q-35 34 -35 86q0 54 36.5 85t94.5 31q62 0 95.5 -30t33.5 -85q0 -48 -37 -91q51 -30 51 -92q0 -61 -38 -96.5t-106 -35.5q-70 0 -106.5 34.5t-36.5 96.5zM203 595l-50 5q-36 -23 -36 -76q0 -38 21.5 -60t61.5 -22q39 0 61 22t22 61q0 36 -18.5 51
t-61.5 19zM199 776q-30 0 -50 -16.5t-20 -48.5q0 -65 64 -71l49 -4q27 20 27 75q0 31 -19 48t-51 17z" />
    <glyph glyph-name="ninesuperior" unicode="&#x2079;" horiz-adv-x="400" 
d="M183 447q40 0 64.5 33t32.5 93q-43 -39 -90 -39q-68 0 -102.5 39.5t-34.5 103.5q0 67 41 107.5t106 40.5q145 0 145 -187q0 -119 -43 -181t-120 -62q-82 0 -127 59l39 39q43 -46 89 -46zM113 680q0 -44 21.5 -69.5t63.5 -25.5t84 44v26q0 121 -84 121q-39 0 -62 -26.5
t-23 -69.5z" />
    <glyph glyph-name="zeroinferior" unicode="&#x2080;" horiz-adv-x="400" 
d="M202 329q73 0 111 -50.5t38 -163.5q0 -116 -38.5 -166t-114.5 -50q-78 0 -113.5 50.5t-35.5 164.5q0 112 41 163.5t112 51.5zM199 -50q46 0 68.5 37.5t22.5 126.5q0 87 -21.5 125.5t-67.5 38.5q-48 0 -69 -39.5t-21 -130.5q0 -83 21 -120.5t67 -37.5z" />
    <glyph glyph-name="oneinferior" unicode="&#x2081;" horiz-adv-x="400" 
d="M113 -90v52h79v309h-72v52h139v-361h81v-52h-227z" />
    <glyph glyph-name="twoinferior" unicode="&#x2082;" horiz-adv-x="400" 
d="M93 200l-52 26q21 43 61 73t93 30q58 0 95 -32.5t37 -91.5q0 -70 -56 -135q-51 -58 -113 -104h179v-56h-279v46q51 38 79.5 62t70.5 69q51 54 51 114q0 34 -20 52t-50 18q-56 0 -96 -71z" />
    <glyph glyph-name="threeinferior" unicode="&#x2083;" horiz-adv-x="400" 
d="M109 215l-52 23q53 91 150 91q57 0 90.5 -27.5t33.5 -77.5q0 -32 -16.5 -59.5t-43.5 -41.5q66 -22 66 -90q0 -62 -41.5 -98t-110.5 -36q-81 0 -132 44l26 53q53 -43 109 -43q39 0 62 20t23 56q0 65 -74 65h-55v54h54q30 0 49.5 20t19.5 50q0 57 -67 57q-53 0 -91 -60z
" />
    <glyph glyph-name="fourinferior" unicode="&#x2084;" horiz-adv-x="400" 
d="M296 -88h-64v93h-200v51l182 267h83v-266h60v-51h-61v-94zM94 57h138v208z" />
    <glyph glyph-name="fiveinferior" unicode="&#x2085;" horiz-adv-x="400" 
d="M209 147q-47 0 -96 -47l-46 15v208h250v-57h-189v-97q36 33 91 33q63 0 95 -39t32 -105q0 -74 -41 -116.5t-115 -42.5q-38 0 -75.5 12t-54.5 28l27 54q47 -40 105 -40q89 0 89 103q0 91 -72 91z" />
    <glyph glyph-name="sixinferior" unicode="&#x2086;" horiz-adv-x="400" 
d="M217 277q-40 0 -69.5 -35t-37.5 -90q40 36 96 36q68 0 102 -39.5t34 -103.5q0 -67 -39 -106.5t-104 -39.5q-154 0 -154 190q0 117 47.5 178.5t125.5 61.5q82 0 127 -59l-39 -39q-43 46 -89 46zM282 42q0 95 -84 95q-51 0 -90 -41v-24q0 -51 20 -87.5t67 -36.5
q41 0 64 25.5t23 68.5z" />
    <glyph glyph-name="seveninferior" unicode="&#x2087;" horiz-adv-x="400" 
d="M56 267v56h294v-41l-140 -240q-18 -31 -18 -69v-61h-63v59q0 51 18 81l128 215h-219z" />
    <glyph glyph-name="eightinferior" unicode="&#x2088;" horiz-adv-x="400" 
d="M59 30q0 60 48 97q-35 34 -35 86q0 54 36.5 85t94.5 31q62 0 95.5 -30t33.5 -85q0 -48 -37 -91q51 -30 51 -92q0 -61 -38 -96.5t-106 -35.5q-70 0 -106.5 34.5t-36.5 96.5zM206 99l-50 5q-36 -23 -36 -76q0 -38 22 -60t61 -22t61 22t22 61q0 36 -18.5 51t-61.5 19z
M202 280q-30 0 -50 -16.5t-20 -48.5q0 -65 64 -71l49 -4q27 20 27 75q0 31 -19 48t-51 17z" />
    <glyph glyph-name="nineinferior" unicode="&#x2089;" horiz-adv-x="400" 
d="M178 -49q40 0 64.5 33t32.5 93q-43 -39 -90 -39q-68 0 -102.5 39.5t-34.5 103.5q0 67 41 107.5t106 40.5q145 0 145 -187q0 -119 -43 -181t-120 -62q-82 0 -127 59l39 39q43 -46 89 -46zM108 184q0 -44 21.5 -69.5t63.5 -25.5t84 44v26q0 121 -84 121q-39 0 -62 -26.5
t-23 -69.5z" />
    <glyph glyph-name="Euro" unicode="&#x20ac;" horiz-adv-x="523" 
d="M24 363v47h70q20 288 230 288q49 0 85 -15.5t56.5 -44t31 -54.5t17.5 -61l-61 -16q-13 65 -43 98t-89 33q-44 0 -75 -18t-47.5 -52t-24 -71t-10.5 -87h202v-47h-342zM24 302h342v-47h-199q17 -205 159 -205q49 0 76 16t57 62l46 -37q-39 -59 -81.5 -80t-101.5 -21
q-199 0 -226 265h-72v47z" />
    <glyph glyph-name="trademark" unicode="&#x2122;" horiz-adv-x="814" 
d="M198 667v-341h-61v341h-120v53h310v-53h-129zM391 720h67l103 -300l104 300h64l24 -394h-57l-17 282l-88 -251h-62l-90 251l-21 -282h-56z" />
    <glyph glyph-name="Omega" unicode="&#x2126;" horiz-adv-x="799" 
d="M90 347q0 161 90 257.5t219 96.5q135 0 219.5 -93t84.5 -248q0 -192 -141 -302h170v-58h-268l10 55q67 36 113 109t46 189q0 144 -67.5 217t-168.5 73q-102 0 -169 -78t-67 -220q0 -109 49 -183.5t119 -108.5l10 -53h-268v58h153q-134 104 -134 289z" />
    <glyph glyph-name="onethird" unicode="&#x2153;" horiz-adv-x="823" 
d="M45 306v52h79v309h-72v52h139v-361h81v-52h-227zM255 0h-68l378 719h69zM551 311l-52 23q53 91 150 91q57 0 90.5 -27.5t33.5 -77.5q0 -32 -16.5 -59.5t-43.5 -41.5q66 -22 66 -90q0 -62 -41.5 -98t-110.5 -36q-81 0 -132 44l26 53q53 -43 109 -43q39 0 62 20t23 56
q0 65 -74 65h-55v54h54q30 0 49.5 20t19.5 50q0 57 -67 57q-53 0 -91 -60z" />
    <glyph glyph-name="twothirds" unicode="&#x2154;" horiz-adv-x="823" 
d="M70 596l-52 26q21 43 61 73t93 30q58 0 95 -32.5t37 -91.5q0 -70 -56 -135q-51 -58 -113 -104h179v-56h-279v46q51 38 79.5 62t70.5 69q51 54 51 114q0 34 -20 52t-50 18q-56 0 -96 -71zM275 0h-68l378 719h69zM563 311l-52 23q53 91 150 91q57 0 90.5 -27.5t33.5 -77.5
q0 -32 -16.5 -59.5t-43.5 -41.5q66 -22 66 -90q0 -62 -41.5 -98t-110.5 -36q-81 0 -132 44l26 53q53 -43 109 -43q39 0 62 20t23 56q0 65 -74 65h-55v54h54q30 0 49.5 20t19.5 50q0 57 -67 57q-53 0 -91 -60z" />
    <glyph glyph-name="oneeighth" unicode="&#x215b;" horiz-adv-x="823" 
d="M25 306v52h79v309h-72v52h139v-361h81v-52h-227zM243 0h-68l378 719h69zM503 126q0 60 48 97q-35 34 -35 86q0 54 36.5 85t94.5 31q62 0 95.5 -30t33.5 -85q0 -48 -37 -91q51 -30 51 -92q0 -61 -38 -96.5t-106 -35.5q-70 0 -106.5 34.5t-36.5 96.5zM650 195l-50 5
q-36 -23 -36 -76q0 -38 22 -60t61 -22t61 22t22 61q0 36 -18.5 51t-61.5 19zM646 376q-30 0 -50 -16.5t-20 -48.5q0 -65 64 -71l49 -4q27 20 27 75q0 31 -19 48t-51 17z" />
    <glyph glyph-name="threeeighths" unicode="&#x215c;" horiz-adv-x="823" 
d="M77 611l-52 23q53 91 150 91q57 0 90.5 -27.5t33.5 -77.5q0 -32 -16.5 -59.5t-43.5 -41.5q66 -22 66 -90q0 -62 -41.5 -98t-110.5 -36q-81 0 -132 44l26 53q53 -43 109 -43q39 0 62 20t23 56q0 65 -74 65h-55v54h54q30 0 49.5 20t19.5 50q0 57 -67 57q-53 0 -91 -60z
M258 0h-68l378 719h69zM505 126q0 60 48 97q-35 34 -35 86q0 54 36.5 85t94.5 31q62 0 95.5 -30t33.5 -85q0 -48 -37 -91q51 -30 51 -92q0 -61 -38 -96.5t-106 -35.5q-70 0 -106.5 34.5t-36.5 96.5zM652 195l-50 5q-36 -23 -36 -76q0 -38 22 -60t61 -22t61 22t22 61
q0 36 -18.5 51t-61.5 19zM648 376q-30 0 -50 -16.5t-20 -48.5q0 -65 64 -71l49 -4q27 20 27 75q0 31 -19 48t-51 17z" />
    <glyph glyph-name="fiveeighths" unicode="&#x215d;" horiz-adv-x="823" 
d="M167 543q-47 0 -96 -47l-46 15v208h250v-57h-189v-97q36 33 91 33q63 0 95 -39t32 -105q0 -74 -41 -116.5t-115 -42.5q-38 0 -75.5 12t-54.5 28l27 54q47 -40 105 -40q89 0 89 103q0 91 -72 91zM257 0h-68l378 719h69zM503 126q0 60 48 97q-35 34 -35 86q0 54 36.5 85
t94.5 31q62 0 95.5 -30t33.5 -85q0 -48 -37 -91q51 -30 51 -92q0 -61 -38 -96.5t-106 -35.5q-70 0 -106.5 34.5t-36.5 96.5zM650 195l-50 5q-36 -23 -36 -76q0 -38 22 -60t61 -22t61 22t22 61q0 36 -18.5 51t-61.5 19zM646 376q-30 0 -50 -16.5t-20 -48.5q0 -65 64 -71
l49 -4q27 20 27 75q0 31 -19 48t-51 17z" />
    <glyph glyph-name="seveneighths" unicode="&#x215e;" horiz-adv-x="823" 
d="M28 663v56h294v-41l-140 -240q-18 -31 -18 -69v-61h-63v59q0 51 18 81l128 215h-219zM192 0h-68l378 719h69zM473 126q0 60 48 97q-35 34 -35 86q0 54 36.5 85t94.5 31q62 0 95.5 -30t33.5 -85q0 -48 -37 -91q51 -30 51 -92q0 -61 -38 -96.5t-106 -35.5
q-70 0 -106.5 34.5t-36.5 96.5zM620 195l-50 5q-36 -23 -36 -76q0 -38 22 -60t61 -22t61 22t22 61q0 36 -18.5 51t-61.5 19zM616 376q-30 0 -50 -16.5t-20 -48.5q0 -65 64 -71l49 -4q27 20 27 75q0 31 -19 48t-51 17z" />
    <glyph glyph-name="partialdiff" unicode="&#x2202;" horiz-adv-x="589" 
d="M496 318q0 -328 -207 -328q-99 0 -150 66.5t-51 176.5q0 109 53.5 173.5t143.5 64.5q95 0 143 -87q-8 126 -42.5 187t-100.5 61q-71 0 -120 -75l-52 33q60 102 173 102q61 0 103 -27t64.5 -79t32.5 -116.5t10 -151.5zM292 49q137 0 137 245q-17 46 -53.5 82t-89.5 36
q-66 0 -97 -49.5t-31 -130.5q0 -51 11.5 -90t42.5 -66t80 -27z" />
    <glyph glyph-name="Delta" unicode="&#x2206;" horiz-adv-x="702" 
d="M672 0h-642l287 690h69zM574 58l-224 548l-225 -548h449z" />
    <glyph glyph-name="product" unicode="&#x220f;" horiz-adv-x="743" 
d="M649 -128h-67v763h-421v-763h-66v820h554v-820z" />
    <glyph glyph-name="summation" unicode="&#x2211;" horiz-adv-x="576" 
d="M541 -128h-502v58l274 355l-265 348v58h471v-58h-384l265 -350l-279 -353h420v-58z" />
    <glyph glyph-name="minus" unicode="&#x2212;" 
d="M499 348v-59h-449v59h449z" />
    <glyph glyph-name="uni2215" unicode="&#x2215;" horiz-adv-x="403" 
d="M15 -71l319 843l59 -22l-321 -844z" />
    <glyph glyph-name="uni2219" unicode="&#x2219;" horiz-adv-x="301" 
d="M114 340q0 17 11.5 28.5t28.5 11.5q16 0 28 -12.5t12 -27.5q0 -16 -12 -28t-28 -12q-15 0 -27.5 12t-12.5 28z" />
    <glyph glyph-name="radical" unicode="&#x221a;" horiz-adv-x="693" 
d="M649 793l-284 -809h-61l-155 441l-98 -54l-25 50l167 91l146 -429l247 710h63z" />
    <glyph glyph-name="infinity" unicode="&#x221e;" horiz-adv-x="737" 
d="M696 353q0 -73 -44 -115.5t-105 -42.5q-55 0 -101.5 27t-78.5 70q-82 -98 -171 -98q-69 0 -113.5 40t-44.5 108q0 67 46 111t114 44q55 0 94.5 -26t78.5 -80q45 55 84.5 81t95.5 26q65 0 105 -42.5t40 -102.5zM633 347q0 44 -22.5 69t-68.5 25q-65 0 -134 -100
q69 -92 140 -92q40 0 62.5 29t22.5 69zM331 340q-37 54 -67 77.5t-67 23.5q-44 0 -68.5 -28t-24.5 -70t26 -69t69 -27q67 0 132 93z" />
    <glyph glyph-name="integral" unicode="&#x222b;" horiz-adv-x="390" 
d="M344 684l-11 -51q-32 15 -68 15q-29 0 -42.5 -16.5t-13.5 -56.5q0 -14 2 -52l32 -582q1 -19 1 -42q0 -118 -111 -118q-52 0 -90 17l17 54q38 -15 69 -15q49 0 49 64q0 4 -0.5 10.5t-1 18t-0.5 20.5l-30 584q-1 19 -1 52q0 63 31.5 89t79.5 26t88 -17z" />
    <glyph glyph-name="approxequal" unicode="&#x2248;" horiz-adv-x="646" 
d="M454 364q-52 0 -121 32l-61 29q-54 25 -87 25q-50 0 -95 -68l-43 37q22 30 38 47q45 47 97 47q51 0 120 -32l62 -29q60 -26 87 -26q46 0 96 69l40 -37q-17 -30 -36 -50q-42 -44 -97 -44zM454 178q-52 0 -121 32l-61 29q-54 25 -87 25q-50 0 -95 -68l-43 37q22 30 38 47
q45 47 97 47q51 0 120 -32l62 -29q60 -26 87 -26q46 0 96 69l40 -37q-17 -30 -36 -50q-42 -44 -97 -44z" />
    <glyph glyph-name="notequal" unicode="&#x2260;" 
d="M47 374v59h266l68 116h70l-68 -116h120v-59h-155l-66 -113h221v-59h-256l-70 -120h-70l70 120h-130v59h165l66 113h-231z" />
    <glyph glyph-name="lessequal" unicode="&#x2264;" 
d="M495 0v55h-449v-55h449zM503 456l-373 -153l365 -156l-18 -57l-431 186v49l433 184z" />
    <glyph glyph-name="greaterequal" unicode="&#x2265;" 
d="M54 0v55h449v-55h-449zM419 303l-373 153l24 53l433 -184v-49l-431 -186l-18 57z" />
    <glyph glyph-name="triangle" unicode="&#x25b3;" horiz-adv-x="425" 
d="M150 203v231l185 -114z" />
    <glyph glyph-name="lozenge" unicode="&#x25ca;" horiz-adv-x="583" 
d="M527 336l-201 -349h-69l-201 347l201 356h69zM456 334l-167 302l-161 -300l166 -297z" />
    <glyph glyph-name="circle" unicode="&#x25cb;" horiz-adv-x="610" 
d="M100 354q0 85 60 145t145 60t145 -60t60 -145t-60 -145t-145 -60t-145 60t-60 145z" />
    <glyph glyph-name="onefifth" unicode="&#xf500;" horiz-adv-x="823" 
d="M56 306v52h79v309h-72v52h139v-361h81v-52h-227zM243 0h-68l378 719h69zM656 243q-47 0 -96 -47l-46 15v208h250v-57h-189v-97q36 33 91 33q63 0 95 -39t32 -105q0 -74 -41 -116.5t-115 -42.5q-38 0 -75.5 12t-54.5 28l27 54q47 -40 105 -40q89 0 89 103q0 91 -72 91z
" />
    <glyph glyph-name="twofifths" unicode="&#xf501;" horiz-adv-x="823" 
d="M61 596l-52 26q21 43 61 73t93 30q58 0 95 -32.5t37 -91.5q0 -70 -56 -135q-51 -58 -113 -104h179v-56h-279v46q51 38 79.5 62t70.5 69q51 54 51 114q0 34 -20 52t-50 18q-56 0 -96 -71zM262 0h-68l378 719h69zM669 243q-47 0 -96 -47l-46 15v208h250v-57h-189v-97
q36 33 91 33q63 0 95 -39t32 -105q0 -74 -41 -116.5t-115 -42.5q-38 0 -75.5 12t-54.5 28l27 54q47 -40 105 -40q89 0 89 103q0 91 -72 91z" />
    <glyph glyph-name="threefifths" unicode="&#xf502;" horiz-adv-x="823" 
d="M73 611l-52 23q53 91 150 91q57 0 90.5 -27.5t33.5 -77.5q0 -32 -16.5 -59.5t-43.5 -41.5q66 -22 66 -90q0 -62 -41.5 -98t-110.5 -36q-81 0 -132 44l26 53q53 -43 109 -43q39 0 62 20t23 56q0 65 -74 65h-55v54h54q30 0 49.5 20t19.5 50q0 57 -67 57q-53 0 -91 -60z
M243 0h-68l378 719h69zM664 243q-47 0 -96 -47l-46 15v208h250v-57h-189v-97q36 33 91 33q63 0 95 -39t32 -105q0 -74 -41 -116.5t-115 -42.5q-38 0 -75.5 12t-54.5 28l27 54q47 -40 105 -40q89 0 89 103q0 91 -72 91z" />
    <glyph glyph-name="fourfifths" unicode="&#xf503;" horiz-adv-x="823" 
d="M271 308h-64v93h-200v51l182 267h83v-266h60v-51h-61v-94zM69 453h138v208zM255 0h-68l378 719h69zM662 243q-47 0 -96 -47l-46 15v208h250v-57h-189v-97q36 33 91 33q63 0 95 -39t32 -105q0 -74 -41 -116.5t-115 -42.5q-38 0 -75.5 12t-54.5 28l27 54q47 -40 105 -40
q89 0 89 103q0 91 -72 91z" />
    <glyph glyph-name="onesixth" unicode="&#xf504;" horiz-adv-x="823" 
d="M29 306v52h79v309h-72v52h139v-361h81v-52h-227zM247 0h-68l378 719h69zM664 373q-40 0 -69.5 -35t-37.5 -90q40 36 96 36q68 0 102 -39.5t34 -103.5q0 -67 -39 -106.5t-104 -39.5q-154 0 -154 190q0 117 47.5 178.5t125.5 61.5q82 0 127 -59l-39 -39q-43 46 -89 46z
M729 138q0 95 -84 95q-51 0 -90 -41v-24q0 -51 20 -87.5t67 -36.5q41 0 64 25.5t23 68.5z" />
    <glyph glyph-name="fivesixths" unicode="&#xf505;" horiz-adv-x="823" 
d="M170 543q-47 0 -96 -47l-46 15v208h250v-57h-189v-97q36 33 91 33q63 0 95 -39t32 -105q0 -74 -41 -116.5t-115 -42.5q-38 0 -75.5 12t-54.5 28l27 54q47 -40 105 -40q89 0 89 103q0 91 -72 91zM255 -2h-68l378 719h69zM671 373q-40 0 -69.5 -35t-37.5 -90q40 36 96 36
q68 0 102 -39.5t34 -103.5q0 -67 -39 -106.5t-104 -39.5q-154 0 -154 190q0 117 47.5 178.5t125.5 61.5q82 0 127 -59l-39 -39q-43 46 -89 46zM736 138q0 95 -84 95q-51 0 -90 -41v-24q0 -51 20 -87.5t67 -36.5q41 0 64 25.5t23 68.5z" />
    <glyph glyph-name="oneseventh" unicode="&#xf506;" horiz-adv-x="823" 
d="M43 306v52h79v309h-72v52h139v-361h81v-52h-227zM243 0h-68l378 719h69zM515 361v56h294v-41l-140 -240q-18 -31 -18 -69v-61h-63v59q0 51 18 81l128 215h-219z" />
    <glyph glyph-name="twosevenths" unicode="&#xf507;" horiz-adv-x="823" 
d="M59 596l-52 26q21 43 61 73t93 30q58 0 95 -32.5t37 -91.5q0 -70 -56 -135q-51 -58 -113 -104h179v-56h-279v46q51 38 79.5 62t70.5 69q51 54 51 114q0 34 -20 52t-50 18q-56 0 -96 -71zM255 0h-68l378 719h69zM512 361v56h294v-41l-140 -240q-18 -31 -18 -69v-61h-63v59
q0 51 18 81l128 215h-219z" />
    <glyph glyph-name="threesevenths" unicode="&#xf508;" horiz-adv-x="823" 
d="M70 611l-52 23q53 91 150 91q57 0 90.5 -27.5t33.5 -77.5q0 -32 -16.5 -59.5t-43.5 -41.5q66 -22 66 -90q0 -62 -41.5 -98t-110.5 -36q-81 0 -132 44l26 53q53 -43 109 -43q39 0 62 20t23 56q0 65 -74 65h-55v54h54q30 0 49.5 20t19.5 50q0 57 -67 57q-53 0 -91 -60z
M231 0h-68l378 719h69zM512 361v56h294v-41l-140 -240q-18 -31 -18 -69v-61h-63v59q0 51 18 81l128 215h-219z" />
    <glyph glyph-name="foursevenths" unicode="&#xf509;" horiz-adv-x="823" 
d="M274 308h-64v93h-200v51l182 267h83v-266h60v-51h-61v-94zM72 453h138v208zM243 0h-68l378 719h69zM514 361v56h294v-41l-140 -240q-18 -31 -18 -69v-61h-63v59q0 51 18 81l128 215h-219z" />
    <glyph glyph-name="fivesevenths" unicode="&#xf50a;" horiz-adv-x="823" 
d="M164 543q-47 0 -96 -47l-46 15v208h250v-57h-189v-97q36 33 91 33q63 0 95 -39t32 -105q0 -74 -41 -116.5t-115 -42.5q-38 0 -75.5 12t-54.5 28l27 54q47 -40 105 -40q89 0 89 103q0 91 -72 91zM229 2h-68l378 719h69zM515 361v56h294v-41l-140 -240q-18 -31 -18 -69v-61
h-63v59q0 51 18 81l128 215h-219z" />
    <glyph glyph-name="sixsevenths" unicode="&#xf50b;" horiz-adv-x="823" 
d="M199 673q-40 0 -69.5 -35t-37.5 -90q40 36 96 36q68 0 102 -39.5t34 -103.5q0 -67 -39 -106.5t-104 -39.5q-154 0 -154 190q0 117 47.5 178.5t125.5 61.5q82 0 127 -59l-39 -39q-43 46 -89 46zM264 438q0 95 -84 95q-51 0 -90 -41v-24q0 -51 20 -87.5t67 -36.5
q41 0 64 25.5t23 68.5zM248 0h-68l378 719h69zM514 361v56h294v-41l-140 -240q-18 -31 -18 -69v-61h-63v59q0 51 18 81l128 215h-219z" />
    <glyph glyph-name="oneninth" unicode="&#xf50c;" horiz-adv-x="823" 
d="M30 304v52h79v309h-72v52h139v-361h81v-52h-227zM243 0h-68l378 719h69zM630 47q40 0 64.5 33t32.5 93q-43 -39 -90 -39q-68 0 -102.5 39.5t-34.5 103.5q0 67 41 107.5t106 40.5q145 0 145 -187q0 -119 -43 -181t-120 -62q-82 0 -127 59l39 39q43 -46 89 -46zM560 280
q0 -44 21.5 -69.5t63.5 -25.5t84 44v26q0 121 -84 121q-39 0 -62 -26.5t-23 -69.5z" />
    <glyph glyph-name="twoninths" unicode="&#xf50d;" horiz-adv-x="823" 
d="M64 596l-52 26q21 43 61 73t93 30q58 0 95 -32.5t37 -91.5q0 -70 -56 -135q-51 -58 -113 -104h179v-56h-279v46q51 38 79.5 62t70.5 69q51 54 51 114q0 34 -20 52t-50 18q-56 0 -96 -71zM274 0h-68l378 719h69zM633 47q40 0 64.5 33t32.5 93q-43 -39 -90 -39
q-68 0 -102.5 39.5t-34.5 103.5q0 67 41 107.5t106 40.5q145 0 145 -187q0 -119 -43 -181t-120 -62q-82 0 -127 59l39 39q43 -46 89 -46zM563 280q0 -44 21.5 -69.5t63.5 -25.5t84 44v26q0 121 -84 121q-39 0 -62 -26.5t-23 -69.5z" />
    <glyph glyph-name="fourninths" unicode="&#xf50e;" horiz-adv-x="823" 
d="M276 308h-64v93h-200v51l182 267h83v-266h60v-51h-61v-94zM74 453h138v208zM267 -1h-68l378 719h69zM628 47q40 0 64.5 33t32.5 93q-43 -39 -90 -39q-68 0 -102.5 39.5t-34.5 103.5q0 67 41 107.5t106 40.5q145 0 145 -187q0 -119 -43 -181t-120 -62q-82 0 -127 59l39 39
q43 -46 89 -46zM558 280q0 -44 21.5 -69.5t63.5 -25.5t84 44v26q0 121 -84 121q-39 0 -62 -26.5t-23 -69.5z" />
    <glyph glyph-name="fiveninths" unicode="&#xf50f;" horiz-adv-x="823" 
d="M171 543q-47 0 -96 -47l-46 15v208h250v-57h-189v-97q36 33 91 33q63 0 95 -39t32 -105q0 -74 -41 -116.5t-115 -42.5q-38 0 -75.5 12t-54.5 28l27 54q47 -40 105 -40q89 0 89 103q0 91 -72 91zM257 0h-68l378 719h69zM633 47q40 0 64.5 33t32.5 93q-43 -39 -90 -39
q-68 0 -102.5 39.5t-34.5 103.5q0 67 41 107.5t106 40.5q145 0 145 -187q0 -119 -43 -181t-120 -62q-82 0 -127 59l39 39q43 -46 89 -46zM563 280q0 -44 21.5 -69.5t63.5 -25.5t84 44v26q0 121 -84 121q-39 0 -62 -26.5t-23 -69.5z" />
    <glyph glyph-name="sevenninths" unicode="&#xf510;" horiz-adv-x="823" 
d="M22 663v56h294v-41l-140 -240q-18 -31 -18 -69v-61h-63v59q0 51 18 81l128 215h-219zM187 2h-68l378 719h69zM600 47q40 0 64.5 33t32.5 93q-43 -39 -90 -39q-68 0 -102.5 39.5t-34.5 103.5q0 67 41 107.5t106 40.5q145 0 145 -187q0 -119 -43 -181t-120 -62
q-82 0 -127 59l39 39q43 -46 89 -46zM530 280q0 -44 21.5 -69.5t63.5 -25.5t84 44v26q0 121 -84 121q-39 0 -62 -26.5t-23 -69.5z" />
    <glyph glyph-name="eightninths" unicode="&#xf511;" horiz-adv-x="823" 
d="M31 426q0 60 48 97q-35 34 -35 86q0 54 36.5 85t94.5 31q62 0 95.5 -30t33.5 -85q0 -48 -37 -91q51 -30 51 -92q0 -61 -38 -96.5t-106 -35.5q-70 0 -106.5 34.5t-36.5 96.5zM178 495l-50 5q-36 -23 -36 -76q0 -38 22 -60t61 -22t61 22t22 61q0 36 -18.5 51t-61.5 19z
M174 676q-30 0 -50 -16.5t-20 -48.5q0 -65 64 -71l49 -4q27 20 27 75q0 31 -19 48t-51 17zM263 0h-68l378 719h69zM631 47q40 0 64.5 33t32.5 93q-43 -39 -90 -39q-68 0 -102.5 39.5t-34.5 103.5q0 67 41 107.5t106 40.5q145 0 145 -187q0 -119 -43 -181t-120 -62
q-82 0 -127 59l39 39q43 -46 89 -46zM561 280q0 -44 21.5 -69.5t63.5 -25.5t84 44v26q0 121 -84 121q-39 0 -62 -26.5t-23 -69.5z" />
    <glyph glyph-name="a.smcp" unicode="&#xf605;" horiz-adv-x="505" 
d="M87 0h-67l182 575h94l189 -575h-69l-54 165h-222zM248 525l-93 -303h190z" />
    <glyph glyph-name="b.smcp" unicode="&#xf606;" horiz-adv-x="514" 
d="M272 0h-178v575h175q86 0 133.5 -34.5t47.5 -100.5q0 -49 -25 -86t-63 -52q53 -11 82.5 -47t29.5 -85q0 -81 -53.5 -125.5t-148.5 -44.5zM282 271h-122v-215h119q63 0 93 31t30 81q0 47 -30.5 75t-89.5 28zM257 518h-97v-193h101q57 0 88 29.5t31 74.5q0 48 -29.5 68.5
t-93.5 20.5z" />
    <glyph glyph-name="c.smcp" unicode="&#xf607;" horiz-adv-x="476" 
d="M289 49q75 0 143 43l15 -60q-65 -43 -166 -43q-67 0 -113 24.5t-69 68.5t-32.5 92.5t-9.5 109.5q0 50 5 91t19 81.5t37 68.5t62 45t90 17q151 0 181 -144l-66 -16q-14 49 -39 75.5t-78 26.5q-31 0 -55 -10.5t-39 -31t-24.5 -42.5t-13.5 -54t-5.5 -57t-1.5 -59
q0 -111 37 -168.5t123 -57.5z" />
    <glyph glyph-name="d.smcp" unicode="&#xf608;" horiz-adv-x="541" 
d="M94 0v575h176q104 0 162.5 -60t58.5 -201q0 -92 -19 -156t-54 -97t-75 -47t-92 -14h-157zM162 519v-462h96q82 0 121.5 57t39.5 186q0 116 -37 167.5t-113 51.5h-107z" />
    <glyph glyph-name="e.smcp" unicode="&#xf609;" horiz-adv-x="459" 
d="M94 0v575h324v-58h-256v-190h223v-58h-223v-211h267v-58h-335z" />
    <glyph glyph-name="f.smcp" unicode="&#xf60a;" horiz-adv-x="441" 
d="M94 575h337v-58h-269v-190h225v-59h-225v-268h-68v575z" />
    <glyph glyph-name="g.smcp" unicode="&#xf60b;" horiz-adv-x="517" 
d="M270 225v55h197v-254q-81 -37 -171 -37q-125 0 -182 73.5t-57 235.5q0 133 53 211t165 78q82 0 125.5 -36.5t57.5 -107.5l-62 -15q-17 53 -42.5 77t-80.5 24q-69 0 -107.5 -55.5t-38.5 -172.5q0 -125 36 -190.5t135 -65.5q58 0 102 21v159h-130z" />
    <glyph glyph-name="h.smcp" unicode="&#xf60c;" horiz-adv-x="604" 
d="M442 575h68v-575h-68v269h-280v-269h-68v575h68v-247h280v247z" />
    <glyph glyph-name="i.smcp" unicode="&#xf60d;" horiz-adv-x="256" 
d="M94 575h68v-575h-68v575z" />
    <glyph glyph-name="j.smcp" unicode="&#xf60e;" horiz-adv-x="354" 
d="M10 17l20 59q42 -25 98 -25q58 0 68 51q5 19 5 64v409h68v-412q0 -56 -5 -75q-9 -48 -45 -72.5t-89 -24.5q-70 0 -120 26z" />
    <glyph glyph-name="k.smcp" unicode="&#xf60f;" horiz-adv-x="484" 
d="M466 575l-152 -272l165 -303h-75l-148 268h-95v-268h-67v575h67v-249h97l138 249h70z" />
    <glyph glyph-name="l.smcp" unicode="&#xf610;" horiz-adv-x="446" 
d="M94 0v575h68v-517h259v-58h-327z" />
    <glyph glyph-name="m.smcp" unicode="&#xf611;" horiz-adv-x="683" 
d="M501 575h79l28 -575h-65l-21 460l-153 -404h-52l-155 405l-22 -461h-65l29 575h85l155 -425z" />
    <glyph glyph-name="n.smcp" unicode="&#xf612;" horiz-adv-x="600" 
d="M440 575h66v-575h-64l-282 457v-457h-66v575h68l278 -454v454z" />
    <glyph glyph-name="o.smcp" unicode="&#xf613;" horiz-adv-x="557" 
d="M277 -11q-48 0 -85 14t-69 47.5t-49 95.5t-17 150q0 143 60.5 217t167.5 74q110 0 162.5 -70t52.5 -216q0 -312 -223 -312zM429 300q0 125 -38.5 176.5t-108.5 51.5t-112 -54.5t-42 -177.5q0 -250 149 -250q72 0 112 55.5t40 198.5z" />
    <glyph glyph-name="p.smcp" unicode="&#xf614;" horiz-adv-x="516" 
d="M281 227h-119v-227h-68v575h197q88 0 136.5 -40.5t48.5 -116.5q0 -87 -53.5 -139t-141.5 -52zM162 284h112q64 0 98 32.5t34 93.5q0 58 -31 82.5t-94 24.5h-119v-233z" />
    <glyph glyph-name="q.smcp" unicode="&#xf615;" horiz-adv-x="555" 
d="M501 -23l-15 -58q-140 19 -251 59q-87 31 -132.5 102.5t-45.5 215.5q0 143 60 217t167 74q111 0 163.5 -70t52.5 -216q0 -139 -49 -211.5t-137 -81.5q23 -8 85 -18t102 -13zM429 300q0 125 -38.5 176.5t-108.5 51.5t-112 -54.5t-42 -177.5q0 -251 149 -251q72 0 112 56
t40 199z" />
    <glyph glyph-name="r.smcp" unicode="&#xf616;" horiz-adv-x="527" 
d="M371 269l106 -269h-73l-98 249h-145v-249h-67v575h186q89 0 140 -36.5t51 -112.5q0 -108 -100 -157zM161 307h117q54 0 89 27.5t35 78.5q0 58 -30.5 82t-95.5 24h-115v-212z" />
    <glyph glyph-name="s.smcp" unicode="&#xf617;" horiz-adv-x="453" 
d="M38 43l29 62q66 -56 146 -56q51 0 83 24.5t32 74.5q0 54 -30 77t-104 46q-27 9 -43.5 15.5t-38.5 20t-34 28.5t-20.5 39.5t-8.5 55.5q0 71 51 114t129 43q80 0 123.5 -40t50.5 -91l-62 -18q-10 42 -40.5 64.5t-73.5 22.5q-44 0 -74.5 -23t-30.5 -69q0 -25 8 -42.5
t28.5 -30t34.5 -18.5t48 -17q37 -12 60 -22.5t49 -29.5t38.5 -48.5t12.5 -69.5q0 -78 -50 -122t-140 -44q-58 0 -103.5 17t-69.5 37z" />
    <glyph glyph-name="t.smcp" unicode="&#xf618;" horiz-adv-x="449" 
d="M10 517v58h429v-58h-181v-517h-68v517h-180z" />
    <glyph glyph-name="u.smcp" unicode="&#xf619;" horiz-adv-x="579" 
d="M159 575v-372q0 -65 12 -93q24 -59 118 -59q98 0 120 59q11 28 11 104v361h68v-377q0 -67 -11 -101q-36 -106 -189 -106q-144 0 -182 94q-15 38 -15 114v376h68z" />
    <glyph glyph-name="v.smcp" unicode="&#xf61a;" horiz-adv-x="476" 
d="M237 65l162 510h67l-186 -575h-89l-181 575h69z" />
    <glyph glyph-name="w.smcp" unicode="&#xf61b;" horiz-adv-x="705" 
d="M208 0h-74l-79 575h70q39 -328 60 -471l144 416h52q74 -238 140 -416l60 471h69l-79 -575h-75l-142 409z" />
    <glyph glyph-name="x.smcp" unicode="&#xf61c;" horiz-adv-x="464" 
d="M449 575l-175 -282l171 -293h-76l-139 234l-141 -234h-79l181 291l-163 284h80l126 -227l135 227h80z" />
    <glyph glyph-name="y.smcp" unicode="&#xf61d;" horiz-adv-x="470" 
d="M238 299l148 276h74l-188 -339v-236h-70v234l-192 341h76z" />
    <glyph glyph-name="z.smcp" unicode="&#xf61e;" horiz-adv-x="451" 
d="M41 518v57h385v-59l-319 -459h308v-57h-390v54l323 464h-307z" />
    <glyph glyph-name="ae.smcp" unicode="&#xf61f;" horiz-adv-x="680" 
d="M315 0v172h-158l-80 -172h-67l269 575h360v-58h-256v-190h223v-58h-223v-211h267v-58h-335zM181 228h134v289z" />
    <glyph glyph-name="eng.smcp" unicode="&#xf620;" horiz-adv-x="600" 
d="M440 575h66v-631q0 -120 -109 -120q-46 0 -82 19l11 59q38 -21 71 -21q24 0 34.5 16t10.5 56v47l-282 457v-457h-66v575h68l278 -454v454z" />
    <glyph glyph-name="oe.smcp" unicode="&#xf621;" horiz-adv-x="742" 
d="M268 -8q-47 0 -83 13.5t-66 46.5t-46 94t-16 150q0 144 56.5 216t162.5 72q33 0 71 -9h354v-58h-275q50 -57 55 -190h187v-58h-187q-4 -141 -64 -211h295v-58h-378q-34 -8 -66 -8zM412 300q0 126 -34.5 175.5t-103.5 49.5q-146 0 -146 -229q0 -132 35 -189.5t105 -57.5
q71 0 107.5 53.5t36.5 197.5z" />
    <glyph glyph-name="eth.smcp" unicode="&#xf622;" horiz-adv-x="541" 
d="M94 0v267h-80v56h80v252h176q104 0 162.5 -60t58.5 -201q0 -92 -19 -156t-54 -97t-75 -47t-92 -14h-157zM162 519v-196h151v-56h-151v-210h96q82 0 121.5 57t39.5 186q0 116 -37 167.5t-113 51.5h-107z" />
    <glyph glyph-name="hbar.smcp" unicode="&#xf623;" horiz-adv-x="600" 
d="M442 575h68v-85h78v-56h-78v-434h-68v269h-280v-269h-68v434h-67v56h67v85h68v-85h280v85zM162 328h280v106h-280v-106z" />
    <glyph glyph-name="ij.smcp" unicode="&#xf624;" horiz-adv-x="624" 
d="M94 575h68v-575h-68v575zM280 17l20 59q42 -25 98 -25q58 0 68 51q5 19 5 64v409h68v-412q0 -56 -5 -75q-9 -48 -45 -72.5t-89 -24.5q-70 0 -120 26z" />
    <glyph glyph-name="idotaccent.smcp" unicode="&#xf625;" horiz-adv-x="256" 
d="M94 575h68v-575h-68v575zM86 694q0 21 12 32.5t31 11.5q44 0 44 -45q0 -22 -12 -34.5t-32 -12.5q-19 0 -31 13t-12 35z" />
    <glyph glyph-name="dotlessi.smcp" unicode="&#xf626;" horiz-adv-x="256" 
d="M94 575h68v-575h-68v575z" />
    <glyph glyph-name="oslash.smcp" unicode="&#xf627;" horiz-adv-x="557" 
d="M277 -11q-60 0 -106 23l-42 -88l-47 22l47 97q-72 74 -72 253q0 143 60.5 217t167.5 74q55 0 99 -19l36 74l47 -22l-39 -81q72 -69 72 -238q0 -312 -223 -312zM429 300q0 113 -35 170l-195 -401q32 -23 78 -23q72 0 112 55.5t40 198.5zM128 296q0 -123 35 -184l193 398
q-30 18 -74 18q-70 0 -112 -54.5t-42 -177.5z" />
    <glyph glyph-name="thorn.smcp" unicode="&#xf628;" horiz-adv-x="516" 
d="M281 140h-119v-140h-68v575h68v-89h123q89 0 140 -40.5t51 -119.5q0 -85 -53 -135.5t-142 -50.5zM162 197h112q64 0 98 32t34 91t-33.5 84t-97.5 25h-113v-232z" />
    <glyph glyph-name="tbar.smcp" unicode="&#xf629;" horiz-adv-x="449" 
d="M10 517v58h429v-58h-181v-228h129v-56h-129v-233h-68v233h-126v56h126v228h-180z" />
    <glyph glyph-name="kgreenlandic.smcp" unicode="&#xf62a;" horiz-adv-x="484" 
d="M466 575l-152 -272l165 -303h-75l-148 268h-95v-268h-67v575h67v-249h97l138 249h70z" />
    <glyph glyph-name="lslash.smcp" unicode="&#xf62b;" horiz-adv-x="446" 
d="M94 0v265l-76 -24l-20 54l96 31v249h68v-230l124 42l16 -57l-140 -46v-226h259v-58h-327z" />
    <glyph glyph-name="ampersand.smcp" unicode="&#xf62c;" horiz-adv-x="564" 
d="M238 43q73 0 140 71q-74 75 -157 173q-47 -13 -74.5 -48t-27.5 -82q0 -50 31 -82t88 -32zM377 372l-47 30q21 33 21 55q0 30 -22 46.5t-57 16.5q-39 0 -59.5 -18t-20.5 -46q0 -35 40 -84q132 -164 317 -348l-43 -40q-44 39 -90 91q-82 -86 -186 -86q-88 0 -134 47.5
t-46 116.5q0 63 36.5 108.5t101.5 69.5q-62 63 -62 123q0 54 39 87.5t109 33.5q61 0 100 -30t39 -81q0 -49 -36 -92z" />
    <glyph glyph-name="fi.smcp" unicode="&#xf62d;" horiz-adv-x="704" 
d="M94 575h337v-58h-269v-190h225v-59h-225v-268h-68v575zM542 575h68v-575h-68v575z" />
    <glyph glyph-name="fl.smcp" unicode="&#xf62e;" horiz-adv-x="894" 
d="M94 575h337v-58h-269v-190h225v-59h-225v-268h-68v575zM542 0v575h68v-517h259v-58h-327z" />
    <glyph glyph-name="ff.smcp" unicode="&#xf62f;" horiz-adv-x="889" 
d="M94 575h337v-58h-269v-190h225v-59h-225v-268h-68v575zM542 575h337v-58h-269v-190h225v-59h-225v-268h-68v575z" />
    <glyph glyph-name="ffi.smcp" unicode="&#xf630;" horiz-adv-x="1149" 
d="M94 575h337v-58h-269v-190h225v-59h-225v-268h-68v575zM542 575h337v-58h-269v-190h225v-59h-225v-268h-68v575zM987 575h68v-575h-68v575z" />
    <glyph glyph-name="ffl.smcp" unicode="&#xf631;" horiz-adv-x="1339" 
d="M94 575h337v-58h-269v-190h225v-59h-225v-268h-68v575zM542 575h337v-58h-269v-190h225v-59h-225v-268h-68v575zM987 0v575h68v-517h259v-58h-327z" />
    <glyph glyph-name="germandbls.smcp" unicode="&#xf637;" horiz-adv-x="902" 
d="M38 43l29 62q66 -56 146 -56q51 0 83 24.5t32 74.5q0 54 -30 77t-104 46q-27 9 -43.5 15.5t-38.5 20t-34 28.5t-20.5 39.5t-8.5 55.5q0 71 51 114t129 43q80 0 123.5 -40t50.5 -91l-62 -18q-10 42 -40.5 64.5t-73.5 22.5q-44 0 -74.5 -23t-30.5 -69q0 -25 8 -42.5
t28.5 -30t34.5 -18.5t48 -17q37 -12 60 -22.5t49 -29.5t38.5 -48.5t12.5 -69.5q0 -78 -50 -122t-140 -44q-58 0 -103.5 17t-69.5 37zM487 43l29 62q66 -56 146 -56q51 0 83 24.5t32 74.5q0 54 -30 77t-104 46q-27 9 -43.5 15.5t-38.5 20t-34 28.5t-20.5 39.5t-8.5 55.5
q0 71 51 114t129 43q80 0 123.5 -40t50.5 -91l-62 -18q-10 42 -40.5 64.5t-73.5 22.5q-44 0 -74.5 -23t-30.5 -69q0 -25 8 -42.5t28.5 -30t34.5 -18.5t48 -17q37 -12 60 -22.5t49 -29.5t38.5 -48.5t12.5 -69.5q0 -78 -50 -122t-140 -44q-58 0 -103.5 17t-69.5 37z" />
    <glyph glyph-name="dollar.smcp" unicode="&#xf639;" horiz-adv-x="505" 
d="M231 -100v89q-100 4 -161 54l29 62q63 -55 132 -60v222q-1 0 -2.5 0.5t-2.5 1.5q-33 11 -54 21t-44.5 28t-35 46t-11.5 66q0 64 41.5 105.5t108.5 49.5v75h54v-74q68 -7 105.5 -45t44.5 -85l-62 -18q-19 75 -88 87v-206q71 -23 109.5 -57.5t38.5 -106.5
q0 -68 -38.5 -110.5t-109.5 -52.5v-92h-54zM364 148q0 41 -19.5 63t-59.5 38v-200q79 18 79 99zM150 433q0 -38 20.5 -59.5t60.5 -36.5v189q-81 -14 -81 -93z" />
    <glyph glyph-name="cent.smcp" unicode="&#xf63a;" horiz-adv-x="481" 
d="M357 410q-10 33 -24.5 51.5t-44.5 23.5v-386q31 5 49 23.5t31 54.5l53 -16q-31 -105 -134 -115v-140h-55v138q-46 7 -76.5 31t-43.5 62t-17.5 72t-4.5 79q0 231 145 252v112h54v-111q59 -5 86 -36t39 -80zM155 276q0 -71 16 -117t62 -58v381q-26 -8 -43 -29.5t-24 -54.5
t-9 -59t-2 -63z" />
    <glyph glyph-name="sterling.smcp" unicode="&#xf63b;" horiz-adv-x="503" 
d="M67 267v51h52q-2 4 -6.5 14.5t-6 14.5t-5 13t-5 13.5t-4 12.5t-3 14t-1.5 13.5t-1 15.5q0 70 52 114t132 44q83 0 128.5 -36.5t64.5 -108.5l-61 -17q-17 58 -50.5 82t-84.5 24q-54 0 -84 -26.5t-30 -67.5q0 -11 1.5 -21.5t3 -17.5t5.5 -18.5t6.5 -17.5t9.5 -21t10 -23
h184v-50h-169q21 -58 21 -95q0 -31 -16.5 -63t-43.5 -55h298v-55h-391l-7 46q45 13 69.5 47.5t24.5 73.5t-25 100h-68z" />
    <glyph glyph-name="yen.smcp" unicode="&#xf63c;" horiz-adv-x="519" 
d="M260 313l149 262h75l-168 -285h122v-49h-146v-72h146v-49h-146v-120h-68v120h-142v49h142v72h-142v49h121l-168 285h79z" />
    <glyph glyph-name="florin.smcp" unicode="&#xf63d;" horiz-adv-x="456" 
d="M436 573l-5 -54q-34 12 -71 12q-49 0 -75 -40q-10 -17 -20 -62l-18 -89h109l-11 -52h-108l-50 -270q-13 -69 -36 -102q-43 -66 -129 -66q-45 0 -87 14l8 58q46 -16 79 -16q47 0 74 41q14 24 20 57l55 284h-83l10 52h82l14 79q13 67 36 102q45 66 130 66q43 0 76 -14z" />
    <glyph glyph-name="exclam.smcp" unicode="&#xf63e;" horiz-adv-x="208" 
d="M78 159l-12 416h75l-11 -416h-52zM62 39q0 19 11.5 31.5t30.5 12.5t30.5 -12.5t11.5 -31.5t-11 -31.5t-31 -12.5q-19 0 -30.5 12t-11.5 32z" />
    <glyph glyph-name="question.smcp" unicode="&#xf63f;" horiz-adv-x="334" 
d="M80 155v154q80 8 118 41t38 77q0 92 -107 92q-36 0 -64 -7l-10 54q31 9 80 9q82 0 125.5 -37.5t43.5 -107.5q0 -60 -41.5 -103.5t-118.5 -59.5v-112h-64zM68 39q0 18 12 31t30 13q20 0 31.5 -12.5t11.5 -31.5t-11.5 -31.5t-30.5 -12.5t-31 12t-12 32z" />
    <glyph glyph-name="ordfeminine.smcp" unicode="&#xf640;" horiz-adv-x="322" 
d="M69 299h-54l110 350h67l115 -350h-56l-31 97h-120zM158 594l-46 -153h94z" />
    <glyph glyph-name="ordmasculine.smcp" unicode="&#xf641;" horiz-adv-x="333" 
d="M166 295q-63 0 -99.5 41t-36.5 145q0 86 37 131t103 45q68 0 100.5 -42t32.5 -131q0 -189 -137 -189zM248 483q0 128 -79 128q-84 0 -84 -130q0 -141 81 -141q39 0 60.5 31.5t21.5 111.5z" />
    <glyph glyph-name="questiondown.smcp" unicode="&#xf642;" horiz-adv-x="334" 
d="M259 420v-154q-80 -8 -118 -41t-38 -77q0 -92 107 -92q36 0 64 7l10 -54q-31 -9 -80 -9q-82 0 -125.5 37.5t-43.5 107.5q0 60 41.5 103.5t118.5 59.5v112h64zM271 536q0 -18 -12 -31t-30 -13q-20 0 -31.5 12.5t-11.5 31.5t11.5 31.5t30.5 12.5t31 -12t12 -32z" />
    <glyph glyph-name="exclamdown.smcp" unicode="&#xf643;" horiz-adv-x="208" 
d="M130 416l12 -416h-75l11 416h52zM146 536q0 -19 -11.5 -31.5t-30.5 -12.5t-30.5 12.5t-11.5 31.5t11 31.5t31 12.5q19 0 30.5 -12t11.5 -32z" />
    <glyph glyph-name="abreve.smcp" unicode="&#xf644;" horiz-adv-x="505" 
d="M87 0h-67l182 575h94l189 -575h-69l-54 165h-222zM248 525l-93 -303h190zM353 759l45 -31q-19 -44 -57 -79t-96 -35q-56 0 -91 34t-52 76l49 34q40 -86 97 -86q26 0 47 14.5t32 30t26 42.5z" />
    <glyph glyph-name="amacron.smcp" unicode="&#xf645;" horiz-adv-x="505" 
d="M87 0h-67l182 575h94l189 -575h-69l-54 165h-222zM248 525l-93 -303h190zM108 653v60h281v-60h-281z" />
    <glyph glyph-name="aogonek.smcp" unicode="&#xf646;" horiz-adv-x="505" 
d="M87 0h-67l182 575h94l188 -574q-73 -66 -73 -111q0 -44 40 -44q27 0 53 14l9 -56q-33 -15 -77 -15q-45 0 -69.5 22t-24.5 61q0 73 73 129l-53 164h-222zM248 525l-93 -303h190z" />
    <glyph glyph-name="agrave.smcp" unicode="&#xf647;" horiz-adv-x="505" 
d="M87 0h-67l182 575h94l189 -575h-69l-54 165h-222zM248 525l-93 -303h190zM348 655l-27 -41l-204 119l39 60z" />
    <glyph glyph-name="aacute.smcp" unicode="&#xf648;" horiz-adv-x="505" 
d="M87 0h-67l182 575h94l189 -575h-69l-54 165h-222zM248 525l-93 -303h190zM169 614l-27 41l192 138l39 -60z" />
    <glyph glyph-name="acircumflex.smcp" unicode="&#xf649;" horiz-adv-x="505" 
d="M87 0h-67l182 575h94l189 -575h-69l-54 165h-222zM248 525l-93 -303h190zM214 774h73l93 -132l-40 -29l-91 109l-90 -108l-43 28z" />
    <glyph glyph-name="atilde.smcp" unicode="&#xf64a;" horiz-adv-x="505" 
d="M87 0h-67l182 575h94l189 -575h-69l-54 165h-222zM248 525l-93 -303h190zM134 637l-17 52q15 15 41.5 26.5t50.5 11.5q19 0 52 -13.5t55 -13.5q31 0 62 22l7 -58q-29 -21 -71 -21q-23 0 -59.5 11t-49.5 11q-32 0 -71 -28z" />
    <glyph glyph-name="adieresis.smcp" unicode="&#xf64b;" horiz-adv-x="505" 
d="M87 0h-67l182 575h94l189 -575h-69l-54 165h-222zM248 525l-93 -303h190zM129 685q0 20 11 31.5t29 11.5q41 0 41 -43q0 -20 -11.5 -32t-29.5 -12q-19 0 -29.5 12t-10.5 32zM289 685q0 20 11 31.5t29 11.5q41 0 41 -43q0 -20 -11 -32t-30 -12t-29.5 12t-10.5 32z" />
    <glyph glyph-name="aring.smcp" unicode="&#xf64c;" horiz-adv-x="505" 
d="M153 665q0 42 28.5 71.5t70.5 29.5q45 0 72 -28.5t27 -68.5q0 -67 -55 -95l189 -574h-69l-54 165h-222l-53 -165h-67l182 574q-49 26 -49 91zM248 525l-93 -303h190zM197 665q0 -27 14.5 -44.5t40.5 -17.5t41 17.5t15 44.5q0 28 -15 44.5t-41 16.5q-27 0 -41 -16.5
t-14 -44.5z" />
    <glyph glyph-name="cacute.smcp" unicode="&#xf64d;" horiz-adv-x="476" 
d="M289 49q75 0 143 43l15 -60q-65 -43 -166 -43q-67 0 -113 24.5t-69 68.5t-32.5 92.5t-9.5 109.5q0 50 5 91t19 81.5t37 68.5t62 45t90 17q151 0 181 -144l-66 -16q-14 49 -39 75.5t-78 26.5q-31 0 -55 -10.5t-39 -31t-24.5 -42.5t-13.5 -54t-5.5 -57t-1.5 -59
q0 -111 37 -168.5t123 -57.5zM193 614l-27 41l192 138l39 -60z" />
    <glyph glyph-name="ccaron.smcp" unicode="&#xf64e;" horiz-adv-x="476" 
d="M289 49q75 0 143 43l15 -60q-65 -43 -166 -43q-67 0 -113 24.5t-69 68.5t-32.5 92.5t-9.5 109.5q0 50 5 91t19 81.5t37 68.5t62 45t90 17q151 0 181 -144l-66 -16q-14 49 -39 75.5t-78 26.5q-31 0 -55 -10.5t-39 -31t-24.5 -42.5t-13.5 -54t-5.5 -57t-1.5 -59
q0 -111 37 -168.5t123 -57.5zM309 614h-73l-98 132l43 28l91 -108l90 109l40 -29z" />
    <glyph glyph-name="cdotaccent.smcp" unicode="&#xf64f;" horiz-adv-x="476" 
d="M289 49q75 0 143 43l15 -60q-65 -43 -166 -43q-67 0 -113 24.5t-69 68.5t-32.5 92.5t-9.5 109.5q0 50 5 91t19 81.5t37 68.5t62 45t90 17q151 0 181 -144l-66 -16q-14 49 -39 75.5t-78 26.5q-31 0 -55 -10.5t-39 -31t-24.5 -42.5t-13.5 -54t-5.5 -57t-1.5 -59
q0 -111 37 -168.5t123 -57.5zM227 694q0 21 12 32.5t31 11.5q44 0 44 -45q0 -22 -12 -34.5t-32 -12.5q-19 0 -31 13t-12 35z" />
    <glyph glyph-name="ccircumflex.smcp" unicode="&#xf650;" horiz-adv-x="476" 
d="M289 49q75 0 143 43l15 -60q-65 -43 -166 -43q-67 0 -113 24.5t-69 68.5t-32.5 92.5t-9.5 109.5q0 50 5 91t19 81.5t37 68.5t62 45t90 17q151 0 181 -144l-66 -16q-14 49 -39 75.5t-78 26.5q-31 0 -55 -10.5t-39 -31t-24.5 -42.5t-13.5 -54t-5.5 -57t-1.5 -59
q0 -111 37 -168.5t123 -57.5zM235 774h73l93 -132l-40 -29l-91 109l-90 -108l-43 28z" />
    <glyph glyph-name="ccedilla.smcp" unicode="&#xf651;" horiz-adv-x="476" 
d="M289 49q75 0 143 43l15 -60q-65 -43 -166 -43q-67 0 -113 24.5t-69 68.5t-32.5 92.5t-9.5 109.5q0 50 5 91t19 81.5t37 68.5t62 45t90 17q151 0 181 -144l-66 -16q-14 49 -39 75.5t-78 26.5q-31 0 -55 -10.5t-39 -31t-24.5 -42.5t-13.5 -54t-5.5 -57t-1.5 -59
q0 -111 37 -168.5t123 -57.5zM198 -104v49q33 9 65 9q44 0 68.5 -23.5t24.5 -59.5q0 -60 -40.5 -89t-95.5 -29q-19 0 -38 4l-3 51q15 -4 39 -4q33 0 56 14t23 43q0 43 -48 43q-21 0 -51 -8z" />
    <glyph glyph-name="dcaron.smcp" unicode="&#xf652;" horiz-adv-x="541" 
d="M94 0v575h176q104 0 162.5 -60t58.5 -201q0 -92 -19 -156t-54 -97t-75 -47t-92 -14h-157zM162 519v-462h96q82 0 121.5 57t39.5 186q0 116 -37 167.5t-113 51.5h-107zM281 614h-73l-98 132l43 28l91 -108l90 109l40 -29z" />
    <glyph glyph-name="dcroat.smcp" unicode="&#xf653;" horiz-adv-x="541" 
d="M94 0v267h-80v56h80v252h176q104 0 162.5 -60t58.5 -201q0 -92 -19 -156t-54 -97t-75 -47t-92 -14h-157zM162 519v-196h151v-56h-151v-210h96q82 0 121.5 57t39.5 186q0 116 -37 167.5t-113 51.5h-107z" />
    <glyph glyph-name="egrave.smcp" unicode="&#xf654;" horiz-adv-x="459" 
d="M94 0v575h324v-58h-256v-190h223v-58h-223v-211h267v-58h-335zM343 655l-27 -41l-204 119l39 60z" />
    <glyph glyph-name="eacute.smcp" unicode="&#xf655;" horiz-adv-x="459" 
d="M94 0v575h324v-58h-256v-190h223v-58h-223v-211h267v-58h-335zM183 614l-27 41l192 138l39 -60z" />
    <glyph glyph-name="ecircumflex.smcp" unicode="&#xf656;" horiz-adv-x="459" 
d="M94 0v575h324v-58h-256v-190h223v-58h-223v-211h267v-58h-335zM217 774h73l93 -132l-40 -29l-91 109l-90 -108l-43 28z" />
    <glyph glyph-name="edieresis.smcp" unicode="&#xf657;" horiz-adv-x="459" 
d="M94 0v575h324v-58h-256v-190h223v-58h-223v-211h267v-58h-335zM124 685q0 20 11 31.5t29 11.5q41 0 41 -43q0 -20 -11.5 -32t-29.5 -12q-19 0 -29.5 12t-10.5 32zM284 685q0 20 11 31.5t29 11.5q41 0 41 -43q0 -20 -11 -32t-30 -12t-29.5 12t-10.5 32z" />
    <glyph glyph-name="ecaron.smcp" unicode="&#xf658;" horiz-adv-x="459" 
d="M94 0v575h324v-58h-256v-190h223v-58h-223v-211h267v-58h-335zM295 614h-73l-98 132l43 28l91 -108l90 109l40 -29z" />
    <glyph glyph-name="edotaccent.smcp" unicode="&#xf659;" horiz-adv-x="459" 
d="M94 0v575h324v-58h-256v-190h223v-58h-223v-211h267v-58h-335zM215 694q0 21 12 32.5t31 11.5q44 0 44 -45q0 -22 -12 -34.5t-32 -12.5q-19 0 -31 13t-12 35z" />
    <glyph glyph-name="emacron.smcp" unicode="&#xf65a;" horiz-adv-x="459" 
d="M94 0v575h324v-58h-256v-190h223v-58h-223v-211h267v-58h-335zM118 653v60h281v-60h-281z" />
    <glyph glyph-name="eogonek.smcp" unicode="&#xf65b;" horiz-adv-x="459" 
d="M94 0v575h324v-58h-256v-190h223v-58h-223v-211h267v-58q-80 -57 -80 -110q0 -44 40 -44q27 0 53 14l9 -56q-33 -15 -77 -15q-45 0 -69.5 22t-24.5 61q0 70 72 128h-258z" />
    <glyph glyph-name="ebreve.smcp" unicode="&#xf65c;" horiz-adv-x="459" 
d="M94 0v575h324v-58h-256v-190h223v-58h-223v-211h267v-58h-335zM357 759l45 -31q-19 -44 -57 -79t-96 -35q-56 0 -91 34t-52 76l49 34q40 -86 97 -86q26 0 47 14.5t32 30t26 42.5z" />
    <glyph glyph-name="gbreve.smcp" unicode="&#xf65d;" horiz-adv-x="517" 
d="M270 225v55h197v-254q-81 -37 -171 -37q-125 0 -182 73.5t-57 235.5q0 133 53 211t165 78q82 0 125.5 -36.5t57.5 -107.5l-62 -15q-17 53 -42.5 77t-80.5 24q-69 0 -107.5 -55.5t-38.5 -172.5q0 -125 36 -190.5t135 -65.5q58 0 102 21v159h-130zM390 759l45 -31
q-19 -44 -57 -79t-96 -35q-56 0 -91 34t-52 76l49 34q40 -86 97 -86q26 0 47 14.5t32 30t26 42.5z" />
    <glyph glyph-name="gcommaaccent.smcp" unicode="&#xf65e;" horiz-adv-x="517" 
d="M270 225v55h197v-254q-81 -37 -171 -37q-125 0 -182 73.5t-57 235.5q0 133 53 211t165 78q82 0 125.5 -36.5t57.5 -107.5l-62 -15q-17 53 -42.5 77t-80.5 24q-69 0 -107.5 -55.5t-38.5 -172.5q0 -125 36 -190.5t135 -65.5q58 0 102 21v159h-130zM186 -226l48 -13l63 174
l-69 19z" />
    <glyph glyph-name="gdotaccent.smcp" unicode="&#xf65f;" horiz-adv-x="517" 
d="M270 225v55h197v-254q-81 -37 -171 -37q-125 0 -182 73.5t-57 235.5q0 133 53 211t165 78q82 0 125.5 -36.5t57.5 -107.5l-62 -15q-17 53 -42.5 77t-80.5 24q-69 0 -107.5 -55.5t-38.5 -172.5q0 -125 36 -190.5t135 -65.5q58 0 102 21v159h-130zM238 694q0 21 12 32.5
t31 11.5q44 0 44 -45q0 -22 -12 -34.5t-32 -12.5q-19 0 -31 13t-12 35z" />
    <glyph glyph-name="gcircumflex.smcp" unicode="&#xf660;" horiz-adv-x="517" 
d="M270 225v55h197v-254q-81 -37 -171 -37q-125 0 -182 73.5t-57 235.5q0 133 53 211t165 78q82 0 125.5 -36.5t57.5 -107.5l-62 -15q-17 53 -42.5 77t-80.5 24q-69 0 -107.5 -55.5t-38.5 -172.5q0 -125 36 -190.5t135 -65.5q58 0 102 21v159h-130zM244 774h73l93 -132
l-40 -29l-91 109l-90 -108l-43 28z" />
    <glyph glyph-name="hcircumflex.smcp" unicode="&#xf661;" horiz-adv-x="600" 
d="M442 575h68v-575h-68v269h-280v-269h-68v575h68v-247h280v247zM275 774h73l93 -132l-40 -29l-91 109l-90 -108l-43 28z" />
    <glyph glyph-name="igrave.smcp" unicode="&#xf662;" horiz-adv-x="256" 
d="M94 575h68v-575h-68v575zM233 655l-27 -41l-204 119l39 60z" />
    <glyph glyph-name="iacute.smcp" unicode="&#xf663;" horiz-adv-x="256" 
d="M94 575h68v-575h-68v575zM44 614l-27 41l192 138l39 -60z" />
    <glyph glyph-name="icircumflex.smcp" unicode="&#xf664;" horiz-adv-x="256" 
d="M94 575h68v-575h-68v575zM94 774h73l93 -132l-40 -29l-91 109l-90 -108l-43 28z" />
    <glyph glyph-name="idieresis.smcp" unicode="&#xf665;" horiz-adv-x="256" 
d="M94 575h68v-575h-68v575zM-3 685q0 20 11 31.5t29 11.5q41 0 41 -43q0 -20 -11.5 -32t-29.5 -12q-19 0 -29.5 12t-10.5 32zM157 685q0 20 11 31.5t29 11.5q41 0 41 -43q0 -20 -11 -32t-30 -12t-29.5 12t-10.5 32z" />
    <glyph glyph-name="imacron.smcp" unicode="&#xf666;" horiz-adv-x="256" 
d="M94 575h68v-575h-68v575zM-12 653v60h281v-60h-281z" />
    <glyph glyph-name="iogonek.smcp" unicode="&#xf667;" horiz-adv-x="256" 
d="M94 575h68v-574q-73 -66 -73 -111q0 -44 40 -44q27 0 53 14l9 -56q-33 -15 -77 -15q-45 0 -69.5 22t-24.5 61q0 72 74 129v574z" />
    <glyph glyph-name="itilde.smcp" unicode="&#xf668;" horiz-adv-x="256" 
d="M94 575h68v-575h-68v575zM8 637l-17 52q15 15 41.5 26.5t50.5 11.5q18 0 51.5 -13.5t55.5 -13.5q31 0 62 22l7 -58q-29 -21 -71 -21q-23 0 -59.5 11t-49.5 11q-32 0 -71 -28z" />
    <glyph glyph-name="ibreve.smcp" unicode="&#xf669;" horiz-adv-x="256" 
d="M94 575h68v-575h-68v575zM231 759l45 -31q-19 -44 -57 -79t-96 -35q-56 0 -91 34t-52 76l49 34q40 -86 97 -86q26 0 47 14.5t32 30t26 42.5z" />
    <glyph glyph-name="jcircumflex.smcp" unicode="&#xf66a;" horiz-adv-x="354" 
d="M10 17l20 59q42 -25 98 -25q58 0 68 51q5 19 5 64v409h68v-412q0 -56 -5 -75q-9 -48 -45 -72.5t-89 -24.5q-70 0 -120 26zM199 774h73l93 -132l-40 -29l-91 109l-90 -108l-43 28z" />
    <glyph glyph-name="kcommaaccent.smcp" unicode="&#xf66b;" horiz-adv-x="484" 
d="M466 575l-152 -272l165 -303h-75l-148 268h-95v-268h-67v575h67v-249h97l138 249h70zM200 -226l48 -13l63 174l-69 19z" />
    <glyph glyph-name="lacute.smcp" unicode="&#xf66c;" horiz-adv-x="446" 
d="M94 0v575h68v-517h259v-58h-327zM60 614l-27 41l192 138l39 -60z" />
    <glyph glyph-name="lcaron.smcp" unicode="&#xf66d;" horiz-adv-x="446" 
d="M94 0v575h68v-517h259v-58h-327zM343 575h-65v-204h45z" />
    <glyph glyph-name="lcommaaccent.smcp" unicode="&#xf66e;" horiz-adv-x="446" 
d="M94 0v575h68v-517h259v-58h-327zM180 -226l48 -13l63 174l-69 19z" />
    <glyph glyph-name="ldot.smcp" unicode="&#xf66f;" horiz-adv-x="446" 
d="M94 0v575h68v-517h259v-58h-327zM262 334q0 21 12 32.5t31 11.5q44 0 44 -45q0 -22 -12 -34.5t-32 -12.5q-19 0 -31 13t-12 35z" />
    <glyph glyph-name="nacute.smcp" unicode="&#xf670;" horiz-adv-x="600" 
d="M440 575h66v-575h-64l-282 457v-457h-66v575h68l278 -454v454zM251 614l-27 41l192 138l39 -60z" />
    <glyph glyph-name="napostrophe.smcp" unicode="&#xf671;" horiz-adv-x="600" 
d="M440 575h66v-575h-64l-282 457v-457h-66v575h68l278 -454v454zM35 614l23 177q5 32 37 32q35 0 35 -34q0 -11 -3 -20l-53 -163z" />
    <glyph glyph-name="ntilde.smcp" unicode="&#xf672;" horiz-adv-x="600" 
d="M440 575h66v-575h-64l-282 457v-457h-66v575h68l278 -454v454zM181 637l-17 52q15 15 41.5 26.5t50.5 11.5q18 0 52 -13.5t55 -13.5q31 0 62 22l7 -58q-29 -21 -71 -21q-23 0 -59.5 11t-49.5 11q-32 0 -71 -28z" />
    <glyph glyph-name="ncaron.smcp" unicode="&#xf673;" horiz-adv-x="600" 
d="M440 575h66v-575h-64l-282 457v-457h-66v575h68l278 -454v454zM340 614h-73l-98 132l43 28l91 -108l90 109l40 -29z" />
    <glyph glyph-name="ncommaaccent.smcp" unicode="&#xf674;" horiz-adv-x="600" 
d="M440 575h66v-575h-64l-282 457v-457h-66v575h68l278 -454v454zM232 -226l48 -13l63 174l-69 19z" />
    <glyph glyph-name="ograve.smcp" unicode="&#xf675;" horiz-adv-x="557" 
d="M277 -11q-48 0 -85 14t-69 47.5t-49 95.5t-17 150q0 143 60.5 217t167.5 74q110 0 162.5 -70t52.5 -216q0 -312 -223 -312zM429 300q0 125 -38.5 176.5t-108.5 51.5t-112 -54.5t-42 -177.5q0 -250 149 -250q72 0 112 55.5t40 198.5zM384 655l-27 -41l-204 119l39 60z" />
    <glyph glyph-name="oacute.smcp" unicode="&#xf676;" horiz-adv-x="557" 
d="M277 -11q-48 0 -85 14t-69 47.5t-49 95.5t-17 150q0 143 60.5 217t167.5 74q110 0 162.5 -70t52.5 -216q0 -312 -223 -312zM429 300q0 125 -38.5 176.5t-108.5 51.5t-112 -54.5t-42 -177.5q0 -250 149 -250q72 0 112 55.5t40 198.5zM193 614l-27 41l192 138l39 -60z" />
    <glyph glyph-name="ocircumflex.smcp" unicode="&#xf677;" horiz-adv-x="557" 
d="M277 -11q-48 0 -85 14t-69 47.5t-49 95.5t-17 150q0 143 60.5 217t167.5 74q110 0 162.5 -70t52.5 -216q0 -312 -223 -312zM429 300q0 125 -38.5 176.5t-108.5 51.5t-112 -54.5t-42 -177.5q0 -250 149 -250q72 0 112 55.5t40 198.5zM246 774h73l93 -132l-40 -29l-91 109
l-90 -108l-43 28z" />
    <glyph glyph-name="otilde.smcp" unicode="&#xf678;" horiz-adv-x="557" 
d="M277 -11q-48 0 -85 14t-69 47.5t-49 95.5t-17 150q0 143 60.5 217t167.5 74q110 0 162.5 -70t52.5 -216q0 -312 -223 -312zM429 300q0 125 -38.5 176.5t-108.5 51.5t-112 -54.5t-42 -177.5q0 -250 149 -250q72 0 112 55.5t40 198.5zM167 637l-17 52q15 15 41.5 26.5
t50.5 11.5q18 0 52 -13.5t55 -13.5q31 0 62 22l7 -58q-29 -21 -71 -21q-23 0 -59.5 11t-49.5 11q-32 0 -71 -28z" />
    <glyph glyph-name="odieresis.smcp" unicode="&#xf679;" horiz-adv-x="557" 
d="M277 -11q-48 0 -85 14t-69 47.5t-49 95.5t-17 150q0 143 60.5 217t167.5 74q110 0 162.5 -70t52.5 -216q0 -312 -223 -312zM429 300q0 125 -38.5 176.5t-108.5 51.5t-112 -54.5t-42 -177.5q0 -250 149 -250q72 0 112 55.5t40 198.5zM162 685q0 20 11 31.5t29 11.5
q41 0 41 -43q0 -20 -11.5 -32t-29.5 -12q-19 0 -29.5 12t-10.5 32zM322 685q0 20 11 31.5t29 11.5q41 0 41 -43q0 -20 -11 -32t-30 -12t-29.5 12t-10.5 32z" />
    <glyph glyph-name="ohungarumlaut.smcp" unicode="&#xf67a;" horiz-adv-x="557" 
d="M277 -11q-48 0 -85 14t-69 47.5t-49 95.5t-17 150q0 143 60.5 217t167.5 74q110 0 162.5 -70t52.5 -216q0 -312 -223 -312zM429 300q0 125 -38.5 176.5t-108.5 51.5t-112 -54.5t-42 -177.5q0 -250 149 -250q72 0 112 55.5t40 198.5zM333 613l-25 40l186 143l39 -59z
M147 613l-25 40l186 143l39 -59z" />
    <glyph glyph-name="omacron.smcp" unicode="&#xf67b;" horiz-adv-x="557" 
d="M277 -11q-48 0 -85 14t-69 47.5t-49 95.5t-17 150q0 143 60.5 217t167.5 74q110 0 162.5 -70t52.5 -216q0 -312 -223 -312zM429 300q0 125 -38.5 176.5t-108.5 51.5t-112 -54.5t-42 -177.5q0 -250 149 -250q72 0 112 55.5t40 198.5zM149 653v60h281v-60h-281z" />
    <glyph glyph-name="obreve.smcp" unicode="&#xf67c;" horiz-adv-x="557" 
d="M277 -11q-48 0 -85 14t-69 47.5t-49 95.5t-17 150q0 143 60.5 217t167.5 74q110 0 162.5 -70t52.5 -216q0 -312 -223 -312zM429 300q0 125 -38.5 176.5t-108.5 51.5t-112 -54.5t-42 -177.5q0 -250 149 -250q72 0 112 55.5t40 198.5zM392 759l45 -31q-19 -44 -57 -79
t-96 -35q-56 0 -91 34t-52 76l49 34q40 -86 97 -86q26 0 47 14.5t32 30t26 42.5z" />
    <glyph glyph-name="racute.smcp" unicode="&#xf67d;" horiz-adv-x="527" 
d="M371 269l106 -269h-73l-98 249h-145v-249h-67v575h186q89 0 140 -36.5t51 -112.5q0 -108 -100 -157zM161 307h117q54 0 89 27.5t35 78.5q0 58 -30.5 82t-95.5 24h-115v-212zM185 614l-27 41l192 138l39 -60z" />
    <glyph glyph-name="rcaron.smcp" unicode="&#xf67e;" horiz-adv-x="527" 
d="M371 269l106 -269h-73l-98 249h-145v-249h-67v575h186q89 0 140 -36.5t51 -112.5q0 -108 -100 -157zM161 307h117q54 0 89 27.5t35 78.5q0 58 -30.5 82t-95.5 24h-115v-212zM278 614h-73l-98 132l43 28l91 -108l90 109l40 -29z" />
    <glyph glyph-name="rcommaaccent.smcp" unicode="&#xf67f;" horiz-adv-x="527" 
d="M371 269l106 -269h-73l-98 249h-145v-249h-67v575h186q89 0 140 -36.5t51 -112.5q0 -108 -100 -157zM161 307h117q54 0 89 27.5t35 78.5q0 58 -30.5 82t-95.5 24h-115v-212zM190 -226l48 -13l63 174l-69 19z" />
    <glyph glyph-name="sacute.smcp" unicode="&#xf680;" horiz-adv-x="453" 
d="M38 43l29 62q66 -56 146 -56q51 0 83 24.5t32 74.5q0 54 -30 77t-104 46q-27 9 -43.5 15.5t-38.5 20t-34 28.5t-20.5 39.5t-8.5 55.5q0 71 51 114t129 43q80 0 123.5 -40t50.5 -91l-62 -18q-10 42 -40.5 64.5t-73.5 22.5q-44 0 -74.5 -23t-30.5 -69q0 -25 8 -42.5
t28.5 -30t34.5 -18.5t48 -17q37 -12 60 -22.5t49 -29.5t38.5 -48.5t12.5 -69.5q0 -78 -50 -122t-140 -44q-58 0 -103.5 17t-69.5 37zM143 614l-27 41l192 138l39 -60z" />
    <glyph glyph-name="scommaaccent.smcp" unicode="&#xf681;" horiz-adv-x="453" 
d="M38 43l29 62q66 -56 146 -56q51 0 83 24.5t32 74.5q0 54 -30 77t-104 46q-27 9 -43.5 15.5t-38.5 20t-34 28.5t-20.5 39.5t-8.5 55.5q0 71 51 114t129 43q80 0 123.5 -40t50.5 -91l-62 -18q-10 42 -40.5 64.5t-73.5 22.5q-44 0 -74.5 -23t-30.5 -69q0 -25 8 -42.5
t28.5 -30t34.5 -18.5t48 -17q37 -12 60 -22.5t49 -29.5t38.5 -48.5t12.5 -69.5q0 -78 -50 -122t-140 -44q-58 0 -103.5 17t-69.5 37zM141 -226l48 -13l63 174l-69 19z" />
    <glyph glyph-name="scedilla.smcp" unicode="&#xf682;" horiz-adv-x="453" 
d="M38 43l29 62q66 -56 146 -56q51 0 83 24.5t32 74.5q0 54 -30 77t-104 46q-27 9 -43.5 15.5t-38.5 20t-34 28.5t-20.5 39.5t-8.5 55.5q0 71 51 114t129 43q80 0 123.5 -40t50.5 -91l-62 -18q-10 42 -40.5 64.5t-73.5 22.5q-44 0 -74.5 -23t-30.5 -69q0 -25 8 -42.5
t28.5 -30t34.5 -18.5t48 -17q37 -12 60 -22.5t49 -29.5t38.5 -48.5t12.5 -69.5q0 -78 -50 -122t-140 -44q-58 0 -103.5 17t-69.5 37zM140 -104v49q33 9 65 9q44 0 68.5 -23.5t24.5 -59.5q0 -60 -40.5 -89t-95.5 -29q-19 0 -38 4l-3 51q15 -4 39 -4q33 0 56 14t23 43
q0 43 -48 43q-21 0 -51 -8z" />
    <glyph glyph-name="scaron.smcp" unicode="&#xf683;" horiz-adv-x="453" 
d="M38 43l29 62q66 -56 146 -56q51 0 83 24.5t32 74.5q0 54 -30 77t-104 46q-27 9 -43.5 15.5t-38.5 20t-34 28.5t-20.5 39.5t-8.5 55.5q0 71 51 114t129 43q80 0 123.5 -40t50.5 -91l-62 -18q-10 42 -40.5 64.5t-73.5 22.5q-44 0 -74.5 -23t-30.5 -69q0 -25 8 -42.5
t28.5 -30t34.5 -18.5t48 -17q37 -12 60 -22.5t49 -29.5t38.5 -48.5t12.5 -69.5q0 -78 -50 -122t-140 -44q-58 0 -103.5 17t-69.5 37zM257 614h-73l-98 132l43 28l91 -108l90 109l40 -29z" />
    <glyph glyph-name="scircumflex.smcp" unicode="&#xf684;" horiz-adv-x="453" 
d="M38 43l29 62q66 -56 146 -56q51 0 83 24.5t32 74.5q0 54 -30 77t-104 46q-27 9 -43.5 15.5t-38.5 20t-34 28.5t-20.5 39.5t-8.5 55.5q0 71 51 114t129 43q80 0 123.5 -40t50.5 -91l-62 -18q-10 42 -40.5 64.5t-73.5 22.5q-44 0 -74.5 -23t-30.5 -69q0 -25 8 -42.5
t28.5 -30t34.5 -18.5t48 -17q37 -12 60 -22.5t49 -29.5t38.5 -48.5t12.5 -69.5q0 -78 -50 -122t-140 -44q-58 0 -103.5 17t-69.5 37zM193 774h73l93 -132l-40 -29l-91 109l-90 -108l-43 28z" />
    <glyph glyph-name="tcaron.smcp" unicode="&#xf685;" horiz-adv-x="449" 
d="M10 517v58h429v-58h-181v-517h-68v517h-180zM263 614h-73l-98 132l43 28l91 -108l90 109l40 -29z" />
    <glyph glyph-name="uni021B.smcp" unicode="&#xf686;" horiz-adv-x="449" 
d="M10 517v58h429v-58h-181v-517h-68v517h-180zM154 -104v49q33 9 65 9q44 0 68.5 -23.5t24.5 -59.5q0 -60 -40.5 -89t-95.5 -29q-19 0 -38 4l-3 51q15 -4 39 -4q33 0 56 14t23 43q0 43 -48 43q-21 0 -51 -8z" />
    <glyph glyph-name="tcommaaccent.smcp" unicode="&#xf687;" horiz-adv-x="449" 
d="M10 517v58h429v-58h-181v-517h-68v517h-180zM150 -226l48 -13l63 174l-69 19z" />
    <glyph glyph-name="uhungarumlaut.smcp" unicode="&#xf688;" horiz-adv-x="579" 
d="M159 575v-372q0 -65 12 -93q24 -59 118 -59q98 0 120 59q11 28 11 104v361h68v-377q0 -67 -11 -101q-36 -106 -189 -106q-144 0 -182 94q-15 38 -15 114v376h68zM331 613l-25 40l186 143l39 -59zM145 613l-25 40l186 143l39 -59z" />
    <glyph glyph-name="ugrave.smcp" unicode="&#xf689;" horiz-adv-x="579" 
d="M159 575v-372q0 -65 12 -93q24 -59 118 -59q98 0 120 59q11 28 11 104v361h68v-377q0 -67 -11 -101q-36 -106 -189 -106q-144 0 -182 94q-15 38 -15 114v376h68zM392 655l-27 -41l-204 119l39 60z" />
    <glyph glyph-name="uacute.smcp" unicode="&#xf68a;" horiz-adv-x="579" 
d="M159 575v-372q0 -65 12 -93q24 -59 118 -59q98 0 120 59q11 28 11 104v361h68v-377q0 -67 -11 -101q-36 -106 -189 -106q-144 0 -182 94q-15 38 -15 114v376h68zM219 614l-27 41l192 138l39 -60z" />
    <glyph glyph-name="ucircumflex.smcp" unicode="&#xf68b;" horiz-adv-x="579" 
d="M159 575v-372q0 -65 12 -93q24 -59 118 -59q98 0 120 59q11 28 11 104v361h68v-377q0 -67 -11 -101q-36 -106 -189 -106q-144 0 -182 94q-15 38 -15 114v376h68zM253 774h73l93 -132l-40 -29l-91 109l-90 -108l-43 28z" />
    <glyph glyph-name="udieresis.smcp" unicode="&#xf68c;" horiz-adv-x="579" 
d="M159 575v-372q0 -65 12 -93q24 -59 118 -59q98 0 120 59q11 28 11 104v361h68v-377q0 -67 -11 -101q-36 -106 -189 -106q-144 0 -182 94q-15 38 -15 114v376h68zM169 685q0 20 11 31.5t29 11.5q41 0 41 -43q0 -20 -11.5 -32t-29.5 -12q-19 0 -29.5 12t-10.5 32zM329 685
q0 20 11 31.5t29 11.5q41 0 41 -43q0 -20 -11 -32t-30 -12t-29.5 12t-10.5 32z" />
    <glyph glyph-name="umacron.smcp" unicode="&#xf68d;" horiz-adv-x="579" 
d="M159 575v-372q0 -65 12 -93q24 -59 118 -59q98 0 120 59q11 28 11 104v361h68v-377q0 -67 -11 -101q-36 -106 -189 -106q-144 0 -182 94q-15 38 -15 114v376h68zM148 653v60h281v-60h-281z" />
    <glyph glyph-name="uogonek.smcp" unicode="&#xf68e;" horiz-adv-x="579" 
d="M159 575v-372q0 -65 12 -93q24 -59 118 -59q98 0 120 59q11 28 11 104v361h68v-377q0 -67 -11 -101q-12 -34 -38.5 -56t-74.5 -45q-31 -15 -54.5 -45.5t-23.5 -60.5q0 -44 40 -44q27 0 53 14l9 -56q-33 -15 -77 -15q-45 0 -69.5 22t-24.5 61q0 66 61 119q-136 3 -172 94
q-15 38 -15 114v376h68z" />
    <glyph glyph-name="uring.smcp" unicode="&#xf68f;" horiz-adv-x="579" 
d="M159 575v-372q0 -65 12 -93q24 -59 118 -59q98 0 120 59q11 28 11 104v361h68v-377q0 -67 -11 -101q-36 -106 -189 -106q-144 0 -182 94q-15 38 -15 114v376h68zM200 706q0 42 28.5 71.5t70.5 29.5q45 0 72 -28.5t27 -68.5q0 -45 -28.5 -75.5t-72.5 -30.5q-45 0 -71 29
t-26 73zM244 706q0 -27 14.5 -44.5t40.5 -17.5t41 17.5t15 44.5q0 28 -15 44.5t-41 16.5q-27 0 -41 -16.5t-14 -44.5z" />
    <glyph glyph-name="utilde.smcp" unicode="&#xf690;" horiz-adv-x="579" 
d="M159 575v-372q0 -65 12 -93q24 -59 118 -59q98 0 120 59q11 28 11 104v361h68v-377q0 -67 -11 -101q-36 -106 -189 -106q-144 0 -182 94q-15 38 -15 114v376h68zM172 637l-17 52q15 15 41.5 26.5t50.5 11.5q19 0 52 -13.5t55 -13.5q31 0 62 22l7 -58q-29 -21 -71 -21
q-23 0 -59.5 11t-49.5 11q-32 0 -71 -28z" />
    <glyph glyph-name="ubreve.smcp" unicode="&#xf691;" horiz-adv-x="579" 
d="M159 575v-372q0 -65 12 -93q24 -59 118 -59q98 0 120 59q11 28 11 104v361h68v-377q0 -67 -11 -101q-36 -106 -189 -106q-144 0 -182 94q-15 38 -15 114v376h68zM395 759l45 -31q-19 -44 -57 -79t-96 -35q-56 0 -91 34t-52 76l49 34q40 -86 97 -86q26 0 47 14.5t32 30
t26 42.5z" />
    <glyph glyph-name="wgrave.smcp" unicode="&#xf692;" horiz-adv-x="705" 
d="M208 0h-74l-79 575h70q39 -328 60 -471l144 416h52q74 -238 140 -416l60 471h69l-79 -575h-75l-142 409zM468 655l-27 -41l-204 119l39 60z" />
    <glyph glyph-name="wacute.smcp" unicode="&#xf693;" horiz-adv-x="705" 
d="M208 0h-74l-79 575h70q39 -328 60 -471l144 416h52q74 -238 140 -416l60 471h69l-79 -575h-75l-142 409zM271 614l-27 41l192 138l39 -60z" />
    <glyph glyph-name="wcircumflex.smcp" unicode="&#xf694;" horiz-adv-x="705" 
d="M208 0h-74l-79 575h70q39 -328 60 -471l144 416h52q74 -238 140 -416l60 471h69l-79 -575h-75l-142 409zM321 774h73l93 -132l-40 -29l-91 109l-90 -108l-43 28z" />
    <glyph glyph-name="wdieresis.smcp" unicode="&#xf695;" horiz-adv-x="705" 
d="M208 0h-74l-79 575h70q39 -328 60 -471l144 416h52q74 -238 140 -416l60 471h69l-79 -575h-75l-142 409zM235 685q0 20 11 31.5t29 11.5q41 0 41 -43q0 -20 -11.5 -32t-29.5 -12q-19 0 -29.5 12t-10.5 32zM395 685q0 20 11 31.5t29 11.5q41 0 41 -43q0 -20 -11 -32
t-30 -12t-29.5 12t-10.5 32z" />
    <glyph glyph-name="ygrave.smcp" unicode="&#xf696;" horiz-adv-x="470" 
d="M238 299l148 276h74l-188 -339v-236h-70v234l-192 341h76zM323 655l-27 -41l-204 119l39 60z" />
    <glyph glyph-name="yacute.smcp" unicode="&#xf697;" horiz-adv-x="470" 
d="M238 299l148 276h74l-188 -339v-236h-70v234l-192 341h76zM173 614l-27 41l192 138l39 -60z" />
    <glyph glyph-name="ycircumflex.smcp" unicode="&#xf698;" horiz-adv-x="470" 
d="M238 299l148 276h74l-188 -339v-236h-70v234l-192 341h76zM204 774h73l93 -132l-40 -29l-91 109l-90 -108l-43 28z" />
    <glyph glyph-name="ydieresis.smcp" unicode="&#xf699;" horiz-adv-x="470" 
d="M238 299l148 276h74l-188 -339v-236h-70v234l-192 341h76zM119 685q0 20 11 31.5t29 11.5q41 0 41 -43q0 -20 -11.5 -32t-29.5 -12q-19 0 -29.5 12t-10.5 32zM279 685q0 20 11 31.5t29 11.5q41 0 41 -43q0 -20 -11 -32t-30 -12t-29.5 12t-10.5 32z" />
    <glyph glyph-name="zdotaccent.smcp" unicode="&#xf69a;" horiz-adv-x="451" 
d="M41 518v57h385v-59l-319 -459h308v-57h-390v54l323 464h-307zM193 694q0 21 12 32.5t31 11.5q44 0 44 -45q0 -22 -12 -34.5t-32 -12.5q-19 0 -31 13t-12 35z" />
    <glyph glyph-name="zacute.smcp" unicode="&#xf69b;" horiz-adv-x="451" 
d="M41 518v57h385v-59l-319 -459h308v-57h-390v54l323 464h-307zM173 614l-27 41l192 138l39 -60z" />
    <glyph glyph-name="zcaron.smcp" unicode="&#xf69d;" horiz-adv-x="451" 
d="M41 518v57h385v-59l-319 -459h308v-57h-390v54l323 464h-307zM267 614h-73l-98 132l43 28l91 -108l90 109l40 -29z" />
    <glyph glyph-name="percent.smcp" unicode="&#xf69e;" horiz-adv-x="697" 
d="M528 313q114 0 114 -160q0 -81 -31 -122.5t-85 -41.5q-56 0 -87 41t-31 121q0 82 34 122t86 40zM526 38q28 0 44 29t16 84q0 54 -15.5 84t-43.5 30q-61 0 -61 -117q0 -52 15.5 -81t44.5 -29zM175 575q113 0 113 -161q0 -81 -31 -122.5t-85 -41.5q-55 0 -86 41t-31 122
q0 82 34 122t86 40zM173 299q59 0 59 114t-58 114q-29 0 -45.5 -30.5t-16.5 -87.5q0 -52 16 -81t45 -29zM234 0h-65l299 575h65z" />
    <glyph glyph-name="perthousand.smcp" unicode="&#xf69f;" horiz-adv-x="865" 
d="M445 275q106 0 106 -141q0 -73 -29.5 -109t-79.5 -36q-52 0 -81 37t-29 107q0 72 32 107t81 35zM442 35q54 0 54 98q0 95 -52 95q-56 0 -56 -99q0 -94 54 -94zM704 275q106 0 106 -141q0 -73 -29.5 -109t-79.5 -36q-52 0 -81 37t-29 107q0 72 32 107t81 35zM701 35
q54 0 54 98q0 95 -53 95q-55 0 -55 -99q0 -94 54 -94zM167 575q107 0 107 -142q0 -73 -30 -109t-80 -36q-52 0 -80.5 37t-28.5 108q0 72 32 107t80 35zM165 335q53 0 53 97q0 95 -52 95q-56 0 -56 -98q0 -94 55 -94zM189 0h-65l299 575h65z" />
    <glyph glyph-name="slash.smcp" unicode="&#xf6a0;" horiz-adv-x="403" 
d="M30 -33l248 657l59 -22l-250 -658z" />
    <glyph glyph-name="backslash.smcp" unicode="&#xf6a1;" horiz-adv-x="403" 
d="M107 624l248 -657l-57 -23l-250 658z" />
    <glyph glyph-name="parenleft.smcp" unicode="&#xf6a3;" horiz-adv-x="272" 
d="M245 -68l-56 -26q-51 89 -77 171.5t-26 182.5q0 158 101 358l56 -22q-47 -101 -69 -175.5t-22 -162.5q0 -64 14.5 -124t29 -94t49.5 -108z" />
    <glyph glyph-name="parenright.smcp" unicode="&#xf6a4;" horiz-adv-x="272" 
d="M27 592l56 26q51 -90 77 -172.5t26 -182.5q0 -158 -101 -357l-55 22q47 102 69 175.5t22 161.5q0 64 -15 125.5t-28.5 92.5t-50.5 109z" />
    <glyph glyph-name="braceleft.smcp" unicode="&#xf6a5;" horiz-adv-x="293" 
d="M126 264q61 -23 61 -99v-153q0 -22 1.5 -33.5t11 -21.5t28.5 -10q17 0 36 7l8 -46q-25 -10 -59 -10q-25 0 -42 8.5t-26 19t-13.5 31t-5 35t-0.5 39.5v109q0 45 -13.5 71t-51.5 29v48q65 5 65 98v94q0 29 0.5 41t4.5 35.5t12.5 34t26 20t43.5 9.5q30 0 59 -10l-8 -47
q-15 7 -36 7q-26 0 -33.5 -16t-7.5 -49v-143q0 -71 -61 -98z" />
    <glyph glyph-name="braceright.smcp" unicode="&#xf6a6;" horiz-adv-x="294" 
d="M167 264q-61 27 -61 98v143q0 21 -2 33.5t-11.5 22t-26.5 9.5q-20 0 -37 -7l-8 47q30 10 60 10q21 0 36.5 -5t25 -17t14.5 -22t7 -31t2.5 -31t0.5 -34v-94q0 -93 66 -98v-48q-38 -3 -52 -29t-14 -71v-109q0 -25 -0.5 -39.5t-5 -35t-13.5 -31t-25.5 -19t-41.5 -8.5
q-34 0 -60 10l8 46q21 -7 37 -7q18 0 27.5 10t11 21.5t1.5 33.5v153q0 76 61 99z" />
    <glyph glyph-name="bracketleft.smcp" unicode="&#xf6a7;" horiz-adv-x="248" 
d="M81 -97v715h162v-45h-101v-625h101v-45h-162z" />
    <glyph glyph-name="bracketright.smcp" unicode="&#xf6a8;" horiz-adv-x="248" 
d="M167 618v-715h-162v45h101v625h-101v45h162z" />
    <glyph glyph-name="asterisk.smcp" unicode="&#xf6a9;" horiz-adv-x="364" 
d="M141 446l-55 -56q-21 -21 -21 -37q0 -13 10.5 -22.5t25.5 -9.5q23 0 39 33l32 69zM221 446l55 -56q21 -21 21 -37q0 -13 -10.5 -22.5t-25.5 -9.5q-23 0 -39 33l-32 69zM136 466l-77 13q-41 6 -41 35q0 17 9 27t23 10q13 0 34 -12l64 -39zM216 500l66 39q17 12 32 12
q14 0 23 -10.5t9 -25.5q0 -30 -44 -38l-74 -13zM164 511l-14 76q-5 25 5 39t29 14q20 0 28 -15t3 -41l-15 -73h-36z" />
    <glyph glyph-name="quoteleft.smcp" unicode="&#xf6aa;" horiz-adv-x="191" 
d="M138 634l-11 -204q-1 -18 -11.5 -27.5t-25.5 -9.5q-20 0 -31 14.5t-5 39.5l44 193z" />
    <glyph glyph-name="quoteright.smcp" unicode="&#xf6ab;" horiz-adv-x="186" 
d="M60 399l11 204q1 18 11.5 27.5t25.5 9.5q20 0 31 -14.5t5 -39.5l-44 -193z" />
    <glyph glyph-name="quotedblleft.smcp" unicode="&#xf6ac;" horiz-adv-x="335" 
d="M138 634l-11 -204q-1 -18 -11.5 -27.5t-25.5 -9.5q-20 0 -31 14.5t-5 39.5l44 193zM282 634l-11 -204q-1 -18 -11.5 -27.5t-25.5 -9.5q-20 0 -31 14.5t-5 39.5l44 193z" />
    <glyph glyph-name="quotedblright.smcp" unicode="&#xf6ad;" horiz-adv-x="330" 
d="M60 399l11 204q1 18 11.5 27.5t25.5 9.5q20 0 31 -14.5t5 -39.5l-44 -193zM204 399l11 204q1 18 11.5 27.5t25.5 9.5q20 0 31 -14.5t5 -39.5l-44 -193z" />
    <glyph glyph-name="commaaccent" unicode="&#xf6c3;" horiz-adv-x="237" 
d="M121 -239l-48 13l42 180l69 -19z" />
    <glyph glyph-name="zero.tosf" unicode="&#xf81e;" 
d="M279 598q110 0 172.5 -69.5t62.5 -214.5q0 -159 -64.5 -241.5t-177.5 -82.5q-114 0 -175 82t-61 228q0 148 69 223t174 75zM274 50q81 0 127.5 65t46.5 192q0 114 -45.5 172t-126.5 58q-80 0 -126 -64t-46 -178q0 -115 44.5 -180t125.5 -65z" />
    <glyph glyph-name="one.tosf" unicode="&#xf81f;" 
d="M124 0v54h122v476h-111v55h178v-531h122v-54h-311z" />
    <glyph glyph-name="two.tosf" unicode="&#xf820;" 
d="M120 431l-53 27q22 60 80 100.5t139 40.5t133 -46.5t52 -126.5q0 -51 -21.5 -96.5t-78.5 -102.5q-98 -99 -200 -167h313v-60h-419v51q157 115 244 201q52 51 72 89t20 84q0 52 -34 82.5t-90 30.5q-101 0 -157 -107z" />
    <glyph glyph-name="three.tosf" unicode="&#xf821;" 
d="M112 449l-52 27q25 56 78.5 89t129.5 33q85 0 136.5 -44.5t51.5 -122.5q0 -56 -29.5 -99t-79.5 -60q119 -37 119 -172q0 -94 -60.5 -152t-163.5 -58q-53 0 -103 17t-82 45l28 58q70 -63 161 -63q69 0 110.5 43.5t41.5 112.5q0 63 -36 98t-85 40q-31 3 -77 3v54q47 0 70 2
q54 5 86.5 39t32.5 87q0 59 -38 87t-96 28q-48 0 -85.5 -24.5t-57.5 -67.5z" />
    <glyph glyph-name="four.tosf" unicode="&#xf822;" 
d="M412 -100h-65v174h-303v58l283 453h86v-452h93v-63h-94v-170zM115 133h232v378z" />
    <glyph glyph-name="five.tosf" unicode="&#xf823;" 
d="M291 320q-75 0 -148 -75l-60 20v320h363v-62h-298v-203q67 60 148 60q98 0 146.5 -64t48.5 -166q0 -113 -61 -186.5t-168 -73.5q-55 0 -104.5 18t-78.5 45l27 62q70 -63 159 -63q76 0 116 54.5t40 140.5q0 77 -33 125t-97 48z" />
    <glyph glyph-name="six.tosf" unicode="&#xf824;" 
d="M138 385q60 66 158 66q97 0 148.5 -61.5t51.5 -152.5q0 -109 -57 -178t-150 -69q-111 0 -167 80.5t-56 234.5q0 197 67.5 295.5t179.5 98.5q109 0 173 -108l-50 -37q-27 44 -58 65t-75 21q-72 0 -114.5 -69.5t-50.5 -185.5zM430 232q0 73 -35.5 116.5t-107.5 43.5
q-47 0 -87 -20.5t-62 -53.5q-1 -23 -1 -35q0 -44 6.5 -82.5t22 -74.5t45.5 -57t72 -21q68 0 107.5 52t39.5 132z" />
    <glyph glyph-name="seven.tosf" unicode="&#xf825;" 
d="M58 514v63h433v-45l-221 -433q-29 -57 -29 -115v-84h-70v81q0 72 26 121l212 412h-351z" />
    <glyph glyph-name="eight.tosf" unicode="&#xf826;" 
d="M142 367q-62 58 -62 147q0 84 55.5 134t141.5 50q91 0 141 -47.5t50 -134.5q0 -84 -64 -159q88 -51 88 -155q0 -98 -57 -155t-161 -57t-160 56.5t-56 153.5q0 49 22 93t62 74zM196 337q-33 -20 -50.5 -57.5t-17.5 -81.5q0 -71 38.5 -110t110.5 -39q69 0 107.5 40
t38.5 110q0 67 -33 95.5t-106 34.5zM274 638q-55 0 -91 -31t-36 -90q0 -121 115 -131l85 -7q23 16 39 55.5t16 83.5q0 56 -35.5 88t-92.5 32z" />
    <glyph glyph-name="nine.tosf" unicode="&#xf827;" 
d="M64 351q0 110 59.5 178.5t158.5 68.5t151.5 -76.5t52.5 -224.5q0 -201 -62 -304t-165 -103q-131 0 -188 104l48 40q27 -44 58 -64.5t76 -20.5q75 0 117 70.5t50 190.5q-24 -33 -66 -55t-90 -22q-96 0 -148 63t-52 155zM128 356q0 -74 35 -119.5t108 -45.5q46 0 87 24.5
t63 60.5q1 25 1 40q0 42 -7.5 79.5t-23.5 71t-46.5 53t-71.5 19.5q-69 0 -107 -51.5t-38 -131.5z" />
    <glyph glyph-name="hyphen.case" horiz-adv-x="416" 
d="M59 321v59h301v-59h-301z" />
    <glyph glyph-name="zero.num" horiz-adv-x="400" 
d="M202 725q73 0 111 -50.5t38 -163.5q0 -116 -38.5 -166t-114.5 -50q-78 0 -113.5 50.5t-35.5 164.5q0 112 41 163.5t112 51.5zM199 346q46 0 68.5 37.5t22.5 126.5q0 87 -21.5 125.5t-67.5 38.5q-48 0 -69 -39.5t-21 -130.5q0 -83 21 -120.5t67 -37.5z" />
    <glyph glyph-name="one.num" horiz-adv-x="400" 
d="M86 306v52h79v309h-72v52h139v-361h81v-52h-227z" />
    <glyph glyph-name="two.num" horiz-adv-x="400" 
d="M103 596l-52 26q21 43 61 73t93 30q58 0 95 -32.5t37 -91.5q0 -70 -56 -135q-51 -58 -113 -104h179v-56h-279v46q51 38 79.5 62t70.5 69q51 54 51 114q0 34 -20 52t-50 18q-56 0 -96 -71z" />
    <glyph glyph-name="three.num" horiz-adv-x="400" 
d="M104 611l-52 23q53 91 150 91q57 0 90.5 -27.5t33.5 -77.5q0 -32 -16.5 -59.5t-43.5 -41.5q66 -22 66 -90q0 -62 -41.5 -98t-110.5 -36q-81 0 -132 44l26 53q53 -43 109 -43q39 0 62 20t23 56q0 65 -74 65h-55v54h54q30 0 49.5 20t19.5 50q0 57 -67 57q-53 0 -91 -60z
" />
    <glyph glyph-name="four.num" horiz-adv-x="400" 
d="M301 308h-64v93h-200v51l182 267h83v-266h60v-51h-61v-94zM99 453h138v208z" />
    <glyph glyph-name="five.num" horiz-adv-x="400" 
d="M206 543q-47 0 -96 -47l-46 15v208h250v-57h-189v-97q36 33 91 33q63 0 95 -39t32 -105q0 -74 -41 -116.5t-115 -42.5q-38 0 -75.5 12t-54.5 28l27 54q47 -40 105 -40q89 0 89 103q0 91 -72 91z" />
    <glyph glyph-name="six.num" horiz-adv-x="400" 
d="M222 673q-40 0 -69.5 -35t-37.5 -90q40 36 96 36q68 0 102 -39.5t34 -103.5q0 -67 -39 -106.5t-104 -39.5q-154 0 -154 190q0 117 47.5 178.5t125.5 61.5q82 0 127 -59l-39 -39q-43 46 -89 46zM287 438q0 95 -84 95q-51 0 -90 -41v-24q0 -51 20 -87.5t67 -36.5
q41 0 64 25.5t23 68.5z" />
    <glyph glyph-name="seven.num" horiz-adv-x="400" 
d="M53 663v56h294v-41l-140 -240q-18 -31 -18 -69v-61h-63v59q0 51 18 81l128 215h-219z" />
    <glyph glyph-name="eight.num" horiz-adv-x="400" 
d="M56 426q0 60 48 97q-35 34 -35 86q0 54 36.5 85t94.5 31q62 0 95.5 -30t33.5 -85q0 -48 -37 -91q51 -30 51 -92q0 -61 -38 -96.5t-106 -35.5q-70 0 -106.5 34.5t-36.5 96.5zM203 495l-50 5q-36 -23 -36 -76q0 -38 21.5 -60t61.5 -22q39 0 61 22t22 61q0 36 -18.5 51
t-61.5 19zM199 676q-30 0 -50 -16.5t-20 -48.5q0 -65 64 -71l49 -4q27 20 27 75q0 31 -19 48t-51 17z" />
    <glyph glyph-name="nine.num" horiz-adv-x="400" 
d="M183 347q40 0 64.5 33t32.5 93q-43 -39 -90 -39q-68 0 -102.5 39.5t-34.5 103.5q0 67 41 107.5t106 40.5q145 0 145 -187q0 -119 -43 -181t-120 -62q-82 0 -127 59l39 39q43 -46 89 -46zM113 580q0 -44 21.5 -69.5t63.5 -25.5t84 44v26q0 121 -84 121q-39 0 -62 -26.5
t-23 -69.5z" />
    <glyph glyph-name="revcommaaccent" horiz-adv-x="237" 
d="M116 777l48 -13l-42 -180l-69 19z" />
    <glyph glyph-name="tilde.cap" horiz-adv-x="384" 
d="M71 593l-17 52q15 15 41.5 26.5t50.5 11.5q18 0 52 -13.5t55 -13.5q31 0 62 22l7 -58q-29 -21 -71 -21q-23 0 -59.5 11t-49.5 11q-32 0 -71 -28z" />
    <glyph glyph-name="ring.cap" horiz-adv-x="322" 
d="M66 675q0 42 28.5 71.5t70.5 29.5q45 0 72 -28.5t27 -68.5q0 -45 -28.5 -75.5t-72.5 -30.5q-45 0 -71 29t-26 73zM110 675q0 -27 14.5 -44.5t40.5 -17.5t41 17.5t15 44.5q0 28 -15 44.5t-41 16.5q-27 0 -41 -16.5t-14 -44.5z" />
    <glyph glyph-name="circumflex.cap" horiz-adv-x="337" 
d="M139 692h73l96 -94l-33 -29l-101 71l-100 -71l-32 33z" />
    <glyph glyph-name="acute.cap" horiz-adv-x="237" 
d="M14 576l-15 45l209 73l20 -66z" />
    <glyph glyph-name="grave.cap" horiz-adv-x="237" 
d="M227 621l-15 -45l-214 52l20 66z" />
    <glyph glyph-name="dieresis.cap" horiz-adv-x="403" 
d="M87 636q0 20 11 31.5t29 11.5q41 0 41 -43q0 -20 -11.5 -32t-29.5 -12q-19 0 -29.5 12t-10.5 32zM247 636q0 20 11 31.5t29 11.5q41 0 41 -43q0 -20 -11 -32t-30 -12t-29.5 12t-10.5 32z" />
    <glyph glyph-name="caron.cap" horiz-adv-x="337" 
d="M211 576h-73l-96 94l33 29l101 -71l100 71l32 -33z" />
    <glyph glyph-name="macron.cap" horiz-adv-x="343" 
d="M30 602v60h281v-60h-281z" />
    <glyph glyph-name="dotaccent.cap" horiz-adv-x="286" 
d="M98 642q0 21 12 32.5t31 11.5q44 0 44 -45q0 -22 -12 -34.5t-32 -12.5q-19 0 -31 13t-12 35z" />
    <glyph glyph-name="cedilla.cap" horiz-adv-x="257" 
d="M66 -104v49q33 9 65 9q44 0 68.5 -23.5t24.5 -59.5q0 -60 -40.5 -89t-95.5 -29q-19 0 -38 4l-3 51q15 -4 39 -4q33 0 56 14t23 43q0 43 -48 43q-21 0 -51 -8z" />
    <glyph glyph-name="hungarumlaut.cap" horiz-adv-x="494" 
d="M240 576l-25 40l186 143l39 -59zM54 576l-25 40l186 143l39 -59z" />
    <glyph glyph-name="commaaccent.cap" horiz-adv-x="237" 
d="M121 -249l-48 13l42 180l69 -19z" />
    <glyph glyph-name="breve.cap" horiz-adv-x="414" 
d="M310 734l45 -31q-19 -44 -57 -79t-96 -35q-56 0 -91 34t-52 76l49 34q40 -86 97 -86q26 0 47 14.5t32 30t26 42.5z" />
    <glyph glyph-name="caron.alt" horiz-adv-x="187" 
d="M66 719h65l-20 -204h-45v204z" />
    <glyph glyph-name="ogonek.cap" horiz-adv-x="530" 
d="M272 3l70 -2q-77 -62 -77 -111q0 -44 40 -44q27 0 53 14l9 -56q-33 -15 -77 -15q-45 0 -69.5 22t-24.5 61q0 73 76 131z" />
    <glyph glyph-name="zero.tf" 
d="M279 698q110 0 167 -82.5t57 -267.5q0 -191 -58.5 -274.5t-172.5 -83.5q-118 0 -172 81.5t-54 273.5q0 183 62.5 268t170.5 85zM274 50q81 0 122.5 69t41.5 227q0 153 -40.5 222t-121.5 69q-84 0 -123.5 -70.5t-39.5 -232.5q0 -147 39.5 -215.5t121.5 -68.5z" />
    <glyph glyph-name="one.tf" 
d="M89 0v54h152v576h-111v55h178v-631h152v-54h-371z" />
    <glyph glyph-name="two.tf" 
d="M120 531l-53 27q22 60 79 100.5t134 40.5q84 0 137.5 -48t53.5 -134q0 -90 -72 -187q-92 -125 -243 -270h328v-60h-419v51q169 161 261 285q43 57 59 96.5t16 81.5q0 56 -34 90t-90 34q-101 0 -157 -107z" />
    <glyph glyph-name="three.tf" 
d="M114 549l-52 27q25 56 78.5 89t129.5 33q85 0 136.5 -44.5t51.5 -122.5q0 -56 -29.5 -99t-79.5 -60q119 -37 119 -172q0 -94 -60.5 -152t-163.5 -58q-53 0 -103 17t-82 45l28 58q70 -63 161 -63q69 0 110.5 43.5t41.5 112.5q0 63 -36 98t-85 40q-31 3 -77 3v54q47 0 70 2
q54 5 86.5 39t32.5 87q0 59 -38 87t-96 28q-48 0 -85.5 -24.5t-57.5 -67.5z" />
    <glyph glyph-name="four.tf" 
d="M412 0h-65v174h-303v58l283 453h86v-452h93v-63h-94v-170zM115 233h232v378z" />
    <glyph glyph-name="five.tf" 
d="M281 420q-75 0 -148 -75l-60 20v320h363v-62h-298v-203q67 60 148 60q98 0 146.5 -64t48.5 -166q0 -113 -61 -186.5t-168 -73.5q-55 0 -104.5 18t-78.5 45l27 62q70 -63 159 -63q76 0 116 54.5t40 140.5q0 77 -33 125t-97 48z" />
    <glyph glyph-name="six.tf" 
d="M132 385q61 66 158 66t148.5 -61.5t51.5 -152.5q0 -109 -57 -178t-150 -69q-111 0 -167 80.5t-56 234.5q0 197 67.5 295.5t179.5 98.5q109 0 173 -108l-50 -37q-27 44 -58 65t-75 21q-72 0 -114.5 -69.5t-50.5 -185.5zM424 232q0 73 -35.5 116.5t-107.5 43.5
q-47 0 -87 -20.5t-62 -53.5q-1 -23 -1 -35q0 -44 6.5 -82.5t22 -74.5t45.5 -57t72 -21q68 0 107.5 52t39.5 132z" />
    <glyph glyph-name="seven.tf" 
d="M58 614v63h433v-45l-221 -433q-29 -57 -29 -115v-84h-70v81q0 72 26 121l212 412h-351z" />
    <glyph glyph-name="eight.tf" 
d="M142 367q-62 58 -62 147q0 84 55.5 134t141.5 50q91 0 141 -47.5t50 -134.5q0 -84 -64 -159q88 -51 88 -155q0 -98 -57 -155t-161 -57t-160 56.5t-56 153.5q0 49 22 93t62 74zM196 337q-33 -20 -50.5 -57.5t-17.5 -81.5q0 -71 38.5 -110t110.5 -39q69 0 107.5 40
t38.5 110q0 67 -33 95.5t-106 34.5zM274 638q-55 0 -91 -31t-36 -90q0 -121 115 -131l85 -7q23 16 39 55.5t16 83.5q0 56 -35.5 88t-92.5 32z" />
    <glyph glyph-name="nine.tf" 
d="M64 451q0 110 59.5 178.5t158.5 68.5t151.5 -76.5t52.5 -224.5q0 -201 -62 -304t-165 -103q-131 0 -188 104l48 40q27 -44 58 -64.5t76 -20.5q75 0 117 70.5t50 190.5q-24 -33 -66 -55t-90 -22q-96 0 -148 63t-52 155zM128 456q0 -74 35 -119.5t108 -45.5q46 0 87 24.5
t63 60.5q1 25 1 40q0 42 -7.5 79.5t-23.5 71t-46.5 53t-71.5 19.5q-69 0 -107 -51.5t-38 -131.5z" />
    <glyph glyph-name="dollar.tf" 
d="M257 -100v90h-4q-108 0 -180 56l21 61q73 -61 161 -61h2v282q-76 33 -120 76.5t-44 115.5q0 75 46 121.5t118 54.5v87h54v-86q76 -8 117.5 -53.5t47.5 -100.5l-58 -17q-22 93 -107 108v-259q72 -35 114.5 -79t42.5 -113q0 -76 -41 -126.5t-116 -63.5v-93h-54zM160 526
q0 -83 97 -130v238q-43 -6 -70 -32.5t-27 -75.5zM400 169q0 92 -89 137v-255q40 11 64.5 41.5t24.5 76.5z" />
    <glyph glyph-name="Euro.tf" 
d="M30 363v47h70q20 288 230 288q49 0 85 -15.5t56.5 -44t31 -54.5t17.5 -61l-61 -16q-13 65 -43 98t-89 33q-44 0 -75 -18t-47.5 -52t-24 -71t-10.5 -87h202v-47h-342zM30 302h342v-47h-199q17 -205 159 -205q49 0 76 16t57 62l46 -37q-39 -59 -81.5 -80t-101.5 -21
q-199 0 -226 265h-72v47z" />
    <glyph glyph-name="cent.tf" 
d="M376 449q-10 33 -24.5 51.5t-44.5 23.5v-386q31 5 49 23.5t31 54.5l53 -16q-31 -105 -134 -115v-140h-55v138q-46 7 -76.5 31t-43.5 62t-17.5 72t-4.5 79q0 231 145 252v112h54v-111q59 -5 86 -36t39 -80zM174 315q0 -71 16 -117t62 -58v381q-26 -8 -43 -29.5t-24 -54.5
t-9 -59t-2 -63z" />
    <glyph glyph-name="sterling.tf" 
d="M68 315v50h59q-3 10 -13 37t-13.5 39.5t-7.5 32.5t-4 38q0 85 51.5 135.5t139.5 50.5q87 0 134.5 -43t69.5 -130l-61 -16q-36 135 -147 135q-57 0 -89.5 -35.5t-32.5 -92.5q0 -18 4 -38.5t7.5 -30.5t15 -41t15.5 -41h180v-49h-165q20 -56 20 -113q0 -95 -59 -147h310v-56
h-410l-7 48q52 15 78 57t26 91t-25 119h-76z" />
    <glyph glyph-name="yen.tf" 
d="M278 359l164 326h75l-184 -350h156v-48h-177v-94h177v-49h-177v-144h-68v144h-173v49h173v94h-173v48h150l-189 350h76z" />
    <glyph glyph-name="florin.tf" 
d="M509 684l-5 -54q-34 12 -71 12q-48 0 -75 -41q-11 -18 -20 -61l-21 -100h109l-11 -52h-108l-67 -370q-13 -69 -36 -102q-43 -66 -129 -66q-45 0 -87 14l8 58q46 -16 79 -16q47 0 74 41q14 24 20 57l72 384h-83l10 52h82l17 90q13 67 36 102q45 66 130 66q43 0 76 -14z
" />
    <glyph glyph-name="hyphen.smcp" horiz-adv-x="416" 
d="M59 261v59h301v-59h-301z" />
    <glyph glyph-name="endash.smcp" horiz-adv-x="500" 
d="M0 246v59h500v-59h-500z" />
    <glyph glyph-name="emdash.smcp" horiz-adv-x="1000" 
d="M0 246v59h1000v-59h-1000z" />
    <glyph glyph-name="zero.smcp" horiz-adv-x="447" 
d="M227 587q91 0 138.5 -70t47.5 -225q0 -161 -48 -230.5t-143 -69.5q-99 0 -143 68t-44 230q0 154 51 225.5t141 71.5zM223 47q64 0 93.5 56t29.5 187q0 128 -28.5 183.5t-92.5 55.5q-67 0 -95 -57t-28 -192q0 -123 28 -178t93 -55z" />
    <glyph glyph-name="one.smcp" horiz-adv-x="354" 
d="M49 0v50h103v473h-93v52h159v-525h103v-50h-272z" />
    <glyph glyph-name="two.smcp" horiz-adv-x="426" 
d="M86 441l-51 26q19 51 68 85.5t115 34.5q73 0 119.5 -41t46.5 -113q0 -79 -60 -158q-78 -104 -200 -219h271v-56h-362v46q142 136 220 237q35 46 48.5 78.5t13.5 67.5q0 45 -27 71.5t-72 26.5q-83 0 -130 -86z" />
    <glyph glyph-name="three.smcp" horiz-adv-x="423" 
d="M72 456l-49 27q21 47 67 75t113 28q73 0 117.5 -38t44.5 -104q0 -47 -25 -83.5t-66 -49.5q100 -31 100 -143q0 -78 -52.5 -127t-141.5 -49q-99 0 -161 50l28 56q60 -51 137 -51q55 0 87.5 34t32.5 90q0 62 -42.5 87t-119.5 25v53q42 0 61 2q45 4 69 31.5t24 69.5
q0 45 -29 67.5t-76 22.5q-78 0 -119 -73z" />
    <glyph glyph-name="four.smcp" horiz-adv-x="449" 
d="M350 0h-64v144h-256v51l240 380h81v-376h77v-58h-78v-141zM97 199h189v304z" />
    <glyph glyph-name="five.smcp" horiz-adv-x="436" 
d="M223 345q-59 0 -121 -59l-57 17v272h314v-58h-253v-163q58 48 125 48q83 0 124.5 -53.5t41.5 -138.5q0 -95 -52 -156.5t-146 -61.5q-100 0 -160 51l26 59q63 -52 137 -52q62 0 94.5 44t32.5 113q0 60 -27 99t-79 39z" />
    <glyph glyph-name="six.smcp" horiz-adv-x="453" 
d="M113 327q52 52 132 52q83 0 126.5 -51.5t43.5 -128.5q0 -91 -49.5 -149t-129.5 -58q-192 0 -192 264q0 165 58 248t155 83q95 0 149 -90l-46 -36q-43 70 -110 70q-59 0 -94.5 -55.5t-42.5 -148.5zM351 195q0 59 -29 94t-88 35q-76 0 -121 -57v-32q0 -49 9 -88.5t36.5 -70
t72.5 -30.5q56 0 88 42t32 107z" />
    <glyph glyph-name="seven.smcp" horiz-adv-x="405" 
d="M17 509v59h373v-43l-187 -358q-25 -50 -25 -95v-72h-68v69q0 59 23 102l177 338h-293z" />
    <glyph glyph-name="eight.smcp" horiz-adv-x="448" 
d="M107 308q-52 45 -52 121q0 72 48 114.5t122 42.5q79 0 122.5 -40t43.5 -114q0 -71 -54 -133q75 -41 75 -129q0 -82 -49.5 -130t-139.5 -48q-91 0 -139 47t-48 129q0 88 71 140zM159 279q-54 -32 -54 -112q0 -57 31 -89t89 -32q56 0 87 32.5t31 89.5q0 55 -26 77.5
t-86 27.5zM223 530q-44 0 -73 -24.5t-29 -72.5q0 -96 92 -106l69 -7q18 14 30.5 45.5t12.5 68.5q0 45 -28 70.5t-74 25.5z" />
    <glyph glyph-name="nine.smcp" horiz-adv-x="448" 
d="M40 378q0 94 51 151t137 57t132 -65t46 -189q0 -171 -53 -255.5t-150 -84.5q-110 0 -160 81l44 41q46 -67 116 -67q62 0 96.5 56t39.5 152q-19 -26 -54.5 -43.5t-74.5 -17.5q-82 0 -126 52.5t-44 131.5zM104 382q0 -60 28 -97t87 -37q37 0 70.5 19t50.5 47q1 14 1 36
q0 48 -10 86t-38.5 66t-72.5 28q-55 0 -85.5 -41.5t-30.5 -106.5z" />
    <glyph glyph-name="Euro.smcp" horiz-adv-x="545" 
d="M50 308v47h60q8 100 64 166t155 66q145 0 176 -153l-62 -16q-22 110 -117 110q-69 0 -107 -49t-41 -124h202v-47h-330zM50 258h330v-48h-199q7 -71 47 -115t102 -44q41 0 68.5 14t52.5 52l48 -37q-59 -88 -174 -88q-99 0 -151.5 64t-61.5 154h-62v48z" />
    <glyph glyph-name="zero.osf" horiz-adv-x="588" 
d="M298 598q114 0 179.5 -69.5t65.5 -214.5q0 -159 -67.5 -241.5t-184.5 -82.5q-118 0 -182 82t-64 228q0 147 72 222.5t181 75.5zM293 50q88 0 136 64.5t48 192.5q0 114 -47 172t-135 58q-86 0 -134 -63.5t-48 -178.5q0 -116 46.5 -180.5t133.5 -64.5z" />
    <glyph glyph-name="one.osf" horiz-adv-x="371" 
d="M40 0v54h122v476h-111v55h178v-531h122v-54h-311z" />
    <glyph glyph-name="two.osf" horiz-adv-x="515" 
d="M105 431l-53 27q22 60 80 100.5t139 40.5t133 -46.5t52 -126.5q0 -51 -21.5 -96.5t-78.5 -102.5q-98 -99 -200 -167h313v-60h-419v51q157 115 244 201q52 51 72 89t20 84q0 52 -34 82.5t-90 30.5q-101 0 -157 -107z" />
    <glyph glyph-name="three.osf" horiz-adv-x="499" 
d="M85 449l-52 27q25 56 78.5 89t129.5 33q85 0 136.5 -44.5t51.5 -122.5q0 -56 -29.5 -99t-79.5 -60q119 -37 119 -172q0 -94 -60.5 -152t-163.5 -58q-53 0 -103 17t-82 45l28 58q70 -63 161 -63q69 0 110.5 43.5t41.5 112.5q0 63 -36 98t-85 40q-31 3 -77 3v54q47 0 70 2
q54 5 86.5 39t32.5 87q0 59 -38 87t-96 28q-48 0 -85.5 -24.5t-57.5 -67.5z" />
    <glyph glyph-name="four.osf" horiz-adv-x="523" 
d="M405 -100h-65v174h-303v58l283 453h86v-452h93v-63h-94v-170zM108 133h232v378z" />
    <glyph glyph-name="five.osf" horiz-adv-x="523" 
d="M278 320q-75 0 -148 -75l-60 20v320h363v-62h-298v-203q67 60 148 60q98 0 146.5 -64t48.5 -166q0 -113 -61 -186.5t-168 -73.5q-55 0 -104.5 18t-78.5 45l27 62q71 -63 159 -63q76 0 116 54.5t40 140.5q0 77 -33 125t-97 48z" />
    <glyph glyph-name="six.osf" horiz-adv-x="536" 
d="M130 385q60 66 158 66q97 0 148.5 -61.5t51.5 -152.5q0 -109 -57 -178t-150 -69q-111 0 -167 80.5t-56 234.5q0 197 67.5 295.5t179.5 98.5q109 0 173 -108l-50 -37q-27 44 -58 65t-75 21q-72 0 -114.5 -69.5t-50.5 -185.5zM422 232q0 73 -35.5 116.5t-107.5 43.5
q-47 0 -87 -20.5t-62 -53.5q-1 -23 -1 -35q0 -44 6.5 -82.5t22 -74.5t45.5 -57t72 -21q68 0 107.5 52t39.5 132z" />
    <glyph glyph-name="seven.osf" horiz-adv-x="453" 
d="M10 514v63h433v-45l-221 -433q-29 -57 -29 -115v-84h-70v81q0 72 26 121l212 412h-351z" />
    <glyph glyph-name="eight.osf" horiz-adv-x="524" 
d="M129 367q-62 58 -62 147q0 84 55.5 134t141.5 50q91 0 141 -47.5t50 -134.5q0 -84 -64 -159q88 -51 88 -155q0 -98 -57.5 -155t-160.5 -57q-104 0 -160 56.5t-56 153.5q0 49 22 93t62 74zM183 337q-33 -20 -50.5 -57.5t-17.5 -81.5q0 -71 38.5 -110t110.5 -39
q69 0 107.5 40t38.5 110q0 67 -33 95.5t-106 34.5zM261 638q-55 0 -91 -31t-36 -90q0 -121 115 -131l85 -7q23 16 39 55.5t16 83.5q0 56 -35.5 88t-92.5 32z" />
    <glyph glyph-name="nine.osf" horiz-adv-x="523" 
d="M49 351q0 110 59.5 178.5t158.5 68.5t151.5 -76.5t52.5 -224.5q0 -201 -62 -304t-165 -103q-131 0 -188 104l48 40q27 -44 58 -64.5t76 -20.5q75 0 117 70.5t50 190.5q-24 -33 -66 -55t-90 -22q-96 0 -148 63t-52 155zM113 356q0 -74 35 -119.5t108 -45.5q46 0 87 24.5
t63 60.5q1 25 1 40q0 42 -7.5 79.5t-23.5 71t-46.5 53t-71.5 19.5q-69 0 -107 -51.5t-38 -131.5z" />
    <glyph glyph-name="arrow.left" horiz-adv-x="936" 
d="M50 371l312 317l46 -46l-240 -238h718v-67h-710l230 -222l-47 -48z" />
    <glyph glyph-name="arrow.right" horiz-adv-x="936" 
d="M574 688l312 -317l-309 -304l-47 48l230 222h-710v67h718l-240 238z" />
    <glyph glyph-name="arrow.up" horiz-adv-x="721" 
d="M355 796l316 -312l-46 -46l-238 240v-718h-67v715l-228 -230l-42 42z" />
    <glyph glyph-name="arrow.down" horiz-adv-x="721" 
d="M671 199l-316 -312l-305 309l42 42l228 -230v715h67v-718l238 240z" />
    <glyph glyph-name="arrow.rightup" horiz-adv-x="783" 
d="M703 681v-442h-65v340l-564 -565l-44 43l561 564h-325v60h437z" />
    <glyph glyph-name="arrow.leftup" horiz-adv-x="783" 
d="M80 239v442h437v-60h-325l561 -564l-44 -43l-564 565v-340h-65z" />
    <glyph glyph-name="smiley" horiz-adv-x="610" 
d="M100 354q0 85 60 145t145 60t145 -60t60 -145t-60 -145t-145 -60t-145 60t-60 145zM138 354q0 -69 49 -118t118 -49t117.5 49t48.5 118t-48.5 117.5t-117.5 48.5t-118 -48.5t-49 -117.5zM303 239q-25 0 -46.5 8.5t-34.5 21t-22.5 25t-13.5 20.5l-3 9l26 12l2.5 -7.5
t9 -16t17 -20.5t27 -16.5t38.5 -7.5t38.5 7t27.5 16.5t17.5 19.5t9.5 17l3 7l24 -12q-1 -3 -4 -9t-13 -20t-22.5 -25t-34 -20t-46.5 -9zM212 418q0 13 9 22.5t22 9.5q14 0 23 -9t9 -23t-9 -22.5t-23 -8.5q-13 0 -22 9t-9 22zM335 418q0 14 9 23t22 9t22.5 -9.5t9.5 -22.5
t-9.5 -22t-22.5 -9q-14 0 -22.5 8.5t-8.5 22.5z" />
    <glyph glyph-name="smiley.down" horiz-adv-x="610" 
d="M100 354q0 85 60 145t145 60t145 -60t60 -145t-60 -145t-145 -60t-145 60t-60 145zM138 354q0 -69 49 -118t118 -49t117.5 49t48.5 118t-48.5 117.5t-117.5 48.5t-118 -48.5t-49 -117.5zM304 345q-25 0 -46.5 -7.5t-34.5 -18.5t-22.5 -22t-12.5 -19l-4 -7l26 -12
q1 2 2.5 6t9 14t17 17.5t27 14t38.5 6.5q33 0 57 -14.5t31 -28.5l8 -14l24 12q-1 3 -4 8t-13 17.5t-22.5 22t-34 17.5t-46.5 8zM212 418q0 13 9 22.5t22 9.5q14 0 23 -9t9 -23t-9 -22.5t-23 -8.5q-13 0 -22 9t-9 22zM335 418q0 14 9 23t22 9t22.5 -9.5t9.5 -22.5t-9.5 -22
t-22.5 -9q-14 0 -22.5 8.5t-8.5 22.5z" />
    <glyph glyph-name="smiley.wink" horiz-adv-x="610" 
d="M100 354q0 85 60 145t145 60t145 -60t60 -145t-60 -145t-145 -60t-145 60t-60 145zM138 354q0 -69 49 -118t118 -49t117.5 49t48.5 118t-48.5 117.5t-117.5 48.5t-118 -48.5t-49 -117.5zM303 239q-25 0 -45.5 7.5t-32 17.5t-19.5 20.5t-10 17.5l-3 8l26 12q1 -2 2.5 -6
t7.5 -13.5t14.5 -16.5t24.5 -13t35 -6q22 0 40.5 8.5t30 21t19.5 25t11 20.5l3 9l26 -10q-1 -4 -3.5 -11t-12.5 -24.5t-23.5 -31t-37.5 -24.5t-53 -11zM212 418q0 13 9 22.5t22 9.5q14 0 23 -9t9 -23t-9 -22.5t-23 -8.5q-13 0 -22 9t-9 22zM412 459l14 -24l-95 -54l-14 26z
" />
    <glyph glyph-name="peace" horiz-adv-x="710" 
d="M150 354q0 85 60 145t145 60t145 -60t60 -145t-60 -145t-145 -60t-145 60t-60 145zM525 356q0 64 -43.5 111.5t-107.5 52.5v-176l105 -101q46 51 46 113zM185 356q0 -65 44 -111l104 100v175q-63 -5 -105.5 -52.5t-42.5 -111.5zM457 215l-86 81v-113q48 4 86 32zM251 217
q36 -28 85 -33v113z" />
    <glyph glyph-name="flower" horiz-adv-x="496" 
d="M198 342l-67 -68q-25 -25 -25 -45q0 -16 13 -27.5t31 -11.5q28 0 47 40l39 84zM295 342l66 -68q26 -23 26 -45q0 -16 -12.5 -27.5t-30.5 -11.5q-29 0 -48 40l-38 84zM192 366l-93 16q-49 6 -49 42q0 21 10.5 33t27.5 12q18 0 41 -15l78 -47zM289 407l80 47q20 15 38 15
t28.5 -13t10.5 -31q0 -37 -53 -45l-89 -17zM226 420l-17 93q-6 29 6 46.5t35 17.5q24 0 34 -18.5t4 -50.5l-18 -88h-44z" />
    <glyph glyph-name="square.open" horiz-adv-x="595" 
d="M171 466v-252h252v252h-252zM100 143v395h395v-395h-395z" />
    <glyph glyph-name="circle.open" horiz-adv-x="610" 
d="M100 354q0 85 60 145t145 60t145 -60t60 -145t-60 -145t-145 -60t-145 60t-60 145zM171 354q0 -56 39.5 -95t94.5 -39t94 39.5t39 94.5t-39 94t-94 39t-94.5 -39t-39.5 -94z" />
    <glyph glyph-name="square" horiz-adv-x="595" 
d="M100 143v395h395v-395h-395z" />
    <glyph glyph-name="nbspace" horiz-adv-x="250" 
 />
    <glyph glyph-name="comma.alt" horiz-adv-x="213" 
d="M48 -121l-20 46q26 8 43.5 30.5t17.5 44.5h-35v94h88q10 -34 10 -64q0 -55 -29 -94.5t-75 -56.5z" />
    <glyph glyph-name="semicolon.alt" horiz-adv-x="213" 
d="M45 459q0 23 14.5 40t39.5 17q26 0 40.5 -15.5t14.5 -40.5t-15 -41t-41 -16q-25 0 -39 15.5t-14 40.5zM48 -121l-20 46q26 8 43.5 30.5t17.5 44.5h-35v94h88q10 -34 10 -64q0 -55 -29 -94.5t-75 -56.5z" />
    <glyph glyph-name="quoteleft.alt" horiz-adv-x="181" 
d="M138 769l18 -41q-23 -7 -39 -27.5t-16 -40.5h31v-84h-79q-9 32 -9 57q0 49 26.5 84.5t67.5 51.5z" />
    <glyph glyph-name="quoteright.alt" horiz-adv-x="186" 
d="M52 566l-18 41q23 7 39 27.5t16 40.5h-31v84h79q9 -31 9 -57q0 -49 -26.5 -84.5t-67.5 -51.5z" />
    <glyph glyph-name="quotesinglbase.alt" horiz-adv-x="191" 
d="M52 -109l-18 41q23 7 39 27.5t16 40.5h-31v84h79q9 -32 9 -57q0 -49 -26.5 -84.5t-67.5 -51.5z" />
    <glyph glyph-name="quotedblleft.alt" horiz-adv-x="327" 
d="M284 769l18 -41q-23 -7 -39 -27.5t-16 -40.5h31v-84h-79q-9 32 -9 57q0 49 26.5 84.5t67.5 51.5zM138 769l18 -41q-23 -7 -39 -27.5t-16 -40.5h31v-84h-79q-9 32 -9 57q0 49 26.5 84.5t67.5 51.5z" />
    <glyph glyph-name="quotedblright.alt" horiz-adv-x="332" 
d="M198 566l-18 41q23 7 39 27.5t16 40.5h-31v84h79q9 -31 9 -57q0 -49 -26.5 -84.5t-67.5 -51.5zM52 566l-18 41q23 7 39 27.5t16 40.5h-31v84h79q9 -31 9 -57q0 -49 -26.5 -84.5t-67.5 -51.5z" />
    <glyph glyph-name="quotedblbase.alt" horiz-adv-x="337" 
d="M198 -109l-18 41q23 7 39 27.5t16 40.5h-31v84h79q9 -32 9 -57q0 -49 -26.5 -84.5t-67.5 -51.5zM52 -109l-18 41q23 7 39 27.5t16 40.5h-31v84h79q9 -32 9 -57q0 -49 -26.5 -84.5t-67.5 -51.5z" />
    <glyph glyph-name="dollar.tosf" 
d="M251 -100v90h-4q-108 0 -180 56l21 61q73 -61 161 -61h2v282q-76 33 -120 76.5t-44 115.5q0 75 46 121.5t118 54.5v87h54v-86q76 -8 117.5 -53.5t47.5 -100.5l-58 -17q-22 93 -107 108v-259q72 -35 114.5 -79t42.5 -113q0 -76 -41 -126.5t-116 -63.5v-93h-54zM154 526
q0 -83 97 -130v238q-43 -6 -70 -32.5t-27 -75.5zM394 169q0 92 -89 137v-255q40 11 64.5 41.5t24.5 76.5z" />
    <glyph glyph-name="Euro.tosf" 
d="M30 363v47h70q20 288 230 288q49 0 85 -15.5t56.5 -44t31 -54.5t17.5 -61l-61 -16q-13 65 -43 98t-89 33q-44 0 -75 -18t-47.5 -52t-24 -71t-10.5 -87h202v-47h-342zM30 302h342v-47h-199q17 -205 159 -205q49 0 76 16t57 62l46 -37q-39 -59 -81.5 -80t-101.5 -21
q-199 0 -226 265h-72v47z" />
    <glyph glyph-name="cent.tosf" 
d="M386 422q-10 33 -24.5 51.5t-44.5 23.5v-386q31 5 49 23.5t31 54.5l53 -16q-31 -105 -134 -115v-140h-55v138q-46 7 -76.5 31t-43.5 62t-17.5 72t-4.5 79q0 231 145 252v112h54v-111q59 -5 86 -36t39 -80zM184 288q0 -71 16 -117t62 -58v381q-26 -8 -43 -29.5t-24 -54.5
t-9 -59t-2 -63z" />
    <glyph glyph-name="yen.tosf" 
d="M278 359l164 326h75l-184 -350h156v-48h-177v-94h177v-49h-177v-144h-68v144h-173v49h173v94h-173v48h150l-189 350h76z" />
    <glyph glyph-name="florin.tosf" 
d="M509 684l-5 -54q-34 12 -71 12q-48 0 -75 -41q-11 -18 -20 -61l-21 -100h109l-11 -52h-108l-67 -370q-13 -69 -36 -102q-43 -66 -129 -66q-45 0 -87 14l8 58q46 -16 79 -16q47 0 74 41q14 24 20 57l72 384h-83l10 52h82l17 90q13 67 36 102q45 66 130 66q43 0 76 -14z
" />
    <glyph glyph-name="sterling.tosf" 
d="M68 315v50h59q-3 10 -13 37t-13.5 39.5t-7.5 32.5t-4 38q0 85 51.5 135.5t139.5 50.5q87 0 134.5 -43t69.5 -130l-61 -16q-36 135 -147 135q-57 0 -89.5 -35.5t-32.5 -92.5q0 -18 4 -38.5t7.5 -30.5t15 -41t15.5 -41h180v-49h-165q20 -56 20 -113q0 -95 -59 -147h310v-56
h-410l-7 48q52 15 78 57t26 91t-25 119h-76z" />
    <glyph glyph-name="dollar.osf" horiz-adv-x="503" 
d="M224 -100v90h-4q-108 0 -180 56l21 61q73 -61 161 -61h2v282q-76 33 -120 76.5t-44 115.5q0 75 46 121.5t118 54.5v87h54v-86q76 -8 117.5 -53.5t47.5 -100.5l-58 -17q-22 93 -107 108v-259q72 -35 114.5 -79t42.5 -113q0 -76 -41 -126.5t-116 -63.5v-93h-54zM127 526
q0 -83 97 -130v238q-43 -6 -70 -32.5t-27 -75.5zM367 169q0 92 -89 137v-255q40 11 64.5 41.5t24.5 76.5z" />
    <glyph glyph-name="Euro.osf" horiz-adv-x="523" 
d="M24 363v47h70q20 288 230 288q49 0 85 -15.5t56.5 -44t31 -54.5t17.5 -61l-61 -16q-13 65 -43 98t-89 33q-44 0 -75 -18t-47.5 -52t-24 -71t-10.5 -87h202v-47h-342zM24 302h342v-47h-199q17 -205 159 -205q49 0 76 16t57 62l46 -37q-39 -59 -81.5 -80t-101.5 -21
q-199 0 -226 265h-72v47z" />
    <glyph glyph-name="cent.osf" horiz-adv-x="481" 
d="M357 409q-10 33 -24.5 51.5t-44.5 23.5v-386q31 5 49 23.5t31 54.5l53 -16q-31 -105 -134 -115v-140h-55v138q-46 7 -76.5 31t-43.5 62t-17.5 72t-4.5 79q0 231 145 252v112h54v-111q59 -5 86 -36t39 -80zM155 275q0 -71 16 -117t62 -58v381q-26 -8 -43 -29.5t-24 -54.5
t-9 -59t-2 -63z" />
    <glyph glyph-name="yen.osf" horiz-adv-x="523" 
d="M264 359l164 326h75l-184 -350h156v-48h-177v-94h177v-49h-177v-144h-68v144h-173v49h173v94h-173v48h150l-189 350h76z" />
    <glyph glyph-name="florin.osf" horiz-adv-x="456" 
d="M456 684l-5 -54q-34 12 -71 12q-48 0 -75 -41q-11 -18 -20 -61l-21 -100h109l-11 -52h-108l-67 -370q-13 -69 -36 -102q-43 -66 -129 -66q-45 0 -87 14l8 58q46 -16 79 -16q47 0 74 41q14 24 20 57l72 384h-83l10 52h82l17 90q13 67 36 102q45 66 130 66q43 0 76 -14z
" />
    <glyph glyph-name="sterling.osf" horiz-adv-x="523" 
d="M59 315v50h59q-3 10 -13 37t-13.5 39.5t-7.5 32.5t-4 38q0 85 51.5 135.5t139.5 50.5q87 0 134.5 -43t69.5 -130l-61 -16q-36 135 -147 135q-57 0 -89.5 -35.5t-32.5 -92.5q0 -18 4 -38.5t7.5 -30.5t15 -41t15.5 -41h180v-49h-165q20 -56 20 -113q0 -95 -59 -147h310v-56
h-410l-7 48q52 15 78 57t26 91t-25 119h-76z" />
    <glyph glyph-name="zero.denom" horiz-adv-x="400" 
d="M202 419q73 0 111 -50.5t38 -163.5q0 -116 -38.5 -166t-114.5 -50q-78 0 -113.5 50.5t-35.5 164.5q0 112 41 163.5t112 51.5zM199 40q46 0 68.5 37.5t22.5 126.5q0 87 -21.5 125.5t-67.5 38.5q-48 0 -69 -39.5t-21 -130.5q0 -83 21 -120.5t67 -37.5z" />
    <glyph glyph-name="one.denom" horiz-adv-x="400" 
d="M113 0v52h79v309h-72v52h139v-361h81v-52h-227z" />
    <glyph glyph-name="two.denom" horiz-adv-x="400" 
d="M102 290l-52 26q21 43 61 73t93 30q58 0 95 -32.5t37 -91.5q0 -70 -56 -135q-51 -58 -113 -104h179v-56h-279v46q51 38 79.5 62t70.5 69q51 54 51 114q0 34 -20 52t-50 18q-56 0 -96 -71z" />
    <glyph glyph-name="three.denom" horiz-adv-x="400" 
d="M109 305l-52 23q53 91 150 91q57 0 90.5 -27.5t33.5 -77.5q0 -32 -16.5 -59.5t-43.5 -41.5q66 -22 66 -90q0 -62 -41.5 -98t-110.5 -36q-81 0 -132 44l26 53q53 -43 109 -43q39 0 62 20t23 56q0 65 -74 65h-55v54h54q30 0 49.5 20t19.5 50q0 57 -67 57q-53 0 -91 -60z
" />
    <glyph glyph-name="four.denom" horiz-adv-x="400" 
d="M296 2h-64v93h-200v51l182 267h83v-266h60v-51h-61v-94zM94 147h138v208z" />
    <glyph glyph-name="five.denom" horiz-adv-x="400" 
d="M209 237q-47 0 -96 -47l-46 15v208h250v-57h-189v-97q36 33 91 33q63 0 95 -39t32 -105q0 -74 -41 -116.5t-115 -42.5q-38 0 -75.5 12t-54.5 28l27 54q47 -40 105 -40q89 0 89 103q0 91 -72 91z" />
    <glyph glyph-name="six.denom" horiz-adv-x="400" 
d="M217 367q-40 0 -69.5 -35t-37.5 -90q40 36 96 36q68 0 102 -39.5t34 -103.5q0 -67 -39 -106.5t-104 -39.5q-154 0 -154 190q0 117 47.5 178.5t125.5 61.5q82 0 127 -59l-39 -39q-43 46 -89 46zM282 132q0 95 -84 95q-51 0 -90 -41v-24q0 -51 20 -87.5t67 -36.5
q41 0 64 25.5t23 68.5z" />
    <glyph glyph-name="seven.denom" horiz-adv-x="400" 
d="M56 357v56h294v-41l-140 -240q-18 -31 -18 -69v-61h-63v59q0 51 18 81l128 215h-219z" />
    <glyph glyph-name="eight.denom" horiz-adv-x="400" 
d="M59 120q0 60 48 97q-35 34 -35 86q0 54 36.5 85t94.5 31q62 0 95.5 -30t33.5 -85q0 -48 -37 -91q51 -30 51 -92q0 -61 -38 -96.5t-106 -35.5q-70 0 -106.5 34.5t-36.5 96.5zM206 189l-50 5q-36 -23 -36 -76q0 -38 22 -60t61 -22t61 22t22 61q0 36 -18.5 51t-61.5 19z
M202 370q-30 0 -50 -16.5t-20 -48.5q0 -65 64 -71l49 -4q27 20 27 75q0 31 -19 48t-51 17z" />
    <glyph glyph-name="nine.denom" horiz-adv-x="400" 
d="M178 41q40 0 64.5 33t32.5 93q-43 -39 -90 -39q-68 0 -102.5 39.5t-34.5 103.5q0 67 41 107.5t106 40.5q145 0 145 -187q0 -119 -43 -181t-120 -62q-82 0 -127 59l39 39q43 -46 89 -46zM108 274q0 -44 21.5 -69.5t63.5 -25.5t84 44v26q0 121 -84 121q-39 0 -62 -26.5
t-23 -69.5z" />
    <glyph glyph-name="triangle.left" horiz-adv-x="425" 
d="M275 434v-231l-185 117z" />
    <glyph glyph-name="raute" horiz-adv-x="610" 
d="M305 535l209 -210l-210 -209l-209 210z" />
    </font>
</defs>
</svg>
