<?xml version="1.0" standalone="no"?>
<!DOCTYPE svg PUBLIC "-//W3C//DTD SVG 20010904//EN"
 "http://www.w3.org/TR/2001/REC-SVG-20010904/DTD/svg10.dtd">
<svg version="1.0" xmlns="http://www.w3.org/2000/svg"
 width="700.000000pt" height="700.000000pt" viewBox="0 0 700.000000 700.000000"
 preserveAspectRatio="xMidYMid meet">
<metadata>
Created by potrace 1.11, written by Peter Selinger 2001-2013
</metadata>
<g transform="translate(0.000000,700.000000) scale(0.100000,-0.100000)"
fill="#000000" stroke="none">
<path d="M3473 6988 c-6 -7 -74 -166 -153 -353 -78 -187 -174 -415 -213 -507
-76 -181 -84 -191 -140 -165 -18 9 -93 42 -167 75 -74 33 -200 90 -280 125
-172 78 -186 77 -176 -6 3 -29 21 -128 41 -222 20 -93 38 -181 40 -195 3 -14
7 -38 10 -55 4 -16 21 -105 40 -197 19 -92 37 -182 40 -200 4 -18 10 -51 15
-73 5 -22 11 -53 14 -70 7 -35 10 -52 31 -155 8 -41 17 -86 20 -99 2 -14 19
-95 36 -180 17 -86 33 -165 35 -176 2 -11 6 -29 8 -40 115 -566 167 -848 163
-867 -7 -27 -41 -47 -70 -42 -24 3 -22 1 -535 634 -74 91 -144 176 -156 190
-11 14 -77 95 -146 180 -68 85 -129 160 -135 166 -12 12 -32 38 -180 224 -140
176 -155 191 -180 188 -20 -3 -35 -44 -80 -213 -70 -267 -104 -374 -121 -383
-11 -6 -70 8 -177 41 -89 27 -205 62 -257 77 -52 16 -124 38 -160 48 -293 90
-343 103 -365 98 -14 -4 -25 -11 -25 -17 0 -6 29 -67 65 -135 36 -68 95 -181
131 -251 37 -71 109 -208 160 -305 52 -98 94 -187 94 -198 0 -16 -51 -45 -270
-155 -149 -75 -273 -142 -277 -150 -9 -24 12 -41 126 -101 58 -31 129 -69 156
-84 48 -26 1200 -645 1335 -717 394 -211 406 -220 394 -277 -11 -58 -36 -70
-319 -161 -148 -48 -364 -118 -480 -155 -596 -192 -600 -194 -600 -214 0 -13
63 -67 200 -170 145 -110 200 -157 199 -171 0 -11 -114 -166 -253 -343 -287
-368 -282 -359 -152 -347 42 3 87 8 101 10 24 3 93 12 155 19 17 2 59 7 95 11
36 4 79 9 95 11 17 2 53 6 80 9 77 9 126 14 176 20 31 4 49 2 56 -7 11 -13 18
-64 29 -198 3 -41 7 -85 9 -98 2 -12 7 -64 11 -115 6 -90 15 -117 38 -117 6 0
56 40 112 88 55 48 134 116 175 151 41 35 101 87 133 115 32 28 67 58 76 66
10 8 37 31 61 52 24 20 55 46 69 58 14 12 45 38 69 58 24 21 49 42 55 47 6 6
40 35 76 65 36 30 70 60 76 65 6 6 37 33 69 60 32 28 111 95 175 150 217 186
282 240 297 248 26 15 83 10 105 -9 42 -38 42 -58 -6 -379 -8 -55 -17 -118
-20 -140 -12 -96 -26 -202 -31 -225 -2 -14 -7 -47 -10 -75 -3 -27 -7 -63 -10
-80 -2 -16 -7 -48 -10 -70 -3 -22 -14 -101 -25 -175 -10 -74 -22 -162 -25
-195 -4 -33 -10 -76 -14 -95 -4 -19 -9 -62 -10 -95 -2 -65 16 -99 62 -110 12
-3 222 -4 465 -3 l444 3 25 29 c24 28 25 35 19 104 -3 40 -7 76 -10 80 -2 4
-7 39 -10 77 -4 39 -9 77 -11 85 -2 8 -6 38 -10 65 -6 50 -8 63 -19 140 -4 22
-9 56 -11 75 -8 70 -24 183 -29 219 -6 35 -14 96 -21 151 -4 25 -8 56 -10 70
-2 14 -9 63 -15 110 -7 47 -14 99 -16 115 -2 17 -7 48 -9 70 -3 22 -7 49 -9
60 -8 39 -20 160 -17 175 4 25 50 60 80 60 25 0 180 -126 511 -414 14 -12 72
-61 130 -110 58 -49 126 -107 151 -130 25 -23 66 -57 90 -78 24 -20 54 -44 65
-55 165 -143 540 -460 551 -467 32 -18 38 6 58 249 14 154 26 269 32 278 5 9
65 4 238 -18 17 -2 59 -7 95 -10 36 -4 76 -8 90 -11 14 -2 57 -6 95 -10 39 -3
73 -8 76 -10 7 -4 172 -18 219 -19 62 0 52 23 -77 185 -16 20 -163 208 -238
305 -33 43 -64 83 -70 89 -41 46 -75 98 -75 113 0 12 71 71 205 172 113 84
205 156 205 160 -1 21 -33 35 -190 86 -213 69 -799 259 -1006 326 -151 49
-193 73 -195 109 -1 11 -2 26 -3 33 -4 23 24 65 56 85 18 11 78 43 133 72 55
29 123 65 150 80 28 15 84 45 125 67 41 22 129 70 195 105 66 36 161 87 210
113 75 40 420 225 650 350 60 32 145 78 293 156 193 104 198 108 189 133 -3 8
-124 74 -269 146 -145 72 -269 137 -276 144 -15 15 -24 -4 301 616 33 63 79
151 103 196 38 71 42 83 30 99 -16 23 -23 21 -266 -53 -207 -63 -555 -169
-636 -192 -34 -10 -66 -15 -73 -11 -9 6 -54 141 -66 201 -5 25 -103 364 -110
383 -13 33 -43 18 -99 -50 -30 -38 -159 -196 -286 -353 -127 -157 -246 -303
-265 -325 -18 -22 -55 -67 -81 -101 -27 -33 -64 -78 -81 -100 -18 -21 -59 -71
-90 -110 -32 -39 -73 -88 -90 -110 -18 -21 -92 -114 -165 -205 -143 -180 -179
-211 -223 -191 -50 23 -49 43 5 316 28 138 53 262 56 276 3 14 21 104 40 200
20 96 38 189 41 205 2 17 11 62 20 100 8 39 16 79 18 90 8 43 24 126 53 271
17 82 34 166 37 185 3 19 11 54 16 79 6 25 13 59 16 75 3 17 38 196 79 398 41
202 74 377 74 387 0 48 -29 41 -270 -66 -233 -103 -268 -119 -344 -155 -75
-36 -75 -36 -142 126 -198 477 -369 882 -377 893 -5 6 -17 12 -27 12 -10 0
-22 -6 -27 -12z"/>
</g>
</svg>
