<?xml version="1.0" standalone="no"?>
<!DOCTYPE svg PUBLIC "-//W3C//DTD SVG 20010904//EN"
 "http://www.w3.org/TR/2001/REC-SVG-20010904/DTD/svg10.dtd">
<svg version="1.0" xmlns="http://www.w3.org/2000/svg"
 width="700.000000pt" height="700.000000pt" viewBox="0 0 700.000000 700.000000"
 preserveAspectRatio="xMidYMid meet">
<metadata>
Created by potrace 1.11, written by Peter Selinger 2001-2013
</metadata>
<g transform="translate(0.000000,700.000000) scale(0.100000,-0.100000)"
fill="#000000" stroke="none">
<path d="M3429 6978 c-38 -23 -49 -42 -109 -188 -29 -69 -58 -138 -65 -155 -8
-16 -26 -59 -40 -95 -15 -36 -35 -83 -44 -105 -10 -22 -55 -129 -101 -237
l-82 -197 -57 25 c-546 245 -537 242 -605 191 -66 -51 -66 -70 -7 -370 50
-252 56 -279 65 -329 2 -13 28 -138 56 -278 28 -140 54 -266 56 -280 3 -14 21
-104 40 -200 20 -96 38 -186 40 -200 3 -14 14 -68 24 -120 10 -52 21 -106 24
-120 2 -14 10 -50 16 -80 6 -30 14 -66 16 -80 3 -14 18 -92 35 -175 16 -82 31
-159 34 -169 5 -24 14 -34 -167 189 -145 179 -428 527 -797 980 -89 110 -176
208 -192 219 -62 39 -142 17 -181 -50 -13 -23 -85 -264 -103 -344 -14 -63 -49
-159 -56 -154 -5 3 -55 19 -109 35 -55 16 -144 42 -197 58 -329 99 -502 149
-526 155 -39 9 -113 -27 -132 -65 -19 -37 -19 -96 1 -134 9 -16 59 -113 111
-215 53 -102 108 -207 123 -235 15 -27 57 -107 94 -177 l66 -127 -237 -120
c-259 -130 -276 -144 -275 -222 1 -79 2 -80 312 -247 36 -19 148 -80 250 -135
102 -54 219 -117 260 -139 41 -22 98 -53 125 -68 28 -15 91 -49 140 -75 50
-26 144 -77 210 -113 206 -111 235 -126 433 -231 105 -57 192 -106 192 -110 0
-4 -26 -15 -57 -24 -52 -16 -275 -88 -893 -289 -102 -33 -207 -67 -235 -75
-76 -24 -104 -41 -125 -76 -24 -38 -26 -87 -5 -126 8 -16 47 -53 87 -82 40
-29 75 -56 78 -59 3 -3 39 -30 80 -60 41 -30 82 -62 91 -70 15 -14 1 -34 -145
-221 -89 -113 -172 -221 -186 -239 -14 -18 -36 -46 -50 -64 -53 -65 -62 -86
-58 -136 7 -73 61 -120 133 -115 32 2 186 18 195 20 3 1 39 5 80 9 41 5 83 10
92 11 9 2 49 7 89 10 40 4 81 8 91 10 11 2 52 7 91 10 66 6 73 5 73 -12 2 -37
16 -219 19 -235 2 -9 7 -48 11 -85 8 -87 8 -84 23 -111 17 -31 69 -62 106 -62
50 0 76 18 250 169 27 24 61 53 75 65 136 115 296 252 300 256 3 3 50 43 105
90 55 47 102 87 105 90 3 3 48 41 100 85 52 44 100 85 106 90 6 6 37 33 69 60
111 95 141 121 159 135 9 8 27 24 39 35 12 11 46 40 76 64 l53 45 -7 -55 c-4
-30 -9 -61 -10 -70 -2 -9 -6 -40 -10 -69 -4 -29 -8 -61 -10 -71 -2 -10 -6 -42
-9 -71 -4 -29 -8 -62 -10 -73 -2 -11 -7 -45 -11 -75 -3 -30 -8 -66 -10 -80 -2
-14 -7 -45 -10 -70 -3 -25 -8 -56 -10 -70 -2 -14 -18 -128 -35 -255 -34 -251
-39 -288 -46 -325 -2 -14 -7 -55 -10 -92 -6 -60 -4 -74 20 -121 20 -43 36 -59
73 -79 43 -23 60 -26 165 -28 75 0 125 3 140 11 64 35 78 110 29 160 -16 16
-38 30 -48 30 -10 1 -52 2 -93 3 l-75 1 1 30 c0 31 11 136 18 170 2 11 7 45
10 76 4 31 8 65 10 75 5 27 15 92 21 144 3 25 10 72 15 105 5 33 11 83 15 110
3 28 7 61 10 75 2 14 6 41 9 60 3 19 10 73 16 120 7 47 14 96 15 110 2 14 6
41 8 60 3 19 8 58 12 85 4 28 8 61 11 75 17 101 16 158 -3 202 -34 76 -96 118
-178 120 -68 1 -97 -16 -250 -151 -17 -14 -57 -48 -90 -76 -33 -27 -65 -54
-71 -60 -6 -5 -37 -32 -69 -60 -32 -27 -63 -54 -69 -60 -6 -5 -38 -32 -71 -60
-33 -27 -73 -62 -90 -76 -16 -15 -79 -69 -140 -120 -60 -51 -112 -95 -115 -99
-3 -3 -32 -28 -65 -56 -33 -27 -124 -105 -203 -173 -79 -67 -146 -121 -148
-118 -4 4 -10 49 -19 162 -6 67 -13 133 -19 165 -6 38 -19 57 -51 79 -38 26
-79 30 -180 17 -33 -4 -78 -9 -100 -11 -22 -2 -53 -6 -70 -9 -16 -2 -59 -7
-95 -11 -36 -4 -76 -8 -90 -10 -117 -16 -153 -17 -141 -4 6 8 28 36 49 64 20
27 42 55 47 61 6 6 36 44 67 85 32 41 94 120 138 177 44 57 80 111 81 120 0 9
2 24 4 33 1 9 -5 34 -15 55 -14 30 -48 61 -153 139 -75 55 -136 102 -137 105
0 4 15 11 33 17 46 16 927 301 1022 330 44 14 94 32 110 40 62 31 105 103 105
177 0 42 -37 113 -74 140 -31 23 -50 34 -256 144 -58 30 -118 63 -135 72 -16
9 -70 38 -120 65 -49 26 -103 56 -120 65 -16 10 -75 41 -130 70 -99 53 -146
78 -280 150 -65 35 -518 278 -682 366 -39 21 -69 41 -67 44 3 3 94 50 202 105
286 145 288 150 161 394 -101 193 -178 340 -236 449 -25 46 -42 86 -40 89 3 3
50 -9 104 -26 108 -34 440 -134 518 -157 151 -43 169 -43 222 3 29 25 38 47
82 203 27 96 54 194 61 218 6 23 14 42 18 41 4 0 84 -95 177 -211 269 -332
350 -432 489 -603 72 -88 136 -167 143 -175 6 -8 36 -44 65 -80 30 -36 99
-121 155 -190 137 -171 148 -180 216 -187 48 -5 62 -2 100 20 51 30 80 81 80
142 0 22 -17 121 -38 220 -20 99 -39 191 -41 205 -3 14 -12 59 -21 100 -8 41
-17 86 -20 100 -2 14 -29 149 -59 300 -31 151 -58 286 -60 300 -3 14 -21 104
-40 200 -20 96 -38 186 -40 199 -3 14 -36 180 -74 370 -38 190 -68 347 -66
348 2 2 110 -45 242 -103 259 -115 300 -125 352 -88 36 26 72 102 248 526 82
197 151 358 154 358 3 -1 82 -183 175 -407 94 -223 178 -418 187 -434 25 -40
60 -60 110 -61 34 -1 92 21 282 106 131 59 240 105 242 103 2 -2 -11 -80 -31
-173 -19 -93 -36 -180 -39 -194 -2 -14 -7 -36 -10 -50 -3 -14 -8 -36 -10 -50
-3 -14 -9 -47 -15 -75 -6 -27 -13 -61 -15 -75 -2 -14 -19 -95 -36 -180 -18
-85 -32 -173 -32 -195 2 -103 152 -133 191 -38 6 15 49 219 95 453 91 454 89
447 105 530 6 30 14 66 16 80 24 111 13 159 -44 199 -59 42 -111 31 -326 -69
-22 -10 -103 -46 -180 -80 -77 -34 -143 -64 -146 -66 -4 -2 -57 117 -119 264
-248 588 -283 668 -302 689 -41 44 -116 53 -169 21z"/>
<path d="M5468 5220 c-47 -14 -58 -24 -168 -160 -78 -96 -493 -606 -607 -746
-168 -205 -362 -444 -384 -473 -11 -13 -22 -21 -25 -18 -3 3 24 156 60 339 37
183 66 347 66 365 0 19 -10 43 -24 60 -21 24 -32 28 -75 28 -51 0 -78 -17 -94
-58 -6 -15 -56 -259 -71 -342 -3 -16 -28 -142 -56 -280 -33 -161 -50 -265 -47
-292 9 -82 86 -146 173 -145 79 2 87 9 254 217 52 65 102 126 110 134 8 9 31
37 50 61 19 25 77 97 129 160 116 142 136 167 252 310 52 64 112 137 134 164
44 54 145 179 245 304 36 44 68 81 71 81 7 1 15 -25 75 -239 52 -185 64 -213
99 -236 52 -34 78 -29 459 86 203 61 370 109 372 107 4 -4 -8 -29 -136 -272
-31 -60 -94 -180 -139 -266 -127 -244 -125 -249 161 -394 108 -55 199 -102
202 -106 3 -3 -18 -17 -47 -32 -72 -38 -222 -118 -282 -152 -28 -15 -90 -49
-140 -75 -49 -27 -112 -60 -140 -75 -27 -15 -88 -47 -135 -72 -47 -25 -112
-60 -145 -78 -166 -90 -318 -172 -385 -208 -41 -22 -97 -52 -125 -67 -57 -31
-177 -95 -279 -149 -128 -67 -179 -135 -170 -226 9 -102 64 -154 208 -200 44
-14 155 -50 246 -80 259 -84 753 -242 778 -250 12 -3 22 -9 22 -13 -1 -4 -62
-52 -136 -107 -136 -100 -171 -140 -168 -190 1 -11 2 -27 3 -36 1 -9 56 -88
124 -174 67 -87 155 -200 195 -252 l73 -94 -67 6 c-38 4 -75 8 -84 10 -8 2
-44 6 -80 9 -36 4 -81 9 -100 11 -19 3 -53 7 -75 9 -22 3 -67 8 -99 12 -106
12 -120 12 -156 -2 -37 -16 -69 -51 -75 -85 -4 -20 -10 -69 -21 -184 -9 -97
-16 -150 -19 -153 -2 -2 -66 49 -142 115 -76 65 -163 138 -192 163 -30 25 -61
52 -70 61 -9 8 -77 66 -151 129 -74 63 -137 117 -140 120 -3 3 -50 43 -105 90
-55 46 -105 89 -111 95 -7 5 -36 31 -65 56 -345 295 -349 298 -404 303 -71 6
-150 -36 -182 -97 -21 -41 -20 -102 7 -287 11 -80 23 -163 25 -185 3 -22 10
-73 16 -114 6 -41 13 -88 15 -105 2 -17 6 -49 9 -71 9 -56 13 -84 19 -130 13
-95 36 -263 41 -295 3 -19 7 -48 9 -65 4 -31 15 -112 22 -155 2 -14 6 -50 10
-80 l6 -55 -91 -1 c-75 0 -96 -4 -118 -20 -41 -31 -54 -71 -37 -115 24 -58 56
-70 186 -69 156 2 214 30 252 121 14 34 15 135 2 195 -2 12 -7 45 -11 75 -3
30 -10 79 -15 109 -5 30 -11 73 -14 95 -3 22 -7 56 -10 75 -12 84 -26 188 -31
230 -3 25 -7 56 -10 70 -2 14 -7 45 -10 70 -3 25 -7 54 -9 65 -2 11 -7 46 -11
79 -3 32 -8 68 -10 80 -5 29 -24 163 -29 206 -3 19 -8 58 -12 85 -7 48 -6 49
12 34 22 -18 303 -259 320 -274 6 -5 33 -29 60 -51 27 -23 166 -142 309 -264
143 -122 285 -243 314 -269 54 -45 125 -106 147 -126 150 -134 222 -185 262
-185 40 0 91 28 111 61 18 29 22 54 36 219 2 19 7 69 11 110 4 41 8 84 8 95 1
17 8 20 46 19 45 -1 152 -11 200 -19 14 -2 50 -7 80 -10 30 -3 75 -8 100 -10
77 -8 123 -13 185 -21 98 -12 138 -11 168 4 39 20 67 69 67 119 0 47 22 16
-266 385 l-193 247 170 127 c94 71 177 140 185 155 28 56 6 141 -44 168 -24
13 -30 15 -787 260 -170 55 -348 112 -395 127 -47 16 -89 27 -95 25 -20 -5 11
18 55 42 25 13 101 55 170 92 69 37 163 88 210 113 47 24 108 57 135 72 28 15
95 51 150 80 55 29 105 56 110 60 6 4 62 34 125 67 63 34 165 88 225 120 61
33 146 79 190 103 44 23 98 53 120 65 22 12 74 40 115 62 41 22 118 63 170 91
53 28 106 62 119 76 35 38 43 97 19 146 -19 38 -33 47 -259 160 l-239 120 61
118 c126 240 168 320 239 457 40 77 82 156 92 175 23 44 23 103 1 141 -22 38
-88 70 -128 63 -26 -4 -604 -176 -782 -232 l-63 -20 -10 37 c-97 343 -132 457
-145 477 -30 47 -85 68 -137 54z"/>
</g>
</svg>
