<?xml version="1.0" encoding="iso-8859-1"?>
<!-- Generator: Adobe Illustrator 16.0.0, SVG Export Plug-In . SVG Version: 6.00 Build 0)  -->
<!DOCTYPE svg PUBLIC "-//W3C//DTD SVG 1.1//EN" "http://www.w3.org/Graphics/SVG/1.1/DTD/svg11.dtd">
<svg xmlns="http://www.w3.org/2000/svg" xmlns:xlink="http://www.w3.org/1999/xlink" version="1.1" id="Capa_1" x="0px" y="0px" width="512px" height="512px" viewBox="0 0 612 612" style="enable-background:new 0 0 612 612;" xml:space="preserve">
<g>
	<g id="flickr">
		<g>
			<path d="M413.748,212.267c-51.309,0-93.057,42.047-93.057,93.726c0,51.693,41.748,93.754,93.057,93.754     c51.31,0,93.058-42.061,93.058-93.754C506.791,254.313,465.058,212.267,413.748,212.267z M413.748,371.29     c-35.614,0-64.599-29.298-64.599-65.297c0-35.985,28.984-65.268,64.599-65.268c35.615,0,64.586,29.283,64.586,65.268     C478.334,341.992,449.363,371.29,413.748,371.29z M203.53,212.267c-51.309,0-93.057,42.047-93.057,93.726     c0,51.693,41.748,93.754,93.057,93.754c51.324,0,93.071-42.061,93.071-93.754C296.602,254.313,254.854,212.267,203.53,212.267z      M203.53,371.29c-35.615,0-64.599-29.298-64.599-65.297c0-35.985,28.984-65.268,64.599-65.268     c35.629,0,64.614,29.283,64.614,65.268C268.144,341.992,239.16,371.29,203.53,371.29z M308.64,0.114     C138.447,0.114,0,137.337,0,306.021c0,168.655,138.447,305.865,308.64,305.865c167.275,0,303.36-137.21,303.36-305.865     C612,137.337,475.915,0.114,308.64,0.114z M308.64,583.414c-154.483,0-280.182-124.432-280.182-277.393     c0-152.989,125.698-277.45,280.182-277.45c151.58,0,274.902,124.46,274.902,277.45     C583.542,458.982,460.22,583.414,308.64,583.414z" fill="#FFFFFF"/>
		</g>
	</g>
</g>
<g>
</g>
<g>
</g>
<g>
</g>
<g>
</g>
<g>
</g>
<g>
</g>
<g>
</g>
<g>
</g>
<g>
</g>
<g>
</g>
<g>
</g>
<g>
</g>
<g>
</g>
<g>
</g>
<g>
</g>
</svg>
