<?xml version="1.0" standalone="no"?>
<!DOCTYPE svg PUBLIC "-//W3C//DTD SVG 1.1//EN" "http://www.w3.org/Graphics/SVG/1.1/DTD/svg11.dtd" >
<svg xmlns="http://www.w3.org/2000/svg" xmlns:xlink="http://www.w3.org/1999/xlink" version="1.1">
<metadata></metadata>
<defs>
<font id="juiceregular" horiz-adv-x="3035" >
<font-face units-per-em="2048" ascent="1638" descent="-410" />
<missing-glyph horiz-adv-x="571" />
<glyph horiz-adv-x="0" />
<glyph unicode="&#xd;" horiz-adv-x="571" />
<glyph unicode=" "  horiz-adv-x="571" />
<glyph unicode="&#x09;" horiz-adv-x="571" />
<glyph unicode="&#xa0;" horiz-adv-x="571" />
<glyph unicode="!" horiz-adv-x="520" d="M66 1255q0 23 58 38.5t142 15.5t152 -19q47 -12 49 -35q4 -109 35 -360q29 -229 28 -358q0 -84 -8 -160q-2 -23 -59 -38t-141 -15t-143.5 16t-57.5 37q10 76 10 160q0 129 -31 358q-31 252 -34 360zM121 98q0 55 78 82q55 18 123 19q68 0 122 -19q78 -27 78 -82 q0 -53 -78 -80q-55 -18 -122 -18q-68 0 -123 18q-78 27 -78 80z" />
<glyph unicode="&#x22;" horiz-adv-x="792" d="M70 1026q0 12 10 36.5t12 37.5q14 68 10 176q-4 145 -2 178q4 98 160 98q68 0 116 -29.5t46 -68.5q-4 -41 0 -115q2 -90 2 -116q0 -139 -39 -222q-35 -72 -147 -71q-27 0 -50 4q-37 6 -71 27q-47 29 -47 65zM434 952q0 12 11.5 37t13.5 37q12 68 10 176q-4 145 -2 178 q4 98 160 99q66 0 113.5 -30t45.5 -69q-2 -41 0 -114q4 -92 5 -119q0 -137 -39 -219q-35 -72 -150 -72q-25 0 -47 4q-37 6 -72 27q-49 29 -49 65z" />
<glyph unicode="#" horiz-adv-x="1437" d="M66 1200q0 27 58 46.5t142 19.5q100 0 162 -27q37 -16 39 -39q2 -127 8 -235q61 6 146 20q-10 186 18 344q4 18 60.5 29.5t140.5 11.5q207 0 200 -41q-23 -127 -20 -274q139 23 203 22q150 0 190 -80q8 -14 8 -30q0 -41 -57 -72q-45 -27 -92 -31q-100 -10 -238 -33 q6 -53 15 -114q147 31 251 22q78 -4 119 -22q29 -12 29 -27q0 -27 -100 -43q-10 0 -31 -4l-12 -2q-68 -14 -234 -57q27 -158 72 -475q0 -16 -59.5 -27.5t-141.5 -11.5q-84 0 -143 10q-25 6 -31 8q-27 8 -27 21q-12 129 -57 387q-84 -14 -162 -21q27 -174 66 -330 q6 -25 -56.5 -44t-144.5 -19q-84 0 -143 18q-51 16 -58 45q-102 414 -120 1055zM492 745q6 -82 16 -159l14 4q54 10 142 33q-12 78 -23 141q-80 -12 -149 -19z" />
<glyph unicode="$" horiz-adv-x="1193" d="M66 285q0 121 174 178q82 25 274 45q-190 143 -190 360q0 207 168 289q-33 207 -33 260q0 41 22 88q27 55 64 56q45 0 84 -138q27 -98 41 -217q25 4 47 6q-4 371 106 371q37 0 59.5 -56.5t24.5 -137.5q0 -45 -8 -179q100 -10 148 -39q66 -41 65 -137q0 -41 -20 -90 q-27 -61 -66 -61q-37 0 -110.5 18.5t-110.5 18.5q-213 0 -291 -66q61 -100 268 -180q154 -59 334 -90q88 -17 88 -150q0 -127 -137 -158q-18 -6 -176 -16q6 -147 6 -197q0 -47 -20 -92q-27 -55 -70 -55q-96 0 -96 320l-109 -15q14 -166 14 -186q0 -39 -22 -86 q-27 -55 -64 -55q-98 0 -106 296q-70 -16 -137 -32q-82 -18 -142 -19q-35 0 -59 60q-20 47 -20 86z" />
<glyph unicode="%" horiz-adv-x="1425" d="M66 1012q0 162 247 264q199 82 389 82q78 0 93 -131q82 -18 176 -19q31 0 97.5 2t107.5 2q37 0 65 -57q23 -49 23 -92q0 -102 -58 -139q-371 -233 -544 -420q-250 -262 -363 -545q-31 -76 -74 -76q-47 0 -73 54q-23 43 -23 92q0 180 229 483q182 244 394 426l-27 8 q-49 -94 -133 -151q-90 -59 -195 -60q-131 0 -223 68q-109 76 -108 209zM332 1040l2 -59q92 35 252 66l-29 51q-59 -66 -164 -66q-37 0 -61 8zM621 170q0 98 51 191.5t133 150.5q-2 33 18 84q23 66 58 66q174 0 346 -91q209 -110 209 -278q0 -193 -179 -309 q-154 -100 -344 -101q-131 0 -211.5 78t-80.5 209zM829 197q39 -14 97 -15q161 0 278 86q-68 35 -188 66q-18 -33 -86 -70q-76 -41 -101 -67z" />
<glyph unicode="&#x26;" horiz-adv-x="1437" d="M66 438q0 145 147 232q-57 25 -80 73q-29 59 -16 138q25 158 198 293q78 57 162 83q49 16 129 21q96 6 164 4q72 141 150 229q12 12 59 19q59 8 141 8q80 0 142 -8q70 -8 59 -19q-80 -90 -154 -235q-59 -129 -116 -258q-6 -10 -60 -19q-59 -8 -141 -8q-203 0 -201 27 q4 55 -2 94q-111 -104 -129 -225q-14 -90 19 -150q172 2 239 -14q27 -6 27 -12q-2 -4 -6 -9q-90 -47 -215 -57q-115 -78 -115 -207q0 -84 61 -145q33 -35 93 -62q80 16 129 33l14 4q154 51 227 123q53 51 56 111q2 66 -54 135q-4 4 60 18q66 6 141 7q84 0 143 -7 q23 -2 58 -18q53 -68 53 -129q0 -137 -254 -236q-180 -70 -371 -90q-141 -14 -250 -12q-88 0 -124 2q-72 4 -125 18q-211 49 -250 191q-8 29 -8 57z" />
<glyph unicode="'" horiz-adv-x="499" d="M66 985q0 10 12 35q14 33 16 39q16 68 12 176q-4 143 -2 178q6 98 201 98q82 0 142.5 -29.5t58.5 -68.5q-4 -41 0 -115q4 -90 4 -116q0 -139 -49 -221q-43 -72 -187 -72q-31 0 -59 4q-45 6 -90 27q-59 29 -59 65z" />
<glyph unicode="(" horiz-adv-x="800" d="M66 696q0 121 20 242q74 424 332 623q27 20 95.5 30.5t150.5 3.5q80 -4 120 -22q27 -12 27 -27q0 -6 -6 -12q-123 -94 -201 -242q-133 -252 -137 -575q-4 -494 264 -748q6 -6 6 -14q0 -37 -147 -47q-82 -6 -154 4q-35 6 -49 8q-29 8 -43 23q-106 100 -176 254 q-102 225 -102 499z" />
<glyph unicode=")" horiz-adv-x="800" d="M66 68q0 4 6 8q111 78 137 100q76 59 119 121q82 117 82 295q0 96 -25 246q-82 465 -301 663q-4 4 -4 8q0 29 145 37q82 4 154 -4q37 -2 92 -22q150 -133 238 -385q102 -287 102 -545q0 -166 -69.5 -273.5t-282.5 -259.5q-20 -14 -92 -22t-154 -4q-80 4 -121 18 q-27 8 -26 19z" />
<glyph unicode="*" horiz-adv-x="784" d="M68 442q0 109 149 346q-104 100 -104 195q0 43 22 92q29 59 70 60q23 0 84 -64l8 -8q-4 74 -4 135q0 47 20 92q27 57 70 58q90 0 94 -228q143 147 176 148q39 0 66 -64q20 -49 20 -94q0 -68 -63 -143q-6 -6 -117 -113q121 -72 150 -96q77 -68 77 -152q0 -41 -22 -92 q-27 -61 -66 -61q-12 0 -184 108q4 -31 4 -55q0 -43 -22 -88q-27 -53 -68 -53q-82 0 -94 182q-139 -248 -174 -248q-43 0 -70 53q-23 45 -22 90z" />
<glyph unicode="+" horiz-adv-x="1519" d="M66 553q0 35 59 57q147 57 444 170q-18 158 -18 258q0 127 27 236q10 39 92 65q74 25 155 13q78 -12 119 -52q33 -31 23 -77l4 12q-33 -139 -17 -332q168 43 320 60q80 10 153 -7.5t93 -48.5q10 -12 10 -24q0 -57 -150 -74q-20 -2 -61 -8l-4 -2q-104 -18 -228 -56 l-38 -10q-23 -8 -72 -22q29 -215 24 -330q33 -31 33 -66q0 -41 -55 -73q-57 -57 -176 -58q-78 0 -137 31q-74 39 -68 111q4 41 4 73q2 74 -6 170l-188 -73q-66 -25 -144 -25q-76 0 -137 24.5t-61 57.5z" />
<glyph unicode="," horiz-adv-x="583" d="M66 465q0 29 28 53q57 51 178 51q135 0 189 -75q133 -197 133 -437q0 -125 -47 -223q-37 -74 -191 -74q-82 0 -139 25q-66 29 -65 74q0 16 13 45.5t15 40.5q14 55 15 114q0 203 -121 379q-8 12 -8 27z" />
<glyph unicode="-" horiz-adv-x="1003" d="M66 502q0 47 20 92q27 57 72 57q233 0 508 27q20 2 122 18q78 10 123 11q45 0 72 -54q21 -41 21 -92q0 -133 -86 -151q-266 -55 -760 -56q-45 0 -72 56q-20 45 -20 92z" />
<glyph unicode="." horiz-adv-x="358" d="M61 135q0 102 58 133q20 10 26.5 17.5t12.5 13.5q10 20 20 41.5t31 32.5q14 8 31 8q31 0 53 -27q37 -45 37 -121q-1 -38 -11 -71q-45 -125 -139 -176q-16 -8 -33 -9q-39 0 -62.5 48.5t-23.5 109.5z" />
<glyph unicode="/" horiz-adv-x="819" d="M66 322q0 129 278 626q285 512 383 512q41 0 70 -59q22 -49 22 -92q0 -70 -35 -117q-385 -516 -548 -940q-29 -78 -80 -78q-37 0 -66 59q-25 49 -24 89z" />
<glyph unicode="0" horiz-adv-x="1527" d="M66 655q0 59 20 115q61 168 246 332q231 205 405 227q53 8 174 4q23 -2 37 -2q-31 41 -57 68q-137 -4 -207 14q-27 6 -27 14q0 6 29 23q63 39 215 45q150 4 254 -16q123 -25 219 -189q158 -262 164 -581q4 -158 -41 -246q-55 -106 -201 -170q-170 -74 -467 -78 q-287 -4 -473 68q-125 49 -204 147q-86 104 -86 225zM467 680q-12 -147 92 -262q72 -78 184 -119l15 -6q25 -8 55 -14q20 4 36.5 9t20.5 5q121 43 191 119q60 67 74 196q12 125 -17 277q-41 231 -131 385q-188 -88 -348 -261t-172 -329z" />
<glyph unicode="1" horiz-adv-x="835" d="M66 1210q0 16 112 41l10 2h2q14 2 39 15q43 18 80 47q68 51 111 108q10 16 33 50q10 16 92 28q72 8 153 4q31 -2 82 -12q76 -17 66 -33l-8 -12q-16 -23 -45 -72q-147 -250 -222 -585q-53 -238 -53 -433q0 -96 12 -184q4 -18 -56 -31.5t-144 -13.5q-82 0 -142 14 q-25 4 -32 9q-25 10 -27 22q-12 90 -12 188q0 225 69 492q43 170 101 311q-61 -2 -123 6q-33 4 -92 29q-6 4 -6 10z" />
<glyph unicode="2" horiz-adv-x="1392" d="M66 993q55 254 407 432q145 74 318 74q68 0 129 -12q104 -20 147 -60q27 -25 47 -73q35 -84 31 -301q-4 -141 -6 -183q-8 -104 -35 -180q-51 -143 -162 -229q109 12 205 22q74 8 156 -4q100 -18 100 -51q0 -39 -150 -53q-66 -6 -108 -13l-62 -6q-186 -23 -567 -77 q-66 -10 -119 -11q-94 0 -155 31q-27 12 -27 27q0 25 57 43l84 24q27 10 33 13l19 8q74 29 124 59l9 6l6 4q92 66 137 160q53 117 59 391q4 207 -16 281q-57 -37 -113 -90q-123 -117 -147 -232q-6 -25 -61.5 -40t-139.5 -15q-82 0 -143.5 16.5t-56.5 38.5z" />
<glyph unicode="3" horiz-adv-x="1284" d="M66 881q0 10 10 20q182 193 307 285q221 162 455 151q203 -8 288.5 -74.5t126.5 -170.5q29 -74 29 -150q0 -139 -92 -235q-45 -45 -103 -78q219 -70 207 -189q-8 -72 -82 -141q-94 -88 -245 -127q-106 -29 -228 -29q-193 0 -370 70q-59 20 -60 49q0 31 62.5 53.5 t140.5 22.5t139 -25q12 -4 39 -14l6 -2q12 -2 33 -6h8h8q14 4 19 6l8 4q20 10 34.5 20.5t18.5 14.5q45 45 64 86q6 25 2 47q-10 20 -21.5 28.5t-19.5 12.5l-6 2q-66 27 -133 29q-53 2 -90 5t-80 17q-66 20 -66 49q0 10 8 21q41 53 193 53h33q12 4 20 6q27 14 55 35l2 2 q59 57 80 115q18 49 19 102q0 121 -80 217q-66 -39 -129 -92l-8 -6q-70 -59 -205 -201q-66 -70 -248 -51q-35 4 -80 18q-70 23 -69 50z" />
<glyph unicode="4" horiz-adv-x="1456" d="M66 539q0 18 36 59q70 78 142 203q57 109 116 219q164 299 326 410q66 47 172 47q123 0 174 -47q84 -80 76 -236q-12 -207 -10 -260q0 -37 2 -78l24 10q68 29 146 29q76 0 136 -28.5t60 -67.5q0 -41 -59 -66q-131 -57 -289 -106q12 -125 33 -373q2 -39 -57.5 -66.5 t-143.5 -27.5q-193 0 -200 94q-6 84 -23 266l-158 -45q-129 -35 -241 -35q-84 0 -164 19q-98 25 -98 80zM598 702l111 29q-6 76 -9 129l-2 19q-59 -109 -100 -177z" />
<glyph unicode="5" horiz-adv-x="1454" d="M66 772q0 53 75 82q57 18 125 18t123 -18q78 -29 78 -82q2 -365 217 -518q6 -4 27 -12l2 -2l12 2q27 2 55 14q18 6 33 12q104 51 162 121q106 135 76 289q-35 104 -133 178l-21 14q-109 66 -235 80q-35 0 -21 2q-123 -10 -192 25q-55 29 -60 72q-8 100 -37 297 q-8 39 60 71q59 29 141 29q63 0 176 -6q143 -8 174 -8q121 -6 170 -2l4 2q25 2 103 12q61 10 100 10q103 0 158 -49q27 -23 26 -47q0 -31 -30.5 -56.5t-67.5 -33.5q-209 -49 -451 -41q-47 2 -145 8q6 -39 12 -92q264 -33 465 -172q133 -94 180 -213q29 -72 29 -148 q0 -72 -26 -147q-72 -199 -304 -322q-193 -102 -409 -102q-94 0 -185 20q-223 49 -352 273q-113 195 -114 440zM729 940q14 -2 21 -4z" />
<glyph unicode="6" horiz-adv-x="1607" d="M66 692q10 176 81 326q80 164 218 254q223 150 532 133q328 -16 535 -158q29 -18 28 -39q0 -47 -100 -71q-53 -12 -111 -13q-102 0 -164 41q-20 14 -33.5 22.5t-27.5 16.5q-51 23 -91 32t-69 9q-27 0 -63 -10l-4 -2h-2q-20 -8 -32.5 -13.5t-27.5 -13.5q-39 -23 -69 -49 q-6 -6 -13 -12l-4 -2l-18 -21q-72 -78 -117 -192q344 109 590 104q305 -4 440 -145q74 -76 74 -172q0 -35 -10 -68q-41 -125 -189 -250q-117 -98 -295 -188q-246 -121 -473 -121q-174 0 -311 68q-156 78 -219.5 224t-54.5 310zM467 688q-12 -315 174 -424l2 -2h2q8 -4 21 -8 q115 29 262 121q102 63 164 123l6 4l4 6q76 74 106 154q16 55 2 106q-14 39 -47 72q-8 8 -20 18q-6 4 -12.5 7t-10.5 5t-14 2h-25h-4q-96 -2 -284 -59l-11 -2q-158 -49 -315 -123zM1087 874h7h-7zM1096 874h2h4h-2h-4zM1102 874z" />
<glyph unicode="7" horiz-adv-x="1630" d="M66 1251q0 66 149 90q12 2 39 7l6 2q78 16 506 153q389 125 676 119q119 -2 174 -47q25 -23 24 -47q1 -24 -24 -51q-72 -76 -277 -265q-180 -166 -270 -272l-2 -2l-10 -10q-8 -12 -23 -31q43 -4 82 -10q150 -25 150 -90q0 -12 -11 -29q-20 -37 -90 -57q-80 -20 -155 -9 q-51 8 -99 9q-41 -80 -57 -142q-27 -102 -27 -215q0 -98 21 -207q6 -37 -56.5 -67.5t-144.5 -30.5q-182 0 -201.5 101.5t-19.5 195.5q0 170 59 326q-37 -4 -63 -6q-90 -8 -154 8q-72 20 -92 57q-8 14 -8 29q0 37 59 65q45 20 88 25q29 2 281 33q82 117 217 252 q37 37 240 227q-180 -57 -363 -115q-215 -68 -368 -92q-76 -12 -156 10q-70 18 -92 58q-8 14 -8 28z" />
<glyph unicode="8" horiz-adv-x="1255" d="M66 1235q0 25 6 47q39 125 190 178q115 41 273 37q164 -4 278 -37l18 -6q12 6 29 10q74 16 156 9q78 -10 119 -39q35 -25 20 -64q-61 -176 -321 -383q156 -41 243 -88q175 -92 189 -217q6 -63 -29 -150q-37 -94 -94 -155q-180 -199 -502 -199q-188 0 -340 82 q-168 92 -168 283q0 162 115 305q33 41 78 86l-13 4q-125 55 -194 152q-53 74 -53 145zM471 1192q20 -47 57 -88q14 12 17 12q49 41 76 66l2 4q44 45 73 88q-10 8 -34 22q-31 16 -48 21h-2q-57 16 -94 16q-6 -6 -12 -11t-12 -13q-14 -18 -23 -39q-8 -37 0 -78zM545 463 q25 -63 65 -94q2 -2 27 -17l12 -4q43 16 86 53q8 6 19 17q23 23 49 65q80 129 57 219q-14 37 -37.5 57.5t-46.5 33.5q-37 18 -84 32q-4 2 -30 11q-80 -88 -109 -179q-33 -102 -8 -194zM653 346z" />
<glyph unicode="9" horiz-adv-x="1540" d="M66 362q-14 25 23.5 41.5t115.5 22.5q82 6 155 -4q37 -6 50 -8q35 -10 43 -23q53 -100 129 -153q16 -12 18 -13q20 -12 39 -20q10 4 23 8q41 16 67 31l6 2l2 2q137 92 228 266l2 6q-115 -10 -232 0q-299 27 -446 160q-139 125 -139 274q0 170 169 301q160 121 383 154 q172 25 340 2q131 -16 207 -61q158 -90 203 -254q37 -127 12 -281q86 -14 86 -39q0 -8 -6 -14q-49 -53 -117 -96q-102 -328 -337 -465q-90 -53 -216 -80t-249 -27q-264 0 -416 107q-86 59 -143 161zM551 956q0 -168 164 -280q14 -10 16 -12q61 -35 115 -43q29 4 65 14 q8 2 19 6q53 18 102 47l4 2q39 129 39 244q0 119 -45 217q-51 115 -147 158l-11 4l-8 -2q-51 -14 -110 -49q-8 -6 -17 -11q-106 -74 -151 -159q-35 -66 -35 -136zM819 618zM848 1321z" />
<glyph unicode=":" horiz-adv-x="542" d="M66 281l6 20q8 12 26.5 31.5t24.5 29.5q25 31 93.5 46.5t152.5 7.5q78 -8 120 -35q23 -12 27 -39l-8 -18q-18 -20 -49 -62q-27 -31 -94.5 -47t-151.5 -6q-78 8 -121 35q-23 12 -26 37zM90 774q0 25 17.5 47.5t33.5 42.5q10 14 19 29q45 88 190 88q117 0 176 -59 q27 -29 27 -62q0 -17 -8 -31q-33 -66 -82 -114q-57 -61 -168 -62q-55 0 -105 19q-100 35 -100 102z" />
<glyph unicode=";" horiz-adv-x="608" d="M66 -188q0 12 24 26l12 8q59 45 82 99q39 82 39 207q0 37 -6 139q-6 88 -4 139q2 23 60.5 38t140.5 15q84 0 143 -16t57 -37q8 -118 4 -354q-8 -90 -45.5 -161t-134.5 -130q-29 -18 -119 -25q-82 -6 -155 7q-98 14 -98 45zM141 811l17 37q16 37 51 102q12 20 92 33 q72 12 154 6q145 -10 145 -53l-16 -36q-17 -37 -52 -103q-12 -20 -92 -33q-72 -12 -153 -6q-145 10 -146 53z" />
<glyph unicode="&#x3c;" horiz-adv-x="884" d="M66 614q0 6 4 15q61 90 168 213q174 201 178 205q16 20 91 31.5t157 4.5q145 -10 145 -49q0 -6 -6 -14q-109 -121 -316 -375q106 -18 187 -51q131 -55 215 -176q6 -6 6 -15q0 -39 -145 -49q-82 -4 -156 6q-35 6 -47 9q-35 8 -45 22q-82 117 -191 158q-20 4 -41 10 q-6 0 -16 2q-27 2 -43 4q-145 10 -145 49z" />
<glyph unicode="=" horiz-adv-x="1343" d="M66 786q0 41 59 70q49 25 141 29l191 8q139 10 262 31q23 4 47 8q96 23 143 42t90 42q57 31 140 31q82 0 143 -30t61 -69q0 -37 -59 -69q-199 -106 -518 -152q-158 -20 -500 -37q-61 -2 -121 19q-80 27 -79 77zM203 477q0 33 98 47q252 31 752 111q61 12 155 6 q78 -6 119 -25q27 -12 27 -26q0 -9 -6 -15q-18 -16 -93 -30q-147 -31 -374 -62q-356 -47 -377 -51q-63 -8 -117 -8q-96 0 -158 29q-27 10 -26 24z" />
<glyph unicode="&#x3e;" horiz-adv-x="907" d="M66 182q0 10 4 21q117 266 403 377q-92 88 -194 223q-74 100 -105 168q-29 61 -29 96q0 25 11.5 50.5t91.5 41.5q74 16 155 8q158 -16 144 -80l2 3q-10 -27 4 -62q35 -94 164 -250q98 -121 164 -178q37 -33 37 -49q0 -29 -58 -49q-45 -18 -86 -21h-4q-18 -6 -27 -10 l-6 -4h-4q-47 -25 -94 -64q-16 -14 -16 -12q-111 -104 -166 -227q-12 -29 -92 -45q-72 -16 -154 -8q-145 14 -145 71z" />
<glyph unicode="?" horiz-adv-x="1138" d="M66 1014q0 10 10 22q61 78 121 158q74 92 141 139q119 80 270 92q188 16 307 -41q109 -51 171.5 -155t62.5 -225q0 -160 -111 -250q-59 -49 -157 -78q-88 -23 -174 -45q-10 -4 -29 -13l-4 -2q-2 0 -8.5 -6t-10.5 -16q-10 -53 39 -141q6 -10 6 -23q0 -57 -147 -74 q-82 -8 -155.5 8.5t-90.5 47.5q-53 96 -53 159q0 37 16 68q41 72 215 121q41 10 123 33q20 6 35 12q8 2 16 6h3q14 8 28 20q27 29 43.5 75t16.5 98q0 135 -84 235q-16 -14 -19 -16q-39 -39 -94 -111q-72 -94 -90 -117q-51 -59 -180 -59q-33 0 -69 4t-81 21q-68 23 -67 53z M254 119q20 33 61 76q29 18 95.5 27t152.5 5q78 -6 119 -20q27 -12 27 -25q-1 -6 -7 -12q-35 -35 -55 -64q-27 -18 -94.5 -28t-151.5 -4q-80 4 -120 20q-20 4 -27 25z" />
<glyph unicode="@" horiz-adv-x="1714" d="M66 645q0 381 268 580q209 156 598 168q207 6 346 -21q287 -55 395 -336q51 -127 51 -262q0 -121 -43 -221q-47 -113 -131 -166q-49 -31 -110 -41q-168 -31 -359 -14q-27 2 -53 4q-45 6 -47 18q-6 59 14 156q25 117 27 156q-133 -137 -133 -283q0 -106 69 -176 q33 -33 91 -55q72 25 137 75q12 8 92 15q74 6 156 4q78 -4 118 -13q27 -6 27 -12q-2 -4 -6 -8q-102 -78 -244 -107q-106 -20 -225 -22q-178 -6 -285 12q-186 29 -264 115q102 -240 279 -404q4 -4 4 -8q0 -6 -25 -12q-43 -10 -121 -12q-82 -2 -153 2q-39 0 -93 16 q-160 150 -256 338q-125 250 -124 514zM463 637q0 -113 26 -227q10 125 113 235q147 162 287 193q113 23 268 16q56 -2 162 -20q-20 250 -172 399q-70 68 -160 98q-31 -6 -53 -12q-6 -4 -12 -4l-7 -2q-150 -51 -253 -152q-88 -86 -138 -207q-61 -147 -61 -317z" />
<glyph unicode="A" horiz-adv-x="1617" d="M66 27q0 29 26 53q74 70 115 129q152 209 229 545q29 123 64 336q41 246 59 340q10 53 59 81q57 33 142 33q70 0 125 -24q70 -31 76 -90q47 -444 282 -822q182 98 318 205q66 53 170 53q53 0 104 -16q98 -29 98 -86q0 -33 -26 -53q-219 -172 -504 -316l110 -114 q61 -68 93 -129q10 -16 10 -33q0 -43 -55 -76q-45 -27 -95 -33q-27 -6 -57 -6q-145 0 -188 86q-29 55 -134 164q-221 -90 -509 -184q-23 -8 -50 -13q-43 -49 -90 -94q-61 -57 -168 -57q-55 0 -106 16q-98 33 -98 105zM715 367l41 14q70 27 166 70q-61 88 -115 184 q-39 -150 -92 -268z" />
<glyph unicode="B" horiz-adv-x="1296" d="M383 1454q305 0 549 -65q375 -103 375 -328q0 -137 -226 -223q129 -47 129 -140q0 -188 -336 -331q-281 -119 -501 -119q-41 0 -105 16q-82 23 -82 53q0 12 19 29q-45 180 -45 555q0 242 18 410q-112 27 -112 64q0 79 317 79zM565 993q0 -37 2 -100q158 23 203 35 q135 41 135 129q0 70 -88 147l-12 10q-90 80 -225 93q-14 -135 -15 -271v-43zM573 762q4 -92 21 -293q217 106 217 231q0 20 -12 33q-98 12 -226 29z" />
<glyph unicode="C" horiz-adv-x="1546" d="M66 500q0 174 92 340q74 133 190 266q285 324 576 375q52 8 102 8q70 0 135 -16q23 33 82 53q49 16 101 16q27 0 55 -4q143 -25 143 -117q0 -14 -4 -28q-35 -119 -78 -340q-12 -55 -59 -84q-59 -35 -141 -35q-72 0 -125 27q-70 31 -76 92q-14 117 -60 188l-2 -2l-6 -2 q-51 -27 -100 -63l-8 -7q-47 -35 -113 -100q-240 -240 -291 -457q-14 -54 -14 -107q0 -34 6 -67q10 -35 29 -63q10 -12 20 -21.5t19.5 -13.5t13.5 -5t49 -5h14q156 0 340 88q137 66 218 129l6 4q139 111 182 227q16 44 90 70q48 16 99 17q28 0 57 -5q55 -8 96 -35 q51 -33 51 -78q0 -16 -6 -32q-55 -150 -223 -285q-250 -199 -549 -283q-184 -51 -342 -55h-26q-149 0 -271 43q-162 59 -229 184q-43 78 -43 183z" />
<glyph unicode="D" horiz-adv-x="1425" d="M-100 1366q0 25 59 41q47 14 141 16q61 14 148 15q14 0 137 -13q147 -14 295 -28q168 -18 287 -54q407 -121 452 -389q6 -35 6 -71q0 -143 -79 -277q-84 -143 -261 -227q-211 -102 -516 -129q-8 -14 -55 -25q-59 -14 -141 -14q-84 0 -144 14q-14 2 -45 15q-43 4 -78 14 q-59 16 -59 39q0 25 59 41q29 8 64 12q-8 498 -104 965q-57 2 -107 16q-59 16 -59 39zM469 1303q90 -449 102 -924l9 2q47 10 96 27l2 2l4 2q63 25 111 53q14 8 20 12q111 80 162 187.5t51 216.5q0 83 -33 155q-37 82 -127 144l-4 2l-8 6q-41 27 -96 49q-12 4 -27 10 q-35 12 -90 27q-14 4 -29 6q-45 10 -100 16l-16 4z" />
<glyph unicode="E" horiz-adv-x="1626" d="M66 1059q10 127 77 215q90 117 318 117q127 0 231 -43q25 63 47 112q12 25 92 41q47 9 97 9q29 0 59 -3q145 -14 146 -65q0 6 -36 -93.5t-106 -295.5q-10 -25 -92 -41q-49 -10 -102 -11q-78 0 -142 21q-31 10 -51 31q-55 70 -102 116l-6 7q-29 -61 -29 -138 q0 -45 17.5 -89t45.5 -70q64 28 144 28h6q53 0 108 -10q98 -20 99 -59q0 -20 -43 -45q-35 -18 -74 -50q-8 -6 -18 -16q-252 -225 -252 -424q0 -41 12 -80q25 -53 57 -76l2 -2q53 16 101 37l30 15q178 88 310 198l16 13q68 57 96 88q55 55 74 106q39 94 39 191q0 63 -18 114 q-6 16 -15 27q-31 6 -55 14q-57 20 -57 49t57 50q47 14 141 18q20 1 39 1q138 0 213 -52q51 -37 72.5 -93t21.5 -122q0 -80 -28 -174q-33 -106 -150 -215q-317 -295 -684 -383q-117 -29 -229 -29q-164 0 -285 59q-80 37 -125 113q-37 62 -37 130q0 15 2 30q18 156 156 321 q41 49 82 88q-162 43 -223 140q-50 76 -50 161q0 10 1 19z" />
<glyph unicode="F" horiz-adv-x="1069" d="M66 1057q0 86 63 160q106 125 332 215q195 77 392 77h5q31 0 65.5 -2t80.5 -16q67 -20 67 -46q0 -12 -8 -22q-23 -27 -92 -41q-47 -8 -103 -8q-43 -8 -104 -31q-29 -12 -37 -16q-92 -43 -149 -86l-9 -8l-8 -6q-59 -49 -88 -111q-8 -28 -8 -54t8 -52q12 -23 27 -39 q6 -4 18 -10q92 6 193 47l14 6q68 28 148 28h6q51 0 104 -10q96 -20 96 -59q0 -12 -49 -51l-16 -13q-63 -51 -129 -127q-162 -193 -162 -358q0 -127 106 -219q0 -2 15 -12q29 -18 28 -35q0 -37 -100 -58q-46 -9 -96 -9q-28 0 -58 3q-88 8 -120 31q-139 100 -168 229 q-8 33 -8 68q0 80 40 178q47 117 140 223q-115 0 -205 23q-135 35 -186 94q-45 49 -45 117z" />
<glyph unicode="G" horiz-adv-x="1318" d="M66 696q0 248 127 439q150 223 542 223q281 0 482 -113q27 -14 26 -24q0 -27 -100 -41q-45 -6 -94 -6q-29 0 -60 2q-43 2 -119 22q-59 33 -114 51q-8 2 -17 4l-2 2q-6 -4 -12 -6l-14 -8q-92 -59 -148 -160q-100 -178 -100 -381q0 -270 174 -378q6 -4 12 -9l13 -4 q27 10 43 21q10 4 18 10q74 47 125 115q-86 207 -129 409q-1 5 -1 11q0 37 60 73q57 33 142 33q82 0 141 -33q45 -27 61 -98q12 -53 31 -113q59 -2 104 -12q25 -6 35 -10q25 -10 25 -25q1 -13 1 -25q0 -109 -63 -204q128 -287 351 -602q8 -12 8 -27q0 -35 -29 -63 q-41 -43 -119 -56q-27 -4 -52 -4q-54 0 -103 17q-55 18 -92 69q-160 229 -273 445q-125 -38 -297 -38q-31 0 -63 1q-145 6 -250 49q-158 63 -221 203q-49 104 -49 241z" />
<glyph unicode="H" horiz-adv-x="1529" d="M66 479q-5 66 -5 149q0 211 33 529q10 61 19 184q0 35 59 59.5t141 24.5q84 0 142.5 -24.5t58.5 -59.5q0 -18 -16 -161q-37 -342 -37 -547v-21q207 92 624 256q-47 392 -47 528q0 55 76 85q55 22 119 22h6q68 0 125 -22q74 -31 76 -88q6 -182 47 -535q25 -29 8 -57 q44 -377 44 -603q0 -28 -1 -53q-2 -59 -76 -90q-55 -22 -119 -22h-6q-66 0 -125 22q-75 33 -75 89l1 69q0 181 -26 422q-209 -94 -631 -266q16 -82 51 -127q8 -12 9 -25q0 -33 -64 -55q-45 -16 -86 -23q-26 -3 -50 -3q-53 0 -103 12q-72 18 -101 59q-57 88 -71 272z" />
<glyph unicode="I" horiz-adv-x="1345" d="M66 35q0 43 59 65q145 59 334 103q8 94 10 391q0 244 27 391q-90 -20 -164 -33q-27 -4 -54 -4q-49 0 -97 14q-75 22 -95 58q-10 16 -10 29q0 66 149 91q18 4 58 9l45 10q102 23 311 68q303 63 516 63h11q74 0 130 -26q60 -28 60 -70q0 -39 -60 -68q-43 -20 -100 -26 q-49 -2 -100 -4h-17q-68 -6 -164 -23q0 -12 -6 -29v-4q-43 -150 -43 -378q0 -193 -2 -383l10 2q39 6 115 20l35 6l29 6q61 12 114 13q102 0 160 -47q27 -20 27 -46q0 -27 -32 -51t-64.5 -31.5t-411.5 -70.5q-248 -41 -402 -98q-16 -6 -36 -15q-68 -26 -142 -26h-6 q-76 0 -135 27.5t-59 66.5zM1071 1096z" />
<glyph unicode="J" horiz-adv-x="1236" d="M66 624q0 25 59 44q57 18 141 18t140.5 -18.5t60.5 -46.5q37 -287 195 -449q100 96 145 205q41 100 41 219q0 188 -117 469q-20 51 -72 164q-117 -39 -315 -66q-25 -3 -53 -3q-48 0 -101 9q-72 14 -92 39q-8 10 -8 21q0 39 141 59l-22 -4l55 8q37 6 64 13l4 2q31 6 57 18 q55 23 88 57q47 47 68 99l2 4q27 65 196 65h5q174 0 200 -65q66 -143 191 -434q102 -252 108 -424q1 -14 1 -28q0 -231 -156 -415q-82 -98 -172 -135q-115 -49 -256 -49q-63 0 -134 10q-201 29 -329 223q-135 207 -135 391z" />
<glyph unicode="K" horiz-adv-x="1284" d="M66 1415q0 16 58 27.5t142 11.5q82 0 141.5 -11t59.5 -28q0 -184 8 -405l10 6q190 147 408 375q8 10 57 14q59 6 144 6q82 0 143 -7t55 -13q-365 -385 -725 -590q164 -14 258 -56q131 -57 226.5 -182t242.5 -461q39 -88 105 -141q16 -12 16 -14q0 -6 -26 -10 q-41 -6 -119 -11q-27 -1 -54 -1q-53 0 -102 3q-37 0 -92 15q-94 68 -141 192q-31 80 -101 215q-137 270 -293 359q8 -154 29 -465q0 -16 -58.5 -27.5t-142.5 -11.5t-141 10q-25 6 -33 8q-27 8 -26 21q-49 784 -49 1171z" />
<glyph unicode="L" horiz-adv-x="995" d="M66 889q0 301 20 526q8 96 201 96q82 -1 142 -29q58 -28 58 -64l-19 -607q0 -164 3 -360q168 59 334 61q80 0 140.5 -27.5t60.5 -68.5q0 -45 -80 -74q-51 -20 -121 -20h-4q-39 -4 -92 -23h-2q-47 -16 -119 -55q-10 -6 -31 -19l-8 -6q-47 -29 -103 -72q-61 -49 -163 -49 q-29 0 -62 4q-147 20 -147 93q0 111 -4 344t-4 350z" />
<glyph unicode="M" horiz-adv-x="1955" d="M66 981q0 84 16 160q39 180 119 280q113 145 428 146q291 0 436 -148q147 90 395 90q299 0 418 -163q86 -119 86 -283q0 -198 -115 -440q-86 -176 -190 -295q-14 -14 -90 -24q-53 -7 -110 -6q-24 0 -48 1q-143 8 -143 39q0 4 4 10q197 223 268 529q25 104 25 190 q0 147 -70 252q-23 35 -61 70q-174 -121 -240 -322q-6 -53 -23 -100q-6 -18 -61 -28.5t-139 -10.5q-82 0 -141.5 11t-59.5 28q6 49 23 102q2 26 2 50q0 201 -168 325q-117 -106 -152 -344q-8 -59 -8 -123q0 -119 33 -242q39 -152 131 -342q86 -164 170 -327q1 -2 1 -3 q0 -11 -56 -23q-62 -12 -146 -13q-82 0 -141 12q-25 4 -33 6q-18 8 -25 21q-90 170 -178 340q-96 199 -133 360q-24 107 -24 207v8z" />
<glyph unicode="N" horiz-adv-x="1617" d="M66 930q0 182 8 436q0 14 58 23.5t142 9.5q82 0 142 -10q29 -2 57 -23q25 -223 150 -549q137 -362 303 -555q55 -66 112 -104l6 -4q182 137 183 495q0 117 -28 349.5t-28 342.5q0 14 58.5 23.5t142.5 9.5q82 0 141.5 -9t59.5 -24q0 -111 27.5 -340t27.5 -346 q0 -301 -125 -448q-63 -74 -129 -107q-78 -37 -194 -49q-78 -8 -148 -8q-99 0 -186 16q-90 18 -150 52q-106 61 -198 184l-4 6l30 -255q0 -30 -200 -30q-84 0 -144 9q-27 2 -57 22q-57 379 -57 883z" />
<glyph unicode="O" horiz-adv-x="1398" d="M68 631q-2 17 -2 34q0 131 94 285q86 143 256 299q139 125 278 205q70 41 168 41q86 0 150 -25q98 0 164 -40q233 -139 233 -451q0 -178 -83 -353.5t-220 -281.5q-145 -113 -344 -125q-31 -2 -61 -2q-201 0 -357 82l14 -8l-39 20q-233 123 -251 320zM467 668 q0 -45 12 -90q25 -63 76 -115q23 -20 66 -47q25 -16 45 -27h4q4 -4 10 -6l10 -4q29 12 70 43q139 111 209 317q41 123 41 242q-1 188 -103 307q-76 -55 -139 -114l-8 -7q-293 -276 -293 -499z" />
<glyph unicode="P" horiz-adv-x="1136" d="M66 340q0 246 59 514q100 440 311 745q6 10 61.5 16.5t139.5 6.5q141 0 192 -16q139 -80 226 -291q80 -199 90 -422q1 -34 1 -66q0 -266 -104 -387q-70 -80 -239 -90q-67 -4 -124 -4q-129 0 -212 19v-24l25 -309q0 -22 -201 -22q-82 0 -141 8q-29 0 -60 15 q-24 141 -24 295v12zM469 449q17 1 39 0q55 0 137 -3q45 56 72 146q31 111 31 242q0 231 -82 452q-172 -393 -197 -837z" />
<glyph unicode="Q" horiz-adv-x="1748" d="M-82 -35q0 4 6 10q76 68 273 289q-125 125 -125 324q0 229 153 422q293 367 793 458q8 27 57 45q63 27 146 27q78 0 137 -27q184 -82 287.5 -256.5t103.5 -379.5q0 -131 -45 -259q-70 -190 -250 -323q-164 -119 -381 -168q-168 -37 -330 -37q-143 0 -266 29 q-94 -102 -166 -168q-18 -16 -92 -25q-52 -7 -107 -7q-23 0 -46 1q-147 10 -148 45zM475 530q111 84 187 99q40 9 100 9q35 0 76 -3q78 -4 118 -21q29 -10 29 -22q0 -6 -8 -10q-162 -86 -354 -297l4 -4q12 -4 28 -13l15 -4q12 -4 32 -8q8 -2 27 0q66 0 113 6l6 2q31 6 55 12 q18 4 33 11q139 47 233 139l5 6q102 102 145 234q33 102 33 213q0 256 -170 440q-49 -10 -88 -23q-8 -2 -23 -6q-217 -78 -379 -233q-8 -8 -18 -19q-127 -135 -174 -278q-28 -87 -28 -174q0 -28 3 -56z" />
<glyph unicode="R" horiz-adv-x="1255" d="M66 825q10 342 114 494q72 104 201 135q109 27 219 27q276 0 490 -144q111 -74 145 -137q33 -59 33 -113q0 -13 -2 -26q-10 -68 -60 -137q-80 -111 -280 -246q-96 -63 -252 -152q164 -72 276 -172q63 -57 142 -153q27 -35 90 -97q6 -4 18 -10q55 -16 55 -41t-59 -43 q-66 -20 -143 -20q-76 0 -140 20q-106 35 -190 135q-72 88 -105 123q-61 66 -118 107l-13 8l-4 2q8 -109 9 -184q0 -25 -59.5 -42.5t-141.5 -17.5q-84 0 -142.5 17.5t-58.5 42.5q0 90 -14 311q-10 172 -10 279v34zM467 668q88 53 139 90l17 10l18 14q66 49 115 99 q70 72 94 127q18 39 18 79q0 35 -14 70q-31 61 -102 113l-4 4l-5 2q-66 43 -127 67q-63 -55 -96 -149q-54 -163 -54 -449q0 -37 1 -77z" />
<glyph unicode="S" horiz-adv-x="1366" d="M66 369q0 61 8 143q4 35 61.5 56.5t138.5 21.5q84 0 144 -24q57 -22 57 -50l-9 -151q0 -86 15 -148q180 86 402 264q-115 12 -211 39q-256 70 -361 203q-82 102 -82 252q0 111 58 264q49 137 82 203q55 111 147 145q86 35 186 35q123 0 224 -47q127 -61 188 -172 q31 -57 82 -191q4 -11 4 -21q0 -24 -24 -40q-41 -27 -119 -35q-27 -3 -54 -3q-53 0 -102 11q-82 18 -92 45q-23 63 -76 183q-102 -233 -102 -379q0 -156 94 -238q55 -49 133 -76l10 -4h4q86 -25 177 -26h10q47 -2 117 -2h19q97 0 155 -37q27 -18 26 -43q0 -11 -8 -19 q-49 -55 -147 -133q-145 -117 -293 -202q-209 -123 -359 -156q-86 -19 -168 -19q-67 0 -131 13q-133 29 -168.5 121t-35.5 217z" />
<glyph unicode="T" horiz-adv-x="1382" d="M66 1319q0 31 60 53.5t136 22.5q49 0 160 -29l8 -2q12 -2 35 -6l-4 37q0 35 201 35q82 0 141 -11q25 -4 33 -6q25 -8 26 -20l2 -19l15 2q29 6 153 49q90 33 154 33q80 0 147 -24q60 -23 60 -54q0 -29 -60 -53q-201 -86 -452 -115q12 -279 24 -557q25 -322 129 -534 q1 -1 1 -2q0 -15 -93 -27q-74 -8 -108 -8q-84 0 -142 10q-25 4 -33 8q-20 6 -26 19q-102 211 -129 528q-12 276 -25 551q-195 12 -354 66q-59 18 -59 53z" />
<glyph unicode="U" horiz-adv-x="1198" d="M66 987q0 156 16 289q14 127 35 190q27 80 200 80q82 0 142 -24t60 -49q0 -3 -1 -7q-23 -63 -35 -186q-14 -131 -16 -274v-37q0 -339 70 -551q29 -82 71 -139q61 76 101 188q74 219 84 512v262q0 158 14 262q6 35 61.5 57.5t139.5 22.5q84 -1 144 -25q56 -23 56 -51 l-14 -242v-38q2 -83 2 -144q0 -91 -4 -133q-14 -193 -43 -338q-43 -201 -111 -315q-98 -166 -278 -203q-81 -16 -146 -16h-14l-43 2q-49 2 -102 12q-94 20 -156 66q-94 72 -143 207q-90 239 -90 606v16z" />
<glyph unicode="V" horiz-adv-x="1505" d="M66 1315q-1 4 -1 7q0 31 60 58q59 27 141 27q178 0 201 -92q41 -156 268 -494q139 383 408 602q57 47 164 47q57 0 110 -14q98 -27 99 -80q0 -23 -43 -61q-29 -26 -60 -53q-12 -10 -20 -19l-4 -6q-74 -76 -148 -203q-186 -326 -244 -841q-10 -92 -200 -93q-197 0 -201 93 q-4 154 -94 327q-41 80 -185 293q-201 303 -251 502z" />
<glyph unicode="W" horiz-adv-x="1902" d="M66 766q0 248 96 473q10 29 92 45q48 11 100 11q26 0 54 -3q145 -14 145 -73q0 -2 -18 -56q-51 -145 -64 -315q-3 -48 -3 -92q0 -142 34 -242q18 -59 61 -106q94 55 164 114l2 4l10 9q23 20 47 49q-26 105 -26 173q0 52 10 91q16 61 148 74q29 3 56 3q96 0 171 -38 q115 -59 115 -158q0 -74 -68 -162q53 -209 156 -338q53 72 90 185q55 162 67 366q5 72 5 126.5t-5 90.5q-16 119 -86 197q-12 16 -16 18q-14 12 -26.5 19.5t-24.5 13.5q-27 12 -62 15h-6q-6 2 -35 2q-47 -2 -180 -9h-11q-68 0 -130 23q-59 23 -60 53q0 33 60 55 q47 16 141 23q103 4 183 4q111 0 175 -8q248 -33 366 -154t118 -362q-1 -76 -13 -185q-18 -170 -63 -303q-59 -174 -133 -249q-127 -129 -350 -130q-184 0 -287.5 70t-181.5 223q-160 -84 -332 -84q-248 0 -373 136q-84 94 -104 272q-8 63 -8 129z" />
<glyph unicode="X" horiz-adv-x="1280" d="M66 1401q-1 1 -1 2q0 11 60 24q59 10 141 11q84 0 142 -11q25 -6 32 -8q18 -6 27 -18q53 -90 162 -266q199 213 420 360q19 11 91 19q47 5 98 5q27 0 56 -1q80 -4 121 -15q27 -8 27 -16q-2 -6 -6 -10q-360 -240 -635 -619q100 -147 192 -262q39 -43 113 -131 q18 -23 80 -121q51 -80 84 -111q25 -8 24 -18q0 -10 -28 -18q-60 -21 -164 -21q-31 0 -66 2q-55 4 -73 6q-45 6 -72 23q-12 8 -39 45q-35 55 -109 162q-16 23 -127 151q-74 -143 -124 -289q-4 -14 -58 -22q-59 -10 -143 -10q-79 0 -141 11q-60 11 -60 20q0 156 309 583l-2 6 q-12 16 -331 537z" />
<glyph unicode="Y" horiz-adv-x="1241" d="M66 1059q0 201 45 350q12 39 92 66q47 15 97 15q27 0 56 -5q80 -10 121 -49q25 -25 25 -58q0 -13 -4 -28q-14 -43 -22.5 -128t-8.5 -194q2 -215 41 -371q25 -106 74 -182l2 2q78 61 129 131q59 78 100 176q-22 296 -22 354q0 65 4 117q4 59 75 88q55 23 125 23 q156 0 193 -80q63 -137 63 -287q0 -115 -37 -229q11 -161 11 -272v-30q0 -152 -19 -261q-27 -168 -82 -262q-141 -240 -481 -240q-80 0 -158 14q-149 27 -149 102q0 17 8 34q41 82 191 82q4 0 100 -13h16h6l7 2l2 2q6 2 14 9q23 18 41 40q55 80 76 181q14 63 20 135 q-115 -59 -246 -68q-15 -1 -29 -1q-188 0 -294 122q-147 166 -176 541q-6 92 -6 172z" />
<glyph unicode="Z" horiz-adv-x="1884" d="M66 1280q0 39 98 57q53 10 111 10q21 0 42 -1q78 -8 138 -41q31 -18 63 -33q12 -6 27 -12q72 -31 180 -62q16 -4 39 -10q111 -29 211 -41l12 -2q51 -6 115 -10q270 125 569 127q115 0 172 -33q29 -16 29 -37q0 -8 -8 -16q-170 -152 -535 -172q-121 -72 -233 -175 q-176 -158 -322 -356q164 66 299 100q160 39 307 39q383 0 508 -227q6 -10 6 -18q0 -49 -145 -64q-30 -3 -58 -3q-50 0 -96 9q-33 6 -51 13q-33 12 -41 28q-33 57 -76 96q-8 6 -21 13.5t-30 15.5l-4 2q-68 -8 -176 -45q-90 -31 -180 -70l-27 -10l-41 -20q-133 -63 -405 -172 q-66 -20 -138 -20q-51 0 -106 10q-96 18 -96 57q0 8 4 18q270 496 690 789q-268 33 -498 102q-193 59 -307 131q-27 16 -26 33z" />
<glyph unicode="[" horiz-adv-x="872" d="M66 948q6 205 73 299q57 80 236 113q20 2 254 22q78 8 153 -4q101 -16 101 -49q0 -39 -148 -53q-49 0 -147 -10h-2l-6 -2q-12 -6 -21 -11l-2 -4q-88 -76 -90 -321q0 -121 18 -312q23 -242 27 -311q-2 -57 4 -170q70 18 146 19q74 0 135 -17.5t61 -40.5q0 -25 -59 -39 q-289 -74 -398 -73q-143 0 -208 32q-49 25 -64.5 72t-16.5 154.5t-26 351.5q-23 229 -20 354z" />
<glyph unicode="\" horiz-adv-x="819" d="M66 1309q0 43 22 92q29 59 70 59q98 0 385 -512q276 -497 276 -626q0 -39 -22 -89q-29 -59 -66 -59q-51 0 -82 78q-164 424 -547 940q-37 47 -36 117z" />
<glyph unicode="]" horiz-adv-x="745" d="M-16 -41q0 53 98 76q55 12 186 31q16 41 43 274q20 186 27 348q12 313 -25 522q-111 -16 -196 23q-59 25 -60 59q0 43 60 62q186 61 309 84q102 18 195 -23q47 -18 59 -61q65 -211 65 -535q0 -236 -43 -561q-6 -61 -28 -180q-25 -86 -68 -113q-59 -37 -157 -53 q-82 -12 -164 -27q-55 -12 -113 -12q-102 0 -162 43q-27 20 -26 43z" />
<glyph unicode="^" horiz-adv-x="1011" d="M66 840q0 51 59 78q43 18 76 36q20 14 28 21q100 76 187 217q47 80 188 80q37 0 72 -6q121 -23 133 -103q20 -137 68 -209l12 -12q133 -29 133 -100q0 -15 -8 -31q-39 -80 -189 -80q-29 0 -57 4q-139 18 -229 103q-147 -106 -283 -107q-72 0 -131 32t-59 77z" />
<glyph unicode="_" horiz-adv-x="1603" d="M66 20q0 25 34 50q29 20 64 28q551 121 1020 121q150 0 282 -12q43 -6 86 -23q61 -27 62 -61q0 -13 -8 -25q-20 -35 -91 -53t-155 -8q-33 2 -53.5 4t-42.5 2q-72 2 -140 0q-274 -6 -604 -66l-26 -6q-205 -39 -240 -39q-102 0 -162 45q-27 20 -26 43z" />
<glyph unicode="`" horiz-adv-x="768" d="M150 1307q18 31 75.5 47t122.5 8q72 -10 96 -37q43 -51 166 -162q109 -100 160 -168q6 -8 6 -18q0 -25 -22 -43q-47 -41 -142 -41q-106 0 -151 59.5t-144 147.5q-111 98 -151 143q-31 37 -16 64z" />
<glyph unicode="a" horiz-adv-x="1366" d="M-55 1366q0 45 59 76q49 25 141 31q313 16 369 16q315 0 516 -105q158 -84 246 -242.5t88 -340.5q0 -267 -143 -445q-76 -94 -170 -155q-158 -102 -379 -103q-225 0 -385 105q-215 141 -221 334v14q0 201 215 379q188 160 477 231q35 10 69 13q-18 20 -39 34 q-10 8 -18 15l-2 2q-18 10 -45 22h-4l-51 17q-69 14 -162 14h-23q-23 0 -338 -16h-10l-112 20q-78 29 -78 84zM471 494q16 -49 50 -91.5t63 -58.5l4 -4q31 -18 50 -23.5t34 -7.5h8h10l2 2q6 0 17 4q37 16 49 29q55 41 82 76q123 160 123 375q0 104 -25 180q-63 -16 -115 -37 q-8 -2 -20 -8q-55 -23 -109 -56q-4 -4 -24 -16q-154 -111 -197 -250q-7 -31 -6 -62q-1 -26 4 -52z" />
<glyph unicode="b" horiz-adv-x="1400" d="M66 823q0 328 163 514q131 150 338 199q116 27 221 27q40 0 78 -4q139 -12 217 -66.5t78 -171.5v-5q0 -153 -112 -284q100 -18 184 -55q164 -70 176 -207q2 -17 2 -34q0 -144 -123 -281q-129 -143 -334 -238q-227 -104 -444 -115q-29 -2 -55 -2q-56 0 -99 9 q-100 16 -100 51q0 23 70 41q47 12 77 14q59 2 142 35h4q106 43 199 104l14 8q250 174 250 375q0 47 -17 86q-23 41 -61 72l-4 2q-20 10 -37 18q-141 -69 -336 -69h-6q-43 0 -86 4q-1 -18 -1 -37q0 -238 95 -508q1 -2 1 -4q0 -18 -60 -37q-57 -16 -142 -16q-82 0 -141 16 q-49 14 -59 41q-92 264 -92 518zM481 1012q80 18 160 28q121 121 121 273q-1 51 -17 92l-4 6l-10 -8q-12 -6 -26 -14l-9 -7q-104 -78 -161 -202q-35 -72 -54 -168z" />
<glyph unicode="c" horiz-adv-x="1454" d="M66 844q12 215 102 366q59 100 125 154q109 84 252 117q61 12 127 12q98 0 176 -31q131 -53 301 -202q29 66 53 149q12 41 92 68q46 15 96 15q28 0 58 -5q80 -12 121 -51q24 -23 24 -57q0 -14 -4 -29q-70 -240 -207 -379q-55 -57 -170 -58q-57 0 -102 19 q-100 39 -219 137q-195 166 -197 168q-16 10 -39 25q-8 -6 -14 -11q-113 -90 -156 -272q-20 -86 -20 -168q0 -152 70 -256q14 -16 24 -25l4 -4l2 -2h2q8 0 17 2q41 12 71 25q14 6 31 14q106 53 191 115l6 4l20 16q16 12 41 33q70 55 172 55q53 0 103 -16q72 -23 92 -65 q9 -18 9 -34q0 -29 -30 -52l-14 -13q-384 -309 -711 -309h-8q-137 4 -252 55q-166 78 -215 281q-25 97 -25 175q0 17 1 34z" />
<glyph unicode="d" horiz-adv-x="1275" d="M66 799q-1 29 -1 65q0 71 3 168q4 180 4 231.5t63 79.5q12 63 148 89q70 12 145 12q166 0 326 -58q236 -84 368 -221q164 -172 164 -344v-16q-10 -203 -164 -369q-125 -133 -331 -235q-125 -61 -381 -156q-45 -16 -103 -16q-111 0 -172 55q-27 25 -26 53q0 53 98 90 l49 17q-57 14 -92 45q-59 49 -80 215q-16 115 -18 295zM465 893q0 -334 33 -467q6 -18 16 -39q12 -10 18 -22q45 23 78 43t39 24q184 131 225 291q11 42 11 86q0 38 -8 78q-45 147 -189 248l-8 4l-6 4q-47 31 -101 55q-14 4 -28 10q-47 16 -74 21q0 -43 -2 -168 q-4 -100 -4 -168z" />
<glyph unicode="e" horiz-adv-x="1232" d="M66 760q0 129 26 252q53 250 182 364q80 72 199 88q100 16 191 16t174 -16q113 -20 190 -78q92 -70 153.5 -186.5t61.5 -237.5q0 -119 -69 -204q-102 -129 -406 -168q-117 -14 -287 -17q29 -197 113 -297q66 49 137 125q12 14 92 25q48 5 100 5q26 0 54 -1 q145 -8 145 -39q0 -4 -6 -10q-168 -182 -344 -223q-74 -18 -194 -19h-23q-95 0 -166 15q-92 20 -143 63q-123 102 -164 338q-16 102 -16 205zM467 762q0 -53 4 -109h25q55 0 108 13l4 2q31 6 68 24q4 0 14 6q31 16 53 35q99 85 99 230q0 106 -50.5 213.5t-134.5 175.5 q-82 -76 -131 -222q-59 -170 -59 -368z" />
<glyph unicode="f" horiz-adv-x="1161" d="M178 1264q94 100 238 170q258 125 667 202q27 6 58 6q149 0 190 -88q8 -16 8 -32q0 -82 -149 -111q-289 -55 -465 -131q-20 -10 -43 -20q-61 -33 -100 -62l-7 -2q-33 -25 -69 -72q-25 -35 -33 -74q-5 -25 -5 -51q0 -13 1 -26q8 -25 20 -43q6 -8 15 -15l6 -4l4 -4l10 -2 q14 -4 21 -4l6 -2q33 0 53 2q10 0 25 2l16 2q129 57 262 84q29 6 58 6q111 0 170 -59q26 -26 26 -55v-2q0 -51 -57 -84q-115 -66 -262 -99q-266 -143 -324 -348q-5 -28 -5 -56t5 -54q16 -39 45 -117q26 -79 26 -138q0 -11 -1 -22q-4 -61 -76 -92q-55 -25 -125 -25 q-82 0 -143 35q-58 34 -58 79v3q2 14 2 28q0 22 -4 44q-27 63 -65 192q-7 35 -7 69t7 66q43 184 211 340q-186 63 -240 189q-24 59 -24 116q0 136 112 259z" />
<glyph unicode="g" horiz-adv-x="1155" d="M66 866q0 166 61 353q51 156 149 256q124 130 324 130q17 0 35 -1q281 -16 387 -197q74 -125 108 -354q23 -154 27 -416q8 -15 8 -27q0 -14 -8 -26q0 -131 -20 -222q-33 -133 -82 -194q-133 -166 -393 -166q-131 0 -261 45q-84 37 -254 107q-59 23 -59 67q0 39 59.5 67.5 t135.5 28.5t147.5 -30.5t214.5 -87.5q68 51 94 188q-89 -20 -168 -20q-57 0 -110 10q-182 37 -264 121q-70 72 -93 133q-38 103 -38 229v6zM465 866q0 -227 117 -303q74 19 176 76q-4 367 -62 569q-27 100 -75 170q-76 -98 -116 -241.5t-40 -270.5z" />
<glyph unicode="h" horiz-adv-x="1351" d="M66 1400q0 18 57 30q59 12 143 12q82 0 142 -12q25 -4 32 -9q25 -8 27 -22q0 -2 49 -525q139 90 370 90q25 0 52 -1l-20 485q-2 25 57 41t143 16q92 0 156 -20q43 -14 45 -37q0 -49 20 -481q88 -12 88 -37q0 -4 -6 -10q-27 -35 -78 -54q7 -186 7 -343t-7 -283 q-2 -25 -60 -41.5t-140 -16.5q-83 0 -143 16q-58 16 -58 40v2q7 126 7 280t-7 336l-24 4q-90 -53 -158 -164q-41 -66 -152 -327l2 -9q4 -8 -10 -30.5t-70 -34.5q-60 -14 -130 -14q-53 0 -111 8q-102 13 -102 33q0 2 1 4q8 20 19 43q-61 201 -92 512z" />
<glyph unicode="i" horiz-adv-x="688" d="M-160 1546q0 96 103 160q166 101 423 101q26 0 52 -1q90 -4 141 -26q59 -27 59 -64q0 -39 -59 -65q-62 -27 -131 -27h-10q-39 2 -68 2q-25 -2 -53 -10q-6 -2 -10 -4l-6 -4l-2 -2q-4 0 -23 -19q-8 -12 -12 -24q-4 -18 0 -39q6 -14 12 -23l4 -6l6 -6l6 -4l7 2q12 2 26 8 q23 8 57 27q55 28 133 28h5q82 0 143.5 -27.5t61.5 -66.5q0 -35 -60 -63q-170 -86 -369 -93h-28q-107 0 -187 27q-221 78 -221 219zM-43 1026q0 45 53 78q45 29 94 35q43 6 78 12q18 4 33 8l6 2q47 14 144 39q55 14 112 14h3q165 0 188 -114q18 -104 18 -226 q0 -145 -34 -432.5t-34 -429.5q0 -59 -75 -92q-55 -24 -120 -24h-5q-70 0 -127 24q-74 33 -74 92q0 137 37 455q31 265 31 421v34q-76 -14 -127 -15q-154 0 -193 86q-8 16 -8 33z" />
<glyph unicode="j" horiz-adv-x="972" d="M-113 1327q0 59 150 84q193 23 575 78q12 2 21 4l35 8q56 11 106 11t94 -11q96 -25 101 -78q17 -207 17 -378q0 -149 -13 -271q-25 -266 -129 -428q-139 -219 -340 -256q-66 -12 -131 -12q-227 0 -277 145q-27 80 -27 185q0 46 5 96q12 147 49 270q12 43 59 64 q57 26 136 26h6q84 0 141 -26q60 -27 60 -55q0 -5 -1 -9q-53 -178 -55 -362q43 76 66 149q47 162 47 539q0 113 -7 198q-143 -18 -432 -59q-26 -4 -53 -4q-50 0 -102 14q-70 18 -92 51q-8 14 -9 27z" />
<glyph unicode="k" horiz-adv-x="1187" d="M-16 1414q0 57 75 89q57 25 125 25q70 0 125 -25q74 -31 76 -92q6 -176 43 -463q57 53 133 135q109 123 330 363q59 63 186 63q121 0 180 -43q29 -20 29 -45q0 -12 -8 -20q-150 -164 -297 -328q-178 -195 -315 -309q100 -31 178 -88q119 -84 196 -238q41 -80 121 -293 q70 -190 129 -290q8 -12 8 -25q0 -61 -147 -80q-26 -3 -51 -3q-54 1 -104 13q-72 18 -93 50q-49 84 -158 378q-92 248 -188 353l-10 10q-45 43 -76 57q25 -225 25 -393q0 -59 -76 -92q-57 -25 -125 -25t-125 25q-76 33 -76 92q0 209 -51 598q-59 461 -59 601z" />
<glyph unicode="l" horiz-adv-x="999" d="M66 840q4 289 49 596q16 106 200 106q84 0 142 -31q60 -32 60 -67q0 -4 -1 -8q-43 -295 -49 -568q-1 -34 -1 -67q0 -213 23 -375q90 43 179 98q49 31 141 31q84 0 142.5 -30.5t58.5 -75.5q0 -37 -60 -74q-127 -82 -245 -131q-193 -82 -324 -94q-28 -2 -54 -2 q-57 0 -100 12q-82 25 -92 63q-70 233 -70 557q0 29 1 60z" />
<glyph unicode="m" horiz-adv-x="1710" d="M180 1241q127 186 322 203q67 6 125 6q83 0 149 -12q51 -10 89 -32t73 -81q57 -96 88 -252q131 73 319 73q65 0 138 -9q90 -10 139 -35q57 -31 80 -105q18 -57 18 -133q0 -70 -18 -186q-41 -229 -133 -339t-309 -167q-78 -20 -170 -20q-50 0 -105 6q-35 4 -92 24 q-8 4 -8 11q0 12 28 18q78 20 134 45l2 2q100 49 149 123q80 115 111 354q10 81 10 142t-10 102q-61 -55 -125 -109q-72 -59 -137 -88q-31 -12 -121 -16q-26 -2 -53 -2t-54 2q-78 4 -119 16q-20 4 -28 21q-18 109 -39 219q-23 131 -53 215q-113 -172 -113 -438 q0 -371 162 -625q1 -2 1 -3q0 -11 -56 -23q-62 -12 -146 -13q-82 0 -141 10q-25 6 -33 9q-18 6 -27 20q-161 252 -161 620q0 279 114 447z" />
<glyph unicode="n" horiz-adv-x="1622" d="M78 729q18 279 80 545l8 31q8 43 92 69q47 16 99 16q27 0 55 -4q137 -23 147 -112q37 -326 236 -604q109 -150 213 -185l12 -4q6 -2 16 -2h17l12 2q27 8 52.5 27.5t47.5 48.5q74 113 74 270q0 203 -102 371q-8 12 -9 27q0 35 29 61q59 59 176 60q137 0 191 -86 q66 -109 98 -269q17 -87 17 -167q0 -51 -7 -99q-27 -168 -119 -285q-100 -125 -315 -178q-76 -16 -156 -16q-180 0 -337 82q-125 68 -234 198q-4 -141 -4 -370q0 -61 -76 -93q-55 -24 -120 -24h-5q-68 0 -125 24q-75 31 -75 91q0 393 12 575z" />
<glyph unicode="o" horiz-adv-x="1275" d="M66 557q0 178 114 342q139 199 367 315q-39 18 -39 46q0 31 59 53q61 22 126 22h16q213 -8 350 -80q111 -59 172 -178q55 -111 55 -243q0 -186 -96 -346t-260 -240q-106 -51 -256 -68q-59 -7 -114 -7q-104 0 -194 25q-136 38 -210 113q-90 92 -90 246zM465 557 q0 -164 104 -225l6 -2q23 4 50 16l4 2q35 14 76 53q20 16 45 45q137 168 137 388q0 153 -70 251l-4 5q-66 -41 -115 -84l-14 -13q-219 -201 -219 -436z" />
<glyph unicode="p" horiz-adv-x="1589" d="M66 737q0 205 52 367t146 258q111 117 287 149q129 25 278 25q115 0 246 -14q242 -27 371 -97q152 -83 152 -194q0 -9 -1 -19q-8 -72 -69.5 -155.5t-145.5 -161.5q-301 -276 -802 -477q-31 -12 -80 -19q29 -145 82 -266q1 -2 1 -4q0 -18 -75 -31q-68 -12 -125 -12 q-84 0 -143 14q-23 4 -33 9q-18 8 -25 24q-116 254 -116 598v6zM467 682q2 -55 8 -111q137 70 264 154q311 203 422 385q37 61 37 119q0 41 -18 76q-31 45 -82 73l-8 6l-7 2q-25 14 -61 27q-14 4 -25 6q-29 8 -57 15l-6 2q-53 8 -111 8l-22 -6l-8 -2q-129 -47 -213 -191 q-114 -199 -114 -511q0 -26 1 -52z" />
<glyph unicode="q" horiz-adv-x="1343" d="M66 899q0 115 94 249t268 226q162 84 387 84q236 0 361 -82q59 -39 106 -129q29 -53 41 -196q17 -161 17 -324q0 -32 -1 -65h18q51 0 107 -9q101 -14 101 -43q0 -16 -29 -24q-14 -6 -123 -8q-76 -2 -78 -43q-10 -209 -57 -291q-16 -31 -82 -51q-45 -14 -141 -15 q-82 0 -141.5 14.5t-59.5 34.5q0 14 25 25q4 6 10 12q31 68 43 256l-12 2q-276 16 -549 107q-109 37 -181 80q-92 53 -114 125q-10 31 -10 65zM467 897q0 -47 16 -84q47 -74 232 -133l20 -6q59 -20 144 -37h4q16 -4 55 -10v143q-2 156 -16 291q-6 70 -13 96q-8 53 -28 90 q-29 53 -76 90l-12 -4q-8 -4 -21.5 -11t-23.5 -13q-156 -96 -232 -238q-49 -90 -49 -174z" />
<glyph unicode="r" horiz-adv-x="1415" d="M135 1341q125 242 447 242q225 0 417 -115q244 -147 347 -323q69 -121 69 -241v-3q0 -106 -61 -213q-55 -98 -147.5 -164.5t-207.5 -111.5q135 -76 271 -150q154 -88 260 -164q30 -20 30 -47q0 -15 -10 -33q-20 -41 -92 -61q-49 -14 -100 -14q-98 0 -174 51q-4 4 -33 24 q-102 66 -268 156q-233 129 -273 150q31 -106 47 -191q1 -4 1 -8q0 -34 -60 -66q-55 -30 -136 -30h-5q-180 0 -201 104q-10 59 -117 432q-73 260 -73 438q0 202 69 338zM467 1001q0 -182 86 -479q35 14 127 33q82 18 131 45q84 43 133 102q42 51 62 123q9 41 9 78 q0 42 -11 80q-31 117 -142 225q-102 102 -221 152q-14 6 -29 10l-14 4h-2h-2q-10 -8 -20.5 -17t-20.5 -20q-86 -119 -86 -336z" />
<glyph unicode="s" horiz-adv-x="1269" d="M66 612q0 23 28 41q59 41 182 41q127 0 185 -59q41 -43 86 -123q39 -66 76 -133l2 2q45 41 112 119q80 96 113 149q-342 45 -506 117q-133 57 -192 131q-47 59 -48 135q0 53 25 115q115 276 485 276q215 0 373 -96q209 -128 209 -309q0 -30 -58 -52q-62 -24 -143 -24 q-84 0 -140 22.5t-60 57.5q-14 102 -97 184l-2 2l-2 2q-31 27 -59 43l-4 2l-6 2q-10 -8 -21 -14l-4 -4v-2q-63 -66 -86 -137q-10 -32 -10 -64q0 -25 6 -49q14 -35 41 -61l2 -2q47 -41 131 -70l21 -6q88 -25 213 -43q109 -14 217 -29q145 -20 145 -76q0 -10 -6 -20 q-39 -96 -176 -250q-164 -186 -303 -248q-88 -41 -197 -41q-88 0 -174 28t-158 124q-25 33 -90 153q-55 98 -102 148q-8 8 -8 18z" />
<glyph unicode="t" horiz-adv-x="1193" d="M-16 1069q0 33 59 64q104 53 244 100q22 150 22 208l-16 119q0 11 94 21q72 6 105 6q84 0 143 -8q27 -2 57 -20q15 -40 15 -110q0 -40 -5 -89l9 4q31 8 63 18l17 7l14 4q127 45 239 106q49 25 142 25q84 0 142 -25.5t58 -62.5q0 -31 -57 -64q-178 -94 -541 -198l-116 -35 q-68 -395 -68 -539q0 -285 129 -436q62 97 62 275v32l-41 368q0 29 188 29h12q84 0 144 -10q27 -2 57 -20q41 -303 41 -385q0 -254 -117 -353q-45 -39 -102 -51q-91 -22 -208 -22q-36 0 -75 2q-213 10 -303 80q-143 109 -176 342q-10 74 -10 157q0 143 39 373q-28 -4 -54 -4 q-78 0 -147 31q-59 25 -59 61z" />
<glyph unicode="u" horiz-adv-x="1441" d="M66 913q0 88 12 174q12 96 201 97q82 0 143 -30q57 -28 57 -62l-14 -185q0 -158 39 -297q31 -113 90 -164q121 35 209 99q76 55 115 100l10 12q82 98 110 202q14 52 13 103q0 50 -13 97q-33 121 -168 215q-27 18 -26 49q0 53 98 82q51 14 102 14q102 0 173 -49 q235 -161 235 -405q0 -168 -111 -322q-131 -184 -346 -285q-242 -112 -425 -112h-3q-262 0 -387 180q-53 76 -86 217q-28 127 -28 261v9z" />
<glyph unicode="v" horiz-adv-x="1363" d="M-16 1376q0 53 98 80q53 14 111 14q106 0 163 -47q266 -219 408 -602q113 168 154 238q86 145 114 256q23 92 199 92q84 0 143 -27q59 -26 59 -56q0 -4 -1 -9q-51 -199 -252 -502q-141 -213 -183 -293q-90 -174 -96 -327q-2 -92 -201 -93q-190 0 -198 93 q-57 516 -246 841q-72 127 -145 203l-7 6q-43 45 -94 88q-27 20 -26 45z" />
<glyph unicode="w" horiz-adv-x="1681" d="M66 590q-1 22 -1 44q0 141 33 300q37 170 86 264q12 23 92 37q47 9 97 9q29 0 59 -3q143 -12 143 -59q0 -2 -14 -37q-59 -143 -86 -354q-11 -90 -11 -164q0 -97 19 -166q86 106 129 231v14q0 86 23 154q10 35 86 53q49 10 115 11q82 0 141 -19q53 -16 57 -45q4 -22 4 -46 q0 -59 -24 -130q2 -55 12 -111l4 5q143 143 213 305q49 115 49 221q0 164 -104 248q-8 8 -22.5 16t-26.5 12l-11 4q-27 10 -65 15l-6 2q-59 6 -176 16q-150 18 -150 60q0 37 100 55q52 9 101 9q28 0 55 -3q63 -6 191 -18q162 -20 245 -50q139 -47 203 -139q66 -98 66 -229 q0 -80 -27 -162q-63 -193 -215 -365q-143 -160 -332 -264q-56 -31 -157 -31q-32 0 -68 3q-90 8 -133 36q-123 -86 -309 -86q-211 0 -295 84t-90 273z" />
<glyph unicode="x" horiz-adv-x="1257" d="M66 176q176 319 374 608q-274 378 -274 630q0 22 56 40q60 18 143 19q84 0 141 -17.5t59 -44.5q18 -172 94 -326q164 217 340 410q12 12 93 23q43 4 90 4q31 0 63 -2q145 -6 146 -35q-1 -6 -7 -10q-295 -326 -540 -684q117 -143 334 -441q12 -4 20 -6q59 -18 59 -43 q0 -37 -20 -80q-10 -23 -92 -37q-49 -8 -101 -8q-80 0 -141 19q-33 8 -53 26q-68 117 -193 281q-98 -158 -190 -326q-10 -16 -59 -24q-57 -12 -142 -13q-82 0 -141 13q-60 11 -60 22q0 1 1 2z" />
<glyph unicode="y" horiz-adv-x="1468" d="M66 1280q0 37 58 61.5t142 24.5q82 0 141.5 -24.5t59.5 -61.5q0 -496 88 -690q29 -63 63 -103l9 -8h2q45 29 90 72q10 10 20 22q158 178 269 488q33 133 69 256q12 41 60 61q57 25 141 25q82 0 144 -25q58 -24 58 -55q0 -3 -1 -6q-27 -147 -80 -295q-68 -287 -125 -670 q-16 -104 -92 -676q-10 -86 -201 -86q-82 0 -143.5 27t-57.5 59l90 666q-125 -51 -268 -51q-217 0 -328 108q-104 98 -153 283q-55 207 -55 598z" />
<glyph unicode="z" horiz-adv-x="1427" d="M66 948q0 45 59 78q152 100 465 287q324 178 627 190h10q50 0 102 -18q72 -27 84 -74q11 -40 11 -82q0 -49 -15 -100q-18 -72 -70 -148q-96 -147 -264 -307q-178 -170 -301 -256l-26 -18q-68 -47 -109 -90q98 4 311 39q96 16 312 57q188 35 254 35q149 0 190 -80 q8 -16 8 -33q0 -41 -55 -74q-47 -27 -94 -30q-39 -4 -187 -31q-246 -45 -301 -55q-172 -29 -305 -41q-107 -9 -186 -9q-89 0 -144 11q-119 23 -182 73q-45 37 -45 97q0 90 113 186q59 41 172 129l45 37q258 217 377 373q45 59 75 125q-121 -55 -299 -168 q-238 -150 -290 -181q-57 -34 -137 -34h-5q-80 0 -140 33.5t-60 78.5z" />
<glyph unicode="{" horiz-adv-x="999" d="M66 774q0 27 59 49l94 39q16 6 45 19l21 8q84 41 123 78q-49 29 -142 94q-86 74 -78 188q8 98 123 195q102 88 219 133q61 23 140 22q78 0 145 -22q59 -20 59 -49q0 -27 -59 -51l-10 -4q-61 -29 -115 -72l-2 -2l-4 -2q-61 -57 -86 -111q-18 -57 0 -119q23 -47 74 -82 q43 -25 125 -77q29 -20 28 -37q0 -10 -8 -19q-41 -45 -100 -84q49 -20 45 -45q-10 -76 -64 -184q-78 -160 -84 -178q-33 -80 -32 -146q0 -39 14 -75.5t36.5 -51t37.5 -22.5l12 -2q45 14 127 14q84 0 142.5 -20t58.5 -49q0 -25 -60 -50q-76 -33 -188 -39q-152 -8 -264.5 15.5 t-186 66.5t-101.5 95.5t-28 115.5q0 70 41 172q33 74 101 220q-106 -12 -199 20q-59 20 -59 49z" />
<glyph unicode="|" horiz-adv-x="481" d="M63 762q4 463 27 803q2 20 59.5 33.5t141.5 13.5q82 0 141.5 -14.5t59.5 -32.5q-25 -340 -27 -803q2 258 2 -801q0 -20 -59.5 -33.5t-141.5 -13.5q-84 0 -142 13.5t-58 33.5q0 1059 -3 801z" />
<glyph unicode="}" horiz-adv-x="1054" d="M66 1518q0 23 59 39t141 16q209 -2 387 -66q197 -70 197 -184q0 -39 -31 -89t-84 -110q-55 -51 -149 -161l6 -2l10 -5l10 -2q113 -6 156 -39q8 -6 8 -14q0 -18 -59 -37l-4 -2l-11 -4q-43 -16 -73 -33q-4 -4 -11 -8q-18 -14 -28 -31q-8 -20 0 -43q20 -33 74 -67l4 -2 l14 -8q61 -37 180 -86q129 -55 182 -82q33 -18 19 -43q-80 -129 -279 -252q-147 -88 -333 -156q-121 -43 -273 -18q-100 16 -100 45q0 18 26 28q188 68 334 156l6 4l21 14q127 84 197 185q-100 43 -201 88q-121 53 -193 104q-84 59 -84 111q0 70 111 125q-49 14 -87 32.5 t-24 43.5q18 39 121 143q55 57 70 74q39 43 61.5 87t3.5 91q-20 33 -53 55q-6 6 -16.5 11.5t-18.5 7.5q-25 12 -35 16q-35 10 -57 14h-8q-76 2 -127 17q-59 16 -59 37z" />
<glyph unicode="~" horiz-adv-x="1525" d="M160 834q59 127 121 174q100 76 288 82q158 2 279 -56q51 -25 221 -147l12 -10q20 37 78 153q8 23 92 35q72 12 154 6q78 -6 121 -27q32 -16 18 -45q-27 -63 -94 -184q-49 -76 -139 -108q-70 -25 -187 -23q-119 0 -194.5 26.5t-167.5 88.5q-78 57 -154 112 q-31 -41 -63 -108q-8 -20 -92 -35q-72 -12 -154 -6q-78 6 -116 24.5t-23 47.5z" />
<glyph unicode="&#xa1;" horiz-adv-x="520" d="M66 567q0 84 10 160q2 23 59.5 38t138.5 15q84 0 144.5 -16t56.5 -37q-8 -76 -8 -160q0 -129 29 -360q33 -250 34 -359q2 -23 -57 -38t-141 -15q-84 0 -154 19q-47 12 -47 34q-4 109 -37 359q-29 231 -28 360zM76 1004q0 55 76 81q55 18 122 19q70 0 125 -19 q76 -27 76 -81q0 -53 -76 -80q-55 -18 -125 -19q-68 0 -122 19q-76 27 -76 80z" />
<glyph unicode="&#xa2;" horiz-adv-x="2398" d="M166 389q0 23 27 35q143 74 245 158q10 6 17 14q213 186 323 467q43 111 78 264q8 35 76 55q53 14 125 15q78 0 141 -21q31 -10 51 -30q127 -201 174 -551q129 217 197 434q23 70 201 69q84 0 139 -19t61 -50q45 -258 97 -393q43 -113 108 -177q12 -12 35 -24 q92 18 252 90l18 8q23 10 78 37q76 35 172 35q51 0 103 -10q100 -21 100 -60q0 -23 -27 -35q-436 -211 -714 -211q-270 0 -404 134q-35 35 -61 82q-133 -209 -308 -383q-66 -66 -245 -50q-55 6 -86 15q-55 18 -62 53q-16 141 -51 424q-176 -252 -487 -410q-72 -37 -168 -37 q-53 0 -107 13q-98 20 -98 59z" />
<glyph unicode="&#xa3;" d="M492 1638l3272 -100l-174 -1296l-2885 -242zM842 776q12 -102 61 -176q57 -88 150 -100q31 -4 59 -4q123 0 196.5 85.5t67.5 196.5q-2 84 -49 193q-10 25 -86 196q-12 31 -90 31q-76 0 -92 -31v-2q-27 -63 -96 -78h-2q-16 -4 -29 -6l-27 -4l10 2q-63 -10 -63 -26 q0 -18 45 -27q39 -8 70 -4q88 12 143 31q20 -45 33 -74q51 -129 51 -213q0 -113 -84 -193q-70 74 -88 203q-4 31 -90 31q-94 0 -90 -31zM1374 909q0 -145 51 -221q57 -82 177 -82q96 0 195 51.5t157 128.5q43 61 49 125q16 -4 41 -4q23 0 57 6q2 -74 -14 -206 q-16 -141 -16 -205q0 -53 90 -53q92 0 92 53q0 63 15.5 193t15.5 196q0 82 -11 106q-18 49 -84 50q-43 0 -116 -25l-2 -2q-29 -2 -80 -16q-25 63 -95 112q-33 23 -77 23q-92 0 -93 -43q0 -14 13 -23q61 -43 76 -98q27 -92 -50 -182l-4 -5q-53 -63 -147 -90q-37 33 -51 129 q-6 39 -7 80q0 37 7 82q2 20 -37 33q-29 10 -56 10q-68 0 -86 -31q-10 -18 -10 -92zM1901 1196q0 -63 100 -98q39 -14 96 -13q90 2 168 41q27 15 27 29q0 43 -92 43q-29 0 -56 -12q-33 -14 -45 -17l-4 -2l-2 2l-2 5l-2 2q-4 4 -6 10q-2 10 0 18q2 4 6 9.5t10 11.5l2 2 q12 4 29 6h31q92 -2 92 41q0 37 -92 39q-131 6 -215 -45q-45 -29 -45 -72zM2284 877q-2 -39 12 -95q37 -150 211 -153q160 -2 325 141l7 6q20 16 10 39q-18 37 -88 37q-47 0 -78 -25l-31 -24q-104 -70 -139 -70h-2l-2 2q-4 4 -12 10q-31 47 -31 117q0 139 86 205l18 -12 q27 -25 88 -76q84 -70 146 -70q51 0 78 25q63 66 94 172q14 51 -66 63q-29 4 -61 -4q-43 -8 -49 -32q-12 -39 -25 -68q-121 106 -217 106t-172 -59q-92 -72 -102 -235zM2916 840q0 -49 6 -95q18 -104 76 -151q43 -37 150 -35q55 0 88 8q80 18 155 101q4 2 5 4q0 14 -66 18 q-96 4 -113 -14q-31 -33 -61 -55q-39 45 -51 133q78 2 129 8q217 27 217 170q0 119 -98 190q-35 27 -86 37q-74 12 -166 0q-133 -20 -172 -207q-12 -55 -13 -112zM3099 840q0 188 86 268q84 -67 84 -176q0 -84 -70 -121q-4 -2 -6 -2q-16 -8 -31 -12h-2q-25 -6 -49 -6h-10 q-2 25 -2 49z" />
<glyph unicode="&#xa5;" d="M492 1638l3272 -100l-174 -1296l-2885 -242zM842 776q12 -102 61 -176q57 -88 150 -100q31 -4 59 -4q123 0 196.5 85.5t67.5 196.5q-2 84 -49 193q-10 25 -86 196q-12 31 -90 31q-76 0 -92 -31v-2q-27 -63 -96 -78h-2q-16 -4 -29 -6l-27 -4l10 2q-63 -10 -63 -26 q0 -18 45 -27q39 -8 70 -4q88 12 143 31q20 -45 33 -74q51 -129 51 -213q0 -113 -84 -193q-70 74 -88 203q-4 31 -90 31q-94 0 -90 -31zM1374 909q0 -145 51 -221q57 -82 177 -82q96 0 195 51.5t157 128.5q43 61 49 125q16 -4 41 -4q23 0 57 6q2 -74 -14 -206 q-16 -141 -16 -205q0 -53 90 -53q92 0 92 53q0 63 15.5 193t15.5 196q0 82 -11 106q-18 49 -84 50q-43 0 -116 -25l-2 -2q-29 -2 -80 -16q-25 63 -95 112q-33 23 -77 23q-92 0 -93 -43q0 -14 13 -23q61 -43 76 -98q27 -92 -50 -182l-4 -5q-53 -63 -147 -90q-37 33 -51 129 q-6 39 -7 80q0 37 7 82q2 20 -37 33q-29 10 -56 10q-68 0 -86 -31q-10 -18 -10 -92zM1901 1196q0 -63 100 -98q39 -14 96 -13q90 2 168 41q27 15 27 29q0 43 -92 43q-29 0 -56 -12q-33 -14 -45 -17l-4 -2l-2 2l-2 5l-2 2q-4 4 -6 10q-2 10 0 18q2 4 6 9.5t10 11.5l2 2 q12 4 29 6h31q92 -2 92 41q0 37 -92 39q-131 6 -215 -45q-45 -29 -45 -72zM2284 877q-2 -39 12 -95q37 -150 211 -153q160 -2 325 141l7 6q20 16 10 39q-18 37 -88 37q-47 0 -78 -25l-31 -24q-104 -70 -139 -70h-2l-2 2q-4 4 -12 10q-31 47 -31 117q0 139 86 205l18 -12 q27 -25 88 -76q84 -70 146 -70q51 0 78 25q63 66 94 172q14 51 -66 63q-29 4 -61 -4q-43 -8 -49 -32q-12 -39 -25 -68q-121 106 -217 106t-172 -59q-92 -72 -102 -235zM2916 840q0 -49 6 -95q18 -104 76 -151q43 -37 150 -35q55 0 88 8q80 18 155 101q4 2 5 4q0 14 -66 18 q-96 4 -113 -14q-31 -33 -61 -55q-39 45 -51 133q78 2 129 8q217 27 217 170q0 119 -98 190q-35 27 -86 37q-74 12 -166 0q-133 -20 -172 -207q-12 -55 -13 -112zM3099 840q0 188 86 268q84 -67 84 -176q0 -84 -70 -121q-4 -2 -6 -2q-16 -8 -31 -12h-2q-25 -6 -49 -6h-10 q-2 25 -2 49z" />
<glyph unicode="&#xa7;" d="M492 1638l3272 -100l-174 -1296l-2885 -242zM842 776q12 -102 61 -176q57 -88 150 -100q31 -4 59 -4q123 0 196.5 85.5t67.5 196.5q-2 84 -49 193q-10 25 -86 196q-12 31 -90 31q-76 0 -92 -31v-2q-27 -63 -96 -78h-2q-16 -4 -29 -6l-27 -4l10 2q-63 -10 -63 -26 q0 -18 45 -27q39 -8 70 -4q88 12 143 31q20 -45 33 -74q51 -129 51 -213q0 -113 -84 -193q-70 74 -88 203q-4 31 -90 31q-94 0 -90 -31zM1374 909q0 -145 51 -221q57 -82 177 -82q96 0 195 51.5t157 128.5q43 61 49 125q16 -4 41 -4q23 0 57 6q2 -74 -14 -206 q-16 -141 -16 -205q0 -53 90 -53q92 0 92 53q0 63 15.5 193t15.5 196q0 82 -11 106q-18 49 -84 50q-43 0 -116 -25l-2 -2q-29 -2 -80 -16q-25 63 -95 112q-33 23 -77 23q-92 0 -93 -43q0 -14 13 -23q61 -43 76 -98q27 -92 -50 -182l-4 -5q-53 -63 -147 -90q-37 33 -51 129 q-6 39 -7 80q0 37 7 82q2 20 -37 33q-29 10 -56 10q-68 0 -86 -31q-10 -18 -10 -92zM1901 1196q0 -63 100 -98q39 -14 96 -13q90 2 168 41q27 15 27 29q0 43 -92 43q-29 0 -56 -12q-33 -14 -45 -17l-4 -2l-2 2l-2 5l-2 2q-4 4 -6 10q-2 10 0 18q2 4 6 9.5t10 11.5l2 2 q12 4 29 6h31q92 -2 92 41q0 37 -92 39q-131 6 -215 -45q-45 -29 -45 -72zM2284 877q-2 -39 12 -95q37 -150 211 -153q160 -2 325 141l7 6q20 16 10 39q-18 37 -88 37q-47 0 -78 -25l-31 -24q-104 -70 -139 -70h-2l-2 2q-4 4 -12 10q-31 47 -31 117q0 139 86 205l18 -12 q27 -25 88 -76q84 -70 146 -70q51 0 78 25q63 66 94 172q14 51 -66 63q-29 4 -61 -4q-43 -8 -49 -32q-12 -39 -25 -68q-121 106 -217 106t-172 -59q-92 -72 -102 -235zM2916 840q0 -49 6 -95q18 -104 76 -151q43 -37 150 -35q55 0 88 8q80 18 155 101q4 2 5 4q0 14 -66 18 q-96 4 -113 -14q-31 -33 -61 -55q-39 45 -51 133q78 2 129 8q217 27 217 170q0 119 -98 190q-35 27 -86 37q-74 12 -166 0q-133 -20 -172 -207q-12 -55 -13 -112zM3099 840q0 188 86 268q84 -67 84 -176q0 -84 -70 -121q-4 -2 -6 -2q-16 -8 -31 -12h-2q-25 -6 -49 -6h-10 q-2 25 -2 49z" />
<glyph unicode="&#xa8;" horiz-adv-x="1034" d="M96 1417q-12 29 4.5 52.5t32.5 43.5q8 12 12 25q37 70 154 70q94 0 141 -47q35 -37 15 -74q-27 -53 -66 -92q-47 -47 -133 -47q-45 0 -86 12q-55 20 -74 57zM569 1452l6 21q6 10 24.5 29.5t25.5 31.5q27 29 94 45t153 8q78 -8 119 -35q25 -12 29 -39l-8 -20 q-18 -18 -49 -61q-27 -29 -94.5 -45.5t-151.5 -8.5q-80 8 -121 35q-23 12 -27 39z" />
<glyph unicode="&#xa9;" horiz-adv-x="1538" d="M92 702q0 201 162 396q78 92 180 141q152 70 383 94q53 33 129 33q55 0 109 -16q156 -47 266 -140q129 -106 164 -245q16 -72 16 -140q0 -84 -26 -168q-47 -154 -171 -271.5t-280 -162.5q-121 -37 -248 -37q-115 0 -237 31q-272 68 -387 262q-59 100 -60 223zM500 631 q16 -53 47 -101q20 -27 49 -51q23 -16 48.5 -27.5t82.5 -27.5q8 -2 43 -4h18l13 2q6 0 20.5 3t42.5 15l6 2q51 27 93 68q102 98 131 229q18 80 2 170q-16 61 -52 115q-43 55 -102 88l-22 -2q-137 -12 -207 -41h-2q-49 -25 -82 -59q-90 -92 -127 -226q-14 -78 -2 -153z M623 774q27 82 120 123q78 37 175 33q98 -2 98 -41q0 -41 -98 -43h-7q-6 -2 -12 -2q-16 -8 -12 -4q-53 -31 -70 -84q-12 -41 14 -74l3 -2q8 -6 16 -8h2q90 -6 90 -43q0 -23 -41 -35q-29 -8 -59 -6q-147 8 -201 69q-41 47 -18 117zM725 424zM760 1085zM870 442z" />
<glyph unicode="&#xaa;" d="M492 1638l3272 -100l-174 -1296l-2885 -242zM842 776q12 -102 61 -176q57 -88 150 -100q31 -4 59 -4q123 0 196.5 85.5t67.5 196.5q-2 84 -49 193q-10 25 -86 196q-12 31 -90 31q-76 0 -92 -31v-2q-27 -63 -96 -78h-2q-16 -4 -29 -6l-27 -4l10 2q-63 -10 -63 -26 q0 -18 45 -27q39 -8 70 -4q88 12 143 31q20 -45 33 -74q51 -129 51 -213q0 -113 -84 -193q-70 74 -88 203q-4 31 -90 31q-94 0 -90 -31zM1374 909q0 -145 51 -221q57 -82 177 -82q96 0 195 51.5t157 128.5q43 61 49 125q16 -4 41 -4q23 0 57 6q2 -74 -14 -206 q-16 -141 -16 -205q0 -53 90 -53q92 0 92 53q0 63 15.5 193t15.5 196q0 82 -11 106q-18 49 -84 50q-43 0 -116 -25l-2 -2q-29 -2 -80 -16q-25 63 -95 112q-33 23 -77 23q-92 0 -93 -43q0 -14 13 -23q61 -43 76 -98q27 -92 -50 -182l-4 -5q-53 -63 -147 -90q-37 33 -51 129 q-6 39 -7 80q0 37 7 82q2 20 -37 33q-29 10 -56 10q-68 0 -86 -31q-10 -18 -10 -92zM1901 1196q0 -63 100 -98q39 -14 96 -13q90 2 168 41q27 15 27 29q0 43 -92 43q-29 0 -56 -12q-33 -14 -45 -17l-4 -2l-2 2l-2 5l-2 2q-4 4 -6 10q-2 10 0 18q2 4 6 9.5t10 11.5l2 2 q12 4 29 6h31q92 -2 92 41q0 37 -92 39q-131 6 -215 -45q-45 -29 -45 -72zM2284 877q-2 -39 12 -95q37 -150 211 -153q160 -2 325 141l7 6q20 16 10 39q-18 37 -88 37q-47 0 -78 -25l-31 -24q-104 -70 -139 -70h-2l-2 2q-4 4 -12 10q-31 47 -31 117q0 139 86 205l18 -12 q27 -25 88 -76q84 -70 146 -70q51 0 78 25q63 66 94 172q14 51 -66 63q-29 4 -61 -4q-43 -8 -49 -32q-12 -39 -25 -68q-121 106 -217 106t-172 -59q-92 -72 -102 -235zM2916 840q0 -49 6 -95q18 -104 76 -151q43 -37 150 -35q55 0 88 8q80 18 155 101q4 2 5 4q0 14 -66 18 q-96 4 -113 -14q-31 -33 -61 -55q-39 45 -51 133q78 2 129 8q217 27 217 170q0 119 -98 190q-35 27 -86 37q-74 12 -166 0q-133 -20 -172 -207q-12 -55 -13 -112zM3099 840q0 188 86 268q84 -67 84 -176q0 -84 -70 -121q-4 -2 -6 -2q-16 -8 -31 -12h-2q-25 -6 -49 -6h-10 q-2 25 -2 49z" />
<glyph unicode="&#xab;" d="M492 1638l3272 -100l-174 -1296l-2885 -242zM842 776q12 -102 61 -176q57 -88 150 -100q31 -4 59 -4q123 0 196.5 85.5t67.5 196.5q-2 84 -49 193q-10 25 -86 196q-12 31 -90 31q-76 0 -92 -31v-2q-27 -63 -96 -78h-2q-16 -4 -29 -6l-27 -4l10 2q-63 -10 -63 -26 q0 -18 45 -27q39 -8 70 -4q88 12 143 31q20 -45 33 -74q51 -129 51 -213q0 -113 -84 -193q-70 74 -88 203q-4 31 -90 31q-94 0 -90 -31zM1374 909q0 -145 51 -221q57 -82 177 -82q96 0 195 51.5t157 128.5q43 61 49 125q16 -4 41 -4q23 0 57 6q2 -74 -14 -206 q-16 -141 -16 -205q0 -53 90 -53q92 0 92 53q0 63 15.5 193t15.5 196q0 82 -11 106q-18 49 -84 50q-43 0 -116 -25l-2 -2q-29 -2 -80 -16q-25 63 -95 112q-33 23 -77 23q-92 0 -93 -43q0 -14 13 -23q61 -43 76 -98q27 -92 -50 -182l-4 -5q-53 -63 -147 -90q-37 33 -51 129 q-6 39 -7 80q0 37 7 82q2 20 -37 33q-29 10 -56 10q-68 0 -86 -31q-10 -18 -10 -92zM1901 1196q0 -63 100 -98q39 -14 96 -13q90 2 168 41q27 15 27 29q0 43 -92 43q-29 0 -56 -12q-33 -14 -45 -17l-4 -2l-2 2l-2 5l-2 2q-4 4 -6 10q-2 10 0 18q2 4 6 9.5t10 11.5l2 2 q12 4 29 6h31q92 -2 92 41q0 37 -92 39q-131 6 -215 -45q-45 -29 -45 -72zM2284 877q-2 -39 12 -95q37 -150 211 -153q160 -2 325 141l7 6q20 16 10 39q-18 37 -88 37q-47 0 -78 -25l-31 -24q-104 -70 -139 -70h-2l-2 2q-4 4 -12 10q-31 47 -31 117q0 139 86 205l18 -12 q27 -25 88 -76q84 -70 146 -70q51 0 78 25q63 66 94 172q14 51 -66 63q-29 4 -61 -4q-43 -8 -49 -32q-12 -39 -25 -68q-121 106 -217 106t-172 -59q-92 -72 -102 -235zM2916 840q0 -49 6 -95q18 -104 76 -151q43 -37 150 -35q55 0 88 8q80 18 155 101q4 2 5 4q0 14 -66 18 q-96 4 -113 -14q-31 -33 -61 -55q-39 45 -51 133q78 2 129 8q217 27 217 170q0 119 -98 190q-35 27 -86 37q-74 12 -166 0q-133 -20 -172 -207q-12 -55 -13 -112zM3099 840q0 188 86 268q84 -67 84 -176q0 -84 -70 -121q-4 -2 -6 -2q-16 -8 -31 -12h-2q-25 -6 -49 -6h-10 q-2 25 -2 49z" />
<glyph unicode="&#xac;" d="M492 1638l3272 -100l-174 -1296l-2885 -242zM842 776q12 -102 61 -176q57 -88 150 -100q31 -4 59 -4q123 0 196.5 85.5t67.5 196.5q-2 84 -49 193q-10 25 -86 196q-12 31 -90 31q-76 0 -92 -31v-2q-27 -63 -96 -78h-2q-16 -4 -29 -6l-27 -4l10 2q-63 -10 -63 -26 q0 -18 45 -27q39 -8 70 -4q88 12 143 31q20 -45 33 -74q51 -129 51 -213q0 -113 -84 -193q-70 74 -88 203q-4 31 -90 31q-94 0 -90 -31zM1374 909q0 -145 51 -221q57 -82 177 -82q96 0 195 51.5t157 128.5q43 61 49 125q16 -4 41 -4q23 0 57 6q2 -74 -14 -206 q-16 -141 -16 -205q0 -53 90 -53q92 0 92 53q0 63 15.5 193t15.5 196q0 82 -11 106q-18 49 -84 50q-43 0 -116 -25l-2 -2q-29 -2 -80 -16q-25 63 -95 112q-33 23 -77 23q-92 0 -93 -43q0 -14 13 -23q61 -43 76 -98q27 -92 -50 -182l-4 -5q-53 -63 -147 -90q-37 33 -51 129 q-6 39 -7 80q0 37 7 82q2 20 -37 33q-29 10 -56 10q-68 0 -86 -31q-10 -18 -10 -92zM1901 1196q0 -63 100 -98q39 -14 96 -13q90 2 168 41q27 15 27 29q0 43 -92 43q-29 0 -56 -12q-33 -14 -45 -17l-4 -2l-2 2l-2 5l-2 2q-4 4 -6 10q-2 10 0 18q2 4 6 9.5t10 11.5l2 2 q12 4 29 6h31q92 -2 92 41q0 37 -92 39q-131 6 -215 -45q-45 -29 -45 -72zM2284 877q-2 -39 12 -95q37 -150 211 -153q160 -2 325 141l7 6q20 16 10 39q-18 37 -88 37q-47 0 -78 -25l-31 -24q-104 -70 -139 -70h-2l-2 2q-4 4 -12 10q-31 47 -31 117q0 139 86 205l18 -12 q27 -25 88 -76q84 -70 146 -70q51 0 78 25q63 66 94 172q14 51 -66 63q-29 4 -61 -4q-43 -8 -49 -32q-12 -39 -25 -68q-121 106 -217 106t-172 -59q-92 -72 -102 -235zM2916 840q0 -49 6 -95q18 -104 76 -151q43 -37 150 -35q55 0 88 8q80 18 155 101q4 2 5 4q0 14 -66 18 q-96 4 -113 -14q-31 -33 -61 -55q-39 45 -51 133q78 2 129 8q217 27 217 170q0 119 -98 190q-35 27 -86 37q-74 12 -166 0q-133 -20 -172 -207q-12 -55 -13 -112zM3099 840q0 188 86 268q84 -67 84 -176q0 -84 -70 -121q-4 -2 -6 -2q-16 -8 -31 -12h-2q-25 -6 -49 -6h-10 q-2 25 -2 49z" />
<glyph unicode="&#xad;" horiz-adv-x="1003" d="M66 502q0 47 20 92q27 57 72 57q233 0 508 27q20 2 122 18q78 10 123 11q45 0 72 -54q21 -41 21 -92q0 -133 -86 -151q-266 -55 -760 -56q-45 0 -72 56q-20 45 -20 92z" />
<glyph unicode="&#xae;" horiz-adv-x="1665" d="M78 801q0 98 37 186q84 197 299 322q180 106 424 145q59 10 114 10q123 0 174 -39h25q96 0 143 -16q127 -45 197 -156q164 -252 164 -438q-1 -68 -21 -129q-61 -186 -254 -289q-207 -106 -522 -112q-289 -4 -489 88q-180 82 -252 239q-39 86 -39 189zM477 799 q0 -176 117 -287q33 -33 53 -45l4 -2l11 -6q41 -27 77 -39q25 -8 45 -12q31 -8 52 -9q29 -2 65 7l10 2q18 4 41 12q68 23 121 59h2q99 70 142 164q37 80 36 172q0 98 -41 205q-43 -31 -122 -76q-45 -25 -93 -47q-53 -31 -77 -61q-10 -12 -11 -25q0 -37 78 -78t180 -76 q29 -8 29 -20t-29 -21q-76 -20 -141 0q-129 43 -201 82q8 -82 37 -153q14 -29 -98 -29q-88 0 -100 29q-41 96 -41 207q0 152 73 262q94 137 293 137q90 0 176 -29q-78 143 -137 191q-4 4 -12 10q-23 10 -21 10q-14 4 -22 8q-35 -10 -66 -20q-16 -6 -37 -14q-78 -33 -139 -74 l-4 -2l-4 -4q-145 -104 -201 -228q-45 -94 -45 -200zM860 942l37 21q43 23 84 45q51 28 74 59q-25 12 -36 15t-22 8h-2l-2 -3q-82 -27 -133 -145z" />
<glyph unicode="&#xaf;" d="M492 1638l3272 -100l-174 -1296l-2885 -242zM842 776q12 -102 61 -176q57 -88 150 -100q31 -4 59 -4q123 0 196.5 85.5t67.5 196.5q-2 84 -49 193q-10 25 -86 196q-12 31 -90 31q-76 0 -92 -31v-2q-27 -63 -96 -78h-2q-16 -4 -29 -6l-27 -4l10 2q-63 -10 -63 -26 q0 -18 45 -27q39 -8 70 -4q88 12 143 31q20 -45 33 -74q51 -129 51 -213q0 -113 -84 -193q-70 74 -88 203q-4 31 -90 31q-94 0 -90 -31zM1374 909q0 -145 51 -221q57 -82 177 -82q96 0 195 51.5t157 128.5q43 61 49 125q16 -4 41 -4q23 0 57 6q2 -74 -14 -206 q-16 -141 -16 -205q0 -53 90 -53q92 0 92 53q0 63 15.5 193t15.5 196q0 82 -11 106q-18 49 -84 50q-43 0 -116 -25l-2 -2q-29 -2 -80 -16q-25 63 -95 112q-33 23 -77 23q-92 0 -93 -43q0 -14 13 -23q61 -43 76 -98q27 -92 -50 -182l-4 -5q-53 -63 -147 -90q-37 33 -51 129 q-6 39 -7 80q0 37 7 82q2 20 -37 33q-29 10 -56 10q-68 0 -86 -31q-10 -18 -10 -92zM1901 1196q0 -63 100 -98q39 -14 96 -13q90 2 168 41q27 15 27 29q0 43 -92 43q-29 0 -56 -12q-33 -14 -45 -17l-4 -2l-2 2l-2 5l-2 2q-4 4 -6 10q-2 10 0 18q2 4 6 9.5t10 11.5l2 2 q12 4 29 6h31q92 -2 92 41q0 37 -92 39q-131 6 -215 -45q-45 -29 -45 -72zM2284 877q-2 -39 12 -95q37 -150 211 -153q160 -2 325 141l7 6q20 16 10 39q-18 37 -88 37q-47 0 -78 -25l-31 -24q-104 -70 -139 -70h-2l-2 2q-4 4 -12 10q-31 47 -31 117q0 139 86 205l18 -12 q27 -25 88 -76q84 -70 146 -70q51 0 78 25q63 66 94 172q14 51 -66 63q-29 4 -61 -4q-43 -8 -49 -32q-12 -39 -25 -68q-121 106 -217 106t-172 -59q-92 -72 -102 -235zM2916 840q0 -49 6 -95q18 -104 76 -151q43 -37 150 -35q55 0 88 8q80 18 155 101q4 2 5 4q0 14 -66 18 q-96 4 -113 -14q-31 -33 -61 -55q-39 45 -51 133q78 2 129 8q217 27 217 170q0 119 -98 190q-35 27 -86 37q-74 12 -166 0q-133 -20 -172 -207q-12 -55 -13 -112zM3099 840q0 188 86 268q84 -67 84 -176q0 -84 -70 -121q-4 -2 -6 -2q-16 -8 -31 -12h-2q-25 -6 -49 -6h-10 q-2 25 -2 49z" />
<glyph unicode="&#xb0;" horiz-adv-x="4089" d="M492 1638l3272 -100l-174 -1296l-2885 -242zM842 776q12 -102 61 -176q57 -88 150 -100q31 -4 59 -4q123 0 196.5 85.5t67.5 196.5q-2 84 -49 193q-10 25 -86 196q-12 31 -90 31q-76 0 -92 -31v-2q-27 -63 -96 -78h-2q-16 -4 -29 -6l-27 -4l10 2q-63 -10 -63 -26 q0 -18 45 -27q39 -8 70 -4q88 12 143 31q20 -45 33 -74q51 -129 51 -213q0 -113 -84 -193q-70 74 -88 203q-4 31 -90 31q-94 0 -90 -31zM1374 909q0 -145 51 -221q57 -82 177 -82q96 0 195 51.5t157 128.5q43 61 49 125q16 -4 41 -4q23 0 57 6q2 -74 -14 -206 q-16 -141 -16 -205q0 -53 90 -53q92 0 92 53q0 63 15.5 193t15.5 196q0 82 -11 106q-18 49 -84 50q-43 0 -116 -25l-2 -2q-29 -2 -80 -16q-25 63 -95 112q-33 23 -77 23q-92 0 -93 -43q0 -14 13 -23q61 -43 76 -98q27 -92 -50 -182l-4 -5q-53 -63 -147 -90q-37 33 -51 129 q-6 39 -7 80q0 37 7 82q2 20 -37 33q-29 10 -56 10q-68 0 -86 -31q-10 -18 -10 -92zM1901 1196q0 -63 100 -98q39 -14 96 -13q90 2 168 41q27 15 27 29q0 43 -92 43q-29 0 -56 -12q-33 -14 -45 -17l-4 -2l-2 2l-2 5l-2 2q-4 4 -6 10q-2 10 0 18q2 4 6 9.5t10 11.5l2 2 q12 4 29 6h31q92 -2 92 41q0 37 -92 39q-131 6 -215 -45q-45 -29 -45 -72zM2284 877q-2 -39 12 -95q37 -150 211 -153q160 -2 325 141l7 6q20 16 10 39q-18 37 -88 37q-47 0 -78 -25l-31 -24q-104 -70 -139 -70h-2l-2 2q-4 4 -12 10q-31 47 -31 117q0 139 86 205l18 -12 q27 -25 88 -76q84 -70 146 -70q51 0 78 25q63 66 94 172q14 51 -66 63q-29 4 -61 -4q-43 -8 -49 -32q-12 -39 -25 -68q-121 106 -217 106t-172 -59q-92 -72 -102 -235zM2916 840q0 -49 6 -95q18 -104 76 -151q43 -37 150 -35q55 0 88 8q80 18 155 101q4 2 5 4q0 14 -66 18 q-96 4 -113 -14q-31 -33 -61 -55q-39 45 -51 133q78 2 129 8q217 27 217 170q0 119 -98 190q-35 27 -86 37q-74 12 -166 0q-133 -20 -172 -207q-12 -55 -13 -112zM3099 840q0 188 86 268q84 -67 84 -176q0 -84 -70 -121q-4 -2 -6 -2q-16 -8 -31 -12h-2q-25 -6 -49 -6h-10 q-2 25 -2 49z" />
<glyph unicode="&#xb1;" d="M492 1638l3272 -100l-174 -1296l-2885 -242zM842 776q12 -102 61 -176q57 -88 150 -100q31 -4 59 -4q123 0 196.5 85.5t67.5 196.5q-2 84 -49 193q-10 25 -86 196q-12 31 -90 31q-76 0 -92 -31v-2q-27 -63 -96 -78h-2q-16 -4 -29 -6l-27 -4l10 2q-63 -10 -63 -26 q0 -18 45 -27q39 -8 70 -4q88 12 143 31q20 -45 33 -74q51 -129 51 -213q0 -113 -84 -193q-70 74 -88 203q-4 31 -90 31q-94 0 -90 -31zM1374 909q0 -145 51 -221q57 -82 177 -82q96 0 195 51.5t157 128.5q43 61 49 125q16 -4 41 -4q23 0 57 6q2 -74 -14 -206 q-16 -141 -16 -205q0 -53 90 -53q92 0 92 53q0 63 15.5 193t15.5 196q0 82 -11 106q-18 49 -84 50q-43 0 -116 -25l-2 -2q-29 -2 -80 -16q-25 63 -95 112q-33 23 -77 23q-92 0 -93 -43q0 -14 13 -23q61 -43 76 -98q27 -92 -50 -182l-4 -5q-53 -63 -147 -90q-37 33 -51 129 q-6 39 -7 80q0 37 7 82q2 20 -37 33q-29 10 -56 10q-68 0 -86 -31q-10 -18 -10 -92zM1901 1196q0 -63 100 -98q39 -14 96 -13q90 2 168 41q27 15 27 29q0 43 -92 43q-29 0 -56 -12q-33 -14 -45 -17l-4 -2l-2 2l-2 5l-2 2q-4 4 -6 10q-2 10 0 18q2 4 6 9.5t10 11.5l2 2 q12 4 29 6h31q92 -2 92 41q0 37 -92 39q-131 6 -215 -45q-45 -29 -45 -72zM2284 877q-2 -39 12 -95q37 -150 211 -153q160 -2 325 141l7 6q20 16 10 39q-18 37 -88 37q-47 0 -78 -25l-31 -24q-104 -70 -139 -70h-2l-2 2q-4 4 -12 10q-31 47 -31 117q0 139 86 205l18 -12 q27 -25 88 -76q84 -70 146 -70q51 0 78 25q63 66 94 172q14 51 -66 63q-29 4 -61 -4q-43 -8 -49 -32q-12 -39 -25 -68q-121 106 -217 106t-172 -59q-92 -72 -102 -235zM2916 840q0 -49 6 -95q18 -104 76 -151q43 -37 150 -35q55 0 88 8q80 18 155 101q4 2 5 4q0 14 -66 18 q-96 4 -113 -14q-31 -33 -61 -55q-39 45 -51 133q78 2 129 8q217 27 217 170q0 119 -98 190q-35 27 -86 37q-74 12 -166 0q-133 -20 -172 -207q-12 -55 -13 -112zM3099 840q0 188 86 268q84 -67 84 -176q0 -84 -70 -121q-4 -2 -6 -2q-16 -8 -31 -12h-2q-25 -6 -49 -6h-10 q-2 25 -2 49z" />
<glyph unicode="&#xb4;" horiz-adv-x="845" d="M186 1341q0 10 7 19q51 68 114 123q74 66 119 116q25 27 96 37q66 10 123.5 -7t73.5 -48q14 -27 -17 -61q-70 -63 -200 -201q-45 -61 -150 -62q-96 0 -143 41q-23 20 -23 43z" />
<glyph unicode="&#xb5;" d="M492 1638l3272 -100l-174 -1296l-2885 -242zM842 776q12 -102 61 -176q57 -88 150 -100q31 -4 59 -4q123 0 196.5 85.5t67.5 196.5q-2 84 -49 193q-10 25 -86 196q-12 31 -90 31q-76 0 -92 -31v-2q-27 -63 -96 -78h-2q-16 -4 -29 -6l-27 -4l10 2q-63 -10 -63 -26 q0 -18 45 -27q39 -8 70 -4q88 12 143 31q20 -45 33 -74q51 -129 51 -213q0 -113 -84 -193q-70 74 -88 203q-4 31 -90 31q-94 0 -90 -31zM1374 909q0 -145 51 -221q57 -82 177 -82q96 0 195 51.5t157 128.5q43 61 49 125q16 -4 41 -4q23 0 57 6q2 -74 -14 -206 q-16 -141 -16 -205q0 -53 90 -53q92 0 92 53q0 63 15.5 193t15.5 196q0 82 -11 106q-18 49 -84 50q-43 0 -116 -25l-2 -2q-29 -2 -80 -16q-25 63 -95 112q-33 23 -77 23q-92 0 -93 -43q0 -14 13 -23q61 -43 76 -98q27 -92 -50 -182l-4 -5q-53 -63 -147 -90q-37 33 -51 129 q-6 39 -7 80q0 37 7 82q2 20 -37 33q-29 10 -56 10q-68 0 -86 -31q-10 -18 -10 -92zM1901 1196q0 -63 100 -98q39 -14 96 -13q90 2 168 41q27 15 27 29q0 43 -92 43q-29 0 -56 -12q-33 -14 -45 -17l-4 -2l-2 2l-2 5l-2 2q-4 4 -6 10q-2 10 0 18q2 4 6 9.5t10 11.5l2 2 q12 4 29 6h31q92 -2 92 41q0 37 -92 39q-131 6 -215 -45q-45 -29 -45 -72zM2284 877q-2 -39 12 -95q37 -150 211 -153q160 -2 325 141l7 6q20 16 10 39q-18 37 -88 37q-47 0 -78 -25l-31 -24q-104 -70 -139 -70h-2l-2 2q-4 4 -12 10q-31 47 -31 117q0 139 86 205l18 -12 q27 -25 88 -76q84 -70 146 -70q51 0 78 25q63 66 94 172q14 51 -66 63q-29 4 -61 -4q-43 -8 -49 -32q-12 -39 -25 -68q-121 106 -217 106t-172 -59q-92 -72 -102 -235zM2916 840q0 -49 6 -95q18 -104 76 -151q43 -37 150 -35q55 0 88 8q80 18 155 101q4 2 5 4q0 14 -66 18 q-96 4 -113 -14q-31 -33 -61 -55q-39 45 -51 133q78 2 129 8q217 27 217 170q0 119 -98 190q-35 27 -86 37q-74 12 -166 0q-133 -20 -172 -207q-12 -55 -13 -112zM3099 840q0 188 86 268q84 -67 84 -176q0 -84 -70 -121q-4 -2 -6 -2q-16 -8 -31 -12h-2q-25 -6 -49 -6h-10 q-2 25 -2 49z" />
<glyph unicode="&#xb6;" d="M492 1638l3272 -100l-174 -1296l-2885 -242zM842 776q12 -102 61 -176q57 -88 150 -100q31 -4 59 -4q123 0 196.5 85.5t67.5 196.5q-2 84 -49 193q-10 25 -86 196q-12 31 -90 31q-76 0 -92 -31v-2q-27 -63 -96 -78h-2q-16 -4 -29 -6l-27 -4l10 2q-63 -10 -63 -26 q0 -18 45 -27q39 -8 70 -4q88 12 143 31q20 -45 33 -74q51 -129 51 -213q0 -113 -84 -193q-70 74 -88 203q-4 31 -90 31q-94 0 -90 -31zM1374 909q0 -145 51 -221q57 -82 177 -82q96 0 195 51.5t157 128.5q43 61 49 125q16 -4 41 -4q23 0 57 6q2 -74 -14 -206 q-16 -141 -16 -205q0 -53 90 -53q92 0 92 53q0 63 15.5 193t15.5 196q0 82 -11 106q-18 49 -84 50q-43 0 -116 -25l-2 -2q-29 -2 -80 -16q-25 63 -95 112q-33 23 -77 23q-92 0 -93 -43q0 -14 13 -23q61 -43 76 -98q27 -92 -50 -182l-4 -5q-53 -63 -147 -90q-37 33 -51 129 q-6 39 -7 80q0 37 7 82q2 20 -37 33q-29 10 -56 10q-68 0 -86 -31q-10 -18 -10 -92zM1901 1196q0 -63 100 -98q39 -14 96 -13q90 2 168 41q27 15 27 29q0 43 -92 43q-29 0 -56 -12q-33 -14 -45 -17l-4 -2l-2 2l-2 5l-2 2q-4 4 -6 10q-2 10 0 18q2 4 6 9.5t10 11.5l2 2 q12 4 29 6h31q92 -2 92 41q0 37 -92 39q-131 6 -215 -45q-45 -29 -45 -72zM2284 877q-2 -39 12 -95q37 -150 211 -153q160 -2 325 141l7 6q20 16 10 39q-18 37 -88 37q-47 0 -78 -25l-31 -24q-104 -70 -139 -70h-2l-2 2q-4 4 -12 10q-31 47 -31 117q0 139 86 205l18 -12 q27 -25 88 -76q84 -70 146 -70q51 0 78 25q63 66 94 172q14 51 -66 63q-29 4 -61 -4q-43 -8 -49 -32q-12 -39 -25 -68q-121 106 -217 106t-172 -59q-92 -72 -102 -235zM2916 840q0 -49 6 -95q18 -104 76 -151q43 -37 150 -35q55 0 88 8q80 18 155 101q4 2 5 4q0 14 -66 18 q-96 4 -113 -14q-31 -33 -61 -55q-39 45 -51 133q78 2 129 8q217 27 217 170q0 119 -98 190q-35 27 -86 37q-74 12 -166 0q-133 -20 -172 -207q-12 -55 -13 -112zM3099 840q0 188 86 268q84 -67 84 -176q0 -84 -70 -121q-4 -2 -6 -2q-16 -8 -31 -12h-2q-25 -6 -49 -6h-10 q-2 25 -2 49z" />
<glyph unicode="&#xb7;" d="M492 1638l3272 -100l-174 -1296l-2885 -242zM842 776q12 -102 61 -176q57 -88 150 -100q31 -4 59 -4q123 0 196.5 85.5t67.5 196.5q-2 84 -49 193q-10 25 -86 196q-12 31 -90 31q-76 0 -92 -31v-2q-27 -63 -96 -78h-2q-16 -4 -29 -6l-27 -4l10 2q-63 -10 -63 -26 q0 -18 45 -27q39 -8 70 -4q88 12 143 31q20 -45 33 -74q51 -129 51 -213q0 -113 -84 -193q-70 74 -88 203q-4 31 -90 31q-94 0 -90 -31zM1374 909q0 -145 51 -221q57 -82 177 -82q96 0 195 51.5t157 128.5q43 61 49 125q16 -4 41 -4q23 0 57 6q2 -74 -14 -206 q-16 -141 -16 -205q0 -53 90 -53q92 0 92 53q0 63 15.5 193t15.5 196q0 82 -11 106q-18 49 -84 50q-43 0 -116 -25l-2 -2q-29 -2 -80 -16q-25 63 -95 112q-33 23 -77 23q-92 0 -93 -43q0 -14 13 -23q61 -43 76 -98q27 -92 -50 -182l-4 -5q-53 -63 -147 -90q-37 33 -51 129 q-6 39 -7 80q0 37 7 82q2 20 -37 33q-29 10 -56 10q-68 0 -86 -31q-10 -18 -10 -92zM1901 1196q0 -63 100 -98q39 -14 96 -13q90 2 168 41q27 15 27 29q0 43 -92 43q-29 0 -56 -12q-33 -14 -45 -17l-4 -2l-2 2l-2 5l-2 2q-4 4 -6 10q-2 10 0 18q2 4 6 9.5t10 11.5l2 2 q12 4 29 6h31q92 -2 92 41q0 37 -92 39q-131 6 -215 -45q-45 -29 -45 -72zM2284 877q-2 -39 12 -95q37 -150 211 -153q160 -2 325 141l7 6q20 16 10 39q-18 37 -88 37q-47 0 -78 -25l-31 -24q-104 -70 -139 -70h-2l-2 2q-4 4 -12 10q-31 47 -31 117q0 139 86 205l18 -12 q27 -25 88 -76q84 -70 146 -70q51 0 78 25q63 66 94 172q14 51 -66 63q-29 4 -61 -4q-43 -8 -49 -32q-12 -39 -25 -68q-121 106 -217 106t-172 -59q-92 -72 -102 -235zM2916 840q0 -49 6 -95q18 -104 76 -151q43 -37 150 -35q55 0 88 8q80 18 155 101q4 2 5 4q0 14 -66 18 q-96 4 -113 -14q-31 -33 -61 -55q-39 45 -51 133q78 2 129 8q217 27 217 170q0 119 -98 190q-35 27 -86 37q-74 12 -166 0q-133 -20 -172 -207q-12 -55 -13 -112zM3099 840q0 188 86 268q84 -67 84 -176q0 -84 -70 -121q-4 -2 -6 -2q-16 -8 -31 -12h-2q-25 -6 -49 -6h-10 q-2 25 -2 49z" />
<glyph unicode="&#xb8;" d="M492 1638l3272 -100l-174 -1296l-2885 -242zM842 776q12 -102 61 -176q57 -88 150 -100q31 -4 59 -4q123 0 196.5 85.5t67.5 196.5q-2 84 -49 193q-10 25 -86 196q-12 31 -90 31q-76 0 -92 -31v-2q-27 -63 -96 -78h-2q-16 -4 -29 -6l-27 -4l10 2q-63 -10 -63 -26 q0 -18 45 -27q39 -8 70 -4q88 12 143 31q20 -45 33 -74q51 -129 51 -213q0 -113 -84 -193q-70 74 -88 203q-4 31 -90 31q-94 0 -90 -31zM1374 909q0 -145 51 -221q57 -82 177 -82q96 0 195 51.5t157 128.5q43 61 49 125q16 -4 41 -4q23 0 57 6q2 -74 -14 -206 q-16 -141 -16 -205q0 -53 90 -53q92 0 92 53q0 63 15.5 193t15.5 196q0 82 -11 106q-18 49 -84 50q-43 0 -116 -25l-2 -2q-29 -2 -80 -16q-25 63 -95 112q-33 23 -77 23q-92 0 -93 -43q0 -14 13 -23q61 -43 76 -98q27 -92 -50 -182l-4 -5q-53 -63 -147 -90q-37 33 -51 129 q-6 39 -7 80q0 37 7 82q2 20 -37 33q-29 10 -56 10q-68 0 -86 -31q-10 -18 -10 -92zM1901 1196q0 -63 100 -98q39 -14 96 -13q90 2 168 41q27 15 27 29q0 43 -92 43q-29 0 -56 -12q-33 -14 -45 -17l-4 -2l-2 2l-2 5l-2 2q-4 4 -6 10q-2 10 0 18q2 4 6 9.5t10 11.5l2 2 q12 4 29 6h31q92 -2 92 41q0 37 -92 39q-131 6 -215 -45q-45 -29 -45 -72zM2284 877q-2 -39 12 -95q37 -150 211 -153q160 -2 325 141l7 6q20 16 10 39q-18 37 -88 37q-47 0 -78 -25l-31 -24q-104 -70 -139 -70h-2l-2 2q-4 4 -12 10q-31 47 -31 117q0 139 86 205l18 -12 q27 -25 88 -76q84 -70 146 -70q51 0 78 25q63 66 94 172q14 51 -66 63q-29 4 -61 -4q-43 -8 -49 -32q-12 -39 -25 -68q-121 106 -217 106t-172 -59q-92 -72 -102 -235zM2916 840q0 -49 6 -95q18 -104 76 -151q43 -37 150 -35q55 0 88 8q80 18 155 101q4 2 5 4q0 14 -66 18 q-96 4 -113 -14q-31 -33 -61 -55q-39 45 -51 133q78 2 129 8q217 27 217 170q0 119 -98 190q-35 27 -86 37q-74 12 -166 0q-133 -20 -172 -207q-12 -55 -13 -112zM3099 840q0 188 86 268q84 -67 84 -176q0 -84 -70 -121q-4 -2 -6 -2q-16 -8 -31 -12h-2q-25 -6 -49 -6h-10 q-2 25 -2 49z" />
<glyph unicode="&#xba;" d="M492 1638l3272 -100l-174 -1296l-2885 -242zM842 776q12 -102 61 -176q57 -88 150 -100q31 -4 59 -4q123 0 196.5 85.5t67.5 196.5q-2 84 -49 193q-10 25 -86 196q-12 31 -90 31q-76 0 -92 -31v-2q-27 -63 -96 -78h-2q-16 -4 -29 -6l-27 -4l10 2q-63 -10 -63 -26 q0 -18 45 -27q39 -8 70 -4q88 12 143 31q20 -45 33 -74q51 -129 51 -213q0 -113 -84 -193q-70 74 -88 203q-4 31 -90 31q-94 0 -90 -31zM1374 909q0 -145 51 -221q57 -82 177 -82q96 0 195 51.5t157 128.5q43 61 49 125q16 -4 41 -4q23 0 57 6q2 -74 -14 -206 q-16 -141 -16 -205q0 -53 90 -53q92 0 92 53q0 63 15.5 193t15.5 196q0 82 -11 106q-18 49 -84 50q-43 0 -116 -25l-2 -2q-29 -2 -80 -16q-25 63 -95 112q-33 23 -77 23q-92 0 -93 -43q0 -14 13 -23q61 -43 76 -98q27 -92 -50 -182l-4 -5q-53 -63 -147 -90q-37 33 -51 129 q-6 39 -7 80q0 37 7 82q2 20 -37 33q-29 10 -56 10q-68 0 -86 -31q-10 -18 -10 -92zM1901 1196q0 -63 100 -98q39 -14 96 -13q90 2 168 41q27 15 27 29q0 43 -92 43q-29 0 -56 -12q-33 -14 -45 -17l-4 -2l-2 2l-2 5l-2 2q-4 4 -6 10q-2 10 0 18q2 4 6 9.5t10 11.5l2 2 q12 4 29 6h31q92 -2 92 41q0 37 -92 39q-131 6 -215 -45q-45 -29 -45 -72zM2284 877q-2 -39 12 -95q37 -150 211 -153q160 -2 325 141l7 6q20 16 10 39q-18 37 -88 37q-47 0 -78 -25l-31 -24q-104 -70 -139 -70h-2l-2 2q-4 4 -12 10q-31 47 -31 117q0 139 86 205l18 -12 q27 -25 88 -76q84 -70 146 -70q51 0 78 25q63 66 94 172q14 51 -66 63q-29 4 -61 -4q-43 -8 -49 -32q-12 -39 -25 -68q-121 106 -217 106t-172 -59q-92 -72 -102 -235zM2916 840q0 -49 6 -95q18 -104 76 -151q43 -37 150 -35q55 0 88 8q80 18 155 101q4 2 5 4q0 14 -66 18 q-96 4 -113 -14q-31 -33 -61 -55q-39 45 -51 133q78 2 129 8q217 27 217 170q0 119 -98 190q-35 27 -86 37q-74 12 -166 0q-133 -20 -172 -207q-12 -55 -13 -112zM3099 840q0 188 86 268q84 -67 84 -176q0 -84 -70 -121q-4 -2 -6 -2q-16 -8 -31 -12h-2q-25 -6 -49 -6h-10 q-2 25 -2 49z" />
<glyph unicode="&#xbb;" d="M492 1638l3272 -100l-174 -1296l-2885 -242zM842 776q12 -102 61 -176q57 -88 150 -100q31 -4 59 -4q123 0 196.5 85.5t67.5 196.5q-2 84 -49 193q-10 25 -86 196q-12 31 -90 31q-76 0 -92 -31v-2q-27 -63 -96 -78h-2q-16 -4 -29 -6l-27 -4l10 2q-63 -10 -63 -26 q0 -18 45 -27q39 -8 70 -4q88 12 143 31q20 -45 33 -74q51 -129 51 -213q0 -113 -84 -193q-70 74 -88 203q-4 31 -90 31q-94 0 -90 -31zM1374 909q0 -145 51 -221q57 -82 177 -82q96 0 195 51.5t157 128.5q43 61 49 125q16 -4 41 -4q23 0 57 6q2 -74 -14 -206 q-16 -141 -16 -205q0 -53 90 -53q92 0 92 53q0 63 15.5 193t15.5 196q0 82 -11 106q-18 49 -84 50q-43 0 -116 -25l-2 -2q-29 -2 -80 -16q-25 63 -95 112q-33 23 -77 23q-92 0 -93 -43q0 -14 13 -23q61 -43 76 -98q27 -92 -50 -182l-4 -5q-53 -63 -147 -90q-37 33 -51 129 q-6 39 -7 80q0 37 7 82q2 20 -37 33q-29 10 -56 10q-68 0 -86 -31q-10 -18 -10 -92zM1901 1196q0 -63 100 -98q39 -14 96 -13q90 2 168 41q27 15 27 29q0 43 -92 43q-29 0 -56 -12q-33 -14 -45 -17l-4 -2l-2 2l-2 5l-2 2q-4 4 -6 10q-2 10 0 18q2 4 6 9.5t10 11.5l2 2 q12 4 29 6h31q92 -2 92 41q0 37 -92 39q-131 6 -215 -45q-45 -29 -45 -72zM2284 877q-2 -39 12 -95q37 -150 211 -153q160 -2 325 141l7 6q20 16 10 39q-18 37 -88 37q-47 0 -78 -25l-31 -24q-104 -70 -139 -70h-2l-2 2q-4 4 -12 10q-31 47 -31 117q0 139 86 205l18 -12 q27 -25 88 -76q84 -70 146 -70q51 0 78 25q63 66 94 172q14 51 -66 63q-29 4 -61 -4q-43 -8 -49 -32q-12 -39 -25 -68q-121 106 -217 106t-172 -59q-92 -72 -102 -235zM2916 840q0 -49 6 -95q18 -104 76 -151q43 -37 150 -35q55 0 88 8q80 18 155 101q4 2 5 4q0 14 -66 18 q-96 4 -113 -14q-31 -33 -61 -55q-39 45 -51 133q78 2 129 8q217 27 217 170q0 119 -98 190q-35 27 -86 37q-74 12 -166 0q-133 -20 -172 -207q-12 -55 -13 -112zM3099 840q0 188 86 268q84 -67 84 -176q0 -84 -70 -121q-4 -2 -6 -2q-16 -8 -31 -12h-2q-25 -6 -49 -6h-10 q-2 25 -2 49z" />
<glyph unicode="&#xbf;" horiz-adv-x="1138" d="M66 86q0 160 110 250q59 49 160 80q86 23 172 45q10 2 31 10l4 2q0 2 6 8t10 15q10 53 -37 141q-8 12 -8 22q0 59 148 74q82 10 155.5 -7t89.5 -48q55 -96 56 -158q0 -39 -19 -69q-41 -72 -213 -121q-43 -10 -125 -31q-20 -6 -31.5 -11t-19.5 -9h-2q-14 -8 -29 -21 q-27 -27 -43 -74t-16 -98q0 -135 84 -236q16 14 18 17q41 39 95 113q72 94 92 116q49 57 178 58q33 0 68.5 -3.5t82.5 -19.5q66 -25 66 -53q0 -12 -10 -25q-59 -78 -121 -157q-74 -92 -141 -138q-117 -82 -271 -94q-188 -16 -307 41q-109 53 -171 156.5t-62 224.5zM506 907 q0 7 6 13q37 37 55 65q29 18 95.5 27.5t152.5 3.5q78 -4 119 -21q20 -4 27 -22q-18 -35 -62 -78q-29 -18 -92 -27q-70 -10 -156 -6q-78 6 -119 23q-27 10 -26 22z" />
<glyph unicode="&#xc0;" horiz-adv-x="1617" d="M66 27q0 29 26 53q74 70 115 129q152 209 229 545q29 123 64 336q41 246 59 340q10 53 59 81q57 33 142 33q70 0 125 -24q70 -31 76 -90q47 -444 282 -822q182 98 318 205q66 53 170 53q53 0 104 -16q98 -29 98 -86q0 -33 -26 -53q-219 -172 -504 -316l110 -114 q61 -68 93 -129q10 -16 10 -33q0 -43 -55 -76q-45 -27 -95 -33q-27 -6 -57 -6q-145 0 -188 86q-29 55 -134 164q-221 -90 -509 -184q-23 -8 -50 -13q-43 -49 -90 -94q-61 -57 -168 -57q-55 0 -106 16q-98 33 -98 105zM273 2003q18 31 75.5 47t122.5 8q72 -10 96 -37 q43 -51 166 -162q109 -100 160 -168q6 -8 6 -18q0 -25 -22 -43q-47 -41 -142 -41q-106 0 -151 59.5t-144 147.5q-111 98 -151 143q-31 37 -16 64zM715 367l41 14q70 27 166 70q-61 88 -115 184q-39 -150 -92 -268z" />
<glyph unicode="&#xc1;" horiz-adv-x="1617" d="M66 27q0 29 26 53q74 70 115 129q152 209 229 545q29 123 64 336q41 246 59 340q10 53 59 81q57 33 142 33q70 0 125 -24q70 -31 76 -90q47 -444 282 -822q182 98 318 205q66 53 170 53q53 0 104 -16q98 -29 98 -86q0 -33 -26 -53q-219 -172 -504 -316l110 -114 q61 -68 93 -129q10 -16 10 -33q0 -43 -55 -76q-45 -27 -95 -33q-27 -6 -57 -6q-145 0 -188 86q-29 55 -134 164q-221 -90 -509 -184q-23 -8 -50 -13q-43 -49 -90 -94q-61 -57 -168 -57q-55 0 -106 16q-98 33 -98 105zM538 1701q0 10 7 19q51 68 114 123q74 66 119 116 q25 27 96 37q66 10 123.5 -7t73.5 -48q14 -27 -17 -61q-70 -63 -200 -201q-45 -61 -150 -62q-96 0 -143 41q-23 20 -23 43zM715 367l41 14q70 27 166 70q-61 88 -115 184q-39 -150 -92 -268z" />
<glyph unicode="&#xc2;" horiz-adv-x="1617" d="M66 27q0 29 26 53q74 70 115 129q152 209 229 545q29 123 64 336q41 246 59 340q10 53 59 81q57 33 142 33q70 0 125 -24q70 -31 76 -90q47 -444 282 -822q182 98 318 205q66 53 170 53q53 0 104 -16q98 -29 98 -86q0 -33 -26 -53q-219 -172 -504 -316l110 -114 q61 -68 93 -129q10 -16 10 -33q0 -43 -55 -76q-45 -27 -95 -33q-27 -6 -57 -6q-145 0 -188 86q-29 55 -134 164q-221 -90 -509 -184q-23 -8 -50 -13q-43 -49 -90 -94q-61 -57 -168 -57q-55 0 -106 16q-98 33 -98 105zM413 1671q-12 23 13 54l2 4q8 10 96 158q23 37 84 47 q76 10 116 -17.5t123 -78t120.5 -77t37.5 -49.5q0 -29 -35.5 -48t-84.5 -19q-57 0 -86 20q-39 27 -111 70q-29 -45 -55 -80q-18 -23 -72 -31q-49 -8 -92 6.5t-56 40.5zM715 367l41 14q70 27 166 70q-61 88 -115 184q-39 -150 -92 -268z" />
<glyph unicode="&#xc3;" horiz-adv-x="1617" d="M66 27q0 29 26 53q74 70 115 129q152 209 229 545q29 123 64 336q41 246 59 340q10 53 59 81q57 33 142 33q70 0 125 -24q70 -31 76 -90q47 -444 282 -822q182 98 318 205q66 53 170 53q53 0 104 -16q98 -29 98 -86q0 -33 -26 -53q-219 -172 -504 -316l110 -114 q61 -68 93 -129q10 -16 10 -33q0 -43 -55 -76q-45 -27 -95 -33q-27 -6 -57 -6q-145 0 -188 86q-29 55 -134 164q-221 -90 -509 -184q-23 -8 -50 -13q-43 -49 -90 -94q-61 -57 -168 -57q-55 0 -106 16q-98 33 -98 105zM473 1652q0 8 6 17q78 104 164 116q23 2 45 3 q135 0 252 -93l10 -10l6 8q16 18 64 82q10 14 59 17q45 2 93 -15q78 -23 77 -55q0 -8 -6 -16q-49 -66 -59 -78q-37 -43 -76 -62q-66 -31 -158 -10q-92 20 -155 74l-37 33q-27 -23 -55 -64q-12 -14 -62 -16q-43 -2 -90 12q-78 25 -78 57zM715 367l41 14q70 27 166 70 q-61 88 -115 184q-39 -150 -92 -268z" />
<glyph unicode="&#xc4;" horiz-adv-x="1617" d="M66 27q0 29 26 53q74 70 115 129q152 209 229 545q29 123 64 336q41 246 59 340q10 53 59 81q57 33 142 33q70 0 125 -24q70 -31 76 -90q47 -444 282 -822q182 98 318 205q66 53 170 53q53 0 104 -16q98 -29 98 -86q0 -33 -26 -53q-219 -172 -504 -316l110 -114 q61 -68 93 -129q10 -16 10 -33q0 -43 -55 -76q-45 -27 -95 -33q-27 -6 -57 -6q-145 0 -188 86q-29 55 -134 164q-221 -90 -509 -184q-23 -8 -50 -13q-43 -49 -90 -94q-61 -57 -168 -57q-55 0 -106 16q-98 33 -98 105zM342 1761q-12 29 4.5 52.5t32.5 43.5q8 12 12 25 q37 70 154 70q94 0 141 -47q35 -37 15 -74q-27 -53 -66 -92q-47 -47 -133 -47q-45 0 -86 12q-55 20 -74 57zM715 367l41 14q70 27 166 70q-61 88 -115 184q-39 -150 -92 -268zM815 1796l6 21q6 10 24.5 29.5t25.5 31.5q27 29 94 45t153 8q78 -8 119 -35q25 -12 29 -39 l-8 -20q-18 -18 -49 -61q-27 -29 -94.5 -45.5t-151.5 -8.5q-80 8 -121 35q-23 12 -27 39z" />
<glyph unicode="&#xc5;" horiz-adv-x="1617" d="M66 27q0 29 26 53q74 70 115 129q152 209 229 545q29 123 64 336q41 246 59 340q10 53 59 81q57 33 142 33q70 0 125 -24q70 -31 76 -90q47 -444 282 -822q182 98 318 205q66 53 170 53q53 0 104 -16q98 -29 98 -86q0 -33 -26 -53q-219 -172 -504 -316l110 -114 q61 -68 93 -129q10 -16 10 -33q0 -43 -55 -76q-45 -27 -95 -33q-27 -6 -57 -6q-145 0 -188 86q-29 55 -134 164q-221 -90 -509 -184q-23 -8 -50 -13q-43 -49 -90 -94q-61 -57 -168 -57q-55 0 -106 16q-98 33 -98 105zM452 1809q0 98 85 185t204 87q37 0 74 -8q41 12 78 12 q72 0 114.5 -49t42.5 -121q0 -78 -47 -145q-53 -74 -151 -109q-82 -29 -156 -28q-76 0 -145 28q-98 43 -99 148zM581 1811q0 -16 17 -23q41 -18 88 -18q49 0 106 20q93 33 107 111q4 23 -8.5 30t-32.5 3q-14 -4 -43 -11q-14 0 -33 2q-63 14 -53 15q-51 0 -109 -62 q-39 -45 -39 -67zM715 367l41 14q70 27 166 70q-61 88 -115 184q-39 -150 -92 -268z" />
<glyph unicode="&#xc6;" horiz-adv-x="2181" d="M55 180q0 115 70 148q352 166 580 424q242 274 290 465q16 74 35 147q33 104 88 104q104 0 99 -192q78 33 222 111.5t218 109.5l29 6q39 0 71 -69q29 -61 29 -103q0 -111 -246 -241q-160 -84 -369 -156q-4 -115 5 -193q129 45 284 133q12 8 271 160l26 10q43 0 78 -71 q29 -59 29 -103q0 -109 -224 -243q-154 -94 -358 -174q90 -96 215 -97q147 0 289 142q20 20 213 260q66 80 104 80q88 -51 88 -160q0 -184 -252.5 -410.5t-441.5 -226.5q-309 0 -446 336q-31 -8 -367 -101l-49 27q-109 -92 -234 -174q-170 -111 -245 -111q-45 0 -76 64 q-25 51 -25 98zM971 676l10 4l-2 10z" />
<glyph unicode="&#xc7;" horiz-adv-x="1546" d="M66 500q0 174 92 340q74 133 190 266q285 324 576 375q125 20 237 -8q23 33 82 53q74 25 156 12q143 -25 143 -117q0 -14 -4 -28q-35 -119 -78 -340q-12 -55 -59 -84q-59 -35 -141 -35q-72 0 -125 27q-70 31 -76 92q-14 117 -60 188l-2 -2l-6 -2q-51 -27 -100 -63l-8 -7 q-47 -35 -113 -100q-240 -240 -291 -457q-23 -90 -8 -174q10 -35 29 -63q10 -12 20 -21.5t19.5 -13.5t13.5 -5t49 -5q162 -4 354 88q137 66 218 129l6 4q139 111 182 227q16 45 90 70.5t156 11.5q55 -8 96 -35q51 -33 51 -78q0 -16 -6 -32q-55 -150 -223 -285 q-305 -244 -692 -315v-15q94 -31 94 -131q0 -102 -78 -180q-109 -109 -176 -109q-59 0 -170 93q-20 16 -21 43q0 37 36 71.5t75 34.5q18 0 35 -12q63 -55 86 -55q10 0 18 6q27 39 23 73q-35 4 -72 9q-37 12 -27 63q4 23 2 88q-12 -2 -24 -2q-164 -4 -297 43 q-162 59 -229 184q-43 78 -43 183z" />
<glyph unicode="&#xc8;" horiz-adv-x="1626" d="M66 1059q10 127 77 215q90 117 318 117q127 0 231 -43q25 63 47 112q12 25 92 41q74 14 156 6q145 -14 146 -65q0 6 -36 -93.5t-106 -295.5q-10 -25 -92 -41q-49 -10 -102 -11q-78 0 -142 21q-31 10 -51 31q-55 70 -102 116l-6 7q-29 -61 -29 -138q0 -45 17.5 -89 t45.5 -70q66 29 150 28q53 0 108 -10q98 -20 99 -59q0 -20 -43 -45q-35 -18 -74 -50q-8 -6 -18 -16q-252 -225 -252 -424q0 -41 12 -80q25 -53 57 -76l2 -2q53 16 101 37l30 15q178 88 310 198l16 13q68 57 96 88q55 55 74 106q39 94 39 191q0 63 -18 114q-6 16 -15 27 q-31 6 -55 14q-57 20 -57 49t57 50q47 14 141 18q166 8 252 -51q51 -37 72.5 -93t21.5 -122q0 -80 -28 -174q-33 -106 -150 -215q-317 -295 -684 -383q-117 -29 -229 -29q-164 0 -285 59q-80 37 -125 113t-35 160q18 156 156 321q41 49 82 88q-162 43 -223 140 q-55 84 -49 180zM273 2003q18 31 75.5 47t122.5 8q72 -10 96 -37q43 -51 166 -162q109 -100 160 -168q6 -8 6 -18q0 -25 -22 -43q-47 -41 -142 -41q-106 0 -151 59.5t-144 147.5q-111 98 -151 143q-31 37 -16 64z" />
<glyph unicode="&#xc9;" horiz-adv-x="1626" d="M66 1059q10 127 77 215q90 117 318 117q127 0 231 -43q25 63 47 112q12 25 92 41q74 14 156 6q145 -14 146 -65q0 6 -36 -93.5t-106 -295.5q-10 -25 -92 -41q-49 -10 -102 -11q-78 0 -142 21q-31 10 -51 31q-55 70 -102 116l-6 7q-29 -61 -29 -138q0 -45 17.5 -89 t45.5 -70q66 29 150 28q53 0 108 -10q98 -20 99 -59q0 -20 -43 -45q-35 -18 -74 -50q-8 -6 -18 -16q-252 -225 -252 -424q0 -41 12 -80q25 -53 57 -76l2 -2q53 16 101 37l30 15q178 88 310 198l16 13q68 57 96 88q55 55 74 106q39 94 39 191q0 63 -18 114q-6 16 -15 27 q-31 6 -55 14q-57 20 -57 49t57 50q47 14 141 18q166 8 252 -51q51 -37 72.5 -93t21.5 -122q0 -80 -28 -174q-33 -106 -150 -215q-317 -295 -684 -383q-117 -29 -229 -29q-164 0 -285 59q-80 37 -125 113t-35 160q18 156 156 321q41 49 82 88q-162 43 -223 140 q-55 84 -49 180zM538 1701q0 10 7 19q51 68 114 123q74 66 119 116q25 27 96 37q66 10 123.5 -7t73.5 -48q14 -27 -17 -61q-70 -63 -200 -201q-45 -61 -150 -62q-96 0 -143 41q-23 20 -23 43z" />
<glyph unicode="&#xca;" horiz-adv-x="1626" d="M66 1059q10 127 77 215q90 117 318 117q127 0 231 -43q25 63 47 112q12 25 92 41q74 14 156 6q145 -14 146 -65q0 6 -36 -93.5t-106 -295.5q-10 -25 -92 -41q-49 -10 -102 -11q-78 0 -142 21q-31 10 -51 31q-55 70 -102 116l-6 7q-29 -61 -29 -138q0 -45 17.5 -89 t45.5 -70q66 29 150 28q53 0 108 -10q98 -20 99 -59q0 -20 -43 -45q-35 -18 -74 -50q-8 -6 -18 -16q-252 -225 -252 -424q0 -41 12 -80q25 -53 57 -76l2 -2q53 16 101 37l30 15q178 88 310 198l16 13q68 57 96 88q55 55 74 106q39 94 39 191q0 63 -18 114q-6 16 -15 27 q-31 6 -55 14q-57 20 -57 49t57 50q47 14 141 18q166 8 252 -51q51 -37 72.5 -93t21.5 -122q0 -80 -28 -174q-33 -106 -150 -215q-317 -295 -684 -383q-117 -29 -229 -29q-164 0 -285 59q-80 37 -125 113t-35 160q18 156 156 321q41 49 82 88q-162 43 -223 140 q-55 84 -49 180zM311 1671q-12 23 13 54l2 4q8 10 96 158q23 37 84 47q76 10 116 -17.5t123 -78t120.5 -77t37.5 -49.5q0 -29 -35.5 -48t-84.5 -19q-57 0 -86 20q-39 27 -111 70q-29 -45 -55 -80q-18 -23 -72 -31q-49 -8 -92 6.5t-56 40.5z" />
<glyph unicode="&#xcb;" horiz-adv-x="1626" d="M66 1059q10 127 77 215q90 117 318 117q127 0 231 -43q25 63 47 112q12 25 92 41q74 14 156 6q145 -14 146 -65q0 6 -36 -93.5t-106 -295.5q-10 -25 -92 -41q-49 -10 -102 -11q-78 0 -142 21q-31 10 -51 31q-55 70 -102 116l-6 7q-29 -61 -29 -138q0 -45 17.5 -89 t45.5 -70q66 29 150 28q53 0 108 -10q98 -20 99 -59q0 -20 -43 -45q-35 -18 -74 -50q-8 -6 -18 -16q-252 -225 -252 -424q0 -41 12 -80q25 -53 57 -76l2 -2q53 16 101 37l30 15q178 88 310 198l16 13q68 57 96 88q55 55 74 106q39 94 39 191q0 63 -18 114q-6 16 -15 27 q-31 6 -55 14q-57 20 -57 49t57 50q47 14 141 18q166 8 252 -51q51 -37 72.5 -93t21.5 -122q0 -80 -28 -174q-33 -106 -150 -215q-317 -295 -684 -383q-117 -29 -229 -29q-164 0 -285 59q-80 37 -125 113t-35 160q18 156 156 321q41 49 82 88q-162 43 -223 140 q-55 84 -49 180zM342 1679q-12 29 4.5 52.5t32.5 43.5q8 12 12 25q37 70 154 70q94 0 141 -47q35 -37 15 -74q-27 -53 -66 -92q-47 -47 -133 -47q-45 0 -86 12q-55 20 -74 57zM815 1714l6 21q6 10 24.5 29.5t25.5 31.5q27 29 94 45t153 8q78 -8 119 -35q25 -12 29 -39 l-8 -20q-18 -18 -49 -61q-27 -29 -94.5 -45.5t-151.5 -8.5q-80 8 -121 35q-23 12 -27 39z" />
<glyph unicode="&#xcc;" horiz-adv-x="1345" d="M66 35q0 43 59 65q145 59 334 103q8 94 10 391q0 244 27 391q-90 -20 -164 -33q-76 -12 -151 9.5t-95 58.5q-10 16 -10 29q0 66 149 90q18 4 58 10l45 10q102 23 311 68q303 63 516 63q82 2 141.5 -26.5t59.5 -69.5q0 -39 -60 -68q-43 -20 -100 -26q-49 -2 -100 -4h-17 q-68 -6 -164 -23q0 -12 -6 -29v-4q-43 -150 -43 -378q0 -193 -2 -383l10 2q39 6 115 20l35 6l29 6q61 12 114 13q102 0 160 -47q27 -20 27 -46q0 -27 -32 -51t-64.5 -31.5t-411.5 -70.5q-248 -41 -402 -98q-16 -6 -36 -15q-70 -27 -148 -26q-76 0 -135 27.5t-59 66.5z M273 1819q18 31 75.5 47t122.5 8q72 -10 96 -37q43 -51 166 -162q109 -100 160 -168q6 -8 6 -18q0 -25 -22 -43q-47 -41 -142 -41q-106 0 -151 59.5t-144 147.5q-111 98 -151 143q-31 37 -16 64zM1071 1096z" />
<glyph unicode="&#xcd;" horiz-adv-x="1345" d="M66 35q0 43 59 65q145 59 334 103q8 94 10 391q0 244 27 391q-90 -20 -164 -33q-76 -12 -151 9.5t-95 58.5q-10 16 -10 29q0 66 149 90q18 4 58 10l45 10q102 23 311 68q303 63 516 63q82 2 141.5 -26.5t59.5 -69.5q0 -39 -60 -68q-43 -20 -100 -26q-49 -2 -100 -4h-17 q-68 -6 -164 -23q0 -12 -6 -29v-4q-43 -150 -43 -378q0 -193 -2 -383l10 2q39 6 115 20l35 6l29 6q61 12 114 13q102 0 160 -47q27 -20 27 -46q0 -27 -32 -51t-64.5 -31.5t-411.5 -70.5q-248 -41 -402 -98q-16 -6 -36 -15q-70 -27 -148 -26q-76 0 -135 27.5t-59 66.5z M538 1497q0 10 7 19q51 68 114 123q74 66 119 116q25 27 96 37q66 10 123.5 -7t73.5 -48q14 -27 -17 -61q-70 -63 -200 -201q-45 -61 -150 -62q-96 0 -143 41q-23 20 -23 43zM1071 1096z" />
<glyph unicode="&#xce;" horiz-adv-x="1345" d="M66 35q0 43 59 65q145 59 334 103q8 94 10 391q0 244 27 391q-90 -20 -164 -33q-76 -12 -151 9.5t-95 58.5q-10 16 -10 29q0 66 149 90q18 4 58 10l45 10q102 23 311 68q303 63 516 63q82 2 141.5 -26.5t59.5 -69.5q0 -39 -60 -68q-43 -20 -100 -26q-49 -2 -100 -4h-17 q-68 -6 -164 -23q0 -12 -6 -29v-4q-43 -150 -43 -378q0 -193 -2 -383l10 2q39 6 115 20l35 6l29 6q61 12 114 13q102 0 160 -47q27 -20 27 -46q0 -27 -32 -51t-64.5 -31.5t-411.5 -70.5q-248 -41 -402 -98q-16 -6 -36 -15q-70 -27 -148 -26q-76 0 -135 27.5t-59 66.5z M311 1445q-12 23 13 54l2 4q8 10 96 158q23 37 84 47q76 10 116 -17.5t123 -78t120.5 -77t37.5 -49.5q0 -29 -35.5 -48t-84.5 -19q-57 0 -86 20q-39 27 -111 70q-29 -45 -55 -80q-18 -23 -72 -31q-49 -8 -92 6.5t-56 40.5zM1071 1096z" />
<glyph unicode="&#xcf;" horiz-adv-x="1345" d="M66 35q0 43 59 65q145 59 334 103q8 94 10 391q0 244 27 391q-90 -20 -164 -33q-76 -12 -151 9.5t-95 58.5q-10 16 -10 29q0 66 149 90q18 4 58 10l45 10q102 23 311 68q303 63 516 63q82 2 141.5 -26.5t59.5 -69.5q0 -39 -60 -68q-43 -20 -100 -26q-49 -2 -100 -4h-17 q-68 -6 -164 -23q0 -12 -6 -29v-4q-43 -150 -43 -378q0 -193 -2 -383l10 2q39 6 115 20l35 6l29 6q61 12 114 13q102 0 160 -47q27 -20 27 -46q0 -27 -32 -51t-64.5 -31.5t-411.5 -70.5q-248 -41 -402 -98q-16 -6 -36 -15q-70 -27 -148 -26q-76 0 -135 27.5t-59 66.5z M260 1474q-12 29 4.5 52.5t32.5 43.5q8 12 12 25q37 70 154 70q94 0 141 -47q35 -37 15 -74q-27 -53 -66 -92q-47 -47 -133 -47q-45 0 -86 12q-55 20 -74 57zM733 1509l6 21q6 10 24.5 29.5t25.5 31.5q27 29 94 45t153 8q78 -8 119 -35q25 -12 29 -39l-8 -20 q-18 -18 -49 -61q-27 -29 -94.5 -45.5t-151.5 -8.5q-80 8 -121 35q-23 12 -27 39zM1071 1096z" />
<glyph unicode="&#xd1;" horiz-adv-x="1617" d="M66 930q0 182 8 436q0 14 58 23.5t142 9.5q82 0 142 -10q29 -2 57 -23q25 -223 150 -549q137 -362 303 -555q55 -66 112 -104l6 -4q182 137 183 495q0 117 -28 349.5t-28 342.5q0 14 58.5 23.5t142.5 9.5q82 0 141.5 -9t59.5 -24q0 -111 27.5 -340t27.5 -346 q0 -301 -125 -448q-63 -74 -129 -107q-78 -37 -194 -49q-186 -20 -334 8q-90 18 -150 52q-106 61 -198 184l-4 6q12 -131 30 -254q4 -31 -200 -31q-84 0 -144 9q-27 2 -57 22q-57 379 -57 883zM473 1652q0 8 6 17q78 104 164 116q23 2 45 3q135 0 252 -93l10 -10l6 8 q16 18 64 82q10 14 59 17q45 2 93 -15q78 -23 77 -55q0 -8 -6 -16q-49 -66 -59 -78q-37 -43 -76 -62q-66 -31 -158 -10q-92 20 -155 74l-37 33q-27 -23 -55 -64q-12 -14 -62 -16q-43 -2 -90 12q-78 25 -78 57z" />
<glyph unicode="&#xd2;" horiz-adv-x="1398" d="M68 631q-14 145 92 319q86 143 256 299q139 125 278 205q70 41 168 41q86 0 150 -25q98 0 164 -40q233 -139 233 -451q0 -178 -83 -353.5t-220 -281.5q-145 -113 -344 -125q-238 -14 -418 80l14 -8l-39 20q-233 123 -251 320zM355 2003q18 31 75.5 47t122.5 8 q72 -10 96 -37q43 -51 166 -162q109 -100 160 -168q6 -8 6 -18q0 -25 -22 -43q-47 -41 -142 -41q-106 0 -151 59.5t-144 147.5q-111 98 -151 143q-31 37 -16 64zM467 668q0 -45 12 -90q25 -63 76 -115q23 -20 66 -47q25 -16 45 -27h4q4 -4 10 -6l10 -4q29 12 70 43 q139 111 209 317q41 123 41 242q-1 188 -103 307q-76 -55 -139 -114l-8 -7q-293 -276 -293 -499z" />
<glyph unicode="&#xd3;" horiz-adv-x="1398" d="M68 631q-14 145 92 319q86 143 256 299q139 125 278 205q70 41 168 41q86 0 150 -25q98 0 164 -40q233 -139 233 -451q0 -178 -83 -353.5t-220 -281.5q-145 -113 -344 -125q-238 -14 -418 80l14 -8l-39 20q-233 123 -251 320zM467 668q0 -45 12 -90q25 -63 76 -115 q23 -20 66 -47q25 -16 45 -27h4q4 -4 10 -6l10 -4q29 12 70 43q139 111 209 317q41 123 41 242q-1 188 -103 307q-76 -55 -139 -114l-8 -7q-293 -276 -293 -499zM538 1701q0 10 7 19q51 68 114 123q74 66 119 116q25 27 96 37q66 10 123.5 -7t73.5 -48q14 -27 -17 -61 q-70 -63 -200 -201q-45 -61 -150 -62q-96 0 -143 41q-23 20 -23 43z" />
<glyph unicode="&#xd4;" horiz-adv-x="1398" d="M68 631q-14 145 92 319q86 143 256 299q139 125 278 205q70 41 168 41q86 0 150 -25q98 0 164 -40q233 -139 233 -451q0 -178 -83 -353.5t-220 -281.5q-145 -113 -344 -125q-238 -14 -418 80l14 -8l-39 20q-233 123 -251 320zM467 668q0 -45 12 -90q25 -63 76 -115 q23 -20 66 -47q25 -16 45 -27h4q4 -4 10 -6l10 -4q29 12 70 43q139 111 209 317q41 123 41 242q-1 188 -103 307q-76 -55 -139 -114l-8 -7q-293 -276 -293 -499zM495 1671q-12 23 13 54l2 4q8 10 96 158q23 37 84 47q76 10 116 -17.5t123 -78t120.5 -77t37.5 -49.5 q0 -29 -35.5 -48t-84.5 -19q-57 0 -86 20q-39 27 -111 70q-29 -45 -55 -80q-18 -23 -72 -31q-49 -8 -92 6.5t-56 40.5z" />
<glyph unicode="&#xd5;" horiz-adv-x="1398" d="M68 631q-14 145 92 319q86 143 256 299q139 125 278 205q70 41 168 41q86 0 150 -25q98 0 164 -40q233 -139 233 -451q0 -178 -83 -353.5t-220 -281.5q-145 -113 -344 -125q-238 -14 -418 80l14 -8l-39 20q-233 123 -251 320zM467 668q0 -45 12 -90q25 -63 76 -115 q23 -20 66 -47q25 -16 45 -27h4q4 -4 10 -6l10 -4q29 12 70 43q139 111 209 317q41 123 41 242q-1 188 -103 307q-76 -55 -139 -114l-8 -7q-293 -276 -293 -499zM473 1652q0 8 6 17q78 104 164 116q23 2 45 3q135 0 252 -93l10 -10l6 8q16 18 64 82q10 14 59 17q45 2 93 -15 q78 -23 77 -55q0 -8 -6 -16q-49 -66 -59 -78q-37 -43 -76 -62q-66 -31 -158 -10q-92 20 -155 74l-37 33q-27 -23 -55 -64q-12 -14 -62 -16q-43 -2 -90 12q-78 25 -78 57z" />
<glyph unicode="&#xd6;" horiz-adv-x="1398" d="M68 631q-14 145 92 319q86 143 256 299q139 125 278 205q70 41 168 41q86 0 150 -25q98 0 164 -40q233 -139 233 -451q0 -178 -83 -353.5t-220 -281.5q-145 -113 -344 -125q-238 -14 -418 80l14 -8l-39 20q-233 123 -251 320zM342 1659q-12 29 4.5 52.5t32.5 43.5 q8 12 12 25q37 70 154 70q94 0 141 -47q35 -37 15 -74q-27 -53 -66 -92q-47 -47 -133 -47q-45 0 -86 12q-55 20 -74 57zM467 668q0 -45 12 -90q25 -63 76 -115q23 -20 66 -47q25 -16 45 -27h4q4 -4 10 -6l10 -4q29 12 70 43q139 111 209 317q41 123 41 242q-1 188 -103 307 q-76 -55 -139 -114l-8 -7q-293 -276 -293 -499zM815 1694l6 21q6 10 24.5 29.5t25.5 31.5q27 29 94 45t153 8q78 -8 119 -35q25 -12 29 -39l-8 -20q-18 -18 -49 -61q-27 -29 -94.5 -45.5t-151.5 -8.5q-80 8 -121 35q-23 12 -27 39z" />
<glyph unicode="&#xd8;" horiz-adv-x="1527" d="M66 655q0 59 20 115q61 168 246 332q231 205 405 227q53 8 174 4q23 -2 37 -2q-31 41 -57 68q-137 -4 -207 14q-27 6 -27 14q0 6 29 23q63 39 215 45q150 4 254 -16q123 -25 219 -189q158 -262 164 -581q4 -158 -41 -246q-55 -106 -201 -170q-170 -74 -467 -78 q-287 -4 -473 68q-125 49 -204 147q-86 104 -86 225zM467 680q-12 -147 92 -262q72 -78 184 -119l15 -6q25 -8 55 -14q20 4 36.5 9t20.5 5q121 43 191 119q60 67 74 196q12 125 -17 277q-41 231 -131 385q-188 -88 -348 -261t-172 -329z" />
<glyph unicode="&#xd9;" horiz-adv-x="1198" d="M66 987q0 156 16 289q14 127 35 190q27 80 200 80q82 0 142 -24q68 -27 59 -56q-23 -63 -35 -186q-14 -131 -16 -274q-4 -365 70 -588q29 -82 71 -139q61 76 101 188q74 219 84 512v262q0 158 14 262q6 35 61.5 57.5t139.5 22.5t144 -24.5t56 -55.5q-16 -102 -14 -276 q4 -207 -2 -277q-14 -193 -43 -338q-43 -201 -111 -315q-98 -166 -278 -203q-90 -18 -160 -16l-43 2q-49 2 -102 12q-94 20 -156 66q-94 72 -143 207q-92 244 -90 622zM273 2065q18 31 75.5 47t122.5 8q72 -10 96 -37q43 -51 166 -162q109 -100 160 -168q6 -8 6 -18 q0 -25 -22 -43q-47 -41 -142 -41q-106 0 -151 59.5t-144 147.5q-111 98 -151 143q-31 37 -16 64z" />
<glyph unicode="&#xda;" horiz-adv-x="1198" d="M66 987q0 156 16 289q14 127 35 190q27 80 200 80q82 0 142 -24q68 -27 59 -56q-23 -63 -35 -186q-14 -131 -16 -274q-4 -365 70 -588q29 -82 71 -139q61 76 101 188q74 219 84 512v262q0 158 14 262q6 35 61.5 57.5t139.5 22.5t144 -24.5t56 -55.5q-16 -102 -14 -276 q4 -207 -2 -277q-14 -193 -43 -338q-43 -201 -111 -315q-98 -166 -278 -203q-90 -18 -160 -16l-43 2q-49 2 -102 12q-94 20 -156 66q-94 72 -143 207q-92 244 -90 622zM477 1722q0 10 7 19q51 68 114 123q74 66 119 116q25 27 96 37q66 10 123.5 -7t73.5 -48q14 -27 -17 -61 q-70 -63 -200 -201q-45 -61 -150 -62q-96 0 -143 41q-23 20 -23 43z" />
<glyph unicode="&#xdb;" horiz-adv-x="1198" d="M66 987q0 156 16 289q14 127 35 190q27 80 200 80q82 0 142 -24q68 -27 59 -56q-23 -63 -35 -186q-14 -131 -16 -274q-4 -365 70 -588q29 -82 71 -139q61 76 101 188q74 219 84 512v262q0 158 14 262q6 35 61.5 57.5t139.5 22.5t144 -24.5t56 -55.5q-16 -102 -14 -276 q4 -207 -2 -277q-14 -193 -43 -338q-43 -201 -111 -315q-98 -166 -278 -203q-90 -18 -160 -16l-43 2q-49 2 -102 12q-94 20 -156 66q-94 72 -143 207q-92 244 -90 622zM311 1671q-12 23 13 54l2 4q8 10 96 158q23 37 84 47q76 10 116 -17.5t123 -78t120.5 -77t37.5 -49.5 q0 -29 -35.5 -48t-84.5 -19q-57 0 -86 20q-39 27 -111 70q-29 -45 -55 -80q-18 -23 -72 -31q-49 -8 -92 6.5t-56 40.5z" />
<glyph unicode="&#xdc;" horiz-adv-x="1198" d="M66 987q0 156 16 289q14 127 35 190q27 80 200 80q82 0 142 -24q68 -27 59 -56q-23 -63 -35 -186q-14 -131 -16 -274q-4 -365 70 -588q29 -82 71 -139q61 76 101 188q74 219 84 512v262q0 158 14 262q6 35 61.5 57.5t139.5 22.5t144 -24.5t56 -55.5q-16 -102 -14 -276 q4 -207 -2 -277q-14 -193 -43 -338q-43 -201 -111 -315q-98 -166 -278 -203q-90 -18 -160 -16l-43 2q-49 2 -102 12q-94 20 -156 66q-94 72 -143 207q-92 244 -90 622zM178 1761q-12 29 4.5 52.5t32.5 43.5q8 12 12 25q37 70 154 70q94 0 141 -47q35 -37 15 -74 q-27 -53 -66 -92q-47 -47 -133 -47q-45 0 -86 12q-55 20 -74 57zM651 1796l6 21q6 10 24.5 29.5t25.5 31.5q27 29 94 45t153 8q78 -8 119 -35q25 -12 29 -39l-8 -20q-18 -18 -49 -61q-27 -29 -94.5 -45.5t-151.5 -8.5q-80 8 -121 35q-23 12 -27 39z" />
<glyph unicode="&#xdf;" d="M492 1638l3272 -100l-174 -1296l-2885 -242zM842 776q12 -102 61 -176q57 -88 150 -100q31 -4 59 -4q123 0 196.5 85.5t67.5 196.5q-2 84 -49 193q-10 25 -86 196q-12 31 -90 31q-76 0 -92 -31v-2q-27 -63 -96 -78h-2q-16 -4 -29 -6l-27 -4l10 2q-63 -10 -63 -26 q0 -18 45 -27q39 -8 70 -4q88 12 143 31q20 -45 33 -74q51 -129 51 -213q0 -113 -84 -193q-70 74 -88 203q-4 31 -90 31q-94 0 -90 -31zM1374 909q0 -145 51 -221q57 -82 177 -82q96 0 195 51.5t157 128.5q43 61 49 125q16 -4 41 -4q23 0 57 6q2 -74 -14 -206 q-16 -141 -16 -205q0 -53 90 -53q92 0 92 53q0 63 15.5 193t15.5 196q0 82 -11 106q-18 49 -84 50q-43 0 -116 -25l-2 -2q-29 -2 -80 -16q-25 63 -95 112q-33 23 -77 23q-92 0 -93 -43q0 -14 13 -23q61 -43 76 -98q27 -92 -50 -182l-4 -5q-53 -63 -147 -90q-37 33 -51 129 q-6 39 -7 80q0 37 7 82q2 20 -37 33q-29 10 -56 10q-68 0 -86 -31q-10 -18 -10 -92zM1901 1196q0 -63 100 -98q39 -14 96 -13q90 2 168 41q27 15 27 29q0 43 -92 43q-29 0 -56 -12q-33 -14 -45 -17l-4 -2l-2 2l-2 5l-2 2q-4 4 -6 10q-2 10 0 18q2 4 6 9.5t10 11.5l2 2 q12 4 29 6h31q92 -2 92 41q0 37 -92 39q-131 6 -215 -45q-45 -29 -45 -72zM2284 877q-2 -39 12 -95q37 -150 211 -153q160 -2 325 141l7 6q20 16 10 39q-18 37 -88 37q-47 0 -78 -25l-31 -24q-104 -70 -139 -70h-2l-2 2q-4 4 -12 10q-31 47 -31 117q0 139 86 205l18 -12 q27 -25 88 -76q84 -70 146 -70q51 0 78 25q63 66 94 172q14 51 -66 63q-29 4 -61 -4q-43 -8 -49 -32q-12 -39 -25 -68q-121 106 -217 106t-172 -59q-92 -72 -102 -235zM2916 840q0 -49 6 -95q18 -104 76 -151q43 -37 150 -35q55 0 88 8q80 18 155 101q4 2 5 4q0 14 -66 18 q-96 4 -113 -14q-31 -33 -61 -55q-39 45 -51 133q78 2 129 8q217 27 217 170q0 119 -98 190q-35 27 -86 37q-74 12 -166 0q-133 -20 -172 -207q-12 -55 -13 -112zM3099 840q0 188 86 268q84 -67 84 -176q0 -84 -70 -121q-4 -2 -6 -2q-16 -8 -31 -12h-2q-25 -6 -49 -6h-10 q-2 25 -2 49z" />
<glyph unicode="&#xe0;" horiz-adv-x="1366" d="M-55 1366q0 45 59 76q49 25 141 31q313 16 369 16q315 0 516 -105q158 -84 246 -242.5t88 -340.5q0 -267 -143 -445q-76 -94 -170 -155q-158 -102 -379 -103q-225 0 -385 105q-215 141 -221 334q-8 209 215 393q188 160 477 231q35 10 69 13q-18 20 -39 34q-10 8 -18 15 l-2 2q-18 10 -45 22h-4l-51 17q-78 16 -185 14q-23 0 -338 -16q-61 -2 -122 20q-78 29 -78 84zM273 2003q18 31 75.5 47t122.5 8q72 -10 96 -37q43 -51 166 -162q109 -100 160 -168q6 -8 6 -18q0 -25 -22 -43q-47 -41 -142 -41q-106 0 -151 59.5t-144 147.5 q-111 98 -151 143q-31 37 -16 64zM471 494q16 -49 50 -91.5t63 -58.5l4 -4q31 -18 50 -23.5t34 -7.5h8h10l2 2q6 0 17 4q37 16 49 29q55 41 82 76q123 160 123 375q0 104 -25 180q-63 -16 -115 -37q-8 -2 -20 -8q-55 -23 -109 -56q-4 -4 -24 -16q-154 -111 -197 -250 q-12 -57 -2 -114z" />
<glyph unicode="&#xe1;" horiz-adv-x="1366" d="M-55 1366q0 45 59 76q49 25 141 31q313 16 369 16q315 0 516 -105q158 -84 246 -242.5t88 -340.5q0 -267 -143 -445q-76 -94 -170 -155q-158 -102 -379 -103q-225 0 -385 105q-215 141 -221 334q-8 209 215 393q188 160 477 231q35 10 69 13q-18 20 -39 34q-10 8 -18 15 l-2 2q-18 10 -45 22h-4l-51 17q-78 16 -185 14q-23 0 -338 -16q-61 -2 -122 20q-78 29 -78 84zM471 494q16 -49 50 -91.5t63 -58.5l4 -4q31 -18 50 -23.5t34 -7.5h8h10l2 2q6 0 17 4q37 16 49 29q55 41 82 76q123 160 123 375q0 104 -25 180q-63 -16 -115 -37q-8 -2 -20 -8 q-55 -23 -109 -56q-4 -4 -24 -16q-154 -111 -197 -250q-12 -57 -2 -114zM477 1701q0 10 7 19q51 68 114 123q74 66 119 116q25 27 96 37q66 10 123.5 -7t73.5 -48q14 -27 -17 -61q-70 -63 -200 -201q-45 -61 -150 -62q-96 0 -143 41q-23 20 -23 43z" />
<glyph unicode="&#xe2;" horiz-adv-x="1366" d="M-55 1366q0 45 59 76q49 25 141 31q313 16 369 16q315 0 516 -105q158 -84 246 -242.5t88 -340.5q0 -267 -143 -445q-76 -94 -170 -155q-158 -102 -379 -103q-225 0 -385 105q-215 141 -221 334q-8 209 215 393q188 160 477 231q35 10 69 13q-18 20 -39 34q-10 8 -18 15 l-2 2q-18 10 -45 22h-4l-51 17q-78 16 -185 14q-23 0 -338 -16q-61 -2 -122 20q-78 29 -78 84zM311 1671q-12 23 13 54l2 4q8 10 96 158q23 37 84 47q76 10 116 -17.5t123 -78t120.5 -77t37.5 -49.5q0 -29 -35.5 -48t-84.5 -19q-57 0 -86 20q-39 27 -111 70q-29 -45 -55 -80 q-18 -23 -72 -31q-49 -8 -92 6.5t-56 40.5zM471 494q16 -49 50 -91.5t63 -58.5l4 -4q31 -18 50 -23.5t34 -7.5h8h10l2 2q6 0 17 4q37 16 49 29q55 41 82 76q123 160 123 375q0 104 -25 180q-63 -16 -115 -37q-8 -2 -20 -8q-55 -23 -109 -56q-4 -4 -24 -16 q-154 -111 -197 -250q-12 -57 -2 -114z" />
<glyph unicode="&#xe3;" horiz-adv-x="1366" d="M-55 1366q0 45 59 76q49 25 141 31q313 16 369 16q315 0 516 -105q158 -84 246 -242.5t88 -340.5q0 -267 -143 -445q-76 -94 -170 -155q-158 -102 -379 -103q-225 0 -385 105q-215 141 -221 334q-8 209 215 393q188 160 477 231q35 10 69 13q-18 20 -39 34q-10 8 -18 15 l-2 2q-18 10 -45 22h-4l-51 17q-78 16 -185 14q-23 0 -338 -16q-61 -2 -122 20q-78 29 -78 84zM289 1734q0 8 6 17q78 104 164 116q23 2 45 3q135 0 252 -93l10 -10l6 8q16 18 64 82q10 14 59 17q45 2 93 -15q78 -23 77 -55q0 -8 -6 -16q-49 -66 -59 -78q-37 -43 -76 -62 q-66 -31 -158 -10q-92 20 -155 74l-37 33q-27 -23 -55 -64q-12 -14 -62 -16q-43 -2 -90 12q-78 25 -78 57zM471 494q16 -49 50 -91.5t63 -58.5l4 -4q31 -18 50 -23.5t34 -7.5h8h10l2 2q6 0 17 4q37 16 49 29q55 41 82 76q123 160 123 375q0 104 -25 180q-63 -16 -115 -37 q-8 -2 -20 -8q-55 -23 -109 -56q-4 -4 -24 -16q-154 -111 -197 -250q-12 -57 -2 -114z" />
<glyph unicode="&#xe4;" horiz-adv-x="1366" d="M-55 1366q0 45 59 76q49 25 141 31q313 16 369 16q315 0 516 -105q158 -84 246 -242.5t88 -340.5q0 -267 -143 -445q-76 -94 -170 -155q-158 -102 -379 -103q-225 0 -385 105q-215 141 -221 334q-8 209 215 393q188 160 477 231q35 10 69 13q-18 20 -39 34q-10 8 -18 15 l-2 2q-18 10 -45 22h-4l-51 17q-78 16 -185 14q-23 0 -338 -16q-61 -2 -122 20q-78 29 -78 84zM219 1679q-12 29 4.5 52.5t32.5 43.5q8 12 12 25q37 70 154 70q94 0 141 -47q35 -37 15 -74q-27 -53 -66 -92q-47 -47 -133 -47q-45 0 -86 12q-55 20 -74 57zM471 494 q16 -49 50 -91.5t63 -58.5l4 -4q31 -18 50 -23.5t34 -7.5h8h10l2 2q6 0 17 4q37 16 49 29q55 41 82 76q123 160 123 375q0 104 -25 180q-63 -16 -115 -37q-8 -2 -20 -8q-55 -23 -109 -56q-4 -4 -24 -16q-154 -111 -197 -250q-12 -57 -2 -114zM692 1714l6 21q6 10 24.5 29.5 t25.5 31.5q27 29 94 45t153 8q78 -8 119 -35q25 -12 29 -39l-8 -20q-18 -18 -49 -61q-27 -29 -94.5 -45.5t-151.5 -8.5q-80 8 -121 35q-23 12 -27 39z" />
<glyph unicode="&#xe5;" horiz-adv-x="1366" d="M-55 1366q0 45 59 76q49 25 141 31q313 16 369 16q315 0 516 -105q158 -84 246 -242.5t88 -340.5q0 -267 -143 -445q-76 -94 -170 -155q-158 -102 -379 -103q-225 0 -385 105q-215 141 -221 334q-8 209 215 393q188 160 477 231q35 10 69 13q-18 20 -39 34q-10 8 -18 15 l-2 2q-18 10 -45 22h-4l-51 17q-78 16 -185 14q-23 0 -338 -16q-61 -2 -122 20q-78 29 -78 84zM352 1755q0 98 85 185t204 87q37 0 74 -8q41 12 78 12q72 0 114.5 -49t42.5 -121q0 -78 -47 -145q-53 -74 -151 -109q-82 -29 -156 -28q-76 0 -145 28q-98 43 -99 148zM471 494 q16 -49 50 -91.5t63 -58.5l4 -4q31 -18 50 -23.5t34 -7.5h8h10l2 2q6 0 17 4q37 16 49 29q55 41 82 76q123 160 123 375q0 104 -25 180q-63 -16 -115 -37q-8 -2 -20 -8q-55 -23 -109 -56q-4 -4 -24 -16q-154 -111 -197 -250q-12 -57 -2 -114zM481 1757q0 -16 17 -23 q41 -18 88 -18q49 0 106 20q93 33 107 111q4 23 -8.5 30t-32.5 3q-14 -4 -43 -11q-14 0 -33 2q-63 14 -53 15q-51 0 -109 -62q-39 -45 -39 -67z" />
<glyph unicode="&#xe6;" horiz-adv-x="1728" d="M55 1167q0 123 146 183q106 43 245 43q346 0 541 -349q76 137 174 228q125 117 250 117q141 0 227 -148q70 -119 70 -254q0 -340 -545 -479q78 -113 201 -154q94 -31 274 -30q51 0 78 -54q23 -45 23 -100q0 -106 -56 -145q-41 -27 -139 -27q-305 0 -508 264 q-61 -123 -166 -199q-115 -84 -247 -83q-139 0 -220 104q-72 94 -71 227q0 246 162 348q98 63 370 109q-57 139 -164 221q-113 88 -256 88q-51 0 -144 -35.5t-142 -35.5q-53 0 -82 63q-20 47 -21 98zM543 322q25 -20 65 -21q184 0 262 145q-66 -12 -137 -20 q-82 -10 -112 -23q-51 -23 -78 -81zM1130 821q287 71 371 180q-29 70 -86 70q-70 0 -153 -80q-76 -72 -132 -170z" />
<glyph unicode="&#xe7;" horiz-adv-x="1454" d="M66 844q12 215 102 366q59 100 125 154q109 84 252 117q61 12 127 12q98 0 176 -31q131 -53 301 -202q29 66 53 149q12 41 92 68q72 23 154 10q80 -12 121 -51q34 -33 20 -86q-70 -240 -207 -379q-55 -57 -170 -58q-57 0 -102 19q-100 39 -219 137q-195 166 -197 168 q-16 10 -39 25q-8 -6 -14 -11q-113 -90 -156 -272q-20 -86 -20 -168q0 -152 70 -256q14 -16 24 -25l4 -4l2 -2h2q8 0 17 2q41 12 71 25q14 6 31 14q106 53 191 115l6 4l20 16q16 12 41 33q70 55 172 55q53 0 103 -16q72 -23 92 -65q25 -51 -21 -86l-14 -13 q-229 -186 -436 -258q4 -131 4 -106q92 -29 92 -131t-76 -181q-109 -109 -176 -108q-61 0 -170 92q-20 16 -20 43q0 37 35.5 72t72.5 35q20 0 35 -13q66 -55 86 -55q10 0 18 6q29 41 25 74q-37 4 -72 8q-37 12 -28 64q2 6 2 157q-57 -8 -111 -8q-137 4 -252 55 q-166 78 -215 281q-31 119 -24 209z" />
<glyph unicode="&#xe8;" horiz-adv-x="1232" d="M66 760q0 129 26 252q53 250 182 364q80 72 199 88q199 31 365 0q113 -20 190 -78q92 -70 153.5 -186.5t61.5 -234.5q1 -121 -69 -207q-102 -129 -406 -168q-117 -14 -287 -17q29 -197 113 -297q66 49 137 125q12 14 92 25q72 8 154 4q145 -8 145 -39q0 -4 -6 -10 q-168 -182 -344 -223q-74 -18 -194 -19q-109 -2 -189 15q-92 20 -143 63q-123 102 -164 338q-16 102 -16 205zM273 2003q18 31 75.5 47t122.5 8q72 -10 96 -37q43 -51 166 -162q109 -100 160 -168q6 -8 6 -18q0 -25 -22 -43q-47 -41 -142 -41q-106 0 -151 59.5t-144 147.5 q-111 98 -151 143q-31 37 -16 64zM467 762q0 -53 4 -109h25q55 0 108 13l4 2q31 6 68 24q4 0 14 6q31 16 53 35q99 85 99 230q0 106 -50.5 213.5t-134.5 175.5q-82 -76 -131 -222q-59 -170 -59 -368z" />
<glyph unicode="&#xe9;" horiz-adv-x="1232" d="M66 760q0 129 26 252q53 250 182 364q80 72 199 88q199 31 365 0q113 -20 190 -78q92 -70 153.5 -186.5t61.5 -234.5q1 -121 -69 -207q-102 -129 -406 -168q-117 -14 -287 -17q29 -197 113 -297q66 49 137 125q12 14 92 25q72 8 154 4q145 -8 145 -39q0 -4 -6 -10 q-168 -182 -344 -223q-74 -18 -194 -19q-109 -2 -189 15q-92 20 -143 63q-123 102 -164 338q-16 102 -16 205zM467 762q0 -53 4 -109h25q55 0 108 13l4 2q31 6 68 24q4 0 14 6q31 16 53 35q99 85 99 230q0 106 -50.5 213.5t-134.5 175.5q-82 -76 -131 -222 q-59 -170 -59 -368zM538 1701q0 10 7 19q51 68 114 123q74 66 119 116q25 27 96 37q66 10 123.5 -7t73.5 -48q14 -27 -17 -61q-70 -63 -200 -201q-45 -61 -150 -62q-96 0 -143 41q-23 20 -23 43z" />
<glyph unicode="&#xea;" horiz-adv-x="1232" d="M66 760q0 129 26 252q53 250 182 364q80 72 199 88q199 31 365 0q113 -20 190 -78q92 -70 153.5 -186.5t61.5 -234.5q1 -121 -69 -207q-102 -129 -406 -168q-117 -14 -287 -17q29 -197 113 -297q66 49 137 125q12 14 92 25q72 8 154 4q145 -8 145 -39q0 -4 -6 -10 q-168 -182 -344 -223q-74 -18 -194 -19q-109 -2 -189 15q-92 20 -143 63q-123 102 -164 338q-16 102 -16 205zM311 1671q-12 23 13 54l2 4q8 10 96 158q23 37 84 47q76 10 116 -17.5t123 -78t120.5 -77t37.5 -49.5q0 -29 -35.5 -48t-84.5 -19q-57 0 -86 20q-39 27 -111 70 q-29 -45 -55 -80q-18 -23 -72 -31q-49 -8 -92 6.5t-56 40.5zM467 762q0 -53 4 -109h25q55 0 108 13l4 2q31 6 68 24q4 0 14 6q31 16 53 35q99 85 99 230q0 106 -50.5 213.5t-134.5 175.5q-82 -76 -131 -222q-59 -170 -59 -368z" />
<glyph unicode="&#xeb;" horiz-adv-x="1232" d="M66 760q0 129 26 252q53 250 182 364q80 72 199 88q199 31 365 0q113 -20 190 -78q92 -70 153.5 -186.5t61.5 -234.5q1 -121 -69 -207q-102 -129 -406 -168q-117 -14 -287 -17q29 -197 113 -297q66 49 137 125q12 14 92 25q72 8 154 4q145 -8 145 -39q0 -4 -6 -10 q-168 -182 -344 -223q-74 -18 -194 -19q-109 -2 -189 15q-92 20 -143 63q-123 102 -164 338q-16 102 -16 205zM219 1659q-12 29 4.5 52.5t32.5 43.5q8 12 12 25q37 70 154 70q94 0 141 -47q35 -37 15 -74q-27 -53 -66 -92q-47 -47 -133 -47q-45 0 -86 12q-55 20 -74 57z M467 762q0 -53 4 -109h25q55 0 108 13l4 2q31 6 68 24q4 0 14 6q31 16 53 35q99 85 99 230q0 106 -50.5 213.5t-134.5 175.5q-82 -76 -131 -222q-59 -170 -59 -368zM692 1694l6 21q6 10 24.5 29.5t25.5 31.5q27 29 94 45t153 8q78 -8 119 -35q25 -12 29 -39l-8 -20 q-18 -18 -49 -61q-27 -29 -94.5 -45.5t-151.5 -8.5q-80 8 -121 35q-23 12 -27 39z" />
<glyph unicode="&#xec;" horiz-adv-x="688" d="M-43 1026q0 45 53 78q45 29 94 35q43 6 78 12q18 4 33 8l6 2q47 14 144 39q55 14 112 14q168 1 191 -114q18 -104 18 -226q0 -145 -34 -432.5t-34 -429.5q0 -59 -75 -92q-57 -25 -125 -24q-70 0 -127 24q-74 33 -74 92q0 137 37 455q35 295 31 455q-76 -14 -129 -15 q-152 0 -191 86q-8 16 -8 33zM68 1799q18 31 75.5 47t122.5 8q72 -10 96 -37q43 -51 166 -162q109 -100 160 -168q6 -8 6 -18q0 -25 -22 -43q-47 -41 -142 -41q-106 0 -151 59.5t-144 147.5q-111 98 -151 143q-31 37 -16 64z" />
<glyph unicode="&#xed;" horiz-adv-x="688" d="M-43 1026q0 45 53 78q45 29 94 35q43 6 78 12q18 4 33 8l6 2q47 14 144 39q55 14 112 14q168 1 191 -114q18 -104 18 -226q0 -145 -34 -432.5t-34 -429.5q0 -59 -75 -92q-57 -25 -125 -24q-70 0 -127 24q-74 33 -74 92q0 137 37 455q35 295 31 455q-76 -14 -129 -15 q-152 0 -191 86q-8 16 -8 33zM129 1497q0 10 7 19q51 68 114 123q74 66 119 116q25 27 96 37q66 10 123.5 -7t73.5 -48q14 -27 -17 -61q-70 -63 -200 -201q-45 -61 -150 -62q-96 0 -143 41q-23 20 -23 43z" />
<glyph unicode="&#xee;" horiz-adv-x="688" d="M-43 1026q0 45 53 78q45 29 94 35q43 6 78 12q18 4 33 8l6 2q47 14 144 39q55 14 112 14q168 1 191 -114q18 -104 18 -226q0 -145 -34 -432.5t-34 -429.5q0 -59 -75 -92q-57 -25 -125 -24q-70 0 -127 24q-74 33 -74 92q0 137 37 455q35 295 31 455q-76 -14 -129 -15 q-152 0 -191 86q-8 16 -8 33zM106 1466q-12 23 13 54l2 4q8 10 96 158q23 37 84 47q76 10 116 -17.5t123 -78t120.5 -77t37.5 -49.5q0 -29 -35.5 -48t-84.5 -19q-57 0 -86 20q-39 27 -111 70q-29 -45 -55 -80q-18 -23 -72 -31q-49 -8 -92 6.5t-56 40.5z" />
<glyph unicode="&#xef;" horiz-adv-x="688" d="M-68 1515q-12 29 4.5 52.5t32.5 43.5q8 12 12 25q37 70 154 70q94 0 141 -47q35 -37 15 -74q-27 -53 -66 -92q-47 -47 -133 -47q-45 0 -86 12q-55 20 -74 57zM-43 1026q0 45 53 78q45 29 94 35q43 6 78 12q18 4 33 8l6 2q47 14 144 39q55 14 112 14q168 1 191 -114 q18 -104 18 -226q0 -145 -34 -432.5t-34 -429.5q0 -59 -75 -92q-57 -25 -125 -24q-70 0 -127 24q-74 33 -74 92q0 137 37 455q35 295 31 455q-76 -14 -129 -15q-152 0 -191 86q-8 16 -8 33zM405 1550l6 21q6 10 24.5 29.5t25.5 31.5q27 29 94 45t153 8q78 -8 119 -35 q25 -12 29 -39l-8 -20q-18 -18 -49 -61q-27 -29 -94.5 -45.5t-151.5 -8.5q-80 8 -121 35q-23 12 -27 39z" />
<glyph unicode="&#xf1;" horiz-adv-x="1622" d="M66 156q0 391 12 573q18 279 80 545l8 31q8 43 92 69q72 25 154 12q137 -23 147 -112q37 -326 236 -604q109 -150 213 -185l12 -4q6 -2 16 -2h17l12 2q27 8 52.5 27.5t47.5 48.5q74 113 74 270q0 203 -102 371q-8 12 -9 27q0 35 29 61q59 59 176 60q137 0 191 -86 q66 -109 98 -269q28 -143 10 -266q-27 -168 -119 -285q-100 -125 -315 -178q-76 -16 -156 -16q-180 0 -337 82q-125 68 -234 198q-4 -141 -4 -370q0 -61 -76 -93q-57 -25 -125 -24q-68 0 -125 24q-76 31 -75 93zM473 1652q0 8 6 17q78 104 164 116q23 2 45 3q135 0 252 -93 l10 -10l6 8q16 18 64 82q10 14 59 17q45 2 93 -15q78 -23 77 -55q0 -8 -6 -16q-49 -66 -59 -78q-37 -43 -76 -62q-66 -31 -158 -10q-92 20 -155 74l-37 33q-27 -23 -55 -64q-12 -14 -62 -16q-43 -2 -90 12q-78 25 -78 57z" />
<glyph unicode="&#xf2;" horiz-adv-x="1275" d="M66 557q0 178 114 342q139 199 367 315q-39 18 -39 46q0 31 59 53q68 25 142 22q213 -8 350 -80q111 -59 172 -178q55 -111 55 -243q0 -186 -96 -346t-260 -240q-106 -51 -256 -68q-172 -20 -308.5 18t-209.5 113q-90 92 -90 246zM273 1901q18 31 75.5 47t122.5 8 q72 -10 96 -37q43 -51 166 -162q109 -100 160 -168q6 -8 6 -18q0 -25 -22 -43q-47 -41 -142 -41q-106 0 -151 59.5t-144 147.5q-111 98 -151 143q-31 37 -16 64zM465 557q0 -164 104 -225l6 -2q23 4 50 16l4 2q35 14 76 53q20 16 45 45q137 168 137 388q0 153 -70 251l-4 5 q-66 -41 -115 -84l-14 -13q-219 -201 -219 -436z" />
<glyph unicode="&#xf3;" horiz-adv-x="1275" d="M66 557q0 178 114 342q139 199 367 315q-39 18 -39 46q0 31 59 53q68 25 142 22q213 -8 350 -80q111 -59 172 -178q55 -111 55 -243q0 -186 -96 -346t-260 -240q-106 -51 -256 -68q-172 -20 -308.5 18t-209.5 113q-90 92 -90 246zM465 557q0 -164 104 -225l6 -2 q23 4 50 16l4 2q35 14 76 53q20 16 45 45q137 168 137 388q0 153 -70 251l-4 5q-66 -41 -115 -84l-14 -13q-219 -201 -219 -436zM477 1599q0 10 7 19q51 68 114 123q74 66 119 116q25 27 96 37q66 10 123.5 -7t73.5 -48q14 -27 -17 -61q-70 -63 -200 -201q-45 -61 -150 -62 q-96 0 -143 41q-23 20 -23 43z" />
<glyph unicode="&#xf4;" horiz-adv-x="1275" d="M66 557q0 178 114 342q139 199 367 315q-39 18 -39 46q0 31 59 53q68 25 142 22q213 -8 350 -80q111 -59 172 -178q55 -111 55 -243q0 -186 -96 -346t-260 -240q-106 -51 -256 -68q-172 -20 -308.5 18t-209.5 113q-90 92 -90 246zM331 1568q-12 23 13 54l2 4q8 10 96 158 q23 37 84 47q76 10 116 -17.5t123 -78t120.5 -77t37.5 -49.5q0 -29 -35.5 -48t-84.5 -19q-57 0 -86 20q-39 27 -111 70q-29 -45 -55 -80q-18 -23 -72 -31q-49 -8 -92 6.5t-56 40.5zM465 557q0 -164 104 -225l6 -2q23 4 50 16l4 2q35 14 76 53q20 16 45 45q137 168 137 388 q0 153 -70 251l-4 5q-66 -41 -115 -84l-14 -13q-219 -201 -219 -436z" />
<glyph unicode="&#xf5;" horiz-adv-x="1275" d="M66 557q0 178 114 342q139 199 367 315q-39 18 -39 46q0 31 59 53q68 25 142 22q213 -8 350 -80q111 -59 172 -178q55 -111 55 -243q0 -186 -96 -346t-260 -240q-106 -51 -256 -68q-172 -20 -308.5 18t-209.5 113q-90 92 -90 246zM309 1632q0 8 6 17q78 104 164 116 q23 2 45 3q135 0 252 -93l10 -10l6 8q16 18 64 82q10 14 59 17q45 2 93 -15q78 -23 77 -55q0 -8 -6 -16q-49 -66 -59 -78q-37 -43 -76 -62q-66 -31 -158 -10q-92 20 -155 74l-37 33q-27 -23 -55 -64q-12 -14 -62 -16q-43 -2 -90 12q-78 25 -78 57zM465 557q0 -164 104 -225 l6 -2q23 4 50 16l4 2q35 14 76 53q20 16 45 45q137 168 137 388q0 153 -70 251l-4 5q-66 -41 -115 -84l-14 -13q-219 -201 -219 -436z" />
<glyph unicode="&#xf6;" horiz-adv-x="1275" d="M66 557q0 178 114 342q139 199 367 315q-39 18 -39 46q0 31 59 53q68 25 142 22q213 -8 350 -80q111 -59 172 -178q55 -111 55 -243q0 -186 -96 -346t-260 -240q-106 -51 -256 -68q-172 -20 -308.5 18t-209.5 113q-90 92 -90 246zM219 1556q-12 29 4.5 52.5t32.5 43.5 q8 12 12 25q37 70 154 70q94 0 141 -47q35 -37 15 -74q-27 -53 -66 -92q-47 -47 -133 -47q-45 0 -86 12q-55 20 -74 57zM465 557q0 -164 104 -225l6 -2q23 4 50 16l4 2q35 14 76 53q20 16 45 45q137 168 137 388q0 153 -70 251l-4 5q-66 -41 -115 -84l-14 -13 q-219 -201 -219 -436zM692 1591l6 21q6 10 24.5 29.5t25.5 31.5q27 29 94 45t153 8q78 -8 119 -35q25 -12 29 -39l-8 -20q-18 -18 -49 -61q-27 -29 -94.5 -45.5t-151.5 -8.5q-80 8 -121 35q-23 12 -27 39z" />
<glyph unicode="&#xf7;" d="M492 1638l3272 -100l-174 -1296l-2885 -242zM842 776q12 -102 61 -176q57 -88 150 -100q31 -4 59 -4q123 0 196.5 85.5t67.5 196.5q-2 84 -49 193q-10 25 -86 196q-12 31 -90 31q-76 0 -92 -31v-2q-27 -63 -96 -78h-2q-16 -4 -29 -6l-27 -4l10 2q-63 -10 -63 -26 q0 -18 45 -27q39 -8 70 -4q88 12 143 31q20 -45 33 -74q51 -129 51 -213q0 -113 -84 -193q-70 74 -88 203q-4 31 -90 31q-94 0 -90 -31zM1374 909q0 -145 51 -221q57 -82 177 -82q96 0 195 51.5t157 128.5q43 61 49 125q16 -4 41 -4q23 0 57 6q2 -74 -14 -206 q-16 -141 -16 -205q0 -53 90 -53q92 0 92 53q0 63 15.5 193t15.5 196q0 82 -11 106q-18 49 -84 50q-43 0 -116 -25l-2 -2q-29 -2 -80 -16q-25 63 -95 112q-33 23 -77 23q-92 0 -93 -43q0 -14 13 -23q61 -43 76 -98q27 -92 -50 -182l-4 -5q-53 -63 -147 -90q-37 33 -51 129 q-6 39 -7 80q0 37 7 82q2 20 -37 33q-29 10 -56 10q-68 0 -86 -31q-10 -18 -10 -92zM1901 1196q0 -63 100 -98q39 -14 96 -13q90 2 168 41q27 15 27 29q0 43 -92 43q-29 0 -56 -12q-33 -14 -45 -17l-4 -2l-2 2l-2 5l-2 2q-4 4 -6 10q-2 10 0 18q2 4 6 9.5t10 11.5l2 2 q12 4 29 6h31q92 -2 92 41q0 37 -92 39q-131 6 -215 -45q-45 -29 -45 -72zM2284 877q-2 -39 12 -95q37 -150 211 -153q160 -2 325 141l7 6q20 16 10 39q-18 37 -88 37q-47 0 -78 -25l-31 -24q-104 -70 -139 -70h-2l-2 2q-4 4 -12 10q-31 47 -31 117q0 139 86 205l18 -12 q27 -25 88 -76q84 -70 146 -70q51 0 78 25q63 66 94 172q14 51 -66 63q-29 4 -61 -4q-43 -8 -49 -32q-12 -39 -25 -68q-121 106 -217 106t-172 -59q-92 -72 -102 -235zM2916 840q0 -49 6 -95q18 -104 76 -151q43 -37 150 -35q55 0 88 8q80 18 155 101q4 2 5 4q0 14 -66 18 q-96 4 -113 -14q-31 -33 -61 -55q-39 45 -51 133q78 2 129 8q217 27 217 170q0 119 -98 190q-35 27 -86 37q-74 12 -166 0q-133 -20 -172 -207q-12 -55 -13 -112zM3099 840q0 188 86 268q84 -67 84 -176q0 -84 -70 -121q-4 -2 -6 -2q-16 -8 -31 -12h-2q-25 -6 -49 -6h-10 q-2 25 -2 49z" />
<glyph unicode="&#xf8;" horiz-adv-x="1527" d="M66 655q0 59 20 115q61 168 246 332q231 205 405 227q53 8 174 4q23 -2 37 -2q-31 41 -57 68q-137 -4 -207 14q-27 6 -27 14q0 6 29 23q63 39 215 45q150 4 254 -16q123 -25 219 -189q158 -262 164 -581q4 -158 -41 -246q-55 -106 -201 -170q-170 -74 -467 -78 q-287 -4 -473 68q-125 49 -204 147q-86 104 -86 225zM467 680q-12 -147 92 -262q72 -78 184 -119l15 -6q25 -8 55 -14q20 4 36.5 9t20.5 5q121 43 191 119q60 67 74 196q12 125 -17 277q-41 231 -131 385q-188 -88 -348 -261t-172 -329z" />
<glyph unicode="&#xf9;" horiz-adv-x="1441" d="M66 913q0 88 12 174q12 96 201 97q82 0 143 -30t57 -67q-14 -90 -14 -180q0 -158 39 -297q31 -113 90 -164q121 35 209 99q76 55 115 100l10 12q82 98 109.5 202t0.5 200q-33 121 -168 215q-27 18 -26 49q0 53 98 82q51 14 102 14q102 0 173 -49q235 -161 235 -405 q0 -168 -111 -322q-131 -184 -346 -285q-244 -113 -428 -112q-262 0 -387 180q-53 76 -86 217q-29 131 -28 270zM273 1921q18 31 75.5 47t122.5 8q72 -10 96 -37q43 -51 166 -162q109 -100 160 -168q6 -8 6 -18q0 -25 -22 -43q-47 -41 -142 -41q-106 0 -151 59.5t-144 147.5 q-111 98 -151 143q-31 37 -16 64z" />
<glyph unicode="&#xfa;" horiz-adv-x="1441" d="M66 913q0 88 12 174q12 96 201 97q82 0 143 -30t57 -67q-14 -90 -14 -180q0 -158 39 -297q31 -113 90 -164q121 35 209 99q76 55 115 100l10 12q82 98 109.5 202t0.5 200q-33 121 -168 215q-27 18 -26 49q0 53 98 82q51 14 102 14q102 0 173 -49q235 -161 235 -405 q0 -168 -111 -322q-131 -184 -346 -285q-244 -113 -428 -112q-262 0 -387 180q-53 76 -86 217q-29 131 -28 270zM333 1558q0 10 7 19q51 68 114 123q74 66 119 116q25 27 96 37q66 10 123.5 -7t73.5 -48q14 -27 -17 -61q-70 -63 -200 -201q-45 -61 -150 -62q-96 0 -143 41 q-23 20 -23 43z" />
<glyph unicode="&#xfb;" horiz-adv-x="1441" d="M66 913q0 88 12 174q12 96 201 97q82 0 143 -30t57 -67q-14 -90 -14 -180q0 -158 39 -297q31 -113 90 -164q121 35 209 99q76 55 115 100l10 12q82 98 109.5 202t0.5 200q-33 121 -168 215q-27 18 -26 49q0 53 98 82q51 14 102 14q102 0 173 -49q235 -161 235 -405 q0 -168 -111 -322q-131 -184 -346 -285q-244 -113 -428 -112q-262 0 -387 180q-53 76 -86 217q-29 131 -28 270zM311 1527q-12 23 13 54l2 4q8 10 96 158q23 37 84 47q76 10 116 -17.5t123 -78t120.5 -77t37.5 -49.5q0 -29 -35.5 -48t-84.5 -19q-57 0 -86 20q-39 27 -111 70 q-29 -45 -55 -80q-18 -23 -72 -31q-49 -8 -92 6.5t-56 40.5z" />
<glyph unicode="&#xfc;" horiz-adv-x="1441" d="M66 913q0 88 12 174q12 96 201 97q82 0 143 -30t57 -67q-14 -90 -14 -180q0 -158 39 -297q31 -113 90 -164q121 35 209 99q76 55 115 100l10 12q82 98 109.5 202t0.5 200q-33 121 -168 215q-27 18 -26 49q0 53 98 82q51 14 102 14q102 0 173 -49q235 -161 235 -405 q0 -168 -111 -322q-131 -184 -346 -285q-244 -113 -428 -112q-262 0 -387 180q-53 76 -86 217q-29 131 -28 270zM198 1618q-12 29 4.5 52.5t32.5 43.5q8 12 12 25q37 70 154 70q94 0 141 -47q35 -37 15 -74q-27 -53 -66 -92q-47 -47 -133 -47q-45 0 -86 12q-55 20 -74 57z M671 1653l6 21q6 10 24.5 29.5t25.5 31.5q27 29 94 45t153 8q78 -8 119 -35q25 -12 29 -39l-8 -20q-18 -18 -49 -61q-27 -29 -94.5 -45.5t-151.5 -8.5q-80 8 -121 35q-23 12 -27 39z" />
<glyph unicode="&#xff;" horiz-adv-x="1468" d="M66 1280q0 37 58 61.5t142 24.5q82 0 141.5 -24.5t59.5 -61.5q0 -496 88 -690q29 -63 63 -103l9 -8h2q45 29 90 72q10 10 20 22q158 178 269 488q33 133 69 256q12 41 60 61q57 25 141 25q82 0 144.5 -25.5t56.5 -60.5q-27 -147 -80 -295q-68 -287 -125 -670 q-16 -104 -92 -676q-10 -86 -201 -86q-82 0 -143.5 27t-57.5 59l90 666q-125 -51 -268 -51q-217 0 -328 108q-104 98 -153 283q-55 207 -55 598zM342 1659q-12 29 4.5 52.5t32.5 43.5q8 12 12 25q37 70 154 70q94 0 141 -47q35 -37 15 -74q-27 -53 -66 -92q-47 -47 -133 -47 q-45 0 -86 12q-55 20 -74 57zM815 1694l6 21q6 10 24.5 29.5t25.5 31.5q27 29 94 45t153 8q78 -8 119 -35q25 -12 29 -39l-8 -20q-18 -18 -49 -61q-27 -29 -94.5 -45.5t-151.5 -8.5q-80 8 -121 35q-23 12 -27 39z" />
<glyph unicode="&#x152;" horiz-adv-x="1867" d="M55 389q0 131 86 356q94 244 224 406q154 195 305 195q45 0 75 -64q25 -51 25 -98q0 -115 -70 -148q-172 -82 -305 -274q-139 -199 -139 -381q0 -51 55.5 -81t130.5 -30q137 0 302 97.5t239 220.5q-6 90 21 135q-27 41 -90.5 93t-84.5 83q-39 53 -38 129q0 115 71 143 q125 47 398 121q266 74 401 127l25 6q49 0 79 -63q25 -51 25 -98q0 -133 -260 -234q-115 -43 -373 -100q27 -47 41 -96q258 131 346 131q51 0 78 -56q23 -43 23 -100q0 -137 -91 -162q-82 -20 -188 -67l-180 -86q-6 -18 -15 -37q340 94 562 264q23 16 49 16q41 0 71 -67 q25 -56 25 -99q0 -176 -412 -335q-248 -96 -573 -166l-35 28q-217 -145 -424 -145q-190 0 -291 133q-88 117 -88 303z" />
<glyph unicode="&#x153;" horiz-adv-x="2404" d="M55 502q0 289 234 561q242 285 530 285q104 0 148 -25q29 78 88 78q70 0 243 -129q92 289 433 289q264 0 446 -97q238 -125 238 -385q0 -274 -217 -401q-170 -100 -449 -100q-84 0 -172 10q-14 -57 -45 -111q61 -88 179 -145.5t231 -57.5q135 0 174 101q16 47 30 94 q25 57 74 57q51 0 78 -57q23 -45 22 -100q0 -176 -100 -291q-106 -121 -283 -121q-168 0 -332.5 96.5t-246.5 245.5q-150 -104 -391 -170q-223 -59 -408 -59q-225 0 -354 94q-150 111 -150 338zM258 498q0 -66 123 -97q78 -18 180 -18q166 0 471 86q371 102 357 219 q-16 145 -136 246q-115 86 -227 172q-18 -80 -104 -80q-18 0 -52 4t-53 4q-174 0 -366.5 -182t-192.5 -354zM1468 1094q61 -88 95 -187q139 -18 231 -18q125 0 250 47q145 57 172 143q-18 84 -213 131q-143 33 -281 33q-238 0 -254 -149z" />
<glyph unicode="&#x178;" horiz-adv-x="1241" d="M66 1059q0 201 45 350q12 39 92 66q74 23 153 10q80 -10 121 -49q35 -35 21 -86q-14 -43 -22.5 -128t-8.5 -194q2 -215 41 -371q25 -106 74 -182l2 2q78 61 129 131q59 78 100 176q-23 309 -22 359q0 61 4 112q4 59 75 88q55 23 125 23q156 0 193 -80q63 -137 63 -287 q0 -115 -37 -229q11 -161 11 -272q2 -172 -19 -291q-27 -168 -82 -262q-141 -240 -481 -240q-80 0 -158 14q-150 27 -149 103q0 16 8 33q41 82 191 82q4 0 100 -13h16h6l7 2l2 2q6 2 14 9q23 18 41 40q55 80 76 181q14 63 20 135q-115 -59 -246 -68q-209 -10 -323 121 q-147 166 -176 541q-6 92 -6 172zM239 1638q-12 29 4.5 52.5t32.5 43.5q8 12 12 25q37 70 154 70q94 0 141 -47q35 -37 15 -74q-27 -53 -66 -92q-47 -47 -133 -47q-45 0 -86 12q-55 20 -74 57zM712 1673l6 21q6 10 24.5 29.5t25.5 31.5q27 29 94 45t153 8q78 -8 119 -35 q25 -12 29 -39l-8 -20q-18 -18 -49 -61q-27 -29 -94.5 -45.5t-151.5 -8.5q-80 8 -121 35q-23 12 -27 39z" />
<glyph unicode="&#x2c6;" horiz-adv-x="1048" d="M106 1343q-12 23 13 54l2 4q8 10 96 158q23 37 84 47q76 10 116 -17.5t123 -78t120.5 -77t37.5 -49.5q0 -29 -35.5 -48t-84.5 -19q-57 0 -86 20q-39 27 -111 70q-29 -45 -55 -80q-18 -23 -72 -31q-49 -8 -92 6.5t-56 40.5z" />
<glyph unicode="&#x2dc;" horiz-adv-x="2607" d="M219 1423q0 8 6 17q78 104 164 116q23 2 45 3q135 0 252 -93l10 -10l6 8q16 18 64 82q10 14 59 17q45 2 93 -15q78 -23 77 -55q0 -8 -6 -16q-49 -66 -59 -78q-37 -43 -76 -62q-66 -31 -158 -10q-92 20 -155 74l-37 33q-27 -23 -55 -64q-12 -14 -62 -16q-43 -2 -90 12 q-78 25 -78 57z" />
<glyph unicode="&#x2000;" horiz-adv-x="1061" />
<glyph unicode="&#x2001;" horiz-adv-x="2122" />
<glyph unicode="&#x2002;" horiz-adv-x="1061" />
<glyph unicode="&#x2003;" horiz-adv-x="2122" />
<glyph unicode="&#x2004;" horiz-adv-x="707" />
<glyph unicode="&#x2005;" horiz-adv-x="530" />
<glyph unicode="&#x2006;" horiz-adv-x="353" />
<glyph unicode="&#x2007;" horiz-adv-x="353" />
<glyph unicode="&#x2008;" horiz-adv-x="265" />
<glyph unicode="&#x2009;" horiz-adv-x="424" />
<glyph unicode="&#x200a;" horiz-adv-x="117" />
<glyph unicode="&#x2010;" horiz-adv-x="1003" d="M66 502q0 47 20 92q27 57 72 57q233 0 508 27q20 2 122 18q78 10 123 11q45 0 72 -54q21 -41 21 -92q0 -133 -86 -151q-266 -55 -760 -56q-45 0 -72 56q-20 45 -20 92z" />
<glyph unicode="&#x2011;" horiz-adv-x="1003" d="M66 502q0 47 20 92q27 57 72 57q233 0 508 27q20 2 122 18q78 10 123 11q45 0 72 -54q21 -41 21 -92q0 -133 -86 -151q-266 -55 -760 -56q-45 0 -72 56q-20 45 -20 92z" />
<glyph unicode="&#x2012;" horiz-adv-x="1003" d="M66 502q0 47 20 92q27 57 72 57q233 0 508 27q20 2 122 18q78 10 123 11q45 0 72 -54q21 -41 21 -92q0 -133 -86 -151q-266 -55 -760 -56q-45 0 -72 56q-20 45 -20 92z" />
<glyph unicode="&#x2013;" horiz-adv-x="1411" d="M66 502q0 47 20 92q27 57 72 57q643 0 917 27q20 2 123 18q78 10 123 11q45 0 72 -54q20 -41 20 -92q0 -133 -86 -151q-266 -55 -1169 -56q-45 0 -72 56q-20 45 -20 92z" />
<glyph unicode="&#x2014;" horiz-adv-x="1830" d="M66 502q0 47 20 92q27 57 72 57q127 0 663.5 28t663.5 40q20 2 123 18q78 10 123 11q45 0 71 -54q21 -41 21 -92q0 -133 -86 -151q-160 -33 -789 -68q-553 -29 -790 -29q-45 0 -72 56q-20 45 -20 92z" />
<glyph unicode="&#x2018;" horiz-adv-x="499" d="M66 985q0 10 12 35q14 33 16 39q16 68 12 176q-4 143 -2 178q6 98 201 98q82 0 142.5 -29.5t58.5 -68.5q-4 -41 0 -115q4 -90 4 -116q0 -139 -49 -221q-43 -72 -187 -72q-31 0 -59 4q-45 6 -90 27q-59 29 -59 65z" />
<glyph unicode="&#x2019;" horiz-adv-x="499" d="M66 985q0 10 12 35q14 33 16 39q16 68 12 176q-4 143 -2 178q6 98 201 98q82 0 142.5 -29.5t58.5 -68.5q-4 -41 0 -115q4 -90 4 -116q0 -139 -49 -221q-43 -72 -187 -72q-31 0 -59 4q-45 6 -90 27q-59 29 -59 65z" />
<glyph unicode="&#x201a;" d="M492 1638l3272 -100l-174 -1296l-2885 -242zM842 776q12 -102 61 -176q57 -88 150 -100q31 -4 59 -4q123 0 196.5 85.5t67.5 196.5q-2 84 -49 193q-10 25 -86 196q-12 31 -90 31q-76 0 -92 -31v-2q-27 -63 -96 -78h-2q-16 -4 -29 -6l-27 -4l10 2q-63 -10 -63 -26 q0 -18 45 -27q39 -8 70 -4q88 12 143 31q20 -45 33 -74q51 -129 51 -213q0 -113 -84 -193q-70 74 -88 203q-4 31 -90 31q-94 0 -90 -31zM1374 909q0 -145 51 -221q57 -82 177 -82q96 0 195 51.5t157 128.5q43 61 49 125q16 -4 41 -4q23 0 57 6q2 -74 -14 -206 q-16 -141 -16 -205q0 -53 90 -53q92 0 92 53q0 63 15.5 193t15.5 196q0 82 -11 106q-18 49 -84 50q-43 0 -116 -25l-2 -2q-29 -2 -80 -16q-25 63 -95 112q-33 23 -77 23q-92 0 -93 -43q0 -14 13 -23q61 -43 76 -98q27 -92 -50 -182l-4 -5q-53 -63 -147 -90q-37 33 -51 129 q-6 39 -7 80q0 37 7 82q2 20 -37 33q-29 10 -56 10q-68 0 -86 -31q-10 -18 -10 -92zM1901 1196q0 -63 100 -98q39 -14 96 -13q90 2 168 41q27 15 27 29q0 43 -92 43q-29 0 -56 -12q-33 -14 -45 -17l-4 -2l-2 2l-2 5l-2 2q-4 4 -6 10q-2 10 0 18q2 4 6 9.5t10 11.5l2 2 q12 4 29 6h31q92 -2 92 41q0 37 -92 39q-131 6 -215 -45q-45 -29 -45 -72zM2284 877q-2 -39 12 -95q37 -150 211 -153q160 -2 325 141l7 6q20 16 10 39q-18 37 -88 37q-47 0 -78 -25l-31 -24q-104 -70 -139 -70h-2l-2 2q-4 4 -12 10q-31 47 -31 117q0 139 86 205l18 -12 q27 -25 88 -76q84 -70 146 -70q51 0 78 25q63 66 94 172q14 51 -66 63q-29 4 -61 -4q-43 -8 -49 -32q-12 -39 -25 -68q-121 106 -217 106t-172 -59q-92 -72 -102 -235zM2916 840q0 -49 6 -95q18 -104 76 -151q43 -37 150 -35q55 0 88 8q80 18 155 101q4 2 5 4q0 14 -66 18 q-96 4 -113 -14q-31 -33 -61 -55q-39 45 -51 133q78 2 129 8q217 27 217 170q0 119 -98 190q-35 27 -86 37q-74 12 -166 0q-133 -20 -172 -207q-12 -55 -13 -112zM3099 840q0 188 86 268q84 -67 84 -176q0 -84 -70 -121q-4 -2 -6 -2q-16 -8 -31 -12h-2q-25 -6 -49 -6h-10 q-2 25 -2 49z" />
<glyph unicode="&#x201c;" horiz-adv-x="792" d="M70 1026q0 12 10 36.5t12 37.5q14 68 10 176q-4 145 -2 178q4 98 160 98q68 0 116 -29.5t46 -68.5q-4 -41 0 -115q2 -90 2 -116q0 -139 -39 -222q-35 -72 -147 -71q-27 0 -50 4q-37 6 -71 27q-47 29 -47 65zM434 952q0 12 11.5 37t13.5 37q12 68 10 176q-4 145 -2 178 q4 98 160 99q66 0 113.5 -30t45.5 -69q-2 -41 0 -114q4 -92 5 -119q0 -137 -39 -219q-35 -72 -150 -72q-25 0 -47 4q-37 6 -72 27q-49 29 -49 65z" />
<glyph unicode="&#x201d;" horiz-adv-x="792" d="M70 1026q0 12 10 36.5t12 37.5q14 68 10 176q-4 145 -2 178q4 98 160 98q68 0 116 -29.5t46 -68.5q-4 -41 0 -115q2 -90 2 -116q0 -139 -39 -222q-35 -72 -147 -71q-27 0 -50 4q-37 6 -71 27q-47 29 -47 65zM434 952q0 12 11.5 37t13.5 37q12 68 10 176q-4 145 -2 178 q4 98 160 99q66 0 113.5 -30t45.5 -69q-2 -41 0 -114q4 -92 5 -119q0 -137 -39 -219q-35 -72 -150 -72q-25 0 -47 4q-37 6 -72 27q-49 29 -49 65z" />
<glyph unicode="&#x201e;" d="M492 1638l3272 -100l-174 -1296l-2885 -242zM842 776q12 -102 61 -176q57 -88 150 -100q31 -4 59 -4q123 0 196.5 85.5t67.5 196.5q-2 84 -49 193q-10 25 -86 196q-12 31 -90 31q-76 0 -92 -31v-2q-27 -63 -96 -78h-2q-16 -4 -29 -6l-27 -4l10 2q-63 -10 -63 -26 q0 -18 45 -27q39 -8 70 -4q88 12 143 31q20 -45 33 -74q51 -129 51 -213q0 -113 -84 -193q-70 74 -88 203q-4 31 -90 31q-94 0 -90 -31zM1374 909q0 -145 51 -221q57 -82 177 -82q96 0 195 51.5t157 128.5q43 61 49 125q16 -4 41 -4q23 0 57 6q2 -74 -14 -206 q-16 -141 -16 -205q0 -53 90 -53q92 0 92 53q0 63 15.5 193t15.5 196q0 82 -11 106q-18 49 -84 50q-43 0 -116 -25l-2 -2q-29 -2 -80 -16q-25 63 -95 112q-33 23 -77 23q-92 0 -93 -43q0 -14 13 -23q61 -43 76 -98q27 -92 -50 -182l-4 -5q-53 -63 -147 -90q-37 33 -51 129 q-6 39 -7 80q0 37 7 82q2 20 -37 33q-29 10 -56 10q-68 0 -86 -31q-10 -18 -10 -92zM1901 1196q0 -63 100 -98q39 -14 96 -13q90 2 168 41q27 15 27 29q0 43 -92 43q-29 0 -56 -12q-33 -14 -45 -17l-4 -2l-2 2l-2 5l-2 2q-4 4 -6 10q-2 10 0 18q2 4 6 9.5t10 11.5l2 2 q12 4 29 6h31q92 -2 92 41q0 37 -92 39q-131 6 -215 -45q-45 -29 -45 -72zM2284 877q-2 -39 12 -95q37 -150 211 -153q160 -2 325 141l7 6q20 16 10 39q-18 37 -88 37q-47 0 -78 -25l-31 -24q-104 -70 -139 -70h-2l-2 2q-4 4 -12 10q-31 47 -31 117q0 139 86 205l18 -12 q27 -25 88 -76q84 -70 146 -70q51 0 78 25q63 66 94 172q14 51 -66 63q-29 4 -61 -4q-43 -8 -49 -32q-12 -39 -25 -68q-121 106 -217 106t-172 -59q-92 -72 -102 -235zM2916 840q0 -49 6 -95q18 -104 76 -151q43 -37 150 -35q55 0 88 8q80 18 155 101q4 2 5 4q0 14 -66 18 q-96 4 -113 -14q-31 -33 -61 -55q-39 45 -51 133q78 2 129 8q217 27 217 170q0 119 -98 190q-35 27 -86 37q-74 12 -166 0q-133 -20 -172 -207q-12 -55 -13 -112zM3099 840q0 188 86 268q84 -67 84 -176q0 -84 -70 -121q-4 -2 -6 -2q-16 -8 -31 -12h-2q-25 -6 -49 -6h-10 q-2 25 -2 49z" />
<glyph unicode="&#x2022;" horiz-adv-x="565" d="M70 737q0 147 116 232q47 127 156 127q78 0 141 -68q63 -74 64 -178q-1 -56 -19 -111q-57 -166 -190 -233q-39 -20 -78 -21q-80 0 -135 76t-55 176z" />
<glyph unicode="&#x2026;" horiz-adv-x="1566" d="M61 135q0 102 58 133q20 10 26.5 17.5t12.5 13.5q10 20 20 41.5t31 32.5q14 8 31 8q31 0 53 -27q37 -45 37 -121q-1 -38 -11 -71q-45 -125 -139 -176q-16 -8 -33 -9q-39 0 -62.5 48.5t-23.5 109.5zM676 135q0 102 57 133q20 10 26.5 17.5t12.5 13.5q10 20 20.5 41.5 t30.5 32.5q14 8 31 8q31 0 53 -27q37 -45 37 -121q0 -38 -10 -71q-45 -125 -139 -176q-16 -8 -33 -9q-39 0 -62.5 48.5t-23.5 109.5zM1290 135q0 102 58 133q20 10 26 17.5t12 13.5q10 20 20.5 41.5t31.5 32.5q14 8 30 8q31 0 54 -27q37 -45 37 -121q-1 -38 -11 -71 q-45 -125 -139 -176q-16 -8 -33 -9q-39 0 -62.5 48.5t-23.5 109.5z" />
<glyph unicode="&#x202f;" horiz-adv-x="424" />
<glyph unicode="&#x2039;" horiz-adv-x="884" d="M66 614q0 6 4 15q61 90 168 213q174 201 178 205q16 20 91 31.5t157 4.5q145 -10 145 -49q0 -6 -6 -14q-109 -121 -316 -375q106 -18 187 -51q131 -55 215 -176q6 -6 6 -15q0 -39 -145 -49q-82 -4 -156 6q-35 6 -47 9q-35 8 -45 22q-82 117 -191 158q-20 4 -41 10 q-6 0 -16 2q-27 2 -43 4q-145 10 -145 49z" />
<glyph unicode="&#x203a;" horiz-adv-x="907" d="M66 182q0 10 4 21q117 266 403 377q-92 88 -194 223q-74 100 -105 168q-29 61 -29 96q0 25 11.5 50.5t91.5 41.5q74 16 155 8q158 -16 144 -80l2 3q-10 -27 4 -62q35 -94 164 -250q98 -121 164 -178q37 -33 37 -49q0 -29 -58 -49q-45 -18 -86 -21h-4q-18 -6 -27 -10 l-6 -4h-4q-47 -25 -94 -64q-16 -14 -16 -12q-111 -104 -166 -227q-12 -29 -92 -45q-72 -16 -154 -8q-145 14 -145 71z" />
<glyph unicode="&#x205f;" horiz-adv-x="530" />
<glyph unicode="&#x20ac;" horiz-adv-x="1812" d="M66 479q0 37 59 62q37 18 102 24q55 6 109 10q33 4 57 9l2 2l15 2q8 2 39 8q12 84 51 178q-37 8 -68 21q-57 29 -57 65q0 39 56 65.5t173 28.5q150 193 383.5 301.5t482.5 108.5q131 0 254 -31q98 -25 99 -80q0 -23 -27 -43q-59 -45 -164 -45q-27 0 -81 10.5t-81 10.5 q-31 0 -55 -6h-2q-98 -23 -190 -74q-8 -6 -19 -12q-82 -51 -149 -117q195 -2 360 -47q100 -29 101 -84q0 -23 -29 -43q-59 -49 -164 -49q-35 0 -156 26l-4 2h-6q-33 6 -67 9q-10 2 -27 2h-45q-53 0 -84 -2l-6 -3h-15q-23 -43 -36 -86q109 23 200 35q80 10 151.5 -8t94.5 -53 q8 -14 8 -27q0 -66 -147 -84q-106 -12 -338 -73q2 -25 8 -48q12 -35 31 -57l4 -4q12 -12 26 -21l7 -4h4l8 -2l10 -2h25h4q90 4 213 47l10 5q113 41 184 83l4 3q33 20 66 45q59 45 164 45q57 0 110 -15q98 -25 99 -78q0 -23 -27 -43q-147 -115 -407 -198q-219 -70 -435 -70 q-403 0 -491 232q-100 -16 -197 -21q-76 -2 -138 25.5t-62 64.5zM938 352q6 0 2 0h-2zM952 354h2l2 -2l2 2h-6zM958 352q15 0 3 0h-3zM1464 1186z" />
<glyph unicode="&#x2122;" horiz-adv-x="1038" d="M92 1339q0 12 21 21q49 16 104 0q2 -2 4 -2h4q4 -2 13 -4l-2 12q-2 14 71 14q31 0 53 -4q10 0 21 -10v-6l6 2q6 0 21 4l6 2q16 6 35 14q49 20 104 0q6 -4 10 -6q14 4 29 6q94 8 131 -14q14 -8 29 -29q20 -35 30 -92q66 37 166 23q33 -4 52.5 -13t27.5 -38q12 -39 0 -115 q-14 -84 -47 -123q-70 -82 -213 -66q-12 0 -33 9q-10 6 6 10q76 20 104.5 62t39.5 128q8 59 0 88q-29 -27 -94 -69q-12 -6 -43 -8h-39q-29 2 -45 8q-6 0 -9 6q-8 53 -34 158q-49 -74 -39 -195q8 -115 57 -192q2 -4 -20.5 -8.5t-53.5 -4.5q-29 0 -51 4q-35 6 -57 88 q-18 57 -21 113q-10 133 49 209q-47 -14 -98 -18q6 -102 10 -203q8 -117 47 -195q6 -14 -73 -14q-31 0 -52 4q-8 2 -20 10q-39 76 -47 193q-4 100 -10 198q-70 6 -129 25q-20 6 -21 18z" />
<glyph unicode="&#x25fc;" horiz-adv-x="1525" d="M0 0v1526h1526v-1526h-1526z" />
</font>
</defs>
</svg>
