<?xml version="1.0" standalone="no"?>
<!DOCTYPE svg PUBLIC "-//W3C//DTD SVG 1.1//EN" "http://www.w3.org/Graphics/SVG/1.1/DTD/svg11.dtd" >
<svg xmlns="http://www.w3.org/2000/svg" xmlns:xlink="http://www.w3.org/1999/xlink" version="1.1">
<metadata></metadata>
<defs>
<font id="philly_sansregular" horiz-adv-x="1179" >
<font-face units-per-em="2048" ascent="1536" descent="-512" />
<missing-glyph horiz-adv-x="532" />
<glyph horiz-adv-x="0" />
<glyph horiz-adv-x="682" />
<glyph unicode="&#xd;" horiz-adv-x="532" />
<glyph unicode=" "  horiz-adv-x="532" />
<glyph unicode="&#x09;" horiz-adv-x="532" />
<glyph unicode="&#xa0;" horiz-adv-x="532" />
<glyph unicode="-" horiz-adv-x="749" d="M61 690l596 12l-30 -213l-516 -22z" />
<glyph unicode="." horiz-adv-x="653" d="M164 141q0 68 51 109q50 35 123 35q65 0 106 -35q45 -36 45 -94q0 -63 -43 -103q-44 -41 -129 -41q-84 0 -124 47q-29 32 -29 82z" />
<glyph unicode="0" horiz-adv-x="1167" d="M41 502q0 106 47 203t126 166t185.5 110t221.5 41q144 0 260 -67.5t180.5 -184t64.5 -256.5q0 -87 -32.5 -164.5t-89 -135t-130 -99.5t-157.5 -63t-170 -21q-121 0 -218 37t-159.5 101t-95.5 149.5t-33 183.5zM350 510q0 -50 12.5 -95.5t38.5 -86t72.5 -64.5t108.5 -24 q79 0 133.5 41t79.5 104t30 145q4 70 -18.5 137.5t-75 115.5t-123.5 48q-75 0 -135.5 -48.5t-91.5 -121.5t-31 -151z" />
<glyph unicode="1" horiz-adv-x="659" d="M10 866l322 199l233 -47q-18 -228 -18 -432q0 -237 31 -561l-314 -29q-33 244 -33 444q0 129 17 299l-215 -63z" />
<glyph unicode="2" horiz-adv-x="1003" d="M12 985l252 143l23 -176q58 52 127.5 80.5t136.5 28.5q185 0 269.5 -83t84.5 -241q0 -55 -24.5 -107.5t-61.5 -94.5t-100 -89t-119 -81.5t-141 -81.5q37 -4 110 -4q115 0 365 24q8 1 24.5 3t24.5 3l-100 -270q-222 -16 -396 -16q-143 0 -348 10l-78 190q54 41 175 127 q102 75 151.5 113t110.5 90t85.5 88t24.5 66q0 59 -29.5 97t-91.5 38q-24 0 -48.5 -9t-50.5 -29.5t-42.5 -61t-17.5 -95.5l-2 2v-2l-162 -61z" />
<glyph unicode="3" horiz-adv-x="1036" d="M41 338l274 6q78 -123 230 -123q68 0 110.5 43.5t42.5 95.5q0 46 -45.5 72.5t-115.5 26.5q-91 0 -170 -39l-60 153q158 87 273 220q-107 -17 -244 -17q-109 0 -193 8l119 250q16 0 47 -1t47 -1q122 -4 189 -4q181 0 350 21l84 -183q-33 -34 -75 -67t-68.5 -50.5 t-81.5 -52.5q-114 -73 -121 -78l76 -6q121 -10 203.5 -88.5t82.5 -212.5q0 -137 -122.5 -232t-319.5 -95q-181 0 -306 88.5t-206 265.5z" />
<glyph unicode="4" horiz-adv-x="1042" d="M10 442q64 63 139.5 151.5t120.5 146t140 180.5q7 9 137 178l272 -99q-28 -225 -28 -546l231 2l-82 -232l-143 2v-63q0 -101 2 -187l-305 25q0 25 -1 64t-1 55t1 54.5t1 62.5l-435 12zM338 453l188 2l4 233q-17 -30 -90 -108q-3 -3 -15 -16.5t-15.5 -17.5t-14 -15.5 t-14.5 -16.5l-12 -15t-12.5 -16.5t-9.5 -14.5t-9 -15z" />
<glyph unicode="5" horiz-adv-x="1069" d="M41 274l301 21q89 -102 221 -102q87 0 136 47t49 135q0 62 -38.5 89.5t-121.5 27.5q-61 0 -142 -68l-215 51q-9 54 -14 80q-57 335 -82 436l113 70q395 -7 774 -29l-84 -209q-10 0 -29 1t-28 1q-120 6 -217 6q-85 0 -193 -6l27 -168l96 17q40 6 84 6q66 0 126 -17 t111.5 -52t82 -96.5t30.5 -143.5q0 -170 -114 -282t-312 -112q-179 0 -315.5 71.5t-245.5 225.5z" />
<glyph unicode="6" horiz-adv-x="1048" d="M41 389q0 95 32.5 194.5t94 192.5t160.5 173t221 128l307 -80v-34q-89 -11 -182.5 -63.5t-165.5 -125t-124.5 -155.5t-68.5 -156l68 55q53 45 139 74.5t174 32.5q142 0 227 -63.5t85 -205.5q0 -76 -34.5 -146.5t-98 -126.5t-163.5 -90t-220 -34q-99 0 -184.5 35.5 t-143.5 94.5t-90.5 137t-32.5 163zM393 264q0 -42 30.5 -73t100.5 -31q107 0 160 47.5t53 111.5q0 42 -37.5 73.5t-91.5 31.5q-83 0 -149 -50t-66 -110z" />
<glyph unicode="7" horiz-adv-x="983" d="M41 819l80 232l710 14l111 -191q-355 -399 -397 -931l-314 67q37 259 128.5 455.5t244.5 376.5z" />
<glyph unicode="8" horiz-adv-x="950" d="M12 287q0 93 58.5 169.5t160.5 104.5q-86 31 -132 91t-46 132q0 118 114.5 204.5t289.5 86.5q208 0 317 -77.5t109 -186.5q0 -67 -55.5 -129t-143.5 -94q96 -11 171 -80t75 -170q0 -59 -28 -115t-83.5 -104.5t-152.5 -80.5t-222 -38q-108 -5 -193.5 17.5t-136 64.5 t-76.5 94.5t-26 110.5zM330 315q0 -56 32.5 -82t129.5 -20q68 4 108.5 40.5t40.5 78.5q0 36 -34 62t-95 26q-83 0 -129 -31t-53 -74zM342 731q0 -39 35 -67.5t94 -28.5q78 0 119 31.5t43 81.5q0 36 -33.5 61t-97.5 25q-80 0 -120 -30t-40 -73z" />
<glyph unicode="9" horiz-adv-x="1003" d="M41 629q0 91 28.5 165t74.5 121.5t107 79t122.5 45t124.5 13.5q101 0 172 -33l67 70l215 -27q-32 -195 -32 -531q0 -323 28 -514l-321 -49q-15 176 -15 355q0 17 1 47.5t1 44.5q-123 -92 -254 -92q-98 0 -177.5 50t-116.5 132q-25 58 -25 123zM338 637q0 -102 90 -102 q29 0 70 21.5t79.5 56.5t66 88t28.5 108q-63 53 -154 53q-69 0 -124.5 -63.5t-55.5 -161.5z" />
<glyph unicode="A" horiz-adv-x="995" d="M-102 63q79 116 204 324q94 160 191 387q64 154 133 369l330 71q0 -66 15.5 -150.5t30.5 -138.5t48 -167q48 -166 125 -373q106 -284 223 -502l-358 43l-164 295l-324 -14l-180 -301zM412 383l237 12l-96 281z" />
<glyph unicode="B" horiz-adv-x="1030" d="M-41 989l229 84q182 -29 365 -84q203 -62 321 -131q140 -82 140 -168q0 -64 -41 -102q-35 -33 -137 -86h2q179 -36 266.5 -92t87.5 -140q0 -128 -223 -194q-139 -42 -461 -70q-182 -14 -223 -16q-104 -9 -166 -21q0 27 2 41q0 27 2 45v54q0 122 -25 301q-2 10 -43 217 q-2 11 -7 33t-7 34q-45 182 -82 295zM340 813q13 -27 45 -164l18 -108q155 0 232 41q63 34 63 90q0 21 -25 46t-71 46q-106 49 -262 49zM424 397l14 -202q111 9 195 24q79 13 135 37q61 23 61 53q0 27 -41 45q-83 35 -233 41q-47 2 -131 2z" />
<glyph unicode="C" horiz-adv-x="1189" d="M-63 635q0 269 182 424q77 65 173 98t193 33q149 0 265 -96q48 -37 86 -95l34 285l344 100l-147 -774l-293 -112q-31 143 -76 250q-43 109 -98 172q-67 77 -143 77q-77 0 -133 -79q-60 -84 -60 -185q0 -222 98 -379q111 -184 314 -184q82 0 155 49q77 49 111 135l385 70 q-90 -179 -270 -305q-198 -142 -414 -142q-337 0 -526 183q-180 174 -180 475z" />
<glyph unicode="D" horiz-adv-x="1165" d="M-84 940l209 152q236 0 500 -82q255 -79 422 -217q178 -147 178 -308q0 -108 -85.5 -209.5t-234.5 -179.5q-152 -79 -344.5 -123.5t-398.5 -44.5l-78 129q29 22 43 125q8 47 8 150q0 153 -110 399q-43 94 -109 209zM367 772q0 -1 10 -24q30 -68 53 -152q31 -114 39 -244 q2 -18 2 -47q0 -48 -8 -80q120 9 201 41q90 33 139 82q61 61 61 148q0 132 -176 211q-144 65 -321 65z" />
<glyph unicode="E" horiz-adv-x="925" d="M-57 899l182 141l676 -24l61 -211q-247 14 -401 14l-180 -6l30 -147l549 30l-24 -196l-512 -45q9 -91 12 -162l698 98l-102 -241l-856 -146q0 198 -43 490q-46 288 -90 405z" />
<glyph unicode="F" horiz-adv-x="806" d="M-37 940l57 80l742 -25l127 -243l-563 20q19 -34 41 -160l473 2l-39 -161l-406 -35q23 -212 23 -402q-70 -16 -146 -30q-11 -2 -100 -19l-51 -10q0 240 -37 498q-46 295 -121 485z" />
<glyph unicode="G" horiz-adv-x="1273" d="M-63 635q0 269 182 424q77 65 173 98t193 33q149 0 265 -96q48 -37 86 -95l34 285l344 100l-147 -692l-293 -112q-30 118 -76 208q-47 95 -98 144q-68 65 -143 65q-77 0 -133 -79q-60 -84 -60 -185q0 -222 98 -379q111 -184 314 -184q85 0 155 47q75 50 109 133l-377 4 l6 111l672 174l88 -92l-33 -721l-282 156l14 165q-170 -170 -385 -170q-337 0 -526 183q-180 174 -180 475z" />
<glyph unicode="H" horiz-adv-x="1013" d="M18 881v94l295 78q-2 -74 -2 -217q0 -150 6 -314l318 19l-2 80q0 38 -1 114t-1 115t1 118t1 119l295 78q-6 -169 -6 -338v-110q0 -174 10 -402q9 -215 33 -376l-41 -7q-39 -8 -97 -18l-143 -25q-25 135 -37 336q-4 52 -8 164l-313 -22q9 -151 30 -299l-41 -7 q-43 -9 -96 -18l-143 -25q-25 136 -37 299q-13 175 -16 312q-5 210 -5 252z" />
<glyph unicode="I" horiz-adv-x="483" d="M18 1012l283 65q125 -389 152 -1014l-275 -38q0 116 -28 342q-23 187 -64 378q-38 176 -68 267z" />
<glyph unicode="J" horiz-adv-x="921" d="M-270 281l159 53l19.5 6.5l22.5 7.5l18 6q30 10 51 19q17 5 35 12l12 4q73 -76 213 -153q146 -80 221 -80q92 0 128 20t36 88q0 49 -26.5 125t-77.5 199q-115 264 -140 383l308 96q29 -94 77 -213q122 -307 164 -457q31 -112 31 -194q0 -125 -162 -193q-144 -59 -375 -59 q-193 0 -397 98q-163 78 -317 232z" />
<glyph unicode="K" horiz-adv-x="1241" d="M31 854q0 128 16 246l309 -45q-14 -143 -14 -273q0 -109 18 -204q118 50 287 219q87 87 148 161l198 13q37 3 72 6l106 8h15q-190 -174 -303 -285q-34 -33 -158 -147q103 -76 287 -186q181 -108 282 -160q48 -28 99 -51q25 -14 43 -23l-328 -108q-135 71 -264 141 q-98 53 -115 63q-92 47 -229 129q-21 12 -56.5 33.5t-44.5 26.5q37 -169 70 -271l39 -114q-31 -4 -86 -12t-78 -11q-96 -14 -113 -16q-52 -9 -55 -12q-88 230 -127 567q-18 156 -18 305z" />
<glyph unicode="L" horiz-adv-x="772" d="M-37 971l281 86q87 -294 143 -772l594 86l-86 -254l-545 -105q-213 -8 -246 -8q0 221 -47 526q-51 327 -94 441z" />
<glyph unicode="M" horiz-adv-x="1544" d="M-20 1018l243 121q110 -74 256 -244q120 -140 219 -279q47 -63 68 -96q20 -33 20 -37q91 363 160 592q35 117 58 189q63 19 122 39l84 28q35 12 35 15q106 -277 187 -629q92 -401 92 -711l-152 -41q-16 -5 -55 -14q-8 -3 -16.5 -5.5t-18.5 -5l-14 -3.5q-28 -10 -49 -13 q0 195 -45 434q-16 82 -64 263q-1 5 -14 55q-33 -52 -74 -209q-44 -157 -78 -434l-219 -56q0 56 -57 191q-43 95 -131 238q-85 128 -136 174q31 -152 58 -357q10 -102 10 -166l-143 -37q-50 -14 -97 -24q-45 -12 -45 -14q0 284 -102 690q-58 217 -102 346z" />
<glyph unicode="N" horiz-adv-x="1202" d="M-43 1010l236 84q5 -5 83 -78q9 -8 74 -68q198 -182 367 -373q110 -127 162 -202q4 31 4 98q0 124 -19 279q-23 176 -69 389q-8 42 -29 129l-14 49l319 98q72 -248 113 -581q20 -167 20 -377q0 -190 -8 -310q-1 -28 -4 -79t-4 -74l-285 -80q-88 161 -305 424 q-80 95 -186 201q2 -2 12 -58q20 -119 35 -293q6 -86 6 -153l-342 -66q0 27 2 41q0 27 2 45v54q0 240 -86 596q-36 152 -84 305z" />
<glyph unicode="O" d="M-31 514q0 264 193 408q182 135 469 135q237 0 405 -133q79 -64 123.5 -156.5t44.5 -200.5q0 -112 -42 -211.5t-124 -171.5q-180 -159 -483 -159q-327 0 -477 178q-109 127 -109 311zM326 530q0 -162 57 -241q65 -90 215 -90q140 0 205 104q57 92 57 260q0 149 -82 238 q-76 82 -180 82q-120 0 -196 -95.5t-76 -257.5z" />
<glyph unicode="P" horiz-adv-x="1009" d="M-43 1010l236 84q165 -26 397 -97t387 -157q172 -98 172 -201q0 -131 -176 -211q-190 -86 -537 -86q16 -77 21 -152q4 -57 4 -155l-338 -66q0 27 2 41q0 27 2 45v54q0 240 -86 596q-36 152 -84 305zM348 813q17 -32 47 -172q1 -8 4 -24.5t4 -24.5t6 -33t7 -39 q157 0 276 35q55 16 80 35q29 19 29 39q0 22 -39 51q-92 71 -250 113q-79 20 -164 20z" />
<glyph unicode="Q" d="M-10 514q0 265 192 408q182 135 469 135q238 0 406 -133q79 -64 123.5 -156.5t44.5 -200.5q0 -112 -42 -211.5t-124 -171.5q-31 -27 -76 -57l107 -150l-218 -172l-120 236q-85 -16 -177 -16q-327 0 -477 178q-108 126 -108 311zM346 530q0 -162 57 -241q65 -90 215 -90 q20 0 52 4l-84 164l147 108l105 -145q43 85 43 233q0 149 -82 238q-76 82 -181 82q-120 0 -196 -95.5t-76 -257.5z" />
<glyph unicode="R" horiz-adv-x="1161" d="M-43 1010l236 84q203 -32 397 -86q259 -72 387 -138q172 -91 172 -190q0 -44 -28.5 -75t-82.5 -56q-59 -29 -110 -41q-21 -5 -123 -35q147 -58 242 -104q109 -55 200 -111q108 -67 170 -129q0 -1 -18 -10q-84 -35 -127 -51l-74 -29q-13 -6 -32.5 -13.5t-24.5 -9.5 q-21 -8 -27 -8q-1 0 -4 2.5t-10.5 8.5t-14.5 12q-83 69 -186 133q-130 80 -293 131q-86 22 -162 22q10 -78 13 -165q4 -118 4 -158l-338 -66q0 62 4 172v70q0 237 -86 565q-37 140 -84 275zM348 813q17 -32 47 -172q1 -8 4 -24.5t4 -24.5t6 -33t7 -39q157 0 276 35 q55 16 80 35q29 19 29 39q0 22 -39 51q-92 71 -250 113q-79 20 -164 20z" />
<glyph unicode="S" horiz-adv-x="1124" d="M-86 258l223 166q93 -101 266 -158q134 -45 287 -45q58 0 98 12q37 9 37 33q0 27 -63 56q-33 14 -162 65q-302 110 -420 174q-107 58 -166 116.5t-59 125.5q0 112 96 180q124 88 369 88q37 0 92 -8q80 -16 131 -43l-53 145l303 133l119 -604l-240 -57q-3 17 -12 37 q-16 44 -60.5 89.5t-107.5 65.5q-70 21 -139 21q-59 0 -99 -12q-41 -15 -41 -37q0 -30 64 -60q51 -24 160 -67q9 -3 27.5 -10.5t27.5 -10.5q252 -99 356 -153q221 -118 221 -244q0 -105 -112 -172q-133 -80 -379 -80q-221 0 -434 66q-234 72 -330 188z" />
<glyph unicode="T" horiz-adv-x="811" d="M-258 766l59 203q145 46 361 69q120 13 246 13q244 0 458 -11q142 -8 189 -10l-43 -194l-217 6q-13 1 -40 2t-40 2q-50 0 -70 2q-8 1 -25 2t-24 2h-18q-9 -83 -9 -141q0 -265 84 -650l-161 -47q-40 -14 -111 -32q-27 -9 -51 -15q-55 221 -72 381q-20 187 -20 479 q-143 0 -340 -30q-38 -7 -156 -31z" />
<glyph unicode="U" horiz-adv-x="1085" d="M-4 592q0 92 33 205q19 58 32 88l334 200q-52 -102 -84 -254q-16 -78 -16 -151q0 -188 51 -307q62 -144 197 -144q83 0 147 74q90 105 90 332q0 217 -92 366q-44 74 -90 109l326 160q103 -81 163 -277q31 -105 31 -250q0 -326 -188 -536q-90 -101 -214.5 -156t-269.5 -55 q-255 0 -366 194q-84 144 -84 402z" />
<glyph unicode="V" horiz-adv-x="849" d="M-205 1034l254 137q127 -194 252 -454q61 -136 100 -264q43 153 99 313q72 206 129 346q62 161 108 244l359 43q-142 -307 -238 -533q-97 -232 -164 -452q-68 -224 -125 -510l-282 69q-49 169 -121 353q-69 176 -184 385q-16 27 -93 161q-16 26 -47 81t-47 81z" />
<glyph unicode="W" d="M-72 915l275 175l166 -570l63 432l209 115l231 -569q24 106 35 258q6 76 6 176q0 165 -26 299q-11 56 -27 104l311 181q44 -137 66 -336q12 -108 12 -250q0 -256 -73 -578q-49 -214 -72 -295l-297 -143q-47 123 -96 240q-33 81 -93 208q-61 130 -96 187q-34 -84 -78 -303 l-12 -60t-12 -59q-3 -14 -8.5 -42t-8.5 -42l-245 -80z" />
<glyph unicode="X" horiz-adv-x="942" d="M-162 57l408 467q-23 29 -76 90q-15 18 -43 52.5t-43 52.5l-160 192l246 164l283 -383q117 136 182 230l323 26q-80 -96 -178 -194q-111 -117 -180 -209l428 -529l-338 -55q-31 44 -74 107q-6 8 -17 24.5t-17 24.5q-16 23 -54.5 78.5t-58.5 83.5l-68 83 q-52 -52 -116 -139q-87 -113 -131 -164z" />
<glyph unicode="Y" horiz-adv-x="823" d="M-27 778q0 120 29 275l283 -31q-31 -113 -31 -217q0 -69 14 -100q24 -60 78 -60q46 0 91.5 38t70.5 108q45 129 76 235q7 22 22 86l322 51q-36 -102 -78 -231q-3 -10 -10.5 -31t-10.5 -31q-86 -269 -127 -405q-5 -12 -14 -43l-80 -258q-15 -46 -43 -138.5t-43 -138.5 l-344 -75l256 669q-61 -46 -139 -69q-47 -13 -90 -13q-166 0 -213 201q-19 84 -19 178z" />
<glyph unicode="Z" horiz-adv-x="980" d="M-33 313l559 516q-1 -1 -26 -4q-16 -2 -64 -2q-14 -1 -43 -2t-45 -2q-17 -1 -50 -2t-50 -2l-273 -6l76 227l811 -2l117 -153l-606 -525l694 6l-100 -237l-942 -35z" />
<glyph unicode="a" horiz-adv-x="995" d="M-102 63q79 116 204 324q94 160 191 387q64 154 133 369l330 71q0 -66 15.5 -150.5t30.5 -138.5t48 -167q48 -166 125 -373q106 -284 223 -502l-358 43l-164 295l-324 -14l-180 -301zM412 383l237 12l-96 281z" />
<glyph unicode="b" horiz-adv-x="1030" d="M-41 989l229 84q182 -29 365 -84q203 -62 321 -131q140 -82 140 -168q0 -64 -41 -102q-35 -33 -137 -86h2q179 -36 266.5 -92t87.5 -140q0 -128 -223 -194q-139 -42 -461 -70q-182 -14 -223 -16q-104 -9 -166 -21q0 27 2 41q0 27 2 45v54q0 122 -25 301q-2 10 -43 217 q-2 11 -7 33t-7 34q-45 182 -82 295zM340 813q13 -27 45 -164l18 -108q155 0 232 41q63 34 63 90q0 21 -25 46t-71 46q-106 49 -262 49zM424 397l14 -202q111 9 195 24q79 13 135 37q61 23 61 53q0 27 -41 45q-83 35 -233 41q-47 2 -131 2z" />
<glyph unicode="c" horiz-adv-x="1056" d="M6 629q0 243 164 383q139 116 330 116q195 0 325 -116q150 -136 199 -404l-264 -102q-29 128 -66 215q-44 98 -86 147q-58 68 -129 68q-67 0 -112 -65t-45 -158q0 -206 77 -328q92 -154 273 -154q111 0 169 26t91 75l334 30q-143 -161 -265 -229q-168 -94 -358 -94 q-308 0 -475 164q-162 159 -162 426z" />
<glyph unicode="d" horiz-adv-x="1165" d="M-84 940l209 152q236 0 500 -82q255 -79 422 -217q178 -147 178 -308q0 -108 -85.5 -209.5t-234.5 -179.5q-152 -79 -344.5 -123.5t-398.5 -44.5l-78 129q29 22 43 125q8 47 8 150q0 153 -110 399q-43 94 -109 209zM367 772q0 -1 10 -24q30 -68 53 -152q31 -114 39 -244 q2 -18 2 -47q0 -48 -8 -80q120 9 201 41q90 33 139 82q61 61 61 148q0 132 -176 211q-144 65 -321 65z" />
<glyph unicode="e" horiz-adv-x="925" d="M-57 899l182 141l676 -24l61 -211q-247 14 -401 14l-180 -6l30 -147l549 30l-24 -196l-512 -45q9 -91 12 -162l698 98l-102 -241l-856 -146q0 198 -43 490q-46 288 -90 405z" />
<glyph unicode="f" horiz-adv-x="806" d="M-37 940l57 80l742 -25l127 -243l-563 20q19 -34 41 -160l473 2l-39 -161l-406 -35q23 -212 23 -402q-70 -16 -146 -30q-11 -2 -100 -19l-51 -10q0 240 -37 498q-46 295 -121 485z" />
<glyph unicode="g" horiz-adv-x="1157" d="M-63 635q0 269 182 424q77 65 173 98t193 33q108 0 214 -47t192 -125q80 -76 128 -164t48 -162l-293 -112q-30 118 -76 208q-47 95 -98 144q-68 65 -143 65q-77 0 -133 -79q-60 -84 -60 -185q0 -222 98 -379q111 -184 314 -184q85 0 155 47q75 50 109 133l-375 8l-12 146 l643 78l72 -35l-33 -555l-221 -72l16 230q-173 -173 -387 -173q-337 0 -526 183q-180 174 -180 475z" />
<glyph unicode="h" horiz-adv-x="903" d="M18 881v94l295 78q-6 -92 -6 -195q0 -20 1 -63.5t1 -67.5l6 -207l279 19q-4 114 -4 163v136q0 88 2 127l295 77q-6 -138 -6 -270q0 -170 10 -405q9 -180 33 -347l-41 -6q-39 -8 -97 -18l-143 -25q-33 168 -43 414l-274 -20q10 -157 30 -297l-41 -7q-43 -9 -96 -18 l-143 -25q-25 136 -37 299q-13 175 -16 312q-5 210 -5 252z" />
<glyph unicode="i" horiz-adv-x="483" d="M18 1012l283 65q125 -389 152 -1014l-275 -38q0 116 -28 342q-23 187 -64 378q-38 176 -68 267z" />
<glyph unicode="j" horiz-adv-x="921" d="M-270 281l159 53l19.5 6.5l22.5 7.5l18 6q30 10 51 19q17 5 35 12l12 4q73 -76 213 -153q146 -80 221 -80q92 0 128 20t36 88q0 49 -26.5 125t-77.5 199q-115 264 -140 383l308 96q29 -94 77 -213q122 -307 164 -457q31 -112 31 -194q0 -125 -162 -193q-144 -59 -375 -59 q-193 0 -397 98q-163 78 -317 232z" />
<glyph unicode="k" horiz-adv-x="1241" d="M31 854q0 128 16 246l309 -45q-14 -143 -14 -273q0 -109 18 -204q118 50 287 219q87 87 148 161l198 13q37 3 72 6l106 8h15q-190 -174 -303 -285q-34 -33 -158 -147q103 -76 287 -186q181 -108 282 -160q48 -28 99 -51q25 -14 43 -23l-328 -108q-135 71 -264 141 q-98 53 -115 63q-92 47 -229 129q-21 12 -56.5 33.5t-44.5 26.5q37 -169 70 -271l39 -114q-31 -4 -86 -12t-78 -11q-96 -14 -113 -16q-52 -9 -55 -12q-88 230 -127 567q-18 156 -18 305z" />
<glyph unicode="l" horiz-adv-x="772" d="M-37 971l281 86q87 -294 143 -772l594 86l-86 -254l-545 -105q-213 -8 -246 -8q0 221 -47 526q-51 327 -94 441z" />
<glyph unicode="m" horiz-adv-x="1339" d="M-20 979l260 108q99 -65 221 -219q80 -100 176 -250q30 -45 51 -86q17 -31 17 -32q78 302 124 532q24 119 31 168q28 7 72 19t59 16l90 27q37 9 37 12q95 -245 168 -565q82 -375 82 -639q-100 -28 -141 -37l-144 -37q0 193 -36 356q-21 93 -66 252q-37 -68 -55 -155 q-36 -158 -58 -357l-239 -49q0 84 -78 240q-71 140 -156 221q25 -125 39 -254q6 -70 6 -135q-167 -37 -250 -56q-47 -9 -47 -12q0 257 -82 621q-51 213 -81 311z" />
<glyph unicode="n" horiz-adv-x="1202" d="M-2 1010l235 84q149 -139 320 -322q176 -192 326 -399q-48 134 -72 340q-19 138 -27 319l-6 103l-2 39l320 98q-7 -58 -7 -133q0 -143 17 -418q13 -205 41 -492l24 -229l-284 -66q-98 180 -287 404q-91 105 -166 182q2 -2 8 -47q14 -107 23 -252q4 -102 4 -145l-342 -66 q0 27 2 41q0 27 2 45v54q0 232 -18 403q-31 260 -111 457z" />
<glyph unicode="o" horiz-adv-x="933" d="M-49 518q0 213 158 332q144 108 378 108q201 0 328 -106q137 -114 137 -289q0 -188 -135 -311q-145 -129 -391 -129q-263 0 -385 143q-90 103 -90 252zM281 530q0 -105 40.5 -160t139.5 -55q89 0 129.5 64.5t40.5 175.5q0 98 -50 153.5t-120 55.5q-81 0 -130.5 -62.5 t-49.5 -171.5z" />
<glyph unicode="p" horiz-adv-x="1009" d="M-43 1010l236 84q165 -26 397 -97t387 -157q172 -98 172 -201q0 -131 -176 -211q-190 -86 -537 -86q16 -77 21 -152q4 -57 4 -155l-338 -66q0 27 2 41q0 27 2 45v54q0 240 -86 596q-36 152 -84 305zM348 813q17 -32 47 -172q1 -8 4 -24.5t4 -24.5t6 -33t7 -39 q157 0 276 35q55 16 80 35q29 19 29 39q0 22 -39 51q-92 71 -250 113q-79 20 -164 20z" />
<glyph unicode="q" d="M-10 514q0 265 192 408q182 135 469 135q238 0 406 -133q79 -64 123.5 -156.5t44.5 -200.5q0 -137 -62 -251.5t-182 -188.5l109 -150l-218 -172l-120 236q-88 -16 -177 -16q-327 0 -477 178q-108 126 -108 311zM346 530q0 -162 57 -241q65 -90 215 -90h27q9 0 25 4 l-84 164l147 108l105 -145q43 87 43 233q0 149 -82 238q-76 82 -181 82q-120 0 -196 -95.5t-76 -257.5z" />
<glyph unicode="r" horiz-adv-x="925" d="M-68 913l191 68q180 -32 321 -70q219 -59 314 -110q141 -76 141 -156q0 -65 -70 -106q-54 -31 -170 -62q159 -66 326 -172q88 -60 131 -106q-14 -7 -41 -19l-98 -39q-85 -32 -100 -37q-46 -18 -50 -18l-18 23q-49 52 -133 120q-100 80 -221 123q-61 21 -127 21 q0 -5 1 -21t1 -26q4 -38 8 -129q0 -70 2 -101v-71l-272 12q0 49 4 139v57q0 197 -70 459q-30 115 -70 221zM250 756q17 -33 37 -119q3 -14 8 -40t8 -38q272 0 272 68q0 18 -24 39q-53 47 -174 75q-59 15 -127 15z" />
<glyph unicode="s" horiz-adv-x="1099" d="M-88 258l223 166q93 -101 266 -158q134 -45 287 -45q58 0 98 12q37 9 37 33q0 27 -63 56q-33 14 -162 65q-302 110 -420 174q-107 58 -166 116.5t-59 125.5q0 112 96 180q124 88 369 88q205 0 379 -67q187 -72 280 -193l-274 -94q-53 60 -168 102q-85 31 -184 31 q-59 0 -99 -12q-41 -15 -41 -37q0 -30 64 -60q51 -24 160 -67q9 -3 27.5 -10.5t27.5 -10.5q252 -99 356 -153q221 -118 221 -244q0 -105 -112 -172q-133 -80 -379 -80q-221 0 -434 66q-234 72 -330 188z" />
<glyph unicode="t" horiz-adv-x="811" d="M-176 664l59 202q80 31 273 52q105 10 231 10q255 0 428 -10l71.5 -5.5t86.5 -5.5l-43 -198l-189 4q-61 0 -131 4q-33 0 -43 2h-16q-10 -78 -11 -172q0 -213 52 -465l-160 -29q-39 -8 -59 -10q-89 -14 -101 -16q-25 125 -38.5 266t-15 217.5t-1.5 194.5q-146 0 -289 -21 q-66 -10 -104 -20z" />
<glyph unicode="u" horiz-adv-x="868" d="M-12 553q0 86 26 166q5 22 27 72l270 161q-24 -93 -35 -204q-6 -58 -6 -123q0 -131 35 -211q42 -99 127 -99q51 0 96 56q54 71 54 217q0 171 -54 297q-20 50 -53 88l264 129q84 -69 133 -223q25 -86 25 -203q0 -264 -154 -434q-155 -172 -391 -172q-207 0 -297 157 q-67 116 -67 326z" />
<glyph unicode="v" horiz-adv-x="890" d="M-164 1034l275 158q143 -208 286 -490q70 -146 107 -270q55 205 131 412q81 221 143 327l359 43q-121 -226 -224 -501q-64 -171 -125 -373q-33 -112 -48 -167t-30.5 -139.5t-15.5 -150.5l-329 72q-73 221 -134 369q-95 224 -190 387q-90 146 -205 323z" />
<glyph unicode="w" d="M-72 915l275 175l166 -570l63 432l209 115l231 -569q24 106 35 258q6 76 6 176q0 165 -26 299q-11 56 -27 104l311 181q44 -137 66 -336q12 -108 12 -250q0 -256 -73 -578q-49 -214 -72 -295l-297 -143q-47 123 -96 240q-33 81 -93 208q-61 130 -96 187q-34 -84 -78 -303 l-12 -60t-12 -59q-3 -14 -8.5 -42t-8.5 -42l-245 -80z" />
<glyph unicode="x" horiz-adv-x="995" d="M-80 78l408 467q-125 143 -168 196q-16 18 -43.5 53.5t-32.5 41.5l-78 96l266 82l281 -301q24 35 81 113t83 116l323 27q-158 -190 -338 -424l347 -426l-277 -76q-75 94 -254 301q-6 6 -17.5 19.5t-17.5 19.5q-52 -52 -116 -139q-87 -113 -131 -164z" />
<glyph unicode="y" horiz-adv-x="823" d="M-27 778q0 120 29 275l283 -31q-31 -113 -31 -217q0 -69 14 -100q24 -60 78 -60q46 0 91.5 38t70.5 108q45 129 76 235q7 22 22 86l322 51q-36 -102 -78 -231q-3 -10 -10.5 -31t-10.5 -31q-86 -269 -127 -405q-5 -12 -14 -43l-80 -258q-15 -46 -43 -138.5t-43 -138.5 l-344 -75l256 669q-61 -46 -139 -69q-47 -13 -90 -13q-166 0 -213 201q-19 84 -19 178z" />
<glyph unicode="z" horiz-adv-x="980" d="M-33 313l559 516q-1 -1 -26 -4q-16 -2 -64 -2q-14 -1 -43 -2t-45 -2q-17 -1 -50 -2t-50 -2l-273 -6l76 227l811 -2l117 -153l-606 -525l694 6l-100 -237l-942 -35z" />
<glyph unicode="&#xad;" horiz-adv-x="749" d="M61 690l596 12l-30 -213l-516 -22z" />
<glyph unicode="&#x2000;" horiz-adv-x="758" />
<glyph unicode="&#x2001;" horiz-adv-x="1516" />
<glyph unicode="&#x2002;" horiz-adv-x="758" />
<glyph unicode="&#x2003;" horiz-adv-x="1516" />
<glyph unicode="&#x2004;" horiz-adv-x="505" />
<glyph unicode="&#x2005;" horiz-adv-x="379" />
<glyph unicode="&#x2006;" horiz-adv-x="252" />
<glyph unicode="&#x2007;" horiz-adv-x="252" />
<glyph unicode="&#x2008;" horiz-adv-x="189" />
<glyph unicode="&#x2009;" horiz-adv-x="303" />
<glyph unicode="&#x200a;" horiz-adv-x="84" />
<glyph unicode="&#x2010;" horiz-adv-x="749" d="M61 690l596 12l-30 -213l-516 -22z" />
<glyph unicode="&#x2011;" horiz-adv-x="749" d="M61 690l596 12l-30 -213l-516 -22z" />
<glyph unicode="&#x2012;" horiz-adv-x="749" d="M61 690l596 12l-30 -213l-516 -22z" />
<glyph unicode="&#x2013;" horiz-adv-x="1177" d="M61 690l1024 12l-52 -213l-886 -22z" />
<glyph unicode="&#x2014;" horiz-adv-x="2201" d="M61 690l2048 12l-103 -213l-1773 -22z" />
<glyph unicode="&#x202f;" horiz-adv-x="303" />
<glyph unicode="&#x205f;" horiz-adv-x="379" />
<glyph unicode="&#x25fc;" horiz-adv-x="1013" d="M0 0v1014h1014v-1014h-1014z" />
</font>
</defs>
</svg>
