<?xml version="1.0" standalone="no"?>
<!DOCTYPE svg PUBLIC "-//W3C//DTD SVG 1.1//EN" "http://www.w3.org/Graphics/SVG/1.1/DTD/svg11.dtd" >
<svg xmlns="http://www.w3.org/2000/svg" xmlns:xlink="http://www.w3.org/1999/xlink" version="1.1">
<metadata></metadata>
<defs>
<font id="bauhaus_sketchregular" horiz-adv-x="813" >
<font-face units-per-em="2048" ascent="1638" descent="-410" />
<missing-glyph horiz-adv-x="614" />
<glyph horiz-adv-x="0" />
<glyph unicode="&#xd;" horiz-adv-x="614" />
<glyph unicode=" "  horiz-adv-x="614" />
<glyph unicode="&#x09;" horiz-adv-x="614" />
<glyph unicode="&#xa0;" horiz-adv-x="614" />
<glyph unicode="!" horiz-adv-x="321" d="M4 94v12h88v82h-88v11h88v176h-88v10h88v641h-88v10h88v88h10v-88h82v88h11v-88h88v-10h-88v-641h88v-10h-88v-176h88v-11h-88v-82h88v-12h-88v-86h-11v86h-82v-86h-10v86h-88zM102 106h11q-7 5 -11 11v-11zM102 147q0 -41 41 -41t41 41t-41 41t-41 -41zM102 178 q4 6 11 10h-11v-10zM102 199h82v176h-82v-176zM102 385h82v641h-82v-641zM174 106h10v11q-4 -6 -10 -11zM174 188q6 -4 10 -10v10h-10z" />
<glyph unicode="'" horiz-adv-x="505" d="M12 741v11h88v180h-88v10h88v80h-88v10h88v88h11v-88h176v88h10v-88h82v88h10v-88h88v-10h-88v-80h88v-10h-88v-180h88v-11h-88v-88h-10v88h-82v-88h-10v88h-176v-88h-11v88h-88zM111 752h176v14q-8 70 -58.5 117t-117.5 49v-180zM111 942h176v10q-76 66 -176 70v-80z M168 932q86 -31 119 -119v119h-119zM180 1022q60 -16 107 -57v57h-107zM297 752l80 2q-2 102 -72 178h-8v-166v-14zM297 956q6 -8 14 -14h68v80h-82v-66zM319 932q43 -51 60 -117v117h-60z" />
<glyph unicode="," horiz-adv-x="454" d="M23 -2h88v88h10v-88h176v88h10v-88h82v88h10v-88h88v-10h-88v-178h88v-11h-88v-80h88v-10h-88v-88h-10v88h-82v-88h-10v88h-176v-88h-10v88h-88v10h88v80h-88v11h88v178h-88v10zM121 -12v-178q70 2 120 48.5t56 114.5v15h-176zM121 -201v-80q100 2 176 70v10h-176z M178 -190h119v116q-31 -88 -119 -116zM190 -281h107v56q-47 -39 -107 -56zM307 -12v-15v-163h10q68 76 70 178h-80zM307 -215v-66h82v80h-67q-7 -8 -15 -14zM332 -190h57v114q-14 -65 -57 -114z" />
<glyph unicode="." horiz-adv-x="356" d="M12 88v10h88v82h-88v10h88v89h11v-89h82v89h10v-89h88v-10h-88v-82h88v-10h-88v-88h-10v88h-82v-88h-11v88h-88zM111 98h10q-6 4 -10 11v-11zM111 139q0 -41 41 -41t41 41t-41 41t-41 -41zM111 170q4 6 10 10h-10v-10zM182 98h11v11q-5 -7 -11 -11zM182 180q7 -4 11 -10 v10h-11z" />
<glyph unicode="0" horiz-adv-x="798" d="M16 104v11h88v80h-88v10h88v178h-88v10h88v363h-88v10h88v178h-88v10h88v80h-88v10h88v89h11v-89h84v89h10v-89h362v89h11v-89h82v89h10v-89h88v-10h-88v-80h88v-10h-88v-178h88v-10h-88v-363h88v-10h-88v-178h88v-10h-88v-80h88v-11h-88v-88h-10v88h-82v-88h-11v88h-362 v-88h-10v88h-84v-88h-11v88h-88zM115 115h84v63q-11 7 -17 17h-67v-80zM115 205h57q-41 47 -57 106v-106zM115 383q1 -102 71 -178h13v176zM115 393h84v363h-84v-363zM115 766l84 2v176h-13q-70 -76 -71 -178zM115 838q16 59 57 106h-57v-106zM115 954h67q7 11 17 17v63h-84 v-80zM209 115h102q-57 16 -102 53v-53zM209 182q76 -68 180 -67q104 0 182 69v11h-362v-13zM209 205h362v117q-33 -88 -118 -117h-125q-88 31 -119 119v-119zM209 383q0 -74 53 -126t127 -52q72 0 123 47t59 117v14h-362zM209 393h362v363h-362v-363zM209 766h362v14 q-8 70 -59 117t-123 47q-74 0 -127 -52t-53 -126zM209 825q31 88 119 119h125q86 -29 118 -117v117h-362v-119zM209 954h362v11q-78 70 -182 69q-104 0 -180 -67v-13zM209 981q45 37 102 53h-102v-53zM465 115h106v55q-47 -39 -106 -55zM465 1034q59 -16 106 -55v55h-106z M582 115h82v80h-68q-8 -8 -14 -17v-63zM582 205h8q70 76 72 178h-80v-14v-164zM582 393h82v363h-82v-363zM582 766h80q-2 102 -72 178h-8v-164v-14zM582 969q6 -6 14 -15h68v80h-82v-65zM604 205h60v114q-17 -65 -60 -114zM604 944q43 -51 60 -115v115h-60z" />
<glyph unicode="1" horiz-adv-x="313" d="M0 106v13h88v917h-88v11h88v88h10v-88h82v88h10v-88h89v-11h-89v-917h89v-13h-89v-86h-10v86h-82v-86h-10v86h-88zM98 119h82v917h-82v-917z" />
<glyph unicode="2" horiz-adv-x="780" d="M0 94v10h88v84h-88v11h88v82h-88v10h88v176h-88v10h88v80h-88v10h88v178h-88v11h88v180h-88v10h88v80h-88v10h88v88h10v-88h82v109h10v-109h363v88h10v-88h84v88h10v-88h88v-10h-88v-80h88v-10h-88v-180h86l2 -11h-88v-178h86v-10h-86v-80h86v-10h-86v-88h-10v88h-84v-88 h-10v88h-176v-176h88v-10h-88v-82h270v88h10v-88h88v-11h-88v-84h88v-10h-88v-88h-10v88h-549v-88h-10v88h-88zM98 104h549v84h-549v-84zM98 199h82v82h-82v-82zM98 354q14 63 58 113h-58v-113zM98 477h66q8 9 16 19v61h-82v-80zM98 567h82v178h-82v-178zM98 756l82 4v176 h-12q-68 -76 -70 -180zM98 829q17 60 58 107h-58v-107zM98 946h66q8 9 16 17v63h-82v-80zM100 293l80 -2v14v162h-12q-66 -76 -68 -174zM190 199h177v82h-177v-82zM190 291h177v176h-29q-59 -10 -100 -55t-48 -107v-14zM190 352q31 82 111 115h-111v-115zM190 477h148 q14 2 29 2v78h-35q-81 -13 -142 -68v-12zM190 504q43 37 97 53h-97v-53zM190 567h142q16 2 35 2v176h-177v-178zM190 756h177v88h10v-88h176v12q0 70 -54.5 119t-125.5 49q-74 0 -127.5 -52t-55.5 -128zM190 817q31 88 121 119h125q86 -31 117 -119v119h-363v-119zM190 946 h363v10q-78 70 -180 70q-105 0 -183 -68v-12zM190 971q47 39 105 55h-105v-55zM377 477q102 2 176 70v10h-176v-80zM377 569q72 0 124 48.5t52 117.5v10h-176v-176zM434 567h119v119q-31 -88 -119 -119zM449 477h104v55q-47 -39 -104 -55zM449 1026q57 -16 104 -57v57h-104z M563 477h84v80h-69q-6 -8 -15 -14v-66zM563 567h10q68 76 70 178h-78l-2 -10v-168zM563 770q2 -6 2 -14l80 2q-2 102 -72 178h-10v-166zM563 961l15 -15h69v80h-84v-65zM588 567h59v117q-16 -66 -59 -117zM588 936q43 -51 59 -117v117h-59z" />
<glyph unicode="3" horiz-adv-x="782" d="M0 106v11h88v82h-88v10h88v176h-88v10h88v88h10v-88h82v88h10v-88h177v176h-88v11h88v82h-88v10h88v176h-177v-88h-10v88h-82v-88h-10v88h-88v10h88v176h-88v11h88v83h-88v11h88v88h10v-88h82v88h10v-88h177v88h10v-88h180v88h10v-88h78v88h12v-88h86v-11h-86v-83h86v-11 h-86v-362h86v-10h-86v-82h86v-11h-86v-362h86v-10h-86v-82h86v-11h-86v-88h-12v88h-78v-88h-10v88h-180v-88h-10v88h-177v-88h-10v88h-82v-88h-10v88h-88zM98 117h82v63q-8 10 -16 19h-66v-82zM98 209h56q-41 49 -56 113v63h82v-14v14l-80 -2q2 -98 68 -174h12v176h-82v-176 zM98 924q15 63 56 112h-56v-112zM98 1047h66q8 10 16 18v65h-82v-83zM100 862l80 -2v14v162h-12q-66 -76 -68 -174zM190 117h107q37 -10 76 -11q39 0 76 11h108v55q-80 -68 -184 -66q-102 0 -183 66v-55zM190 186q77 -67 177 -69v78q-14 2 -29 4h-148v-13zM190 209h111 q-80 33 -111 115v-115zM190 371q6 -61 47.5 -105.5t100.5 -56.5h29v176h-177v-14zM190 860h177v176h-17q-63 -6 -107 -51t-53 -111v-14zM190 922q31 81 111 114h-111v-114zM190 1047h148q15 2 29 4v79q-100 -4 -177 -69v-14zM190 1073q48 41 107 57h-107v-57zM377 117 q102 -1 180 69v13h-178zM377 209h33q63 12 105 63.5t42 118.5q0 70 -48 121t-118 59h-14v-176h88v-10h-88v-176zM377 582h10q70 4 129 41q-63 37 -137 39zM377 674q74 2 127 55t53 127q0 70 -48 122t-118 58h-14v-176h88v-10h-88v-176zM377 1047h180v10q-76 68 -178 69 l-2 -77q8 0 14 -2h-14v83h69q61 -18 111 -59v59h-180v-83zM436 209h121v119q-31 -88 -121 -119zM436 674h121v119q-31 -88 -121 -119zM438 571q88 -30 119 -118v118h-119zM438 1036q88 -30 119 -118v118h-119zM440 664q45 -10 86 -35q15 10 31 22v13h-117zM449 582h108v10 q-16 12 -31 22q-37 -23 -77 -32zM535 623q12 -9 22 -17v33q-10 -10 -22 -16zM567 117h78v82h-61l-17 -17v-65zM567 209h11q68 78 67 180q0 104 -70 182h-8v-362zM567 596q6 -6 15 -14h63v82h-61l-17 -17v-51zM567 674h11q68 78 67 180q0 104 -70 182h-8v-362zM567 1061 q6 -6 15 -14h63v83h-78v-69zM590 571q39 -47 55 -106v106h-55zM590 1036q39 -47 55 -104v104h-55zM592 209h53v104q-14 -57 -53 -104zM592 674h53v104q-14 -57 -53 -104z" />
<glyph unicode="4" horiz-adv-x="798" d="M2 471v10h88v80h-88v10h88v179h-88v10h88v270h-88v10h88v88h10v-88h82v88h11v-88h88v-10h-88v-270h356v268h-88v10h88v88h10v-88h82v88h10v-88h88v-10h-88v-268h94v-10h-90q0 -20 -4 -43v-136h94v-10h-94v-80h94v-10h-94v-362h88v-11h-88v-88h-10v88h-82v-88h-10v88h-88 v11h88v362h-356v-88h-11v88h-82v-88h-10v88h-88zM100 481h82v64l-16 16h-66v-80zM100 571h56q-39 47 -56 107v-107zM100 750q0 -102 70 -179h12v177zM100 760h82v270h-82v-270zM193 481h104q-57 17 -104 54v-54zM193 549q78 -68 180 -68q100 0 176 64v16h-356v-12zM193 571 h356v103q-35 -76 -113 -103h-125q-88 31 -118 119v-119zM193 750q2 -74 54 -126.5t128 -52.5q61 0 109 37t65 97v45h-356zM449 481h100v51q-45 -35 -100 -51zM559 109h82v362h-82v-362zM559 481h82v80h-61q-10 -10 -21 -20v-60zM559 555l6 6h-6v-6zM559 571h16q53 59 66 138 v41h-76q0 -25 -6 -48v-131zM559 760h82v268h-82v-268zM590 571h51v95q-16 -54 -51 -95z" />
<glyph unicode="5" horiz-adv-x="790" d="M10 88v10h88v82h-88v10h88v89h11v-89h268v89h10v-84q45 0 84 20v320q-25 14 -53 18h-31v-88h-10v88h-174v-88h-13v88h-81v-88h-11v88h-88v10h88v80h-88v10h88v181h-88v10h88v82h-88v10h88v82h-88v12h88v86h11v-86h81v86h13v-86h454v86h11v-86h88v-12h-88v-82h88v-10h-88 v-88h-11v88h-270v-82h88v-10h-88v-177q20 0 39 -4h45v92h10v-92h82v92h10v-92h80v92h11v-92h92v-10h-92v-80h92v-10h-92v-137q4 -20 4 -43q0 -20 -4 -41v-142h92v-10h-92v-82h92v-10h-92v-88h-11v88h-80v-88h-10v88h-82v-88h-10v88h-84v-88h-10v88h-268v-88h-11v88h-88z M109 98h268v82h-268v-82zM109 563h81v66l-14 14h-67v-80zM109 653h59q-43 51 -59 115v-115zM109 844h81v82h-81v-82zM109 936h81v82h-81v-82zM111 831q2 -102 71 -178h8v166v15zM203 563h104q-59 17 -104 58v-58zM203 633q74 -68 174 -70v80h-174v-10zM203 653h116 q-85 31 -116 119v-119zM203 819q6 -70 56 -117t118 -49v181h-174v-15zM203 844h174v82h-174v-82zM203 936h454v82h-454v-82zM377 643zM387 567q16 0 31 -4h53v70q-23 6 -45 10h-37zM389 100q41 1 82 15v65h-80zM440 190h31v13q-14 -6 -31 -13zM453 98h18v6q-10 -4 -18 -6z M455 553q8 -2 16 -6v6h-16zM481 98h82v56q-37 -32 -82 -48v-8zM481 119q45 16 82 49v12h-82v-61zM481 190h82v113q-25 -61 -82 -94v-19zM481 221q68 41 82 121v68q-14 77 -82 118v-307zM481 541q57 -33 82 -95v107h-82v-12zM481 563h82v17q-37 31 -82 49v-66zM481 639 q45 -16 82 -47v51h-82v-4zM573 98h80v82h-61q-8 -8 -19 -16v-66zM573 190h15q53 61 65 142v84q-12 78 -63 137h-17v-143q4 -16 5 -35q0 -16 -5 -35v-150zM573 563h7l-7 6v-6zM573 584l21 -21h59v80h-80v-59zM600 190h53v97q-16 -54 -53 -97zM602 553q35 -41 51 -92v92h-51z " />
<glyph unicode="6" horiz-adv-x="815" d="M27 88v10h88v82h-88v10h88v365h-88v10h88v80h-88v10h88v82h-88v11h88v178h-88v12h88v78h-88v10h88v88h10v-88h82v88h10v-88h176v88h10v-88h89v-10h-89v-78h89v-12h-89v-178h89v-11h-89v-82h177v88h10v-88h82v88h12v-88h86v-10h-86v-80h86v-10h-86v-365h86v-10h-86v-82h86 v-10h-86v-88h-12v88h-82v-88h-10v88h-363v-88h-10v88h-82v-88h-10v88h-88zM125 98h82v64q-10 8 -19 18h-63v-82zM125 190h53q-37 47 -53 105v-105zM125 371q0 -102 68 -181h14v365h-12q-70 -78 -70 -184zM125 449q16 59 55 106h-55v-106zM125 565h65l17 17v63h-82v-80z M125 655h82v82h-82v-82zM125 811q16 66 59 115h-59v-115zM125 938h68q8 6 14 14v64h-82v-78zM127 750l80 -2v14v164h-10q-68 -76 -70 -176zM203 180l4 -4v4h-4zM217 98h363v56q-47 -39 -107 -56h-151q-57 16 -105 54v-54zM217 166q78 -68 180 -68q105 0 183 70v12h-363v-14z M217 190h363v117q-31 -86 -119 -117h-125q-88 31 -119 121v-121zM217 373q0 -76 53 -129.5t129 -53.5t128.5 53.5t52.5 129.5t-52.5 129t-128.5 53t-129 -53t-53 -129zM217 436q31 88 119 119h125q88 -31 119 -117v117h-363v-119zM217 565h363v10q-78 70 -183 70 q-102 0 -180 -67v-13zM217 590q47 39 105 55h-105v-55zM217 655h176v82h-176v-82zM217 748h176v178q-70 0 -119 -47.5t-57 -116.5v-14zM217 809q31 88 119 117h-119v-117zM217 938h176v78q-100 -2 -176 -70v-8zM217 961q47 39 107 55h-107v-55zM473 645q60 -16 107 -57v57 h-107zM580 354v37v-18.5v-18.5zM590 98h82v82h-64q-8 -8 -18 -16v-66zM590 190h12q68 78 68 181q0 106 -70 184h-10v-365zM590 354v37q2 -8 2 -18t-2 -19zM590 580q8 -8 14 -15h68v80h-82v-65zM614 555q43 -51 58 -117v117h-58zM616 190h56v113q-15 -62 -56 -113z" />
<glyph unicode="7" horiz-adv-x="786" d="M6 924v10h88v82h-88v10h88v88h10v-88h449v88h12v-88h82v88h10v-88h95v-10h-7h-88v-82h95v-10h-95v-826h88v-10h-88v-88h-10v88h-82v-88h-12v88h-86v10h86v826h-449v-88h-10v88h-88zM104 934h449v82h-449v-82zM565 98h82v826h-82v-826zM565 934h82v82h-82v-82z" />
<glyph unicode="8" horiz-adv-x="784" d="M2 90v10h88v82h-88v11h88v362h-88v10h88v84h-88v10h88v363h-88v10h88v80h-88v10h88v88h10v-88h82v88h11v-88h362v88h10v-88h82v88h10v-88h88v-10h-88v-80h88v-10h-88v-363h88v-10h-88v-84h88v-10h-88v-362h88v-11h-88v-82h88v-10h-88v-90h-10v90h-82v-90h-10v90h-362v-90 h-11v90h-82v-90h-10v90h-88zM100 100h82v62l-20 20h-62v-82zM100 193h54q-39 47 -54 104v-104zM100 373q0 -102 68 -180h14v362h-12q-70 -78 -70 -182zM100 449q16 59 56 106h-56v-106zM100 565h66q8 10 16 17v47l-20 20h-62v-84zM100 659h54q-39 45 -54 103v153 q16 59 56 107h-56v-363zM100 840q0 -104 68 -181h14v363h-12q-70 -78 -70 -182zM100 1032h66q8 9 16 17v63h-82v-80zM176 182l6 -6v6h-6zM176 649l6 -6v6h-6zM193 100h104q-57 14 -104 54v-54zM193 168q78 -68 180 -68q104 0 182 70v12h-362v-14zM193 193h362v116 q-31 -86 -119 -116h-125q-88 31 -118 118v125q31 88 118 119h-118v-362zM193 375q0 -76 53 -129t129 -53q70 0 121 47t59 114v39q-8 68 -59.5 115t-120.5 47q-76 0 -129 -53t-53 -127zM193 565h104q-41 12 -76 35q-14 -10 -28 -22v-13zM193 592q10 6 18 14q-8 6 -18 15v-29z M193 633q14 -11 28 -21q41 25 88 37h-116v-16zM193 659h362v117q-31 -88 -119 -117h-125q-88 31 -118 119v125q31 88 118 119h125q88 -31 119 -117v117h-362v-363zM193 840q0 -74 53 -127.5t129 -53.5q74 0 127 53.5t53 127.5q0 76 -53 129t-127 53q-76 0 -129 -53.5 t-53 -128.5zM193 1032h362v10q-78 70 -182 70q-102 0 -180 -68v-12zM193 1059q47 37 104 53h-104v-53zM231 606q66 -41 142 -41t141 41q-65 39 -141 39q-78 0 -142 -39zM436 555q88 -29 119 -115v115h-119zM436 649q47 -12 88 -37q16 10 31 23v14h-119zM449 100h106v56 q-47 -39 -106 -56zM449 565h106v10q-14 12 -31 25q-35 -23 -75 -35zM449 1112q59 -16 106 -55v55h-106zM535 606l20 -16v33q-10 -11 -20 -17zM555 821v39v-19.5v-19.5zM565 100h82v82h-65q-8 -10 -17 -18v-64zM565 193h13q68 78 67 180q0 104 -70 182h-10v-362zM565 354v39 v-19.5v-19.5zM565 580q8 -6 15 -15h67v84h-65q-8 -10 -17 -18v-51zM565 659h13q68 76 67 181q0 104 -70 182h-10v-363zM565 821v39v-19.5v-19.5zM565 1047q8 -6 15 -15h67v80h-82v-65zM590 555q43 -51 57 -115v115h-57zM590 1022q43 -51 57 -115v115h-57zM592 193h55v112 q-14 -63 -55 -112zM592 659h55v113q-14 -64 -55 -113z" />
<glyph unicode="9" horiz-adv-x="792" d="M10 461v10h88v80h-88v10h88v363h-88v10h88v82h-88v10h88v88h11v-88h81v88h11v-88h362v88h10v-88h82v88h11v-88h88v-10h-88v-82h88v-10h-88v-363h88v-10h-88v-80h88v-10h-88v-84h88v-10h-88v-179h88v-10h-88v-80h88v-10h-88v-88h-11v88h-82v-88h-10v88h-176v-88h-10v88 h-88v10h88v80h-88v10h88v179h-88v10h88v84h-176v-88h-11v88h-81v-88h-11v88h-88zM109 471h81v66q-8 6 -14 14h-67v-80zM109 561h57q-43 51 -57 115v-115zM109 811q14 64 55 113h-55v-113zM109 934h63l18 18v64h-81v-82zM111 743q0 -104 69 -182h10v363h-12q-68 -78 -67 -181 zM190 723v19.5v19.5v-39zM201 471h106q-59 16 -106 55v-55zM201 541q78 -70 182 -70q102 0 180 68v12h-362v-10zM201 561h362v363h-362v-117q31 86 118 117h125q88 -31 119 -119v-125q-31 -88 -119 -119h-125q-88 29 -118 115v-115zM201 723v19.5v17.5v-37zM201 741 q0 -74 52 -127t128 -53t129 53.5t53 126.5q0 76 -53 129.5t-129 53.5t-128 -53.5t-52 -129.5zM201 934h362v14q-78 68 -180 68q-104 0 -182 -70v-12zM201 961q47 39 106 55h152q57 -14 104 -53v53h-362v-55zM387 98q100 2 176 70v10h-176v-80zM387 188q70 2 119 49.5 t57 114.5v15h-176v-179zM387 377h176v84h-176v-84zM444 188h119v117q-31 -86 -119 -117zM457 98h106v56q-47 -39 -106 -56zM459 471h104v53q-47 -37 -104 -53zM573 98h82v80h-67q-6 -8 -15 -14v-66zM573 188h11q68 76 69 179h-80v-15v-164zM573 377h82v84h-82v-84zM573 471 h82v80h-65q-9 -10 -17 -16v-64zM573 561h13q70 78 69 182q0 102 -67 181h-15v-363zM573 934h7l-7 6v-6zM573 954q10 -10 21 -20h61v82h-82v-62zM598 188h57v115q-14 -64 -57 -115zM600 561h55v363h-53q37 -47 53 -105v-151q-16 -59 -55 -107z" />
<glyph unicode=";" horiz-adv-x="509" d="M6 -2h88v88h10v-88h177v176h-88v10h88v84h-88v11h88v88h10v-88h82v88h10v-88h88v-11h-88v-84h88v-10h-88v-176h88v-10h-88v-178h88v-11h-88v-80h88v-10h-88v-88h-10v88h-82v-88h-10v88h-177v-88h-10v88h-88v10h88v80h-88v11h88v178h-88v10zM104 -12v-178q70 2 119 49 t58 114v15h-177zM104 -201v-80q101 2 177 70v10h-177zM162 -190h119v116q-31 -86 -119 -116zM174 -281h107v56q-47 -39 -107 -56zM291 -2h82v176h-82v-176zM291 -12v-15v-163h10q68 76 70 178h-80zM291 184h10q-6 4 -10 11v63l10 10h-10v-84zM291 -215v-66h82v80h-68 q-6 -8 -14 -14zM291 225q0 -41 41 -41t41 41q0 43 -41 43t-41 -43zM315 -190h58v114q-15 -63 -58 -114zM362 184h11v84h-11q6 -6 11 -10v-63q-4 -6 -11 -11z" />
<glyph unicode="?" horiz-adv-x="796" d="M14 739v11h88v180h-88v10h88v78h-88v12h88v86h11v-86h82v86h10v-86h362v86h11v-86h81v86h11v-86h88v-12h-88v-78h88v-10h-88v-180h88v-11h-84q0 -20 -4 -43v-135h94v-10h-94v-80h94v-10h-94v-88h-11v88h-81v-88h-11v88h-170v-84h88v-10h-88v-177h88v-10h-88v-82h88v-10 h-88v-88h-10v88h-82v-88h-10v88h-88v10h88v82h-88v10h88v177h-88v10h88v274h10v-90h82v178h-182v-88h-10v88h-82v-88h-11v88h-88zM113 750l82 2v178h-13q-68 -78 -69 -180zM113 821q16 60 55 109h-55v-109zM113 940h65q9 8 17 16v62h-82v-78zM205 750h182v88h10v-88h170v14 q-8 70 -59 118t-121 48q-76 0 -128 -53.5t-54 -126.5zM205 809q31 90 119 121h-119v-121zM205 940h362v8q-78 70 -182 70q-102 0 -180 -68v-10zM205 965q47 39 104 53h-104v-53zM305 98h10q-6 5 -10 11v-11zM305 139q0 -41 41 -41t41 41t-41 41t-41 -41zM305 170q4 6 10 10 h-10v-10zM305 190h82v177h-82v-177zM305 377h82v84h-82v-84zM305 471h82v80h-82v-80zM377 98h10v11q-4 -7 -10 -11zM377 180q6 -4 10 -10v10h-10zM397 471q96 2 170 64v16h-170v-80zM397 561q59 2 106.5 39t63.5 92v47h-170v-178zM449 930q87 -31 118 -119v119h-118z M455 561h112v103q-34 -76 -112 -103zM461 1018q59 -16 106 -55v55h-106zM467 471h100v51q-45 -37 -100 -51zM578 471h81v80h-61q-10 -10 -20 -21v-59zM578 545l6 6h-6v-6zM578 561h16q53 59 65 137v41h-75q0 -25 -6 -47v-131zM578 750l79 2q-2 102 -69 178h-10v-166v-14z M578 954l14 -14h67v78h-81v-64zM602 930q43 -51 57 -117v117h-57zM608 561h51v94q-16 -53 -51 -94z" />
<glyph unicode="A" d="M16 88v10h88v82h-88v10h88v365h-88v10h88v80h-88v10h88v88h11v-88h82v88h12v-88h174v88h10v-88h84v88h10v-88h82v88h11v-88h84v88h10v-88h88v-10h-88v-80h88v-10h-88v-365h88v-10h-88v-82h88v-10h-88v-88h-10v88h-84v-88h-11v88h-82v-90h-10v90h-84v-90h-10v90h-174v-88 h-12v88h-82v-88h-11v88h-88zM115 98h82v64q-10 8 -19 18h-63v-82zM115 190h53q-37 47 -53 105v154q16 59 57 106h-57v-365zM182 190h15v365h-13q-69 -77 -69 -181q0 -105 67 -184zM115 565h65l17 17v63h-82v-80zM193 180l4 -4v4h-4zM209 98h102q-57 17 -102 54v-54zM209 166 q74 -66 174 -68v82h-174v-14zM209 190h117q-88 31 -117 121v125q29 88 117 119h-117v-365zM209 373q0 -74 50 -126.5t124 -56.5v365q-74 -4 -124 -56.5t-50 -125.5zM209 565h174v80q-100 -2 -174 -67v-13zM209 590q45 39 102 55h-102v-55zM393 98q43 0 84 15v67h-84v-82z M393 190q45 2 84 23v319q-39 21 -84 23v-365zM393 565h84v64q-41 14 -84 16v-80zM453 190h24v13q-12 -7 -24 -13zM453 555q12 -4 24 -10v10h-24zM465 98h12v4zM465 645l12 -4v4h-12zM487 98h82v56q-37 -31 -82 -48v-8zM487 117q45 18 82 51v12h-82v-63zM487 190h82v117 q-23 -63 -82 -100v-17zM487 219q84 53 84 154q0 100 -84 153v-307zM487 539q59 -35 82 -101v117h-82v-16zM487 565h82v10q-37 33 -82 52v-62zM487 637q45 -16 82 -49v57h-82v-8zM569 354v37q2 -8 2 -18q0 -11 -2 -19zM580 98h84v82h-66q-8 -8 -18 -16v-66zM580 190h14 q68 78 68 181q0 106 -72 184h-10v-365zM580 354v37q2 -8 2 -18t-2 -19zM580 580q8 -8 14 -15h70v80h-84v-65zM604 555q43 -51 60 -117v117h-60zM606 190h58v113q-17 -62 -58 -113z" />
<glyph unicode="B" horiz-adv-x="782" d="M0 90v10h88v84h-88v11h88v362h-88v10h88v80h-88v10h88v363h-88v10h88v88h10v-88h82v88h10v-88h89v-10h-89v-363h363v88h10v-88h84v88h10v-88h88v-10h-88v-80h88v-10h-88v-362h88v-11h-88v-84h88v-10h-88v-88h-10v88h-84v-88h-10v88h-363v-88h-10v88h-82v-88h-10v88h-88z M98 100h82v64q-10 10 -18 20h-64v-84zM98 195h54q-37 45 -54 102v154q16 59 58 106h-58v-362zM98 375q0 -104 68 -180h14v362h-12q-70 -78 -70 -182zM98 567h66q8 9 16 17v63h-82v-80zM98 657h82v363h-82v-363zM176 184l4 -6v6h-4zM190 100h105q-58 17 -105 56v-56zM190 168 q78 -68 181 -68q104 0 182 70v14h-363v-16zM190 195h121q-90 31 -121 118v125q31 88 121 119h-121v-362zM190 375q0 -74 53.5 -127t129.5 -53t129 53t53 127q0 76 -53 129t-129 53t-129.5 -53t-53.5 -129zM190 567h363v11q-77 69 -179 69h-2.5h-3.5q-101 0 -178 -67v-13z M190 594q47 37 105 53h154q57 -16 104 -55v55h-363v-53zM436 195h117v116q-31 -88 -117 -116zM436 557q86 -31 117 -117v117h-117zM449 100h104v58q-47 -41 -104 -58zM553 356v39q2 -10 2 -20q0 -9 -2 -19zM563 100h84v84h-65q-9 -10 -19 -18v-66zM563 195h15q67 75 67 177 q0 107 -72 185h-10v-362zM563 356v39q2 -10 2 -20q0 -8 -2 -19zM563 582q8 -6 15 -15h69v80h-84v-65zM588 557q43 -51 59 -115v115h-59zM590 195h57v112q-16 -63 -57 -112z" />
<glyph unicode="C" d="M14 88v10h88v82h-88v10h88v365h-88v10h88v80h-88v10h88v88h11v-88h82v88h10v-88h362v88h11v-88h81v88h11v-88h88v-10h-88v-80h88v-10h-88v-86h88v-10h-88v-176h88v-11h-88v-82h88v-10h-88v-82h88v-10h-88v-88h-11v88h-81v-88h-11v88h-362v-88h-10v88h-82v-88h-11v88h-88z M113 98h82v64q-10 8 -21 18h-61v-82zM113 190h53q-39 47 -53 105v-105zM180 190h15v365h-13q-69 -77 -69 -181q0 -105 67 -184zM113 449q16 59 55 106h-55v-106zM113 565h65l17 17v63h-82v-80zM188 180l7 -4v4h-7zM205 98h104q-57 17 -104 54v-54zM205 166q78 -68 180 -68 q104 0 182 70v12h-362v-14zM205 190h119q-88 31 -119 121v-121zM205 373q0 -76 53 -129.5t129 -53.5q94 0 150 82h-41v11h71v176h-71v10h45q-55 86 -154 86q-76 0 -129 -53t-53 -129zM205 436q31 88 119 119h-119v-119zM205 565h362v10q-78 70 -182 70q-102 0 -180 -67v-13z M205 590q47 39 104 55h154q57 -16 104 -57v57h-362v-55zM449 190h118v82h-18q-35 -59 -100 -82zM449 555q67 -25 104 -86h14v86h-118zM463 98h104v56q-47 -39 -104 -56zM496 459v10h45q2 -6 6 -10h-51zM578 98h81v82h-65l-16 -16v-66zM578 190h12q33 37 49 82h-61v-82z M578 283h81v176h-4l-4 10h8v86h-59q35 -41 51 -86l4 -10h-77v-176zM578 469h61q-16 47 -51 86h-10v-86zM578 580q6 -8 14 -15h67v80h-81v-65zM602 190h57v82h-10q-16 -45 -47 -82z" />
<glyph unicode="D" horiz-adv-x="796" d="M14 88v10h88v82h-88v10h88v365h-88v10h88v80h-88v10h88v88h11v-88h82v88h10v-88h362v361h-88v10h88v88h11v-88h81v88h11v-88h88v-10h-88v-361h88v-10h-88v-80h88v-10h-88v-365h88v-10h-88v-82h88v-10h-88v-88h-11v88h-81v-88h-11v88h-362v-88h-10v88h-82v-88h-11v88h-88z M113 98h82v66q-8 8 -19 16h-63v-82zM113 190h55q-41 51 -55 113v-113zM113 438q14 66 57 117h-57v-117zM113 565h67l15 15v65h-82v-80zM182 190h13v365h-11q-69 -77 -69 -181q0 -105 67 -184zM195 354v18.5v18.5v-37zM205 98h106q-59 17 -106 56v-56zM205 168 q78 -70 182 -70q102 0 180 68v14h-362v-12zM205 190h119q-88 31 -119 117v-117zM205 354v18.5v18.5v-37zM205 373q0 -76 52 -129.5t128 -53.5t129 53.5t53 129.5t-53 129t-129 53t-128 -53t-52 -129zM205 438q31 86 119 117h-119v-117zM205 565h362v13q-77 67 -177 67h-3 q-104 0 -182 -70v-10zM205 588q47 41 106 57h152q57 -16 104 -55v55h-362v-57zM449 190h118v365h-118q88 -31 118 -119v-125q-31 -90 -118 -121zM463 98h104v54q-47 -37 -104 -54zM578 98h81v82h-61q-10 -10 -20 -18v-64zM578 176l6 4h-6v-4zM578 190h14q67 77 67 178 q0 109 -69 187h-12v-365zM578 582q8 -8 16 -17h65v80h-81v-63zM578 655h81v361h-81v-361zM604 555q39 -47 55 -106v-154q-16 -57 -53 -105h53v365h-55z" />
<glyph unicode="E" horiz-adv-x="819" d="M18 88v10h86v82h-86v10h86v175h-86v10h86v84h-86v10h86v86h-86v10h86v80h-86v10h86v88h13v-88h82v88h10v-88h362v88h11v-88h82v88h10v-88h88v-10h-88v-80h88v-10h-88v-86h88v-10h-88v-84h88v-10h-88v-82h88v-11h-88v-82h88v-10h-88v-82h88v-10h-88v-88h-10v88h-82v-88 h-11v88h-362v-88h-10v88h-82v-88h-13v88h-86zM117 98h82v64q-10 8 -21 18h-61v-82zM117 190h53q-39 47 -53 105v-105zM117 365q2 -98 67 -175h15v175h-82zM117 375h82v84h-70q-12 -41 -12 -84zM117 449zM117 469h6q16 47 49 86h-55v-86zM117 565h65l17 17v63h-82v-80z M133 469h66v86h-13q-35 -39 -53 -86zM193 180l6 -4v4h-6zM209 98h102q-55 17 -102 54v-54zM209 166q78 -68 180 -68q104 0 182 70v12h-362v-14zM209 190h119q-88 31 -119 119v-119zM209 365q4 -72 56 -123.5t126 -51.5q94 0 150 82h-58v11h88v82h-362zM209 375h362v14 q-4 37 -20 70h-322q-20 -39 -20 -84zM209 436q4 11 10 23h-10v-23zM209 469h14q37 61 105 86h-119v-86zM209 565h362v10q-78 70 -182 70q-102 0 -180 -67v-13zM209 590q47 39 102 55h154q59 -16 106 -57v57h-362v-55zM236 469h309q-53 86 -154 86q-102 0 -155 -86zM453 190 h118v82h-18q-35 -59 -100 -82zM453 555q67 -25 104 -86h14v86h-118zM465 98h106v56q-47 -39 -106 -56zM561 459q6 -10 10 -23v23h-10zM582 98h82v82h-66l-16 -16v-66zM582 190h12q31 37 49 82h-61v-82zM582 283h82v82h-82v-82zM582 375l80 2q-1 41 -15 82h-65v-70v-14z M582 469h61q-18 47 -51 86h-10v-86zM582 580q6 -8 14 -15h68v80h-82v-65zM604 555q33 -39 51 -86h9v86h-60zM606 190h58v82h-11q-16 -45 -47 -82zM659 459q2 -10 5 -21v21h-5z" />
<glyph unicode="F" horiz-adv-x="720" d="M29 88v10h88v267h-88v10h88v84h-88v10h88v268h-88v11h88v178h-88v12h88v78h-88v10h88v88h10v-88h82v88h10v-88h363v88h10v-88h82v88h10v-88h88v-10h-88v-78h88v-12h-88v-178h88v-11h-88v-88h-10v88h-82v-88h-10v88h-363v-268h268v88h11v-88h88v-10h-88v-84h88v-10h-88 v-89h-11v89h-268v-267h88v-10h-88v-88h-10v88h-82v-88h-10v88h-88zM127 98h82v267h-82v-267zM127 375h82v84h-82v-84zM127 469h82v268h-82v-268zM127 748l82 2v176h-12q-70 -76 -70 -178zM127 819q16 60 55 107h-55v-107zM127 938h66l16 16v62h-82v-78zM219 375h268v84h-268 v-84zM219 748h363v14q-8 70 -59.5 117t-121.5 47q-76 0 -128 -52t-54 -126zM219 807q31 90 119 119h-119v-119zM219 938h363v8q-78 70 -183 70q-102 0 -180 -68v-10zM219 963q47 39 105 53h151q59 -16 107 -55v55h-363v-53zM463 926q88 -29 119 -117v117h-119zM592 748l80 2 q-2 100 -70 176h-10v-164v-14zM592 952l14 -14h68v78h-82v-64zM616 926q43 -49 58 -115v115h-58z" />
<glyph unicode="G" horiz-adv-x="804" d="M20 84v10h89v82h-89v10h89v365h-89v10h89v78h-89v12h89v86h10v-86h82v86h10v-86h362v86h11v-86h84v86h10v-86h88v-12h-88v-78h88v-10h-88v-365h88v-10h-88v-82h88v-10h-88v-86h88v-10h-88v-178h88v-11h-88v-78h88v-10l-88 -2v-86h-10v86h-84v-86h-11v86h-176v-88h-10v88 h-88v10h88v80h-88v11h88v178h-88v10h88v86h-176v-88h-10v88h-82v-88h-10v88h-89zM119 94h82v64q-10 8 -19 18h-63v-82zM119 186h53q-37 47 -53 105v-105zM186 186h15v365h-13q-69 -79 -69 -181q0 -105 67 -184zM119 442q16 60 57 109h-57v-109zM119 561h65l17 17v61h-82v-78 zM197 176l4 -4v4h-4zM211 94h362v56q-47 -39 -104 -56h-154q-57 16 -104 53v-53zM211 162q78 -68 180 -68q104 0 182 70v12h-362v-14zM211 186h362v117q-31 -86 -116 -117h-125q-90 31 -121 119v-119zM211 369q0 -76 53 -129.5t129 -53.5t129 53.5t53 129.5t-53 129t-129 53 t-129 -53.5t-53 -128.5zM211 430q31 90 119 121h-119v-121zM211 561h362v8q-78 70 -182 70q-102 0 -180 -68v-10zM211 586q47 39 104 53h-104v-53zM397 -2h176v86h-176v-86zM397 -12v-178q70 2 120 49t56 114v15h-176zM397 -201v-80q102 2 176 70v10h-176zM455 -190h118v116 q-30 -85 -118 -116zM457 551q85 -31 116 -117v117h-116zM469 -281h16l88 2v54q-47 -39 -104 -56zM469 639q57 -16 104 -55v55h-104zM573 350v37q2 -8 2 -18q0 -11 -2 -19zM584 -2h84v86h-84v-86zM584 -27v-163h10q70 76 72 178h-80q0 -6 -2 -15zM584 94h84v82h-66 q-8 -8 -18 -16v-66zM584 186h14q68 78 68 181q0 104 -72 184h-10v-365zM584 -215v-64h84v78h-70q-6 -8 -14 -14zM584 350v37q2 -8 2 -18t-2 -19zM584 575l14 -14h70v78h-84v-64zM608 -190h60v114q-17 -63 -60 -114zM608 551q44 -51 60 -117v117h-60zM610 186h58v113 q-16 -61 -58 -113z" />
<glyph unicode="H" horiz-adv-x="763" d="M14 88v10h88v178h-88v11h88v80h-88v10h88v639h-88v10h88v88h11v-88h82v88h10v-88h88v-10h-88v-639h362v88h11v-88h81v88h11v-88h88v-10h-88v-80h88v-11h-88v-178h88v-10h-88v-88h-11v88h-81v-88h-11v88h-362v-88h-10v88h-82v-88h-11v88h-88zM113 98l82 2v176h-13 q-70 -76 -69 -178zM113 170q16 59 55 106h-55v-106zM113 287h65q8 10 17 16v64h-82v-80zM113 377h82v639h-82v-639zM205 98h362v15q-8 70 -59 116.5t-121 46.5q-76 0 -128 -52t-54 -126zM205 158q31 87 119 118h-119v-118zM205 287h362v10q-78 70 -182 70q-102 0 -180 -68 v-12zM205 313q47 37 104 54h152q59 -16 106 -56v56h-362v-54zM449 276q87 -28 118 -116v116h-118zM578 98h79q-2 102 -69 178h-10v-163v-15zM578 301q8 -6 14 -14h67v80h-81v-66zM602 276q43 -49 57 -114v114h-57z" />
<glyph unicode="I" horiz-adv-x="317" d="M4 88v10h86v547h-86v10h86v88h12v-88h82v88h11v-88h88v-10h-88v-547h88v-10h-88v-88h-11v88h-82v-88h-12v88h-86zM4 924v10h86v82h-86v10h86v88h12v-88h82v88h11v-88h88v-10h-88v-82h88v-10h-88v-88h-11v88h-82v-88h-12v88h-86zM102 98h82v547h-82v-547zM102 934h11 q-6 4 -11 10v-10zM102 975q0 -41 41 -41t41 41t-41 41t-41 -41zM102 1006q4 6 11 10h-11v-10zM174 934h10v10q-4 -6 -10 -10zM174 1016q6 -4 10 -10v10h-10z" />
<glyph unicode="J" horiz-adv-x="780" d="M4 4h86v88h12v-88h82v88h11v-88h362v639h-88v10h88v88h10v-88h82v88h10v-88h89v-10h-89v-639h89v-10h-89v-178h89v-11h-89v-79h89v-11h-89v-88h-10v88h-82v-88h-10v88h-362v-88h-11v88h-82v-88h-12v88h-86v11h86v79h-86v11h86v178h-86v10zM102 -6q0 -102 70 -178h12v176z M102 -78v-106h56q-39 47 -56 106zM102 -195v-79h82v63l-16 16h-66zM195 -6q0 -74 53 -126t129 -52q70 0 121 47t59 117v14h-362zM195 -66v-118h118q-87 30 -118 118zM195 -195v-12q77 -67 177 -67h3q104 0 182 69v10h-362zM195 -221v-53h102q-55 16 -102 53zM438 -184h119 v116q-31 -85 -119 -116zM451 -274h106v55q-47 -39 -106 -55zM567 4h82v639h-82v-639zM567 -6v-14v-164h11q68 76 69 178h-80zM567 -209v-65h82v79h-67q-8 -8 -15 -14zM590 -184h59v114q-16 -63 -59 -114z" />
<glyph unicode="K" horiz-adv-x="796" d="M12 88v10h88v178h-88v11h88v80h-88v10h88v80h-88v10h88v180h-88v10h88v359h-88v10h88v88h11v-88h84v88h10v-88h88v-10h-88v-359h360v88h13v-88h81v88h11v-88h88v-10h-88v-180h88v-10h-88v-80h88v-10h-88v-80h88v-11h-88v-178h88v-10h-88v-88h-11v88h-81v-88h-13v88h-360 v-88h-10v88h-84v-88h-11v88h-88zM111 98l84 2v176h-13q-70 -76 -71 -178zM111 170q16 59 57 106h-57v-106zM111 287h65q8 10 19 18v62h-84v-80zM111 377h84v63q-11 9 -19 17h-65v-80zM111 467h57q-41 47 -57 106v-106zM111 647q1 -104 71 -180h13v176zM111 657h84v359h-84 v-359zM205 98h360v15q-6 70 -57 116.5t-123 46.5q-74 0 -127 -52t-53 -126zM205 158q31 87 119 118h-119v-118zM205 287h360v10q-76 70 -180 70t-180 -68v-12zM205 313q45 40 102 54h-102v-54zM205 377h360v57q-45 -41 -104 -57h-154q-57 16 -102 55v-55zM205 444 q75 -67 177 -67h3h3q102 0 177 69v11h-360v-13zM205 467h119q-88 31 -119 119v-119zM205 647q0 -76 53 -128t127 -52q72 0 123 47t57 119v14h-360zM293 88v10h272l2 -6v-4h-274zM449 276q85 -28 116 -116v116h-116zM449 467h116v119q-31 -88 -116 -119zM461 367 q57 -17 104 -56v56h-104zM578 98h79q-2 102 -71 178h-8v-163v-15zM578 301l14 -14h67v80h-81v-66zM578 377h81v80h-67q-8 -7 -14 -15v-65zM578 467h8q70 76 71 178l-79 2v-14v-166zM600 276q43 -48 59 -114v114h-59zM600 467h59v117q-16 -66 -59 -117z" />
<glyph unicode="L" horiz-adv-x="569" d="M14 88v10h88v82h-88v10h88v826h-88v10h88v88h11v-88h82v88h10v-88h88v-10h-88v-826h262v86h10v-86h94v-10h-94v-82h94v-10h-94v-90h-10v90h-262v-88h-10v88h-82v-88h-11v88h-88zM113 98h82v82h-82v-82zM113 190h82v826h-82v-826zM205 98h262v82h-262v-82z" />
<glyph unicode="M" horiz-adv-x="1095" d="M18 88v10h86v269h-86v10h86v180h-86v10h86v80h-86v10h86v88h13v-88h82v88h10v-88h362v88h11v-88h82v88h10v-88h180v88h10v-88h80v88h10v-88h88v-10h-88v-80h88v-10h-88v-180h88v-10h-88v-269h88v-10h-88v-88h-10v88h-80v-88h-10v88h-180v-88h-10v88h-82v-88h-11v88h-94 v10h94v269h-362v-269h88v-10h-88v-88h-10v88h-82v-88h-13v88h-86zM117 98h82v269h-82v-269zM117 377h82v180h-13q-70 -76 -69 -180zM117 451q16 59 55 106h-55v-106zM117 567h65l17 17v63h-82v-80zM209 377h362v14q-8 72 -59 119t-121 47q-74 0 -127 -53t-55 -127zM209 434 q31 92 119 123h-119v-123zM209 567h362v11q-77 69 -179 69h-3q-102 0 -180 -67v-13zM209 592q47 39 102 55h154q59 -16 106 -57v57h-362v-55zM453 557q87 -31 118 -119v119h-118zM582 98h82v269h-82v-269zM582 377l80 2q-2 102 -70 178h-10v-166v-14zM582 582q8 -8 14 -15 h68v80h-82v-65zM604 557q44 -52 60 -115v113zM674 98h180v269h-180v-269zM674 377h180q-2 74 -54 125t-126 53v-178zM674 567h180v6q-76 70 -178 72zM727 557q94 -29 127 -123v123h-127zM737 647q66 -16 117 -59v59h-117zM864 98h80v269h-80v-269zM864 377h78 q-2 104 -72 180h-6v-180zM864 578q6 -4 10 -11h70v80h-80v-69zM885 557q41 -49 59 -108v108h-59z" />
<glyph unicode="N" d="M14 88v10h88v269h-88v10h88v180h-88v10h88v80h-88v10h88v88h11v-88h82v88h10v-88h362v88h11v-88h81v88h11v-88h88v-10h-88v-80h88v-10h-88v-180h88v-10h-88v-269h88v-10h-88v-88h-11v88h-81v-88h-11v88h-94v10h94v269h-362v-269h88v-10h-88v-88h-10v88h-82v-88h-11v88 h-88zM113 98h82v269h-82v-269zM113 377h82v180h-13q-70 -76 -69 -180zM113 451q16 59 55 106h-55v-106zM113 567h65l17 17v63h-82v-80zM205 377h362v14q-8 72 -59 119t-121 47q-74 0 -127 -53t-55 -127zM205 434q31 92 121 123h-121v-123zM205 567h362v11q-77 69 -179 69h-3 q-102 0 -180 -67v-13zM205 592q47 39 104 55h152q59 -16 106 -57v57h-362v-55zM449 557q87 -31 118 -119v119h-118zM578 98h81v269h-81v-269zM578 377l79 2q-2 102 -69 178h-10v-166v-14zM578 582q8 -8 14 -15h67v80h-81v-65zM602 557q43 -51 57 -117v117h-57z" />
<glyph unicode="O" horiz-adv-x="800" d="M2 88v10h88v82h-88v10h88v365h-88v10h88v80h-88v10h88v88h10v-88h82v88h11v-88h362v88h10v-88h82v88h10v-88h88v-10h-88v-80h88v-10h-88v-365h88v-10h-88v-82h88v-10h-88v-88h-10v88h-82v-88h-10v88h-362v-88h-11v88h-82v-88h-10v88h-88zM100 98h82v64q-10 8 -20 18h-62 v-82zM100 190h54q-39 47 -54 105v154q16 59 56 106h-56v-365zM100 371q0 -102 68 -181h14v365h-12q-70 -78 -70 -184zM100 565h66q8 9 16 17v63h-82v-80zM176 180l6 -4v4h-6zM193 98h104q-57 17 -104 54v-54zM193 166q78 -68 180 -68q104 0 182 70v12h-362v-14zM193 190h118 q-88 31 -118 121v125q31 88 118 119h-118v-365zM193 373q0 -76 53 -129.5t129 -53.5q74 0 127 53.5t53 129.5t-53 129t-127 53q-76 0 -129 -53t-53 -129zM193 565h362v10q-78 70 -182 70h-3q-100 0 -177 -67v-13zM193 590q47 39 104 55h152q59 -16 106 -57v57h-362v-55z M436 190h119v117q-31 -86 -119 -117zM436 555q88 -31 119 -117v117h-119zM449 98h106v56q-47 -39 -106 -56zM555 354v37v-18.5v-18.5zM565 98h82v82h-65q-8 -8 -17 -16v-66zM565 190h13q67 77 67 178q0 109 -70 187h-10v-365zM565 354v39v-20.5v-18.5zM565 580l15 -15h67v80 h-82v-65zM590 555q43 -51 57 -117v117h-57zM592 190h55v113q-14 -62 -55 -113z" />
<glyph unicode="P" horiz-adv-x="800" d="M16 84v10h88v82h-88v10h88v363h-88v12h88v78h-88v10h88v88h11v-88h82v88h12v-88h360v88h11v-88h84v88h10v-88h88v-10h-88v-78h88v-12h-88v-363h88v-10h-88v-82h88v-10h-88v-88h-10v88h-84v-88h-11v88h-360v-363h86v-10h-86v-88h-12v88h-82v-88h-11v88h-88v10h88v363h-88z M115 84v-363h82v363h-82zM115 94h82v64q-10 8 -19 18h-63v-82zM115 186h53q-37 47 -53 105v151q16 59 57 107h-57v-363zM182 186h15v363h-11q-71 -77 -71 -179q0 -105 67 -184zM115 561h65l17 17v61h-82v-78zM193 176l4 -4v4h-4zM209 94h360v56q-47 -39 -104 -56h-154 q-57 16 -102 53v-53zM209 162q76 -68 178 -68q104 0 182 70v12h-360v-14zM209 186h360v117q-31 -86 -116 -117h-125q-90 31 -119 119v125q29 90 119 119h125q86 -29 116 -115v115h-360v-363zM209 369q0 -76 52 -129.5t128 -53.5t129 53.5t53 129.5q0 74 -53 127t-129 53 t-128 -52.5t-52 -127.5zM209 561h360v8q-78 70 -180 70q-104 0 -180 -68v-10zM209 586q45 39 102 53h-102v-53zM465 639q57 -16 104 -55v55h-104zM569 350v37q2 -10 2 -18q0 -11 -2 -19zM580 94h84v82h-66q-8 -8 -18 -16v-66zM580 186h14q68 78 68 181q0 104 -72 182h-10 v-363zM580 348v39q2 -8 2 -18t-2 -21zM580 575l14 -14h70v78h-84v-64zM604 549q43 -49 60 -115v115h-60zM606 186h58v113q-17 -62 -58 -113z" />
<glyph unicode="Q" horiz-adv-x="909" d="M16 84v10h88v82h-88v10h88v365h-88v10h88v78h-88v12h88v86h11v-86h84v86h10v-86h356v84h10v-84h82v84h11v-84h94v-12h-94v-78h94v-10h-94v-137q4 -23 4 -47q0 -23 -4 -48v-133h94v-10h-94v-82h94v-10h-94v-86h176v88h10v-88h88v-10h-88v-178h88v-11h-88v-80h88v-10h-88 v-88h-10v88h-176v-88h-11v88h-82v-88h-10v88h-88v10h88v80h-88v11h88v178h-88v10h88v86h-356v-88h-10v88h-84v-88h-11v88h-88zM115 94h84v64q-11 8 -21 18h-63v-82zM115 186h55q-39 47 -55 105v151q16 59 57 109h-57v-365zM115 367q-1 -103 67 -181h17v365h-13 q-72 -80 -71 -184zM115 561h67q6 8 17 17v61h-84v-78zM193 176l6 -4v4h-6zM209 94h102q-57 16 -102 53v-53zM209 162q76 -68 180 -68q98 0 176 64v18h-356v-14zM209 186h356v103q-35 -76 -112 -103h-125q-88 31 -119 119v125q31 90 119 121h125q78 -27 112 -102v102h-356 v-365zM209 369q0 -76 53 -129.5t127 -53.5q61 0 109.5 37t66.5 94v103q-18 57 -66 94t-110 37q-74 0 -127 -53.5t-53 -128.5zM209 561h356v14q-78 63 -176 64q-104 0 -180 -68v-10zM209 586q45 39 102 53h-102v-53zM465 94h100v51q-45 -37 -100 -51zM465 639q55 -14 100 -49 v49h-100zM575 -2h82v86h-82v-86zM575 -12v-178h58q-43 51 -58 114v64h82v-15v15h-79q2 -102 69 -178h10v178h-82zM575 94h82v82h-59q-10 -12 -23 -22v-60zM575 168l9 8h-9v-8zM575 186h19q51 59 63 136v92q-12 78 -67 137h-15v-131q6 -25 7 -51q0 -27 -7 -52v-131zM575 -201 v-80h82v66q-8 6 -14 14h-68zM575 561h7l-7 6v-6zM575 580q11 -9 21 -19h61v78h-82v-59zM604 551q37 -43 53 -94v94h-53zM608 186h49v93q-16 -52 -49 -93zM668 -12v-15q6 -68 56 -114.5t120 -48.5v178h-176zM668 -74v-116h118q-87 30 -118 116zM668 -201v-10q76 -68 176 -70 v80h-176zM668 -225v-56h106q-59 17 -106 56z" />
<glyph unicode="R" horiz-adv-x="684" d="M18 88v10h86v455h-86v10h86v84h-86v10h86v88h13v-88h82v88h10v-88h82v88h10v-88h180v88h11v-88h79v88h11v-88h88v-10h-88v-84h88v-10h-88v-176h88v-10h-88v-88h-11v88h-79v-88h-11v88h-180v-88h-10v88h-82v-269h88v-10h-88v-88h-10v88h-82v-88h-13v88h-86zM117 98h82v455 h-82v-455zM117 563h82v84h-82v-84zM209 377h82v176h-82v-176zM209 563h82v84h-82v-84zM301 377h180q-2 70 -49 120t-117 56h-14v-176zM301 565q8 0 14 -2h166v10q-76 70 -178 72zM362 553q88 -31 119 -117v117h-119zM367 647q63 -16 114 -59v59h-114zM492 377h79 q-1 102 -69 176h-10v-176zM492 578q8 -7 14 -15h65v84h-79v-69zM514 553q41 -47 57 -104v104h-57z" />
<glyph unicode="S" horiz-adv-x="696" d="M16 88v10h88v80h-88v10h88v179h-88v10h88v88h11v-88h176v180h-88v10h88v80h-88v10h88v88h10v-88h82v88h10v-88h176v88h11v-88h88v-10h-88v-80h88v-10h-88v-180h88v-10h-88v-88h-11v88h-176v-179h88v-10h-88v-80h88v-10h-88v-88h-10v88h-82v-88h-10v88h-176v-88h-11v88 h-88zM115 98q100 2 176 70v10h-176v-80zM115 188q70 2 120 49t56 115v15h-176v-179zM172 188h119v117q-31 -86 -119 -117zM184 98h107v56q-47 -39 -107 -56zM301 98h82v80h-68q-6 -8 -14 -14v-66zM301 188h10q68 76 70 179h-80v-15v-164zM301 440q16 66 59 117h-59v-117z M301 567h68q8 6 14 15v65h-82v-80zM303 379l80 -2v14v166h-8q-70 -76 -72 -178zM326 188h57v115q-14 -64 -57 -115zM393 377h176v180q-68 -2 -118 -49t-58 -117v-14zM393 438q33 88 119 119h-119v-119zM393 567h176v80q-100 -4 -176 -69v-11zM393 590q47 41 107 57h-107v-57 z" />
<glyph unicode="T" horiz-adv-x="671" d="M8 551v10h88v84h-88v10h88v88h10v-88h177v361h-88v10h88v88h10v-88h82v88h10v-88h88v-10h-88v-361h176v88h10v-88h88v-10h-88v-84h88v-10h-88v-88h-10v88h-176v-453h88v-10h-88v-88h-10v88h-82v-88h-10v88h-88v10h88v453h-177v-88h-10v88h-88zM106 561h177v84h-177v-84z M293 98h82v453h-82v-453zM293 561h82v84h-82v-84zM293 655h82v361h-82v-361zM385 561h176v84h-176v-84z" />
<glyph unicode="U" d="M14 88v10h88v80h-88v10h88v179h-88v10h88v270h-88v10h88v88h11v-88h82v88h10v-88h88v-10h-88v-270h362v270h-94v10h94v88h11v-88h81v88h11v-88h88v-10h-88v-270h88v-10h-88v-179h88v-10h-88v-80h88v-10h-88v-88h-11v88h-81v-88h-11v88h-362v-88h-10v88h-82v-88h-11v88 h-88zM113 98h82v64q-8 8 -17 16h-65v-80zM113 188h55q-39 47 -55 107v-107zM113 367q0 -102 69 -179h13v179h-82zM113 377h82v270h-82v-270zM205 98h362v56q-47 -39 -106 -56h-152q-57 16 -104 54v-54zM205 166q78 -68 180 -68q104 0 182 70v10h-362v-12zM205 188h121 q-90 31 -121 121v-121zM205 367q2 -74 55 -126.5t127 -52.5q70 0 121 47t59 117v15h-362zM449 188h118v117q-31 -86 -118 -117zM578 98h81v80h-67q-6 -8 -14 -14v-66zM578 188h10q68 76 69 179h-79v-15v-164zM578 377h81v270h-81v-270zM602 188h57v115q-14 -63 -57 -115z " />
<glyph unicode="V" d="M14 88v10h88v80h-88v10h88v459h-88v10h88v88h11v-88h82v88h10v-88h88v-10h-88v-459h176v179h-88v10h88v88h10v-88h176v270h-94v10h94v88h11v-88h81v88h11v-88h88v-10h-88v-270h88v-10h-88v-179h88v-10h-88v-80h88v-10h-88v-88h-11v88h-81v-88h-11v88h-176v-88h-10v88 h-176v-88h-10v88h-82v-88h-11v88h-88zM113 98h82v80h-82v-80zM113 188h82v459h-82v-459zM205 98h176v80h-176v-80zM391 98q100 2 176 70v10h-176v-80zM391 188q68 2 118 49.5t58 114.5v15h-176v-179zM449 188h118v117q-33 -86 -118 -117zM461 98h106v56q-47 -39 -106 -56z M578 98h81v80h-67l-14 -14v-66zM578 188h10q68 76 69 179h-79v-15v-164zM578 377h81v270h-81v-270zM600 188h59v115q-16 -64 -59 -115z" />
<glyph unicode="W" horiz-adv-x="1095" d="M16 88v10h88v80h-88v10h88v179h-88v10h88v270h-88v10h88v88h11v-88h80v88h10v-88h178v88h12v-88h82v88h10v-88h95v-10h-95v-270h363v270h-88v10h88v88h10v-88h82v88h10v-88h88v-10h-88v-270h88v-10h-88v-179h88v-10h-88v-80h88v-10h-88v-88h-10v88h-82v-88h-10v88h-363 v-88h-10v88h-82v-88h-12v88h-178v-88h-10v88h-80v-88h-11v88h-88zM115 98h80v68q-6 6 -13 12h-67v-80zM115 188h59q-41 47 -59 109v-109zM115 367q2 -102 73 -179h7v179h-80zM115 377h80v270h-80v-270zM205 98h114q-63 17 -114 60v-60zM205 172q76 -70 178 -72v78h-178v-6z M205 188h127q-94 29 -127 121v-121zM205 367q2 -72 53 -123.5t125 -53.5v177h-178zM205 377h178v270h-178v-270zM395 98h82v66q-8 6 -14 14h-68v-80zM395 190l58 -2q-44 52 -58 115v-113zM395 377h82v270h-82v-270zM397 367q2 -102 70 -179h10v164q0 8 -2 15h-78zM487 98 h363v54q-47 -37 -105 -54h-151q-59 16 -107 56v-56zM487 168q78 -70 183 -70q102 0 180 68v12h-363v-10zM487 188h119q-88 31 -119 117v-117zM487 352q6 -70 58.5 -117t122.5 -47q74 0 127 52.5t55 126.5h-363v-15zM729 188h121v121q-31 -90 -121 -121zM860 98h82v80h-65 q-9 -8 -17 -16v-64zM860 188h12q68 77 70 179h-82v-179zM860 377h82v270h-82v-270zM887 188h55v107q-16 -60 -55 -107z" />
<glyph unicode="X" horiz-adv-x="710" d="M4 88v10h88v82h-88v10h88v363h-88v10h88v84h-88v10h88v88h10v-88h179v88h12v-88h78v88h10v-88h176v88h10v-88h88v-10h-88v-84h88v-10h-88v-363h88v-10h-88v-82h88v-10h-88v-88h-10v88h-176v-88h-10v88h-78v-88h-12v88h-179v-88h-10v88h-88zM102 180l2 -80q100 2 177 72v8 h-164h-15zM102 190h15q63 8 108 51.5t56 104.5q-2 13 -2 25q0 14 2 26q-10 66 -60.5 111t-118.5 45v-363zM102 647l2 -84h177v12q-76 70 -179 72zM162 553q90 -31 119 -119v119h-119zM164 190h117v119q-29 -86 -117 -119zM166 98h115v60q-49 -43 -115 -60zM174 647 q60 -16 107 -57v57h-107zM293 98h78v64q-10 8 -19 18h-45q-8 -6 -14 -14v-68zM293 190h8q13 15 23 29q-20 31 -31 66v-95zM293 330q8 -55 37 -103q35 56 41 119q-2 14 -2 27q0 14 2 26q-6 63 -39 117q-31 -47 -39 -104v-82zM293 459q10 35 31 67q-8 14 -21 27h-10v-94z M293 580q8 -6 16 -17h45q8 10 17 19v65h-78v-67zM315 190h27q-6 10 -12 19q-6 -8 -15 -19zM317 553q7 -8 15 -18q6 10 12 18h-27zM336 219q10 -14 20 -29h15v107q-10 -41 -35 -78zM338 526q23 -35 33 -75v102h-13q-12 -12 -20 -27zM367 180l4 -4v4h-4zM381 98h104 q-57 16 -104 54v-54zM381 166q76 -66 176 -68l-2 82h-174v-14zM381 190h117q-84 29 -117 111v-111zM381 340q12 -63 61.5 -105t114.5 -45v363h-14q-59 -6 -104.5 -47t-57.5 -100v-66zM381 444q33 80 115 109h-115v-109zM381 563h162q8 2 14 2v80q-100 -2 -176 -70v-12z M381 590q51 41 113 57h-113v-57z" />
<glyph unicode="Y" horiz-adv-x="794" d="M12 365v10h88v80h-88v10h88v178h-88v10h88v88h11v-88h82v88h10v-88h362v88h10v-88h82v88h11v-88h88v-10h-88v-178h88v-10h-88v-80h88v-10h-88v-639h88v-11h-88v-88h-11v88h-82v-88h-10v88h-88v11h88v639h-362v-89h-10v89h-82v-89h-11v89h-88zM111 375h82v65q-8 6 -15 15 h-67v-80zM111 465h57q-43 51 -57 115v-115zM113 643q2 -102 69 -178h11v164v14h-80zM203 375h106q-59 16 -106 55v-55zM203 444q77 -69 179 -69h3h3q100 0 177 67v13h-362v-11zM203 465h362v119q-31 -88 -119 -119h-124q-88 31 -119 117v-117zM203 631q8 -72 59 -119 t121 -47q76 0 128 52t54 126h-362v-12zM461 375h104v53q-47 -37 -104 -53zM575 -274h82v639h-82v-639zM575 375h82v80h-65l-17 -17v-63zM575 465h13q70 76 69 178l-82 -2v-176zM602 465h55v106q-16 -59 -55 -106z" />
<glyph unicode="Z" horiz-adv-x="694" d="M0 367v10h88v180h-88v10h88v80h-88v10h88v88h10v-88h176v88h11v-88h82v88h10v-88h88v-10h-88v-80h88v-10h-88v-180h176v88h10v-88h88v-10h-88v-179h88v-10h-88v-80h88v-10h-88v-88h-10v88h-176v-88h-10v88h-82v-88h-11v88h-88v10h88v80h-88v10h88v179h-176v-88h-10v88 h-88zM98 377h176v14q-6 70 -56 117t-120 49v-180zM98 567h176v11q-76 65 -176 69v-80zM156 557q87 -31 118 -119v119h-118zM168 647q59 -16 106 -57v57h-106zM285 98h82v66q-6 6 -15 14h-67v-80zM285 188h59q-43 52 -59 115v-115zM285 377l80 2q-2 102 -70 178h-10v-166v-14 zM285 582q8 -8 14 -15h68v80h-82v-65zM287 367q2 -102 71 -179h9v164v15h-80zM309 557q43 -51 58 -117v117h-58zM377 98h106q-59 17 -106 56v-56zM377 168q76 -68 176 -70v80h-176v-10zM377 188h119q-86 31 -119 117v-117zM377 352q8 -68 58 -115t118 -49v179h-176v-15z" />
<glyph unicode="a" d="M16 88v10h88v82h-88v10h88v365h-88v10h88v80h-88v10h88v88h11v-88h82v88h12v-88h174v88h10v-88h84v88h10v-88h82v88h11v-88h84v88h10v-88h88v-10h-88v-80h88v-10h-88v-365h88v-10h-88v-82h88v-10h-88v-88h-10v88h-84v-88h-11v88h-82v-90h-10v90h-84v-90h-10v90h-174v-88 h-12v88h-82v-88h-11v88h-88zM115 98h82v64q-10 8 -19 18h-63v-82zM115 190h53q-37 47 -53 105v154q16 59 57 106h-57v-365zM182 190h15v365h-13q-69 -77 -69 -181q0 -105 67 -184zM115 565h65l17 17v63h-82v-80zM193 180l4 -4v4h-4zM209 98h102q-57 17 -102 54v-54zM209 166 q74 -66 174 -68v82h-174v-14zM209 190h117q-88 31 -117 121v125q29 88 117 119h-117v-365zM209 373q0 -74 50 -126.5t124 -56.5v365q-74 -4 -124 -56.5t-50 -125.5zM209 565h174v80q-100 -2 -174 -67v-13zM209 590q45 39 102 55h-102v-55zM393 98q43 0 84 15v67h-84v-82z M393 190q45 2 84 23v319q-39 21 -84 23v-365zM393 565h84v64q-41 14 -84 16v-80zM453 190h24v13q-12 -7 -24 -13zM453 555q12 -4 24 -10v10h-24zM465 98h12v4zM465 645l12 -4v4h-12zM487 98h82v56q-37 -31 -82 -48v-8zM487 117q45 18 82 51v12h-82v-63zM487 190h82v117 q-23 -63 -82 -100v-17zM487 219q84 53 84 154q0 100 -84 153v-307zM487 539q59 -35 82 -101v117h-82v-16zM487 565h82v10q-37 33 -82 52v-62zM487 637q45 -16 82 -49v57h-82v-8zM569 354v37q2 -8 2 -18q0 -11 -2 -19zM580 98h84v82h-66q-8 -8 -18 -16v-66zM580 190h14 q68 78 68 181q0 106 -72 184h-10v-365zM580 354v37q2 -8 2 -18t-2 -19zM580 580q8 -8 14 -15h70v80h-84v-65zM604 555q43 -51 60 -117v117h-60zM606 190h58v113q-17 -62 -58 -113z" />
<glyph unicode="b" horiz-adv-x="782" d="M0 90v10h88v84h-88v11h88v362h-88v10h88v80h-88v10h88v363h-88v10h88v88h10v-88h82v88h10v-88h89v-10h-89v-363h363v88h10v-88h84v88h10v-88h88v-10h-88v-80h88v-10h-88v-362h88v-11h-88v-84h88v-10h-88v-88h-10v88h-84v-88h-10v88h-363v-88h-10v88h-82v-88h-10v88h-88z M98 100h82v64q-10 10 -18 20h-64v-84zM98 195h54q-37 45 -54 102v154q16 59 58 106h-58v-362zM98 375q0 -104 68 -180h14v362h-12q-70 -78 -70 -182zM98 567h66q8 9 16 17v63h-82v-80zM98 657h82v363h-82v-363zM176 184l4 -6v6h-4zM190 100h105q-58 17 -105 56v-56zM190 168 q78 -68 181 -68q104 0 182 70v14h-363v-16zM190 195h121q-90 31 -121 118v125q31 88 121 119h-121v-362zM190 375q0 -74 53.5 -127t129.5 -53t129 53t53 127q0 76 -53 129t-129 53t-129.5 -53t-53.5 -129zM190 567h363v11q-77 69 -179 69h-2.5h-3.5q-101 0 -178 -67v-13z M190 594q47 37 105 53h154q57 -16 104 -55v55h-363v-53zM436 195h117v116q-31 -88 -117 -116zM436 557q86 -31 117 -117v117h-117zM449 100h104v58q-47 -41 -104 -58zM553 356v39q2 -10 2 -20q0 -9 -2 -19zM563 100h84v84h-65q-9 -10 -19 -18v-66zM563 195h15q67 75 67 177 q0 107 -72 185h-10v-362zM563 356v39q2 -10 2 -20q0 -8 -2 -19zM563 582q8 -6 15 -15h69v80h-84v-65zM588 557q43 -51 59 -115v115h-59zM590 195h57v112q-16 -63 -57 -112z" />
<glyph unicode="c" d="M14 88v10h88v82h-88v10h88v365h-88v10h88v80h-88v10h88v88h11v-88h82v88h10v-88h362v88h11v-88h81v88h11v-88h88v-10h-88v-80h88v-10h-88v-86h88v-10h-88v-176h88v-11h-88v-82h88v-10h-88v-82h88v-10h-88v-88h-11v88h-81v-88h-11v88h-362v-88h-10v88h-82v-88h-11v88h-88z M113 98h82v64q-10 8 -21 18h-61v-82zM113 190h53q-39 47 -53 105v-105zM180 190h15v365h-13q-69 -77 -69 -181q0 -105 67 -184zM113 449q16 59 55 106h-55v-106zM113 565h65l17 17v63h-82v-80zM188 180l7 -4v4h-7zM205 98h104q-57 17 -104 54v-54zM205 166q78 -68 180 -68 q104 0 182 70v12h-362v-14zM205 190h119q-88 31 -119 121v-121zM205 373q0 -76 53 -129.5t129 -53.5q94 0 150 82h-41v11h71v176h-71v10h45q-55 86 -154 86q-76 0 -129 -53t-53 -129zM205 436q31 88 119 119h-119v-119zM205 565h362v10q-78 70 -182 70q-102 0 -180 -67v-13z M205 590q47 39 104 55h154q57 -16 104 -57v57h-362v-55zM449 190h118v82h-18q-35 -59 -100 -82zM449 555q67 -25 104 -86h14v86h-118zM463 98h104v56q-47 -39 -104 -56zM496 459v10h45q2 -6 6 -10h-51zM578 98h81v82h-65l-16 -16v-66zM578 190h12q33 37 49 82h-61v-82z M578 283h81v176h-4l-4 10h8v86h-59q35 -41 51 -86l4 -10h-77v-176zM578 469h61q-16 47 -51 86h-10v-86zM578 580q6 -8 14 -15h67v80h-81v-65zM602 190h57v82h-10q-16 -45 -47 -82z" />
<glyph unicode="d" horiz-adv-x="796" d="M14 88v10h88v82h-88v10h88v365h-88v10h88v80h-88v10h88v88h11v-88h82v88h10v-88h362v361h-88v10h88v88h11v-88h81v88h11v-88h88v-10h-88v-361h88v-10h-88v-80h88v-10h-88v-365h88v-10h-88v-82h88v-10h-88v-88h-11v88h-81v-88h-11v88h-362v-88h-10v88h-82v-88h-11v88h-88z M113 98h82v66q-8 8 -19 16h-63v-82zM113 190h55q-41 51 -55 113v-113zM113 438q14 66 57 117h-57v-117zM113 565h67l15 15v65h-82v-80zM182 190h13v365h-11q-69 -77 -69 -181q0 -105 67 -184zM195 354v18.5v18.5v-37zM205 98h106q-59 17 -106 56v-56zM205 168 q78 -70 182 -70q102 0 180 68v14h-362v-12zM205 190h119q-88 31 -119 117v-117zM205 354v18.5v18.5v-37zM205 373q0 -76 52 -129.5t128 -53.5t129 53.5t53 129.5t-53 129t-129 53t-128 -53t-52 -129zM205 438q31 86 119 117h-119v-117zM205 565h362v13q-77 67 -177 67h-3 q-104 0 -182 -70v-10zM205 588q47 41 106 57h152q57 -16 104 -55v55h-362v-57zM449 190h118v365h-118q88 -31 118 -119v-125q-31 -90 -118 -121zM463 98h104v54q-47 -37 -104 -54zM578 98h81v82h-61q-10 -10 -20 -18v-64zM578 176l6 4h-6v-4zM578 190h14q67 77 67 178 q0 109 -69 187h-12v-365zM578 582q8 -8 16 -17h65v80h-81v-63zM578 655h81v361h-81v-361zM604 555q39 -47 55 -106v-154q-16 -57 -53 -105h53v365h-55z" />
<glyph unicode="e" horiz-adv-x="819" d="M18 88v10h86v82h-86v10h86v175h-86v10h86v84h-86v10h86v86h-86v10h86v80h-86v10h86v88h13v-88h82v88h10v-88h362v88h11v-88h82v88h10v-88h88v-10h-88v-80h88v-10h-88v-86h88v-10h-88v-84h88v-10h-88v-82h88v-11h-88v-82h88v-10h-88v-82h88v-10h-88v-88h-10v88h-82v-88 h-11v88h-362v-88h-10v88h-82v-88h-13v88h-86zM117 98h82v64q-10 8 -21 18h-61v-82zM117 190h53q-39 47 -53 105v-105zM117 365q2 -98 67 -175h15v175h-82zM117 375h82v84h-70q-12 -41 -12 -84zM117 449zM117 469h6q16 47 49 86h-55v-86zM117 565h65l17 17v63h-82v-80z M133 469h66v86h-13q-35 -39 -53 -86zM193 180l6 -4v4h-6zM209 98h102q-55 17 -102 54v-54zM209 166q78 -68 180 -68q104 0 182 70v12h-362v-14zM209 190h119q-88 31 -119 119v-119zM209 365q4 -72 56 -123.5t126 -51.5q94 0 150 82h-58v11h88v82h-362zM209 375h362v14 q-4 37 -20 70h-322q-20 -39 -20 -84zM209 436q4 11 10 23h-10v-23zM209 469h14q37 61 105 86h-119v-86zM209 565h362v10q-78 70 -182 70q-102 0 -180 -67v-13zM209 590q47 39 102 55h154q59 -16 106 -57v57h-362v-55zM236 469h309q-53 86 -154 86q-102 0 -155 -86zM453 190 h118v82h-18q-35 -59 -100 -82zM453 555q67 -25 104 -86h14v86h-118zM465 98h106v56q-47 -39 -106 -56zM561 459q6 -10 10 -23v23h-10zM582 98h82v82h-66l-16 -16v-66zM582 190h12q31 37 49 82h-61v-82zM582 283h82v82h-82v-82zM582 375l80 2q-1 41 -15 82h-65v-70v-14z M582 469h61q-18 47 -51 86h-10v-86zM582 580q6 -8 14 -15h68v80h-82v-65zM604 555q33 -39 51 -86h9v86h-60zM606 190h58v82h-11q-16 -45 -47 -82zM659 459q2 -10 5 -21v21h-5z" />
<glyph unicode="f" horiz-adv-x="745" d="M29 88v10h88v267h-88v10h88v84h-88v10h88v268h-88v11h88v178h-88v12h88v78h-88v10h88v88h10v-88h82v88h10v-88h363v88h10v-88h82v88h10v-88h88v-10h-88v-78h88v-12h-88v-178h88v-11h-88v-88h-10v88h-82v-88h-10v88h-363v-268h268v88h11v-88h88v-10h-88v-84h88v-10h-88 v-89h-11v89h-268v-267h88v-10h-88v-88h-10v88h-82v-88h-10v88h-88zM127 98h82v267h-82v-267zM127 375h82v84h-82v-84zM127 469h82v268h-82v-268zM127 748l82 2v176h-12q-70 -76 -70 -178zM127 819q16 60 55 107h-55v-107zM127 938h66l16 16v62h-82v-78zM219 375h268v84h-268 v-84zM219 748h363v14q-8 70 -59.5 117t-121.5 47q-76 0 -128 -52t-54 -126zM219 807q31 90 119 119h-119v-119zM219 938h363v8q-78 70 -183 70q-102 0 -180 -68v-10zM219 963q47 39 105 53h151q59 -16 107 -55v55h-363v-53zM463 926q88 -29 119 -117v117h-119zM592 748l80 2 q-2 100 -70 176h-10v-164v-14zM592 952l14 -14h68v78h-82v-64zM616 926q43 -49 58 -115v115h-58z" />
<glyph unicode="g" horiz-adv-x="804" d="M20 84v10h89v82h-89v10h89v365h-89v10h89v78h-89v12h89v86h10v-86h82v86h10v-86h362v86h11v-86h84v86h10v-86h88v-12h-88v-78h88v-10h-88v-365h88v-10h-88v-82h88v-10h-88v-86h88v-10h-88v-178h88v-11h-88v-78h88v-10l-88 -2v-86h-10v86h-84v-86h-11v86h-176v-88h-10v88 h-88v10h88v80h-88v11h88v178h-88v10h88v86h-176v-88h-10v88h-82v-88h-10v88h-89zM119 94h82v64q-10 8 -19 18h-63v-82zM119 186h53q-37 47 -53 105v-105zM186 186h15v365h-13q-69 -79 -69 -181q0 -105 67 -184zM119 442q16 60 57 109h-57v-109zM119 561h65l17 17v61h-82v-78 zM197 176l4 -4v4h-4zM211 94h362v56q-47 -39 -104 -56h-154q-57 16 -104 53v-53zM211 162q78 -68 180 -68q104 0 182 70v12h-362v-14zM211 186h362v117q-31 -86 -116 -117h-125q-90 31 -121 119v-119zM211 369q0 -76 53 -129.5t129 -53.5t129 53.5t53 129.5t-53 129t-129 53 t-129 -53.5t-53 -128.5zM211 430q31 90 119 121h-119v-121zM211 561h362v8q-78 70 -182 70q-102 0 -180 -68v-10zM211 586q47 39 104 53h-104v-53zM397 -2h176v86h-176v-86zM397 -12v-178q70 2 120 49t56 114v15h-176zM397 -201v-80q102 2 176 70v10h-176zM455 -190h118v116 q-30 -85 -118 -116zM457 551q85 -31 116 -117v117h-116zM469 -281h16l88 2v54q-47 -39 -104 -56zM469 639q57 -16 104 -55v55h-104zM573 350v37q2 -8 2 -18q0 -11 -2 -19zM584 -2h84v86h-84v-86zM584 -27v-163h10q70 76 72 178h-80q0 -6 -2 -15zM584 94h84v82h-66 q-8 -8 -18 -16v-66zM584 186h14q68 78 68 181q0 104 -72 184h-10v-365zM584 -215v-64h84v78h-70q-6 -8 -14 -14zM584 350v37q2 -8 2 -18t-2 -19zM584 575l14 -14h70v78h-84v-64zM608 -190h60v114q-17 -63 -60 -114zM608 551q44 -51 60 -117v117h-60zM610 186h58v113 q-16 -61 -58 -113z" />
<glyph unicode="h" horiz-adv-x="763" d="M14 88v10h88v178h-88v11h88v80h-88v10h88v639h-88v10h88v88h11v-88h82v88h10v-88h88v-10h-88v-639h362v88h11v-88h81v88h11v-88h88v-10h-88v-80h88v-11h-88v-178h88v-10h-88v-88h-11v88h-81v-88h-11v88h-362v-88h-10v88h-82v-88h-11v88h-88zM113 98l82 2v176h-13 q-70 -76 -69 -178zM113 170q16 59 55 106h-55v-106zM113 287h65q8 10 17 16v64h-82v-80zM113 377h82v639h-82v-639zM205 98h362v15q-8 70 -59 116.5t-121 46.5q-76 0 -128 -52t-54 -126zM205 158q31 87 119 118h-119v-118zM205 287h362v10q-78 70 -182 70q-102 0 -180 -68 v-12zM205 313q47 37 104 54h152q59 -16 106 -56v56h-362v-54zM449 276q87 -28 118 -116v116h-118zM578 98h79q-2 102 -69 178h-10v-163v-15zM578 301q8 -6 14 -14h67v80h-81v-66zM602 276q43 -49 57 -114v114h-57z" />
<glyph unicode="i" horiz-adv-x="317" d="M4 88v10h86v547h-86v10h86v88h12v-88h82v88h11v-88h88v-10h-88v-547h88v-10h-88v-88h-11v88h-82v-88h-12v88h-86zM4 924v10h86v82h-86v10h86v88h12v-88h82v88h11v-88h88v-10h-88v-82h88v-10h-88v-88h-11v88h-82v-88h-12v88h-86zM102 98h82v547h-82v-547zM102 934h11 q-6 4 -11 10v-10zM102 975q0 -41 41 -41t41 41t-41 41t-41 -41zM102 1006q4 6 11 10h-11v-10zM174 934h10v10q-4 -6 -10 -10zM174 1016q6 -4 10 -10v10h-10z" />
<glyph unicode="j" horiz-adv-x="780" d="M4 4h86v88h12v-88h82v88h11v-88h362v639h-88v10h88v88h10v-88h82v88h10v-88h89v-10h-89v-639h89v-10h-89v-178h89v-11h-89v-79h89v-11h-89v-88h-10v88h-82v-88h-10v88h-362v-88h-11v88h-82v-88h-12v88h-86v11h86v79h-86v11h86v178h-86v10zM102 -6q0 -102 70 -178h12v176z M102 -78v-106h56q-39 47 -56 106zM102 -195v-79h82v63l-16 16h-66zM195 -6q0 -74 53 -126t129 -52q70 0 121 47t59 117v14h-362zM195 -66v-118h118q-87 30 -118 118zM195 -195v-12q77 -67 177 -67h3q104 0 182 69v10h-362zM195 -221v-53h102q-55 16 -102 53zM438 -184h119 v116q-31 -85 -119 -116zM451 -274h106v55q-47 -39 -106 -55zM567 4h82v639h-82v-639zM567 -6v-14v-164h11q68 76 69 178h-80zM567 -209v-65h82v79h-67q-8 -8 -15 -14zM590 -184h59v114q-16 -63 -59 -114z" />
<glyph unicode="k" horiz-adv-x="796" d="M12 88v10h88v178h-88v11h88v80h-88v10h88v80h-88v10h88v180h-88v10h88v359h-88v10h88v88h11v-88h84v88h10v-88h88v-10h-88v-359h360v88h13v-88h81v88h11v-88h88v-10h-88v-180h88v-10h-88v-80h88v-10h-88v-80h88v-11h-88v-178h88v-10h-88v-88h-11v88h-81v-88h-13v88h-360 v-88h-10v88h-84v-88h-11v88h-88zM111 98l84 2v176h-13q-70 -76 -71 -178zM111 170q16 59 57 106h-57v-106zM111 287h65q8 10 19 18v62h-84v-80zM111 377h84v63q-11 9 -19 17h-65v-80zM111 467h57q-41 47 -57 106v-106zM111 647q1 -104 71 -180h13v176zM111 657h84v359h-84 v-359zM205 98h360v15q-6 70 -57 116.5t-123 46.5q-74 0 -127 -52t-53 -126zM205 158q31 87 119 118h-119v-118zM205 287h360v10q-76 70 -180 70t-180 -68v-12zM205 313q45 40 102 54h-102v-54zM205 377h360v57q-45 -41 -104 -57h-154q-57 16 -102 55v-55zM205 444 q75 -67 177 -67h3h3q102 0 177 69v11h-360v-13zM205 467h119q-88 31 -119 119v-119zM205 647q0 -76 53 -128t127 -52q72 0 123 47t57 119v14h-360zM293 88v10h272l2 -6v-4h-274zM449 276q85 -28 116 -116v116h-116zM449 467h116v119q-31 -88 -116 -119zM461 367 q57 -17 104 -56v56h-104zM578 98h79q-2 102 -71 178h-8v-163v-15zM578 301l14 -14h67v80h-81v-66zM578 377h81v80h-67q-8 -7 -14 -15v-65zM578 467h8q70 76 71 178l-79 2v-14v-166zM600 276q43 -48 59 -114v114h-59zM600 467h59v117q-16 -66 -59 -117z" />
<glyph unicode="l" horiz-adv-x="569" d="M14 88v10h88v82h-88v10h88v826h-88v10h88v88h11v-88h82v88h10v-88h88v-10h-88v-826h262v86h10v-86h94v-10h-94v-82h94v-10h-94v-90h-10v90h-262v-88h-10v88h-82v-88h-11v88h-88zM113 98h82v82h-82v-82zM113 190h82v826h-82v-826zM205 98h262v82h-262v-82z" />
<glyph unicode="m" horiz-adv-x="1095" d="M18 88v10h86v269h-86v10h86v180h-86v10h86v80h-86v10h86v88h13v-88h82v88h10v-88h362v88h11v-88h82v88h10v-88h180v88h10v-88h80v88h10v-88h88v-10h-88v-80h88v-10h-88v-180h88v-10h-88v-269h88v-10h-88v-88h-10v88h-80v-88h-10v88h-180v-88h-10v88h-82v-88h-11v88h-94 v10h94v269h-362v-269h88v-10h-88v-88h-10v88h-82v-88h-13v88h-86zM117 98h82v269h-82v-269zM117 377h82v180h-13q-70 -76 -69 -180zM117 451q16 59 55 106h-55v-106zM117 567h65l17 17v63h-82v-80zM209 377h362v14q-8 72 -59 119t-121 47q-74 0 -127 -53t-55 -127zM209 434 q31 92 119 123h-119v-123zM209 567h362v11q-77 69 -179 69h-3q-102 0 -180 -67v-13zM209 592q47 39 102 55h154q59 -16 106 -57v57h-362v-55zM453 557q87 -31 118 -119v119h-118zM582 98h82v269h-82v-269zM582 377l80 2q-2 102 -70 178h-10v-166v-14zM582 582q8 -8 14 -15 h68v80h-82v-65zM604 557q44 -52 60 -115v113zM674 98h180v269h-180v-269zM674 377h180q-2 74 -54 125t-126 53v-178zM674 567h180v6q-76 70 -178 72zM727 557q94 -29 127 -123v123h-127zM737 647q66 -16 117 -59v59h-117zM864 98h80v269h-80v-269zM864 377h78 q-2 104 -72 180h-6v-180zM864 578q6 -4 10 -11h70v80h-80v-69zM885 557q41 -49 59 -108v108h-59z" />
<glyph unicode="n" d="M14 88v10h88v269h-88v10h88v180h-88v10h88v80h-88v10h88v88h11v-88h82v88h10v-88h362v88h11v-88h81v88h11v-88h88v-10h-88v-80h88v-10h-88v-180h88v-10h-88v-269h88v-10h-88v-88h-11v88h-81v-88h-11v88h-94v10h94v269h-362v-269h88v-10h-88v-88h-10v88h-82v-88h-11v88 h-88zM113 98h82v269h-82v-269zM113 377h82v180h-13q-70 -76 -69 -180zM113 451q16 59 55 106h-55v-106zM113 567h65l17 17v63h-82v-80zM205 377h362v14q-8 72 -59 119t-121 47q-74 0 -127 -53t-55 -127zM205 434q31 92 121 123h-121v-123zM205 567h362v11q-77 69 -179 69h-3 q-102 0 -180 -67v-13zM205 592q47 39 104 55h152q59 -16 106 -57v57h-362v-55zM449 557q87 -31 118 -119v119h-118zM578 98h81v269h-81v-269zM578 377l79 2q-2 102 -69 178h-10v-166v-14zM578 582q8 -8 14 -15h67v80h-81v-65zM602 557q43 -51 57 -117v117h-57z" />
<glyph unicode="o" horiz-adv-x="800" d="M2 88v10h88v82h-88v10h88v365h-88v10h88v80h-88v10h88v88h10v-88h82v88h11v-88h362v88h10v-88h82v88h10v-88h88v-10h-88v-80h88v-10h-88v-365h88v-10h-88v-82h88v-10h-88v-88h-10v88h-82v-88h-10v88h-362v-88h-11v88h-82v-88h-10v88h-88zM100 98h82v64q-10 8 -20 18h-62 v-82zM100 190h54q-39 47 -54 105v154q16 59 56 106h-56v-365zM100 371q0 -102 68 -181h14v365h-12q-70 -78 -70 -184zM100 565h66q8 9 16 17v63h-82v-80zM176 180l6 -4v4h-6zM193 98h104q-57 17 -104 54v-54zM193 166q78 -68 180 -68q104 0 182 70v12h-362v-14zM193 190h118 q-88 31 -118 121v125q31 88 118 119h-118v-365zM193 373q0 -76 53 -129.5t129 -53.5q74 0 127 53.5t53 129.5t-53 129t-127 53q-76 0 -129 -53t-53 -129zM193 565h362v10q-78 70 -182 70h-3q-100 0 -177 -67v-13zM193 590q47 39 104 55h152q59 -16 106 -57v57h-362v-55z M436 190h119v117q-31 -86 -119 -117zM436 555q88 -31 119 -117v117h-119zM449 98h106v56q-47 -39 -106 -56zM555 354v37v-18.5v-18.5zM565 98h82v82h-65q-8 -8 -17 -16v-66zM565 190h13q67 77 67 178q0 109 -70 187h-10v-365zM565 354v39v-20.5v-18.5zM565 580l15 -15h67v80 h-82v-65zM590 555q43 -51 57 -117v117h-57zM592 190h55v113q-14 -62 -55 -113z" />
<glyph unicode="p" horiz-adv-x="800" d="M16 84v10h88v82h-88v10h88v363h-88v12h88v78h-88v10h88v88h11v-88h82v88h12v-88h360v88h11v-88h84v88h10v-88h88v-10h-88v-78h88v-12h-88v-363h88v-10h-88v-82h88v-10h-88v-88h-10v88h-84v-88h-11v88h-360v-363h86v-10h-86v-88h-12v88h-82v-88h-11v88h-88v10h88v363h-88z M115 84v-363h82v363h-82zM115 94h82v64q-10 8 -19 18h-63v-82zM115 186h53q-37 47 -53 105v151q16 59 57 107h-57v-363zM182 186h15v363h-11q-71 -77 -71 -179q0 -105 67 -184zM115 561h65l17 17v61h-82v-78zM193 176l4 -4v4h-4zM209 94h360v56q-47 -39 -104 -56h-154 q-57 16 -102 53v-53zM209 162q76 -68 178 -68q104 0 182 70v12h-360v-14zM209 186h360v117q-31 -86 -116 -117h-125q-90 31 -119 119v125q29 90 119 119h125q86 -29 116 -115v115h-360v-363zM209 369q0 -76 52 -129.5t128 -53.5t129 53.5t53 129.5q0 74 -53 127t-129 53 t-128 -52.5t-52 -127.5zM209 561h360v8q-78 70 -180 70q-104 0 -180 -68v-10zM209 586q45 39 102 53h-102v-53zM465 639q57 -16 104 -55v55h-104zM569 350v37q2 -10 2 -18q0 -11 -2 -19zM580 94h84v82h-66q-8 -8 -18 -16v-66zM580 186h14q68 78 68 181q0 104 -72 182h-10 v-363zM580 348v39q2 -8 2 -18t-2 -21zM580 575l14 -14h70v78h-84v-64zM604 549q43 -49 60 -115v115h-60zM606 186h58v113q-17 -62 -58 -113z" />
<glyph unicode="q" horiz-adv-x="909" d="M16 84v10h88v82h-88v10h88v365h-88v10h88v78h-88v12h88v86h11v-86h84v86h10v-86h356v84h10v-84h82v84h11v-84h94v-12h-94v-78h94v-10h-94v-137q4 -23 4 -47q0 -23 -4 -48v-133h94v-10h-94v-82h94v-10h-94v-86h176v88h10v-88h88v-10h-88v-178h88v-11h-88v-80h88v-10h-88 v-88h-10v88h-176v-88h-11v88h-82v-88h-10v88h-88v10h88v80h-88v11h88v178h-88v10h88v86h-356v-88h-10v88h-84v-88h-11v88h-88zM115 94h84v64q-11 8 -21 18h-63v-82zM115 186h55q-39 47 -55 105v151q16 59 57 109h-57v-365zM115 367q-1 -103 67 -181h17v365h-13 q-72 -80 -71 -184zM115 561h67q6 8 17 17v61h-84v-78zM193 176l6 -4v4h-6zM209 94h102q-57 16 -102 53v-53zM209 162q76 -68 180 -68q98 0 176 64v18h-356v-14zM209 186h356v103q-35 -76 -112 -103h-125q-88 31 -119 119v125q31 90 119 121h125q78 -27 112 -102v102h-356 v-365zM209 369q0 -76 53 -129.5t127 -53.5q61 0 109.5 37t66.5 94v103q-18 57 -66 94t-110 37q-74 0 -127 -53.5t-53 -128.5zM209 561h356v14q-78 63 -176 64q-104 0 -180 -68v-10zM209 586q45 39 102 53h-102v-53zM465 94h100v51q-45 -37 -100 -51zM465 639q55 -14 100 -49 v49h-100zM575 -2h82v86h-82v-86zM575 -12v-178h58q-43 51 -58 114v64h82v-15v15h-79q2 -102 69 -178h10v178h-82zM575 94h82v82h-59q-10 -12 -23 -22v-60zM575 168l9 8h-9v-8zM575 186h19q51 59 63 136v92q-12 78 -67 137h-15v-131q6 -25 7 -51q0 -27 -7 -52v-131zM575 -201 v-80h82v66q-8 6 -14 14h-68zM575 561h7l-7 6v-6zM575 580q11 -9 21 -19h61v78h-82v-59zM604 551q37 -43 53 -94v94h-53zM608 186h49v93q-16 -52 -49 -93zM668 -12v-15q6 -68 56 -114.5t120 -48.5v178h-176zM668 -74v-116h118q-87 30 -118 116zM668 -201v-10q76 -68 176 -70 v80h-176zM668 -225v-56h106q-59 17 -106 56z" />
<glyph unicode="r" horiz-adv-x="684" d="M18 88v10h86v455h-86v10h86v84h-86v10h86v88h13v-88h82v88h10v-88h82v88h10v-88h180v88h11v-88h79v88h11v-88h88v-10h-88v-84h88v-10h-88v-176h88v-10h-88v-88h-11v88h-79v-88h-11v88h-180v-88h-10v88h-82v-269h88v-10h-88v-88h-10v88h-82v-88h-13v88h-86zM117 98h82v455 h-82v-455zM117 563h82v84h-82v-84zM209 377h82v176h-82v-176zM209 563h82v84h-82v-84zM301 377h180q-2 70 -49 120t-117 56h-14v-176zM301 565q8 0 14 -2h166v10q-76 70 -178 72zM362 553q88 -31 119 -117v117h-119zM367 647q63 -16 114 -59v59h-114zM492 377h79 q-1 102 -69 176h-10v-176zM492 578q8 -7 14 -15h65v84h-79v-69zM514 553q41 -47 57 -104v104h-57z" />
<glyph unicode="s" horiz-adv-x="696" d="M16 88v10h88v80h-88v10h88v179h-88v10h88v88h11v-88h176v180h-88v10h88v80h-88v10h88v88h10v-88h82v88h10v-88h176v88h11v-88h88v-10h-88v-80h88v-10h-88v-180h88v-10h-88v-88h-11v88h-176v-179h88v-10h-88v-80h88v-10h-88v-88h-10v88h-82v-88h-10v88h-176v-88h-11v88 h-88zM115 98q100 2 176 70v10h-176v-80zM115 188q70 2 120 49t56 115v15h-176v-179zM172 188h119v117q-31 -86 -119 -117zM184 98h107v56q-47 -39 -107 -56zM301 98h82v80h-68q-6 -8 -14 -14v-66zM301 188h10q68 76 70 179h-80v-15v-164zM301 440q16 66 59 117h-59v-117z M301 567h68q8 6 14 15v65h-82v-80zM303 379l80 -2v14v166h-8q-70 -76 -72 -178zM326 188h57v115q-14 -64 -57 -115zM393 377h176v180q-68 -2 -118 -49t-58 -117v-14zM393 438q33 88 119 119h-119v-119zM393 567h176v80q-100 -4 -176 -69v-11zM393 590q47 41 107 57h-107v-57 z" />
<glyph unicode="t" horiz-adv-x="671" d="M8 551v10h88v84h-88v10h88v88h10v-88h177v361h-88v10h88v88h10v-88h82v88h10v-88h88v-10h-88v-361h176v88h10v-88h88v-10h-88v-84h88v-10h-88v-88h-10v88h-176v-453h88v-10h-88v-88h-10v88h-82v-88h-10v88h-88v10h88v453h-177v-88h-10v88h-88zM106 561h177v84h-177v-84z M293 98h82v453h-82v-453zM293 561h82v84h-82v-84zM293 655h82v361h-82v-361zM385 561h176v84h-176v-84z" />
<glyph unicode="u" d="M14 88v10h88v80h-88v10h88v179h-88v10h88v270h-88v10h88v88h11v-88h82v88h10v-88h88v-10h-88v-270h362v270h-94v10h94v88h11v-88h81v88h11v-88h88v-10h-88v-270h88v-10h-88v-179h88v-10h-88v-80h88v-10h-88v-88h-11v88h-81v-88h-11v88h-362v-88h-10v88h-82v-88h-11v88 h-88zM113 98h82v64q-8 8 -17 16h-65v-80zM113 188h55q-39 47 -55 107v-107zM113 367q0 -102 69 -179h13v179h-82zM113 377h82v270h-82v-270zM205 98h362v56q-47 -39 -106 -56h-152q-57 16 -104 54v-54zM205 166q78 -68 180 -68q104 0 182 70v10h-362v-12zM205 188h121 q-90 31 -121 121v-121zM205 367q2 -74 55 -126.5t127 -52.5q70 0 121 47t59 117v15h-362zM449 188h118v117q-31 -86 -118 -117zM578 98h81v80h-67q-6 -8 -14 -14v-66zM578 188h10q68 76 69 179h-79v-15v-164zM578 377h81v270h-81v-270zM602 188h57v115q-14 -63 -57 -115z " />
<glyph unicode="v" d="M14 88v10h88v80h-88v10h88v459h-88v10h88v88h11v-88h82v88h10v-88h88v-10h-88v-459h176v179h-88v10h88v88h10v-88h176v270h-94v10h94v88h11v-88h81v88h11v-88h88v-10h-88v-270h88v-10h-88v-179h88v-10h-88v-80h88v-10h-88v-88h-11v88h-81v-88h-11v88h-176v-88h-10v88 h-176v-88h-10v88h-82v-88h-11v88h-88zM113 98h82v80h-82v-80zM113 188h82v459h-82v-459zM205 98h176v80h-176v-80zM391 98q100 2 176 70v10h-176v-80zM391 188q68 2 118 49.5t58 114.5v15h-176v-179zM449 188h118v117q-33 -86 -118 -117zM461 98h106v56q-47 -39 -106 -56z M578 98h81v80h-67l-14 -14v-66zM578 188h10q68 76 69 179h-79v-15v-164zM578 377h81v270h-81v-270zM600 188h59v115q-16 -64 -59 -115z" />
<glyph unicode="w" horiz-adv-x="1095" d="M16 88v10h88v80h-88v10h88v179h-88v10h88v270h-88v10h88v88h11v-88h80v88h10v-88h178v88h12v-88h82v88h10v-88h95v-10h-95v-270h363v270h-88v10h88v88h10v-88h82v88h10v-88h88v-10h-88v-270h88v-10h-88v-179h88v-10h-88v-80h88v-10h-88v-88h-10v88h-82v-88h-10v88h-363 v-88h-10v88h-82v-88h-12v88h-178v-88h-10v88h-80v-88h-11v88h-88zM115 98h80v68q-6 6 -13 12h-67v-80zM115 188h59q-41 47 -59 109v-109zM115 367q2 -102 73 -179h7v179h-80zM115 377h80v270h-80v-270zM205 98h114q-63 17 -114 60v-60zM205 172q76 -70 178 -72v78h-178v-6z M205 188h127q-94 29 -127 121v-121zM205 367q2 -72 53 -123.5t125 -53.5v177h-178zM205 377h178v270h-178v-270zM395 98h82v66q-8 6 -14 14h-68v-80zM395 190l58 -2q-44 52 -58 115v-113zM395 377h82v270h-82v-270zM397 367q2 -102 70 -179h10v164q0 8 -2 15h-78zM487 98 h363v54q-47 -37 -105 -54h-151q-59 16 -107 56v-56zM487 168q78 -70 183 -70q102 0 180 68v12h-363v-10zM487 188h119q-88 31 -119 117v-117zM487 352q6 -70 58.5 -117t122.5 -47q74 0 127 52.5t55 126.5h-363v-15zM729 188h121v121q-31 -90 -121 -121zM860 98h82v80h-65 q-9 -8 -17 -16v-64zM860 188h12q68 77 70 179h-82v-179zM860 377h82v270h-82v-270zM887 188h55v107q-16 -60 -55 -107z" />
<glyph unicode="x" horiz-adv-x="710" d="M4 88v10h88v82h-88v10h88v363h-88v10h88v84h-88v10h88v88h10v-88h179v88h12v-88h78v88h10v-88h176v88h10v-88h88v-10h-88v-84h88v-10h-88v-363h88v-10h-88v-82h88v-10h-88v-88h-10v88h-176v-88h-10v88h-78v-88h-12v88h-179v-88h-10v88h-88zM102 180l2 -80q100 2 177 72v8 h-164h-15zM102 190h15q63 8 108 51.5t56 104.5q-2 13 -2 25q0 14 2 26q-10 66 -60.5 111t-118.5 45v-363zM102 647l2 -84h177v12q-76 70 -179 72zM162 553q90 -31 119 -119v119h-119zM164 190h117v119q-29 -86 -117 -119zM166 98h115v60q-49 -43 -115 -60zM174 647 q60 -16 107 -57v57h-107zM293 98h78v64q-10 8 -19 18h-45q-8 -6 -14 -14v-68zM293 190h8q13 15 23 29q-20 31 -31 66v-95zM293 330q8 -55 37 -103q35 56 41 119q-2 14 -2 27q0 14 2 26q-6 63 -39 117q-31 -47 -39 -104v-82zM293 459q10 35 31 67q-8 14 -21 27h-10v-94z M293 580q8 -6 16 -17h45q8 10 17 19v65h-78v-67zM315 190h27q-6 10 -12 19q-6 -8 -15 -19zM317 553q7 -8 15 -18q6 10 12 18h-27zM336 219q10 -14 20 -29h15v107q-10 -41 -35 -78zM338 526q23 -35 33 -75v102h-13q-12 -12 -20 -27zM367 180l4 -4v4h-4zM381 98h104 q-57 16 -104 54v-54zM381 166q76 -66 176 -68l-2 82h-174v-14zM381 190h117q-84 29 -117 111v-111zM381 340q12 -63 61.5 -105t114.5 -45v363h-14q-59 -6 -104.5 -47t-57.5 -100v-66zM381 444q33 80 115 109h-115v-109zM381 563h162q8 2 14 2v80q-100 -2 -176 -70v-12z M381 590q51 41 113 57h-113v-57z" />
<glyph unicode="y" horiz-adv-x="794" d="M12 365v10h88v80h-88v10h88v178h-88v10h88v88h11v-88h82v88h10v-88h362v88h10v-88h82v88h11v-88h88v-10h-88v-178h88v-10h-88v-80h88v-10h-88v-639h88v-11h-88v-88h-11v88h-82v-88h-10v88h-88v11h88v639h-362v-89h-10v89h-82v-89h-11v89h-88zM111 375h82v65q-8 6 -15 15 h-67v-80zM111 465h57q-43 51 -57 115v-115zM113 643q2 -102 69 -178h11v164v14h-80zM203 375h106q-59 16 -106 55v-55zM203 444q77 -69 179 -69h3h3q100 0 177 67v13h-362v-11zM203 465h362v119q-31 -88 -119 -119h-124q-88 31 -119 117v-117zM203 631q8 -72 59 -119 t121 -47q76 0 128 52t54 126h-362v-12zM461 375h104v53q-47 -37 -104 -53zM575 -274h82v639h-82v-639zM575 375h82v80h-65l-17 -17v-63zM575 465h13q70 76 69 178l-82 -2v-176zM602 465h55v106q-16 -59 -55 -106z" />
<glyph unicode="z" horiz-adv-x="694" d="M0 367v10h88v180h-88v10h88v80h-88v10h88v88h10v-88h176v88h11v-88h82v88h10v-88h88v-10h-88v-80h88v-10h-88v-180h176v88h10v-88h88v-10h-88v-179h88v-10h-88v-80h88v-10h-88v-88h-10v88h-176v-88h-10v88h-82v-88h-11v88h-88v10h88v80h-88v10h88v179h-176v-88h-10v88 h-88zM98 377h176v14q-6 70 -56 117t-120 49v-180zM98 567h176v11q-76 65 -176 69v-80zM156 557q87 -31 118 -119v119h-118zM168 647q59 -16 106 -57v57h-106zM285 98h82v66q-6 6 -15 14h-67v-80zM285 188h59q-43 52 -59 115v-115zM285 377l80 2q-2 102 -70 178h-10v-166v-14 zM285 582q8 -8 14 -15h68v80h-82v-65zM287 367q2 -102 71 -179h9v164v15h-80zM309 557q43 -51 58 -117v117h-58zM377 98h106q-59 17 -106 56v-56zM377 168q76 -68 176 -70v80h-176v-10zM377 188h119q-86 31 -119 117v-117zM377 352q8 -68 58 -115t118 -49v179h-176v-15z" />
<glyph unicode="&#x2000;" horiz-adv-x="682" />
<glyph unicode="&#x2001;" horiz-adv-x="1365" />
<glyph unicode="&#x2002;" horiz-adv-x="682" />
<glyph unicode="&#x2003;" horiz-adv-x="1365" />
<glyph unicode="&#x2004;" horiz-adv-x="455" />
<glyph unicode="&#x2005;" horiz-adv-x="341" />
<glyph unicode="&#x2006;" horiz-adv-x="227" />
<glyph unicode="&#x2007;" horiz-adv-x="227" />
<glyph unicode="&#x2008;" horiz-adv-x="170" />
<glyph unicode="&#x2009;" horiz-adv-x="273" />
<glyph unicode="&#x200a;" horiz-adv-x="75" />
<glyph unicode="&#x202f;" horiz-adv-x="273" />
<glyph unicode="&#x205f;" horiz-adv-x="341" />
<glyph unicode="&#x25fc;" horiz-adv-x="747" d="M0 0v748h748v-748h-748z" />
</font>
</defs>
</svg>
