<?xml version="1.0" standalone="no"?>
<!DOCTYPE svg PUBLIC "-//W3C//DTD SVG 1.1//EN" "http://www.w3.org/Graphics/SVG/1.1/DTD/svg11.dtd" >
<svg xmlns="http://www.w3.org/2000/svg" xmlns:xlink="http://www.w3.org/1999/xlink" version="1.1">
<metadata></metadata>
<defs>
<font id="vandiana_platin_literegular" horiz-adv-x="1254" >
<font-face units-per-em="2048" ascent="1638" descent="-410" />
<missing-glyph horiz-adv-x="1000" />
<glyph horiz-adv-x="0" />
<glyph horiz-adv-x="682" />
<glyph unicode=" "  horiz-adv-x="1000" />
<glyph unicode="&#x09;" horiz-adv-x="1000" />
<glyph unicode="&#xa0;" horiz-adv-x="1000" />
<glyph unicode="!" horiz-adv-x="397" d="M97 0v160h200v-160h-200zM97 220v780h200v-780h-200z" />
<glyph unicode="&#x22;" horiz-adv-x="596" d="M97 620v380h140v-380h-140zM357 620v380h140v-380h-140z" />
<glyph unicode="#" horiz-adv-x="1407" d="M32 300v90h355l49 180h-314v90h339l81 300h160l-81 -300h280l81 300h160l-81 -300h311v-90h-336l-49 -180h295v-90h-319l-81 -300h-160l81 300h-280l-81 -300h-160l81 300h-331zM547 390h281l48 180h-280z" />
<glyph unicode="$" horiz-adv-x="1484" d="M41 0v90h615v365h-365q-52 0 -97.5 24t-79.5 63.5t-53.5 90t-19.5 102.5t19.5 100t53.5 84.5t79.5 58.5t97.5 22h365v140h170v-140h615v-90h-615v-365h365q52 0 97.5 -22t79.5 -58.5t53.5 -84.5t19.5 -100t-19.5 -102.5t-53.5 -90t-79.5 -63.5t-97.5 -24h-365v-180h-170 v180h-615zM241 735q0 -39 15 -74t40.5 -60.5t60 -40.5t74.5 -15h225v365h-225q-40 0 -74.5 -12.5t-60 -35.5t-40.5 -55t-15 -72zM826 90h225q40 0 74.5 15t60 40.5t40.5 60.5t15 74q0 40 -15 72t-40.5 55t-60 35.5t-74.5 12.5h-225v-365z" />
<glyph unicode="%" horiz-adv-x="1804" d="M51 750q0 52 19.5 97.5t53.5 79.5t79.5 53.5t96.5 19.5h264q52 0 97 -19.5t79 -53.5t53.5 -79.5t19.5 -97.5q0 -51 -19.5 -96.5t-53.5 -79.5t-79 -54t-97 -20h-264q-51 0 -96.5 20t-79.5 54t-53.5 79.5t-19.5 96.5zM176 750q0 -39 16 -73t42.5 -59.5t61.5 -40.5t74 -15 h125q39 0 74 15t61.5 40.5t42.5 59.5t16 73t-16 73t-42.5 59.5t-61.5 40.5t-74 15h-125q-39 0 -74 -15t-61.5 -40.5t-42.5 -59.5t-16 -73zM496 -20l630 1060h180l-630 -1060h-180zM989 250q0 52 19.5 97.5t53.5 79.5t79.5 53.5t96.5 19.5h264q52 0 97 -19.5t79 -53.5 t53.5 -79.5t19.5 -97.5q0 -51 -19.5 -96.5t-53.5 -79.5t-79 -54t-97 -20h-264q-51 0 -96.5 20t-79.5 54t-53.5 79.5t-19.5 96.5zM1114 250q0 -39 16 -73t42.5 -59.5t61.5 -40.5t74 -15h125q39 0 74 15t61.5 40.5t42.5 59.5t16 73t-16 73t-42.5 59.5t-61.5 40.5t-74 15h-125 q-39 0 -74 -15t-61.5 -40.5t-42.5 -59.5t-16 -73z" />
<glyph unicode="&#x26;" horiz-adv-x="1515" d="M88 260q0 51 18.5 94t50.5 75t76 50.5t94 20.5q-50 2 -94 20.5t-76 50.5t-50.5 75t-18.5 94q0 52 19.5 99t53.5 83t79.5 57t97.5 21h950v-90h-810q-40 0 -74.5 -11.5t-60 -33.5t-40.5 -53.5t-15 -71.5q0 -39 15 -74t40.5 -60.5t60 -40.5t74.5 -15h110v-100h-110 q-40 0 -74.5 -15t-60 -40.5t-40.5 -60.5t-15 -74q0 -40 15 -71.5t40.5 -53.5t60 -33.5t74.5 -11.5h182q79 0 152 27.5t131 76t96.5 114.5t47.5 142h-299v100h700v-100h-203q-9 -95 -51.5 -177t-108.5 -143t-152 -95.5t-183 -34.5h-452q-52 0 -97.5 21t-79.5 57t-53.5 83 t-19.5 99z" />
<glyph unicode="'" horiz-adv-x="339" d="M97 620v380h140v-380h-140z" />
<glyph unicode="(" horiz-adv-x="537" d="M45 425q0 102 23.5 195.5t65.5 173.5t101 143t130 103h140q-71 -40 -124 -103t-87.5 -143t-51.5 -173.5t-17 -195.5t17 -197.5t51.5 -177t87.5 -146t124 -104.5h-140q-71 40 -130 104.5t-101 146t-65.5 177t-23.5 197.5z" />
<glyph unicode=")" horiz-adv-x="538" d="M33 -200q71 40 124 104.5t87.5 146t51.5 177t17 197.5t-17 195.5t-51.5 173.5t-87.5 143t-124 103h140q71 -40 130 -103t101 -143t65.5 -173.5t23.5 -195.5t-23.5 -197.5t-65.5 -177t-101 -146t-130 -104.5h-140z" />
<glyph unicode="*" horiz-adv-x="580" d="M61 692l136 88q-35 23 -68 44t-68 44l54 84l126 -82v130h100v-129l124 81l54 -84q-35 -23 -68 -44t-68 -44l136 -88l-54 -84l-175 114l-175 -114z" />
<glyph unicode="+" horiz-adv-x="978" d="M9 300v100h430v320h100v-320h430v-100h-430v-300h-100v300h-430z" />
<glyph unicode="," horiz-adv-x="331" d="M68 0v160h200v-160l-80 -220h-80l40 220h-80z" />
<glyph unicode="-" horiz-adv-x="695" d="M97 300v100h500v-100h-500z" />
<glyph unicode="." horiz-adv-x="398" d="M97 0v160h200v-160h-200z" />
<glyph unicode="/" horiz-adv-x="667" d="M14 -20l460 1060h180l-460 -1060h-180z" />
<glyph unicode="0" horiz-adv-x="1549" d="M75 500q0 69 18 133t50.5 119.5t78 101t101 78t119.5 50.5t133 18h400q103 0 194.5 -39.5t159 -107t107 -159t39.5 -194.5q0 -69 -18 -133t-50.5 -119.5t-78 -101t-101 -78t-119.5 -50.5t-133 -18h-400q-69 0 -133 18t-119.5 50.5t-101 78t-78 101t-50.5 119.5t-18 133z M295 500q0 -85 32 -160t87.5 -130.5t130.5 -87.5t160 -32h140q85 0 160 32t130.5 87.5t87.5 130.5t32 160t-32 160t-87.5 130.5t-130.5 87.5t-160 32h-140q-85 0 -160 -32t-130.5 -87.5t-87.5 -130.5t-32 -160z" />
<glyph unicode="1" horiz-adv-x="398" d="M97 0v1000h200v-1000h-200z" />
<glyph unicode="2" horiz-adv-x="1518" d="M59 280q0 52 19.5 100t53.5 84.5t79.5 58.5t97.5 22h760q40 0 74.5 15t60 40.5t40.5 60.5t15 74q0 40 -15 72t-40.5 55t-60 35.5t-74.5 12.5h-1010v90h1150q52 0 97.5 -22t79.5 -58.5t53.5 -84.5t19.5 -100t-19.5 -102.5t-53.5 -90t-79.5 -63.5t-97.5 -24h-760 q-40 0 -74.5 -12.5t-60 -35.5t-40.5 -55t-15 -72q0 -39 15 -74t40.5 -60.5t60 -40.5t74.5 -15h1010v-90h-1150q-52 0 -97.5 24t-79.5 63.5t-53.5 90t-19.5 102.5z" />
<glyph unicode="3" horiz-adv-x="1514" d="M27 0v90h1010q40 0 74.5 11.5t60 33.5t40.5 53.5t15 71.5q0 39 -15 74t-40.5 60.5t-60 40.5t-74.5 15h-1010v100h1010q40 0 74.5 15t60 40.5t40.5 60.5t15 74q0 40 -15 71.5t-40.5 53.5t-60 33.5t-74.5 11.5h-1010v90h1150q52 0 97.5 -21t79.5 -57t53.5 -83t19.5 -99 q0 -51 -18.5 -94t-51 -75t-76.5 -50.5t-94 -20.5q50 -2 94 -20.5t76.5 -50.5t51 -75t18.5 -94q0 -52 -19.5 -99t-53.5 -83t-79.5 -57t-97.5 -21h-1150z" />
<glyph unicode="4" horiz-adv-x="1462" d="M9 200v90l980 710h200v-710h220v-90h-220v-200h-200v200h-980zM209 290h780v565z" />
<glyph unicode="5" horiz-adv-x="1518" d="M65 0v90h770q79 0 150 28t126 77.5t90 116t44 143.5h-1180v90l100 455h1300v-90h-1090l-90 -365h1180v-45q0 -69 -18 -133t-50.5 -119.5t-78 -101t-101 -78t-119.5 -50.5t-133 -18h-900z" />
<glyph unicode="6" horiz-adv-x="1542" d="M86 0v500q0 69 18 133t50.5 119.5t78 101t101 78t119.5 50.5t133 18h900v-90h-770q-80 0 -153 -28t-131 -77.5t-96 -116t-47 -143.5h1197v-45q0 -69 -18 -133t-50.5 -119.5t-78 -101t-101 -78t-119.5 -50.5t-133 -18h-900zM286 90h570q79 0 150 28t126 77.5t90 116 t44 143.5h-980v-365z" />
<glyph unicode="7" horiz-adv-x="1449" d="M20 910v90h1400v-90l-800 -910h-240l800 910h-1160z" />
<glyph unicode="8" horiz-adv-x="1575" d="M88 260q0 51 18.5 94t50.5 75t76 50.5t94 20.5q-50 2 -94 20.5t-76 50.5t-50.5 75t-18.5 94q0 52 19.5 99t53.5 83t79.5 57t97.5 21h900q52 0 97.5 -21t79.5 -57t53.5 -83t19.5 -99q0 -51 -18.5 -94t-51 -75t-76.5 -50.5t-94 -20.5q50 -2 94 -20.5t76.5 -50.5t51 -75 t18.5 -94q0 -52 -19.5 -99t-53.5 -83t-79.5 -57t-97.5 -21h-900q-52 0 -97.5 21t-79.5 57t-53.5 83t-19.5 99zM288 260q0 -40 15 -71.5t40.5 -53.5t60 -33.5t74.5 -11.5h620q40 0 74.5 11.5t60 33.5t40.5 53.5t15 71.5q0 39 -15 74t-40.5 60.5t-60 40.5t-74.5 15h-620 q-40 0 -74.5 -15t-60 -40.5t-40.5 -60.5t-15 -74zM288 740q0 -39 15 -74t40.5 -60.5t60 -40.5t74.5 -15h620q40 0 74.5 15t60 40.5t40.5 60.5t15 74q0 40 -15 71.5t-40.5 53.5t-60 33.5t-74.5 11.5h-620q-40 0 -74.5 -11.5t-60 -33.5t-40.5 -53.5t-15 -71.5z" />
<glyph unicode="9" horiz-adv-x="1543" d="M57 0v90h770q79 0 152.5 28t131 77t96 116t47.5 144h-1197v45q0 69 18 133t50.5 119.5t78 101t101 78t119.5 50.5t133 18h900v-500q0 -69 -18 -133t-50.5 -119.5t-78 -101t-101 -78t-119.5 -50.5t-133 -18h-900zM277 545h980v365h-570q-80 0 -150.5 -28t-125.5 -77.5 t-90 -116t-44 -143.5z" />
<glyph unicode=":" horiz-adv-x="321" d="M97 0v160h200v-160h-200zM97 560v160h200v-160h-200z" />
<glyph unicode=";" horiz-adv-x="336" d="M65 0v160h200v-160l-80 -220h-80l40 220h-80zM65 560v160h200v-160h-200z" />
<glyph unicode="&#x3c;" horiz-adv-x="1200" d="M5 315v90l1100 315v-90l-945 -270l945 -270v-90z" />
<glyph unicode="=" horiz-adv-x="1219" d="M97 150v90h1100v-90h-1100zM97 480v90h1100v-90h-1100z" />
<glyph unicode="&#x3e;" horiz-adv-x="1200" d="M95 0v90l945 270l-945 270v90l1100 -315v-90z" />
<glyph unicode="?" horiz-adv-x="1476" d="M61 0v160h200v-160h-200zM61 240v40q0 52 19.5 100t53.5 84.5t79.5 58.5t97.5 22h760q40 0 74.5 15t60 40.5t40.5 60.5t15 74q0 40 -15 72t-40.5 55t-60 35.5t-74.5 12.5h-1010v90h1150q52 0 97.5 -22t79.5 -58.5t53.5 -84.5t19.5 -100t-19.5 -102.5t-53.5 -90 t-79.5 -63.5t-97.5 -24h-760q-40 0 -74.5 -12.5t-60 -35.5t-40.5 -55t-15 -72v-40h-200z" />
<glyph unicode="@" horiz-adv-x="1605" d="M75 497q0 106 40.5 200t110 163.5t163 110t200.5 40.5h412q106 0 200 -40.5t163.5 -110t110 -163.5t40.5 -200q0 -66 -20 -127t-49 -115h-821q-52 0 -97.5 15.5t-79.5 45t-53.5 71t-19.5 93.5t19.5 96t53.5 76t79.5 50t97.5 18h530v-385h145q19 38 34 79t15 83 q0 58 -19.5 114t-53.5 106.5t-80 92.5t-100 73t-112.5 48t-116.5 17h-144q-59 0 -117 -17t-112 -48t-100 -73t-80 -92.5t-53.5 -106.5t-19.5 -114t19.5 -114.5t53.5 -106.5t80 -92.5t100 -73t112 -48t117 -17.5h284q79 0 157 30.5t144 84.5l221 -1q-71 -82 -171 -129.5 t-217 -47.5h-552q-107 0 -200.5 40.5t-163 110.5t-110 163.5t-40.5 200.5zM525 480q0 -40 22.5 -70.5t57.5 -51.5t77.5 -32t82.5 -11h250v345h-250q-40 0 -82.5 -13.5t-77.5 -37.5t-57.5 -57t-22.5 -72z" />
<glyph unicode="A" horiz-adv-x="1478" d="M40 0l580 1000h220l600 -1000h-220l-210 350h-647l-203 -350h-120zM415 440h541l-275 458z" />
<glyph unicode="B" horiz-adv-x="1584" d="M97 0v1000h1150q52 0 97.5 -21t79.5 -57t53.5 -83t19.5 -99q0 -51 -18.5 -94t-51 -75t-76.5 -50.5t-94 -20.5q50 -2 94 -20.5t76.5 -50.5t51 -75t18.5 -94q0 -52 -19.5 -99t-53.5 -83t-79.5 -57t-97.5 -21h-1150zM297 90h810q40 0 74.5 11.5t60 33.5t40.5 53.5t15 71.5 q0 39 -15 74t-40.5 60.5t-60 40.5t-74.5 15h-810v-360zM297 550h810q40 0 74.5 15t60 40.5t40.5 60.5t15 74q0 40 -15 71.5t-40.5 53.5t-60 33.5t-74.5 11.5h-810v-360z" />
<glyph unicode="C" horiz-adv-x="1505" d="M75 500q0 69 18 133t50.5 119.5t78 101t101 78t119.5 50.5t133 18h900v-90h-770q-85 0 -160 -32t-130.5 -87.5t-87.5 -130.5t-32 -160t32 -160t87.5 -130.5t130.5 -87.5t160 -32h770v-90h-900q-69 0 -133 18t-119.5 50.5t-101 78t-78 101t-50.5 119.5t-18 133z" />
<glyph unicode="D" horiz-adv-x="1571" d="M97 0v1000h900q103 0 194.5 -39.5t159 -107t107 -159t39.5 -194.5q0 -69 -18 -133t-50.5 -119.5t-78 -101t-101 -78t-119.5 -50.5t-133 -18h-900zM297 90h570q85 0 160 32t130.5 87.5t87.5 130.5t32 160t-32 160t-87.5 130.5t-130.5 87.5t-160 32h-570v-820z" />
<glyph unicode="E" horiz-adv-x="1511" d="M75 500q0 69 18 133t50.5 119.5t78 101t101 78t119.5 50.5t133 18h900v-90h-770q-80 0 -150 -28t-124.5 -77.5t-89.5 -116t-44 -143.5h1178v-90h-1178q9 -77 44 -144t89.5 -116t124.5 -77t150 -28h770v-90h-900q-69 0 -133 18t-119.5 50.5t-101 78t-78 101t-50.5 119.5 t-18 133z" />
<glyph unicode="F" horiz-adv-x="1487" d="M86 0v500q0 69 18 133t50.5 119.5t78 101t101 78t119.5 50.5t133 18h900v-90h-770q-80 0 -150.5 -28t-125.5 -77.5t-90 -116t-44 -143.5h1180v-90h-1180v-455h-220z" />
<glyph unicode="G" horiz-adv-x="1542" d="M86 0v500q0 69 18 133t50.5 119.5t78 101t101 78t119.5 50.5t133 18h900v-90h-770q-85 0 -160 -32t-130.5 -87.5t-87.5 -130.5t-32 -160v-410h550q79 0 150 28t126 77.5t90 116t44 143.5h-680v90h900v-45q0 -69 -18 -133t-50.5 -119.5t-78 -101t-101 -78t-119.5 -50.5 t-133 -18h-900z" />
<glyph unicode="H" horiz-adv-x="1595" d="M97 0v1000h200v-455h1000v455h200v-1000h-200v455h-1000v-455h-200z" />
<glyph unicode="I" horiz-adv-x="398" d="M97 0v1000h200v-1000h-200z" />
<glyph unicode="J" horiz-adv-x="982" d="M2 0v90h270q79 0 153 28t132.5 77.5t97 116t47.5 143.5v545h200v-500q0 -69 -18 -133t-50.5 -119.5t-78 -101t-101 -78t-119.5 -50.5t-133 -18h-400z" />
<glyph unicode="K" horiz-adv-x="1558" d="M97 0v1000h200v-479l890 479h210l-630 -347l730 -653h-280l-624 558l-296 -153v-405h-200z" />
<glyph unicode="L" horiz-adv-x="982" d="M80 500v500h200v-545q9 -77 47.5 -143.5t97 -116t132 -77.5t153.5 -28h270v-90h-400q-69 0 -133 18t-119.5 50.5t-101 78t-78 101t-50.5 119.5t-18 133z" />
<glyph unicode="M" horiz-adv-x="1615" d="M97 0v1000h220l490 -817l490 817h220v-1000h-110v816l-490 -816h-220l-490 816v-816h-110z" />
<glyph unicode="N" horiz-adv-x="1595" d="M97 0v1000h300l990 -900v900h110v-1000h-300l-990 900v-900h-110z" />
<glyph unicode="O" horiz-adv-x="1549" d="M75 500q0 69 18 133t50.5 119.5t78 101t101 78t119.5 50.5t133 18h400q103 0 194.5 -39.5t159 -107t107 -159t39.5 -194.5q0 -69 -18 -133t-50.5 -119.5t-78 -101t-101 -78t-119.5 -50.5t-133 -18h-400q-69 0 -133 18t-119.5 50.5t-101 78t-78 101t-50.5 119.5t-18 133z M295 500q0 -85 32 -160t87.5 -130.5t130.5 -87.5t160 -32h140q85 0 160 32t130.5 87.5t87.5 130.5t32 160t-32 160t-87.5 130.5t-130.5 87.5t-160 32h-140q-85 0 -160 -32t-130.5 -87.5t-87.5 -130.5t-32 -160z" />
<glyph unicode="P" horiz-adv-x="1513" d="M97 0v1000h1150q52 0 97.5 -22t79.5 -58.5t53.5 -84.5t19.5 -100t-19.5 -102.5t-53.5 -90t-79.5 -63.5t-97.5 -24h-950v-455h-200zM297 545h810q40 0 74.5 15t60 40.5t40.5 60.5t15 74q0 40 -15 72t-40.5 55t-60 35.5t-74.5 12.5h-810v-365z" />
<glyph unicode="Q" horiz-adv-x="1554" d="M75 500q0 69 18 133t50.5 119.5t78 101t101 78t119.5 50.5t133 18h400q103 0 194.5 -39.5t159 -107t107 -159t39.5 -194.5q0 -107 -41 -199.5t-113 -161.5l154 -139h-200l-61 61q-54 -29 -114 -45t-125 -16h-400q-69 0 -133 18t-119.5 50.5t-101 78t-78 101t-50.5 119.5 t-18 133zM295 500q0 -85 32 -160t87.5 -130.5t130.5 -87.5t160 -32h140q72 0 136 22.5t117 64.5l-223 223h160l147 -134q35 50 54 109t19 125q0 85 -32 160t-87.5 130.5t-130.5 87.5t-160 32h-140q-85 0 -160 -32t-130.5 -87.5t-87.5 -130.5t-32 -160z" />
<glyph unicode="R" horiz-adv-x="1589" d="M97 0v1000h1150q52 0 97.5 -22t79.5 -58.5t53.5 -84.5t19.5 -100q0 -68 -31.5 -130.5t-84.5 -102.5q53 -37 84.5 -96t31.5 -126v-280h-200v280q0 40 -15 72t-40.5 55t-60 35.5t-74.5 12.5h-810v-455h-200zM297 545h818q38 1 71.5 16.5t58 41t38.5 59.5t14 73q0 40 -15 72 t-40.5 55t-60 35.5t-74.5 12.5h-810v-365z" />
<glyph unicode="S" horiz-adv-x="1518" d="M59 0v90h1010q40 0 74.5 15t60 40.5t40.5 60.5t15 74q0 40 -15 72t-40.5 55t-60 35.5t-74.5 12.5h-760q-52 0 -97.5 24t-79.5 63.5t-53.5 90t-19.5 102.5t19.5 100t53.5 84.5t79.5 58.5t97.5 22h1150v-90h-1010q-40 0 -74.5 -12.5t-60 -35.5t-40.5 -55t-15 -72 q0 -39 15 -74t40.5 -60.5t60 -40.5t74.5 -15h760q52 0 97.5 -22t79.5 -58.5t53.5 -84.5t19.5 -100t-19.5 -102.5t-53.5 -90t-79.5 -63.5t-97.5 -24h-1150z" />
<glyph unicode="T" horiz-adv-x="1442" d="M21 910v90h1400v-90h-600v-910h-200v910h-600z" />
<glyph unicode="U" horiz-adv-x="1572" d="M86 500v500h200v-500q0 -85 35.5 -160t94.5 -130.5t137 -87.5t163 -32h140q85 0 163 32t137 87.5t94.5 130.5t35.5 160v500h200v-500q0 -69 -18 -133t-50.5 -119.5t-78 -101t-101 -78t-119.5 -50.5t-133 -18h-400q-69 0 -133 18t-119.5 50.5t-101 78t-78 101t-50.5 119.5 t-18 133z" />
<glyph unicode="V" horiz-adv-x="1477" d="M39 1000h120l521 -899l539 899h220l-600 -1000h-220z" />
<glyph unicode="W" horiz-adv-x="2106" d="M63 1000h220l376 -856l334 856h120l334 -856l376 856h220l-440 -1000h-220l-330 846l-330 -846h-220z" />
<glyph unicode="X" horiz-adv-x="1552" d="M76 0l579 483l-579 517h280l444 -397l476 397h200l-580 -483l580 -517h-280l-444 396l-476 -396h-200z" />
<glyph unicode="Y" horiz-adv-x="1461" d="M31 1000h280l444 -397l476 397h200l-590 -492v-508h-220v473z" />
<glyph unicode="Z" horiz-adv-x="1506" d="M53 0v90l1120 820h-1120v90h1400v-90l-1120 -820h1120v-90h-1400z" />
<glyph unicode="[" horiz-adv-x="528" d="M97 -160v1160h400v-90h-220v-980h220v-90h-400z" />
<glyph unicode="\" horiz-adv-x="667" d="M13 1040h180l460 -1060h-180z" />
<glyph unicode="]" horiz-adv-x="529" d="M30 -70h220v980h-220v90h400v-1160h-400v90z" />
<glyph unicode="^" horiz-adv-x="1180" d="M40 360l460 680h180l460 -680h-180l-370 547l-370 -547h-180z" />
<glyph unicode="_" horiz-adv-x="1295" d="M97 -100h1100v-90h-1100v90z" />
<glyph unicode="`" horiz-adv-x="481" d="M20 1000h240l180 -180h-160z" />
<glyph unicode="a" horiz-adv-x="1478" d="M40 0l580 1000h220l600 -1000h-220l-210 350h-647l-203 -350h-120zM415 440h541l-275 458z" />
<glyph unicode="b" horiz-adv-x="1584" d="M97 0v1000h1150q52 0 97.5 -21t79.5 -57t53.5 -83t19.5 -99q0 -51 -18.5 -94t-51 -75t-76.5 -50.5t-94 -20.5q50 -2 94 -20.5t76.5 -50.5t51 -75t18.5 -94q0 -52 -19.5 -99t-53.5 -83t-79.5 -57t-97.5 -21h-1150zM297 90h810q40 0 74.5 11.5t60 33.5t40.5 53.5t15 71.5 q0 39 -15 74t-40.5 60.5t-60 40.5t-74.5 15h-810v-360zM297 550h810q40 0 74.5 15t60 40.5t40.5 60.5t15 74q0 40 -15 71.5t-40.5 53.5t-60 33.5t-74.5 11.5h-810v-360z" />
<glyph unicode="c" horiz-adv-x="1505" d="M75 500q0 69 18 133t50.5 119.5t78 101t101 78t119.5 50.5t133 18h900v-90h-770q-85 0 -160 -32t-130.5 -87.5t-87.5 -130.5t-32 -160t32 -160t87.5 -130.5t130.5 -87.5t160 -32h770v-90h-900q-69 0 -133 18t-119.5 50.5t-101 78t-78 101t-50.5 119.5t-18 133z" />
<glyph unicode="d" horiz-adv-x="1571" d="M97 0v1000h900q103 0 194.5 -39.5t159 -107t107 -159t39.5 -194.5q0 -69 -18 -133t-50.5 -119.5t-78 -101t-101 -78t-119.5 -50.5t-133 -18h-900zM297 90h570q85 0 160 32t130.5 87.5t87.5 130.5t32 160t-32 160t-87.5 130.5t-130.5 87.5t-160 32h-570v-820z" />
<glyph unicode="e" horiz-adv-x="1511" d="M75 500q0 69 18 133t50.5 119.5t78 101t101 78t119.5 50.5t133 18h900v-90h-770q-80 0 -150 -28t-124.5 -77.5t-89.5 -116t-44 -143.5h1178v-90h-1178q9 -77 44 -144t89.5 -116t124.5 -77t150 -28h770v-90h-900q-69 0 -133 18t-119.5 50.5t-101 78t-78 101t-50.5 119.5 t-18 133z" />
<glyph unicode="f" horiz-adv-x="1487" d="M86 0v500q0 69 18 133t50.5 119.5t78 101t101 78t119.5 50.5t133 18h900v-90h-770q-80 0 -150.5 -28t-125.5 -77.5t-90 -116t-44 -143.5h1180v-90h-1180v-455h-220z" />
<glyph unicode="g" horiz-adv-x="1542" d="M86 0v500q0 69 18 133t50.5 119.5t78 101t101 78t119.5 50.5t133 18h900v-90h-770q-85 0 -160 -32t-130.5 -87.5t-87.5 -130.5t-32 -160v-410h550q79 0 150 28t126 77.5t90 116t44 143.5h-680v90h900v-45q0 -69 -18 -133t-50.5 -119.5t-78 -101t-101 -78t-119.5 -50.5 t-133 -18h-900z" />
<glyph unicode="h" horiz-adv-x="1595" d="M97 0v1000h200v-455h1000v455h200v-1000h-200v455h-1000v-455h-200z" />
<glyph unicode="i" horiz-adv-x="398" d="M97 0v1000h200v-1000h-200z" />
<glyph unicode="j" horiz-adv-x="982" d="M2 0v90h270q79 0 153 28t132.5 77.5t97 116t47.5 143.5v545h200v-500q0 -69 -18 -133t-50.5 -119.5t-78 -101t-101 -78t-119.5 -50.5t-133 -18h-400z" />
<glyph unicode="k" horiz-adv-x="1558" d="M97 0v1000h200v-479l890 479h210l-630 -347l730 -653h-280l-624 558l-296 -153v-405h-200z" />
<glyph unicode="l" horiz-adv-x="982" d="M80 500v500h200v-545q9 -77 47.5 -143.5t97 -116t132 -77.5t153.5 -28h270v-90h-400q-69 0 -133 18t-119.5 50.5t-101 78t-78 101t-50.5 119.5t-18 133z" />
<glyph unicode="m" horiz-adv-x="1615" d="M97 0v1000h220l490 -817l490 817h220v-1000h-110v816l-490 -816h-220l-490 816v-816h-110z" />
<glyph unicode="n" horiz-adv-x="1595" d="M97 0v1000h300l990 -900v900h110v-1000h-300l-990 900v-900h-110z" />
<glyph unicode="o" horiz-adv-x="1549" d="M75 500q0 69 18 133t50.5 119.5t78 101t101 78t119.5 50.5t133 18h400q103 0 194.5 -39.5t159 -107t107 -159t39.5 -194.5q0 -69 -18 -133t-50.5 -119.5t-78 -101t-101 -78t-119.5 -50.5t-133 -18h-400q-69 0 -133 18t-119.5 50.5t-101 78t-78 101t-50.5 119.5t-18 133z M295 500q0 -85 32 -160t87.5 -130.5t130.5 -87.5t160 -32h140q85 0 160 32t130.5 87.5t87.5 130.5t32 160t-32 160t-87.5 130.5t-130.5 87.5t-160 32h-140q-85 0 -160 -32t-130.5 -87.5t-87.5 -130.5t-32 -160z" />
<glyph unicode="p" horiz-adv-x="1513" d="M97 0v1000h1150q52 0 97.5 -22t79.5 -58.5t53.5 -84.5t19.5 -100t-19.5 -102.5t-53.5 -90t-79.5 -63.5t-97.5 -24h-950v-455h-200zM297 545h810q40 0 74.5 15t60 40.5t40.5 60.5t15 74q0 40 -15 72t-40.5 55t-60 35.5t-74.5 12.5h-810v-365z" />
<glyph unicode="q" horiz-adv-x="1554" d="M75 500q0 69 18 133t50.5 119.5t78 101t101 78t119.5 50.5t133 18h400q103 0 194.5 -39.5t159 -107t107 -159t39.5 -194.5q0 -107 -41 -199.5t-113 -161.5l154 -139h-200l-61 61q-54 -29 -114 -45t-125 -16h-400q-69 0 -133 18t-119.5 50.5t-101 78t-78 101t-50.5 119.5 t-18 133zM295 500q0 -85 32 -160t87.5 -130.5t130.5 -87.5t160 -32h140q72 0 136 22.5t117 64.5l-223 223h160l147 -134q35 50 54 109t19 125q0 85 -32 160t-87.5 130.5t-130.5 87.5t-160 32h-140q-85 0 -160 -32t-130.5 -87.5t-87.5 -130.5t-32 -160z" />
<glyph unicode="r" horiz-adv-x="1589" d="M97 0v1000h1150q52 0 97.5 -22t79.5 -58.5t53.5 -84.5t19.5 -100q0 -68 -31.5 -130.5t-84.5 -102.5q53 -37 84.5 -96t31.5 -126v-280h-200v280q0 40 -15 72t-40.5 55t-60 35.5t-74.5 12.5h-810v-455h-200zM297 545h818q38 1 71.5 16.5t58 41t38.5 59.5t14 73q0 40 -15 72 t-40.5 55t-60 35.5t-74.5 12.5h-810v-365z" />
<glyph unicode="s" horiz-adv-x="1518" d="M59 0v90h1010q40 0 74.5 15t60 40.5t40.5 60.5t15 74q0 40 -15 72t-40.5 55t-60 35.5t-74.5 12.5h-760q-52 0 -97.5 24t-79.5 63.5t-53.5 90t-19.5 102.5t19.5 100t53.5 84.5t79.5 58.5t97.5 22h1150v-90h-1010q-40 0 -74.5 -12.5t-60 -35.5t-40.5 -55t-15 -72 q0 -39 15 -74t40.5 -60.5t60 -40.5t74.5 -15h760q52 0 97.5 -22t79.5 -58.5t53.5 -84.5t19.5 -100t-19.5 -102.5t-53.5 -90t-79.5 -63.5t-97.5 -24h-1150z" />
<glyph unicode="t" horiz-adv-x="1442" d="M21 910v90h1400v-90h-600v-910h-200v910h-600z" />
<glyph unicode="u" horiz-adv-x="1572" d="M86 500v500h200v-500q0 -85 35.5 -160t94.5 -130.5t137 -87.5t163 -32h140q85 0 163 32t137 87.5t94.5 130.5t35.5 160v500h200v-500q0 -69 -18 -133t-50.5 -119.5t-78 -101t-101 -78t-119.5 -50.5t-133 -18h-400q-69 0 -133 18t-119.5 50.5t-101 78t-78 101t-50.5 119.5 t-18 133z" />
<glyph unicode="v" horiz-adv-x="1477" d="M39 1000h120l521 -899l539 899h220l-600 -1000h-220z" />
<glyph unicode="w" horiz-adv-x="2106" d="M63 1000h220l376 -856l334 856h120l334 -856l376 856h220l-440 -1000h-220l-330 846l-330 -846h-220z" />
<glyph unicode="x" horiz-adv-x="1552" d="M76 0l579 483l-579 517h280l444 -397l476 397h200l-580 -483l580 -517h-280l-444 396l-476 -396h-200z" />
<glyph unicode="y" horiz-adv-x="1461" d="M31 1000h280l444 -397l476 397h200l-590 -492v-508h-220v473z" />
<glyph unicode="z" horiz-adv-x="1506" d="M53 0v90l1120 820h-1120v90h1400v-90l-1120 -820h1120v-90h-1400z" />
<glyph unicode="{" horiz-adv-x="674" d="M20 370v100q40 0 74.5 15t60 40.5t40.5 60.5t15 74v80q0 52 19.5 99t53.5 83t79.5 57t97.5 21h150v-90h-10q-40 0 -74.5 -11.5t-60 -33.5t-40.5 -53.5t-15 -71.5v-80q0 -51 -18.5 -94t-51 -75t-76.5 -50.5t-94 -20.5q50 -2 94 -20.5t76.5 -50.5t51 -75t18.5 -94v-80 q0 -40 15 -71.5t40.5 -53.5t60 -33.5t74.5 -11.5h10v-90h-150q-52 0 -97.5 21t-79.5 57t-53.5 83t-19.5 99v80q0 39 -15 74t-40.5 60.5t-60 40.5t-74.5 15z" />
<glyph unicode="|" horiz-adv-x="368" d="M97 -300v1440h170v-1440h-170z" />
<glyph unicode="}" horiz-adv-x="674" d="M64 -70h10q40 0 74.5 11.5t60 33.5t40.5 53.5t15 71.5v80q0 51 18.5 94t50.5 75t76 50.5t94 20.5q-50 2 -94 20.5t-76 50.5t-50.5 75t-18.5 94v80q0 40 -15 71.5t-40.5 53.5t-60 33.5t-74.5 11.5h-10v90h150q52 0 97.5 -21t79.5 -57t53.5 -83t19.5 -99v-80q0 -39 15 -74 t40.5 -60.5t60 -40.5t74.5 -15v-100q-40 0 -74.5 -15t-60 -40.5t-40.5 -60.5t-15 -74v-80q0 -52 -19.5 -99t-53.5 -83t-79.5 -57t-97.5 -21h-150v90z" />
<glyph unicode="~" horiz-adv-x="1149" d="M76 280v90q51 23 102.5 42t104.5 19q72 0 144.5 -12.5t145.5 -28t146 -28t146 -12.5q54 0 106 19t105 41v-90q-52 -20 -104 -38t-105 -18q-73 0 -146 11.5t-145.5 25.5t-145 25.5t-144.5 11.5q-54 0 -106 -18.5t-104 -39.5z" />
<glyph unicode="&#xa1;" horiz-adv-x="397" d="M97 -280v780h200v-780h-200zM97 560v160h200v-160h-200z" />
<glyph unicode="&#xa2;" horiz-adv-x="1175" d="M45 360q0 75 28.5 140.5t77 114t114 77t140.5 28.5h180v120h170v-120h390v-90h-390v-540h390v-90h-390v-160h-170v160h-180q-75 0 -140.5 28.5t-114 77t-77 114t-28.5 140.5zM225 360q0 -56 23 -105t61.5 -86t89 -58t106.5 -21h80v540h-80q-56 0 -106.5 -21t-89 -57.5 t-61.5 -86t-23 -105.5z" />
<glyph unicode="&#xa3;" horiz-adv-x="1478" d="M50 0v90h200v410q0 69 18 133t50.5 119.5t78 101t101 78t119.5 50.5t133 18h500v-90h-370q-80 0 -150.5 -28t-125.5 -77.5t-90 -116t-44 -143.5h780v-90h-780v-365h980v-90h-1400z" />
<glyph unicode="&#xa4;" horiz-adv-x="1332" d="M86 212l97 38q-32 45 -49.5 98t-17.5 112t17.5 111.5t49.5 97.5l-97 39l60 104l126 -55q44 30 95.5 46.5t108.5 16.5h380q57 0 108.5 -17t95.5 -47l126 56l60 -104l-97 -39q32 -45 49.5 -97.5t17.5 -111.5t-17.5 -111.5t-49.5 -97.5l97 -39l-60 -104l-126 55 q-44 -30 -95.5 -46.5t-108.5 -16.5h-380q-57 0 -108.5 16.5t-95.5 46.5l-126 -55zM296 460q0 -56 23 -105t61.5 -86t89 -58t106.5 -21h180q56 0 106.5 21t89 58t61.5 86t23 105t-23 105.5t-61.5 86t-89 57.5t-106.5 21h-180q-56 0 -106.5 -21t-89 -57.5t-61.5 -86 t-23 -105.5z" />
<glyph unicode="&#xa5;" horiz-adv-x="1475" d="M38 1000h280l444 -397l476 397h200l-552 -460h392v-100h-430v-100h430v-100h-430v-240h-220v240h-430v100h430v100h-430v100h355z" />
<glyph unicode="&#xa6;" horiz-adv-x="291" d="M97 -140v380h140v-380h-140zM97 560v380h140v-380h-140z" />
<glyph unicode="&#xa7;" horiz-adv-x="1414" d="M57 -190h710q40 0 77.5 4t67 16.5t47.5 36.5t18 63q0 34 -14 54.5t-37.5 31.5t-54.5 14.5t-65 4.5h-499q-52 0 -97.5 11t-79.5 34.5t-53.5 60.5t-19.5 89q0 49 17.5 87t48.5 64.5t73 40.5t90 17q-29 43 -29 106q0 52 19.5 91.5t53.5 65.5t79.5 39.5t97.5 13.5h850v-90 h-710q-40 0 -77.5 -4t-67 -16.5t-47.5 -36.5t-18 -63q0 -40 18 -61.5t47.5 -31t67 -11t77.5 -1.5h460q52 0 97.5 -11t79.5 -34.5t53.5 -60.5t19.5 -89q0 -50 -17.5 -88t-48.5 -64t-73 -40.5t-90 -17.5q14 -21 21.5 -47t7.5 -58q0 -52 -19.5 -91.5t-53.5 -65.5t-79.5 -39.5 t-97.5 -13.5h-850v90zM237 230q0 -40 18 -61.5t47.5 -31t67 -11t77.5 -1.5h520q40 0 77.5 4t67 16.5t47.5 36.5t18 63q0 40 -18 61t-47.5 31t-67 11.5t-77.5 1.5h-520q-40 0 -77.5 -4t-67 -16.5t-47.5 -36.5t-18 -63z" />
<glyph unicode="&#xa8;" horiz-adv-x="715" d="M97 840v140h180v-140h-180zM437 840v140h180v-140h-180z" />
<glyph unicode="&#xa9;" horiz-adv-x="1549" d="M75 500q0 69 18 133t50.5 119.5t78 101t101 78t119.5 50.5t133 18h400q103 0 194.5 -39.5t159 -107t107 -159t39.5 -194.5q0 -69 -18 -133t-50.5 -119.5t-78 -101t-101 -78t-119.5 -50.5t-133 -18h-400q-69 0 -133 18t-119.5 50.5t-101 78t-78 101t-50.5 119.5t-18 133z M225 500q0 -57 20 -111.5t54 -103.5t80.5 -90t100 -71t111 -47t114.5 -17h140q57 0 114.5 17t111 47t100 71t80.5 90t54 103.5t20 111.5t-20 111.5t-54 103.5t-80.5 90t-100 71t-111 47t-114.5 17h-140q-57 0 -114.5 -17t-111 -47t-100 -71t-80.5 -90t-54 -103.5t-20 -111.5 zM365 500q0 61 23 115t63 94t94 63t115 23h405v-57h-324q-46 0 -90 -20t-78.5 -53t-55.5 -76t-21 -89q0 -45 21 -88t55.5 -76t78.5 -53t90 -20h324v-57h-405q-61 0 -115 23t-94 63t-63 93.5t-23 114.5z" />
<glyph unicode="&#xaa;" horiz-adv-x="717" d="M80 760q0 26 9.5 46.5t26.5 35t40 22.5t49 8h323q-17 37 -51.5 60t-76.5 23h-320v45h370q37 0 70 -14t57.5 -38.5t38.5 -57.5t14 -70v-180h-425q-26 0 -49 9t-40 25t-26.5 38t-9.5 48zM170 760q0 -20 9 -34t23.5 -23t33.5 -13.5t39 -4.5h265v135q0 5 -1 7h-264 q-20 0 -39 -3t-33.5 -10.5t-23.5 -20.5t-9 -33z" />
<glyph unicode="&#xab;" horiz-adv-x="761" d="M51 280v160l280 200v-180l-150 -100l150 -100v-180zM391 280v160l280 200v-180l-150 -100l150 -100v-180z" />
<glyph unicode="&#xac;" horiz-adv-x="1205" d="M7 480v90h1100v-430h-180v340h-920z" />
<glyph unicode="&#xad;" horiz-adv-x="1707" />
<glyph unicode="&#xae;" horiz-adv-x="1549" d="M75 500q0 69 18 133t50.5 119.5t78 101t101 78t119.5 50.5t133 18h400q103 0 194.5 -39.5t159 -107t107 -159t39.5 -194.5q0 -69 -18 -133t-50.5 -119.5t-78 -101t-101 -78t-119.5 -50.5t-133 -18h-400q-69 0 -133 18t-119.5 50.5t-101 78t-78 101t-50.5 119.5t-18 133z M225 500q0 -57 20 -111.5t54 -103.5t80.5 -90t100 -71t111 -47t114.5 -17h140q57 0 114.5 17t111 47t100 71t80.5 90t54 103.5t20 111.5t-20 111.5t-54 103.5t-80.5 90t-100 71t-111 47t-114.5 17h-140q-57 0 -114.5 -17t-111 -47t-100 -71t-80.5 -90t-54 -103.5t-20 -111.5 zM425 249v508h585q26 0 48.5 -11t39.5 -30t27 -43t10 -51q0 -34 -15.5 -66t-42.5 -52q27 -19 42.5 -48.5t15.5 -63.5v-143h-100v143q0 41 -28 64.5t-69 23.5h-412v-231h-101zM512 532h438q42 2 70 31t28 71q0 43 -29.5 68t-72.5 25h-434v-195z" />
<glyph unicode="&#xaf;" horiz-adv-x="995" d="M97 910v90h800v-90h-800z" />
<glyph unicode="&#xb0;" horiz-adv-x="886" d="M73 710q0 56 23 105.5t61.5 86t89 57.5t106.5 21h180q56 0 106.5 -21t89 -57.5t61.5 -86t23 -105.5t-23 -105t-61.5 -86t-89 -58t-106.5 -21h-180q-56 0 -106.5 21t-89 58t-61.5 86t-23 105zM193 710q0 -31 13 -58.5t35 -47.5t51 -32t61 -12h180q32 0 61 12t51 32 t35 47.5t13 58.5t-13 58.5t-35 47.5t-51 32t-61 12h-180q-32 0 -61 -12t-51 -32t-35 -47.5t-13 -58.5z" />
<glyph unicode="&#xb1;" horiz-adv-x="1150" d="M25 0v90h1100v-90h-1100zM95 300v100h430v320h100v-320h430v-100h-430v-150h-100v150h-430z" />
<glyph unicode="&#xb2;" horiz-adv-x="959" d="M59 568q0 31 12 60t32 51t47.5 35t58.5 13h456q24 0 45 9t36 24.5t24 36t9 44.5q0 48 -33 76.5t-81 28.5h-606v54h690q31 0 58.5 -13t47.5 -35t32 -51t12 -60t-12 -61t-32 -54t-47.5 -38.5t-58.5 -14.5h-456q-48 0 -81 -28.5t-33 -76.5q0 -24 9 -44.5t24 -36t36 -24.5 t45 -9h606v-54h-690q-31 0 -58.5 14.5t-47.5 38.5t-32 54t-12 61z" />
<glyph unicode="&#xb3;" horiz-adv-x="955" d="M28 400v54h606q48 0 81 27t33 75q0 24 -9 44.5t-24 36t-36 24.5t-45 9h-606v60h606q24 0 45 9t36 24.5t24 36t9 44.5q0 48 -33 75t-81 27h-606v54h690q31 0 58.5 -12.5t47.5 -34t32 -50t12 -59.5t-11.5 -57t-31 -45t-45.5 -30t-56 -12q30 -1 56 -12.5t45.5 -30.5t31 -45 t11.5 -56q0 -31 -12 -59.5t-32 -50t-47.5 -34t-58.5 -12.5h-690z" />
<glyph unicode="&#xb4;" horiz-adv-x="481" d="M41 820l180 180h240l-260 -180h-160z" />
<glyph unicode="&#xb5;" horiz-adv-x="1230" d="M97 -280v1000h180v-360q0 -56 23 -105t61.5 -86t89 -58t106.5 -21h180q56 0 106.5 21t89 58t61.5 86t23 105v360h180v-360q0 -75 -28.5 -140.5t-77 -114t-114 -77t-140.5 -28.5h-380q-50 0 -95 12.5t-85 35.5v-328h-180z" />
<glyph unicode="&#xb6;" horiz-adv-x="1084" d="M36 730q0 56 23 105.5t61.5 86t89 57.5t106.5 21h670v-1220h-150v1130h-230v-1130h-150v680h-140q-56 0 -106.5 21t-89 58t-61.5 86t-23 105z" />
<glyph unicode="&#xb7;" horiz-adv-x="334" d="M67 490q0 16 8 31t21.5 25.5t31.5 17t39 6.5t39 -6.5t31.5 -17t21.5 -25.5t8 -31q0 -17 -8 -31.5t-21.5 -25t-31.5 -17t-39 -6.5t-39 6.5t-31.5 17t-21.5 25t-8 31.5z" />
<glyph unicode="&#xb8;" horiz-adv-x="667" d="M59 -240h308q32 0 55.5 4t39 15t25 30.5t12.5 50.5h-360v60l120 80h100l-80 -80h340v-22q0 -41 -16 -77t-43 -63t-63.5 -42.5t-77.5 -15.5h-360v60z" />
<glyph unicode="&#xb9;" horiz-adv-x="320" d="M97 400v600h120v-600h-120z" />
<glyph unicode="&#xba;" horiz-adv-x="990" d="M75 700q0 62 23.5 117t64 95.5t95.5 64t117 23.5h240q62 0 117 -23.5t95.5 -64t64 -95.5t23.5 -117t-23.5 -117t-64 -95.5t-95.5 -64t-117 -23.5h-240q-62 0 -117 23.5t-95.5 64t-64 95.5t-23.5 117zM207 700q0 -51 19.5 -96t52.5 -78t78 -52.5t96 -19.5h84q51 0 96 19.5 t78 52.5t52.5 78t19.5 96t-19.5 96t-52.5 78t-78 52.5t-96 19.5h-84q-51 0 -96 -19.5t-78 -52.5t-52.5 -78t-19.5 -96z" />
<glyph unicode="&#xbb;" horiz-adv-x="768" d="M97 80v180l150 100l-150 100v180l280 -200v-160zM437 80v180l150 100l-150 100v180l280 -200v-160z" />
<glyph unicode="&#xbc;" horiz-adv-x="1712" d="M74 400v600h120v-600h-120zM334 -20l460 1060h180l-460 -1060h-180zM834 120v54l588 426h120v-426h132v-54h-132v-120h-120v120h-588zM954 174h468v339z" />
<glyph unicode="&#xbd;" horiz-adv-x="2000" d="M77 400v600h120v-600h-120zM337 -20l460 1060h180l-460 -1060h-180zM1137 168q0 31 12 60t32 51t47.5 35t58.5 13h456q24 0 45 9t36 24.5t24 36t9 44.5q0 48 -33 76.5t-81 28.5h-606v54h690q31 0 58.5 -13t47.5 -35t32 -51t12 -60t-12 -61t-32 -54t-47.5 -38.5 t-58.5 -14.5h-456q-48 0 -81 -28.5t-33 -76.5q0 -24 9 -44.5t24 -36t36 -24.5t45 -9h606v-54h-690q-31 0 -58.5 14.5t-47.5 38.5t-32 54t-12 61z" />
<glyph unicode="&#xbe;" horiz-adv-x="1973" d="M21 400v54h606q48 0 81 27t33 75q0 24 -9 44.5t-24 36t-36 24.5t-45 9h-606v60h606q24 0 45 9t36 24.5t24 36t9 44.5q0 48 -33 75t-81 27h-606v54h690q31 0 58.5 -12.5t47.5 -34t32 -50t12 -59.5t-11.5 -57t-31 -45t-45.5 -30t-56 -12q30 -1 56 -12.5t45.5 -30.5t31 -45 t11.5 -56q0 -31 -12 -59.5t-32 -50t-47.5 -34t-58.5 -12.5h-690zM731 -20l460 1060h180l-460 -1060h-180zM1081 120v54l588 426h120v-426h132v-54h-132v-120h-120v120h-588zM1201 174h468v339z" />
<glyph unicode="&#xbf;" horiz-adv-x="1477" d="M16 -35q0 52 19.5 102.5t53.5 90t79.5 63.5t97.5 24h760q40 0 74.5 12.5t60 35.5t40.5 55t15 72v40h200v-40q0 -52 -19.5 -100t-53.5 -84.5t-79.5 -58.5t-97.5 -22h-760q-40 0 -74.5 -15t-60 -40.5t-40.5 -60.5t-15 -74q0 -40 15 -72t40.5 -55t60 -35.5t74.5 -12.5h1010 v-90h-1150q-52 0 -97.5 22t-79.5 58.5t-53.5 84.5t-19.5 100zM1216 540v160h200v-160h-200z" />
<glyph unicode="&#xc0;" horiz-adv-x="1480" d="M31 0l580 1000h220l600 -1000h-220l-210 350h-647l-203 -350h-120zM406 440h541l-275 458zM510 1300h240l180 -180h-160z" />
<glyph unicode="&#xc1;" horiz-adv-x="1517" d="M31 0l580 1000h220l600 -1000h-220l-210 350h-647l-203 -350h-120zM406 440h541l-275 458zM562 1120l180 180h240l-260 -180h-160z" />
<glyph unicode="&#xc2;" horiz-adv-x="1480" d="M31 0l580 1000h220l600 -1000h-220l-210 350h-647l-203 -350h-120zM406 440h541l-275 458zM468 1100l200 200h160l200 -200h-180l-100 111l-100 -111h-180z" />
<glyph unicode="&#xc3;" horiz-adv-x="1480" d="M31 0l580 1000h220l600 -1000h-220l-210 350h-647l-203 -350h-120zM406 440h541l-275 458zM425 1174v75q36 20 72 36t73 16q50 0 101 -10.5t102 -23.5t102 -23.5t102 -10.5q38 0 74.5 16t73.5 34v-76q-36 -17 -72.5 -32t-73.5 -15q-51 0 -102 9.5t-102 21.5t-102 21.5 t-101 9.5q-38 0 -74.5 -15.5t-72.5 -32.5z" />
<glyph unicode="&#xc4;" horiz-adv-x="1480" d="M31 0l580 1000h220l600 -1000h-220l-210 350h-647l-203 -350h-120zM406 440h541l-275 458zM493 1160v140h180v-140h-180zM833 1160v140h180v-140h-180z" />
<glyph unicode="&#xc5;" horiz-adv-x="1550" d="M65 0l580 1000h220l600 -1000h-220l-210 350h-647l-203 -350h-120zM440 440h541l-275 458zM513 1220q0 37 14 70t38.5 57.5t57 38.5t70.5 14h144q37 0 70 -14t57.5 -38.5t38.5 -57.5t14 -70q0 -38 -14 -70.5t-38.5 -57t-57.5 -38.5t-70 -14h-144q-38 0 -70.5 14t-57 38.5 t-38.5 57t-14 70.5zM592 1220q0 -31 11.5 -58t31.5 -47t47 -31.5t58 -11.5h50q31 0 58 11.5t47 31.5t31.5 47t11.5 58t-11.5 58t-31.5 47t-47 31.5t-58 11.5h-50q-31 0 -58 -11.5t-47 -31.5t-31.5 -47t-11.5 -58z" />
<glyph unicode="&#xc6;" horiz-adv-x="2122" d="M54 0l580 1000h220l199 -332q26 72 72 133t107.5 105.5t136 69t155.5 24.5h530v-90h-400q-80 0 -150 -28t-124.5 -77.5t-89.5 -116t-44 -143.5h808v-90h-808q9 -77 44 -144t89.5 -116t124.5 -77t150 -28h400v-90h-820l-210 350h-647l-203 -350h-120zM429 440h541 l-275 458z" />
<glyph unicode="&#xc7;" horiz-adv-x="1473" d="M50 500q0 69 18 133t50.5 119.5t78 101t101 78t119.5 50.5t133 18h900v-90h-770q-85 0 -160 -32t-130.5 -87.5t-87.5 -130.5t-32 -160t32 -160t87.5 -130.5t130.5 -87.5t160 -32h770v-90h-601l-79 -80h340v-22q0 -41 -16 -77t-43 -63t-63.5 -42.5t-77.5 -15.5h-360v60 h308q32 0 55.5 4t39 15t25 30.5t12.5 50.5h-360v60l118 80h-198q-69 0 -133 18t-119.5 50.5t-101 78t-78 101t-50.5 119.5t-18 133z" />
<glyph unicode="&#xc8;" horiz-adv-x="1550" d="M51 500q0 69 18 133t50.5 119.5t78 101t101 78t119.5 50.5t133 18h900v-90h-770q-80 0 -150 -28t-124.5 -77.5t-89.5 -116t-44 -143.5h1178v-90h-1178q9 -77 44 -144t89.5 -116t124.5 -77t150 -28h770v-90h-900q-69 0 -133 18t-119.5 50.5t-101 78t-78 101t-50.5 119.5 t-18 133zM510 1300h240l180 -180h-160z" />
<glyph unicode="&#xc9;" horiz-adv-x="1550" d="M51 500q0 69 18 133t50.5 119.5t78 101t101 78t119.5 50.5t133 18h900v-90h-770q-80 0 -150 -28t-124.5 -77.5t-89.5 -116t-44 -143.5h1178v-90h-1178q9 -77 44 -144t89.5 -116t124.5 -77t150 -28h770v-90h-900q-69 0 -133 18t-119.5 50.5t-101 78t-78 101t-50.5 119.5 t-18 133zM562 1120l180 180h240l-260 -180h-160z" />
<glyph unicode="&#xca;" horiz-adv-x="1550" d="M51 500q0 69 18 133t50.5 119.5t78 101t101 78t119.5 50.5t133 18h900v-90h-770q-80 0 -150 -28t-124.5 -77.5t-89.5 -116t-44 -143.5h1178v-90h-1178q9 -77 44 -144t89.5 -116t124.5 -77t150 -28h770v-90h-900q-69 0 -133 18t-119.5 50.5t-101 78t-78 101t-50.5 119.5 t-18 133zM468 1100l200 200h160l200 -200h-180l-100 111l-100 -111h-180z" />
<glyph unicode="&#xcb;" horiz-adv-x="1550" d="M51 500q0 69 18 133t50.5 119.5t78 101t101 78t119.5 50.5t133 18h900v-90h-770q-80 0 -150 -28t-124.5 -77.5t-89.5 -116t-44 -143.5h1178v-90h-1178q9 -77 44 -144t89.5 -116t124.5 -77t150 -28h770v-90h-900q-69 0 -133 18t-119.5 50.5t-101 78t-78 101t-50.5 119.5 t-18 133zM537 1160v140h180v-140h-180zM877 1160v140h180v-140h-180z" />
<glyph unicode="&#xcc;" horiz-adv-x="260" d="M-79 1300h240l180 -180h-160zM120 0v1000h180v-1000h-180z" />
<glyph unicode="&#xcd;" horiz-adv-x="282" d="M-37 1120l180 180h240l-260 -180h-160zM96 0v1000h200v-1000h-200z" />
<glyph unicode="&#xce;" horiz-adv-x="428" d="M-66 1120l200 200h160l200 -200h-180l-100 111l-100 -111h-180zM147 0v1000h180v-1000h-180z" />
<glyph unicode="&#xcf;" horiz-adv-x="404" d="M-58 1160v140h180v-140h-180zM96 0v1000h200v-1000h-200zM282 1160v140h180v-140h-180z" />
<glyph unicode="&#xd0;" horiz-adv-x="1738" d="M61 480v90h200v430h900q103 0 194.5 -39.5t159 -107t107 -159t39.5 -194.5q0 -69 -18 -133t-50.5 -119.5t-78 -101t-101 -78t-119.5 -50.5t-133 -18h-900v480h-200zM461 90h570q85 0 160 32t130.5 87.5t87.5 130.5t32 160t-32 160t-87.5 130.5t-130.5 87.5t-160 32h-570 v-340h700v-90h-700v-390z" />
<glyph unicode="&#xd1;" horiz-adv-x="1596" d="M96 0v1000h300l990 -900v900h110v-1000h-300l-990 900v-900h-110zM425 1174v75q36 20 72 36t73 16q50 0 101 -10.5t102 -23.5t102 -23.5t102 -10.5q38 0 74.5 16t73.5 34v-76q-36 -17 -72.5 -32t-73.5 -15q-51 0 -102 9.5t-102 21.5t-102 21.5t-101 9.5 q-38 0 -74.5 -15.5t-72.5 -32.5z" />
<glyph unicode="&#xd2;" horiz-adv-x="1684" d="M75 500q0 69 18 133t50.5 119.5t78 101t101 78t119.5 50.5t133 18h400q103 0 194.5 -39.5t159 -107t107 -159t39.5 -194.5q0 -69 -18 -133t-50.5 -119.5t-78 -101t-101 -78t-119.5 -50.5t-133 -18h-400q-69 0 -133 18t-119.5 50.5t-101 78t-78 101t-50.5 119.5t-18 133z M295 500q0 -85 32 -160t87.5 -130.5t130.5 -87.5t160 -32h140q85 0 160 32t130.5 87.5t87.5 130.5t32 160t-32 160t-87.5 130.5t-130.5 87.5t-160 32h-140q-85 0 -160 -32t-130.5 -87.5t-87.5 -130.5t-32 -160zM510 1300h240l180 -180h-160z" />
<glyph unicode="&#xd3;" horiz-adv-x="1684" d="M75 500q0 69 18 133t50.5 119.5t78 101t101 78t119.5 50.5t133 18h400q103 0 194.5 -39.5t159 -107t107 -159t39.5 -194.5q0 -69 -18 -133t-50.5 -119.5t-78 -101t-101 -78t-119.5 -50.5t-133 -18h-400q-69 0 -133 18t-119.5 50.5t-101 78t-78 101t-50.5 119.5t-18 133z M295 500q0 -85 32 -160t87.5 -130.5t130.5 -87.5t160 -32h140q85 0 160 32t130.5 87.5t87.5 130.5t32 160t-32 160t-87.5 130.5t-130.5 87.5t-160 32h-140q-85 0 -160 -32t-130.5 -87.5t-87.5 -130.5t-32 -160zM562 1120l180 180h240l-260 -180h-160z" />
<glyph unicode="&#xd4;" horiz-adv-x="1684" d="M75 500q0 69 18 133t50.5 119.5t78 101t101 78t119.5 50.5t133 18h400q103 0 194.5 -39.5t159 -107t107 -159t39.5 -194.5q0 -69 -18 -133t-50.5 -119.5t-78 -101t-101 -78t-119.5 -50.5t-133 -18h-400q-69 0 -133 18t-119.5 50.5t-101 78t-78 101t-50.5 119.5t-18 133z M295 500q0 -85 32 -160t87.5 -130.5t130.5 -87.5t160 -32h140q85 0 160 32t130.5 87.5t87.5 130.5t32 160t-32 160t-87.5 130.5t-130.5 87.5t-160 32h-140q-85 0 -160 -32t-130.5 -87.5t-87.5 -130.5t-32 -160zM468 1100l200 200h160l200 -200h-180l-100 111l-100 -111h-180 z" />
<glyph unicode="&#xd5;" horiz-adv-x="1550" d="M75 500q0 69 18 133t50.5 119.5t78 101t101 78t119.5 50.5t133 18h400q103 0 194.5 -39.5t159 -107t107 -159t39.5 -194.5q0 -69 -18 -133t-50.5 -119.5t-78 -101t-101 -78t-119.5 -50.5t-133 -18h-400q-69 0 -133 18t-119.5 50.5t-101 78t-78 101t-50.5 119.5t-18 133z M295 500q0 -85 32 -160t87.5 -130.5t130.5 -87.5t160 -32h140q85 0 160 32t130.5 87.5t87.5 130.5t32 160t-32 160t-87.5 130.5t-130.5 87.5t-160 32h-140q-85 0 -160 -32t-130.5 -87.5t-87.5 -130.5t-32 -160zM425 1174v75q36 20 72 36t73 16q50 0 101 -10.5t102 -23.5 t102 -23.5t102 -10.5q38 0 74.5 16t73.5 34v-76q-36 -17 -72.5 -32t-73.5 -15q-51 0 -102 9.5t-102 21.5t-102 21.5t-101 9.5q-38 0 -74.5 -15.5t-72.5 -32.5z" />
<glyph unicode="&#xd6;" horiz-adv-x="1550" d="M75 500q0 69 18 133t50.5 119.5t78 101t101 78t119.5 50.5t133 18h400q103 0 194.5 -39.5t159 -107t107 -159t39.5 -194.5q0 -69 -18 -133t-50.5 -119.5t-78 -101t-101 -78t-119.5 -50.5t-133 -18h-400q-69 0 -133 18t-119.5 50.5t-101 78t-78 101t-50.5 119.5t-18 133z M295 500q0 -85 32 -160t87.5 -130.5t130.5 -87.5t160 -32h140q85 0 160 32t130.5 87.5t87.5 130.5t32 160t-32 160t-87.5 130.5t-130.5 87.5t-160 32h-140q-85 0 -160 -32t-130.5 -87.5t-87.5 -130.5t-32 -160zM499 1160v140h180v-140h-180zM839 1160v140h180v-140h-180z " />
<glyph unicode="&#xd7;" horiz-adv-x="1133" d="M89 74l399 276l-399 276l51 74l427 -296l427 296l51 -74l-399 -276l399 -276l-51 -74l-427 295l-427 -295z" />
<glyph unicode="&#xd8;" horiz-adv-x="1560" d="M80 500q0 69 18 133t50.5 119.5t78 101t101 78t119.5 50.5t133 18h400q86 0 163 -27.5t140 -75.5l133 90l51 -75l-115 -78q60 -67 94 -152t34 -182q0 -69 -18 -133t-50.5 -119.5t-78 -101t-101 -78t-119.5 -50.5t-133 -18h-400q-86 0 -163.5 27t-140.5 76l-132 -90 l-51 75l115 78q-60 66 -94 151.5t-34 182.5zM300 500q0 -63 17.5 -120t49.5 -106l767 521q-55 54 -128 84.5t-156 30.5h-140q-85 0 -160 -32t-130.5 -87.5t-87.5 -130.5t-32 -160zM425 204q56 -54 128.5 -84t156.5 -30h140q85 0 160 32t130.5 87.5t87.5 130.5t32 160 q0 63 -18 120t-50 105z" />
<glyph unicode="&#xd9;" horiz-adv-x="1572" d="M73 500v500h200v-500q0 -85 35.5 -160t94.5 -130.5t137 -87.5t163 -32h140q85 0 163 32t137 87.5t94.5 130.5t35.5 160v500h200v-500q0 -69 -18 -133t-50.5 -119.5t-78 -101t-101 -78t-119.5 -50.5t-133 -18h-400q-69 0 -133 18t-119.5 50.5t-101 78t-78 101t-50.5 119.5 t-18 133zM510 1300h240l180 -180h-160z" />
<glyph unicode="&#xda;" horiz-adv-x="1572" d="M73 500v500h200v-500q0 -85 35.5 -160t94.5 -130.5t137 -87.5t163 -32h140q85 0 163 32t137 87.5t94.5 130.5t35.5 160v500h200v-500q0 -69 -18 -133t-50.5 -119.5t-78 -101t-101 -78t-119.5 -50.5t-133 -18h-400q-69 0 -133 18t-119.5 50.5t-101 78t-78 101t-50.5 119.5 t-18 133zM562 1120l180 180h240l-260 -180h-160z" />
<glyph unicode="&#xdb;" horiz-adv-x="1572" d="M73 500v500h200v-500q0 -85 35.5 -160t94.5 -130.5t137 -87.5t163 -32h140q85 0 163 32t137 87.5t94.5 130.5t35.5 160v500h200v-500q0 -69 -18 -133t-50.5 -119.5t-78 -101t-101 -78t-119.5 -50.5t-133 -18h-400q-69 0 -133 18t-119.5 50.5t-101 78t-78 101t-50.5 119.5 t-18 133zM468 1100l200 200h160l200 -200h-180l-100 111l-100 -111h-180z" />
<glyph unicode="&#xdc;" horiz-adv-x="1572" d="M73 500v500h200v-500q0 -85 35.5 -160t94.5 -130.5t137 -87.5t163 -32h140q85 0 163 32t137 87.5t94.5 130.5t35.5 160v500h200v-500q0 -69 -18 -133t-50.5 -119.5t-78 -101t-101 -78t-119.5 -50.5t-133 -18h-400q-69 0 -133 18t-119.5 50.5t-101 78t-78 101t-50.5 119.5 t-18 133zM537 1160v140h180v-140h-180zM877 1160v140h180v-140h-180z" />
<glyph unicode="&#xdd;" horiz-adv-x="1462" d="M13 1000h280l444 -397l476 397h200l-590 -492v-508h-220v473zM562 1120l180 180h240l-260 -180h-160z" />
<glyph unicode="&#xde;" horiz-adv-x="1504" d="M97 0v1000h200v-155h950q52 0 97.5 -22t79.5 -58.5t53.5 -84.5t19.5 -100t-19.5 -102.5t-53.5 -90t-79.5 -63.5t-97.5 -24h-950v-300h-200zM297 390h810q40 0 74.5 15t60 40.5t40.5 60.5t15 74q0 40 -15 72t-40.5 55t-60 35.5t-74.5 12.5h-810v-365z" />
<glyph unicode="&#xdf;" horiz-adv-x="1573" d="M86 0v500q0 69 18 133t50.5 119.5t78 101t101 78t119.5 50.5t133 18h650q52 0 97.5 -21t79.5 -57t53.5 -83t19.5 -99q0 -51 -18.5 -94t-51 -75t-76.5 -50.5t-94 -20.5q50 -2 94 -20.5t76.5 -50.5t51 -75t18.5 -94q0 -52 -19.5 -99t-53.5 -83t-79.5 -57t-97.5 -21h-800v90 h660q40 0 74.5 11.5t60 33.5t40.5 53.5t15 71.5q0 39 -15 74t-40.5 60.5t-60 40.5t-74.5 15h-510v100h510q40 0 74.5 15t60 40.5t40.5 60.5t15 74q0 40 -15 71.5t-40.5 53.5t-60 33.5t-74.5 11.5h-380q-80 0 -150.5 -28t-125.5 -77.5t-90 -116t-44 -143.5v-545h-220z" />
<glyph unicode="&#xe0;" horiz-adv-x="1256" d="M81 240q0 52 19.5 93.5t53.5 71t79.5 45t97.5 15.5h647q-17 36 -43 66.5t-60 52.5t-73 34t-81 12h-640v90h740q75 0 140.5 -28.5t114 -77t77 -114t28.5 -140.5v-360h-850q-52 0 -97.5 18t-79.5 50t-53.5 76t-19.5 96zM261 240q0 -39 18 -67.5t47.5 -47t67 -27t77.5 -8.5 h530v270q0 10 -1 15h-529q-40 0 -77.5 -6t-67 -21.5t-47.5 -41.5t-18 -66zM350 1000h240l180 -180h-160z" />
<glyph unicode="&#xe1;" horiz-adv-x="1256" d="M81 240q0 52 19.5 93.5t53.5 71t79.5 45t97.5 15.5h647q-17 36 -43 66.5t-60 52.5t-73 34t-81 12h-640v90h740q75 0 140.5 -28.5t114 -77t77 -114t28.5 -140.5v-360h-850q-52 0 -97.5 18t-79.5 50t-53.5 76t-19.5 96zM261 240q0 -39 18 -67.5t47.5 -47t67 -27t77.5 -8.5 h530v270q0 10 -1 15h-529q-40 0 -77.5 -6t-67 -21.5t-47.5 -41.5t-18 -66zM422 820l180 180h240l-260 -180h-160z" />
<glyph unicode="&#xe2;" horiz-adv-x="1256" d="M81 240q0 52 19.5 93.5t53.5 71t79.5 45t97.5 15.5h647q-17 36 -43 66.5t-60 52.5t-73 34t-81 12h-640v90h740q75 0 140.5 -28.5t114 -77t77 -114t28.5 -140.5v-360h-850q-52 0 -97.5 18t-79.5 50t-53.5 76t-19.5 96zM261 240q0 -39 18 -67.5t47.5 -47t67 -27t77.5 -8.5 h530v270q0 10 -1 15h-529q-40 0 -77.5 -6t-67 -21.5t-47.5 -41.5t-18 -66zM328 820l200 200h160l200 -200h-180l-100 111l-100 -111h-180z" />
<glyph unicode="&#xe3;" horiz-adv-x="1256" d="M81 240q0 52 19.5 93.5t53.5 71t79.5 45t97.5 15.5h647q-17 36 -43 66.5t-60 52.5t-73 34t-81 12h-640v90h740q75 0 140.5 -28.5t114 -77t77 -114t28.5 -140.5v-360h-850q-52 0 -97.5 18t-79.5 50t-53.5 76t-19.5 96zM261 240q0 -39 18 -67.5t47.5 -47t67 -27t77.5 -8.5 h530v270q0 10 -1 15h-529q-40 0 -77.5 -6t-67 -21.5t-47.5 -41.5t-18 -66zM285 874v75q36 20 72 36t73 16q50 0 101 -10.5t102 -23.5t102 -23.5t102 -10.5q38 0 74.5 16t73.5 34v-76q-36 -17 -72.5 -32t-73.5 -15q-51 0 -102 9.5t-102 21.5t-102 21.5t-101 9.5 q-38 0 -74.5 -15.5t-72.5 -32.5z" />
<glyph unicode="&#xe4;" horiz-adv-x="1256" d="M81 240q0 52 19.5 93.5t53.5 71t79.5 45t97.5 15.5h647q-17 36 -43 66.5t-60 52.5t-73 34t-81 12h-640v90h740q75 0 140.5 -28.5t114 -77t77 -114t28.5 -140.5v-360h-850q-52 0 -97.5 18t-79.5 50t-53.5 76t-19.5 96zM261 240q0 -39 18 -67.5t47.5 -47t67 -27t77.5 -8.5 h530v270q0 10 -1 15h-529q-40 0 -77.5 -6t-67 -21.5t-47.5 -41.5t-18 -66zM397 840v140h180v-140h-180zM737 840v140h180v-140h-180z" />
<glyph unicode="&#xe5;" horiz-adv-x="1250" d="M78 240q0 52 19.5 93.5t53.5 71t79.5 45t97.5 15.5h647q-17 36 -43 66.5t-60 52.5t-73 34t-81 12h-640v90h740q75 0 140.5 -28.5t114 -77t77 -114t28.5 -140.5v-360h-850q-52 0 -97.5 18t-79.5 50t-53.5 76t-19.5 96zM258 240q0 -39 18 -67.5t47.5 -47t67 -27t77.5 -8.5 h530v270q0 10 -1 15h-529q-40 0 -77.5 -6t-67 -21.5t-47.5 -41.5t-18 -66zM372 1020q0 37 14 70t38.5 57.5t57 38.5t70.5 14h144q37 0 70 -14t57.5 -38.5t38.5 -57.5t14 -70q0 -38 -14 -70.5t-38.5 -57t-57.5 -38.5t-70 -14h-144q-38 0 -70.5 14t-57 38.5t-38.5 57t-14 70.5 zM451 1020q0 -31 11.5 -58t31.5 -47t47 -31.5t58 -11.5h50q31 0 58 11.5t47 31.5t31.5 47t11.5 58t-11.5 58t-31.5 47t-47 31.5t-58 11.5h-50q-31 0 -58 -11.5t-47 -31.5t-31.5 -47t-11.5 -58z" />
<glyph unicode="&#xe6;" horiz-adv-x="1986" d="M86 240q0 52 19.5 93.5t53.5 71t79.5 45t97.5 15.5h547q-17 36 -43 66.5t-60 52.5t-73 34t-81 12h-540v90h640q81 0 150.5 -32.5t119.5 -89.5q50 57 119.5 89.5t150.5 32.5h640v-90h-540q-50 0 -96.5 -17t-83.5 -47.5t-62 -71.5t-34 -89h816v-90h-816q9 -48 34 -89 t62 -71.5t83.5 -47.5t96.5 -17h540v-90h-640q-50 0 -95 12.5t-85 35.5v-48h-750q-52 0 -97.5 18t-79.5 50t-53.5 76t-19.5 96zM266 240q0 -39 18 -67.5t47.5 -47t67 -27t77.5 -8.5h430v270q0 10 -1 15h-429q-40 0 -77.5 -6t-67 -21.5t-47.5 -41.5t-18 -66z" />
<glyph unicode="&#xe7;" horiz-adv-x="1182" d="M50 360q0 75 28.5 140.5t77 114t114 77t140.5 28.5h740v-90h-640q-56 0 -106.5 -21t-89 -57.5t-61.5 -86t-23 -105.5t23 -105t61.5 -86t89 -58t106.5 -21h640v-90h-500l-80 -80h340v-22q0 -41 -16 -77t-43 -63t-63.5 -42.5t-77.5 -15.5h-360v60h308q32 0 55.5 4t39 15 t25 30.5t12.5 50.5h-360v60l120 80h-140q-75 0 -140.5 28.5t-114 77t-77 114t-28.5 140.5z" />
<glyph unicode="&#xe8;" d="M79 360q0 75 28.5 140.5t77 114t114 77t140.5 28.5h740v-90h-640q-50 0 -96.5 -17t-83.5 -47.5t-62 -71.5t-34 -89h916v-90h-916q9 -48 34 -89t62 -71.5t83.5 -47.5t96.5 -17h640v-90h-740q-75 0 -140.5 28.5t-114 77t-77 114t-28.5 140.5zM350 1000h240l180 -180h-160z " />
<glyph unicode="&#xe9;" d="M79 360q0 75 28.5 140.5t77 114t114 77t140.5 28.5h740v-90h-640q-50 0 -96.5 -17t-83.5 -47.5t-62 -71.5t-34 -89h916v-90h-916q9 -48 34 -89t62 -71.5t83.5 -47.5t96.5 -17h640v-90h-740q-75 0 -140.5 28.5t-114 77t-77 114t-28.5 140.5zM422 820l180 180h240 l-260 -180h-160z" />
<glyph unicode="&#xea;" d="M79 360q0 75 28.5 140.5t77 114t114 77t140.5 28.5h740v-90h-640q-50 0 -96.5 -17t-83.5 -47.5t-62 -71.5t-34 -89h916v-90h-916q9 -48 34 -89t62 -71.5t83.5 -47.5t96.5 -17h640v-90h-740q-75 0 -140.5 28.5t-114 77t-77 114t-28.5 140.5zM328 820l200 200h160l200 -200 h-180l-100 111l-100 -111h-180z" />
<glyph unicode="&#xeb;" d="M79 360q0 75 28.5 140.5t77 114t114 77t140.5 28.5h740v-90h-640q-50 0 -96.5 -17t-83.5 -47.5t-62 -71.5t-34 -89h916v-90h-916q9 -48 34 -89t62 -71.5t83.5 -47.5t96.5 -17h640v-90h-740q-75 0 -140.5 28.5t-114 77t-77 114t-28.5 140.5zM397 840v140h180v-140h-180z M737 840v140h180v-140h-180z" />
<glyph unicode="&#xec;" horiz-adv-x="476" d="M31 1000h240l180 -180h-160zM131 0v720h180v-720h-180z" />
<glyph unicode="&#xed;" horiz-adv-x="488" d="M56 820l180 180h240l-260 -180h-160zM104 0h180v720h-180v-720z" />
<glyph unicode="&#xee;" horiz-adv-x="615" d="M31 820l200 200h160l200 -200h-180l-100 111l-100 -111h-180zM216 0h180v720h-180v-720z" />
<glyph unicode="&#xef;" horiz-adv-x="596" d="M39 840v140h180v-140h-180zM203 0v720h180v-720h-180zM379 840v140h180v-140h-180z" />
<glyph unicode="&#xf0;" horiz-adv-x="1224" d="M64 360q0 75 28.5 140.5t77 114t114 77t140.5 28.5h307q-38 29 -76.5 54.5t-77.5 46.5l-178 -64l-32 83l95 35q-33 12 -63 18.5t-55 6.5h-100l60 120h100q61 0 129.5 -18t138.5 -50l132 48l32 -84l-58 -21q78 -48 148 -108t123 -127.5t84 -139t31 -140.5h-1q1 -5 1 -10 v-10q0 -75 -28.5 -140.5t-77 -114t-114 -77t-140.5 -28.5h-380q-75 0 -140.5 28.5t-114 77t-77 114t-28.5 140.5zM244 360q0 -56 23 -105t61.5 -86t89 -58t106.5 -21h180q56 0 106.5 21t89 58t61.5 86t23 105t-23 105.5t-61.5 86t-89 57.5t-106.5 21h-180q-56 0 -106.5 -21 t-89 -57.5t-61.5 -86t-23 -105.5z" />
<glyph unicode="&#xf1;" horiz-adv-x="1296" d="M120 0v720h740q75 0 140.5 -28.5t114 -77t77 -114t28.5 -140.5v-360h-180v360q0 56 -23 105.5t-61.5 86t-89 57.5t-106.5 21h-460v-630h-180zM285 874v75q36 20 72 36t73 16q50 0 101 -10.5t102 -23.5t102 -23.5t102 -10.5q38 0 74.5 16t73.5 34v-76q-36 -17 -72.5 -32 t-73.5 -15q-51 0 -102 9.5t-102 21.5t-102 21.5t-101 9.5q-38 0 -74.5 -15.5t-72.5 -32.5z" />
<glyph unicode="&#xf2;" d="M104 360q0 75 28.5 140.5t77 114t114 77t140.5 28.5h380q75 0 140.5 -28.5t114 -77t77 -114t28.5 -140.5t-28.5 -140.5t-77 -114t-114 -77t-140.5 -28.5h-380q-75 0 -140.5 28.5t-114 77t-77 114t-28.5 140.5zM284 360q0 -56 23 -105t61.5 -86t89 -58t106.5 -21h180 q56 0 106.5 21t89 58t61.5 86t23 105t-23 105.5t-61.5 86t-89 57.5t-106.5 21h-180q-56 0 -106.5 -21t-89 -57.5t-61.5 -86t-23 -105.5zM350 1000h240l180 -180h-160z" />
<glyph unicode="&#xf3;" d="M104 360q0 75 28.5 140.5t77 114t114 77t140.5 28.5h380q75 0 140.5 -28.5t114 -77t77 -114t28.5 -140.5t-28.5 -140.5t-77 -114t-114 -77t-140.5 -28.5h-380q-75 0 -140.5 28.5t-114 77t-77 114t-28.5 140.5zM284 360q0 -56 23 -105t61.5 -86t89 -58t106.5 -21h180 q56 0 106.5 21t89 58t61.5 86t23 105t-23 105.5t-61.5 86t-89 57.5t-106.5 21h-180q-56 0 -106.5 -21t-89 -57.5t-61.5 -86t-23 -105.5zM422 820l180 180h240l-260 -180h-160z" />
<glyph unicode="&#xf4;" d="M104 360q0 75 28.5 140.5t77 114t114 77t140.5 28.5h380q75 0 140.5 -28.5t114 -77t77 -114t28.5 -140.5t-28.5 -140.5t-77 -114t-114 -77t-140.5 -28.5h-380q-75 0 -140.5 28.5t-114 77t-77 114t-28.5 140.5zM284 360q0 -56 23 -105t61.5 -86t89 -58t106.5 -21h180 q56 0 106.5 21t89 58t61.5 86t23 105t-23 105.5t-61.5 86t-89 57.5t-106.5 21h-180q-56 0 -106.5 -21t-89 -57.5t-61.5 -86t-23 -105.5zM328 820l200 200h160l200 -200h-180l-100 111l-100 -111h-180z" />
<glyph unicode="&#xf5;" d="M104 360q0 75 28.5 140.5t77 114t114 77t140.5 28.5h380q75 0 140.5 -28.5t114 -77t77 -114t28.5 -140.5t-28.5 -140.5t-77 -114t-114 -77t-140.5 -28.5h-380q-75 0 -140.5 28.5t-114 77t-77 114t-28.5 140.5zM284 360q0 -56 23 -105t61.5 -86t89 -58t106.5 -21h180 q56 0 106.5 21t89 58t61.5 86t23 105t-23 105.5t-61.5 86t-89 57.5t-106.5 21h-180q-56 0 -106.5 -21t-89 -57.5t-61.5 -86t-23 -105.5zM285 874v75q36 20 72 36t73 16q50 0 101 -10.5t102 -23.5t102 -23.5t102 -10.5q38 0 74.5 16t73.5 34v-76q-36 -17 -72.5 -32t-73.5 -15 q-51 0 -102 9.5t-102 21.5t-102 21.5t-101 9.5q-38 0 -74.5 -15.5t-72.5 -32.5z" />
<glyph unicode="&#xf6;" d="M104 360q0 75 28.5 140.5t77 114t114 77t140.5 28.5h380q75 0 140.5 -28.5t114 -77t77 -114t28.5 -140.5t-28.5 -140.5t-77 -114t-114 -77t-140.5 -28.5h-380q-75 0 -140.5 28.5t-114 77t-77 114t-28.5 140.5zM284 360q0 -56 23 -105t61.5 -86t89 -58t106.5 -21h180 q56 0 106.5 21t89 58t61.5 86t23 105t-23 105.5t-61.5 86t-89 57.5t-106.5 21h-180q-56 0 -106.5 -21t-89 -57.5t-61.5 -86t-23 -105.5zM372 840v140h180v-140h-180zM712 840v140h180v-140h-180z" />
<glyph unicode="&#xf7;" horiz-adv-x="986" d="M13 300v100h960v-100h-960zM393 80q0 16 8 31t21.5 25.5t31.5 17t39 6.5t39 -6.5t31.5 -17t21.5 -25.5t8 -31q0 -17 -8 -31.5t-21.5 -25t-31.5 -17t-39 -6.5t-39 6.5t-31.5 17t-21.5 25t-8 31.5zM393 640q0 16 8 31t21.5 25.5t31.5 17t39 6.5t39 -6.5t31.5 -17 t21.5 -25.5t8 -31q0 -17 -8 -31.5t-21.5 -25t-31.5 -17t-39 -6.5t-39 6.5t-31.5 17t-21.5 25t-8 31.5z" />
<glyph unicode="&#xf8;" horiz-adv-x="1265" d="M82 69l88 55q-42 48 -65 107.5t-23 128.5q0 75 28.5 140.5t77 114t114 77t140.5 28.5h380q57 0 107.5 -16.5t94.5 -45.5l109 68l49 -69l-92 -57q43 -48 67.5 -109.5t24.5 -130.5q0 -75 -28.5 -140.5t-77 -114t-114 -77t-140.5 -28.5h-380q-58 0 -110 17t-97 48l-104 -65z M262 360q0 -42 12.5 -79.5t35.5 -69.5l580 363q-35 26 -78 41t-90 15h-180q-56 0 -106.5 -21t-89 -57.5t-61.5 -86t-23 -105.5zM370 149q36 -28 80 -43.5t92 -15.5h180q56 0 106.5 21t89 58t61.5 86t23 105q0 43 -13.5 81.5t-37.5 71.5z" />
<glyph unicode="&#xf9;" horiz-adv-x="1274" d="M99 360v360h180v-360q0 -56 23 -105t61.5 -86t89 -58t106.5 -21h180q56 0 106.5 21t89 58t61.5 86t23 105v360h180v-360q0 -75 -28.5 -140.5t-77 -114t-114 -77t-140.5 -28.5h-380q-75 0 -140.5 28.5t-114 77t-77 114t-28.5 140.5zM350 1000h240l180 -180h-160z" />
<glyph unicode="&#xfa;" horiz-adv-x="1274" d="M99 360v360h180v-360q0 -56 23 -105t61.5 -86t89 -58t106.5 -21h180q56 0 106.5 21t89 58t61.5 86t23 105v360h180v-360q0 -75 -28.5 -140.5t-77 -114t-114 -77t-140.5 -28.5h-380q-75 0 -140.5 28.5t-114 77t-77 114t-28.5 140.5zM422 820l180 180h240l-260 -180h-160z " />
<glyph unicode="&#xfb;" horiz-adv-x="1274" d="M99 360v360h180v-360q0 -56 23 -105t61.5 -86t89 -58t106.5 -21h180q56 0 106.5 21t89 58t61.5 86t23 105v360h180v-360q0 -75 -28.5 -140.5t-77 -114t-114 -77t-140.5 -28.5h-380q-75 0 -140.5 28.5t-114 77t-77 114t-28.5 140.5zM348 820l200 200h160l200 -200h-180 l-100 111l-100 -111h-180z" />
<glyph unicode="&#xfc;" horiz-adv-x="1274" d="M99 360v360h180v-360q0 -56 23 -105t61.5 -86t89 -58t106.5 -21h180q56 0 106.5 21t89 58t61.5 86t23 105v360h180v-360q0 -75 -28.5 -140.5t-77 -114t-114 -77t-140.5 -28.5h-380q-75 0 -140.5 28.5t-114 77t-77 114t-28.5 140.5zM380 840v140h180v-140h-180zM720 840 v140h180v-140h-180z" />
<glyph unicode="&#xfd;" horiz-adv-x="1248" d="M73 -190h640q45 0 87.5 14t77.5 39.5t61.5 60.5t40.5 76h-547q-75 0 -140.5 28.5t-114 77t-77 114t-28.5 140.5v360h180v-360q0 -56 23 -105.5t61.5 -86t89 -57.5t106.5 -21h460v630h180v-640q0 -75 -28.5 -140.5t-77 -114t-114 -77t-140.5 -28.5h-740v90zM422 820 l180 180h240l-260 -180h-160z" />
<glyph unicode="&#xfe;" horiz-adv-x="1204" d="M97 -280v1280h180v-280h560q75 0 140.5 -28.5t114 -77t77 -114t28.5 -140.5t-28.5 -140.5t-77 -114t-114 -77t-140.5 -28.5h-560v-280h-180zM277 90h460q56 0 106.5 21t89 57.5t61.5 86t23 105.5t-23 105t-61.5 86t-89 58t-106.5 21h-460v-540z" />
<glyph unicode="&#xff;" horiz-adv-x="1248" d="M73 -190h640q45 0 87.5 14t77.5 39.5t61.5 60.5t40.5 76h-547q-75 0 -140.5 28.5t-114 77t-77 114t-28.5 140.5v360h180v-360q0 -56 23 -105.5t61.5 -86t89 -57.5t106.5 -21h460v630h180v-640q0 -75 -28.5 -140.5t-77 -114t-114 -77t-140.5 -28.5h-740v90zM377 840v140 h180v-140h-180zM717 840v140h180v-140h-180z" />
<glyph unicode="&#x152;" horiz-adv-x="2448" d="M84 500q0 103 36.5 194.5t99.5 159t147.5 107t180.5 39.5h371q56 0 108.5 -14t99.5 -39.5t87.5 -61.5t72.5 -81q34 45 77.5 81t94.5 61.5t107.5 39.5t117.5 14h700v-90h-570q-80 0 -150 -28t-124.5 -77.5t-89.5 -116t-44 -143.5h978v-90h-978q9 -77 44 -144t89.5 -116 t124.5 -77t150 -28h570v-90h-700q-61 0 -117.5 14t-107.5 39.5t-94.5 61.5t-77.5 81q-32 -45 -72.5 -81t-87.5 -61.5t-99.5 -39.5t-108.5 -14h-371q-96 0 -180.5 39.5t-147.5 107t-99.5 158.5t-36.5 195zM288 500q0 -85 30 -160t81.5 -130.5t121 -87.5t148.5 -32h129 q79 0 148.5 32t121 87.5t81.5 130.5t30 160t-30 160t-81.5 130.5t-121 87.5t-148.5 32h-129q-79 0 -148.5 -32t-121 -87.5t-81.5 -130.5t-30 -160z" />
<glyph unicode="&#x153;" horiz-adv-x="2105" d="M86 360q0 75 25.5 140.5t70 114t104.5 77t128 28.5h345q75 0 140.5 -34.5t110.5 -94.5q50 60 121 94.5t155 34.5h740v-90h-640q-50 0 -96.5 -17t-83.5 -47.5t-62 -71.5t-34 -89h916v-90h-916q9 -48 34 -89t62 -71.5t83.5 -47.5t96.5 -17h640v-90h-740q-84 0 -155 34.5 t-121 93.5q-45 -59 -110.5 -93.5t-140.5 -34.5h-345q-68 0 -128 28.5t-104.5 77t-70 114t-25.5 140.5zM250 360q0 -56 20.5 -105t56 -86t81.5 -58t97 -21h163q51 0 97.5 21t82 58t56.5 86t21 105t-21 105.5t-56.5 86t-82 57.5t-97.5 21h-163q-51 0 -97 -21t-81.5 -57.5 t-56 -86t-20.5 -105.5z" />
<glyph unicode="&#x178;" horiz-adv-x="1462" d="M13 1000h280l444 -397l476 397h200l-590 -492v-508h-220v473zM496 1160v140h180v-140h-180zM836 1160v140h180v-140h-180z" />
<glyph unicode="&#x2c6;" horiz-adv-x="656" d="M48 820l200 200h160l200 -200h-180l-100 111l-100 -111h-180z" />
<glyph unicode="&#x2dc;" horiz-adv-x="847" d="M75 874v75q36 20 72 36t73 16q50 0 101 -10.5t102 -23.5t102 -23.5t102 -10.5q38 0 74.5 16t73.5 34v-76q-36 -17 -72.5 -32t-73.5 -15q-51 0 -102 9.5t-102 21.5t-102 21.5t-101 9.5q-38 0 -74.5 -15.5t-72.5 -32.5z" />
<glyph unicode="&#x2000;" horiz-adv-x="700" />
<glyph unicode="&#x2001;" horiz-adv-x="1400" />
<glyph unicode="&#x2002;" horiz-adv-x="700" />
<glyph unicode="&#x2003;" horiz-adv-x="1400" />
<glyph unicode="&#x2004;" horiz-adv-x="466" />
<glyph unicode="&#x2005;" horiz-adv-x="350" />
<glyph unicode="&#x2006;" horiz-adv-x="233" />
<glyph unicode="&#x2007;" horiz-adv-x="233" />
<glyph unicode="&#x2008;" horiz-adv-x="175" />
<glyph unicode="&#x2009;" horiz-adv-x="280" />
<glyph unicode="&#x200a;" horiz-adv-x="77" />
<glyph unicode="&#x2010;" horiz-adv-x="695" d="M97 300v100h500v-100h-500z" />
<glyph unicode="&#x2011;" horiz-adv-x="695" d="M97 300v100h500v-100h-500z" />
<glyph unicode="&#x2012;" horiz-adv-x="695" d="M97 300v100h500v-100h-500z" />
<glyph unicode="&#x2013;" horiz-adv-x="1295" d="M97 300v90h1100v-90h-1100z" />
<glyph unicode="&#x2014;" horiz-adv-x="1694" d="M97 300v90h1500v-90h-1500z" />
<glyph unicode="&#x2018;" horiz-adv-x="332" d="M62 620v160l80 220h80l-40 -220h80v-160h-200z" />
<glyph unicode="&#x2019;" horiz-adv-x="331" d="M68 840v160h200v-160l-80 -220h-80l40 220h-80z" />
<glyph unicode="&#x201a;" horiz-adv-x="331" d="M68 0v160h200v-160l-80 -220h-80l40 220h-80z" />
<glyph unicode="&#x201c;" horiz-adv-x="689" d="M83 620v160l80 220h80l-40 -220h80v-160h-200zM403 620v160l80 220h80l-40 -220h80v-160h-200z" />
<glyph unicode="&#x201d;" horiz-adv-x="688" d="M85 840v160h200v-160l-80 -220h-80l40 220h-80zM405 840v160h200v-160l-80 -220h-80l40 220h-80z" />
<glyph unicode="&#x201e;" horiz-adv-x="688" d="M85 0v160h200v-160l-80 -220h-80l40 220h-80zM405 0v160h200v-160l-80 -220h-80l40 220h-80z" />
<glyph unicode="&#x2022;" horiz-adv-x="903" d="M77 475q0 46 19.5 87t52.5 72t76.5 48.5t91.5 17.5h270q48 0 91.5 -17.5t76.5 -48.5t52.5 -72t19.5 -87q0 -47 -19.5 -88t-52.5 -71.5t-76.5 -48t-91.5 -17.5h-270q-48 0 -91.5 17.5t-76.5 48t-52.5 71.5t-19.5 88z" />
<glyph unicode="&#x2026;" horiz-adv-x="1794" d="M97 0v160h200v-160h-200zM797 0v160h200v-160h-200zM1497 0v160h200v-160h-200z" />
<glyph unicode="&#x202f;" horiz-adv-x="280" />
<glyph unicode="&#x2039;" horiz-adv-x="361" d="M10 300v100l280 180v-120l-193 -110l193 -110v-120z" />
<glyph unicode="&#x203a;" horiz-adv-x="392" d="M97 80v180l150 100l-150 100v180l280 -200v-160z" />
<glyph unicode="&#x205f;" horiz-adv-x="350" />
<glyph unicode="&#x20ac;" horiz-adv-x="1663" d="M46 360l60 90h141q-1 12 -1 24.5v25.5v25t1 25h-201l60 90h159q22 78 68 144t109.5 114t140.5 75t163 27h400q74 0 142 -20.5t126 -57.5t104.5 -88.5t77.5 -113.5h-235q-27 43 -64 78t-81 60t-94.5 38.5t-105.5 13.5h-140q-67 0 -127.5 -20t-111 -56t-88.5 -85.5 t-59 -108.5h616l-60 -90h-577q-3 -26 -3 -50q0 -26 3 -50h637l-60 -90h-556q21 -59 59 -108.5t88.5 -85.5t111 -56t127.5 -20h140q55 0 105.5 13.5t94.5 38.5t81 60t64 78h235q-31 -62 -77.5 -113.5t-104.5 -88.5t-126 -57.5t-142 -20.5h-400q-86 0 -163 27t-140.5 75 t-109.5 114t-68 144h-219z" />
<glyph unicode="&#x2122;" horiz-adv-x="1893" d="M54 946v54h839v-54h-359v-546h-120v546h-360zM944 400v600h132l294 -490l294 490h132v-600h-66v490l-294 -490h-132l-294 490v-490h-66z" />
<glyph unicode="&#x25fc;" horiz-adv-x="1000" d="M0 0v1000h1000v-1000h-1000z" />
<glyph unicode="&#xfb01;" horiz-adv-x="1430" d="M60 630v90h149q13 60 45.5 111t79 88.5t104 59t122.5 21.5h340v-90h-240q-46 0 -88.5 -14t-77.5 -39.5t-61.5 -60.5t-39.5 -76h327v-90h-340v-630h-180v630h-140zM1160 0v720h180v-720h-180zM1160 880v120h180v-120h-180z" />
<glyph unicode="&#xfb02;" horiz-adv-x="1335" d="M57 630v90h149q13 60 45.5 111t79 88.5t104 59t122.5 21.5h340v-90h-240q-46 0 -88.5 -14t-77.5 -39.5t-61.5 -60.5t-39.5 -76h327v-90h-340v-630h-180v630h-140zM1057 0v1000h180v-1000h-180z" />
</font>
</defs>
</svg>
