<svg xmlns="http://www.w3.org/2000/svg" viewBox="0 0 191.54 142.51"><defs><style>.cls-1{fill:none;stroke:#000;stroke-miterlimit:10;stroke-width:0.5px;}</style></defs><title>Recurso 5</title><g id="Capa_2" data-name="Capa 2"><g id="Capa_1-2" data-name="Capa 1"><g id="_Grupo_" data-name="&lt;Grupo&gt;"><rect id="_Trazado_" data-name="&lt;Trazado&gt;" class="cls-1" x="0.25" y="0.25" width="0.24" height="123.27"/><rect id="_Trazado_2" data-name="&lt;Trazado&gt;" class="cls-1" x="124.59" y="0.25" width="0.24" height="123.27"/><rect id="_Trazado_3" data-name="&lt;Trazado&gt;" class="cls-1" x="62.05" y="0.25" width="0.24" height="123.27"/><rect id="_Trazado_4" data-name="&lt;Trazado&gt;" class="cls-1" x="191.04" y="0.25" width="0.24" height="123.27"/><path d="M27.58,57H16.88v-.7h1.26V5.27H16.88v-.7H32.54a11.68,11.68,0,0,1,5,1.22,13.86,13.86,0,0,1,4.06,3.08,14,14,0,0,1,2.72,4.51,15.36,15.36,0,0,1,1,5.53,15.29,15.29,0,0,1-.87,5.17A15.55,15.55,0,0,1,42,28.46a13.22,13.22,0,0,1-3.57,3.18A11.75,11.75,0,0,1,34,33.25a11.66,11.66,0,0,1,3.74,2,13.11,13.11,0,0,1,2.94,3.14,15.79,15.79,0,0,1,1.93,4,15.39,15.39,0,0,1,.7,4.65v.87c0,.49,0,1,0,1.54s0,1.27,0,2.2c0,.42,0,1,.1,1.82a8.66,8.66,0,0,0,.59,2.41,6.68,6.68,0,0,0,1.47,2.21,4.9,4.9,0,0,0,2.73,1.26,6.73,6.73,0,0,1-3,.77,10.46,10.46,0,0,1-4.44-.81,7.69,7.69,0,0,1-2.73-2,6.84,6.84,0,0,1-1.39-2.72,11.61,11.61,0,0,1-.39-2.91c0-.14,0-.45,0-.94s0-1,0-1.54V46.75a24,24,0,0,0-.49-4.9,14.22,14.22,0,0,0-1.54-4.2,9.27,9.27,0,0,0-2.69-3,7.49,7.49,0,0,0-4-1.29H26.25V54.93a1.48,1.48,0,0,0,.14.7,1.13,1.13,0,0,0,1.19.7ZM26.25,32.62h3.08a8.13,8.13,0,0,0,4-1.51,10.89,10.89,0,0,0,2.76-3,13.11,13.11,0,0,0,1.64-4.2,22.92,22.92,0,0,0,.53-5,25.88,25.88,0,0,0-.46-5,14,14,0,0,0-1.5-4.26A9.36,9.36,0,0,0,33.56,6.6a7.47,7.47,0,0,0-4-1.33h-2a1.13,1.13,0,0,0-1.19.7,1.48,1.48,0,0,0-.14.7Z"/><path d="M104.87,54.69a9.54,9.54,0,0,0,1.29-2.87,23.39,23.39,0,0,0,.67-3.43c.14-1.19.29-2.28.45-3.29a10.61,10.61,0,0,1,.66-2.48,1.41,1.41,0,0,1,1.33-1V57H82.06v-.7h1.26V5.27H82.06v-.7h26.09V20a1.39,1.39,0,0,1-1.32-1,10.57,10.57,0,0,1-.67-2.48c-.16-1-.31-2.1-.45-3.29A23.39,23.39,0,0,0,105,9.78a9.54,9.54,0,0,0-1.29-2.87,4.12,4.12,0,0,0-2.38-1.64h-8.6a1.13,1.13,0,0,0-1.19.7,1.48,1.48,0,0,0-.14.7V30.38h2.87A5.57,5.57,0,0,0,96.68,30,3.68,3.68,0,0,0,98,29a4,4,0,0,0,.66-1.27,11.88,11.88,0,0,1,.46-1.28,2.91,2.91,0,0,1,.66-1,1.81,1.81,0,0,1,1.33-.42V36.53a1.91,1.91,0,0,1-1.33-.38,2.61,2.61,0,0,1-.66-1c-.17-.42-.32-.85-.46-1.3A4.64,4.64,0,0,0,98,32.55a3.29,3.29,0,0,0-1.3-1,6,6,0,0,0-2.37-.38H91.44V54.93a1.48,1.48,0,0,0,.14.7,1.13,1.13,0,0,0,1.19.7h9.79A4.09,4.09,0,0,0,104.87,54.69Z"/><path d="M163.59,56.33V31.15h-8.47V54.93a1.62,1.62,0,0,0,.14.7,1.14,1.14,0,0,0,1.19.7V57h-10.7v-.7H147V5.27h-1.26v-.7h10.7v.7a1.14,1.14,0,0,0-1.19.7,1.62,1.62,0,0,0-.14.7V30.45h8.47V5.27h-1.26v-.7H173v.7a1.08,1.08,0,0,0-1.12.7,1.48,1.48,0,0,0-.14.7V54.93a1.48,1.48,0,0,0,.14.7,1.08,1.08,0,0,0,1.12.7V57H162.33v-.7Z"/><path d="M48,116.66l.14.7H37.48l-.14-.7h1.25L34.75,98.82H24.47l-2.31,12.1a9,9,0,0,0,.28,2.87,5.23,5.23,0,0,0,1.12,2,3.16,3.16,0,0,0,2.51.88l-.14.7H15.23l.14-.7h5L28.8,71.75,27.47,65.6H26.21l-.14-.7H36.71l.14.7a.88.88,0,0,0-.7.24,1.24,1.24,0,0,0-.28.53,1.63,1.63,0,0,0,0,.7l10.56,48.19a2.78,2.78,0,0,0,.38.77,1.53,1.53,0,0,0,1,.63ZM34.54,98.05,29.22,73.57,24.61,98.05Z"/><path d="M101.51,116.66V91.48H93.05v23.78a1.48,1.48,0,0,0,.14.7,1.14,1.14,0,0,0,1.19.7v.7H83.67v-.7h1.26V65.6H83.67v-.7H94.38v.7a1.13,1.13,0,0,0-1.19.7,1.46,1.46,0,0,0-.14.7V90.78h8.46V65.6h-1.26v-.7h10.63v.7a1.09,1.09,0,0,0-1.12.7,1.58,1.58,0,0,0-.14.7v48.26a1.62,1.62,0,0,0,.14.7,1.1,1.1,0,0,0,1.12.7v.7H100.25v-.7Z"/><path d="M151.41,113.79a5.52,5.52,0,0,0,1.51,2,4.26,4.26,0,0,0,2.9.88v.7h-10.7v-.7h5V74.76l-3.43-9.16h-1.54v-.7h10.7l.21.7c-.56,0-.84.23-.84.7a1.28,1.28,0,0,0,.07.7l14.41,38.53V65.6h-5v-.7h10.64v.7a4.05,4.05,0,0,0-2.87.91A6,6,0,0,0,171,68.46a8,8,0,0,0-.63,2.87v39.59a8,8,0,0,0,.63,2.87,5.52,5.52,0,0,0,1.47,2,4.14,4.14,0,0,0,2.87.88v.7H164.7v-.7h1L150.79,76.72v34.2A7.8,7.8,0,0,0,151.41,113.79Z"/><path d="M58.4,135.58H56.22v3.06h-.54v-9.79H58.4A3.36,3.36,0,0,1,60.18,135h0a3.33,3.33,0,0,1-1.32.51A3.93,3.93,0,0,1,58.4,135.58Zm-.07-.6a2.77,2.77,0,1,0,0-5.53H56.22V135Z"/><path d="M63.15,134.19v4.44h-.58V128.11h.58v5a4.35,4.35,0,0,1,.69-.77,3.09,3.09,0,0,1,1.88-.69,3.05,3.05,0,0,1,2.63,1.6,3.53,3.53,0,0,1,.48,1.5c0,.23,0,.78,0,3.89h-.53v-4.08a2.78,2.78,0,0,0-2.56-2.39A2.73,2.73,0,0,0,63.15,134.19Z"/><path d="M76.62,135.09a3.45,3.45,0,1,1-3.44-3.55A3.5,3.5,0,0,1,76.62,135.09Zm-.52,0a2.93,2.93,0,1,0-2.92,3A3,3,0,0,0,76.1,135.09Z"/><path d="M80.87,132.74H79.13v5.9h-.55v-5.9H76.83v-.57h1.75v-3.38h.54v3.38h1.74Z"/><path d="M88,135.09a3.45,3.45,0,1,1-3.44-3.55A3.5,3.5,0,0,1,88,135.09Zm-.52,0a2.93,2.93,0,1,0-2.92,3A3,3,0,0,0,87.47,135.09Z"/><path d="M94.62,141.78a3.36,3.36,0,0,1-4.78-.62l.19-.33h0l.1-.18a2.89,2.89,0,0,0,2.39,1.3,3,3,0,0,0,2.83-2.56v-2.2l-.75.62h0a3.35,3.35,0,0,1-4.16.07,3.45,3.45,0,0,1-.92-1.05,3.61,3.61,0,0,1-.48-1.79,3.49,3.49,0,0,1,3.43-3.54,3.31,3.31,0,0,1,2.16.79l.74.61v-1.4h.55V139A3.57,3.57,0,0,1,94.62,141.78Zm.72-7.11a2.91,2.91,0,0,0-5.8.39,3.09,3.09,0,0,0,.16.94,2.89,2.89,0,0,0,2.75,2,2.93,2.93,0,0,0,1.89-.71,3,3,0,0,0,.91-1.44,4.47,4.47,0,0,0,.09-.45Z"/><path d="M99.76,132.11a3,3,0,0,0-2.48,2.48v4H96.8v-7h.48v1.63a4.38,4.38,0,0,1,.73-.89,3,3,0,0,1,1.75-.74Z"/><path d="M105.79,138.63v-1.37l-.73.6a3.32,3.32,0,0,1-2.13.77,3.49,3.49,0,0,1,0-7,3.32,3.32,0,0,1,2.13.77l.73.6v-1.38h.6v7Zm-.07-3.81v0a2.86,2.86,0,1,0,0,.75Z"/><path d="M108.51,137.76l-.7-.58v5.09h-.54V131.75h.54v1.34l.7-.59a3.25,3.25,0,0,1,2.07-.75,3.39,3.39,0,0,1,0,6.77A3.26,3.26,0,0,1,108.51,137.76Zm-.66-3v.73a2.74,2.74,0,1,0,2.73-3.15A2.72,2.72,0,0,0,107.85,134.77Z"/><path d="M115.34,134.19v4.44h-.58V128.11h.58v5a4.61,4.61,0,0,1,.7-.77,2.93,2.93,0,0,1,4.5.91,3.4,3.4,0,0,1,.48,1.5c0,.23,0,.78,0,3.89h-.54v-4.08a2.78,2.78,0,0,0-2.56-2.39A2.75,2.75,0,0,0,115.34,134.19Z"/><path d="M128.76,135.34H122.4a3,3,0,0,0,2.93,2.75,3.26,3.26,0,0,0,1.51-.44h.84a3.38,3.38,0,0,1-2.35,1,3.54,3.54,0,0,1,0-7.08A3.61,3.61,0,0,1,128.76,135.34Zm-.56-.53a3,3,0,0,0-2.87-2.76,2.91,2.91,0,0,0-2.91,2.76Z"/><path d="M132.63,132.11a3,3,0,0,0-2.48,2.48v4h-.47v-7h.47v1.63a4.82,4.82,0,0,1,.73-.89,3,3,0,0,1,1.75-.74Z"/></g></g></g></svg>