<svg xmlns="http://www.w3.org/2000/svg" viewBox="0 0 487.25 352.55"><defs><style>.cls-1{fill:#232323;}</style></defs><title>pinzas</title><g id="Capa_2" data-name="Capa 2"><g id="Capa_1-2" data-name="Capa 1"><path class="cls-1" d="M44.87,330.72H3.9c-2.17,0-3.9,2.47-3.9,5.53V347c0,3.07,1.73,5.54,3.9,5.54H5.85c0-.25-.12-.43-.12-.68a7,7,0,0,1,14.1,0c0,.25-.1.43-.12.68H26.8c0-.25-.15-.43-.15-.68a7.06,7.06,0,0,1,14.12,0c0,.25-.12.43-.14.68h4.24c2.15,0,3.9-2.47,3.9-5.54V336.25C48.77,333.19,47,330.72,44.87,330.72Z"/><path class="cls-1" d="M25,0V301.7c0,1-1.73,1-1.73.08V0Z"/><path class="cls-1" d="M15.17,337.28V311.76a9,9,0,0,1,18,0v25.52h1.48V311.76a10.49,10.49,0,1,0-21,0v25.52Z"/><path class="cls-1" d="M483.38,330.72h-41c-2.18,0-3.92,2.47-3.92,5.53V347c0,3.07,1.74,5.54,3.92,5.54h2a4.23,4.23,0,0,1-.17-.68,7.08,7.08,0,0,1,14.15,0c0,.25-.17.43-.17.68h7.05c0-.25-.08-.43-.08-.68a7.05,7.05,0,1,1,14.1,0,4.07,4.07,0,0,1-.13.68h4.25c2.14,0,3.87-2.47,3.87-5.54V336.25C487.25,333.19,485.52,330.72,483.38,330.72Z"/><path class="cls-1" d="M463.55,0V301.7c0,1-1.73,1-1.73.08V0Z"/><path class="cls-1" d="M453.65,337.28V311.76a9,9,0,0,1,18,0v25.52h1.48V311.76a10.49,10.49,0,1,0-21,0v25.52Z"/></g></g></svg>